<?xml version="1.0" encoding="UTF-8" standalone="no"?>
<svg
   xmlns:osb="http://www.openswatchbook.org/uri/2009/osb"
   xmlns:dc="http://purl.org/dc/elements/1.1/"
   xmlns:cc="http://creativecommons.org/ns#"
   xmlns:rdf="http://www.w3.org/1999/02/22-rdf-syntax-ns#"
   xmlns:svg="http://www.w3.org/2000/svg"
   xmlns="http://www.w3.org/2000/svg"
   xmlns:sodipodi="http://sodipodi.sourceforge.net/DTD/sodipodi-0.dtd"
   xmlns:inkscape="http://www.inkscape.org/namespaces/inkscape"
   version="1.1"
   id="svg4136"
   viewBox="0 0 2 2"
   height="2"
   width="2"
   sodipodi:docname="auto.svg"
   inkscape:version="0.92.4 (5da689c313, 2019-01-14)">
  <sodipodi:namedview
     pagecolor="#ffffff"
     bordercolor="#666666"
     borderopacity="1"
     objecttolerance="10"
     gridtolerance="10"
     guidetolerance="10"
     inkscape:pageopacity="0"
     inkscape:pageshadow="2"
     inkscape:window-width="1680"
     inkscape:window-height="1003"
     id="namedview24"
     showgrid="false"
     inkscape:zoom="256"
     inkscape:cx="1.309935"
     inkscape:cy="1.2492091"
     inkscape:window-x="-4"
     inkscape:window-y="-4"
     inkscape:window-maximized="1"
     inkscape:current-layer="svg4136"
     showguides="false" />
  <defs
     id="defs4138">
    <linearGradient
       osb:paint="solid"
       id="linearGradient5643">
      <stop
         id="stop5645"
         offset="0"
         style="stop-color:#000000;stop-opacity:1;" />
    </linearGradient>
  </defs>
  <metadata
     id="metadata4141">
    <rdf:RDF>
      <cc:Work
         rdf:about="">
        <dc:format>image/svg+xml</dc:format>
        <dc:type
           rdf:resource="http://purl.org/dc/dcmitype/StillImage" />
        <dc:title></dc:title>
      </cc:Work>
    </rdf:RDF>
  </metadata>
  <path
     style="color:#000000;font-style:normal;font-variant:normal;font-weight:normal;font-stretch:normal;font-size:medium;line-height:normal;font-family:sans-serif;font-variant-ligatures:normal;font-variant-position:normal;font-variant-caps:normal;font-variant-numeric:normal;font-variant-alternates:normal;font-feature-settings:normal;text-indent:0;text-align:start;text-decoration:none;text-decoration-line:none;text-decoration-style:solid;text-decoration-color:#000000;letter-spacing:normal;word-spacing:normal;text-transform:none;writing-mode:lr-tb;direction:ltr;text-orientation:mixed;dominant-baseline:auto;baseline-shift:baseline;text-anchor:start;white-space:normal;shape-padding:0;clip-rule:nonzero;display:inline;overflow:visible;visibility:visible;opacity:1;isolation:auto;mix-blend-mode:normal;color-interpolation:sRGB;color-interpolation-filters:linearRGB;solid-color:#000000;solid-opacity:1;vector-effect:none;fill:#000000;fill-opacity:1;fill-rule:nonzero;stroke:none;stroke-width:0.32019696;stroke-linecap:butt;stroke-linejoin:miter;stroke-miterlimit:4;stroke-dasharray:none;stroke-dashoffset:0;stroke-opacity:1;color-rendering:auto;image-rendering:auto;shape-rendering:auto;text-rendering:auto;enable-background:accumulate"
     d="M 1.0039062 0.5 L 0.92773438 0.60351562 L 0.82226562 0.53125 L 0.67578125 0.61523438 L 0.6875 0.7421875 L 0.55859375 0.75390625 L 0.5 0.91015625 L 0.59179688 1 L 0.5 1.0898438 L 0.55859375 1.2480469 L 0.6875 1.2578125 L 0.67578125 1.3847656 L 0.82226562 1.46875 L 0.92773438 1.3964844 L 1.0039062 1.5 L 1.1699219 1.4707031 L 1.203125 1.3476562 L 1.328125 1.3808594 L 1.4375 1.2539062 L 1.3828125 1.1386719 L 1.5 1.0839844 L 1.5 0.91601562 L 1.3828125 0.86328125 L 1.4375 0.74804688 L 1.328125 0.61914062 L 1.203125 0.65234375 L 1.1699219 0.52929688 L 1.0039062 0.5 z M 0.98632812 0.80078125 A 0.2 0.2 0 0 1 1 0.80078125 A 0.2 0.2 0 0 1 1.1992188 1 A 0.2 0.2 0 0 1 1 1.1992188 A 0.2 0.2 0 0 1 0.80078125 1 A 0.2 0.2 0 0 1 0.98632812 0.80078125 z "
     id="path2481" />
  <path
     style="color:#000000;font-style:normal;font-variant:normal;font-weight:normal;font-stretch:normal;font-size:medium;line-height:normal;font-family:sans-serif;font-variant-ligatures:normal;font-variant-position:normal;font-variant-caps:normal;font-variant-numeric:normal;font-variant-alternates:normal;font-feature-settings:normal;text-indent:0;text-align:start;text-decoration:none;text-decoration-line:none;text-decoration-style:solid;text-decoration-color:#000000;letter-spacing:normal;word-spacing:normal;text-transform:none;writing-mode:lr-tb;direction:ltr;text-orientation:mixed;dominant-baseline:auto;baseline-shift:baseline;text-anchor:start;white-space:normal;shape-padding:0;clip-rule:nonzero;display:inline;overflow:visible;visibility:visible;opacity:1;isolation:auto;mix-blend-mode:normal;color-interpolation:sRGB;color-interpolation-filters:linearRGB;solid-color:#000000;solid-opacity:1;vector-effect:none;fill:#000000;fill-opacity:1;fill-rule:nonzero;stroke:none;stroke-width:0.10000002;stroke-linecap:square;stroke-linejoin:miter;stroke-miterlimit:4;stroke-dasharray:none;stroke-dashoffset:0;stroke-opacity:1;paint-order:normal;color-rendering:auto;image-rendering:auto;shape-rendering:auto;text-rendering:auto;enable-background:accumulate"
     d="M 1.7265625,0.97070312 1.5878906,1.1210938 1.5546875,1.1582031 1.6289062,1.2246094 1.6621094,1.1875 C 1.576505,1.4996392 1.3373046,1.7 1,1.7 0.61328005,1.7 0.36102987,1.4263582 0.31980469,1.0507812 H 0.22019532 C 0.26200783,1.480724 0.55917343,1.8 1,1.8 1.3994813,1.8 1.6861935,1.542801 1.7695312,1.1660156 l 0.019531,0.021484 0.033203,0.037109 0.074219,-0.066406 -0.033203,-0.037109 -0.064453,-0.070313 z"
     id="path906"
     inkscape:connector-curvature="0"
     sodipodi:nodetypes="cccccsccsccccccc" />
  <path
     style="color:#000000;font-style:normal;font-variant:normal;font-weight:normal;font-stretch:normal;font-size:medium;line-height:normal;font-family:sans-serif;font-variant-ligatures:normal;font-variant-position:normal;font-variant-caps:normal;font-variant-numeric:normal;font-variant-alternates:normal;font-feature-settings:normal;text-indent:0;text-align:start;text-decoration:none;text-decoration-line:none;text-decoration-style:solid;text-decoration-color:#000000;letter-spacing:normal;word-spacing:normal;text-transform:none;writing-mode:lr-tb;direction:ltr;text-orientation:mixed;dominant-baseline:auto;baseline-shift:baseline;text-anchor:start;white-space:normal;shape-padding:0;clip-rule:nonzero;display:inline;overflow:visible;visibility:visible;opacity:1;isolation:auto;mix-blend-mode:normal;color-interpolation:sRGB;color-interpolation-filters:linearRGB;solid-color:#000000;solid-opacity:1;vector-effect:none;fill:#000000;fill-opacity:1;fill-rule:nonzero;stroke:none;stroke-width:0.10000002;stroke-linecap:square;stroke-linejoin:miter;stroke-miterlimit:4;stroke-dasharray:none;stroke-dashoffset:0;stroke-opacity:1;paint-order:normal;color-rendering:auto;image-rendering:auto;shape-rendering:auto;text-rendering:auto;enable-background:accumulate"
     d="M 1,0.2 C 0.60051871,0.2 0.31380656,0.45719907 0.23046875,0.83398438 L 0.20703125,0.80664062 0.17382812,0.76953125 0.09960937,0.83789062 0.1328125,0.875 0.20117188,0.94921875 0.26953125,1.0253906 0.40625,0.875 0.44140625,0.83789062 0.3671875,0.76953125 0.34179688,0.79882812 C 0.43087434,0.49322664 0.66765474,0.3 1,0.3 c 0.38672,0 0.6389703,0.27364194 0.6801955,0.64921875 h 0.099609 C 1.7379926,0.51927616 1.4408266,0.2 1,0.2 Z"
     id="path868-2"
     inkscape:connector-curvature="0"
     sodipodi:nodetypes="scccccccccccsccs" />
</svg>
