G04 #@! TF.GenerationSoftware,KiCad,Pcbnew,(5.1.5)-3*
G04 #@! TF.CreationDate,2022-04-18T12:11:36+02:00*
G04 #@! TF.ProjectId,vkm,766b6d2e-6b69-4636-9164-5f7063625858,B*
G04 #@! TF.SameCoordinates,PX420a400PY707b2a8*
G04 #@! TF.FileFunction,Legend,Top*
G04 #@! TF.FilePolarity,Positive*
%FSLAX46Y46*%
G04 Gerber Fmt 4.6, Leading zero omitted, Abs format (unit mm)*
G04 Created by KiCad (PCBNEW (5.1.5)-3) date 2022-04-18 12:11:36*
%MOMM*%
%LPD*%
G04 APERTURE LIST*
%ADD10C,0.150000*%
%ADD11C,0.300000*%
%ADD12C,0.050000*%
%ADD13C,0.120000*%
%ADD14C,0.100000*%
G04 APERTURE END LIST*
D10*
X19064666Y19918870D02*
X19398000Y18267870D01*
X19731333Y19918870D01*
X19469428Y16506179D02*
X19612285Y16427560D01*
X19659904Y16348941D01*
X19707523Y16191703D01*
X19707523Y15955846D01*
X19659904Y15798608D01*
X19612285Y15719989D01*
X19517047Y15641370D01*
X19136095Y15641370D01*
X19136095Y17292370D01*
X19469428Y17292370D01*
X19564666Y17213750D01*
X19612285Y17135131D01*
X19659904Y16977893D01*
X19659904Y16820655D01*
X19612285Y16663417D01*
X19564666Y16584798D01*
X19469428Y16506179D01*
X19136095Y16506179D01*
X19707523Y13014870D02*
X19374190Y13801060D01*
X19136095Y13014870D02*
X19136095Y14665870D01*
X19517047Y14665870D01*
X19612285Y14587250D01*
X19659904Y14508631D01*
X19707523Y14351393D01*
X19707523Y14115536D01*
X19659904Y13958298D01*
X19612285Y13879679D01*
X19517047Y13801060D01*
X19136095Y13801060D01*
X19659904Y11960750D02*
X19564666Y12039370D01*
X19421809Y12039370D01*
X19278952Y11960750D01*
X19183714Y11803512D01*
X19136095Y11646274D01*
X19088476Y11331798D01*
X19088476Y11095941D01*
X19136095Y10781465D01*
X19183714Y10624227D01*
X19278952Y10466989D01*
X19421809Y10388370D01*
X19517047Y10388370D01*
X19659904Y10466989D01*
X19707523Y10545608D01*
X19707523Y11095941D01*
X19517047Y11095941D01*
X19064666Y42778870D02*
X19398000Y41127870D01*
X19731333Y42778870D01*
X19469428Y39366179D02*
X19612285Y39287560D01*
X19659904Y39208941D01*
X19707523Y39051703D01*
X19707523Y38815846D01*
X19659904Y38658608D01*
X19612285Y38579989D01*
X19517047Y38501370D01*
X19136095Y38501370D01*
X19136095Y40152370D01*
X19469428Y40152370D01*
X19564666Y40073750D01*
X19612285Y39995131D01*
X19659904Y39837893D01*
X19659904Y39680655D01*
X19612285Y39523417D01*
X19564666Y39444798D01*
X19469428Y39366179D01*
X19136095Y39366179D01*
X19707523Y35874870D02*
X19374190Y36661060D01*
X19136095Y35874870D02*
X19136095Y37525870D01*
X19517047Y37525870D01*
X19612285Y37447250D01*
X19659904Y37368631D01*
X19707523Y37211393D01*
X19707523Y36975536D01*
X19659904Y36818298D01*
X19612285Y36739679D01*
X19517047Y36661060D01*
X19136095Y36661060D01*
X19659904Y34820750D02*
X19564666Y34899370D01*
X19421809Y34899370D01*
X19278952Y34820750D01*
X19183714Y34663512D01*
X19136095Y34506274D01*
X19088476Y34191798D01*
X19088476Y33955941D01*
X19136095Y33641465D01*
X19183714Y33484227D01*
X19278952Y33326989D01*
X19421809Y33248370D01*
X19517047Y33248370D01*
X19659904Y33326989D01*
X19707523Y33405608D01*
X19707523Y33955941D01*
X19517047Y33955941D01*
D11*
X9633421Y11519000D02*
G75*
G03X9633421Y11519000I-141421J0D01*
G01*
X7512421Y29603000D02*
G75*
G03X7512421Y29603000I-141421J0D01*
G01*
X9633421Y36030000D02*
G75*
G03X9633421Y36030000I-141421J0D01*
G01*
D12*
X0Y0D02*
X20000000Y0D01*
X0Y50000000D02*
X0Y0D01*
X20000000Y50000000D02*
X0Y50000000D01*
X20000000Y0D02*
X20000000Y50000000D01*
D13*
X13458221Y10187500D02*
X13783779Y10187500D01*
X13458221Y9167500D02*
X13783779Y9167500D01*
X5563779Y9167500D02*
X5238221Y9167500D01*
X5563779Y10187500D02*
X5238221Y10187500D01*
D14*
X16078000Y50212000D02*
X4065000Y50212000D01*
X4065000Y64927000D02*
X4065000Y48912000D01*
X4065000Y64927000D02*
X16078000Y64927000D01*
X16078000Y64927000D02*
X16078000Y48906000D01*
X8303000Y59763000D02*
X5841000Y59763000D01*
X5841000Y59763000D02*
X5841000Y57763000D01*
X5841000Y57763000D02*
X8303000Y57763000D01*
X8303000Y59763000D02*
X8303000Y57763000D01*
X11840000Y59763000D02*
X14287000Y59763000D01*
X14287000Y59763000D02*
X14287000Y57763000D01*
X14287000Y57763000D02*
X11840000Y57763000D01*
X11840000Y59763000D02*
X11840000Y57763000D01*
X14188000Y46212000D02*
X13969000Y46212000D01*
X13173000Y46212000D02*
X11469000Y46212000D01*
X10672000Y46212000D02*
X9469000Y46212000D01*
X8672000Y46212000D02*
X6969000Y46212000D01*
X6173000Y46212000D02*
X5954000Y46212000D01*
D13*
X14061000Y12521779D02*
X14061000Y12196221D01*
X15081000Y12521779D02*
X15081000Y12196221D01*
X14061000Y16661779D02*
X14061000Y16336221D01*
X15081000Y16661779D02*
X15081000Y16336221D01*
X14061000Y37051779D02*
X14061000Y36726221D01*
X15081000Y37051779D02*
X15081000Y36726221D01*
X14061000Y41191779D02*
X14061000Y40866221D01*
X15081000Y41191779D02*
X15081000Y40866221D01*
X18696000Y32922000D02*
X17366000Y32922000D01*
X18696000Y34252000D02*
X18696000Y32922000D01*
X18696000Y35522000D02*
X16036000Y35522000D01*
X16036000Y35522000D02*
X16036000Y43202000D01*
X18696000Y35522000D02*
X18696000Y43202000D01*
X18696000Y43202000D02*
X16036000Y43202000D01*
D10*
X10096000Y17879000D02*
X5646000Y17879000D01*
X11621000Y10979000D02*
X5646000Y10979000D01*
X10096000Y42409000D02*
X5646000Y42409000D01*
X11621000Y35509000D02*
X5646000Y35509000D01*
D13*
X12361000Y12196221D02*
X12361000Y12521779D01*
X13381000Y12196221D02*
X13381000Y12521779D01*
X13381000Y16661779D02*
X13381000Y16336221D01*
X12361000Y16661779D02*
X12361000Y16336221D01*
X12361000Y36726221D02*
X12361000Y37051779D01*
X13381000Y36726221D02*
X13381000Y37051779D01*
X13381000Y41191779D02*
X13381000Y40866221D01*
X12361000Y41191779D02*
X12361000Y40866221D01*
X18696000Y10062000D02*
X17366000Y10062000D01*
X18696000Y11392000D02*
X18696000Y10062000D01*
X18696000Y12662000D02*
X16036000Y12662000D01*
X16036000Y12662000D02*
X16036000Y20342000D01*
X18696000Y12662000D02*
X18696000Y20342000D01*
X18696000Y20342000D02*
X16036000Y20342000D01*
X15660000Y25100000D02*
X15660000Y26360000D01*
X15660000Y31920000D02*
X15660000Y30660000D01*
X11900000Y25100000D02*
X15660000Y25100000D01*
X9650000Y31920000D02*
X15660000Y31920000D01*
X2251000Y17579221D02*
X2251000Y17904779D01*
X3271000Y17579221D02*
X3271000Y17904779D01*
X2251000Y37391221D02*
X2251000Y37716779D01*
X3271000Y37391221D02*
X3271000Y37716779D01*
X2843500Y28410000D02*
X2843500Y26460000D01*
X2843500Y28410000D02*
X2843500Y30360000D01*
X7963500Y28410000D02*
X7963500Y26460000D01*
X7963500Y28410000D02*
X7963500Y31860000D01*
X11468000Y34933000D02*
X7558000Y34933000D01*
X11468000Y33063000D02*
X11468000Y34933000D01*
X7558000Y33063000D02*
X11468000Y33063000D01*
X2251000Y14023221D02*
X2251000Y14348779D01*
X3271000Y14023221D02*
X3271000Y14348779D01*
X13558221Y33168000D02*
X13883779Y33168000D01*
X13558221Y34188000D02*
X13883779Y34188000D01*
X6319000Y22857779D02*
X6319000Y22532221D01*
X5299000Y22857779D02*
X5299000Y22532221D01*
X4688500Y20230000D02*
X4688500Y24140000D01*
X4688500Y24140000D02*
X2818500Y24140000D01*
X2818500Y24140000D02*
X2818500Y20230000D01*
X3271000Y41191779D02*
X3271000Y40866221D01*
X2251000Y41191779D02*
X2251000Y40866221D01*
X2251000Y6383221D02*
X2251000Y6708779D01*
X3271000Y6383221D02*
X3271000Y6708779D01*
D10*
X13452833Y7891620D02*
X13119500Y8367810D01*
X12881404Y7891620D02*
X12881404Y8891620D01*
X13262357Y8891620D01*
X13357595Y8844000D01*
X13405214Y8796381D01*
X13452833Y8701143D01*
X13452833Y8558286D01*
X13405214Y8463048D01*
X13357595Y8415429D01*
X13262357Y8367810D01*
X12881404Y8367810D01*
X13833785Y8796381D02*
X13881404Y8844000D01*
X13976642Y8891620D01*
X14214738Y8891620D01*
X14309976Y8844000D01*
X14357595Y8796381D01*
X14405214Y8701143D01*
X14405214Y8605905D01*
X14357595Y8463048D01*
X13786166Y7891620D01*
X14405214Y7891620D01*
X5234333Y7891620D02*
X4901000Y8367810D01*
X4662904Y7891620D02*
X4662904Y8891620D01*
X5043857Y8891620D01*
X5139095Y8844000D01*
X5186714Y8796381D01*
X5234333Y8701143D01*
X5234333Y8558286D01*
X5186714Y8463048D01*
X5139095Y8415429D01*
X5043857Y8367810D01*
X4662904Y8367810D01*
X6186714Y7891620D02*
X5615285Y7891620D01*
X5901000Y7891620D02*
X5901000Y8891620D01*
X5805761Y8748762D01*
X5710523Y8653524D01*
X5615285Y8605905D01*
X14404333Y13955858D02*
X14356714Y13908239D01*
X14213857Y13860620D01*
X14118619Y13860620D01*
X13975761Y13908239D01*
X13880523Y14003477D01*
X13832904Y14098715D01*
X13785285Y14289191D01*
X13785285Y14432048D01*
X13832904Y14622524D01*
X13880523Y14717762D01*
X13975761Y14813000D01*
X14118619Y14860620D01*
X14213857Y14860620D01*
X14356714Y14813000D01*
X14404333Y14765381D01*
X15261476Y14860620D02*
X15071000Y14860620D01*
X14975761Y14813000D01*
X14928142Y14765381D01*
X14832904Y14622524D01*
X14785285Y14432048D01*
X14785285Y14051096D01*
X14832904Y13955858D01*
X14880523Y13908239D01*
X14975761Y13860620D01*
X15166238Y13860620D01*
X15261476Y13908239D01*
X15309095Y13955858D01*
X15356714Y14051096D01*
X15356714Y14289191D01*
X15309095Y14384429D01*
X15261476Y14432048D01*
X15166238Y14479667D01*
X14975761Y14479667D01*
X14880523Y14432048D01*
X14832904Y14384429D01*
X14785285Y14289191D01*
X14404333Y18146858D02*
X14356714Y18099239D01*
X14213857Y18051620D01*
X14118619Y18051620D01*
X13975761Y18099239D01*
X13880523Y18194477D01*
X13832904Y18289715D01*
X13785285Y18480191D01*
X13785285Y18623048D01*
X13832904Y18813524D01*
X13880523Y18908762D01*
X13975761Y19004000D01*
X14118619Y19051620D01*
X14213857Y19051620D01*
X14356714Y19004000D01*
X14404333Y18956381D01*
X15309095Y19051620D02*
X14832904Y19051620D01*
X14785285Y18575429D01*
X14832904Y18623048D01*
X14928142Y18670667D01*
X15166238Y18670667D01*
X15261476Y18623048D01*
X15309095Y18575429D01*
X15356714Y18480191D01*
X15356714Y18242096D01*
X15309095Y18146858D01*
X15261476Y18099239D01*
X15166238Y18051620D01*
X14928142Y18051620D01*
X14832904Y18099239D01*
X14785285Y18146858D01*
X14404333Y34445858D02*
X14356714Y34398239D01*
X14213857Y34350620D01*
X14118619Y34350620D01*
X13975761Y34398239D01*
X13880523Y34493477D01*
X13832904Y34588715D01*
X13785285Y34779191D01*
X13785285Y34922048D01*
X13832904Y35112524D01*
X13880523Y35207762D01*
X13975761Y35303000D01*
X14118619Y35350620D01*
X14213857Y35350620D01*
X14356714Y35303000D01*
X14404333Y35255381D01*
X14737666Y35350620D02*
X15356714Y35350620D01*
X15023380Y34969667D01*
X15166238Y34969667D01*
X15261476Y34922048D01*
X15309095Y34874429D01*
X15356714Y34779191D01*
X15356714Y34541096D01*
X15309095Y34445858D01*
X15261476Y34398239D01*
X15166238Y34350620D01*
X14880523Y34350620D01*
X14785285Y34398239D01*
X14737666Y34445858D01*
X14404333Y38545858D02*
X14356714Y38498239D01*
X14213857Y38450620D01*
X14118619Y38450620D01*
X13975761Y38498239D01*
X13880523Y38593477D01*
X13832904Y38688715D01*
X13785285Y38879191D01*
X13785285Y39022048D01*
X13832904Y39212524D01*
X13880523Y39307762D01*
X13975761Y39403000D01*
X14118619Y39450620D01*
X14213857Y39450620D01*
X14356714Y39403000D01*
X14404333Y39355381D01*
X14785285Y39355381D02*
X14832904Y39403000D01*
X14928142Y39450620D01*
X15166238Y39450620D01*
X15261476Y39403000D01*
X15309095Y39355381D01*
X15356714Y39260143D01*
X15356714Y39164905D01*
X15309095Y39022048D01*
X14737666Y38450620D01*
X15356714Y38450620D01*
X7109095Y14987620D02*
X7109095Y14178096D01*
X7156714Y14082858D01*
X7204333Y14035239D01*
X7299571Y13987620D01*
X7490047Y13987620D01*
X7585285Y14035239D01*
X7632904Y14082858D01*
X7680523Y14178096D01*
X7680523Y14987620D01*
X8109095Y14892381D02*
X8156714Y14940000D01*
X8251952Y14987620D01*
X8490047Y14987620D01*
X8585285Y14940000D01*
X8632904Y14892381D01*
X8680523Y14797143D01*
X8680523Y14701905D01*
X8632904Y14559048D01*
X8061476Y13987620D01*
X8680523Y13987620D01*
X7109095Y39498620D02*
X7109095Y38689096D01*
X7156714Y38593858D01*
X7204333Y38546239D01*
X7299571Y38498620D01*
X7490047Y38498620D01*
X7585285Y38546239D01*
X7632904Y38593858D01*
X7680523Y38689096D01*
X7680523Y39498620D01*
X8680523Y38498620D02*
X8109095Y38498620D01*
X8394809Y38498620D02*
X8394809Y39498620D01*
X8299571Y39355762D01*
X8204333Y39260524D01*
X8109095Y39212905D01*
X12504333Y13860620D02*
X12171000Y14336810D01*
X11932904Y13860620D02*
X11932904Y14860620D01*
X12313857Y14860620D01*
X12409095Y14813000D01*
X12456714Y14765381D01*
X12504333Y14670143D01*
X12504333Y14527286D01*
X12456714Y14432048D01*
X12409095Y14384429D01*
X12313857Y14336810D01*
X11932904Y14336810D01*
X13075761Y14432048D02*
X12980523Y14479667D01*
X12932904Y14527286D01*
X12885285Y14622524D01*
X12885285Y14670143D01*
X12932904Y14765381D01*
X12980523Y14813000D01*
X13075761Y14860620D01*
X13266238Y14860620D01*
X13361476Y14813000D01*
X13409095Y14765381D01*
X13456714Y14670143D01*
X13456714Y14622524D01*
X13409095Y14527286D01*
X13361476Y14479667D01*
X13266238Y14432048D01*
X13075761Y14432048D01*
X12980523Y14384429D01*
X12932904Y14336810D01*
X12885285Y14241572D01*
X12885285Y14051096D01*
X12932904Y13955858D01*
X12980523Y13908239D01*
X13075761Y13860620D01*
X13266238Y13860620D01*
X13361476Y13908239D01*
X13409095Y13955858D01*
X13456714Y14051096D01*
X13456714Y14241572D01*
X13409095Y14336810D01*
X13361476Y14384429D01*
X13266238Y14432048D01*
X12504333Y18051620D02*
X12171000Y18527810D01*
X11932904Y18051620D02*
X11932904Y19051620D01*
X12313857Y19051620D01*
X12409095Y19004000D01*
X12456714Y18956381D01*
X12504333Y18861143D01*
X12504333Y18718286D01*
X12456714Y18623048D01*
X12409095Y18575429D01*
X12313857Y18527810D01*
X11932904Y18527810D01*
X12837666Y19051620D02*
X13504333Y19051620D01*
X13075761Y18051620D01*
X12504333Y34350620D02*
X12171000Y34826810D01*
X11932904Y34350620D02*
X11932904Y35350620D01*
X12313857Y35350620D01*
X12409095Y35303000D01*
X12456714Y35255381D01*
X12504333Y35160143D01*
X12504333Y35017286D01*
X12456714Y34922048D01*
X12409095Y34874429D01*
X12313857Y34826810D01*
X11932904Y34826810D01*
X13361476Y35017286D02*
X13361476Y34350620D01*
X13123380Y35398239D02*
X12885285Y34683953D01*
X13504333Y34683953D01*
X12504333Y38450620D02*
X12171000Y38926810D01*
X11932904Y38450620D02*
X11932904Y39450620D01*
X12313857Y39450620D01*
X12409095Y39403000D01*
X12456714Y39355381D01*
X12504333Y39260143D01*
X12504333Y39117286D01*
X12456714Y39022048D01*
X12409095Y38974429D01*
X12313857Y38926810D01*
X11932904Y38926810D01*
X12837666Y39450620D02*
X13456714Y39450620D01*
X13123380Y39069667D01*
X13266238Y39069667D01*
X13361476Y39022048D01*
X13409095Y38974429D01*
X13456714Y38879191D01*
X13456714Y38641096D01*
X13409095Y38545858D01*
X13361476Y38498239D01*
X13266238Y38450620D01*
X12980523Y38450620D01*
X12885285Y38498239D01*
X12837666Y38545858D01*
X12988095Y28957620D02*
X12988095Y28148096D01*
X13035714Y28052858D01*
X13083333Y28005239D01*
X13178571Y27957620D01*
X13369047Y27957620D01*
X13464285Y28005239D01*
X13511904Y28052858D01*
X13559523Y28148096D01*
X13559523Y28957620D01*
X13940476Y28957620D02*
X14559523Y28957620D01*
X14226190Y28576667D01*
X14369047Y28576667D01*
X14464285Y28529048D01*
X14511904Y28481429D01*
X14559523Y28386191D01*
X14559523Y28148096D01*
X14511904Y28052858D01*
X14464285Y28005239D01*
X14369047Y27957620D01*
X14083333Y27957620D01*
X13988095Y28005239D01*
X13940476Y28052858D01*
X1743380Y17575334D02*
X1267190Y17242000D01*
X1743380Y17003905D02*
X743380Y17003905D01*
X743380Y17384858D01*
X791000Y17480096D01*
X838619Y17527715D01*
X933857Y17575334D01*
X1076714Y17575334D01*
X1171952Y17527715D01*
X1219571Y17480096D01*
X1267190Y17384858D01*
X1267190Y17003905D01*
X743380Y18432477D02*
X743380Y18242000D01*
X791000Y18146762D01*
X838619Y18099143D01*
X981476Y18003905D01*
X1171952Y17956286D01*
X1552904Y17956286D01*
X1648142Y18003905D01*
X1695761Y18051524D01*
X1743380Y18146762D01*
X1743380Y18337239D01*
X1695761Y18432477D01*
X1648142Y18480096D01*
X1552904Y18527715D01*
X1314809Y18527715D01*
X1219571Y18480096D01*
X1171952Y18432477D01*
X1124333Y18337239D01*
X1124333Y18146762D01*
X1171952Y18051524D01*
X1219571Y18003905D01*
X1314809Y17956286D01*
X1783380Y37387334D02*
X1307190Y37054000D01*
X1783380Y36815905D02*
X783380Y36815905D01*
X783380Y37196858D01*
X831000Y37292096D01*
X878619Y37339715D01*
X973857Y37387334D01*
X1116714Y37387334D01*
X1211952Y37339715D01*
X1259571Y37292096D01*
X1307190Y37196858D01*
X1307190Y36815905D01*
X783380Y38292096D02*
X783380Y37815905D01*
X1259571Y37768286D01*
X1211952Y37815905D01*
X1164333Y37911143D01*
X1164333Y38149239D01*
X1211952Y38244477D01*
X1259571Y38292096D01*
X1354809Y38339715D01*
X1592904Y38339715D01*
X1688142Y38292096D01*
X1735761Y38244477D01*
X1783380Y38149239D01*
X1783380Y37911143D01*
X1735761Y37815905D01*
X1688142Y37768286D01*
X5332761Y27862381D02*
X5237523Y27910000D01*
X5142285Y28005239D01*
X4999428Y28148096D01*
X4904190Y28195715D01*
X4808952Y28195715D01*
X4856571Y27957620D02*
X4761333Y28005239D01*
X4666095Y28100477D01*
X4618476Y28290953D01*
X4618476Y28624286D01*
X4666095Y28814762D01*
X4761333Y28910000D01*
X4856571Y28957620D01*
X5047047Y28957620D01*
X5142285Y28910000D01*
X5237523Y28814762D01*
X5285142Y28624286D01*
X5285142Y28290953D01*
X5237523Y28100477D01*
X5142285Y28005239D01*
X5047047Y27957620D01*
X4856571Y27957620D01*
X6237523Y27957620D02*
X5666095Y27957620D01*
X5951809Y27957620D02*
X5951809Y28957620D01*
X5856571Y28814762D01*
X5761333Y28719524D01*
X5666095Y28671905D01*
X4879142Y33156358D02*
X4831523Y33108739D01*
X4688666Y33061120D01*
X4593428Y33061120D01*
X4450571Y33108739D01*
X4355333Y33203977D01*
X4307714Y33299215D01*
X4260095Y33489691D01*
X4260095Y33632548D01*
X4307714Y33823024D01*
X4355333Y33918262D01*
X4450571Y34013500D01*
X4593428Y34061120D01*
X4688666Y34061120D01*
X4831523Y34013500D01*
X4879142Y33965881D01*
X5831523Y33061120D02*
X5260095Y33061120D01*
X5545809Y33061120D02*
X5545809Y34061120D01*
X5450571Y33918262D01*
X5355333Y33823024D01*
X5260095Y33775405D01*
X6783904Y33061120D02*
X6212476Y33061120D01*
X6498190Y33061120D02*
X6498190Y34061120D01*
X6402952Y33918262D01*
X6307714Y33823024D01*
X6212476Y33775405D01*
X1688142Y13543143D02*
X1735761Y13495524D01*
X1783380Y13352667D01*
X1783380Y13257429D01*
X1735761Y13114572D01*
X1640523Y13019334D01*
X1545285Y12971715D01*
X1354809Y12924096D01*
X1211952Y12924096D01*
X1021476Y12971715D01*
X926238Y13019334D01*
X831000Y13114572D01*
X783380Y13257429D01*
X783380Y13352667D01*
X831000Y13495524D01*
X878619Y13543143D01*
X1783380Y14495524D02*
X1783380Y13924096D01*
X1783380Y14209810D02*
X783380Y14209810D01*
X926238Y14114572D01*
X1021476Y14019334D01*
X1069095Y13924096D01*
X783380Y15114572D02*
X783380Y15209810D01*
X831000Y15305048D01*
X878619Y15352667D01*
X973857Y15400286D01*
X1164333Y15447905D01*
X1402428Y15447905D01*
X1592904Y15400286D01*
X1688142Y15352667D01*
X1735761Y15305048D01*
X1783380Y15209810D01*
X1783380Y15114572D01*
X1735761Y15019334D01*
X1688142Y14971715D01*
X1592904Y14924096D01*
X1402428Y14876477D01*
X1164333Y14876477D01*
X973857Y14924096D01*
X878619Y14971715D01*
X831000Y15019334D01*
X783380Y15114572D01*
X13516333Y32008358D02*
X13468714Y31960739D01*
X13325857Y31913120D01*
X13230619Y31913120D01*
X13087761Y31960739D01*
X12992523Y32055977D01*
X12944904Y32151215D01*
X12897285Y32341691D01*
X12897285Y32484548D01*
X12944904Y32675024D01*
X12992523Y32770262D01*
X13087761Y32865500D01*
X13230619Y32913120D01*
X13325857Y32913120D01*
X13468714Y32865500D01*
X13516333Y32817881D01*
X13992523Y31913120D02*
X14183000Y31913120D01*
X14278238Y31960739D01*
X14325857Y32008358D01*
X14421095Y32151215D01*
X14468714Y32341691D01*
X14468714Y32722643D01*
X14421095Y32817881D01*
X14373476Y32865500D01*
X14278238Y32913120D01*
X14087761Y32913120D01*
X13992523Y32865500D01*
X13944904Y32817881D01*
X13897285Y32722643D01*
X13897285Y32484548D01*
X13944904Y32389310D01*
X13992523Y32341691D01*
X14087761Y32294072D01*
X14278238Y32294072D01*
X14373476Y32341691D01*
X14421095Y32389310D01*
X14468714Y32484548D01*
X6166142Y20115334D02*
X6213761Y20067715D01*
X6261380Y19924858D01*
X6261380Y19829620D01*
X6213761Y19686762D01*
X6118523Y19591524D01*
X6023285Y19543905D01*
X5832809Y19496286D01*
X5689952Y19496286D01*
X5499476Y19543905D01*
X5404238Y19591524D01*
X5309000Y19686762D01*
X5261380Y19829620D01*
X5261380Y19924858D01*
X5309000Y20067715D01*
X5356619Y20115334D01*
X5689952Y20686762D02*
X5642333Y20591524D01*
X5594714Y20543905D01*
X5499476Y20496286D01*
X5451857Y20496286D01*
X5356619Y20543905D01*
X5309000Y20591524D01*
X5261380Y20686762D01*
X5261380Y20877239D01*
X5309000Y20972477D01*
X5356619Y21020096D01*
X5451857Y21067715D01*
X5499476Y21067715D01*
X5594714Y21020096D01*
X5642333Y20972477D01*
X5689952Y20877239D01*
X5689952Y20686762D01*
X5737571Y20591524D01*
X5785190Y20543905D01*
X5880428Y20496286D01*
X6070904Y20496286D01*
X6166142Y20543905D01*
X6213761Y20591524D01*
X6261380Y20686762D01*
X6261380Y20877239D01*
X6213761Y20972477D01*
X6166142Y21020096D01*
X6070904Y21067715D01*
X5880428Y21067715D01*
X5785190Y21020096D01*
X5737571Y20972477D01*
X5689952Y20877239D01*
X2356142Y21663334D02*
X2403761Y21615715D01*
X2451380Y21472858D01*
X2451380Y21377620D01*
X2403761Y21234762D01*
X2308523Y21139524D01*
X2213285Y21091905D01*
X2022809Y21044286D01*
X1879952Y21044286D01*
X1689476Y21091905D01*
X1594238Y21139524D01*
X1499000Y21234762D01*
X1451380Y21377620D01*
X1451380Y21472858D01*
X1499000Y21615715D01*
X1546619Y21663334D01*
X1451380Y21996667D02*
X1451380Y22663334D01*
X2451380Y22234762D01*
X1594142Y40862334D02*
X1641761Y40814715D01*
X1689380Y40671858D01*
X1689380Y40576620D01*
X1641761Y40433762D01*
X1546523Y40338524D01*
X1451285Y40290905D01*
X1260809Y40243286D01*
X1117952Y40243286D01*
X927476Y40290905D01*
X832238Y40338524D01*
X737000Y40433762D01*
X689380Y40576620D01*
X689380Y40671858D01*
X737000Y40814715D01*
X784619Y40862334D01*
X1022714Y41719477D02*
X1689380Y41719477D01*
X641761Y41481381D02*
X1356047Y41243286D01*
X1356047Y41862334D01*
X1721142Y6379334D02*
X1768761Y6331715D01*
X1816380Y6188858D01*
X1816380Y6093620D01*
X1768761Y5950762D01*
X1673523Y5855524D01*
X1578285Y5807905D01*
X1387809Y5760286D01*
X1244952Y5760286D01*
X1054476Y5807905D01*
X959238Y5855524D01*
X864000Y5950762D01*
X816380Y6093620D01*
X816380Y6188858D01*
X864000Y6331715D01*
X911619Y6379334D01*
X1816380Y7331715D02*
X1816380Y6760286D01*
X1816380Y7046000D02*
X816380Y7046000D01*
X959238Y6950762D01*
X1054476Y6855524D01*
X1102095Y6760286D01*
M02*
