G04 #@! TF.GenerationSoftware,KiCad,Pcbnew,(5.1.5)-3*
G04 #@! TF.CreationDate,2022-04-18T12:11:36+02:00*
G04 #@! TF.ProjectId,vkm,766b6d2e-6b69-4636-9164-5f7063625858,B*
G04 #@! TF.SameCoordinates,PX420a400PY707b2a8*
G04 #@! TF.FileFunction,Soldermask,Top*
G04 #@! TF.FilePolarity,Negative*
%FSLAX46Y46*%
G04 Gerber Fmt 4.6, Leading zero omitted, Abs format (unit mm)*
G04 Created by KiCad (PCBNEW (5.1.5)-3) date 2022-04-18 12:11:36*
%MOMM*%
%LPD*%
G04 APERTURE LIST*
%ADD10C,0.050000*%
%ADD11C,0.020000*%
G04 APERTURE END LIST*
D10*
X0Y0D02*
X20000000Y0D01*
X0Y50000000D02*
X0Y0D01*
X20000000Y50000000D02*
X0Y50000000D01*
X20000000Y0D02*
X20000000Y50000000D01*
D11*
G36*
X5795444Y2743879D02*
G01*
X5906452Y2710205D01*
X5906454Y2710204D01*
X6008754Y2655523D01*
X6008755Y2655522D01*
X6008757Y2655521D01*
X6098430Y2581930D01*
X6172021Y2492258D01*
X6172022Y2492256D01*
X6172023Y2492255D01*
X6226704Y2389955D01*
X6226705Y2389953D01*
X6260379Y2278945D01*
X6268900Y2192427D01*
X6268900Y1534573D01*
X6260379Y1448055D01*
X6226705Y1337047D01*
X6172021Y1234742D01*
X6098430Y1145070D01*
X6008758Y1071479D01*
X6008756Y1071478D01*
X6008755Y1071477D01*
X5906455Y1016796D01*
X5906453Y1016795D01*
X5795445Y983121D01*
X5680000Y971751D01*
X5564556Y983121D01*
X5453548Y1016795D01*
X5453546Y1016796D01*
X5351246Y1071477D01*
X5351245Y1071478D01*
X5351243Y1071479D01*
X5261571Y1145070D01*
X5187977Y1234745D01*
X5133296Y1337045D01*
X5099621Y1448055D01*
X5091100Y1534573D01*
X5091100Y2192426D01*
X5099621Y2278944D01*
X5133296Y2389954D01*
X5187977Y2492254D01*
X5187980Y2492258D01*
X5261570Y2581930D01*
X5351242Y2655521D01*
X5351244Y2655522D01*
X5351245Y2655523D01*
X5453545Y2710204D01*
X5453547Y2710205D01*
X5564555Y2743879D01*
X5680000Y2755249D01*
X5795444Y2743879D01*
G37*
G36*
X14435444Y2743879D02*
G01*
X14546452Y2710205D01*
X14546454Y2710204D01*
X14648754Y2655523D01*
X14648755Y2655522D01*
X14648757Y2655521D01*
X14738430Y2581930D01*
X14812021Y2492258D01*
X14812022Y2492256D01*
X14812023Y2492255D01*
X14866704Y2389955D01*
X14866705Y2389953D01*
X14900379Y2278945D01*
X14908900Y2192427D01*
X14908900Y1534573D01*
X14900379Y1448055D01*
X14866705Y1337047D01*
X14812021Y1234742D01*
X14738430Y1145070D01*
X14648758Y1071479D01*
X14648756Y1071478D01*
X14648755Y1071477D01*
X14546455Y1016796D01*
X14546453Y1016795D01*
X14435445Y983121D01*
X14320000Y971751D01*
X14204556Y983121D01*
X14093548Y1016795D01*
X14093546Y1016796D01*
X13991246Y1071477D01*
X13991245Y1071478D01*
X13991243Y1071479D01*
X13901571Y1145070D01*
X13827977Y1234745D01*
X13773296Y1337045D01*
X13739621Y1448055D01*
X13731100Y1534573D01*
X13731100Y2192426D01*
X13739621Y2278944D01*
X13773296Y2389954D01*
X13827977Y2492254D01*
X13827980Y2492258D01*
X13901570Y2581930D01*
X13991242Y2655521D01*
X13991244Y2655522D01*
X13991245Y2655523D01*
X14093545Y2710204D01*
X14093547Y2710205D01*
X14204555Y2743879D01*
X14320000Y2755249D01*
X14435444Y2743879D01*
G37*
G36*
X14435444Y7173879D02*
G01*
X14546452Y7140205D01*
X14546454Y7140204D01*
X14648754Y7085523D01*
X14648755Y7085522D01*
X14648757Y7085521D01*
X14738430Y7011930D01*
X14812021Y6922258D01*
X14812022Y6922256D01*
X14812023Y6922255D01*
X14832370Y6884189D01*
X14866705Y6819953D01*
X14900379Y6708945D01*
X14908900Y6622427D01*
X14908900Y5464573D01*
X14900379Y5378055D01*
X14866705Y5267047D01*
X14812021Y5164742D01*
X14738430Y5075070D01*
X14648758Y5001479D01*
X14648756Y5001478D01*
X14648755Y5001477D01*
X14546455Y4946796D01*
X14546453Y4946795D01*
X14435445Y4913121D01*
X14320000Y4901751D01*
X14204556Y4913121D01*
X14093548Y4946795D01*
X14093546Y4946796D01*
X13991246Y5001477D01*
X13991245Y5001478D01*
X13991243Y5001479D01*
X13901571Y5075070D01*
X13827980Y5164742D01*
X13773296Y5267047D01*
X13739622Y5378055D01*
X13731101Y5464573D01*
X13731100Y6622426D01*
X13739621Y6708944D01*
X13773295Y6819952D01*
X13827979Y6922257D01*
X13901570Y7011930D01*
X13991242Y7085521D01*
X13991244Y7085522D01*
X13991245Y7085523D01*
X14093545Y7140204D01*
X14093547Y7140205D01*
X14204555Y7173879D01*
X14320000Y7185249D01*
X14435444Y7173879D01*
G37*
G36*
X5795444Y7173879D02*
G01*
X5906452Y7140205D01*
X5906454Y7140204D01*
X6008754Y7085523D01*
X6008755Y7085522D01*
X6008757Y7085521D01*
X6098430Y7011930D01*
X6172021Y6922258D01*
X6172022Y6922256D01*
X6172023Y6922255D01*
X6192370Y6884189D01*
X6226705Y6819953D01*
X6260379Y6708945D01*
X6268900Y6622427D01*
X6268900Y5464573D01*
X6260379Y5378055D01*
X6226705Y5267047D01*
X6172021Y5164742D01*
X6098430Y5075070D01*
X6008758Y5001479D01*
X6008756Y5001478D01*
X6008755Y5001477D01*
X5906455Y4946796D01*
X5906453Y4946795D01*
X5795445Y4913121D01*
X5680000Y4901751D01*
X5564556Y4913121D01*
X5453548Y4946795D01*
X5453546Y4946796D01*
X5351246Y5001477D01*
X5351245Y5001478D01*
X5351243Y5001479D01*
X5261571Y5075070D01*
X5187980Y5164742D01*
X5133296Y5267047D01*
X5099622Y5378055D01*
X5091101Y5464573D01*
X5091100Y6622426D01*
X5099621Y6708944D01*
X5133295Y6819952D01*
X5187979Y6922257D01*
X5261570Y7011930D01*
X5351242Y7085521D01*
X5351244Y7085522D01*
X5351245Y7085523D01*
X5453545Y7140204D01*
X5453547Y7140205D01*
X5564555Y7173879D01*
X5680000Y7185249D01*
X5795444Y7173879D01*
G37*
G36*
X7170620Y5923451D02*
G01*
X7230728Y5911495D01*
X7230731Y5911494D01*
X7230730Y5911494D01*
X7306055Y5880294D01*
X7306056Y5880293D01*
X7373848Y5834996D01*
X7431496Y5777348D01*
X7431497Y5777346D01*
X7476794Y5709555D01*
X7500926Y5651294D01*
X7507995Y5634228D01*
X7523900Y5554265D01*
X7523900Y5472735D01*
X7507995Y5392772D01*
X7507994Y5392770D01*
X7476794Y5317445D01*
X7476793Y5317444D01*
X7431496Y5249652D01*
X7373848Y5192004D01*
X7339721Y5169201D01*
X7306055Y5146706D01*
X7247794Y5122574D01*
X7230728Y5115505D01*
X7170620Y5103549D01*
X7150766Y5099600D01*
X7069234Y5099600D01*
X7049380Y5103549D01*
X6989272Y5115505D01*
X6972206Y5122574D01*
X6913945Y5146706D01*
X6880279Y5169201D01*
X6846152Y5192004D01*
X6788504Y5249652D01*
X6743207Y5317444D01*
X6743206Y5317445D01*
X6712006Y5392770D01*
X6712005Y5392772D01*
X6696100Y5472735D01*
X6696100Y5554265D01*
X6712005Y5634228D01*
X6719074Y5651294D01*
X6743206Y5709555D01*
X6788503Y5777346D01*
X6788504Y5777348D01*
X6846152Y5834996D01*
X6913944Y5880293D01*
X6913945Y5880294D01*
X6989270Y5911494D01*
X6989269Y5911494D01*
X6989272Y5911495D01*
X7049380Y5923451D01*
X7069234Y5927400D01*
X7150766Y5927400D01*
X7170620Y5923451D01*
G37*
G36*
X12950620Y5923451D02*
G01*
X13010728Y5911495D01*
X13010731Y5911494D01*
X13010730Y5911494D01*
X13086055Y5880294D01*
X13086056Y5880293D01*
X13153848Y5834996D01*
X13211496Y5777348D01*
X13211497Y5777346D01*
X13256794Y5709555D01*
X13280926Y5651294D01*
X13287995Y5634228D01*
X13303900Y5554265D01*
X13303900Y5472735D01*
X13287995Y5392772D01*
X13287994Y5392770D01*
X13256794Y5317445D01*
X13256793Y5317444D01*
X13211496Y5249652D01*
X13153848Y5192004D01*
X13119721Y5169201D01*
X13086055Y5146706D01*
X13027794Y5122574D01*
X13010728Y5115505D01*
X12950620Y5103549D01*
X12930766Y5099600D01*
X12849234Y5099600D01*
X12829380Y5103549D01*
X12769272Y5115505D01*
X12752206Y5122574D01*
X12693945Y5146706D01*
X12660279Y5169201D01*
X12626152Y5192004D01*
X12568504Y5249652D01*
X12523207Y5317444D01*
X12523206Y5317445D01*
X12492006Y5392770D01*
X12492005Y5392772D01*
X12476100Y5472735D01*
X12476100Y5554265D01*
X12492005Y5634228D01*
X12499074Y5651294D01*
X12523206Y5709555D01*
X12568503Y5777346D01*
X12568504Y5777348D01*
X12626152Y5834996D01*
X12693944Y5880293D01*
X12693945Y5880294D01*
X12769270Y5911494D01*
X12769269Y5911494D01*
X12769272Y5911495D01*
X12829380Y5923451D01*
X12849234Y5927400D01*
X12930766Y5927400D01*
X12950620Y5923451D01*
G37*
G36*
X3130895Y6280059D02*
G01*
X3176058Y6266358D01*
X3217684Y6244109D01*
X3254168Y6214168D01*
X3284109Y6177684D01*
X3306358Y6136058D01*
X3320059Y6090895D01*
X3324900Y6041741D01*
X3324900Y5475259D01*
X3320059Y5426105D01*
X3306358Y5380942D01*
X3284109Y5339316D01*
X3254168Y5302832D01*
X3217684Y5272891D01*
X3176058Y5250642D01*
X3130895Y5236941D01*
X3081741Y5232100D01*
X2440259Y5232100D01*
X2391105Y5236941D01*
X2345942Y5250642D01*
X2304316Y5272891D01*
X2267832Y5302832D01*
X2237891Y5339316D01*
X2215642Y5380942D01*
X2201941Y5426105D01*
X2197100Y5475259D01*
X2197100Y6041741D01*
X2201941Y6090895D01*
X2215642Y6136058D01*
X2237891Y6177684D01*
X2267832Y6214168D01*
X2304316Y6244109D01*
X2345942Y6266358D01*
X2391105Y6280059D01*
X2440259Y6284900D01*
X3081741Y6284900D01*
X3130895Y6280059D01*
G37*
G36*
X13613900Y6144600D02*
G01*
X6386100Y6144600D01*
X6386100Y7772400D01*
X13613900Y7772400D01*
X13613900Y6144600D01*
G37*
G36*
X3130895Y7855059D02*
G01*
X3176058Y7841358D01*
X3217684Y7819109D01*
X3254168Y7789168D01*
X3284109Y7752684D01*
X3306358Y7711058D01*
X3320059Y7665895D01*
X3324900Y7616741D01*
X3324900Y7050259D01*
X3320059Y7001105D01*
X3306358Y6955942D01*
X3284109Y6914316D01*
X3254168Y6877832D01*
X3217684Y6847891D01*
X3176058Y6825642D01*
X3130895Y6811941D01*
X3081741Y6807100D01*
X2440259Y6807100D01*
X2391105Y6811941D01*
X2345942Y6825642D01*
X2304316Y6847891D01*
X2267832Y6877832D01*
X2237891Y6914316D01*
X2215642Y6955942D01*
X2201941Y7001105D01*
X2197100Y7050259D01*
X2197100Y7616741D01*
X2201941Y7665895D01*
X2215642Y7711058D01*
X2237891Y7752684D01*
X2267832Y7789168D01*
X2304316Y7819109D01*
X2345942Y7841358D01*
X2391105Y7855059D01*
X2440259Y7859900D01*
X3081741Y7859900D01*
X3130895Y7855059D01*
G37*
G36*
X13165895Y10236559D02*
G01*
X13211058Y10222858D01*
X13252684Y10200609D01*
X13289168Y10170668D01*
X13319109Y10134184D01*
X13341358Y10092558D01*
X13355059Y10047395D01*
X13359900Y9998241D01*
X13359900Y9356759D01*
X13355059Y9307605D01*
X13341358Y9262442D01*
X13319109Y9220816D01*
X13289168Y9184332D01*
X13252684Y9154391D01*
X13211058Y9132142D01*
X13165895Y9118441D01*
X13116741Y9113600D01*
X12550259Y9113600D01*
X12501105Y9118441D01*
X12455942Y9132142D01*
X12414316Y9154391D01*
X12377832Y9184332D01*
X12347891Y9220816D01*
X12325642Y9262442D01*
X12311941Y9307605D01*
X12307100Y9356759D01*
X12307100Y9998241D01*
X12311941Y10047395D01*
X12325642Y10092558D01*
X12347891Y10134184D01*
X12377832Y10170668D01*
X12414316Y10200609D01*
X12455942Y10222858D01*
X12501105Y10236559D01*
X12550259Y10241400D01*
X13116741Y10241400D01*
X13165895Y10236559D01*
G37*
G36*
X4945895Y10236559D02*
G01*
X4991058Y10222858D01*
X5032684Y10200609D01*
X5069168Y10170668D01*
X5099109Y10134184D01*
X5121358Y10092558D01*
X5135059Y10047395D01*
X5139900Y9998241D01*
X5139900Y9356759D01*
X5135059Y9307605D01*
X5121358Y9262442D01*
X5099109Y9220816D01*
X5069168Y9184332D01*
X5032684Y9154391D01*
X4991058Y9132142D01*
X4945895Y9118441D01*
X4896741Y9113600D01*
X4330259Y9113600D01*
X4281105Y9118441D01*
X4235942Y9132142D01*
X4194316Y9154391D01*
X4157832Y9184332D01*
X4127891Y9220816D01*
X4105642Y9262442D01*
X4091941Y9307605D01*
X4087100Y9356759D01*
X4087100Y9998241D01*
X4091941Y10047395D01*
X4105642Y10092558D01*
X4127891Y10134184D01*
X4157832Y10170668D01*
X4194316Y10200609D01*
X4235942Y10222858D01*
X4281105Y10236559D01*
X4330259Y10241400D01*
X4896741Y10241400D01*
X4945895Y10236559D01*
G37*
G36*
X6520895Y10236559D02*
G01*
X6566058Y10222858D01*
X6607684Y10200609D01*
X6644168Y10170668D01*
X6674109Y10134184D01*
X6696358Y10092558D01*
X6710059Y10047395D01*
X6714900Y9998241D01*
X6714900Y9356759D01*
X6710059Y9307605D01*
X6696358Y9262442D01*
X6674109Y9220816D01*
X6644168Y9184332D01*
X6607684Y9154391D01*
X6566058Y9132142D01*
X6520895Y9118441D01*
X6471741Y9113600D01*
X5905259Y9113600D01*
X5856105Y9118441D01*
X5810942Y9132142D01*
X5769316Y9154391D01*
X5732832Y9184332D01*
X5702891Y9220816D01*
X5680642Y9262442D01*
X5666941Y9307605D01*
X5662100Y9356759D01*
X5662100Y9998241D01*
X5666941Y10047395D01*
X5680642Y10092558D01*
X5702891Y10134184D01*
X5732832Y10170668D01*
X5769316Y10200609D01*
X5810942Y10222858D01*
X5856105Y10236559D01*
X5905259Y10241400D01*
X6471741Y10241400D01*
X6520895Y10236559D01*
G37*
G36*
X14740895Y10236559D02*
G01*
X14786058Y10222858D01*
X14827684Y10200609D01*
X14864168Y10170668D01*
X14894109Y10134184D01*
X14916358Y10092558D01*
X14930059Y10047395D01*
X14934900Y9998241D01*
X14934900Y9356759D01*
X14930059Y9307605D01*
X14916358Y9262442D01*
X14894109Y9220816D01*
X14864168Y9184332D01*
X14827684Y9154391D01*
X14786058Y9132142D01*
X14740895Y9118441D01*
X14691741Y9113600D01*
X14125259Y9113600D01*
X14076105Y9118441D01*
X14030942Y9132142D01*
X13989316Y9154391D01*
X13952832Y9184332D01*
X13922891Y9220816D01*
X13900642Y9262442D01*
X13886941Y9307605D01*
X13882100Y9356759D01*
X13882100Y9998241D01*
X13886941Y10047395D01*
X13900642Y10092558D01*
X13922891Y10134184D01*
X13952832Y10170668D01*
X13989316Y10200609D01*
X14030942Y10222858D01*
X14076105Y10236559D01*
X14125259Y10241400D01*
X14691741Y10241400D01*
X14740895Y10236559D01*
G37*
G36*
X18304900Y10453100D02*
G01*
X16427100Y10453100D01*
X16427100Y12330900D01*
X18304900Y12330900D01*
X18304900Y10453100D01*
G37*
G36*
X14940895Y12093059D02*
G01*
X14986058Y12079358D01*
X15027684Y12057109D01*
X15064168Y12027168D01*
X15094109Y11990684D01*
X15116358Y11949058D01*
X15130059Y11903895D01*
X15134900Y11854741D01*
X15134900Y11288259D01*
X15130059Y11239105D01*
X15116358Y11193942D01*
X15094109Y11152316D01*
X15064168Y11115832D01*
X15027684Y11085891D01*
X14986058Y11063642D01*
X14940895Y11049941D01*
X14891741Y11045100D01*
X14250259Y11045100D01*
X14201105Y11049941D01*
X14155942Y11063642D01*
X14114316Y11085891D01*
X14077832Y11115832D01*
X14047891Y11152316D01*
X14025642Y11193942D01*
X14011941Y11239105D01*
X14007100Y11288259D01*
X14007100Y11854741D01*
X14011941Y11903895D01*
X14025642Y11949058D01*
X14047891Y11990684D01*
X14077832Y12027168D01*
X14114316Y12057109D01*
X14155942Y12079358D01*
X14201105Y12093059D01*
X14250259Y12097900D01*
X14891741Y12097900D01*
X14940895Y12093059D01*
G37*
G36*
X13240895Y12093059D02*
G01*
X13286058Y12079358D01*
X13327684Y12057109D01*
X13364168Y12027168D01*
X13394109Y11990684D01*
X13416358Y11949058D01*
X13430059Y11903895D01*
X13434900Y11854741D01*
X13434900Y11288259D01*
X13430059Y11239105D01*
X13416358Y11193942D01*
X13394109Y11152316D01*
X13364168Y11115832D01*
X13327684Y11085891D01*
X13286058Y11063642D01*
X13240895Y11049941D01*
X13191741Y11045100D01*
X12550259Y11045100D01*
X12501105Y11049941D01*
X12455942Y11063642D01*
X12414316Y11085891D01*
X12377832Y11115832D01*
X12347891Y11152316D01*
X12325642Y11193942D01*
X12311941Y11239105D01*
X12307100Y11288259D01*
X12307100Y11854741D01*
X12311941Y11903895D01*
X12325642Y11949058D01*
X12347891Y11990684D01*
X12377832Y12027168D01*
X12414316Y12057109D01*
X12455942Y12079358D01*
X12501105Y12093059D01*
X12550259Y12097900D01*
X13191741Y12097900D01*
X13240895Y12093059D01*
G37*
G36*
X5734900Y11190100D02*
G01*
X4107100Y11190100D01*
X4107100Y17667900D01*
X5734900Y17667900D01*
X5734900Y11190100D01*
G37*
G36*
X11634900Y11190100D02*
G01*
X10007100Y11190100D01*
X10007100Y17667900D01*
X11634900Y17667900D01*
X11634900Y11190100D01*
G37*
G36*
X14940895Y13668059D02*
G01*
X14986058Y13654358D01*
X15027684Y13632109D01*
X15064168Y13602168D01*
X15094109Y13565684D01*
X15116358Y13524058D01*
X15130059Y13478895D01*
X15134900Y13429741D01*
X15134900Y12863259D01*
X15130059Y12814105D01*
X15116358Y12768942D01*
X15094109Y12727316D01*
X15064168Y12690832D01*
X15027684Y12660891D01*
X14986058Y12638642D01*
X14940895Y12624941D01*
X14891741Y12620100D01*
X14250259Y12620100D01*
X14201105Y12624941D01*
X14155942Y12638642D01*
X14114316Y12660891D01*
X14077832Y12690832D01*
X14047891Y12727316D01*
X14025642Y12768942D01*
X14011941Y12814105D01*
X14007100Y12863259D01*
X14007100Y13429741D01*
X14011941Y13478895D01*
X14025642Y13524058D01*
X14047891Y13565684D01*
X14077832Y13602168D01*
X14114316Y13632109D01*
X14155942Y13654358D01*
X14201105Y13668059D01*
X14250259Y13672900D01*
X14891741Y13672900D01*
X14940895Y13668059D01*
G37*
G36*
X13240895Y13668059D02*
G01*
X13286058Y13654358D01*
X13327684Y13632109D01*
X13364168Y13602168D01*
X13394109Y13565684D01*
X13416358Y13524058D01*
X13430059Y13478895D01*
X13434900Y13429741D01*
X13434900Y12863259D01*
X13430059Y12814105D01*
X13416358Y12768942D01*
X13394109Y12727316D01*
X13364168Y12690832D01*
X13327684Y12660891D01*
X13286058Y12638642D01*
X13240895Y12624941D01*
X13191741Y12620100D01*
X12550259Y12620100D01*
X12501105Y12624941D01*
X12455942Y12638642D01*
X12414316Y12660891D01*
X12377832Y12690832D01*
X12347891Y12727316D01*
X12325642Y12768942D01*
X12311941Y12814105D01*
X12307100Y12863259D01*
X12307100Y13429741D01*
X12311941Y13478895D01*
X12325642Y13524058D01*
X12347891Y13565684D01*
X12377832Y13602168D01*
X12414316Y13632109D01*
X12455942Y13654358D01*
X12501105Y13668059D01*
X12550259Y13672900D01*
X13191741Y13672900D01*
X13240895Y13668059D01*
G37*
G36*
X3130895Y13920059D02*
G01*
X3176058Y13906358D01*
X3217684Y13884109D01*
X3254168Y13854168D01*
X3284109Y13817684D01*
X3306358Y13776058D01*
X3320059Y13730895D01*
X3324900Y13681741D01*
X3324900Y13115259D01*
X3320059Y13066105D01*
X3306358Y13020942D01*
X3284109Y12979316D01*
X3254168Y12942832D01*
X3217684Y12912891D01*
X3176058Y12890642D01*
X3130895Y12876941D01*
X3081741Y12872100D01*
X2440259Y12872100D01*
X2391105Y12876941D01*
X2345942Y12890642D01*
X2304316Y12912891D01*
X2267832Y12942832D01*
X2237891Y12979316D01*
X2215642Y13020942D01*
X2201941Y13066105D01*
X2197100Y13115259D01*
X2197100Y13681741D01*
X2201941Y13730895D01*
X2215642Y13776058D01*
X2237891Y13817684D01*
X2267832Y13854168D01*
X2304316Y13884109D01*
X2345942Y13906358D01*
X2391105Y13920059D01*
X2440259Y13924900D01*
X3081741Y13924900D01*
X3130895Y13920059D01*
G37*
G36*
X17639867Y14834819D02*
G01*
X17810736Y14764042D01*
X17964514Y14661291D01*
X18095291Y14530514D01*
X18198042Y14376736D01*
X18268819Y14205867D01*
X18304900Y14024474D01*
X18304900Y13839526D01*
X18268819Y13658133D01*
X18198042Y13487264D01*
X18095291Y13333486D01*
X17964514Y13202709D01*
X17810736Y13099958D01*
X17639867Y13029181D01*
X17458474Y12993100D01*
X17273526Y12993100D01*
X17092133Y13029181D01*
X16921264Y13099958D01*
X16767486Y13202709D01*
X16636709Y13333486D01*
X16533958Y13487264D01*
X16463181Y13658133D01*
X16427100Y13839526D01*
X16427100Y14024474D01*
X16463181Y14205867D01*
X16533958Y14376736D01*
X16636709Y14530514D01*
X16767486Y14661291D01*
X16921264Y14764042D01*
X17092133Y14834819D01*
X17273526Y14870900D01*
X17458474Y14870900D01*
X17639867Y14834819D01*
G37*
G36*
X3130895Y15495059D02*
G01*
X3176058Y15481358D01*
X3217684Y15459109D01*
X3254168Y15429168D01*
X3284109Y15392684D01*
X3306358Y15351058D01*
X3320059Y15305895D01*
X3324900Y15256741D01*
X3324900Y14690259D01*
X3320059Y14641105D01*
X3306358Y14595942D01*
X3284109Y14554316D01*
X3254168Y14517832D01*
X3217684Y14487891D01*
X3176058Y14465642D01*
X3130895Y14451941D01*
X3081741Y14447100D01*
X2440259Y14447100D01*
X2391105Y14451941D01*
X2345942Y14465642D01*
X2304316Y14487891D01*
X2267832Y14517832D01*
X2237891Y14554316D01*
X2215642Y14595942D01*
X2201941Y14641105D01*
X2197100Y14690259D01*
X2197100Y15256741D01*
X2201941Y15305895D01*
X2215642Y15351058D01*
X2237891Y15392684D01*
X2267832Y15429168D01*
X2304316Y15459109D01*
X2345942Y15481358D01*
X2391105Y15495059D01*
X2440259Y15499900D01*
X3081741Y15499900D01*
X3130895Y15495059D01*
G37*
G36*
X14940895Y16233059D02*
G01*
X14986058Y16219358D01*
X15027684Y16197109D01*
X15064168Y16167168D01*
X15094109Y16130684D01*
X15116358Y16089058D01*
X15130059Y16043895D01*
X15134900Y15994741D01*
X15134900Y15428259D01*
X15130059Y15379105D01*
X15116358Y15333942D01*
X15094109Y15292316D01*
X15064168Y15255832D01*
X15027684Y15225891D01*
X14986058Y15203642D01*
X14940895Y15189941D01*
X14891741Y15185100D01*
X14250259Y15185100D01*
X14201105Y15189941D01*
X14155942Y15203642D01*
X14114316Y15225891D01*
X14077832Y15255832D01*
X14047891Y15292316D01*
X14025642Y15333942D01*
X14011941Y15379105D01*
X14007100Y15428259D01*
X14007100Y15994741D01*
X14011941Y16043895D01*
X14025642Y16089058D01*
X14047891Y16130684D01*
X14077832Y16167168D01*
X14114316Y16197109D01*
X14155942Y16219358D01*
X14201105Y16233059D01*
X14250259Y16237900D01*
X14891741Y16237900D01*
X14940895Y16233059D01*
G37*
G36*
X13240895Y16233059D02*
G01*
X13286058Y16219358D01*
X13327684Y16197109D01*
X13364168Y16167168D01*
X13394109Y16130684D01*
X13416358Y16089058D01*
X13430059Y16043895D01*
X13434900Y15994741D01*
X13434900Y15428259D01*
X13430059Y15379105D01*
X13416358Y15333942D01*
X13394109Y15292316D01*
X13364168Y15255832D01*
X13327684Y15225891D01*
X13286058Y15203642D01*
X13240895Y15189941D01*
X13191741Y15185100D01*
X12550259Y15185100D01*
X12501105Y15189941D01*
X12455942Y15203642D01*
X12414316Y15225891D01*
X12377832Y15255832D01*
X12347891Y15292316D01*
X12325642Y15333942D01*
X12311941Y15379105D01*
X12307100Y15428259D01*
X12307100Y15994741D01*
X12311941Y16043895D01*
X12325642Y16089058D01*
X12347891Y16130684D01*
X12377832Y16167168D01*
X12414316Y16197109D01*
X12455942Y16219358D01*
X12501105Y16233059D01*
X12550259Y16237900D01*
X13191741Y16237900D01*
X13240895Y16233059D01*
G37*
G36*
X17639867Y17374819D02*
G01*
X17810736Y17304042D01*
X17964514Y17201291D01*
X18095291Y17070514D01*
X18198042Y16916736D01*
X18268819Y16745867D01*
X18304900Y16564474D01*
X18304900Y16379526D01*
X18268819Y16198133D01*
X18198042Y16027264D01*
X18095291Y15873486D01*
X17964514Y15742709D01*
X17810736Y15639958D01*
X17639867Y15569181D01*
X17458474Y15533100D01*
X17273526Y15533100D01*
X17092133Y15569181D01*
X16921264Y15639958D01*
X16767486Y15742709D01*
X16636709Y15873486D01*
X16533958Y16027264D01*
X16463181Y16198133D01*
X16427100Y16379526D01*
X16427100Y16564474D01*
X16463181Y16745867D01*
X16533958Y16916736D01*
X16636709Y17070514D01*
X16767486Y17201291D01*
X16921264Y17304042D01*
X17092133Y17374819D01*
X17273526Y17410900D01*
X17458474Y17410900D01*
X17639867Y17374819D01*
G37*
G36*
X3130895Y17476059D02*
G01*
X3176058Y17462358D01*
X3217684Y17440109D01*
X3254168Y17410168D01*
X3284109Y17373684D01*
X3306358Y17332058D01*
X3320059Y17286895D01*
X3324900Y17237741D01*
X3324900Y16671259D01*
X3320059Y16622105D01*
X3306358Y16576942D01*
X3284109Y16535316D01*
X3254168Y16498832D01*
X3217684Y16468891D01*
X3176058Y16446642D01*
X3130895Y16432941D01*
X3081741Y16428100D01*
X2440259Y16428100D01*
X2391105Y16432941D01*
X2345942Y16446642D01*
X2304316Y16468891D01*
X2267832Y16498832D01*
X2237891Y16535316D01*
X2215642Y16576942D01*
X2201941Y16622105D01*
X2197100Y16671259D01*
X2197100Y17237741D01*
X2201941Y17286895D01*
X2215642Y17332058D01*
X2237891Y17373684D01*
X2267832Y17410168D01*
X2304316Y17440109D01*
X2345942Y17462358D01*
X2391105Y17476059D01*
X2440259Y17480900D01*
X3081741Y17480900D01*
X3130895Y17476059D01*
G37*
G36*
X14940895Y17808059D02*
G01*
X14986058Y17794358D01*
X15027684Y17772109D01*
X15064168Y17742168D01*
X15094109Y17705684D01*
X15116358Y17664058D01*
X15130059Y17618895D01*
X15134900Y17569741D01*
X15134900Y17003259D01*
X15130059Y16954105D01*
X15116358Y16908942D01*
X15094109Y16867316D01*
X15064168Y16830832D01*
X15027684Y16800891D01*
X14986058Y16778642D01*
X14940895Y16764941D01*
X14891741Y16760100D01*
X14250259Y16760100D01*
X14201105Y16764941D01*
X14155942Y16778642D01*
X14114316Y16800891D01*
X14077832Y16830832D01*
X14047891Y16867316D01*
X14025642Y16908942D01*
X14011941Y16954105D01*
X14007100Y17003259D01*
X14007100Y17569741D01*
X14011941Y17618895D01*
X14025642Y17664058D01*
X14047891Y17705684D01*
X14077832Y17742168D01*
X14114316Y17772109D01*
X14155942Y17794358D01*
X14201105Y17808059D01*
X14250259Y17812900D01*
X14891741Y17812900D01*
X14940895Y17808059D01*
G37*
G36*
X13240895Y17808059D02*
G01*
X13286058Y17794358D01*
X13327684Y17772109D01*
X13364168Y17742168D01*
X13394109Y17705684D01*
X13416358Y17664058D01*
X13430059Y17618895D01*
X13434900Y17569741D01*
X13434900Y17003259D01*
X13430059Y16954105D01*
X13416358Y16908942D01*
X13394109Y16867316D01*
X13364168Y16830832D01*
X13327684Y16800891D01*
X13286058Y16778642D01*
X13240895Y16764941D01*
X13191741Y16760100D01*
X12550259Y16760100D01*
X12501105Y16764941D01*
X12455942Y16778642D01*
X12414316Y16800891D01*
X12377832Y16830832D01*
X12347891Y16867316D01*
X12325642Y16908942D01*
X12311941Y16954105D01*
X12307100Y17003259D01*
X12307100Y17569741D01*
X12311941Y17618895D01*
X12325642Y17664058D01*
X12347891Y17705684D01*
X12377832Y17742168D01*
X12414316Y17772109D01*
X12455942Y17794358D01*
X12501105Y17808059D01*
X12550259Y17812900D01*
X13191741Y17812900D01*
X13240895Y17808059D01*
G37*
G36*
X3130895Y19051059D02*
G01*
X3176058Y19037358D01*
X3217684Y19015109D01*
X3254168Y18985168D01*
X3284109Y18948684D01*
X3306358Y18907058D01*
X3320059Y18861895D01*
X3324900Y18812741D01*
X3324900Y18246259D01*
X3320059Y18197105D01*
X3306358Y18151942D01*
X3284109Y18110316D01*
X3254168Y18073832D01*
X3217684Y18043891D01*
X3176058Y18021642D01*
X3130895Y18007941D01*
X3081741Y18003100D01*
X2440259Y18003100D01*
X2391105Y18007941D01*
X2345942Y18021642D01*
X2304316Y18043891D01*
X2267832Y18073832D01*
X2237891Y18110316D01*
X2215642Y18151942D01*
X2201941Y18197105D01*
X2197100Y18246259D01*
X2197100Y18812741D01*
X2201941Y18861895D01*
X2215642Y18907058D01*
X2237891Y18948684D01*
X2267832Y18985168D01*
X2304316Y19015109D01*
X2345942Y19037358D01*
X2391105Y19051059D01*
X2440259Y19055900D01*
X3081741Y19055900D01*
X3130895Y19051059D01*
G37*
G36*
X17639867Y19914819D02*
G01*
X17810736Y19844042D01*
X17964514Y19741291D01*
X18095291Y19610514D01*
X18198042Y19456736D01*
X18268819Y19285867D01*
X18304900Y19104474D01*
X18304900Y18919526D01*
X18268819Y18738133D01*
X18198042Y18567264D01*
X18095291Y18413486D01*
X17964514Y18282709D01*
X17810736Y18179958D01*
X17639867Y18109181D01*
X17458474Y18073100D01*
X17273526Y18073100D01*
X17092133Y18109181D01*
X16921264Y18179958D01*
X16767486Y18282709D01*
X16636709Y18413486D01*
X16533958Y18567264D01*
X16463181Y18738133D01*
X16427100Y18919526D01*
X16427100Y19104474D01*
X16463181Y19285867D01*
X16533958Y19456736D01*
X16636709Y19610514D01*
X16767486Y19741291D01*
X16921264Y19844042D01*
X17092133Y19914819D01*
X17273526Y19950900D01*
X17458474Y19950900D01*
X17639867Y19914819D01*
G37*
G36*
X10842661Y24329881D02*
G01*
X11368407Y24112110D01*
X11694715Y23894078D01*
X11841569Y23795953D01*
X12243953Y23393569D01*
X12243955Y23393566D01*
X12560110Y22920407D01*
X12777881Y22394661D01*
X12888900Y21836532D01*
X12888900Y21267468D01*
X12777881Y20709339D01*
X12560110Y20183593D01*
X12336249Y19848562D01*
X12243953Y19710431D01*
X11841569Y19308047D01*
X11841566Y19308045D01*
X11368407Y18991890D01*
X10842661Y18774119D01*
X10284532Y18663100D01*
X9715468Y18663100D01*
X9157339Y18774119D01*
X8631593Y18991890D01*
X8158434Y19308045D01*
X8158431Y19308047D01*
X7756047Y19710431D01*
X7663751Y19848562D01*
X7439890Y20183593D01*
X7222119Y20709339D01*
X7111100Y21267468D01*
X7111100Y21836532D01*
X7222119Y22394661D01*
X7439890Y22920407D01*
X7756045Y23393566D01*
X7756047Y23393569D01*
X8158431Y23795953D01*
X8305285Y23894078D01*
X8631593Y24112110D01*
X9157339Y24329881D01*
X9715468Y24440900D01*
X10284532Y24440900D01*
X10842661Y24329881D01*
G37*
G36*
X4312156Y21263790D02*
G01*
X4359938Y21249295D01*
X4403982Y21225754D01*
X4442578Y21194078D01*
X4474254Y21155482D01*
X4497795Y21111438D01*
X4512290Y21063656D01*
X4517400Y21011777D01*
X4517400Y19948223D01*
X4512290Y19896344D01*
X4497795Y19848562D01*
X4474254Y19804518D01*
X4442578Y19765922D01*
X4403982Y19734246D01*
X4359938Y19710705D01*
X4312156Y19696210D01*
X4260277Y19691100D01*
X3246723Y19691100D01*
X3194844Y19696210D01*
X3147062Y19710705D01*
X3103018Y19734246D01*
X3064422Y19765922D01*
X3032746Y19804518D01*
X3009205Y19848562D01*
X2994710Y19896344D01*
X2989600Y19948223D01*
X2989600Y21011777D01*
X2994710Y21063656D01*
X3009205Y21111438D01*
X3032746Y21155482D01*
X3064422Y21194078D01*
X3103018Y21225754D01*
X3147062Y21249295D01*
X3194844Y21263790D01*
X3246723Y21268900D01*
X4260277Y21268900D01*
X4312156Y21263790D01*
G37*
G36*
X6178895Y22429059D02*
G01*
X6224058Y22415358D01*
X6265684Y22393109D01*
X6302168Y22363168D01*
X6332109Y22326684D01*
X6354358Y22285058D01*
X6368059Y22239895D01*
X6372900Y22190741D01*
X6372900Y21624259D01*
X6368059Y21575105D01*
X6354358Y21529942D01*
X6332109Y21488316D01*
X6302168Y21451832D01*
X6265684Y21421891D01*
X6224058Y21399642D01*
X6178895Y21385941D01*
X6129741Y21381100D01*
X5488259Y21381100D01*
X5439105Y21385941D01*
X5393942Y21399642D01*
X5352316Y21421891D01*
X5315832Y21451832D01*
X5285891Y21488316D01*
X5263642Y21529942D01*
X5249941Y21575105D01*
X5245100Y21624259D01*
X5245100Y22190741D01*
X5249941Y22239895D01*
X5263642Y22285058D01*
X5285891Y22326684D01*
X5315832Y22363168D01*
X5352316Y22393109D01*
X5393942Y22415358D01*
X5439105Y22429059D01*
X5488259Y22433900D01*
X6129741Y22433900D01*
X6178895Y22429059D01*
G37*
G36*
X4312156Y23963790D02*
G01*
X4359938Y23949295D01*
X4403982Y23925754D01*
X4442578Y23894078D01*
X4474254Y23855482D01*
X4497795Y23811438D01*
X4512290Y23763656D01*
X4517400Y23711777D01*
X4517400Y22648223D01*
X4512290Y22596344D01*
X4497795Y22548562D01*
X4474254Y22504518D01*
X4442578Y22465922D01*
X4403982Y22434246D01*
X4359938Y22410705D01*
X4312156Y22396210D01*
X4260277Y22391100D01*
X3246723Y22391100D01*
X3194844Y22396210D01*
X3147062Y22410705D01*
X3103018Y22434246D01*
X3064422Y22465922D01*
X3032746Y22504518D01*
X3009205Y22548562D01*
X2994710Y22596344D01*
X2989600Y22648223D01*
X2989600Y23711777D01*
X2994710Y23763656D01*
X3009205Y23811438D01*
X3032746Y23855482D01*
X3064422Y23894078D01*
X3103018Y23925754D01*
X3147062Y23949295D01*
X3194844Y23963790D01*
X3246723Y23968900D01*
X4260277Y23968900D01*
X4312156Y23963790D01*
G37*
G36*
X6178895Y24004059D02*
G01*
X6224058Y23990358D01*
X6265684Y23968109D01*
X6302168Y23938168D01*
X6332109Y23901684D01*
X6354358Y23860058D01*
X6368059Y23814895D01*
X6372900Y23765741D01*
X6372900Y23199259D01*
X6368059Y23150105D01*
X6354358Y23104942D01*
X6332109Y23063316D01*
X6302168Y23026832D01*
X6265684Y22996891D01*
X6224058Y22974642D01*
X6178895Y22960941D01*
X6129741Y22956100D01*
X5488259Y22956100D01*
X5439105Y22960941D01*
X5393942Y22974642D01*
X5352316Y22996891D01*
X5315832Y23026832D01*
X5285891Y23063316D01*
X5263642Y23104942D01*
X5249941Y23150105D01*
X5245100Y23199259D01*
X5245100Y23765741D01*
X5249941Y23814895D01*
X5263642Y23860058D01*
X5285891Y23901684D01*
X5315832Y23938168D01*
X5352316Y23968109D01*
X5393942Y23990358D01*
X5439105Y24004059D01*
X5488259Y24008900D01*
X6129741Y24008900D01*
X6178895Y24004059D01*
G37*
G36*
X7558733Y26695380D02*
G01*
X7591003Y26685591D01*
X7620736Y26669699D01*
X7646805Y26648305D01*
X7668199Y26622236D01*
X7684091Y26592503D01*
X7693880Y26560233D01*
X7697400Y26524492D01*
X7697400Y25045508D01*
X7693880Y25009767D01*
X7684091Y24977497D01*
X7668199Y24947764D01*
X7646805Y24921695D01*
X7620736Y24900301D01*
X7591003Y24884409D01*
X7558733Y24874620D01*
X7522992Y24871100D01*
X7094008Y24871100D01*
X7058267Y24874620D01*
X7025997Y24884409D01*
X6996264Y24900301D01*
X6970195Y24921695D01*
X6948801Y24947764D01*
X6932909Y24977497D01*
X6923120Y25009767D01*
X6919600Y25045508D01*
X6919600Y26524492D01*
X6923120Y26560233D01*
X6932909Y26592503D01*
X6948801Y26622236D01*
X6970195Y26648305D01*
X6996264Y26669699D01*
X7025997Y26685591D01*
X7058267Y26695380D01*
X7094008Y26698900D01*
X7522992Y26698900D01*
X7558733Y26695380D01*
G37*
G36*
X3748733Y26695380D02*
G01*
X3781003Y26685591D01*
X3810736Y26669699D01*
X3836805Y26648305D01*
X3858199Y26622236D01*
X3874091Y26592503D01*
X3883880Y26560233D01*
X3887400Y26524492D01*
X3887400Y25045508D01*
X3883880Y25009767D01*
X3874091Y24977497D01*
X3858199Y24947764D01*
X3836805Y24921695D01*
X3810736Y24900301D01*
X3781003Y24884409D01*
X3748733Y24874620D01*
X3712992Y24871100D01*
X3284008Y24871100D01*
X3248267Y24874620D01*
X3215997Y24884409D01*
X3186264Y24900301D01*
X3160195Y24921695D01*
X3138801Y24947764D01*
X3122909Y24977497D01*
X3113120Y25009767D01*
X3109600Y25045508D01*
X3109600Y26524492D01*
X3113120Y26560233D01*
X3122909Y26592503D01*
X3138801Y26622236D01*
X3160195Y26648305D01*
X3186264Y26669699D01*
X3215997Y26685591D01*
X3248267Y26695380D01*
X3284008Y26698900D01*
X3712992Y26698900D01*
X3748733Y26695380D01*
G37*
G36*
X6288733Y26695380D02*
G01*
X6321003Y26685591D01*
X6350736Y26669699D01*
X6376805Y26648305D01*
X6398199Y26622236D01*
X6414091Y26592503D01*
X6423880Y26560233D01*
X6427400Y26524492D01*
X6427400Y25045508D01*
X6423880Y25009767D01*
X6414091Y24977497D01*
X6398199Y24947764D01*
X6376805Y24921695D01*
X6350736Y24900301D01*
X6321003Y24884409D01*
X6288733Y24874620D01*
X6252992Y24871100D01*
X5824008Y24871100D01*
X5788267Y24874620D01*
X5755997Y24884409D01*
X5726264Y24900301D01*
X5700195Y24921695D01*
X5678801Y24947764D01*
X5662909Y24977497D01*
X5653120Y25009767D01*
X5649600Y25045508D01*
X5649600Y26524492D01*
X5653120Y26560233D01*
X5662909Y26592503D01*
X5678801Y26622236D01*
X5700195Y26648305D01*
X5726264Y26669699D01*
X5755997Y26685591D01*
X5788267Y26695380D01*
X5824008Y26698900D01*
X6252992Y26698900D01*
X6288733Y26695380D01*
G37*
G36*
X5018733Y26695380D02*
G01*
X5051003Y26685591D01*
X5080736Y26669699D01*
X5106805Y26648305D01*
X5128199Y26622236D01*
X5144091Y26592503D01*
X5153880Y26560233D01*
X5157400Y26524492D01*
X5157400Y25045508D01*
X5153880Y25009767D01*
X5144091Y24977497D01*
X5128199Y24947764D01*
X5106805Y24921695D01*
X5080736Y24900301D01*
X5051003Y24884409D01*
X5018733Y24874620D01*
X4982992Y24871100D01*
X4554008Y24871100D01*
X4518267Y24874620D01*
X4485997Y24884409D01*
X4456264Y24900301D01*
X4430195Y24921695D01*
X4408801Y24947764D01*
X4392909Y24977497D01*
X4383120Y25009767D01*
X4379600Y25045508D01*
X4379600Y26524492D01*
X4383120Y26560233D01*
X4392909Y26592503D01*
X4408801Y26622236D01*
X4430195Y26648305D01*
X4456264Y26669699D01*
X4485997Y26685591D01*
X4518267Y26695380D01*
X4554008Y26698900D01*
X4982992Y26698900D01*
X5018733Y26695380D01*
G37*
G36*
X11688900Y25371100D02*
G01*
X9511100Y25371100D01*
X9511100Y27048900D01*
X11688900Y27048900D01*
X11688900Y25371100D01*
G37*
G36*
X17988900Y26521100D02*
G01*
X15811100Y26521100D01*
X15811100Y30498900D01*
X17988900Y30498900D01*
X17988900Y26521100D01*
G37*
G36*
X11688900Y27671100D02*
G01*
X9511100Y27671100D01*
X9511100Y29348900D01*
X11688900Y29348900D01*
X11688900Y27671100D01*
G37*
G36*
X11688900Y29971100D02*
G01*
X9511100Y29971100D01*
X9511100Y31648900D01*
X11688900Y31648900D01*
X11688900Y29971100D01*
G37*
G36*
X7558733Y31945380D02*
G01*
X7591003Y31935591D01*
X7620736Y31919699D01*
X7646805Y31898305D01*
X7668199Y31872236D01*
X7684091Y31842503D01*
X7693880Y31810233D01*
X7697400Y31774492D01*
X7697400Y30295508D01*
X7693880Y30259767D01*
X7684091Y30227497D01*
X7668199Y30197764D01*
X7646805Y30171695D01*
X7620736Y30150301D01*
X7591003Y30134409D01*
X7558733Y30124620D01*
X7522992Y30121100D01*
X7094008Y30121100D01*
X7058267Y30124620D01*
X7025997Y30134409D01*
X6996264Y30150301D01*
X6970195Y30171695D01*
X6948801Y30197764D01*
X6932909Y30227497D01*
X6923120Y30259767D01*
X6919600Y30295508D01*
X6919600Y31774492D01*
X6923120Y31810233D01*
X6932909Y31842503D01*
X6948801Y31872236D01*
X6970195Y31898305D01*
X6996264Y31919699D01*
X7025997Y31935591D01*
X7058267Y31945380D01*
X7094008Y31948900D01*
X7522992Y31948900D01*
X7558733Y31945380D01*
G37*
G36*
X3748733Y31945380D02*
G01*
X3781003Y31935591D01*
X3810736Y31919699D01*
X3836805Y31898305D01*
X3858199Y31872236D01*
X3874091Y31842503D01*
X3883880Y31810233D01*
X3887400Y31774492D01*
X3887400Y30295508D01*
X3883880Y30259767D01*
X3874091Y30227497D01*
X3858199Y30197764D01*
X3836805Y30171695D01*
X3810736Y30150301D01*
X3781003Y30134409D01*
X3748733Y30124620D01*
X3712992Y30121100D01*
X3284008Y30121100D01*
X3248267Y30124620D01*
X3215997Y30134409D01*
X3186264Y30150301D01*
X3160195Y30171695D01*
X3138801Y30197764D01*
X3122909Y30227497D01*
X3113120Y30259767D01*
X3109600Y30295508D01*
X3109600Y31774492D01*
X3113120Y31810233D01*
X3122909Y31842503D01*
X3138801Y31872236D01*
X3160195Y31898305D01*
X3186264Y31919699D01*
X3215997Y31935591D01*
X3248267Y31945380D01*
X3284008Y31948900D01*
X3712992Y31948900D01*
X3748733Y31945380D01*
G37*
G36*
X5018733Y31945380D02*
G01*
X5051003Y31935591D01*
X5080736Y31919699D01*
X5106805Y31898305D01*
X5128199Y31872236D01*
X5144091Y31842503D01*
X5153880Y31810233D01*
X5157400Y31774492D01*
X5157400Y30295508D01*
X5153880Y30259767D01*
X5144091Y30227497D01*
X5128199Y30197764D01*
X5106805Y30171695D01*
X5080736Y30150301D01*
X5051003Y30134409D01*
X5018733Y30124620D01*
X4982992Y30121100D01*
X4554008Y30121100D01*
X4518267Y30124620D01*
X4485997Y30134409D01*
X4456264Y30150301D01*
X4430195Y30171695D01*
X4408801Y30197764D01*
X4392909Y30227497D01*
X4383120Y30259767D01*
X4379600Y30295508D01*
X4379600Y31774492D01*
X4383120Y31810233D01*
X4392909Y31842503D01*
X4408801Y31872236D01*
X4430195Y31898305D01*
X4456264Y31919699D01*
X4485997Y31935591D01*
X4518267Y31945380D01*
X4554008Y31948900D01*
X4982992Y31948900D01*
X5018733Y31945380D01*
G37*
G36*
X6288733Y31945380D02*
G01*
X6321003Y31935591D01*
X6350736Y31919699D01*
X6376805Y31898305D01*
X6398199Y31872236D01*
X6414091Y31842503D01*
X6423880Y31810233D01*
X6427400Y31774492D01*
X6427400Y30295508D01*
X6423880Y30259767D01*
X6414091Y30227497D01*
X6398199Y30197764D01*
X6376805Y30171695D01*
X6350736Y30150301D01*
X6321003Y30134409D01*
X6288733Y30124620D01*
X6252992Y30121100D01*
X5824008Y30121100D01*
X5788267Y30124620D01*
X5755997Y30134409D01*
X5726264Y30150301D01*
X5700195Y30171695D01*
X5678801Y30197764D01*
X5662909Y30227497D01*
X5653120Y30259767D01*
X5649600Y30295508D01*
X5649600Y31774492D01*
X5653120Y31810233D01*
X5662909Y31842503D01*
X5678801Y31872236D01*
X5700195Y31898305D01*
X5726264Y31919699D01*
X5755997Y31935591D01*
X5788267Y31945380D01*
X5824008Y31948900D01*
X6252992Y31948900D01*
X6288733Y31945380D01*
G37*
G36*
X13265895Y34237059D02*
G01*
X13311058Y34223358D01*
X13352684Y34201109D01*
X13389168Y34171168D01*
X13419109Y34134684D01*
X13441358Y34093058D01*
X13455059Y34047895D01*
X13459900Y33998741D01*
X13459900Y33357259D01*
X13455059Y33308105D01*
X13441358Y33262942D01*
X13419109Y33221316D01*
X13389168Y33184832D01*
X13352684Y33154891D01*
X13311058Y33132642D01*
X13265895Y33118941D01*
X13216741Y33114100D01*
X12650259Y33114100D01*
X12601105Y33118941D01*
X12555942Y33132642D01*
X12514316Y33154891D01*
X12477832Y33184832D01*
X12447891Y33221316D01*
X12425642Y33262942D01*
X12411941Y33308105D01*
X12407100Y33357259D01*
X12407100Y33998741D01*
X12411941Y34047895D01*
X12425642Y34093058D01*
X12447891Y34134684D01*
X12477832Y34171168D01*
X12514316Y34201109D01*
X12555942Y34223358D01*
X12601105Y34237059D01*
X12650259Y34241900D01*
X13216741Y34241900D01*
X13265895Y34237059D01*
G37*
G36*
X14840895Y34237059D02*
G01*
X14886058Y34223358D01*
X14927684Y34201109D01*
X14964168Y34171168D01*
X14994109Y34134684D01*
X15016358Y34093058D01*
X15030059Y34047895D01*
X15034900Y33998741D01*
X15034900Y33357259D01*
X15030059Y33308105D01*
X15016358Y33262942D01*
X14994109Y33221316D01*
X14964168Y33184832D01*
X14927684Y33154891D01*
X14886058Y33132642D01*
X14840895Y33118941D01*
X14791741Y33114100D01*
X14225259Y33114100D01*
X14176105Y33118941D01*
X14130942Y33132642D01*
X14089316Y33154891D01*
X14052832Y33184832D01*
X14022891Y33221316D01*
X14000642Y33262942D01*
X13986941Y33308105D01*
X13982100Y33357259D01*
X13982100Y33998741D01*
X13986941Y34047895D01*
X14000642Y34093058D01*
X14022891Y34134684D01*
X14052832Y34171168D01*
X14089316Y34201109D01*
X14130942Y34223358D01*
X14176105Y34237059D01*
X14225259Y34241900D01*
X14791741Y34241900D01*
X14840895Y34237059D01*
G37*
G36*
X8391656Y34756790D02*
G01*
X8439438Y34742295D01*
X8483482Y34718754D01*
X8522078Y34687078D01*
X8553754Y34648482D01*
X8577295Y34604438D01*
X8591790Y34556656D01*
X8596900Y34504777D01*
X8596900Y33491223D01*
X8591790Y33439344D01*
X8577295Y33391562D01*
X8553754Y33347518D01*
X8522078Y33308922D01*
X8483482Y33277246D01*
X8439438Y33253705D01*
X8391656Y33239210D01*
X8339777Y33234100D01*
X7276223Y33234100D01*
X7224344Y33239210D01*
X7176562Y33253705D01*
X7132518Y33277246D01*
X7093922Y33308922D01*
X7062246Y33347518D01*
X7038705Y33391562D01*
X7024210Y33439344D01*
X7019100Y33491223D01*
X7019100Y34504777D01*
X7024210Y34556656D01*
X7038705Y34604438D01*
X7062246Y34648482D01*
X7093922Y34687078D01*
X7132518Y34718754D01*
X7176562Y34742295D01*
X7224344Y34756790D01*
X7276223Y34761900D01*
X8339777Y34761900D01*
X8391656Y34756790D01*
G37*
G36*
X11091656Y34756790D02*
G01*
X11139438Y34742295D01*
X11183482Y34718754D01*
X11222078Y34687078D01*
X11253754Y34648482D01*
X11277295Y34604438D01*
X11291790Y34556656D01*
X11296900Y34504777D01*
X11296900Y33491223D01*
X11291790Y33439344D01*
X11277295Y33391562D01*
X11253754Y33347518D01*
X11222078Y33308922D01*
X11183482Y33277246D01*
X11139438Y33253705D01*
X11091656Y33239210D01*
X11039777Y33234100D01*
X9976223Y33234100D01*
X9924344Y33239210D01*
X9876562Y33253705D01*
X9832518Y33277246D01*
X9793922Y33308922D01*
X9762246Y33347518D01*
X9738705Y33391562D01*
X9724210Y33439344D01*
X9719100Y33491223D01*
X9719100Y34504777D01*
X9724210Y34556656D01*
X9738705Y34604438D01*
X9762246Y34648482D01*
X9793922Y34687078D01*
X9832518Y34718754D01*
X9876562Y34742295D01*
X9924344Y34756790D01*
X9976223Y34761900D01*
X11039777Y34761900D01*
X11091656Y34756790D01*
G37*
G36*
X18304900Y33313100D02*
G01*
X16427100Y33313100D01*
X16427100Y35190900D01*
X18304900Y35190900D01*
X18304900Y33313100D01*
G37*
G36*
X14940895Y36623059D02*
G01*
X14986058Y36609358D01*
X15027684Y36587109D01*
X15064168Y36557168D01*
X15094109Y36520684D01*
X15116358Y36479058D01*
X15130059Y36433895D01*
X15134900Y36384741D01*
X15134900Y35818259D01*
X15130059Y35769105D01*
X15116358Y35723942D01*
X15094109Y35682316D01*
X15064168Y35645832D01*
X15027684Y35615891D01*
X14986058Y35593642D01*
X14940895Y35579941D01*
X14891741Y35575100D01*
X14250259Y35575100D01*
X14201105Y35579941D01*
X14155942Y35593642D01*
X14114316Y35615891D01*
X14077832Y35645832D01*
X14047891Y35682316D01*
X14025642Y35723942D01*
X14011941Y35769105D01*
X14007100Y35818259D01*
X14007100Y36384741D01*
X14011941Y36433895D01*
X14025642Y36479058D01*
X14047891Y36520684D01*
X14077832Y36557168D01*
X14114316Y36587109D01*
X14155942Y36609358D01*
X14201105Y36623059D01*
X14250259Y36627900D01*
X14891741Y36627900D01*
X14940895Y36623059D01*
G37*
G36*
X13240895Y36623059D02*
G01*
X13286058Y36609358D01*
X13327684Y36587109D01*
X13364168Y36557168D01*
X13394109Y36520684D01*
X13416358Y36479058D01*
X13430059Y36433895D01*
X13434900Y36384741D01*
X13434900Y35818259D01*
X13430059Y35769105D01*
X13416358Y35723942D01*
X13394109Y35682316D01*
X13364168Y35645832D01*
X13327684Y35615891D01*
X13286058Y35593642D01*
X13240895Y35579941D01*
X13191741Y35575100D01*
X12550259Y35575100D01*
X12501105Y35579941D01*
X12455942Y35593642D01*
X12414316Y35615891D01*
X12377832Y35645832D01*
X12347891Y35682316D01*
X12325642Y35723942D01*
X12311941Y35769105D01*
X12307100Y35818259D01*
X12307100Y36384741D01*
X12311941Y36433895D01*
X12325642Y36479058D01*
X12347891Y36520684D01*
X12377832Y36557168D01*
X12414316Y36587109D01*
X12455942Y36609358D01*
X12501105Y36623059D01*
X12550259Y36627900D01*
X13191741Y36627900D01*
X13240895Y36623059D01*
G37*
G36*
X11634900Y35720100D02*
G01*
X10007100Y35720100D01*
X10007100Y42197900D01*
X11634900Y42197900D01*
X11634900Y35720100D01*
G37*
G36*
X5734900Y35720100D02*
G01*
X4107100Y35720100D01*
X4107100Y42197900D01*
X5734900Y42197900D01*
X5734900Y35720100D01*
G37*
G36*
X17639867Y37694819D02*
G01*
X17810736Y37624042D01*
X17964514Y37521291D01*
X18095291Y37390514D01*
X18198042Y37236736D01*
X18268819Y37065867D01*
X18304900Y36884474D01*
X18304900Y36699526D01*
X18268819Y36518133D01*
X18198042Y36347264D01*
X18095291Y36193486D01*
X17964514Y36062709D01*
X17810736Y35959958D01*
X17639867Y35889181D01*
X17458474Y35853100D01*
X17273526Y35853100D01*
X17092133Y35889181D01*
X16921264Y35959958D01*
X16767486Y36062709D01*
X16636709Y36193486D01*
X16533958Y36347264D01*
X16463181Y36518133D01*
X16427100Y36699526D01*
X16427100Y36884474D01*
X16463181Y37065867D01*
X16533958Y37236736D01*
X16636709Y37390514D01*
X16767486Y37521291D01*
X16921264Y37624042D01*
X17092133Y37694819D01*
X17273526Y37730900D01*
X17458474Y37730900D01*
X17639867Y37694819D01*
G37*
G36*
X3130895Y37288059D02*
G01*
X3176058Y37274358D01*
X3217684Y37252109D01*
X3254168Y37222168D01*
X3284109Y37185684D01*
X3306358Y37144058D01*
X3320059Y37098895D01*
X3324900Y37049741D01*
X3324900Y36483259D01*
X3320059Y36434105D01*
X3306358Y36388942D01*
X3284109Y36347316D01*
X3254168Y36310832D01*
X3217684Y36280891D01*
X3176058Y36258642D01*
X3130895Y36244941D01*
X3081741Y36240100D01*
X2440259Y36240100D01*
X2391105Y36244941D01*
X2345942Y36258642D01*
X2304316Y36280891D01*
X2267832Y36310832D01*
X2237891Y36347316D01*
X2215642Y36388942D01*
X2201941Y36434105D01*
X2197100Y36483259D01*
X2197100Y37049741D01*
X2201941Y37098895D01*
X2215642Y37144058D01*
X2237891Y37185684D01*
X2267832Y37222168D01*
X2304316Y37252109D01*
X2345942Y37274358D01*
X2391105Y37288059D01*
X2440259Y37292900D01*
X3081741Y37292900D01*
X3130895Y37288059D01*
G37*
G36*
X14940895Y38198059D02*
G01*
X14986058Y38184358D01*
X15027684Y38162109D01*
X15064168Y38132168D01*
X15094109Y38095684D01*
X15116358Y38054058D01*
X15130059Y38008895D01*
X15134900Y37959741D01*
X15134900Y37393259D01*
X15130059Y37344105D01*
X15116358Y37298942D01*
X15094109Y37257316D01*
X15064168Y37220832D01*
X15027684Y37190891D01*
X14986058Y37168642D01*
X14940895Y37154941D01*
X14891741Y37150100D01*
X14250259Y37150100D01*
X14201105Y37154941D01*
X14155942Y37168642D01*
X14114316Y37190891D01*
X14077832Y37220832D01*
X14047891Y37257316D01*
X14025642Y37298942D01*
X14011941Y37344105D01*
X14007100Y37393259D01*
X14007100Y37959741D01*
X14011941Y38008895D01*
X14025642Y38054058D01*
X14047891Y38095684D01*
X14077832Y38132168D01*
X14114316Y38162109D01*
X14155942Y38184358D01*
X14201105Y38198059D01*
X14250259Y38202900D01*
X14891741Y38202900D01*
X14940895Y38198059D01*
G37*
G36*
X13240895Y38198059D02*
G01*
X13286058Y38184358D01*
X13327684Y38162109D01*
X13364168Y38132168D01*
X13394109Y38095684D01*
X13416358Y38054058D01*
X13430059Y38008895D01*
X13434900Y37959741D01*
X13434900Y37393259D01*
X13430059Y37344105D01*
X13416358Y37298942D01*
X13394109Y37257316D01*
X13364168Y37220832D01*
X13327684Y37190891D01*
X13286058Y37168642D01*
X13240895Y37154941D01*
X13191741Y37150100D01*
X12550259Y37150100D01*
X12501105Y37154941D01*
X12455942Y37168642D01*
X12414316Y37190891D01*
X12377832Y37220832D01*
X12347891Y37257316D01*
X12325642Y37298942D01*
X12311941Y37344105D01*
X12307100Y37393259D01*
X12307100Y37959741D01*
X12311941Y38008895D01*
X12325642Y38054058D01*
X12347891Y38095684D01*
X12377832Y38132168D01*
X12414316Y38162109D01*
X12455942Y38184358D01*
X12501105Y38198059D01*
X12550259Y38202900D01*
X13191741Y38202900D01*
X13240895Y38198059D01*
G37*
G36*
X3130895Y38863059D02*
G01*
X3176058Y38849358D01*
X3217684Y38827109D01*
X3254168Y38797168D01*
X3284109Y38760684D01*
X3306358Y38719058D01*
X3320059Y38673895D01*
X3324900Y38624741D01*
X3324900Y38058259D01*
X3320059Y38009105D01*
X3306358Y37963942D01*
X3284109Y37922316D01*
X3254168Y37885832D01*
X3217684Y37855891D01*
X3176058Y37833642D01*
X3130895Y37819941D01*
X3081741Y37815100D01*
X2440259Y37815100D01*
X2391105Y37819941D01*
X2345942Y37833642D01*
X2304316Y37855891D01*
X2267832Y37885832D01*
X2237891Y37922316D01*
X2215642Y37963942D01*
X2201941Y38009105D01*
X2197100Y38058259D01*
X2197100Y38624741D01*
X2201941Y38673895D01*
X2215642Y38719058D01*
X2237891Y38760684D01*
X2267832Y38797168D01*
X2304316Y38827109D01*
X2345942Y38849358D01*
X2391105Y38863059D01*
X2440259Y38867900D01*
X3081741Y38867900D01*
X3130895Y38863059D01*
G37*
G36*
X17639867Y40234819D02*
G01*
X17810736Y40164042D01*
X17964514Y40061291D01*
X18095291Y39930514D01*
X18198042Y39776736D01*
X18268819Y39605867D01*
X18304900Y39424474D01*
X18304900Y39239526D01*
X18268819Y39058133D01*
X18198042Y38887264D01*
X18095291Y38733486D01*
X17964514Y38602709D01*
X17810736Y38499958D01*
X17639867Y38429181D01*
X17458474Y38393100D01*
X17273526Y38393100D01*
X17092133Y38429181D01*
X16921264Y38499958D01*
X16767486Y38602709D01*
X16636709Y38733486D01*
X16533958Y38887264D01*
X16463181Y39058133D01*
X16427100Y39239526D01*
X16427100Y39424474D01*
X16463181Y39605867D01*
X16533958Y39776736D01*
X16636709Y39930514D01*
X16767486Y40061291D01*
X16921264Y40164042D01*
X17092133Y40234819D01*
X17273526Y40270900D01*
X17458474Y40270900D01*
X17639867Y40234819D01*
G37*
G36*
X14940895Y40763059D02*
G01*
X14986058Y40749358D01*
X15027684Y40727109D01*
X15064168Y40697168D01*
X15094109Y40660684D01*
X15116358Y40619058D01*
X15130059Y40573895D01*
X15134900Y40524741D01*
X15134900Y39958259D01*
X15130059Y39909105D01*
X15116358Y39863942D01*
X15094109Y39822316D01*
X15064168Y39785832D01*
X15027684Y39755891D01*
X14986058Y39733642D01*
X14940895Y39719941D01*
X14891741Y39715100D01*
X14250259Y39715100D01*
X14201105Y39719941D01*
X14155942Y39733642D01*
X14114316Y39755891D01*
X14077832Y39785832D01*
X14047891Y39822316D01*
X14025642Y39863942D01*
X14011941Y39909105D01*
X14007100Y39958259D01*
X14007100Y40524741D01*
X14011941Y40573895D01*
X14025642Y40619058D01*
X14047891Y40660684D01*
X14077832Y40697168D01*
X14114316Y40727109D01*
X14155942Y40749358D01*
X14201105Y40763059D01*
X14250259Y40767900D01*
X14891741Y40767900D01*
X14940895Y40763059D01*
G37*
G36*
X13240895Y40763059D02*
G01*
X13286058Y40749358D01*
X13327684Y40727109D01*
X13364168Y40697168D01*
X13394109Y40660684D01*
X13416358Y40619058D01*
X13430059Y40573895D01*
X13434900Y40524741D01*
X13434900Y39958259D01*
X13430059Y39909105D01*
X13416358Y39863942D01*
X13394109Y39822316D01*
X13364168Y39785832D01*
X13327684Y39755891D01*
X13286058Y39733642D01*
X13240895Y39719941D01*
X13191741Y39715100D01*
X12550259Y39715100D01*
X12501105Y39719941D01*
X12455942Y39733642D01*
X12414316Y39755891D01*
X12377832Y39785832D01*
X12347891Y39822316D01*
X12325642Y39863942D01*
X12311941Y39909105D01*
X12307100Y39958259D01*
X12307100Y40524741D01*
X12311941Y40573895D01*
X12325642Y40619058D01*
X12347891Y40660684D01*
X12377832Y40697168D01*
X12414316Y40727109D01*
X12455942Y40749358D01*
X12501105Y40763059D01*
X12550259Y40767900D01*
X13191741Y40767900D01*
X13240895Y40763059D01*
G37*
G36*
X3130895Y40763059D02*
G01*
X3176058Y40749358D01*
X3217684Y40727109D01*
X3254168Y40697168D01*
X3284109Y40660684D01*
X3306358Y40619058D01*
X3320059Y40573895D01*
X3324900Y40524741D01*
X3324900Y39958259D01*
X3320059Y39909105D01*
X3306358Y39863942D01*
X3284109Y39822316D01*
X3254168Y39785832D01*
X3217684Y39755891D01*
X3176058Y39733642D01*
X3130895Y39719941D01*
X3081741Y39715100D01*
X2440259Y39715100D01*
X2391105Y39719941D01*
X2345942Y39733642D01*
X2304316Y39755891D01*
X2267832Y39785832D01*
X2237891Y39822316D01*
X2215642Y39863942D01*
X2201941Y39909105D01*
X2197100Y39958259D01*
X2197100Y40524741D01*
X2201941Y40573895D01*
X2215642Y40619058D01*
X2237891Y40660684D01*
X2267832Y40697168D01*
X2304316Y40727109D01*
X2345942Y40749358D01*
X2391105Y40763059D01*
X2440259Y40767900D01*
X3081741Y40767900D01*
X3130895Y40763059D01*
G37*
G36*
X17639867Y42774819D02*
G01*
X17810736Y42704042D01*
X17964514Y42601291D01*
X18095291Y42470514D01*
X18198042Y42316736D01*
X18268819Y42145867D01*
X18304900Y41964474D01*
X18304900Y41779526D01*
X18268819Y41598133D01*
X18198042Y41427264D01*
X18095291Y41273486D01*
X17964514Y41142709D01*
X17810736Y41039958D01*
X17639867Y40969181D01*
X17458474Y40933100D01*
X17273526Y40933100D01*
X17092133Y40969181D01*
X16921264Y41039958D01*
X16767486Y41142709D01*
X16636709Y41273486D01*
X16533958Y41427264D01*
X16463181Y41598133D01*
X16427100Y41779526D01*
X16427100Y41964474D01*
X16463181Y42145867D01*
X16533958Y42316736D01*
X16636709Y42470514D01*
X16767486Y42601291D01*
X16921264Y42704042D01*
X17092133Y42774819D01*
X17273526Y42810900D01*
X17458474Y42810900D01*
X17639867Y42774819D01*
G37*
G36*
X13240895Y42338059D02*
G01*
X13286058Y42324358D01*
X13327684Y42302109D01*
X13364168Y42272168D01*
X13394109Y42235684D01*
X13416358Y42194058D01*
X13430059Y42148895D01*
X13434900Y42099741D01*
X13434900Y41533259D01*
X13430059Y41484105D01*
X13416358Y41438942D01*
X13394109Y41397316D01*
X13364168Y41360832D01*
X13327684Y41330891D01*
X13286058Y41308642D01*
X13240895Y41294941D01*
X13191741Y41290100D01*
X12550259Y41290100D01*
X12501105Y41294941D01*
X12455942Y41308642D01*
X12414316Y41330891D01*
X12377832Y41360832D01*
X12347891Y41397316D01*
X12325642Y41438942D01*
X12311941Y41484105D01*
X12307100Y41533259D01*
X12307100Y42099741D01*
X12311941Y42148895D01*
X12325642Y42194058D01*
X12347891Y42235684D01*
X12377832Y42272168D01*
X12414316Y42302109D01*
X12455942Y42324358D01*
X12501105Y42338059D01*
X12550259Y42342900D01*
X13191741Y42342900D01*
X13240895Y42338059D01*
G37*
G36*
X3130895Y42338059D02*
G01*
X3176058Y42324358D01*
X3217684Y42302109D01*
X3254168Y42272168D01*
X3284109Y42235684D01*
X3306358Y42194058D01*
X3320059Y42148895D01*
X3324900Y42099741D01*
X3324900Y41533259D01*
X3320059Y41484105D01*
X3306358Y41438942D01*
X3284109Y41397316D01*
X3254168Y41360832D01*
X3217684Y41330891D01*
X3176058Y41308642D01*
X3130895Y41294941D01*
X3081741Y41290100D01*
X2440259Y41290100D01*
X2391105Y41294941D01*
X2345942Y41308642D01*
X2304316Y41330891D01*
X2267832Y41360832D01*
X2237891Y41397316D01*
X2215642Y41438942D01*
X2201941Y41484105D01*
X2197100Y41533259D01*
X2197100Y42099741D01*
X2201941Y42148895D01*
X2215642Y42194058D01*
X2237891Y42235684D01*
X2267832Y42272168D01*
X2304316Y42302109D01*
X2345942Y42324358D01*
X2391105Y42338059D01*
X2440259Y42342900D01*
X3081741Y42342900D01*
X3130895Y42338059D01*
G37*
G36*
X14940895Y42338059D02*
G01*
X14986058Y42324358D01*
X15027684Y42302109D01*
X15064168Y42272168D01*
X15094109Y42235684D01*
X15116358Y42194058D01*
X15130059Y42148895D01*
X15134900Y42099741D01*
X15134900Y41533259D01*
X15130059Y41484105D01*
X15116358Y41438942D01*
X15094109Y41397316D01*
X15064168Y41360832D01*
X15027684Y41330891D01*
X14986058Y41308642D01*
X14940895Y41294941D01*
X14891741Y41290100D01*
X14250259Y41290100D01*
X14201105Y41294941D01*
X14155942Y41308642D01*
X14114316Y41330891D01*
X14077832Y41360832D01*
X14047891Y41397316D01*
X14025642Y41438942D01*
X14011941Y41484105D01*
X14007100Y41533259D01*
X14007100Y42099741D01*
X14011941Y42148895D01*
X14025642Y42194058D01*
X14047891Y42235684D01*
X14077832Y42272168D01*
X14114316Y42302109D01*
X14155942Y42324358D01*
X14201105Y42338059D01*
X14250259Y42342900D01*
X14891741Y42342900D01*
X14940895Y42338059D01*
G37*
G36*
X9330283Y46117740D02*
G01*
X9492052Y46050733D01*
X9637641Y45953454D01*
X9761454Y45829641D01*
X9858733Y45684052D01*
X9925740Y45522283D01*
X9959900Y45350549D01*
X9959900Y45175451D01*
X9925740Y45003717D01*
X9858733Y44841948D01*
X9761454Y44696359D01*
X9637641Y44572546D01*
X9492052Y44475267D01*
X9330283Y44408260D01*
X9158549Y44374100D01*
X8983451Y44374100D01*
X8811717Y44408260D01*
X8649948Y44475267D01*
X8504359Y44572546D01*
X8380546Y44696359D01*
X8283267Y44841948D01*
X8216260Y45003717D01*
X8182100Y45175451D01*
X8182100Y45350549D01*
X8216260Y45522283D01*
X8283267Y45684052D01*
X8380546Y45829641D01*
X8504359Y45953454D01*
X8649948Y46050733D01*
X8811717Y46117740D01*
X8983451Y46151900D01*
X9158549Y46151900D01*
X9330283Y46117740D01*
G37*
G36*
X11330283Y46117740D02*
G01*
X11492052Y46050733D01*
X11637641Y45953454D01*
X11761454Y45829641D01*
X11858733Y45684052D01*
X11925740Y45522283D01*
X11959900Y45350549D01*
X11959900Y45175451D01*
X11925740Y45003717D01*
X11858733Y44841948D01*
X11761454Y44696359D01*
X11637641Y44572546D01*
X11492052Y44475267D01*
X11330283Y44408260D01*
X11158549Y44374100D01*
X10983451Y44374100D01*
X10811717Y44408260D01*
X10649948Y44475267D01*
X10504359Y44572546D01*
X10380546Y44696359D01*
X10283267Y44841948D01*
X10216260Y45003717D01*
X10182100Y45175451D01*
X10182100Y45350549D01*
X10216260Y45522283D01*
X10283267Y45684052D01*
X10380546Y45829641D01*
X10504359Y45953454D01*
X10649948Y46050733D01*
X10811717Y46117740D01*
X10983451Y46151900D01*
X11158549Y46151900D01*
X11330283Y46117740D01*
G37*
G36*
X6830283Y46117740D02*
G01*
X6992052Y46050733D01*
X7137641Y45953454D01*
X7261454Y45829641D01*
X7358733Y45684052D01*
X7425740Y45522283D01*
X7459900Y45350549D01*
X7459900Y45175451D01*
X7425740Y45003717D01*
X7358733Y44841948D01*
X7261454Y44696359D01*
X7137641Y44572546D01*
X6992052Y44475267D01*
X6830283Y44408260D01*
X6658549Y44374100D01*
X6483451Y44374100D01*
X6311717Y44408260D01*
X6149948Y44475267D01*
X6004359Y44572546D01*
X5880546Y44696359D01*
X5783267Y44841948D01*
X5716260Y45003717D01*
X5682100Y45175451D01*
X5682100Y45350549D01*
X5716260Y45522283D01*
X5783267Y45684052D01*
X5880546Y45829641D01*
X6004359Y45953454D01*
X6149948Y46050733D01*
X6311717Y46117740D01*
X6483451Y46151900D01*
X6658549Y46151900D01*
X6830283Y46117740D01*
G37*
G36*
X13830283Y46117740D02*
G01*
X13992052Y46050733D01*
X14137641Y45953454D01*
X14261454Y45829641D01*
X14358733Y45684052D01*
X14425740Y45522283D01*
X14459900Y45350549D01*
X14459900Y45175451D01*
X14425740Y45003717D01*
X14358733Y44841948D01*
X14261454Y44696359D01*
X14137641Y44572546D01*
X13992052Y44475267D01*
X13830283Y44408260D01*
X13658549Y44374100D01*
X13483451Y44374100D01*
X13311717Y44408260D01*
X13149948Y44475267D01*
X13004359Y44572546D01*
X12880546Y44696359D01*
X12783267Y44841948D01*
X12716260Y45003717D01*
X12682100Y45175451D01*
X12682100Y45350549D01*
X12716260Y45522283D01*
X12783267Y45684052D01*
X12880546Y45829641D01*
X13004359Y45953454D01*
X13149948Y46050733D01*
X13311717Y46117740D01*
X13483451Y46151900D01*
X13658549Y46151900D01*
X13830283Y46117740D01*
G37*
G36*
X4434461Y48836144D02*
G01*
X4639717Y48773880D01*
X4828887Y48672767D01*
X4994694Y48536694D01*
X5130769Y48370884D01*
X5231879Y48181722D01*
X5294144Y47976462D01*
X5309900Y47816487D01*
X5309900Y46309513D01*
X5294144Y46149538D01*
X5231879Y45944278D01*
X5130769Y45755116D01*
X5130767Y45755113D01*
X4994694Y45589306D01*
X4828887Y45453233D01*
X4828885Y45453232D01*
X4828884Y45453231D01*
X4639722Y45352121D01*
X4434462Y45289856D01*
X4221000Y45268832D01*
X4007539Y45289856D01*
X3802279Y45352121D01*
X3613117Y45453231D01*
X3613116Y45453232D01*
X3613114Y45453233D01*
X3447307Y45589306D01*
X3311231Y45755116D01*
X3210121Y45944278D01*
X3147856Y46149538D01*
X3132100Y46309513D01*
X3132100Y47816486D01*
X3147856Y47976461D01*
X3210120Y48181717D01*
X3311233Y48370887D01*
X3447306Y48536694D01*
X3613113Y48672767D01*
X3613115Y48672768D01*
X3613116Y48672769D01*
X3802278Y48773879D01*
X4007538Y48836144D01*
X4221000Y48857168D01*
X4434461Y48836144D01*
G37*
G36*
X16134461Y48836144D02*
G01*
X16339717Y48773880D01*
X16528887Y48672767D01*
X16694694Y48536694D01*
X16830769Y48370884D01*
X16931879Y48181722D01*
X16994144Y47976462D01*
X17009900Y47816487D01*
X17009900Y46309513D01*
X16994144Y46149538D01*
X16931879Y45944278D01*
X16830769Y45755116D01*
X16830767Y45755113D01*
X16694694Y45589306D01*
X16528887Y45453233D01*
X16528885Y45453232D01*
X16528884Y45453231D01*
X16339722Y45352121D01*
X16134462Y45289856D01*
X15921000Y45268832D01*
X15707539Y45289856D01*
X15502279Y45352121D01*
X15313117Y45453231D01*
X15313116Y45453232D01*
X15313114Y45453233D01*
X15147307Y45589306D01*
X15011231Y45755116D01*
X14910121Y45944278D01*
X14847856Y46149538D01*
X14832100Y46309513D01*
X14832100Y47816486D01*
X14847856Y47976461D01*
X14910120Y48181717D01*
X15011233Y48370887D01*
X15147306Y48536694D01*
X15313113Y48672767D01*
X15313115Y48672768D01*
X15313116Y48672769D01*
X15502278Y48773879D01*
X15707538Y48836144D01*
X15921000Y48857168D01*
X16134461Y48836144D01*
G37*
G36*
X7898127Y47649090D02*
G01*
X7997773Y47629270D01*
X8104952Y47584875D01*
X8201403Y47520429D01*
X8283429Y47438403D01*
X8347875Y47341952D01*
X8392270Y47234773D01*
X8414900Y47121001D01*
X8414900Y47004999D01*
X8392270Y46891227D01*
X8347875Y46784048D01*
X8283429Y46687597D01*
X8201403Y46605571D01*
X8104952Y46541125D01*
X7997773Y46496730D01*
X7898127Y46476910D01*
X7884002Y46474100D01*
X7767998Y46474100D01*
X7753873Y46476910D01*
X7654227Y46496730D01*
X7547048Y46541125D01*
X7450597Y46605571D01*
X7368571Y46687597D01*
X7304125Y46784048D01*
X7259730Y46891227D01*
X7237100Y47004999D01*
X7237100Y47121001D01*
X7259730Y47234773D01*
X7304125Y47341952D01*
X7368571Y47438403D01*
X7450597Y47520429D01*
X7547048Y47584875D01*
X7654227Y47629270D01*
X7753873Y47649090D01*
X7767998Y47651900D01*
X7884002Y47651900D01*
X7898127Y47649090D01*
G37*
G36*
X12388127Y47649090D02*
G01*
X12487773Y47629270D01*
X12594952Y47584875D01*
X12691403Y47520429D01*
X12773429Y47438403D01*
X12837875Y47341952D01*
X12882270Y47234773D01*
X12904900Y47121001D01*
X12904900Y47004999D01*
X12882270Y46891227D01*
X12837875Y46784048D01*
X12773429Y46687597D01*
X12691403Y46605571D01*
X12594952Y46541125D01*
X12487773Y46496730D01*
X12388127Y46476910D01*
X12374002Y46474100D01*
X12257998Y46474100D01*
X12243873Y46476910D01*
X12144227Y46496730D01*
X12037048Y46541125D01*
X11940597Y46605571D01*
X11858571Y46687597D01*
X11794125Y46784048D01*
X11749730Y46891227D01*
X11727100Y47004999D01*
X11727100Y47121001D01*
X11749730Y47234773D01*
X11794125Y47341952D01*
X11858571Y47438403D01*
X11940597Y47520429D01*
X12037048Y47584875D01*
X12144227Y47629270D01*
X12243873Y47649090D01*
X12257998Y47651900D01*
X12374002Y47651900D01*
X12388127Y47649090D01*
G37*
M02*
