G04 #@! TF.GenerationSoftware,KiCad,Pcbnew,(5.1.5)-3*
G04 #@! TF.CreationDate,2022-04-18T12:11:36+02:00*
G04 #@! TF.ProjectId,vkm,766b6d2e-6b69-4636-9164-5f7063625858,B*
G04 #@! TF.SameCoordinates,PX420a400PY707b2a8*
G04 #@! TF.FileFunction,Copper,L1,Top*
G04 #@! TF.FilePolarity,Positive*
%FSLAX46Y46*%
G04 Gerber Fmt 4.6, Leading zero omitted, Abs format (unit mm)*
G04 Created by KiCad (PCBNEW (5.1.5)-3) date 2022-04-18 12:11:36*
%MOMM*%
%LPD*%
G04 APERTURE LIST*
%ADD10C,0.050000*%
%ADD11C,0.020000*%
%ADD12R,0.300000X1.450000*%
%ADD13O,1.000000X2.100000*%
%ADD14O,1.000000X1.600000*%
%ADD15C,1.600000*%
%ADD16O,2.000000X3.400000*%
%ADD17O,1.700000X1.700000*%
%ADD18R,1.700000X1.700000*%
%ADD19R,1.450000X0.450000*%
%ADD20R,2.000000X3.800000*%
%ADD21R,2.000000X1.500000*%
%ADD22C,5.600000*%
%ADD23C,0.500000*%
%ADD24C,0.406400*%
%ADD25C,0.254000*%
%ADD26C,0.152400*%
%ADD27C,0.508000*%
G04 APERTURE END LIST*
D10*
X0Y0D02*
X20000000Y0D01*
X0Y50000000D02*
X0Y0D01*
X20000000Y50000000D02*
X0Y50000000D01*
X20000000Y0D02*
X20000000Y50000000D01*
G04 #@! TA.AperFunction,SMDPad,CuDef*
D11*
G36*
X13073691Y10151447D02*
G01*
X13094926Y10148297D01*
X13115750Y10143081D01*
X13135962Y10135849D01*
X13155368Y10126670D01*
X13173781Y10115634D01*
X13191024Y10102846D01*
X13206930Y10088430D01*
X13221346Y10072524D01*
X13234134Y10055281D01*
X13245170Y10036868D01*
X13254349Y10017462D01*
X13261581Y9997250D01*
X13266797Y9976426D01*
X13269947Y9955191D01*
X13271000Y9933750D01*
X13271000Y9421250D01*
X13269947Y9399809D01*
X13266797Y9378574D01*
X13261581Y9357750D01*
X13254349Y9337538D01*
X13245170Y9318132D01*
X13234134Y9299719D01*
X13221346Y9282476D01*
X13206930Y9266570D01*
X13191024Y9252154D01*
X13173781Y9239366D01*
X13155368Y9228330D01*
X13135962Y9219151D01*
X13115750Y9211919D01*
X13094926Y9206703D01*
X13073691Y9203553D01*
X13052250Y9202500D01*
X12614750Y9202500D01*
X12593309Y9203553D01*
X12572074Y9206703D01*
X12551250Y9211919D01*
X12531038Y9219151D01*
X12511632Y9228330D01*
X12493219Y9239366D01*
X12475976Y9252154D01*
X12460070Y9266570D01*
X12445654Y9282476D01*
X12432866Y9299719D01*
X12421830Y9318132D01*
X12412651Y9337538D01*
X12405419Y9357750D01*
X12400203Y9378574D01*
X12397053Y9399809D01*
X12396000Y9421250D01*
X12396000Y9933750D01*
X12397053Y9955191D01*
X12400203Y9976426D01*
X12405419Y9997250D01*
X12412651Y10017462D01*
X12421830Y10036868D01*
X12432866Y10055281D01*
X12445654Y10072524D01*
X12460070Y10088430D01*
X12475976Y10102846D01*
X12493219Y10115634D01*
X12511632Y10126670D01*
X12531038Y10135849D01*
X12551250Y10143081D01*
X12572074Y10148297D01*
X12593309Y10151447D01*
X12614750Y10152500D01*
X13052250Y10152500D01*
X13073691Y10151447D01*
G37*
G04 #@! TD.AperFunction*
G04 #@! TA.AperFunction,SMDPad,CuDef*
G36*
X14648691Y10151447D02*
G01*
X14669926Y10148297D01*
X14690750Y10143081D01*
X14710962Y10135849D01*
X14730368Y10126670D01*
X14748781Y10115634D01*
X14766024Y10102846D01*
X14781930Y10088430D01*
X14796346Y10072524D01*
X14809134Y10055281D01*
X14820170Y10036868D01*
X14829349Y10017462D01*
X14836581Y9997250D01*
X14841797Y9976426D01*
X14844947Y9955191D01*
X14846000Y9933750D01*
X14846000Y9421250D01*
X14844947Y9399809D01*
X14841797Y9378574D01*
X14836581Y9357750D01*
X14829349Y9337538D01*
X14820170Y9318132D01*
X14809134Y9299719D01*
X14796346Y9282476D01*
X14781930Y9266570D01*
X14766024Y9252154D01*
X14748781Y9239366D01*
X14730368Y9228330D01*
X14710962Y9219151D01*
X14690750Y9211919D01*
X14669926Y9206703D01*
X14648691Y9203553D01*
X14627250Y9202500D01*
X14189750Y9202500D01*
X14168309Y9203553D01*
X14147074Y9206703D01*
X14126250Y9211919D01*
X14106038Y9219151D01*
X14086632Y9228330D01*
X14068219Y9239366D01*
X14050976Y9252154D01*
X14035070Y9266570D01*
X14020654Y9282476D01*
X14007866Y9299719D01*
X13996830Y9318132D01*
X13987651Y9337538D01*
X13980419Y9357750D01*
X13975203Y9378574D01*
X13972053Y9399809D01*
X13971000Y9421250D01*
X13971000Y9933750D01*
X13972053Y9955191D01*
X13975203Y9976426D01*
X13980419Y9997250D01*
X13987651Y10017462D01*
X13996830Y10036868D01*
X14007866Y10055281D01*
X14020654Y10072524D01*
X14035070Y10088430D01*
X14050976Y10102846D01*
X14068219Y10115634D01*
X14086632Y10126670D01*
X14106038Y10135849D01*
X14126250Y10143081D01*
X14147074Y10148297D01*
X14168309Y10151447D01*
X14189750Y10152500D01*
X14627250Y10152500D01*
X14648691Y10151447D01*
G37*
G04 #@! TD.AperFunction*
G04 #@! TA.AperFunction,SMDPad,CuDef*
G36*
X6428691Y10151447D02*
G01*
X6449926Y10148297D01*
X6470750Y10143081D01*
X6490962Y10135849D01*
X6510368Y10126670D01*
X6528781Y10115634D01*
X6546024Y10102846D01*
X6561930Y10088430D01*
X6576346Y10072524D01*
X6589134Y10055281D01*
X6600170Y10036868D01*
X6609349Y10017462D01*
X6616581Y9997250D01*
X6621797Y9976426D01*
X6624947Y9955191D01*
X6626000Y9933750D01*
X6626000Y9421250D01*
X6624947Y9399809D01*
X6621797Y9378574D01*
X6616581Y9357750D01*
X6609349Y9337538D01*
X6600170Y9318132D01*
X6589134Y9299719D01*
X6576346Y9282476D01*
X6561930Y9266570D01*
X6546024Y9252154D01*
X6528781Y9239366D01*
X6510368Y9228330D01*
X6490962Y9219151D01*
X6470750Y9211919D01*
X6449926Y9206703D01*
X6428691Y9203553D01*
X6407250Y9202500D01*
X5969750Y9202500D01*
X5948309Y9203553D01*
X5927074Y9206703D01*
X5906250Y9211919D01*
X5886038Y9219151D01*
X5866632Y9228330D01*
X5848219Y9239366D01*
X5830976Y9252154D01*
X5815070Y9266570D01*
X5800654Y9282476D01*
X5787866Y9299719D01*
X5776830Y9318132D01*
X5767651Y9337538D01*
X5760419Y9357750D01*
X5755203Y9378574D01*
X5752053Y9399809D01*
X5751000Y9421250D01*
X5751000Y9933750D01*
X5752053Y9955191D01*
X5755203Y9976426D01*
X5760419Y9997250D01*
X5767651Y10017462D01*
X5776830Y10036868D01*
X5787866Y10055281D01*
X5800654Y10072524D01*
X5815070Y10088430D01*
X5830976Y10102846D01*
X5848219Y10115634D01*
X5866632Y10126670D01*
X5886038Y10135849D01*
X5906250Y10143081D01*
X5927074Y10148297D01*
X5948309Y10151447D01*
X5969750Y10152500D01*
X6407250Y10152500D01*
X6428691Y10151447D01*
G37*
G04 #@! TD.AperFunction*
G04 #@! TA.AperFunction,SMDPad,CuDef*
G36*
X4853691Y10151447D02*
G01*
X4874926Y10148297D01*
X4895750Y10143081D01*
X4915962Y10135849D01*
X4935368Y10126670D01*
X4953781Y10115634D01*
X4971024Y10102846D01*
X4986930Y10088430D01*
X5001346Y10072524D01*
X5014134Y10055281D01*
X5025170Y10036868D01*
X5034349Y10017462D01*
X5041581Y9997250D01*
X5046797Y9976426D01*
X5049947Y9955191D01*
X5051000Y9933750D01*
X5051000Y9421250D01*
X5049947Y9399809D01*
X5046797Y9378574D01*
X5041581Y9357750D01*
X5034349Y9337538D01*
X5025170Y9318132D01*
X5014134Y9299719D01*
X5001346Y9282476D01*
X4986930Y9266570D01*
X4971024Y9252154D01*
X4953781Y9239366D01*
X4935368Y9228330D01*
X4915962Y9219151D01*
X4895750Y9211919D01*
X4874926Y9206703D01*
X4853691Y9203553D01*
X4832250Y9202500D01*
X4394750Y9202500D01*
X4373309Y9203553D01*
X4352074Y9206703D01*
X4331250Y9211919D01*
X4311038Y9219151D01*
X4291632Y9228330D01*
X4273219Y9239366D01*
X4255976Y9252154D01*
X4240070Y9266570D01*
X4225654Y9282476D01*
X4212866Y9299719D01*
X4201830Y9318132D01*
X4192651Y9337538D01*
X4185419Y9357750D01*
X4180203Y9378574D01*
X4177053Y9399809D01*
X4176000Y9421250D01*
X4176000Y9933750D01*
X4177053Y9955191D01*
X4180203Y9976426D01*
X4185419Y9997250D01*
X4192651Y10017462D01*
X4201830Y10036868D01*
X4212866Y10055281D01*
X4225654Y10072524D01*
X4240070Y10088430D01*
X4255976Y10102846D01*
X4273219Y10115634D01*
X4291632Y10126670D01*
X4311038Y10135849D01*
X4331250Y10143081D01*
X4352074Y10148297D01*
X4373309Y10151447D01*
X4394750Y10152500D01*
X4832250Y10152500D01*
X4853691Y10151447D01*
G37*
G04 #@! TD.AperFunction*
D12*
X13375000Y6958500D03*
X6925000Y6958500D03*
X12300000Y6958500D03*
X7700000Y6958500D03*
X8250000Y6958500D03*
X11750000Y6958500D03*
X8750000Y6958500D03*
X11250000Y6958500D03*
X9250000Y6958500D03*
X10750000Y6958500D03*
X10250000Y6958500D03*
X9750000Y6958500D03*
D13*
X5680000Y6043500D03*
X14320000Y6043500D03*
D14*
X5680000Y1863500D03*
X14320000Y1863500D03*
D12*
X6625000Y6958500D03*
X7400000Y6958500D03*
X12600000Y6958500D03*
X13075000Y6958500D03*
D15*
X6571000Y45263000D03*
X9071000Y45263000D03*
X11071000Y45263000D03*
X13571000Y45263000D03*
D16*
X4221000Y47063000D03*
X15921000Y47063000D03*
G04 #@! TA.AperFunction,SMDPad,CuDef*
D11*
G36*
X14848691Y12007947D02*
G01*
X14869926Y12004797D01*
X14890750Y11999581D01*
X14910962Y11992349D01*
X14930368Y11983170D01*
X14948781Y11972134D01*
X14966024Y11959346D01*
X14981930Y11944930D01*
X14996346Y11929024D01*
X15009134Y11911781D01*
X15020170Y11893368D01*
X15029349Y11873962D01*
X15036581Y11853750D01*
X15041797Y11832926D01*
X15044947Y11811691D01*
X15046000Y11790250D01*
X15046000Y11352750D01*
X15044947Y11331309D01*
X15041797Y11310074D01*
X15036581Y11289250D01*
X15029349Y11269038D01*
X15020170Y11249632D01*
X15009134Y11231219D01*
X14996346Y11213976D01*
X14981930Y11198070D01*
X14966024Y11183654D01*
X14948781Y11170866D01*
X14930368Y11159830D01*
X14910962Y11150651D01*
X14890750Y11143419D01*
X14869926Y11138203D01*
X14848691Y11135053D01*
X14827250Y11134000D01*
X14314750Y11134000D01*
X14293309Y11135053D01*
X14272074Y11138203D01*
X14251250Y11143419D01*
X14231038Y11150651D01*
X14211632Y11159830D01*
X14193219Y11170866D01*
X14175976Y11183654D01*
X14160070Y11198070D01*
X14145654Y11213976D01*
X14132866Y11231219D01*
X14121830Y11249632D01*
X14112651Y11269038D01*
X14105419Y11289250D01*
X14100203Y11310074D01*
X14097053Y11331309D01*
X14096000Y11352750D01*
X14096000Y11790250D01*
X14097053Y11811691D01*
X14100203Y11832926D01*
X14105419Y11853750D01*
X14112651Y11873962D01*
X14121830Y11893368D01*
X14132866Y11911781D01*
X14145654Y11929024D01*
X14160070Y11944930D01*
X14175976Y11959346D01*
X14193219Y11972134D01*
X14211632Y11983170D01*
X14231038Y11992349D01*
X14251250Y11999581D01*
X14272074Y12004797D01*
X14293309Y12007947D01*
X14314750Y12009000D01*
X14827250Y12009000D01*
X14848691Y12007947D01*
G37*
G04 #@! TD.AperFunction*
G04 #@! TA.AperFunction,SMDPad,CuDef*
G36*
X14848691Y13582947D02*
G01*
X14869926Y13579797D01*
X14890750Y13574581D01*
X14910962Y13567349D01*
X14930368Y13558170D01*
X14948781Y13547134D01*
X14966024Y13534346D01*
X14981930Y13519930D01*
X14996346Y13504024D01*
X15009134Y13486781D01*
X15020170Y13468368D01*
X15029349Y13448962D01*
X15036581Y13428750D01*
X15041797Y13407926D01*
X15044947Y13386691D01*
X15046000Y13365250D01*
X15046000Y12927750D01*
X15044947Y12906309D01*
X15041797Y12885074D01*
X15036581Y12864250D01*
X15029349Y12844038D01*
X15020170Y12824632D01*
X15009134Y12806219D01*
X14996346Y12788976D01*
X14981930Y12773070D01*
X14966024Y12758654D01*
X14948781Y12745866D01*
X14930368Y12734830D01*
X14910962Y12725651D01*
X14890750Y12718419D01*
X14869926Y12713203D01*
X14848691Y12710053D01*
X14827250Y12709000D01*
X14314750Y12709000D01*
X14293309Y12710053D01*
X14272074Y12713203D01*
X14251250Y12718419D01*
X14231038Y12725651D01*
X14211632Y12734830D01*
X14193219Y12745866D01*
X14175976Y12758654D01*
X14160070Y12773070D01*
X14145654Y12788976D01*
X14132866Y12806219D01*
X14121830Y12824632D01*
X14112651Y12844038D01*
X14105419Y12864250D01*
X14100203Y12885074D01*
X14097053Y12906309D01*
X14096000Y12927750D01*
X14096000Y13365250D01*
X14097053Y13386691D01*
X14100203Y13407926D01*
X14105419Y13428750D01*
X14112651Y13448962D01*
X14121830Y13468368D01*
X14132866Y13486781D01*
X14145654Y13504024D01*
X14160070Y13519930D01*
X14175976Y13534346D01*
X14193219Y13547134D01*
X14211632Y13558170D01*
X14231038Y13567349D01*
X14251250Y13574581D01*
X14272074Y13579797D01*
X14293309Y13582947D01*
X14314750Y13584000D01*
X14827250Y13584000D01*
X14848691Y13582947D01*
G37*
G04 #@! TD.AperFunction*
G04 #@! TA.AperFunction,SMDPad,CuDef*
G36*
X14848691Y16147947D02*
G01*
X14869926Y16144797D01*
X14890750Y16139581D01*
X14910962Y16132349D01*
X14930368Y16123170D01*
X14948781Y16112134D01*
X14966024Y16099346D01*
X14981930Y16084930D01*
X14996346Y16069024D01*
X15009134Y16051781D01*
X15020170Y16033368D01*
X15029349Y16013962D01*
X15036581Y15993750D01*
X15041797Y15972926D01*
X15044947Y15951691D01*
X15046000Y15930250D01*
X15046000Y15492750D01*
X15044947Y15471309D01*
X15041797Y15450074D01*
X15036581Y15429250D01*
X15029349Y15409038D01*
X15020170Y15389632D01*
X15009134Y15371219D01*
X14996346Y15353976D01*
X14981930Y15338070D01*
X14966024Y15323654D01*
X14948781Y15310866D01*
X14930368Y15299830D01*
X14910962Y15290651D01*
X14890750Y15283419D01*
X14869926Y15278203D01*
X14848691Y15275053D01*
X14827250Y15274000D01*
X14314750Y15274000D01*
X14293309Y15275053D01*
X14272074Y15278203D01*
X14251250Y15283419D01*
X14231038Y15290651D01*
X14211632Y15299830D01*
X14193219Y15310866D01*
X14175976Y15323654D01*
X14160070Y15338070D01*
X14145654Y15353976D01*
X14132866Y15371219D01*
X14121830Y15389632D01*
X14112651Y15409038D01*
X14105419Y15429250D01*
X14100203Y15450074D01*
X14097053Y15471309D01*
X14096000Y15492750D01*
X14096000Y15930250D01*
X14097053Y15951691D01*
X14100203Y15972926D01*
X14105419Y15993750D01*
X14112651Y16013962D01*
X14121830Y16033368D01*
X14132866Y16051781D01*
X14145654Y16069024D01*
X14160070Y16084930D01*
X14175976Y16099346D01*
X14193219Y16112134D01*
X14211632Y16123170D01*
X14231038Y16132349D01*
X14251250Y16139581D01*
X14272074Y16144797D01*
X14293309Y16147947D01*
X14314750Y16149000D01*
X14827250Y16149000D01*
X14848691Y16147947D01*
G37*
G04 #@! TD.AperFunction*
G04 #@! TA.AperFunction,SMDPad,CuDef*
G36*
X14848691Y17722947D02*
G01*
X14869926Y17719797D01*
X14890750Y17714581D01*
X14910962Y17707349D01*
X14930368Y17698170D01*
X14948781Y17687134D01*
X14966024Y17674346D01*
X14981930Y17659930D01*
X14996346Y17644024D01*
X15009134Y17626781D01*
X15020170Y17608368D01*
X15029349Y17588962D01*
X15036581Y17568750D01*
X15041797Y17547926D01*
X15044947Y17526691D01*
X15046000Y17505250D01*
X15046000Y17067750D01*
X15044947Y17046309D01*
X15041797Y17025074D01*
X15036581Y17004250D01*
X15029349Y16984038D01*
X15020170Y16964632D01*
X15009134Y16946219D01*
X14996346Y16928976D01*
X14981930Y16913070D01*
X14966024Y16898654D01*
X14948781Y16885866D01*
X14930368Y16874830D01*
X14910962Y16865651D01*
X14890750Y16858419D01*
X14869926Y16853203D01*
X14848691Y16850053D01*
X14827250Y16849000D01*
X14314750Y16849000D01*
X14293309Y16850053D01*
X14272074Y16853203D01*
X14251250Y16858419D01*
X14231038Y16865651D01*
X14211632Y16874830D01*
X14193219Y16885866D01*
X14175976Y16898654D01*
X14160070Y16913070D01*
X14145654Y16928976D01*
X14132866Y16946219D01*
X14121830Y16964632D01*
X14112651Y16984038D01*
X14105419Y17004250D01*
X14100203Y17025074D01*
X14097053Y17046309D01*
X14096000Y17067750D01*
X14096000Y17505250D01*
X14097053Y17526691D01*
X14100203Y17547926D01*
X14105419Y17568750D01*
X14112651Y17588962D01*
X14121830Y17608368D01*
X14132866Y17626781D01*
X14145654Y17644024D01*
X14160070Y17659930D01*
X14175976Y17674346D01*
X14193219Y17687134D01*
X14211632Y17698170D01*
X14231038Y17707349D01*
X14251250Y17714581D01*
X14272074Y17719797D01*
X14293309Y17722947D01*
X14314750Y17724000D01*
X14827250Y17724000D01*
X14848691Y17722947D01*
G37*
G04 #@! TD.AperFunction*
G04 #@! TA.AperFunction,SMDPad,CuDef*
G36*
X14848691Y36537947D02*
G01*
X14869926Y36534797D01*
X14890750Y36529581D01*
X14910962Y36522349D01*
X14930368Y36513170D01*
X14948781Y36502134D01*
X14966024Y36489346D01*
X14981930Y36474930D01*
X14996346Y36459024D01*
X15009134Y36441781D01*
X15020170Y36423368D01*
X15029349Y36403962D01*
X15036581Y36383750D01*
X15041797Y36362926D01*
X15044947Y36341691D01*
X15046000Y36320250D01*
X15046000Y35882750D01*
X15044947Y35861309D01*
X15041797Y35840074D01*
X15036581Y35819250D01*
X15029349Y35799038D01*
X15020170Y35779632D01*
X15009134Y35761219D01*
X14996346Y35743976D01*
X14981930Y35728070D01*
X14966024Y35713654D01*
X14948781Y35700866D01*
X14930368Y35689830D01*
X14910962Y35680651D01*
X14890750Y35673419D01*
X14869926Y35668203D01*
X14848691Y35665053D01*
X14827250Y35664000D01*
X14314750Y35664000D01*
X14293309Y35665053D01*
X14272074Y35668203D01*
X14251250Y35673419D01*
X14231038Y35680651D01*
X14211632Y35689830D01*
X14193219Y35700866D01*
X14175976Y35713654D01*
X14160070Y35728070D01*
X14145654Y35743976D01*
X14132866Y35761219D01*
X14121830Y35779632D01*
X14112651Y35799038D01*
X14105419Y35819250D01*
X14100203Y35840074D01*
X14097053Y35861309D01*
X14096000Y35882750D01*
X14096000Y36320250D01*
X14097053Y36341691D01*
X14100203Y36362926D01*
X14105419Y36383750D01*
X14112651Y36403962D01*
X14121830Y36423368D01*
X14132866Y36441781D01*
X14145654Y36459024D01*
X14160070Y36474930D01*
X14175976Y36489346D01*
X14193219Y36502134D01*
X14211632Y36513170D01*
X14231038Y36522349D01*
X14251250Y36529581D01*
X14272074Y36534797D01*
X14293309Y36537947D01*
X14314750Y36539000D01*
X14827250Y36539000D01*
X14848691Y36537947D01*
G37*
G04 #@! TD.AperFunction*
G04 #@! TA.AperFunction,SMDPad,CuDef*
G36*
X14848691Y38112947D02*
G01*
X14869926Y38109797D01*
X14890750Y38104581D01*
X14910962Y38097349D01*
X14930368Y38088170D01*
X14948781Y38077134D01*
X14966024Y38064346D01*
X14981930Y38049930D01*
X14996346Y38034024D01*
X15009134Y38016781D01*
X15020170Y37998368D01*
X15029349Y37978962D01*
X15036581Y37958750D01*
X15041797Y37937926D01*
X15044947Y37916691D01*
X15046000Y37895250D01*
X15046000Y37457750D01*
X15044947Y37436309D01*
X15041797Y37415074D01*
X15036581Y37394250D01*
X15029349Y37374038D01*
X15020170Y37354632D01*
X15009134Y37336219D01*
X14996346Y37318976D01*
X14981930Y37303070D01*
X14966024Y37288654D01*
X14948781Y37275866D01*
X14930368Y37264830D01*
X14910962Y37255651D01*
X14890750Y37248419D01*
X14869926Y37243203D01*
X14848691Y37240053D01*
X14827250Y37239000D01*
X14314750Y37239000D01*
X14293309Y37240053D01*
X14272074Y37243203D01*
X14251250Y37248419D01*
X14231038Y37255651D01*
X14211632Y37264830D01*
X14193219Y37275866D01*
X14175976Y37288654D01*
X14160070Y37303070D01*
X14145654Y37318976D01*
X14132866Y37336219D01*
X14121830Y37354632D01*
X14112651Y37374038D01*
X14105419Y37394250D01*
X14100203Y37415074D01*
X14097053Y37436309D01*
X14096000Y37457750D01*
X14096000Y37895250D01*
X14097053Y37916691D01*
X14100203Y37937926D01*
X14105419Y37958750D01*
X14112651Y37978962D01*
X14121830Y37998368D01*
X14132866Y38016781D01*
X14145654Y38034024D01*
X14160070Y38049930D01*
X14175976Y38064346D01*
X14193219Y38077134D01*
X14211632Y38088170D01*
X14231038Y38097349D01*
X14251250Y38104581D01*
X14272074Y38109797D01*
X14293309Y38112947D01*
X14314750Y38114000D01*
X14827250Y38114000D01*
X14848691Y38112947D01*
G37*
G04 #@! TD.AperFunction*
G04 #@! TA.AperFunction,SMDPad,CuDef*
G36*
X14848691Y40677947D02*
G01*
X14869926Y40674797D01*
X14890750Y40669581D01*
X14910962Y40662349D01*
X14930368Y40653170D01*
X14948781Y40642134D01*
X14966024Y40629346D01*
X14981930Y40614930D01*
X14996346Y40599024D01*
X15009134Y40581781D01*
X15020170Y40563368D01*
X15029349Y40543962D01*
X15036581Y40523750D01*
X15041797Y40502926D01*
X15044947Y40481691D01*
X15046000Y40460250D01*
X15046000Y40022750D01*
X15044947Y40001309D01*
X15041797Y39980074D01*
X15036581Y39959250D01*
X15029349Y39939038D01*
X15020170Y39919632D01*
X15009134Y39901219D01*
X14996346Y39883976D01*
X14981930Y39868070D01*
X14966024Y39853654D01*
X14948781Y39840866D01*
X14930368Y39829830D01*
X14910962Y39820651D01*
X14890750Y39813419D01*
X14869926Y39808203D01*
X14848691Y39805053D01*
X14827250Y39804000D01*
X14314750Y39804000D01*
X14293309Y39805053D01*
X14272074Y39808203D01*
X14251250Y39813419D01*
X14231038Y39820651D01*
X14211632Y39829830D01*
X14193219Y39840866D01*
X14175976Y39853654D01*
X14160070Y39868070D01*
X14145654Y39883976D01*
X14132866Y39901219D01*
X14121830Y39919632D01*
X14112651Y39939038D01*
X14105419Y39959250D01*
X14100203Y39980074D01*
X14097053Y40001309D01*
X14096000Y40022750D01*
X14096000Y40460250D01*
X14097053Y40481691D01*
X14100203Y40502926D01*
X14105419Y40523750D01*
X14112651Y40543962D01*
X14121830Y40563368D01*
X14132866Y40581781D01*
X14145654Y40599024D01*
X14160070Y40614930D01*
X14175976Y40629346D01*
X14193219Y40642134D01*
X14211632Y40653170D01*
X14231038Y40662349D01*
X14251250Y40669581D01*
X14272074Y40674797D01*
X14293309Y40677947D01*
X14314750Y40679000D01*
X14827250Y40679000D01*
X14848691Y40677947D01*
G37*
G04 #@! TD.AperFunction*
G04 #@! TA.AperFunction,SMDPad,CuDef*
G36*
X14848691Y42252947D02*
G01*
X14869926Y42249797D01*
X14890750Y42244581D01*
X14910962Y42237349D01*
X14930368Y42228170D01*
X14948781Y42217134D01*
X14966024Y42204346D01*
X14981930Y42189930D01*
X14996346Y42174024D01*
X15009134Y42156781D01*
X15020170Y42138368D01*
X15029349Y42118962D01*
X15036581Y42098750D01*
X15041797Y42077926D01*
X15044947Y42056691D01*
X15046000Y42035250D01*
X15046000Y41597750D01*
X15044947Y41576309D01*
X15041797Y41555074D01*
X15036581Y41534250D01*
X15029349Y41514038D01*
X15020170Y41494632D01*
X15009134Y41476219D01*
X14996346Y41458976D01*
X14981930Y41443070D01*
X14966024Y41428654D01*
X14948781Y41415866D01*
X14930368Y41404830D01*
X14910962Y41395651D01*
X14890750Y41388419D01*
X14869926Y41383203D01*
X14848691Y41380053D01*
X14827250Y41379000D01*
X14314750Y41379000D01*
X14293309Y41380053D01*
X14272074Y41383203D01*
X14251250Y41388419D01*
X14231038Y41395651D01*
X14211632Y41404830D01*
X14193219Y41415866D01*
X14175976Y41428654D01*
X14160070Y41443070D01*
X14145654Y41458976D01*
X14132866Y41476219D01*
X14121830Y41494632D01*
X14112651Y41514038D01*
X14105419Y41534250D01*
X14100203Y41555074D01*
X14097053Y41576309D01*
X14096000Y41597750D01*
X14096000Y42035250D01*
X14097053Y42056691D01*
X14100203Y42077926D01*
X14105419Y42098750D01*
X14112651Y42118962D01*
X14121830Y42138368D01*
X14132866Y42156781D01*
X14145654Y42174024D01*
X14160070Y42189930D01*
X14175976Y42204346D01*
X14193219Y42217134D01*
X14211632Y42228170D01*
X14231038Y42237349D01*
X14251250Y42244581D01*
X14272074Y42249797D01*
X14293309Y42252947D01*
X14314750Y42254000D01*
X14827250Y42254000D01*
X14848691Y42252947D01*
G37*
G04 #@! TD.AperFunction*
D17*
X17366000Y41872000D03*
X17366000Y39332000D03*
X17366000Y36792000D03*
D18*
X17366000Y34252000D03*
D19*
X10821000Y11504000D03*
X10821000Y12154000D03*
X10821000Y12804000D03*
X10821000Y13454000D03*
X10821000Y14104000D03*
X10821000Y14754000D03*
X10821000Y15404000D03*
X10821000Y16054000D03*
X10821000Y16704000D03*
X10821000Y17354000D03*
X4921000Y17354000D03*
X4921000Y16704000D03*
X4921000Y16054000D03*
X4921000Y15404000D03*
X4921000Y14754000D03*
X4921000Y14104000D03*
X4921000Y13454000D03*
X4921000Y12804000D03*
X4921000Y12154000D03*
X4921000Y11504000D03*
X10821000Y36034000D03*
X10821000Y36684000D03*
X10821000Y37334000D03*
X10821000Y37984000D03*
X10821000Y38634000D03*
X10821000Y39284000D03*
X10821000Y39934000D03*
X10821000Y40584000D03*
X10821000Y41234000D03*
X10821000Y41884000D03*
X4921000Y41884000D03*
X4921000Y41234000D03*
X4921000Y40584000D03*
X4921000Y39934000D03*
X4921000Y39284000D03*
X4921000Y38634000D03*
X4921000Y37984000D03*
X4921000Y37334000D03*
X4921000Y36684000D03*
X4921000Y36034000D03*
G04 #@! TA.AperFunction,SMDPad,CuDef*
D11*
G36*
X13148691Y12007947D02*
G01*
X13169926Y12004797D01*
X13190750Y11999581D01*
X13210962Y11992349D01*
X13230368Y11983170D01*
X13248781Y11972134D01*
X13266024Y11959346D01*
X13281930Y11944930D01*
X13296346Y11929024D01*
X13309134Y11911781D01*
X13320170Y11893368D01*
X13329349Y11873962D01*
X13336581Y11853750D01*
X13341797Y11832926D01*
X13344947Y11811691D01*
X13346000Y11790250D01*
X13346000Y11352750D01*
X13344947Y11331309D01*
X13341797Y11310074D01*
X13336581Y11289250D01*
X13329349Y11269038D01*
X13320170Y11249632D01*
X13309134Y11231219D01*
X13296346Y11213976D01*
X13281930Y11198070D01*
X13266024Y11183654D01*
X13248781Y11170866D01*
X13230368Y11159830D01*
X13210962Y11150651D01*
X13190750Y11143419D01*
X13169926Y11138203D01*
X13148691Y11135053D01*
X13127250Y11134000D01*
X12614750Y11134000D01*
X12593309Y11135053D01*
X12572074Y11138203D01*
X12551250Y11143419D01*
X12531038Y11150651D01*
X12511632Y11159830D01*
X12493219Y11170866D01*
X12475976Y11183654D01*
X12460070Y11198070D01*
X12445654Y11213976D01*
X12432866Y11231219D01*
X12421830Y11249632D01*
X12412651Y11269038D01*
X12405419Y11289250D01*
X12400203Y11310074D01*
X12397053Y11331309D01*
X12396000Y11352750D01*
X12396000Y11790250D01*
X12397053Y11811691D01*
X12400203Y11832926D01*
X12405419Y11853750D01*
X12412651Y11873962D01*
X12421830Y11893368D01*
X12432866Y11911781D01*
X12445654Y11929024D01*
X12460070Y11944930D01*
X12475976Y11959346D01*
X12493219Y11972134D01*
X12511632Y11983170D01*
X12531038Y11992349D01*
X12551250Y11999581D01*
X12572074Y12004797D01*
X12593309Y12007947D01*
X12614750Y12009000D01*
X13127250Y12009000D01*
X13148691Y12007947D01*
G37*
G04 #@! TD.AperFunction*
G04 #@! TA.AperFunction,SMDPad,CuDef*
G36*
X13148691Y13582947D02*
G01*
X13169926Y13579797D01*
X13190750Y13574581D01*
X13210962Y13567349D01*
X13230368Y13558170D01*
X13248781Y13547134D01*
X13266024Y13534346D01*
X13281930Y13519930D01*
X13296346Y13504024D01*
X13309134Y13486781D01*
X13320170Y13468368D01*
X13329349Y13448962D01*
X13336581Y13428750D01*
X13341797Y13407926D01*
X13344947Y13386691D01*
X13346000Y13365250D01*
X13346000Y12927750D01*
X13344947Y12906309D01*
X13341797Y12885074D01*
X13336581Y12864250D01*
X13329349Y12844038D01*
X13320170Y12824632D01*
X13309134Y12806219D01*
X13296346Y12788976D01*
X13281930Y12773070D01*
X13266024Y12758654D01*
X13248781Y12745866D01*
X13230368Y12734830D01*
X13210962Y12725651D01*
X13190750Y12718419D01*
X13169926Y12713203D01*
X13148691Y12710053D01*
X13127250Y12709000D01*
X12614750Y12709000D01*
X12593309Y12710053D01*
X12572074Y12713203D01*
X12551250Y12718419D01*
X12531038Y12725651D01*
X12511632Y12734830D01*
X12493219Y12745866D01*
X12475976Y12758654D01*
X12460070Y12773070D01*
X12445654Y12788976D01*
X12432866Y12806219D01*
X12421830Y12824632D01*
X12412651Y12844038D01*
X12405419Y12864250D01*
X12400203Y12885074D01*
X12397053Y12906309D01*
X12396000Y12927750D01*
X12396000Y13365250D01*
X12397053Y13386691D01*
X12400203Y13407926D01*
X12405419Y13428750D01*
X12412651Y13448962D01*
X12421830Y13468368D01*
X12432866Y13486781D01*
X12445654Y13504024D01*
X12460070Y13519930D01*
X12475976Y13534346D01*
X12493219Y13547134D01*
X12511632Y13558170D01*
X12531038Y13567349D01*
X12551250Y13574581D01*
X12572074Y13579797D01*
X12593309Y13582947D01*
X12614750Y13584000D01*
X13127250Y13584000D01*
X13148691Y13582947D01*
G37*
G04 #@! TD.AperFunction*
G04 #@! TA.AperFunction,SMDPad,CuDef*
G36*
X13148691Y17722947D02*
G01*
X13169926Y17719797D01*
X13190750Y17714581D01*
X13210962Y17707349D01*
X13230368Y17698170D01*
X13248781Y17687134D01*
X13266024Y17674346D01*
X13281930Y17659930D01*
X13296346Y17644024D01*
X13309134Y17626781D01*
X13320170Y17608368D01*
X13329349Y17588962D01*
X13336581Y17568750D01*
X13341797Y17547926D01*
X13344947Y17526691D01*
X13346000Y17505250D01*
X13346000Y17067750D01*
X13344947Y17046309D01*
X13341797Y17025074D01*
X13336581Y17004250D01*
X13329349Y16984038D01*
X13320170Y16964632D01*
X13309134Y16946219D01*
X13296346Y16928976D01*
X13281930Y16913070D01*
X13266024Y16898654D01*
X13248781Y16885866D01*
X13230368Y16874830D01*
X13210962Y16865651D01*
X13190750Y16858419D01*
X13169926Y16853203D01*
X13148691Y16850053D01*
X13127250Y16849000D01*
X12614750Y16849000D01*
X12593309Y16850053D01*
X12572074Y16853203D01*
X12551250Y16858419D01*
X12531038Y16865651D01*
X12511632Y16874830D01*
X12493219Y16885866D01*
X12475976Y16898654D01*
X12460070Y16913070D01*
X12445654Y16928976D01*
X12432866Y16946219D01*
X12421830Y16964632D01*
X12412651Y16984038D01*
X12405419Y17004250D01*
X12400203Y17025074D01*
X12397053Y17046309D01*
X12396000Y17067750D01*
X12396000Y17505250D01*
X12397053Y17526691D01*
X12400203Y17547926D01*
X12405419Y17568750D01*
X12412651Y17588962D01*
X12421830Y17608368D01*
X12432866Y17626781D01*
X12445654Y17644024D01*
X12460070Y17659930D01*
X12475976Y17674346D01*
X12493219Y17687134D01*
X12511632Y17698170D01*
X12531038Y17707349D01*
X12551250Y17714581D01*
X12572074Y17719797D01*
X12593309Y17722947D01*
X12614750Y17724000D01*
X13127250Y17724000D01*
X13148691Y17722947D01*
G37*
G04 #@! TD.AperFunction*
G04 #@! TA.AperFunction,SMDPad,CuDef*
G36*
X13148691Y16147947D02*
G01*
X13169926Y16144797D01*
X13190750Y16139581D01*
X13210962Y16132349D01*
X13230368Y16123170D01*
X13248781Y16112134D01*
X13266024Y16099346D01*
X13281930Y16084930D01*
X13296346Y16069024D01*
X13309134Y16051781D01*
X13320170Y16033368D01*
X13329349Y16013962D01*
X13336581Y15993750D01*
X13341797Y15972926D01*
X13344947Y15951691D01*
X13346000Y15930250D01*
X13346000Y15492750D01*
X13344947Y15471309D01*
X13341797Y15450074D01*
X13336581Y15429250D01*
X13329349Y15409038D01*
X13320170Y15389632D01*
X13309134Y15371219D01*
X13296346Y15353976D01*
X13281930Y15338070D01*
X13266024Y15323654D01*
X13248781Y15310866D01*
X13230368Y15299830D01*
X13210962Y15290651D01*
X13190750Y15283419D01*
X13169926Y15278203D01*
X13148691Y15275053D01*
X13127250Y15274000D01*
X12614750Y15274000D01*
X12593309Y15275053D01*
X12572074Y15278203D01*
X12551250Y15283419D01*
X12531038Y15290651D01*
X12511632Y15299830D01*
X12493219Y15310866D01*
X12475976Y15323654D01*
X12460070Y15338070D01*
X12445654Y15353976D01*
X12432866Y15371219D01*
X12421830Y15389632D01*
X12412651Y15409038D01*
X12405419Y15429250D01*
X12400203Y15450074D01*
X12397053Y15471309D01*
X12396000Y15492750D01*
X12396000Y15930250D01*
X12397053Y15951691D01*
X12400203Y15972926D01*
X12405419Y15993750D01*
X12412651Y16013962D01*
X12421830Y16033368D01*
X12432866Y16051781D01*
X12445654Y16069024D01*
X12460070Y16084930D01*
X12475976Y16099346D01*
X12493219Y16112134D01*
X12511632Y16123170D01*
X12531038Y16132349D01*
X12551250Y16139581D01*
X12572074Y16144797D01*
X12593309Y16147947D01*
X12614750Y16149000D01*
X13127250Y16149000D01*
X13148691Y16147947D01*
G37*
G04 #@! TD.AperFunction*
G04 #@! TA.AperFunction,SMDPad,CuDef*
G36*
X13148691Y36537947D02*
G01*
X13169926Y36534797D01*
X13190750Y36529581D01*
X13210962Y36522349D01*
X13230368Y36513170D01*
X13248781Y36502134D01*
X13266024Y36489346D01*
X13281930Y36474930D01*
X13296346Y36459024D01*
X13309134Y36441781D01*
X13320170Y36423368D01*
X13329349Y36403962D01*
X13336581Y36383750D01*
X13341797Y36362926D01*
X13344947Y36341691D01*
X13346000Y36320250D01*
X13346000Y35882750D01*
X13344947Y35861309D01*
X13341797Y35840074D01*
X13336581Y35819250D01*
X13329349Y35799038D01*
X13320170Y35779632D01*
X13309134Y35761219D01*
X13296346Y35743976D01*
X13281930Y35728070D01*
X13266024Y35713654D01*
X13248781Y35700866D01*
X13230368Y35689830D01*
X13210962Y35680651D01*
X13190750Y35673419D01*
X13169926Y35668203D01*
X13148691Y35665053D01*
X13127250Y35664000D01*
X12614750Y35664000D01*
X12593309Y35665053D01*
X12572074Y35668203D01*
X12551250Y35673419D01*
X12531038Y35680651D01*
X12511632Y35689830D01*
X12493219Y35700866D01*
X12475976Y35713654D01*
X12460070Y35728070D01*
X12445654Y35743976D01*
X12432866Y35761219D01*
X12421830Y35779632D01*
X12412651Y35799038D01*
X12405419Y35819250D01*
X12400203Y35840074D01*
X12397053Y35861309D01*
X12396000Y35882750D01*
X12396000Y36320250D01*
X12397053Y36341691D01*
X12400203Y36362926D01*
X12405419Y36383750D01*
X12412651Y36403962D01*
X12421830Y36423368D01*
X12432866Y36441781D01*
X12445654Y36459024D01*
X12460070Y36474930D01*
X12475976Y36489346D01*
X12493219Y36502134D01*
X12511632Y36513170D01*
X12531038Y36522349D01*
X12551250Y36529581D01*
X12572074Y36534797D01*
X12593309Y36537947D01*
X12614750Y36539000D01*
X13127250Y36539000D01*
X13148691Y36537947D01*
G37*
G04 #@! TD.AperFunction*
G04 #@! TA.AperFunction,SMDPad,CuDef*
G36*
X13148691Y38112947D02*
G01*
X13169926Y38109797D01*
X13190750Y38104581D01*
X13210962Y38097349D01*
X13230368Y38088170D01*
X13248781Y38077134D01*
X13266024Y38064346D01*
X13281930Y38049930D01*
X13296346Y38034024D01*
X13309134Y38016781D01*
X13320170Y37998368D01*
X13329349Y37978962D01*
X13336581Y37958750D01*
X13341797Y37937926D01*
X13344947Y37916691D01*
X13346000Y37895250D01*
X13346000Y37457750D01*
X13344947Y37436309D01*
X13341797Y37415074D01*
X13336581Y37394250D01*
X13329349Y37374038D01*
X13320170Y37354632D01*
X13309134Y37336219D01*
X13296346Y37318976D01*
X13281930Y37303070D01*
X13266024Y37288654D01*
X13248781Y37275866D01*
X13230368Y37264830D01*
X13210962Y37255651D01*
X13190750Y37248419D01*
X13169926Y37243203D01*
X13148691Y37240053D01*
X13127250Y37239000D01*
X12614750Y37239000D01*
X12593309Y37240053D01*
X12572074Y37243203D01*
X12551250Y37248419D01*
X12531038Y37255651D01*
X12511632Y37264830D01*
X12493219Y37275866D01*
X12475976Y37288654D01*
X12460070Y37303070D01*
X12445654Y37318976D01*
X12432866Y37336219D01*
X12421830Y37354632D01*
X12412651Y37374038D01*
X12405419Y37394250D01*
X12400203Y37415074D01*
X12397053Y37436309D01*
X12396000Y37457750D01*
X12396000Y37895250D01*
X12397053Y37916691D01*
X12400203Y37937926D01*
X12405419Y37958750D01*
X12412651Y37978962D01*
X12421830Y37998368D01*
X12432866Y38016781D01*
X12445654Y38034024D01*
X12460070Y38049930D01*
X12475976Y38064346D01*
X12493219Y38077134D01*
X12511632Y38088170D01*
X12531038Y38097349D01*
X12551250Y38104581D01*
X12572074Y38109797D01*
X12593309Y38112947D01*
X12614750Y38114000D01*
X13127250Y38114000D01*
X13148691Y38112947D01*
G37*
G04 #@! TD.AperFunction*
G04 #@! TA.AperFunction,SMDPad,CuDef*
G36*
X13148691Y42252947D02*
G01*
X13169926Y42249797D01*
X13190750Y42244581D01*
X13210962Y42237349D01*
X13230368Y42228170D01*
X13248781Y42217134D01*
X13266024Y42204346D01*
X13281930Y42189930D01*
X13296346Y42174024D01*
X13309134Y42156781D01*
X13320170Y42138368D01*
X13329349Y42118962D01*
X13336581Y42098750D01*
X13341797Y42077926D01*
X13344947Y42056691D01*
X13346000Y42035250D01*
X13346000Y41597750D01*
X13344947Y41576309D01*
X13341797Y41555074D01*
X13336581Y41534250D01*
X13329349Y41514038D01*
X13320170Y41494632D01*
X13309134Y41476219D01*
X13296346Y41458976D01*
X13281930Y41443070D01*
X13266024Y41428654D01*
X13248781Y41415866D01*
X13230368Y41404830D01*
X13210962Y41395651D01*
X13190750Y41388419D01*
X13169926Y41383203D01*
X13148691Y41380053D01*
X13127250Y41379000D01*
X12614750Y41379000D01*
X12593309Y41380053D01*
X12572074Y41383203D01*
X12551250Y41388419D01*
X12531038Y41395651D01*
X12511632Y41404830D01*
X12493219Y41415866D01*
X12475976Y41428654D01*
X12460070Y41443070D01*
X12445654Y41458976D01*
X12432866Y41476219D01*
X12421830Y41494632D01*
X12412651Y41514038D01*
X12405419Y41534250D01*
X12400203Y41555074D01*
X12397053Y41576309D01*
X12396000Y41597750D01*
X12396000Y42035250D01*
X12397053Y42056691D01*
X12400203Y42077926D01*
X12405419Y42098750D01*
X12412651Y42118962D01*
X12421830Y42138368D01*
X12432866Y42156781D01*
X12445654Y42174024D01*
X12460070Y42189930D01*
X12475976Y42204346D01*
X12493219Y42217134D01*
X12511632Y42228170D01*
X12531038Y42237349D01*
X12551250Y42244581D01*
X12572074Y42249797D01*
X12593309Y42252947D01*
X12614750Y42254000D01*
X13127250Y42254000D01*
X13148691Y42252947D01*
G37*
G04 #@! TD.AperFunction*
G04 #@! TA.AperFunction,SMDPad,CuDef*
G36*
X13148691Y40677947D02*
G01*
X13169926Y40674797D01*
X13190750Y40669581D01*
X13210962Y40662349D01*
X13230368Y40653170D01*
X13248781Y40642134D01*
X13266024Y40629346D01*
X13281930Y40614930D01*
X13296346Y40599024D01*
X13309134Y40581781D01*
X13320170Y40563368D01*
X13329349Y40543962D01*
X13336581Y40523750D01*
X13341797Y40502926D01*
X13344947Y40481691D01*
X13346000Y40460250D01*
X13346000Y40022750D01*
X13344947Y40001309D01*
X13341797Y39980074D01*
X13336581Y39959250D01*
X13329349Y39939038D01*
X13320170Y39919632D01*
X13309134Y39901219D01*
X13296346Y39883976D01*
X13281930Y39868070D01*
X13266024Y39853654D01*
X13248781Y39840866D01*
X13230368Y39829830D01*
X13210962Y39820651D01*
X13190750Y39813419D01*
X13169926Y39808203D01*
X13148691Y39805053D01*
X13127250Y39804000D01*
X12614750Y39804000D01*
X12593309Y39805053D01*
X12572074Y39808203D01*
X12551250Y39813419D01*
X12531038Y39820651D01*
X12511632Y39829830D01*
X12493219Y39840866D01*
X12475976Y39853654D01*
X12460070Y39868070D01*
X12445654Y39883976D01*
X12432866Y39901219D01*
X12421830Y39919632D01*
X12412651Y39939038D01*
X12405419Y39959250D01*
X12400203Y39980074D01*
X12397053Y40001309D01*
X12396000Y40022750D01*
X12396000Y40460250D01*
X12397053Y40481691D01*
X12400203Y40502926D01*
X12405419Y40523750D01*
X12412651Y40543962D01*
X12421830Y40563368D01*
X12432866Y40581781D01*
X12445654Y40599024D01*
X12460070Y40614930D01*
X12475976Y40629346D01*
X12493219Y40642134D01*
X12511632Y40653170D01*
X12531038Y40662349D01*
X12551250Y40669581D01*
X12572074Y40674797D01*
X12593309Y40677947D01*
X12614750Y40679000D01*
X13127250Y40679000D01*
X13148691Y40677947D01*
G37*
G04 #@! TD.AperFunction*
D17*
X17366000Y19012000D03*
X17366000Y16472000D03*
X17366000Y13932000D03*
D18*
X17366000Y11392000D03*
D20*
X16900000Y28510000D03*
D21*
X10600000Y28510000D03*
X10600000Y26210000D03*
X10600000Y30810000D03*
G04 #@! TA.AperFunction,SMDPad,CuDef*
D11*
G36*
X3038691Y17390947D02*
G01*
X3059926Y17387797D01*
X3080750Y17382581D01*
X3100962Y17375349D01*
X3120368Y17366170D01*
X3138781Y17355134D01*
X3156024Y17342346D01*
X3171930Y17327930D01*
X3186346Y17312024D01*
X3199134Y17294781D01*
X3210170Y17276368D01*
X3219349Y17256962D01*
X3226581Y17236750D01*
X3231797Y17215926D01*
X3234947Y17194691D01*
X3236000Y17173250D01*
X3236000Y16735750D01*
X3234947Y16714309D01*
X3231797Y16693074D01*
X3226581Y16672250D01*
X3219349Y16652038D01*
X3210170Y16632632D01*
X3199134Y16614219D01*
X3186346Y16596976D01*
X3171930Y16581070D01*
X3156024Y16566654D01*
X3138781Y16553866D01*
X3120368Y16542830D01*
X3100962Y16533651D01*
X3080750Y16526419D01*
X3059926Y16521203D01*
X3038691Y16518053D01*
X3017250Y16517000D01*
X2504750Y16517000D01*
X2483309Y16518053D01*
X2462074Y16521203D01*
X2441250Y16526419D01*
X2421038Y16533651D01*
X2401632Y16542830D01*
X2383219Y16553866D01*
X2365976Y16566654D01*
X2350070Y16581070D01*
X2335654Y16596976D01*
X2322866Y16614219D01*
X2311830Y16632632D01*
X2302651Y16652038D01*
X2295419Y16672250D01*
X2290203Y16693074D01*
X2287053Y16714309D01*
X2286000Y16735750D01*
X2286000Y17173250D01*
X2287053Y17194691D01*
X2290203Y17215926D01*
X2295419Y17236750D01*
X2302651Y17256962D01*
X2311830Y17276368D01*
X2322866Y17294781D01*
X2335654Y17312024D01*
X2350070Y17327930D01*
X2365976Y17342346D01*
X2383219Y17355134D01*
X2401632Y17366170D01*
X2421038Y17375349D01*
X2441250Y17382581D01*
X2462074Y17387797D01*
X2483309Y17390947D01*
X2504750Y17392000D01*
X3017250Y17392000D01*
X3038691Y17390947D01*
G37*
G04 #@! TD.AperFunction*
G04 #@! TA.AperFunction,SMDPad,CuDef*
G36*
X3038691Y18965947D02*
G01*
X3059926Y18962797D01*
X3080750Y18957581D01*
X3100962Y18950349D01*
X3120368Y18941170D01*
X3138781Y18930134D01*
X3156024Y18917346D01*
X3171930Y18902930D01*
X3186346Y18887024D01*
X3199134Y18869781D01*
X3210170Y18851368D01*
X3219349Y18831962D01*
X3226581Y18811750D01*
X3231797Y18790926D01*
X3234947Y18769691D01*
X3236000Y18748250D01*
X3236000Y18310750D01*
X3234947Y18289309D01*
X3231797Y18268074D01*
X3226581Y18247250D01*
X3219349Y18227038D01*
X3210170Y18207632D01*
X3199134Y18189219D01*
X3186346Y18171976D01*
X3171930Y18156070D01*
X3156024Y18141654D01*
X3138781Y18128866D01*
X3120368Y18117830D01*
X3100962Y18108651D01*
X3080750Y18101419D01*
X3059926Y18096203D01*
X3038691Y18093053D01*
X3017250Y18092000D01*
X2504750Y18092000D01*
X2483309Y18093053D01*
X2462074Y18096203D01*
X2441250Y18101419D01*
X2421038Y18108651D01*
X2401632Y18117830D01*
X2383219Y18128866D01*
X2365976Y18141654D01*
X2350070Y18156070D01*
X2335654Y18171976D01*
X2322866Y18189219D01*
X2311830Y18207632D01*
X2302651Y18227038D01*
X2295419Y18247250D01*
X2290203Y18268074D01*
X2287053Y18289309D01*
X2286000Y18310750D01*
X2286000Y18748250D01*
X2287053Y18769691D01*
X2290203Y18790926D01*
X2295419Y18811750D01*
X2302651Y18831962D01*
X2311830Y18851368D01*
X2322866Y18869781D01*
X2335654Y18887024D01*
X2350070Y18902930D01*
X2365976Y18917346D01*
X2383219Y18930134D01*
X2401632Y18941170D01*
X2421038Y18950349D01*
X2441250Y18957581D01*
X2462074Y18962797D01*
X2483309Y18965947D01*
X2504750Y18967000D01*
X3017250Y18967000D01*
X3038691Y18965947D01*
G37*
G04 #@! TD.AperFunction*
G04 #@! TA.AperFunction,SMDPad,CuDef*
G36*
X3038691Y37202947D02*
G01*
X3059926Y37199797D01*
X3080750Y37194581D01*
X3100962Y37187349D01*
X3120368Y37178170D01*
X3138781Y37167134D01*
X3156024Y37154346D01*
X3171930Y37139930D01*
X3186346Y37124024D01*
X3199134Y37106781D01*
X3210170Y37088368D01*
X3219349Y37068962D01*
X3226581Y37048750D01*
X3231797Y37027926D01*
X3234947Y37006691D01*
X3236000Y36985250D01*
X3236000Y36547750D01*
X3234947Y36526309D01*
X3231797Y36505074D01*
X3226581Y36484250D01*
X3219349Y36464038D01*
X3210170Y36444632D01*
X3199134Y36426219D01*
X3186346Y36408976D01*
X3171930Y36393070D01*
X3156024Y36378654D01*
X3138781Y36365866D01*
X3120368Y36354830D01*
X3100962Y36345651D01*
X3080750Y36338419D01*
X3059926Y36333203D01*
X3038691Y36330053D01*
X3017250Y36329000D01*
X2504750Y36329000D01*
X2483309Y36330053D01*
X2462074Y36333203D01*
X2441250Y36338419D01*
X2421038Y36345651D01*
X2401632Y36354830D01*
X2383219Y36365866D01*
X2365976Y36378654D01*
X2350070Y36393070D01*
X2335654Y36408976D01*
X2322866Y36426219D01*
X2311830Y36444632D01*
X2302651Y36464038D01*
X2295419Y36484250D01*
X2290203Y36505074D01*
X2287053Y36526309D01*
X2286000Y36547750D01*
X2286000Y36985250D01*
X2287053Y37006691D01*
X2290203Y37027926D01*
X2295419Y37048750D01*
X2302651Y37068962D01*
X2311830Y37088368D01*
X2322866Y37106781D01*
X2335654Y37124024D01*
X2350070Y37139930D01*
X2365976Y37154346D01*
X2383219Y37167134D01*
X2401632Y37178170D01*
X2421038Y37187349D01*
X2441250Y37194581D01*
X2462074Y37199797D01*
X2483309Y37202947D01*
X2504750Y37204000D01*
X3017250Y37204000D01*
X3038691Y37202947D01*
G37*
G04 #@! TD.AperFunction*
G04 #@! TA.AperFunction,SMDPad,CuDef*
G36*
X3038691Y38777947D02*
G01*
X3059926Y38774797D01*
X3080750Y38769581D01*
X3100962Y38762349D01*
X3120368Y38753170D01*
X3138781Y38742134D01*
X3156024Y38729346D01*
X3171930Y38714930D01*
X3186346Y38699024D01*
X3199134Y38681781D01*
X3210170Y38663368D01*
X3219349Y38643962D01*
X3226581Y38623750D01*
X3231797Y38602926D01*
X3234947Y38581691D01*
X3236000Y38560250D01*
X3236000Y38122750D01*
X3234947Y38101309D01*
X3231797Y38080074D01*
X3226581Y38059250D01*
X3219349Y38039038D01*
X3210170Y38019632D01*
X3199134Y38001219D01*
X3186346Y37983976D01*
X3171930Y37968070D01*
X3156024Y37953654D01*
X3138781Y37940866D01*
X3120368Y37929830D01*
X3100962Y37920651D01*
X3080750Y37913419D01*
X3059926Y37908203D01*
X3038691Y37905053D01*
X3017250Y37904000D01*
X2504750Y37904000D01*
X2483309Y37905053D01*
X2462074Y37908203D01*
X2441250Y37913419D01*
X2421038Y37920651D01*
X2401632Y37929830D01*
X2383219Y37940866D01*
X2365976Y37953654D01*
X2350070Y37968070D01*
X2335654Y37983976D01*
X2322866Y38001219D01*
X2311830Y38019632D01*
X2302651Y38039038D01*
X2295419Y38059250D01*
X2290203Y38080074D01*
X2287053Y38101309D01*
X2286000Y38122750D01*
X2286000Y38560250D01*
X2287053Y38581691D01*
X2290203Y38602926D01*
X2295419Y38623750D01*
X2302651Y38643962D01*
X2311830Y38663368D01*
X2322866Y38681781D01*
X2335654Y38699024D01*
X2350070Y38714930D01*
X2365976Y38729346D01*
X2383219Y38742134D01*
X2401632Y38753170D01*
X2421038Y38762349D01*
X2441250Y38769581D01*
X2462074Y38774797D01*
X2483309Y38777947D01*
X2504750Y38779000D01*
X3017250Y38779000D01*
X3038691Y38777947D01*
G37*
G04 #@! TD.AperFunction*
G04 #@! TA.AperFunction,SMDPad,CuDef*
G36*
X7473203Y31859278D02*
G01*
X7487764Y31857118D01*
X7502043Y31853541D01*
X7515903Y31848582D01*
X7529210Y31842288D01*
X7541836Y31834720D01*
X7553659Y31825952D01*
X7564566Y31816066D01*
X7574452Y31805159D01*
X7583220Y31793336D01*
X7590788Y31780710D01*
X7597082Y31767403D01*
X7602041Y31753543D01*
X7605618Y31739264D01*
X7607778Y31724703D01*
X7608500Y31710000D01*
X7608500Y30360000D01*
X7607778Y30345297D01*
X7605618Y30330736D01*
X7602041Y30316457D01*
X7597082Y30302597D01*
X7590788Y30289290D01*
X7583220Y30276664D01*
X7574452Y30264841D01*
X7564566Y30253934D01*
X7553659Y30244048D01*
X7541836Y30235280D01*
X7529210Y30227712D01*
X7515903Y30221418D01*
X7502043Y30216459D01*
X7487764Y30212882D01*
X7473203Y30210722D01*
X7458500Y30210000D01*
X7158500Y30210000D01*
X7143797Y30210722D01*
X7129236Y30212882D01*
X7114957Y30216459D01*
X7101097Y30221418D01*
X7087790Y30227712D01*
X7075164Y30235280D01*
X7063341Y30244048D01*
X7052434Y30253934D01*
X7042548Y30264841D01*
X7033780Y30276664D01*
X7026212Y30289290D01*
X7019918Y30302597D01*
X7014959Y30316457D01*
X7011382Y30330736D01*
X7009222Y30345297D01*
X7008500Y30360000D01*
X7008500Y31710000D01*
X7009222Y31724703D01*
X7011382Y31739264D01*
X7014959Y31753543D01*
X7019918Y31767403D01*
X7026212Y31780710D01*
X7033780Y31793336D01*
X7042548Y31805159D01*
X7052434Y31816066D01*
X7063341Y31825952D01*
X7075164Y31834720D01*
X7087790Y31842288D01*
X7101097Y31848582D01*
X7114957Y31853541D01*
X7129236Y31857118D01*
X7143797Y31859278D01*
X7158500Y31860000D01*
X7458500Y31860000D01*
X7473203Y31859278D01*
G37*
G04 #@! TD.AperFunction*
G04 #@! TA.AperFunction,SMDPad,CuDef*
G36*
X6203203Y31859278D02*
G01*
X6217764Y31857118D01*
X6232043Y31853541D01*
X6245903Y31848582D01*
X6259210Y31842288D01*
X6271836Y31834720D01*
X6283659Y31825952D01*
X6294566Y31816066D01*
X6304452Y31805159D01*
X6313220Y31793336D01*
X6320788Y31780710D01*
X6327082Y31767403D01*
X6332041Y31753543D01*
X6335618Y31739264D01*
X6337778Y31724703D01*
X6338500Y31710000D01*
X6338500Y30360000D01*
X6337778Y30345297D01*
X6335618Y30330736D01*
X6332041Y30316457D01*
X6327082Y30302597D01*
X6320788Y30289290D01*
X6313220Y30276664D01*
X6304452Y30264841D01*
X6294566Y30253934D01*
X6283659Y30244048D01*
X6271836Y30235280D01*
X6259210Y30227712D01*
X6245903Y30221418D01*
X6232043Y30216459D01*
X6217764Y30212882D01*
X6203203Y30210722D01*
X6188500Y30210000D01*
X5888500Y30210000D01*
X5873797Y30210722D01*
X5859236Y30212882D01*
X5844957Y30216459D01*
X5831097Y30221418D01*
X5817790Y30227712D01*
X5805164Y30235280D01*
X5793341Y30244048D01*
X5782434Y30253934D01*
X5772548Y30264841D01*
X5763780Y30276664D01*
X5756212Y30289290D01*
X5749918Y30302597D01*
X5744959Y30316457D01*
X5741382Y30330736D01*
X5739222Y30345297D01*
X5738500Y30360000D01*
X5738500Y31710000D01*
X5739222Y31724703D01*
X5741382Y31739264D01*
X5744959Y31753543D01*
X5749918Y31767403D01*
X5756212Y31780710D01*
X5763780Y31793336D01*
X5772548Y31805159D01*
X5782434Y31816066D01*
X5793341Y31825952D01*
X5805164Y31834720D01*
X5817790Y31842288D01*
X5831097Y31848582D01*
X5844957Y31853541D01*
X5859236Y31857118D01*
X5873797Y31859278D01*
X5888500Y31860000D01*
X6188500Y31860000D01*
X6203203Y31859278D01*
G37*
G04 #@! TD.AperFunction*
G04 #@! TA.AperFunction,SMDPad,CuDef*
G36*
X4933203Y31859278D02*
G01*
X4947764Y31857118D01*
X4962043Y31853541D01*
X4975903Y31848582D01*
X4989210Y31842288D01*
X5001836Y31834720D01*
X5013659Y31825952D01*
X5024566Y31816066D01*
X5034452Y31805159D01*
X5043220Y31793336D01*
X5050788Y31780710D01*
X5057082Y31767403D01*
X5062041Y31753543D01*
X5065618Y31739264D01*
X5067778Y31724703D01*
X5068500Y31710000D01*
X5068500Y30360000D01*
X5067778Y30345297D01*
X5065618Y30330736D01*
X5062041Y30316457D01*
X5057082Y30302597D01*
X5050788Y30289290D01*
X5043220Y30276664D01*
X5034452Y30264841D01*
X5024566Y30253934D01*
X5013659Y30244048D01*
X5001836Y30235280D01*
X4989210Y30227712D01*
X4975903Y30221418D01*
X4962043Y30216459D01*
X4947764Y30212882D01*
X4933203Y30210722D01*
X4918500Y30210000D01*
X4618500Y30210000D01*
X4603797Y30210722D01*
X4589236Y30212882D01*
X4574957Y30216459D01*
X4561097Y30221418D01*
X4547790Y30227712D01*
X4535164Y30235280D01*
X4523341Y30244048D01*
X4512434Y30253934D01*
X4502548Y30264841D01*
X4493780Y30276664D01*
X4486212Y30289290D01*
X4479918Y30302597D01*
X4474959Y30316457D01*
X4471382Y30330736D01*
X4469222Y30345297D01*
X4468500Y30360000D01*
X4468500Y31710000D01*
X4469222Y31724703D01*
X4471382Y31739264D01*
X4474959Y31753543D01*
X4479918Y31767403D01*
X4486212Y31780710D01*
X4493780Y31793336D01*
X4502548Y31805159D01*
X4512434Y31816066D01*
X4523341Y31825952D01*
X4535164Y31834720D01*
X4547790Y31842288D01*
X4561097Y31848582D01*
X4574957Y31853541D01*
X4589236Y31857118D01*
X4603797Y31859278D01*
X4618500Y31860000D01*
X4918500Y31860000D01*
X4933203Y31859278D01*
G37*
G04 #@! TD.AperFunction*
G04 #@! TA.AperFunction,SMDPad,CuDef*
G36*
X3663203Y31859278D02*
G01*
X3677764Y31857118D01*
X3692043Y31853541D01*
X3705903Y31848582D01*
X3719210Y31842288D01*
X3731836Y31834720D01*
X3743659Y31825952D01*
X3754566Y31816066D01*
X3764452Y31805159D01*
X3773220Y31793336D01*
X3780788Y31780710D01*
X3787082Y31767403D01*
X3792041Y31753543D01*
X3795618Y31739264D01*
X3797778Y31724703D01*
X3798500Y31710000D01*
X3798500Y30360000D01*
X3797778Y30345297D01*
X3795618Y30330736D01*
X3792041Y30316457D01*
X3787082Y30302597D01*
X3780788Y30289290D01*
X3773220Y30276664D01*
X3764452Y30264841D01*
X3754566Y30253934D01*
X3743659Y30244048D01*
X3731836Y30235280D01*
X3719210Y30227712D01*
X3705903Y30221418D01*
X3692043Y30216459D01*
X3677764Y30212882D01*
X3663203Y30210722D01*
X3648500Y30210000D01*
X3348500Y30210000D01*
X3333797Y30210722D01*
X3319236Y30212882D01*
X3304957Y30216459D01*
X3291097Y30221418D01*
X3277790Y30227712D01*
X3265164Y30235280D01*
X3253341Y30244048D01*
X3242434Y30253934D01*
X3232548Y30264841D01*
X3223780Y30276664D01*
X3216212Y30289290D01*
X3209918Y30302597D01*
X3204959Y30316457D01*
X3201382Y30330736D01*
X3199222Y30345297D01*
X3198500Y30360000D01*
X3198500Y31710000D01*
X3199222Y31724703D01*
X3201382Y31739264D01*
X3204959Y31753543D01*
X3209918Y31767403D01*
X3216212Y31780710D01*
X3223780Y31793336D01*
X3232548Y31805159D01*
X3242434Y31816066D01*
X3253341Y31825952D01*
X3265164Y31834720D01*
X3277790Y31842288D01*
X3291097Y31848582D01*
X3304957Y31853541D01*
X3319236Y31857118D01*
X3333797Y31859278D01*
X3348500Y31860000D01*
X3648500Y31860000D01*
X3663203Y31859278D01*
G37*
G04 #@! TD.AperFunction*
G04 #@! TA.AperFunction,SMDPad,CuDef*
G36*
X3663203Y26609278D02*
G01*
X3677764Y26607118D01*
X3692043Y26603541D01*
X3705903Y26598582D01*
X3719210Y26592288D01*
X3731836Y26584720D01*
X3743659Y26575952D01*
X3754566Y26566066D01*
X3764452Y26555159D01*
X3773220Y26543336D01*
X3780788Y26530710D01*
X3787082Y26517403D01*
X3792041Y26503543D01*
X3795618Y26489264D01*
X3797778Y26474703D01*
X3798500Y26460000D01*
X3798500Y25110000D01*
X3797778Y25095297D01*
X3795618Y25080736D01*
X3792041Y25066457D01*
X3787082Y25052597D01*
X3780788Y25039290D01*
X3773220Y25026664D01*
X3764452Y25014841D01*
X3754566Y25003934D01*
X3743659Y24994048D01*
X3731836Y24985280D01*
X3719210Y24977712D01*
X3705903Y24971418D01*
X3692043Y24966459D01*
X3677764Y24962882D01*
X3663203Y24960722D01*
X3648500Y24960000D01*
X3348500Y24960000D01*
X3333797Y24960722D01*
X3319236Y24962882D01*
X3304957Y24966459D01*
X3291097Y24971418D01*
X3277790Y24977712D01*
X3265164Y24985280D01*
X3253341Y24994048D01*
X3242434Y25003934D01*
X3232548Y25014841D01*
X3223780Y25026664D01*
X3216212Y25039290D01*
X3209918Y25052597D01*
X3204959Y25066457D01*
X3201382Y25080736D01*
X3199222Y25095297D01*
X3198500Y25110000D01*
X3198500Y26460000D01*
X3199222Y26474703D01*
X3201382Y26489264D01*
X3204959Y26503543D01*
X3209918Y26517403D01*
X3216212Y26530710D01*
X3223780Y26543336D01*
X3232548Y26555159D01*
X3242434Y26566066D01*
X3253341Y26575952D01*
X3265164Y26584720D01*
X3277790Y26592288D01*
X3291097Y26598582D01*
X3304957Y26603541D01*
X3319236Y26607118D01*
X3333797Y26609278D01*
X3348500Y26610000D01*
X3648500Y26610000D01*
X3663203Y26609278D01*
G37*
G04 #@! TD.AperFunction*
G04 #@! TA.AperFunction,SMDPad,CuDef*
G36*
X4933203Y26609278D02*
G01*
X4947764Y26607118D01*
X4962043Y26603541D01*
X4975903Y26598582D01*
X4989210Y26592288D01*
X5001836Y26584720D01*
X5013659Y26575952D01*
X5024566Y26566066D01*
X5034452Y26555159D01*
X5043220Y26543336D01*
X5050788Y26530710D01*
X5057082Y26517403D01*
X5062041Y26503543D01*
X5065618Y26489264D01*
X5067778Y26474703D01*
X5068500Y26460000D01*
X5068500Y25110000D01*
X5067778Y25095297D01*
X5065618Y25080736D01*
X5062041Y25066457D01*
X5057082Y25052597D01*
X5050788Y25039290D01*
X5043220Y25026664D01*
X5034452Y25014841D01*
X5024566Y25003934D01*
X5013659Y24994048D01*
X5001836Y24985280D01*
X4989210Y24977712D01*
X4975903Y24971418D01*
X4962043Y24966459D01*
X4947764Y24962882D01*
X4933203Y24960722D01*
X4918500Y24960000D01*
X4618500Y24960000D01*
X4603797Y24960722D01*
X4589236Y24962882D01*
X4574957Y24966459D01*
X4561097Y24971418D01*
X4547790Y24977712D01*
X4535164Y24985280D01*
X4523341Y24994048D01*
X4512434Y25003934D01*
X4502548Y25014841D01*
X4493780Y25026664D01*
X4486212Y25039290D01*
X4479918Y25052597D01*
X4474959Y25066457D01*
X4471382Y25080736D01*
X4469222Y25095297D01*
X4468500Y25110000D01*
X4468500Y26460000D01*
X4469222Y26474703D01*
X4471382Y26489264D01*
X4474959Y26503543D01*
X4479918Y26517403D01*
X4486212Y26530710D01*
X4493780Y26543336D01*
X4502548Y26555159D01*
X4512434Y26566066D01*
X4523341Y26575952D01*
X4535164Y26584720D01*
X4547790Y26592288D01*
X4561097Y26598582D01*
X4574957Y26603541D01*
X4589236Y26607118D01*
X4603797Y26609278D01*
X4618500Y26610000D01*
X4918500Y26610000D01*
X4933203Y26609278D01*
G37*
G04 #@! TD.AperFunction*
G04 #@! TA.AperFunction,SMDPad,CuDef*
G36*
X6203203Y26609278D02*
G01*
X6217764Y26607118D01*
X6232043Y26603541D01*
X6245903Y26598582D01*
X6259210Y26592288D01*
X6271836Y26584720D01*
X6283659Y26575952D01*
X6294566Y26566066D01*
X6304452Y26555159D01*
X6313220Y26543336D01*
X6320788Y26530710D01*
X6327082Y26517403D01*
X6332041Y26503543D01*
X6335618Y26489264D01*
X6337778Y26474703D01*
X6338500Y26460000D01*
X6338500Y25110000D01*
X6337778Y25095297D01*
X6335618Y25080736D01*
X6332041Y25066457D01*
X6327082Y25052597D01*
X6320788Y25039290D01*
X6313220Y25026664D01*
X6304452Y25014841D01*
X6294566Y25003934D01*
X6283659Y24994048D01*
X6271836Y24985280D01*
X6259210Y24977712D01*
X6245903Y24971418D01*
X6232043Y24966459D01*
X6217764Y24962882D01*
X6203203Y24960722D01*
X6188500Y24960000D01*
X5888500Y24960000D01*
X5873797Y24960722D01*
X5859236Y24962882D01*
X5844957Y24966459D01*
X5831097Y24971418D01*
X5817790Y24977712D01*
X5805164Y24985280D01*
X5793341Y24994048D01*
X5782434Y25003934D01*
X5772548Y25014841D01*
X5763780Y25026664D01*
X5756212Y25039290D01*
X5749918Y25052597D01*
X5744959Y25066457D01*
X5741382Y25080736D01*
X5739222Y25095297D01*
X5738500Y25110000D01*
X5738500Y26460000D01*
X5739222Y26474703D01*
X5741382Y26489264D01*
X5744959Y26503543D01*
X5749918Y26517403D01*
X5756212Y26530710D01*
X5763780Y26543336D01*
X5772548Y26555159D01*
X5782434Y26566066D01*
X5793341Y26575952D01*
X5805164Y26584720D01*
X5817790Y26592288D01*
X5831097Y26598582D01*
X5844957Y26603541D01*
X5859236Y26607118D01*
X5873797Y26609278D01*
X5888500Y26610000D01*
X6188500Y26610000D01*
X6203203Y26609278D01*
G37*
G04 #@! TD.AperFunction*
G04 #@! TA.AperFunction,SMDPad,CuDef*
G36*
X7473203Y26609278D02*
G01*
X7487764Y26607118D01*
X7502043Y26603541D01*
X7515903Y26598582D01*
X7529210Y26592288D01*
X7541836Y26584720D01*
X7553659Y26575952D01*
X7564566Y26566066D01*
X7574452Y26555159D01*
X7583220Y26543336D01*
X7590788Y26530710D01*
X7597082Y26517403D01*
X7602041Y26503543D01*
X7605618Y26489264D01*
X7607778Y26474703D01*
X7608500Y26460000D01*
X7608500Y25110000D01*
X7607778Y25095297D01*
X7605618Y25080736D01*
X7602041Y25066457D01*
X7597082Y25052597D01*
X7590788Y25039290D01*
X7583220Y25026664D01*
X7574452Y25014841D01*
X7564566Y25003934D01*
X7553659Y24994048D01*
X7541836Y24985280D01*
X7529210Y24977712D01*
X7515903Y24971418D01*
X7502043Y24966459D01*
X7487764Y24962882D01*
X7473203Y24960722D01*
X7458500Y24960000D01*
X7158500Y24960000D01*
X7143797Y24960722D01*
X7129236Y24962882D01*
X7114957Y24966459D01*
X7101097Y24971418D01*
X7087790Y24977712D01*
X7075164Y24985280D01*
X7063341Y24994048D01*
X7052434Y25003934D01*
X7042548Y25014841D01*
X7033780Y25026664D01*
X7026212Y25039290D01*
X7019918Y25052597D01*
X7014959Y25066457D01*
X7011382Y25080736D01*
X7009222Y25095297D01*
X7008500Y25110000D01*
X7008500Y26460000D01*
X7009222Y26474703D01*
X7011382Y26489264D01*
X7014959Y26503543D01*
X7019918Y26517403D01*
X7026212Y26530710D01*
X7033780Y26543336D01*
X7042548Y26555159D01*
X7052434Y26566066D01*
X7063341Y26575952D01*
X7075164Y26584720D01*
X7087790Y26592288D01*
X7101097Y26598582D01*
X7114957Y26603541D01*
X7129236Y26607118D01*
X7143797Y26609278D01*
X7158500Y26610000D01*
X7458500Y26610000D01*
X7473203Y26609278D01*
G37*
G04 #@! TD.AperFunction*
D22*
X10000000Y21552000D03*
G04 #@! TA.AperFunction,SMDPad,CuDef*
D11*
G36*
X8282505Y34671796D02*
G01*
X8306773Y34668196D01*
X8330572Y34662235D01*
X8353671Y34653970D01*
X8375850Y34643480D01*
X8396893Y34630868D01*
X8416599Y34616253D01*
X8434777Y34599777D01*
X8451253Y34581599D01*
X8465868Y34561893D01*
X8478480Y34540850D01*
X8488970Y34518671D01*
X8497235Y34495572D01*
X8503196Y34471773D01*
X8506796Y34447505D01*
X8508000Y34423001D01*
X8508000Y33572999D01*
X8506796Y33548495D01*
X8503196Y33524227D01*
X8497235Y33500428D01*
X8488970Y33477329D01*
X8478480Y33455150D01*
X8465868Y33434107D01*
X8451253Y33414401D01*
X8434777Y33396223D01*
X8416599Y33379747D01*
X8396893Y33365132D01*
X8375850Y33352520D01*
X8353671Y33342030D01*
X8330572Y33333765D01*
X8306773Y33327804D01*
X8282505Y33324204D01*
X8258001Y33323000D01*
X7357999Y33323000D01*
X7333495Y33324204D01*
X7309227Y33327804D01*
X7285428Y33333765D01*
X7262329Y33342030D01*
X7240150Y33352520D01*
X7219107Y33365132D01*
X7199401Y33379747D01*
X7181223Y33396223D01*
X7164747Y33414401D01*
X7150132Y33434107D01*
X7137520Y33455150D01*
X7127030Y33477329D01*
X7118765Y33500428D01*
X7112804Y33524227D01*
X7109204Y33548495D01*
X7108000Y33572999D01*
X7108000Y34423001D01*
X7109204Y34447505D01*
X7112804Y34471773D01*
X7118765Y34495572D01*
X7127030Y34518671D01*
X7137520Y34540850D01*
X7150132Y34561893D01*
X7164747Y34581599D01*
X7181223Y34599777D01*
X7199401Y34616253D01*
X7219107Y34630868D01*
X7240150Y34643480D01*
X7262329Y34653970D01*
X7285428Y34662235D01*
X7309227Y34668196D01*
X7333495Y34671796D01*
X7357999Y34673000D01*
X8258001Y34673000D01*
X8282505Y34671796D01*
G37*
G04 #@! TD.AperFunction*
G04 #@! TA.AperFunction,SMDPad,CuDef*
G36*
X10982505Y34671796D02*
G01*
X11006773Y34668196D01*
X11030572Y34662235D01*
X11053671Y34653970D01*
X11075850Y34643480D01*
X11096893Y34630868D01*
X11116599Y34616253D01*
X11134777Y34599777D01*
X11151253Y34581599D01*
X11165868Y34561893D01*
X11178480Y34540850D01*
X11188970Y34518671D01*
X11197235Y34495572D01*
X11203196Y34471773D01*
X11206796Y34447505D01*
X11208000Y34423001D01*
X11208000Y33572999D01*
X11206796Y33548495D01*
X11203196Y33524227D01*
X11197235Y33500428D01*
X11188970Y33477329D01*
X11178480Y33455150D01*
X11165868Y33434107D01*
X11151253Y33414401D01*
X11134777Y33396223D01*
X11116599Y33379747D01*
X11096893Y33365132D01*
X11075850Y33352520D01*
X11053671Y33342030D01*
X11030572Y33333765D01*
X11006773Y33327804D01*
X10982505Y33324204D01*
X10958001Y33323000D01*
X10057999Y33323000D01*
X10033495Y33324204D01*
X10009227Y33327804D01*
X9985428Y33333765D01*
X9962329Y33342030D01*
X9940150Y33352520D01*
X9919107Y33365132D01*
X9899401Y33379747D01*
X9881223Y33396223D01*
X9864747Y33414401D01*
X9850132Y33434107D01*
X9837520Y33455150D01*
X9827030Y33477329D01*
X9818765Y33500428D01*
X9812804Y33524227D01*
X9809204Y33548495D01*
X9808000Y33572999D01*
X9808000Y34423001D01*
X9809204Y34447505D01*
X9812804Y34471773D01*
X9818765Y34495572D01*
X9827030Y34518671D01*
X9837520Y34540850D01*
X9850132Y34561893D01*
X9864747Y34581599D01*
X9881223Y34599777D01*
X9899401Y34616253D01*
X9919107Y34630868D01*
X9940150Y34643480D01*
X9962329Y34653970D01*
X9985428Y34662235D01*
X10009227Y34668196D01*
X10033495Y34671796D01*
X10057999Y34673000D01*
X10958001Y34673000D01*
X10982505Y34671796D01*
G37*
G04 #@! TD.AperFunction*
G04 #@! TA.AperFunction,SMDPad,CuDef*
G36*
X3038691Y13834947D02*
G01*
X3059926Y13831797D01*
X3080750Y13826581D01*
X3100962Y13819349D01*
X3120368Y13810170D01*
X3138781Y13799134D01*
X3156024Y13786346D01*
X3171930Y13771930D01*
X3186346Y13756024D01*
X3199134Y13738781D01*
X3210170Y13720368D01*
X3219349Y13700962D01*
X3226581Y13680750D01*
X3231797Y13659926D01*
X3234947Y13638691D01*
X3236000Y13617250D01*
X3236000Y13179750D01*
X3234947Y13158309D01*
X3231797Y13137074D01*
X3226581Y13116250D01*
X3219349Y13096038D01*
X3210170Y13076632D01*
X3199134Y13058219D01*
X3186346Y13040976D01*
X3171930Y13025070D01*
X3156024Y13010654D01*
X3138781Y12997866D01*
X3120368Y12986830D01*
X3100962Y12977651D01*
X3080750Y12970419D01*
X3059926Y12965203D01*
X3038691Y12962053D01*
X3017250Y12961000D01*
X2504750Y12961000D01*
X2483309Y12962053D01*
X2462074Y12965203D01*
X2441250Y12970419D01*
X2421038Y12977651D01*
X2401632Y12986830D01*
X2383219Y12997866D01*
X2365976Y13010654D01*
X2350070Y13025070D01*
X2335654Y13040976D01*
X2322866Y13058219D01*
X2311830Y13076632D01*
X2302651Y13096038D01*
X2295419Y13116250D01*
X2290203Y13137074D01*
X2287053Y13158309D01*
X2286000Y13179750D01*
X2286000Y13617250D01*
X2287053Y13638691D01*
X2290203Y13659926D01*
X2295419Y13680750D01*
X2302651Y13700962D01*
X2311830Y13720368D01*
X2322866Y13738781D01*
X2335654Y13756024D01*
X2350070Y13771930D01*
X2365976Y13786346D01*
X2383219Y13799134D01*
X2401632Y13810170D01*
X2421038Y13819349D01*
X2441250Y13826581D01*
X2462074Y13831797D01*
X2483309Y13834947D01*
X2504750Y13836000D01*
X3017250Y13836000D01*
X3038691Y13834947D01*
G37*
G04 #@! TD.AperFunction*
G04 #@! TA.AperFunction,SMDPad,CuDef*
G36*
X3038691Y15409947D02*
G01*
X3059926Y15406797D01*
X3080750Y15401581D01*
X3100962Y15394349D01*
X3120368Y15385170D01*
X3138781Y15374134D01*
X3156024Y15361346D01*
X3171930Y15346930D01*
X3186346Y15331024D01*
X3199134Y15313781D01*
X3210170Y15295368D01*
X3219349Y15275962D01*
X3226581Y15255750D01*
X3231797Y15234926D01*
X3234947Y15213691D01*
X3236000Y15192250D01*
X3236000Y14754750D01*
X3234947Y14733309D01*
X3231797Y14712074D01*
X3226581Y14691250D01*
X3219349Y14671038D01*
X3210170Y14651632D01*
X3199134Y14633219D01*
X3186346Y14615976D01*
X3171930Y14600070D01*
X3156024Y14585654D01*
X3138781Y14572866D01*
X3120368Y14561830D01*
X3100962Y14552651D01*
X3080750Y14545419D01*
X3059926Y14540203D01*
X3038691Y14537053D01*
X3017250Y14536000D01*
X2504750Y14536000D01*
X2483309Y14537053D01*
X2462074Y14540203D01*
X2441250Y14545419D01*
X2421038Y14552651D01*
X2401632Y14561830D01*
X2383219Y14572866D01*
X2365976Y14585654D01*
X2350070Y14600070D01*
X2335654Y14615976D01*
X2322866Y14633219D01*
X2311830Y14651632D01*
X2302651Y14671038D01*
X2295419Y14691250D01*
X2290203Y14712074D01*
X2287053Y14733309D01*
X2286000Y14754750D01*
X2286000Y15192250D01*
X2287053Y15213691D01*
X2290203Y15234926D01*
X2295419Y15255750D01*
X2302651Y15275962D01*
X2311830Y15295368D01*
X2322866Y15313781D01*
X2335654Y15331024D01*
X2350070Y15346930D01*
X2365976Y15361346D01*
X2383219Y15374134D01*
X2401632Y15385170D01*
X2421038Y15394349D01*
X2441250Y15401581D01*
X2462074Y15406797D01*
X2483309Y15409947D01*
X2504750Y15411000D01*
X3017250Y15411000D01*
X3038691Y15409947D01*
G37*
G04 #@! TD.AperFunction*
G04 #@! TA.AperFunction,SMDPad,CuDef*
G36*
X14748691Y34151947D02*
G01*
X14769926Y34148797D01*
X14790750Y34143581D01*
X14810962Y34136349D01*
X14830368Y34127170D01*
X14848781Y34116134D01*
X14866024Y34103346D01*
X14881930Y34088930D01*
X14896346Y34073024D01*
X14909134Y34055781D01*
X14920170Y34037368D01*
X14929349Y34017962D01*
X14936581Y33997750D01*
X14941797Y33976926D01*
X14944947Y33955691D01*
X14946000Y33934250D01*
X14946000Y33421750D01*
X14944947Y33400309D01*
X14941797Y33379074D01*
X14936581Y33358250D01*
X14929349Y33338038D01*
X14920170Y33318632D01*
X14909134Y33300219D01*
X14896346Y33282976D01*
X14881930Y33267070D01*
X14866024Y33252654D01*
X14848781Y33239866D01*
X14830368Y33228830D01*
X14810962Y33219651D01*
X14790750Y33212419D01*
X14769926Y33207203D01*
X14748691Y33204053D01*
X14727250Y33203000D01*
X14289750Y33203000D01*
X14268309Y33204053D01*
X14247074Y33207203D01*
X14226250Y33212419D01*
X14206038Y33219651D01*
X14186632Y33228830D01*
X14168219Y33239866D01*
X14150976Y33252654D01*
X14135070Y33267070D01*
X14120654Y33282976D01*
X14107866Y33300219D01*
X14096830Y33318632D01*
X14087651Y33338038D01*
X14080419Y33358250D01*
X14075203Y33379074D01*
X14072053Y33400309D01*
X14071000Y33421750D01*
X14071000Y33934250D01*
X14072053Y33955691D01*
X14075203Y33976926D01*
X14080419Y33997750D01*
X14087651Y34017962D01*
X14096830Y34037368D01*
X14107866Y34055781D01*
X14120654Y34073024D01*
X14135070Y34088930D01*
X14150976Y34103346D01*
X14168219Y34116134D01*
X14186632Y34127170D01*
X14206038Y34136349D01*
X14226250Y34143581D01*
X14247074Y34148797D01*
X14268309Y34151947D01*
X14289750Y34153000D01*
X14727250Y34153000D01*
X14748691Y34151947D01*
G37*
G04 #@! TD.AperFunction*
G04 #@! TA.AperFunction,SMDPad,CuDef*
G36*
X13173691Y34151947D02*
G01*
X13194926Y34148797D01*
X13215750Y34143581D01*
X13235962Y34136349D01*
X13255368Y34127170D01*
X13273781Y34116134D01*
X13291024Y34103346D01*
X13306930Y34088930D01*
X13321346Y34073024D01*
X13334134Y34055781D01*
X13345170Y34037368D01*
X13354349Y34017962D01*
X13361581Y33997750D01*
X13366797Y33976926D01*
X13369947Y33955691D01*
X13371000Y33934250D01*
X13371000Y33421750D01*
X13369947Y33400309D01*
X13366797Y33379074D01*
X13361581Y33358250D01*
X13354349Y33338038D01*
X13345170Y33318632D01*
X13334134Y33300219D01*
X13321346Y33282976D01*
X13306930Y33267070D01*
X13291024Y33252654D01*
X13273781Y33239866D01*
X13255368Y33228830D01*
X13235962Y33219651D01*
X13215750Y33212419D01*
X13194926Y33207203D01*
X13173691Y33204053D01*
X13152250Y33203000D01*
X12714750Y33203000D01*
X12693309Y33204053D01*
X12672074Y33207203D01*
X12651250Y33212419D01*
X12631038Y33219651D01*
X12611632Y33228830D01*
X12593219Y33239866D01*
X12575976Y33252654D01*
X12560070Y33267070D01*
X12545654Y33282976D01*
X12532866Y33300219D01*
X12521830Y33318632D01*
X12512651Y33338038D01*
X12505419Y33358250D01*
X12500203Y33379074D01*
X12497053Y33400309D01*
X12496000Y33421750D01*
X12496000Y33934250D01*
X12497053Y33955691D01*
X12500203Y33976926D01*
X12505419Y33997750D01*
X12512651Y34017962D01*
X12521830Y34037368D01*
X12532866Y34055781D01*
X12545654Y34073024D01*
X12560070Y34088930D01*
X12575976Y34103346D01*
X12593219Y34116134D01*
X12611632Y34127170D01*
X12631038Y34136349D01*
X12651250Y34143581D01*
X12672074Y34148797D01*
X12693309Y34151947D01*
X12714750Y34153000D01*
X13152250Y34153000D01*
X13173691Y34151947D01*
G37*
G04 #@! TD.AperFunction*
G04 #@! TA.AperFunction,SMDPad,CuDef*
G36*
X6086691Y23918947D02*
G01*
X6107926Y23915797D01*
X6128750Y23910581D01*
X6148962Y23903349D01*
X6168368Y23894170D01*
X6186781Y23883134D01*
X6204024Y23870346D01*
X6219930Y23855930D01*
X6234346Y23840024D01*
X6247134Y23822781D01*
X6258170Y23804368D01*
X6267349Y23784962D01*
X6274581Y23764750D01*
X6279797Y23743926D01*
X6282947Y23722691D01*
X6284000Y23701250D01*
X6284000Y23263750D01*
X6282947Y23242309D01*
X6279797Y23221074D01*
X6274581Y23200250D01*
X6267349Y23180038D01*
X6258170Y23160632D01*
X6247134Y23142219D01*
X6234346Y23124976D01*
X6219930Y23109070D01*
X6204024Y23094654D01*
X6186781Y23081866D01*
X6168368Y23070830D01*
X6148962Y23061651D01*
X6128750Y23054419D01*
X6107926Y23049203D01*
X6086691Y23046053D01*
X6065250Y23045000D01*
X5552750Y23045000D01*
X5531309Y23046053D01*
X5510074Y23049203D01*
X5489250Y23054419D01*
X5469038Y23061651D01*
X5449632Y23070830D01*
X5431219Y23081866D01*
X5413976Y23094654D01*
X5398070Y23109070D01*
X5383654Y23124976D01*
X5370866Y23142219D01*
X5359830Y23160632D01*
X5350651Y23180038D01*
X5343419Y23200250D01*
X5338203Y23221074D01*
X5335053Y23242309D01*
X5334000Y23263750D01*
X5334000Y23701250D01*
X5335053Y23722691D01*
X5338203Y23743926D01*
X5343419Y23764750D01*
X5350651Y23784962D01*
X5359830Y23804368D01*
X5370866Y23822781D01*
X5383654Y23840024D01*
X5398070Y23855930D01*
X5413976Y23870346D01*
X5431219Y23883134D01*
X5449632Y23894170D01*
X5469038Y23903349D01*
X5489250Y23910581D01*
X5510074Y23915797D01*
X5531309Y23918947D01*
X5552750Y23920000D01*
X6065250Y23920000D01*
X6086691Y23918947D01*
G37*
G04 #@! TD.AperFunction*
G04 #@! TA.AperFunction,SMDPad,CuDef*
G36*
X6086691Y22343947D02*
G01*
X6107926Y22340797D01*
X6128750Y22335581D01*
X6148962Y22328349D01*
X6168368Y22319170D01*
X6186781Y22308134D01*
X6204024Y22295346D01*
X6219930Y22280930D01*
X6234346Y22265024D01*
X6247134Y22247781D01*
X6258170Y22229368D01*
X6267349Y22209962D01*
X6274581Y22189750D01*
X6279797Y22168926D01*
X6282947Y22147691D01*
X6284000Y22126250D01*
X6284000Y21688750D01*
X6282947Y21667309D01*
X6279797Y21646074D01*
X6274581Y21625250D01*
X6267349Y21605038D01*
X6258170Y21585632D01*
X6247134Y21567219D01*
X6234346Y21549976D01*
X6219930Y21534070D01*
X6204024Y21519654D01*
X6186781Y21506866D01*
X6168368Y21495830D01*
X6148962Y21486651D01*
X6128750Y21479419D01*
X6107926Y21474203D01*
X6086691Y21471053D01*
X6065250Y21470000D01*
X5552750Y21470000D01*
X5531309Y21471053D01*
X5510074Y21474203D01*
X5489250Y21479419D01*
X5469038Y21486651D01*
X5449632Y21495830D01*
X5431219Y21506866D01*
X5413976Y21519654D01*
X5398070Y21534070D01*
X5383654Y21549976D01*
X5370866Y21567219D01*
X5359830Y21585632D01*
X5350651Y21605038D01*
X5343419Y21625250D01*
X5338203Y21646074D01*
X5335053Y21667309D01*
X5334000Y21688750D01*
X5334000Y22126250D01*
X5335053Y22147691D01*
X5338203Y22168926D01*
X5343419Y22189750D01*
X5350651Y22209962D01*
X5359830Y22229368D01*
X5370866Y22247781D01*
X5383654Y22265024D01*
X5398070Y22280930D01*
X5413976Y22295346D01*
X5431219Y22308134D01*
X5449632Y22319170D01*
X5469038Y22328349D01*
X5489250Y22335581D01*
X5510074Y22340797D01*
X5531309Y22343947D01*
X5552750Y22345000D01*
X6065250Y22345000D01*
X6086691Y22343947D01*
G37*
G04 #@! TD.AperFunction*
G04 #@! TA.AperFunction,SMDPad,CuDef*
G36*
X4203005Y23878796D02*
G01*
X4227273Y23875196D01*
X4251072Y23869235D01*
X4274171Y23860970D01*
X4296350Y23850480D01*
X4317393Y23837868D01*
X4337099Y23823253D01*
X4355277Y23806777D01*
X4371753Y23788599D01*
X4386368Y23768893D01*
X4398980Y23747850D01*
X4409470Y23725671D01*
X4417735Y23702572D01*
X4423696Y23678773D01*
X4427296Y23654505D01*
X4428500Y23630001D01*
X4428500Y22729999D01*
X4427296Y22705495D01*
X4423696Y22681227D01*
X4417735Y22657428D01*
X4409470Y22634329D01*
X4398980Y22612150D01*
X4386368Y22591107D01*
X4371753Y22571401D01*
X4355277Y22553223D01*
X4337099Y22536747D01*
X4317393Y22522132D01*
X4296350Y22509520D01*
X4274171Y22499030D01*
X4251072Y22490765D01*
X4227273Y22484804D01*
X4203005Y22481204D01*
X4178501Y22480000D01*
X3328499Y22480000D01*
X3303995Y22481204D01*
X3279727Y22484804D01*
X3255928Y22490765D01*
X3232829Y22499030D01*
X3210650Y22509520D01*
X3189607Y22522132D01*
X3169901Y22536747D01*
X3151723Y22553223D01*
X3135247Y22571401D01*
X3120632Y22591107D01*
X3108020Y22612150D01*
X3097530Y22634329D01*
X3089265Y22657428D01*
X3083304Y22681227D01*
X3079704Y22705495D01*
X3078500Y22729999D01*
X3078500Y23630001D01*
X3079704Y23654505D01*
X3083304Y23678773D01*
X3089265Y23702572D01*
X3097530Y23725671D01*
X3108020Y23747850D01*
X3120632Y23768893D01*
X3135247Y23788599D01*
X3151723Y23806777D01*
X3169901Y23823253D01*
X3189607Y23837868D01*
X3210650Y23850480D01*
X3232829Y23860970D01*
X3255928Y23869235D01*
X3279727Y23875196D01*
X3303995Y23878796D01*
X3328499Y23880000D01*
X4178501Y23880000D01*
X4203005Y23878796D01*
G37*
G04 #@! TD.AperFunction*
G04 #@! TA.AperFunction,SMDPad,CuDef*
G36*
X4203005Y21178796D02*
G01*
X4227273Y21175196D01*
X4251072Y21169235D01*
X4274171Y21160970D01*
X4296350Y21150480D01*
X4317393Y21137868D01*
X4337099Y21123253D01*
X4355277Y21106777D01*
X4371753Y21088599D01*
X4386368Y21068893D01*
X4398980Y21047850D01*
X4409470Y21025671D01*
X4417735Y21002572D01*
X4423696Y20978773D01*
X4427296Y20954505D01*
X4428500Y20930001D01*
X4428500Y20029999D01*
X4427296Y20005495D01*
X4423696Y19981227D01*
X4417735Y19957428D01*
X4409470Y19934329D01*
X4398980Y19912150D01*
X4386368Y19891107D01*
X4371753Y19871401D01*
X4355277Y19853223D01*
X4337099Y19836747D01*
X4317393Y19822132D01*
X4296350Y19809520D01*
X4274171Y19799030D01*
X4251072Y19790765D01*
X4227273Y19784804D01*
X4203005Y19781204D01*
X4178501Y19780000D01*
X3328499Y19780000D01*
X3303995Y19781204D01*
X3279727Y19784804D01*
X3255928Y19790765D01*
X3232829Y19799030D01*
X3210650Y19809520D01*
X3189607Y19822132D01*
X3169901Y19836747D01*
X3151723Y19853223D01*
X3135247Y19871401D01*
X3120632Y19891107D01*
X3108020Y19912150D01*
X3097530Y19934329D01*
X3089265Y19957428D01*
X3083304Y19981227D01*
X3079704Y20005495D01*
X3078500Y20029999D01*
X3078500Y20930001D01*
X3079704Y20954505D01*
X3083304Y20978773D01*
X3089265Y21002572D01*
X3097530Y21025671D01*
X3108020Y21047850D01*
X3120632Y21068893D01*
X3135247Y21088599D01*
X3151723Y21106777D01*
X3169901Y21123253D01*
X3189607Y21137868D01*
X3210650Y21150480D01*
X3232829Y21160970D01*
X3255928Y21169235D01*
X3279727Y21175196D01*
X3303995Y21178796D01*
X3328499Y21180000D01*
X4178501Y21180000D01*
X4203005Y21178796D01*
G37*
G04 #@! TD.AperFunction*
G04 #@! TA.AperFunction,SMDPad,CuDef*
G36*
X3038691Y42252947D02*
G01*
X3059926Y42249797D01*
X3080750Y42244581D01*
X3100962Y42237349D01*
X3120368Y42228170D01*
X3138781Y42217134D01*
X3156024Y42204346D01*
X3171930Y42189930D01*
X3186346Y42174024D01*
X3199134Y42156781D01*
X3210170Y42138368D01*
X3219349Y42118962D01*
X3226581Y42098750D01*
X3231797Y42077926D01*
X3234947Y42056691D01*
X3236000Y42035250D01*
X3236000Y41597750D01*
X3234947Y41576309D01*
X3231797Y41555074D01*
X3226581Y41534250D01*
X3219349Y41514038D01*
X3210170Y41494632D01*
X3199134Y41476219D01*
X3186346Y41458976D01*
X3171930Y41443070D01*
X3156024Y41428654D01*
X3138781Y41415866D01*
X3120368Y41404830D01*
X3100962Y41395651D01*
X3080750Y41388419D01*
X3059926Y41383203D01*
X3038691Y41380053D01*
X3017250Y41379000D01*
X2504750Y41379000D01*
X2483309Y41380053D01*
X2462074Y41383203D01*
X2441250Y41388419D01*
X2421038Y41395651D01*
X2401632Y41404830D01*
X2383219Y41415866D01*
X2365976Y41428654D01*
X2350070Y41443070D01*
X2335654Y41458976D01*
X2322866Y41476219D01*
X2311830Y41494632D01*
X2302651Y41514038D01*
X2295419Y41534250D01*
X2290203Y41555074D01*
X2287053Y41576309D01*
X2286000Y41597750D01*
X2286000Y42035250D01*
X2287053Y42056691D01*
X2290203Y42077926D01*
X2295419Y42098750D01*
X2302651Y42118962D01*
X2311830Y42138368D01*
X2322866Y42156781D01*
X2335654Y42174024D01*
X2350070Y42189930D01*
X2365976Y42204346D01*
X2383219Y42217134D01*
X2401632Y42228170D01*
X2421038Y42237349D01*
X2441250Y42244581D01*
X2462074Y42249797D01*
X2483309Y42252947D01*
X2504750Y42254000D01*
X3017250Y42254000D01*
X3038691Y42252947D01*
G37*
G04 #@! TD.AperFunction*
G04 #@! TA.AperFunction,SMDPad,CuDef*
G36*
X3038691Y40677947D02*
G01*
X3059926Y40674797D01*
X3080750Y40669581D01*
X3100962Y40662349D01*
X3120368Y40653170D01*
X3138781Y40642134D01*
X3156024Y40629346D01*
X3171930Y40614930D01*
X3186346Y40599024D01*
X3199134Y40581781D01*
X3210170Y40563368D01*
X3219349Y40543962D01*
X3226581Y40523750D01*
X3231797Y40502926D01*
X3234947Y40481691D01*
X3236000Y40460250D01*
X3236000Y40022750D01*
X3234947Y40001309D01*
X3231797Y39980074D01*
X3226581Y39959250D01*
X3219349Y39939038D01*
X3210170Y39919632D01*
X3199134Y39901219D01*
X3186346Y39883976D01*
X3171930Y39868070D01*
X3156024Y39853654D01*
X3138781Y39840866D01*
X3120368Y39829830D01*
X3100962Y39820651D01*
X3080750Y39813419D01*
X3059926Y39808203D01*
X3038691Y39805053D01*
X3017250Y39804000D01*
X2504750Y39804000D01*
X2483309Y39805053D01*
X2462074Y39808203D01*
X2441250Y39813419D01*
X2421038Y39820651D01*
X2401632Y39829830D01*
X2383219Y39840866D01*
X2365976Y39853654D01*
X2350070Y39868070D01*
X2335654Y39883976D01*
X2322866Y39901219D01*
X2311830Y39919632D01*
X2302651Y39939038D01*
X2295419Y39959250D01*
X2290203Y39980074D01*
X2287053Y40001309D01*
X2286000Y40022750D01*
X2286000Y40460250D01*
X2287053Y40481691D01*
X2290203Y40502926D01*
X2295419Y40523750D01*
X2302651Y40543962D01*
X2311830Y40563368D01*
X2322866Y40581781D01*
X2335654Y40599024D01*
X2350070Y40614930D01*
X2365976Y40629346D01*
X2383219Y40642134D01*
X2401632Y40653170D01*
X2421038Y40662349D01*
X2441250Y40669581D01*
X2462074Y40674797D01*
X2483309Y40677947D01*
X2504750Y40679000D01*
X3017250Y40679000D01*
X3038691Y40677947D01*
G37*
G04 #@! TD.AperFunction*
G04 #@! TA.AperFunction,SMDPad,CuDef*
G36*
X3038691Y6194947D02*
G01*
X3059926Y6191797D01*
X3080750Y6186581D01*
X3100962Y6179349D01*
X3120368Y6170170D01*
X3138781Y6159134D01*
X3156024Y6146346D01*
X3171930Y6131930D01*
X3186346Y6116024D01*
X3199134Y6098781D01*
X3210170Y6080368D01*
X3219349Y6060962D01*
X3226581Y6040750D01*
X3231797Y6019926D01*
X3234947Y5998691D01*
X3236000Y5977250D01*
X3236000Y5539750D01*
X3234947Y5518309D01*
X3231797Y5497074D01*
X3226581Y5476250D01*
X3219349Y5456038D01*
X3210170Y5436632D01*
X3199134Y5418219D01*
X3186346Y5400976D01*
X3171930Y5385070D01*
X3156024Y5370654D01*
X3138781Y5357866D01*
X3120368Y5346830D01*
X3100962Y5337651D01*
X3080750Y5330419D01*
X3059926Y5325203D01*
X3038691Y5322053D01*
X3017250Y5321000D01*
X2504750Y5321000D01*
X2483309Y5322053D01*
X2462074Y5325203D01*
X2441250Y5330419D01*
X2421038Y5337651D01*
X2401632Y5346830D01*
X2383219Y5357866D01*
X2365976Y5370654D01*
X2350070Y5385070D01*
X2335654Y5400976D01*
X2322866Y5418219D01*
X2311830Y5436632D01*
X2302651Y5456038D01*
X2295419Y5476250D01*
X2290203Y5497074D01*
X2287053Y5518309D01*
X2286000Y5539750D01*
X2286000Y5977250D01*
X2287053Y5998691D01*
X2290203Y6019926D01*
X2295419Y6040750D01*
X2302651Y6060962D01*
X2311830Y6080368D01*
X2322866Y6098781D01*
X2335654Y6116024D01*
X2350070Y6131930D01*
X2365976Y6146346D01*
X2383219Y6159134D01*
X2401632Y6170170D01*
X2421038Y6179349D01*
X2441250Y6186581D01*
X2462074Y6191797D01*
X2483309Y6194947D01*
X2504750Y6196000D01*
X3017250Y6196000D01*
X3038691Y6194947D01*
G37*
G04 #@! TD.AperFunction*
G04 #@! TA.AperFunction,SMDPad,CuDef*
G36*
X3038691Y7769947D02*
G01*
X3059926Y7766797D01*
X3080750Y7761581D01*
X3100962Y7754349D01*
X3120368Y7745170D01*
X3138781Y7734134D01*
X3156024Y7721346D01*
X3171930Y7706930D01*
X3186346Y7691024D01*
X3199134Y7673781D01*
X3210170Y7655368D01*
X3219349Y7635962D01*
X3226581Y7615750D01*
X3231797Y7594926D01*
X3234947Y7573691D01*
X3236000Y7552250D01*
X3236000Y7114750D01*
X3234947Y7093309D01*
X3231797Y7072074D01*
X3226581Y7051250D01*
X3219349Y7031038D01*
X3210170Y7011632D01*
X3199134Y6993219D01*
X3186346Y6975976D01*
X3171930Y6960070D01*
X3156024Y6945654D01*
X3138781Y6932866D01*
X3120368Y6921830D01*
X3100962Y6912651D01*
X3080750Y6905419D01*
X3059926Y6900203D01*
X3038691Y6897053D01*
X3017250Y6896000D01*
X2504750Y6896000D01*
X2483309Y6897053D01*
X2462074Y6900203D01*
X2441250Y6905419D01*
X2421038Y6912651D01*
X2401632Y6921830D01*
X2383219Y6932866D01*
X2365976Y6945654D01*
X2350070Y6960070D01*
X2335654Y6975976D01*
X2322866Y6993219D01*
X2311830Y7011632D01*
X2302651Y7031038D01*
X2295419Y7051250D01*
X2290203Y7072074D01*
X2287053Y7093309D01*
X2286000Y7114750D01*
X2286000Y7552250D01*
X2287053Y7573691D01*
X2290203Y7594926D01*
X2295419Y7615750D01*
X2302651Y7635962D01*
X2311830Y7655368D01*
X2322866Y7673781D01*
X2335654Y7691024D01*
X2350070Y7706930D01*
X2365976Y7721346D01*
X2383219Y7734134D01*
X2401632Y7745170D01*
X2421038Y7754349D01*
X2441250Y7761581D01*
X2462074Y7766797D01*
X2483309Y7769947D01*
X2504750Y7771000D01*
X3017250Y7771000D01*
X3038691Y7769947D01*
G37*
G04 #@! TD.AperFunction*
D23*
X12148815Y36804341D03*
X12159000Y12408000D03*
X6444000Y34252000D03*
X6444000Y20790000D03*
X15461000Y23838000D03*
X8095000Y38062000D03*
X14953000Y19266000D03*
X8984000Y12789000D03*
X2818682Y39390375D03*
X6190000Y39332000D03*
X13365500Y8597996D03*
X13048000Y24219000D03*
X14699000Y30442000D03*
X14699000Y26378000D03*
X13683000Y30442000D03*
X13683000Y26378000D03*
X2634000Y20028000D03*
X7523500Y8725000D03*
X10254000Y8275789D03*
X10259015Y9365024D03*
D24*
X4381500Y20480000D02*
X5809000Y21907500D01*
X3753500Y20480000D02*
X4381500Y20480000D01*
X6038500Y31860000D02*
X6038500Y31035000D01*
X5632090Y32266410D02*
X6038500Y31860000D01*
X3498500Y31860000D02*
X3904910Y32266410D01*
X3904910Y32266410D02*
X5632090Y32266410D01*
X3498500Y31035000D02*
X3498500Y31860000D01*
X6038500Y30210000D02*
X6038500Y31035000D01*
X6444910Y29803590D02*
X6038500Y30210000D01*
X8187190Y29803590D02*
X6444910Y29803590D01*
X9193600Y30810000D02*
X8187190Y29803590D01*
X10600000Y30810000D02*
X9193600Y30810000D01*
X10600000Y31906000D02*
X10600000Y30810000D01*
X8508000Y33998000D02*
X10600000Y31906000D01*
X7808000Y33998000D02*
X8508000Y33998000D01*
X14508500Y36039000D02*
X14571000Y36101500D01*
X14508500Y33678000D02*
X14508500Y36039000D01*
X16792000Y33678000D02*
X17366000Y34252000D01*
X14508500Y33678000D02*
X16792000Y33678000D01*
X12871000Y37676500D02*
X12871000Y37526526D01*
X12871000Y37526526D02*
X12148815Y36804341D01*
X3753500Y15491000D02*
X3236000Y14973500D01*
X3236000Y14973500D02*
X2761000Y14973500D01*
X2980500Y14754000D02*
X4921000Y14754000D01*
X2761000Y14973500D02*
X2980500Y14754000D01*
X12871000Y13146500D02*
X12871000Y13120000D01*
X12871000Y13120000D02*
X12159000Y12408000D01*
X7554000Y34252000D02*
X7808000Y33998000D01*
X6444000Y34252000D02*
X7554000Y34252000D01*
X4691500Y20790000D02*
X4381500Y20480000D01*
X6444000Y20790000D02*
X4691500Y20790000D01*
X17186500Y11571500D02*
X17366000Y11392000D01*
X14571000Y11571500D02*
X17186500Y11571500D01*
D25*
X3753500Y17718500D02*
X3749790Y17722210D01*
X3749790Y17722210D02*
X2145790Y17722210D01*
D24*
X3753500Y20480000D02*
X3753500Y17718500D01*
X3753500Y17718500D02*
X3753500Y15491000D01*
X2761000Y40241500D02*
X2761000Y39448057D01*
X2761000Y39448057D02*
X2818682Y39390375D01*
X4921000Y39284000D02*
X6142000Y39284000D01*
X6142000Y39284000D02*
X6190000Y39332000D01*
X2761000Y7771000D02*
X2761000Y7333500D01*
X3548401Y8558401D02*
X2761000Y7771000D01*
X12264599Y43956599D02*
X13571000Y45263000D01*
X10849602Y43956599D02*
X12264599Y43956599D01*
X8095000Y38062000D02*
X8095000Y41201997D01*
X8095000Y41201997D02*
X10849602Y43956599D01*
X6156499Y8558401D02*
X3548401Y8558401D01*
X6625000Y8089900D02*
X6156499Y8558401D01*
X6625000Y6958500D02*
X6625000Y8089900D01*
X13375000Y8588496D02*
X13365500Y8597996D01*
X13375000Y6958500D02*
X13375000Y8588496D01*
X1523979Y12182021D02*
X4028500Y9677500D01*
X2145790Y17722210D02*
X1523979Y17100399D01*
X4028500Y9677500D02*
X4613500Y9677500D01*
X1523979Y17100399D02*
X1523979Y12182021D01*
X4613500Y8698302D02*
X4613500Y9677500D01*
X13365500Y8597996D02*
X14408500Y9640996D01*
X14408500Y9640996D02*
X14408500Y9677500D01*
X14408500Y11409000D02*
X14571000Y11571500D01*
X14408500Y9677500D02*
X14408500Y11409000D01*
X10914500Y10655500D02*
X10914500Y10274500D01*
X14356000Y10655500D02*
X10914500Y10655500D01*
X2816888Y4343500D02*
X1879590Y5280798D01*
X14889500Y4343500D02*
X2816888Y4343500D01*
X15524500Y4978500D02*
X14889500Y4343500D01*
X13746502Y8978998D02*
X15524500Y7201000D01*
X15524500Y7201000D02*
X15524500Y4978500D01*
X1879590Y5280798D02*
X1879590Y6927090D01*
X1879590Y6927090D02*
X2286000Y7333500D01*
X2286000Y7333500D02*
X2761000Y7333500D01*
D25*
X6625000Y6958500D02*
X6925000Y6958500D01*
X13075000Y6958500D02*
X13375000Y6958500D01*
D24*
X5395000Y5758500D02*
X5680000Y6043500D01*
X2761000Y5758500D02*
X5395000Y5758500D01*
X2761000Y45603000D02*
X4221000Y47063000D01*
X2761000Y41816500D02*
X2761000Y45603000D01*
X12006401Y29666401D02*
X12006401Y33199599D01*
X14626500Y41872000D02*
X14571000Y41816500D01*
X17366000Y41872000D02*
X14626500Y41872000D01*
X14571000Y41816500D02*
X12871000Y41816500D01*
D25*
X3642410Y37673410D02*
X3542790Y37573790D01*
X3542790Y37573790D02*
X2018790Y37573790D01*
D24*
X10508000Y33998000D02*
X10889000Y34379000D01*
X10889000Y34317000D02*
X12006401Y33199599D01*
X10889000Y34379000D02*
X10889000Y34317000D01*
X9865401Y35402599D02*
X10889000Y34379000D01*
X2018790Y37573790D02*
X1618000Y37173000D01*
X2765789Y35402599D02*
X9865401Y35402599D01*
X1618000Y36550388D02*
X2765789Y35402599D01*
X1618000Y37173000D02*
X1618000Y36550388D01*
X4921000Y14104000D02*
X10821000Y14104000D01*
X12871000Y17286500D02*
X14571000Y17286500D01*
X15640500Y17286500D02*
X17366000Y19012000D01*
X14571000Y17286500D02*
X15640500Y17286500D01*
X3466500Y14104000D02*
X4921000Y14104000D01*
X2761000Y13398500D02*
X3466500Y14104000D01*
X12006401Y29666401D02*
X12006401Y25260599D01*
X12006401Y28510000D02*
X12006401Y29666401D01*
X10600000Y28510000D02*
X12006401Y28510000D01*
X12871000Y41816500D02*
X11952401Y40897901D01*
X11952401Y40897901D02*
X11952401Y38733879D01*
X11852522Y38634000D02*
X10821000Y38634000D01*
X11952401Y38733879D02*
X11852522Y38634000D01*
X12006401Y25260599D02*
X13048000Y24219000D01*
X10821000Y14104000D02*
X11852522Y14104000D01*
X11852522Y14104000D02*
X11989590Y14241068D01*
X11989590Y16405090D02*
X12871000Y17286500D01*
X11989590Y14241068D02*
X11989590Y16405090D01*
X9111000Y35402599D02*
X9865401Y35402599D01*
X10821000Y38634000D02*
X9556000Y38634000D01*
X9111000Y38189000D02*
X9111000Y35402599D01*
X9556000Y38634000D02*
X9111000Y38189000D01*
X4921000Y38634000D02*
X3915620Y38634000D01*
X3915620Y38634000D02*
X3642410Y38360790D01*
X3642410Y38360790D02*
X3642410Y37673410D01*
X12017599Y33199599D02*
X12006401Y33199599D01*
X12933500Y33678000D02*
X12496000Y33678000D01*
X12496000Y33678000D02*
X12017599Y33199599D01*
X4768500Y30210000D02*
X4768500Y31035000D01*
X2672090Y28113590D02*
X4768500Y30210000D01*
X2634000Y18656500D02*
X2634000Y20028000D01*
X2761000Y18529500D02*
X2634000Y18656500D01*
X2634000Y20028000D02*
X2672090Y28113590D01*
X7523500Y7082000D02*
X7481401Y7039901D01*
X7523500Y8725000D02*
X7523500Y7082000D01*
X7700000Y5993418D02*
X7700000Y6958500D01*
X8120330Y5573088D02*
X7700000Y5993418D01*
X11879670Y5573088D02*
X8120330Y5573088D01*
X12300000Y5993418D02*
X11879670Y5573088D01*
X12300000Y6958500D02*
X12300000Y5993418D01*
D25*
X7400000Y6958500D02*
X7700000Y6958500D01*
X12300000Y6958500D02*
X12600000Y6958500D01*
D26*
X11750000Y8119000D02*
X11750000Y6958500D01*
X12833500Y9202500D02*
X11750000Y8119000D01*
X12833500Y9677500D02*
X12833500Y9202500D01*
X6188500Y9677500D02*
X7841000Y9677500D01*
X8750000Y8768500D02*
X8750000Y6958500D01*
X7841000Y9677500D02*
X8750000Y8768500D01*
X12803500Y36034000D02*
X12871000Y36101500D01*
X10821000Y36034000D02*
X12803500Y36034000D01*
X16226500Y39332000D02*
X17366000Y39332000D01*
X14571000Y37676500D02*
X16226500Y39332000D01*
X12996000Y36101500D02*
X14571000Y37676500D01*
X12871000Y36101500D02*
X12996000Y36101500D01*
X10888500Y11571500D02*
X10821000Y11504000D01*
X12871000Y11571500D02*
X10888500Y11571500D01*
X12996000Y11571500D02*
X12871000Y11571500D01*
X14571000Y13146500D02*
X12996000Y11571500D01*
X14571000Y13169000D02*
X14571000Y13146500D01*
X17366000Y16472000D02*
X17366000Y15964000D01*
X17366000Y15964000D02*
X14571000Y13169000D01*
D24*
X2761000Y38341500D02*
X1924380Y38341500D01*
X1924380Y38341500D02*
X1008389Y37425509D01*
X4789500Y34379000D02*
X7308500Y31860000D01*
X1008389Y37425509D02*
X1008389Y36285491D01*
X7308500Y31860000D02*
X7308500Y31035000D01*
X1008389Y36285491D02*
X2914880Y34379000D01*
X2914880Y34379000D02*
X4789500Y34379000D01*
X3650000Y42342000D02*
X6571000Y45263000D01*
X2761000Y38341500D02*
X3650000Y39230500D01*
X3650000Y39230500D02*
X3650000Y42342000D01*
D26*
X4838500Y36766500D02*
X4921000Y36684000D01*
X2761000Y36766500D02*
X4838500Y36766500D01*
X2286000Y16954500D02*
X2761000Y16954500D01*
X2006590Y16675090D02*
X2286000Y16954500D01*
X2006590Y12973404D02*
X2006590Y16675090D01*
X2825994Y12154000D02*
X2006590Y12973404D01*
X4921000Y12154000D02*
X2825994Y12154000D01*
X7102922Y11840742D02*
X7120296Y11826886D01*
X7082900Y11850384D02*
X7102922Y11840742D01*
X7061234Y11855329D02*
X7082900Y11850384D01*
X7039011Y11855329D02*
X7061234Y11855329D01*
X7017346Y11850384D02*
X7039011Y11855329D01*
X6997324Y11840742D02*
X7017346Y11850384D01*
X6962575Y11813030D02*
X6997324Y11840742D01*
X6942553Y11803388D02*
X6962575Y11813030D01*
X6920888Y11798443D02*
X6942553Y11803388D01*
X6898665Y11798443D02*
X6920888Y11798443D01*
X6876999Y11803388D02*
X6898665Y11798443D01*
X6856977Y11813030D02*
X6876999Y11803388D01*
X6839603Y11826886D02*
X6856977Y11813030D01*
X6764424Y11902065D02*
X6839603Y11826886D01*
X6750569Y11919439D02*
X6764424Y11902065D01*
X6740926Y11939461D02*
X6750569Y11919439D01*
X6510967Y12234973D02*
X6530989Y12244615D01*
X6908370Y12225886D02*
X6908370Y12209262D01*
X6489302Y12230028D02*
X6510967Y12234973D01*
X6908370Y12209262D02*
X6904672Y12193055D01*
X6467079Y12230028D02*
X6489302Y12230028D01*
X6904672Y12193055D02*
X6897458Y12178076D01*
X6445413Y12234973D02*
X6467079Y12230028D01*
X6897458Y12178076D02*
X6887094Y12165079D01*
X6425391Y12244615D02*
X6445413Y12234973D01*
X6887094Y12165079D02*
X6764424Y12042411D01*
X6408017Y12258471D02*
X6425391Y12244615D01*
X6764424Y12042411D02*
X6750569Y12025037D01*
X6332838Y12333650D02*
X6408017Y12258471D01*
X6750569Y12025037D02*
X6740926Y12005015D01*
X6318983Y12351024D02*
X6332838Y12333650D01*
X6740926Y12005015D02*
X6735981Y11983349D01*
X6309341Y12371046D02*
X6318983Y12351024D01*
X6735981Y11983349D02*
X6735981Y11961127D01*
X6304396Y12392712D02*
X6309341Y12371046D01*
X6735981Y11961127D02*
X6740926Y11939461D01*
X6304396Y12414935D02*
X6304396Y12392712D01*
X6356337Y12576946D02*
X6361282Y12555281D01*
X6346695Y12596968D02*
X6356337Y12576946D01*
X6332840Y12614342D02*
X6346695Y12596968D01*
X4921000Y12804000D02*
X6143181Y12804000D01*
X6143181Y12804000D02*
X6332840Y12614342D01*
X6361282Y12555281D02*
X6361282Y12533058D01*
X6361282Y12533058D02*
X6356337Y12511392D01*
X6356337Y12511392D02*
X6346695Y12491370D01*
X6530989Y12244615D02*
X6548364Y12258471D01*
X6346695Y12491370D02*
X6318983Y12456622D01*
X6318983Y12456622D02*
X6309341Y12436600D01*
X6309341Y12436600D02*
X6304396Y12414935D01*
X6548364Y12258471D02*
X6618537Y12328645D01*
X6618537Y12328645D02*
X6619074Y12328108D01*
X6619074Y12328108D02*
X6671570Y12380603D01*
X6671570Y12380603D02*
X6684567Y12390969D01*
X6684567Y12390969D02*
X6699544Y12398183D01*
X6699544Y12398183D02*
X6715752Y12401882D01*
X6715752Y12401882D02*
X6732376Y12401883D01*
X6732376Y12401883D02*
X6748584Y12398183D01*
X6748584Y12398183D02*
X6763563Y12390969D01*
X6763563Y12390969D02*
X6776560Y12380604D01*
X6776560Y12380604D02*
X6887092Y12270070D01*
X6887092Y12270070D02*
X6897458Y12257072D01*
X6897458Y12257072D02*
X6904672Y12242095D01*
X6904672Y12242095D02*
X6908370Y12225886D01*
X9746000Y9201182D02*
X7120296Y11826886D01*
X9750000Y9197182D02*
X9750000Y6958500D01*
X10065783Y8881399D02*
X9746000Y9201182D01*
X10356729Y8881399D02*
X10065783Y8881399D01*
X10750000Y6958500D02*
X10750000Y8488128D01*
X10750000Y8488128D02*
X10356729Y8881399D01*
X9746000Y6962500D02*
X9750000Y6958500D01*
X9746000Y9201182D02*
X9746000Y6962500D01*
X10250000Y6958500D02*
X10250000Y8271789D01*
X10250000Y8271789D02*
X10254000Y8275789D01*
X6170039Y13454000D02*
X10259015Y9365024D01*
X4921000Y13454000D02*
X6170039Y13454000D01*
X9250000Y6081100D02*
X9250000Y6958500D01*
X9326201Y6004899D02*
X9250000Y6081100D01*
X10173799Y6004899D02*
X9326201Y6004899D01*
X10250000Y6081100D02*
X10173799Y6004899D01*
X10250000Y6958500D02*
X10250000Y6081100D01*
X10223400Y44415400D02*
X11071000Y45263000D01*
X10223400Y44038872D02*
X10223400Y44415400D01*
X7231400Y41046872D02*
X10223400Y44038872D01*
X5421000Y37334000D02*
X5593600Y37506600D01*
X4921000Y37334000D02*
X5421000Y37334000D01*
X5593600Y37506600D02*
X6231128Y37506600D01*
X6231128Y37506600D02*
X7231400Y38506872D01*
X7231400Y38506872D02*
X7231400Y41046872D01*
X9918600Y44415400D02*
X9071000Y45263000D01*
X9918600Y44165128D02*
X9918600Y44415400D01*
X6926600Y41173128D02*
X9918600Y44165128D01*
X6640288Y38346815D02*
X6926600Y38633128D01*
X6582861Y38310731D02*
X6613608Y38325538D01*
X6549589Y38303136D02*
X6582861Y38310731D01*
X6515463Y38303137D02*
X6549589Y38303136D01*
X6482191Y38310730D02*
X6515463Y38303137D01*
X6424763Y38346814D02*
X6451444Y38325537D01*
X6368521Y38403056D02*
X6424763Y38346814D01*
X6341840Y38424334D02*
X6368521Y38403056D01*
X6311093Y38439141D02*
X6341840Y38424334D01*
X6277821Y38446734D02*
X6311093Y38439141D01*
X6245321Y38073861D02*
X6230514Y38104608D01*
X6230514Y38104608D02*
X6209236Y38131290D01*
X6210423Y38439140D02*
X6243695Y38446735D01*
X4921000Y37984000D02*
X5421000Y37984000D01*
X6252915Y38006463D02*
X6252914Y38040589D01*
X6926600Y38633128D02*
X6926600Y41173128D01*
X6230513Y37942444D02*
X6245320Y37973191D01*
X5421000Y37984000D02*
X5593600Y37811400D01*
X5593600Y37811400D02*
X6104872Y37811400D01*
X6245320Y37973191D02*
X6252915Y38006463D01*
X6613608Y38325538D02*
X6640288Y38346815D01*
X6209236Y37915764D02*
X6230513Y37942444D01*
X6152995Y38403057D02*
X6179676Y38424333D01*
X6104872Y37811400D02*
X6209236Y37915764D01*
X6209236Y38131290D02*
X6152995Y38187531D01*
X6243695Y38446735D02*
X6277821Y38446734D01*
X6152995Y38187531D02*
X6131718Y38214212D01*
X6131718Y38214212D02*
X6116911Y38244959D01*
X6116911Y38244959D02*
X6109316Y38278229D01*
X6109316Y38278229D02*
X6109317Y38312357D01*
X6109317Y38312357D02*
X6116910Y38345627D01*
X6116910Y38345627D02*
X6131717Y38376374D01*
X6451444Y38325537D02*
X6482191Y38310730D01*
X6131717Y38376374D02*
X6152995Y38403057D01*
X6252914Y38040589D02*
X6245321Y38073861D01*
X6179676Y38424333D02*
X6210423Y38439140D01*
X14096000Y40241500D02*
X12871000Y40241500D01*
X14571000Y40241500D02*
X14096000Y40241500D01*
X12871000Y40241500D02*
X12871000Y38969963D01*
X12871000Y38969963D02*
X11885037Y37984000D01*
X11885037Y37984000D02*
X10821000Y37984000D01*
X15046000Y40241500D02*
X14571000Y40241500D01*
X18509000Y37935000D02*
X18509000Y39840000D01*
X17938399Y40410601D02*
X15215101Y40410601D01*
X17366000Y36792000D02*
X18509000Y37935000D01*
X18509000Y39840000D02*
X17938399Y40410601D01*
X15215101Y40410601D02*
X15046000Y40241500D01*
X12871000Y15711500D02*
X14571000Y15711500D01*
X14954500Y15711500D02*
X14571000Y15711500D01*
X18444601Y15010601D02*
X18444601Y16989729D01*
X17366000Y13932000D02*
X18444601Y15010601D01*
X18444601Y16989729D02*
X17883729Y17550601D01*
X17883729Y17550601D02*
X16793601Y17550601D01*
X16793601Y17550601D02*
X14954500Y15711500D01*
X11885037Y13454000D02*
X12871000Y14439963D01*
X12871000Y14439963D02*
X12871000Y15711500D01*
X10821000Y13454000D02*
X11885037Y13454000D01*
X9746000Y16251600D02*
X9943600Y16054000D01*
X13016994Y43142000D02*
X18011257Y43142000D01*
X11532482Y41234000D02*
X11905000Y41606518D01*
X9746000Y17640482D02*
X9746000Y16251600D01*
X11905000Y41606518D02*
X11905000Y42030006D01*
X18813811Y42339446D02*
X18813811Y25081878D01*
X10821000Y41234000D02*
X11532482Y41234000D01*
X11905000Y42030006D02*
X13016994Y43142000D01*
X18011257Y43142000D02*
X18813811Y42339446D01*
X18813811Y25081878D02*
X11727933Y17996000D01*
X9943600Y16054000D02*
X10821000Y16054000D01*
X11727933Y17996000D02*
X10101518Y17996000D01*
X10101518Y17996000D02*
X9746000Y17640482D01*
X9943600Y40584000D02*
X10821000Y40584000D01*
X9746000Y40781600D02*
X9943600Y40584000D01*
X9746000Y42170482D02*
X9746000Y40781600D01*
X11022329Y43446811D02*
X9746000Y42170482D01*
X18137513Y43446811D02*
X11022329Y43446811D01*
X19118622Y42465702D02*
X18137513Y43446811D01*
X11905000Y17742000D02*
X19118622Y24955622D01*
X11905000Y17076518D02*
X11905000Y17742000D01*
X11532482Y16704000D02*
X11905000Y17076518D01*
X10821000Y16704000D02*
X11532482Y16704000D01*
X19118622Y24955622D02*
X19118622Y42465702D01*
D24*
X10175000Y25785000D02*
X10600000Y26210000D01*
X3498500Y25785000D02*
X10175000Y25785000D01*
X6038500Y23712000D02*
X5809000Y23482500D01*
X6038500Y25785000D02*
X6038500Y23712000D01*
X4056000Y23482500D02*
X3753500Y23180000D01*
X5809000Y23482500D02*
X4056000Y23482500D01*
D25*
G36*
X2293071Y33815415D02*
G01*
X2319316Y33783436D01*
X2351292Y33757194D01*
X2351294Y33757192D01*
X2394863Y33721436D01*
X2446948Y33678691D01*
X2592563Y33600858D01*
X2750564Y33552929D01*
X2873710Y33540800D01*
X2873719Y33540800D01*
X2914879Y33536746D01*
X2956039Y33540800D01*
X4442307Y33540800D01*
X5524461Y32458645D01*
X5494320Y32449502D01*
X5384006Y32390537D01*
X5354436Y32366270D01*
X5220082Y32438084D01*
X5072245Y32482929D01*
X4918500Y32498072D01*
X4618500Y32498072D01*
X4464755Y32482929D01*
X4316918Y32438084D01*
X4182564Y32366270D01*
X4152994Y32390537D01*
X4042680Y32449502D01*
X3922982Y32485812D01*
X3798500Y32498072D01*
X3784250Y32495000D01*
X3625500Y32336250D01*
X3625500Y31162000D01*
X3645500Y31162000D01*
X3645500Y30908000D01*
X3625500Y30908000D01*
X3625500Y30888000D01*
X3371500Y30888000D01*
X3371500Y30908000D01*
X2722250Y30908000D01*
X2563500Y30749250D01*
X2560428Y30210000D01*
X2572688Y30085518D01*
X2608998Y29965820D01*
X2667963Y29855506D01*
X2747315Y29758815D01*
X2844006Y29679463D01*
X2954320Y29620498D01*
X2984461Y29611355D01*
X2109903Y28736796D01*
X2079339Y28711953D01*
X2051683Y28678576D01*
X2050282Y28677175D01*
X2025391Y28646845D01*
X1973994Y28584816D01*
X1973046Y28583063D01*
X1971781Y28581521D01*
X1933761Y28510392D01*
X1895476Y28439569D01*
X1894889Y28437667D01*
X1893948Y28435906D01*
X1870516Y28358661D01*
X1846803Y28281795D01*
X1846599Y28279816D01*
X1846019Y28277905D01*
X1838115Y28197656D01*
X1834094Y28158708D01*
X1834085Y28156729D01*
X1829836Y28113590D01*
X1833697Y28074389D01*
X1797168Y20320327D01*
X1783010Y20286145D01*
X1749000Y20115165D01*
X1749000Y19940835D01*
X1783010Y19769855D01*
X1795801Y19738975D01*
X1795800Y19228505D01*
X1792329Y19224275D01*
X1713150Y19076142D01*
X1664392Y18915408D01*
X1647928Y18748250D01*
X1647928Y18310750D01*
X1664392Y18143592D01*
X1713150Y17982858D01*
X1792329Y17834725D01*
X1868426Y17742000D01*
X1792329Y17649275D01*
X1713150Y17501142D01*
X1664392Y17340408D01*
X1664203Y17338491D01*
X1528399Y17202687D01*
X1501264Y17180417D01*
X1478994Y17153281D01*
X1478993Y17153280D01*
X1412388Y17072122D01*
X1387022Y17024665D01*
X1346349Y16948571D01*
X1306914Y16818569D01*
X1305682Y16814509D01*
X1291950Y16675090D01*
X1295391Y16640154D01*
X1295390Y13008330D01*
X1291950Y12973404D01*
X1295390Y12938478D01*
X1295390Y12938469D01*
X1305681Y12833985D01*
X1346348Y12699924D01*
X1412388Y12576372D01*
X1501263Y12468078D01*
X1528400Y12445807D01*
X2298401Y11675804D01*
X2320667Y11648673D01*
X2347798Y11626407D01*
X2347802Y11626403D01*
X2414702Y11571500D01*
X2428961Y11559798D01*
X2552513Y11493758D01*
X2686574Y11453091D01*
X2791058Y11442800D01*
X2791067Y11442800D01*
X2825993Y11439360D01*
X2860919Y11442800D01*
X3557928Y11442800D01*
X3557928Y11279000D01*
X3570188Y11154518D01*
X3606498Y11034820D01*
X3665463Y10924506D01*
X3744815Y10827815D01*
X3841506Y10748463D01*
X3892707Y10721095D01*
X3821506Y10683037D01*
X3724815Y10603685D01*
X3645463Y10506994D01*
X3586498Y10396680D01*
X3550188Y10276982D01*
X3537928Y10152500D01*
X3541000Y9963250D01*
X3699750Y9804500D01*
X4486500Y9804500D01*
X4486500Y9824500D01*
X4740500Y9824500D01*
X4740500Y9804500D01*
X4760500Y9804500D01*
X4760500Y9550500D01*
X4740500Y9550500D01*
X4740500Y8726250D01*
X4899250Y8567500D01*
X5051000Y8564428D01*
X5175482Y8576688D01*
X5295180Y8612998D01*
X5405494Y8671963D01*
X5472070Y8726600D01*
X5493725Y8708829D01*
X5641858Y8629650D01*
X5802592Y8580892D01*
X5969750Y8564428D01*
X6407250Y8564428D01*
X6574408Y8580892D01*
X6645535Y8602468D01*
X6672510Y8466855D01*
X6685300Y8435977D01*
X6685300Y8312177D01*
X6641004Y8307344D01*
X6521873Y8269215D01*
X6502997Y8258753D01*
X6443250Y8318500D01*
X6341004Y8307344D01*
X6221873Y8269215D01*
X6112469Y8208578D01*
X6016997Y8127763D01*
X5939126Y8029875D01*
X5881849Y7918675D01*
X5847366Y7798439D01*
X5840692Y7718164D01*
X5680000Y7733991D01*
X5457501Y7712077D01*
X5243553Y7647176D01*
X5046377Y7541784D01*
X4873551Y7399949D01*
X4731716Y7227123D01*
X4626324Y7029946D01*
X4561423Y6815998D01*
X4545000Y6649251D01*
X4545000Y6596700D01*
X3796039Y6596700D01*
X3825502Y6651820D01*
X3861812Y6771518D01*
X3874072Y6896000D01*
X3871000Y7047750D01*
X3712250Y7206500D01*
X2888000Y7206500D01*
X2888000Y7186500D01*
X2634000Y7186500D01*
X2634000Y7206500D01*
X1809750Y7206500D01*
X1651000Y7047750D01*
X1647928Y6896000D01*
X1660188Y6771518D01*
X1696498Y6651820D01*
X1755463Y6541506D01*
X1810100Y6474930D01*
X1792329Y6453275D01*
X1713150Y6305142D01*
X1664392Y6144408D01*
X1647928Y5977250D01*
X1647928Y5539750D01*
X1664392Y5372592D01*
X1676099Y5334000D01*
X660000Y5334000D01*
X660000Y7771000D01*
X1647928Y7771000D01*
X1651000Y7619250D01*
X1809750Y7460500D01*
X2634000Y7460500D01*
X2634000Y8247250D01*
X2888000Y8247250D01*
X2888000Y7460500D01*
X3712250Y7460500D01*
X3871000Y7619250D01*
X3874072Y7771000D01*
X3861812Y7895482D01*
X3825502Y8015180D01*
X3766537Y8125494D01*
X3687185Y8222185D01*
X3590494Y8301537D01*
X3480180Y8360502D01*
X3360482Y8396812D01*
X3236000Y8409072D01*
X3046750Y8406000D01*
X2888000Y8247250D01*
X2634000Y8247250D01*
X2475250Y8406000D01*
X2286000Y8409072D01*
X2161518Y8396812D01*
X2041820Y8360502D01*
X1931506Y8301537D01*
X1834815Y8222185D01*
X1755463Y8125494D01*
X1696498Y8015180D01*
X1660188Y7895482D01*
X1647928Y7771000D01*
X660000Y7771000D01*
X660000Y9202500D01*
X3537928Y9202500D01*
X3550188Y9078018D01*
X3586498Y8958320D01*
X3645463Y8848006D01*
X3724815Y8751315D01*
X3821506Y8671963D01*
X3931820Y8612998D01*
X4051518Y8576688D01*
X4176000Y8564428D01*
X4327750Y8567500D01*
X4486500Y8726250D01*
X4486500Y9550500D01*
X3699750Y9550500D01*
X3541000Y9391750D01*
X3537928Y9202500D01*
X660000Y9202500D01*
X660000Y31860000D01*
X2560428Y31860000D01*
X2563500Y31320750D01*
X2722250Y31162000D01*
X3371500Y31162000D01*
X3371500Y32336250D01*
X3212750Y32495000D01*
X3198500Y32498072D01*
X3074018Y32485812D01*
X2954320Y32449502D01*
X2844006Y32390537D01*
X2747315Y32311185D01*
X2667963Y32214494D01*
X2608998Y32104180D01*
X2572688Y31984482D01*
X2560428Y31860000D01*
X660000Y31860000D01*
X660000Y35448487D01*
X2293071Y33815415D01*
G37*
X2293071Y33815415D02*
X2319316Y33783436D01*
X2351292Y33757194D01*
X2351294Y33757192D01*
X2394863Y33721436D01*
X2446948Y33678691D01*
X2592563Y33600858D01*
X2750564Y33552929D01*
X2873710Y33540800D01*
X2873719Y33540800D01*
X2914879Y33536746D01*
X2956039Y33540800D01*
X4442307Y33540800D01*
X5524461Y32458645D01*
X5494320Y32449502D01*
X5384006Y32390537D01*
X5354436Y32366270D01*
X5220082Y32438084D01*
X5072245Y32482929D01*
X4918500Y32498072D01*
X4618500Y32498072D01*
X4464755Y32482929D01*
X4316918Y32438084D01*
X4182564Y32366270D01*
X4152994Y32390537D01*
X4042680Y32449502D01*
X3922982Y32485812D01*
X3798500Y32498072D01*
X3784250Y32495000D01*
X3625500Y32336250D01*
X3625500Y31162000D01*
X3645500Y31162000D01*
X3645500Y30908000D01*
X3625500Y30908000D01*
X3625500Y30888000D01*
X3371500Y30888000D01*
X3371500Y30908000D01*
X2722250Y30908000D01*
X2563500Y30749250D01*
X2560428Y30210000D01*
X2572688Y30085518D01*
X2608998Y29965820D01*
X2667963Y29855506D01*
X2747315Y29758815D01*
X2844006Y29679463D01*
X2954320Y29620498D01*
X2984461Y29611355D01*
X2109903Y28736796D01*
X2079339Y28711953D01*
X2051683Y28678576D01*
X2050282Y28677175D01*
X2025391Y28646845D01*
X1973994Y28584816D01*
X1973046Y28583063D01*
X1971781Y28581521D01*
X1933761Y28510392D01*
X1895476Y28439569D01*
X1894889Y28437667D01*
X1893948Y28435906D01*
X1870516Y28358661D01*
X1846803Y28281795D01*
X1846599Y28279816D01*
X1846019Y28277905D01*
X1838115Y28197656D01*
X1834094Y28158708D01*
X1834085Y28156729D01*
X1829836Y28113590D01*
X1833697Y28074389D01*
X1797168Y20320327D01*
X1783010Y20286145D01*
X1749000Y20115165D01*
X1749000Y19940835D01*
X1783010Y19769855D01*
X1795801Y19738975D01*
X1795800Y19228505D01*
X1792329Y19224275D01*
X1713150Y19076142D01*
X1664392Y18915408D01*
X1647928Y18748250D01*
X1647928Y18310750D01*
X1664392Y18143592D01*
X1713150Y17982858D01*
X1792329Y17834725D01*
X1868426Y17742000D01*
X1792329Y17649275D01*
X1713150Y17501142D01*
X1664392Y17340408D01*
X1664203Y17338491D01*
X1528399Y17202687D01*
X1501264Y17180417D01*
X1478994Y17153281D01*
X1478993Y17153280D01*
X1412388Y17072122D01*
X1387022Y17024665D01*
X1346349Y16948571D01*
X1306914Y16818569D01*
X1305682Y16814509D01*
X1291950Y16675090D01*
X1295391Y16640154D01*
X1295390Y13008330D01*
X1291950Y12973404D01*
X1295390Y12938478D01*
X1295390Y12938469D01*
X1305681Y12833985D01*
X1346348Y12699924D01*
X1412388Y12576372D01*
X1501263Y12468078D01*
X1528400Y12445807D01*
X2298401Y11675804D01*
X2320667Y11648673D01*
X2347798Y11626407D01*
X2347802Y11626403D01*
X2414702Y11571500D01*
X2428961Y11559798D01*
X2552513Y11493758D01*
X2686574Y11453091D01*
X2791058Y11442800D01*
X2791067Y11442800D01*
X2825993Y11439360D01*
X2860919Y11442800D01*
X3557928Y11442800D01*
X3557928Y11279000D01*
X3570188Y11154518D01*
X3606498Y11034820D01*
X3665463Y10924506D01*
X3744815Y10827815D01*
X3841506Y10748463D01*
X3892707Y10721095D01*
X3821506Y10683037D01*
X3724815Y10603685D01*
X3645463Y10506994D01*
X3586498Y10396680D01*
X3550188Y10276982D01*
X3537928Y10152500D01*
X3541000Y9963250D01*
X3699750Y9804500D01*
X4486500Y9804500D01*
X4486500Y9824500D01*
X4740500Y9824500D01*
X4740500Y9804500D01*
X4760500Y9804500D01*
X4760500Y9550500D01*
X4740500Y9550500D01*
X4740500Y8726250D01*
X4899250Y8567500D01*
X5051000Y8564428D01*
X5175482Y8576688D01*
X5295180Y8612998D01*
X5405494Y8671963D01*
X5472070Y8726600D01*
X5493725Y8708829D01*
X5641858Y8629650D01*
X5802592Y8580892D01*
X5969750Y8564428D01*
X6407250Y8564428D01*
X6574408Y8580892D01*
X6645535Y8602468D01*
X6672510Y8466855D01*
X6685300Y8435977D01*
X6685300Y8312177D01*
X6641004Y8307344D01*
X6521873Y8269215D01*
X6502997Y8258753D01*
X6443250Y8318500D01*
X6341004Y8307344D01*
X6221873Y8269215D01*
X6112469Y8208578D01*
X6016997Y8127763D01*
X5939126Y8029875D01*
X5881849Y7918675D01*
X5847366Y7798439D01*
X5840692Y7718164D01*
X5680000Y7733991D01*
X5457501Y7712077D01*
X5243553Y7647176D01*
X5046377Y7541784D01*
X4873551Y7399949D01*
X4731716Y7227123D01*
X4626324Y7029946D01*
X4561423Y6815998D01*
X4545000Y6649251D01*
X4545000Y6596700D01*
X3796039Y6596700D01*
X3825502Y6651820D01*
X3861812Y6771518D01*
X3874072Y6896000D01*
X3871000Y7047750D01*
X3712250Y7206500D01*
X2888000Y7206500D01*
X2888000Y7186500D01*
X2634000Y7186500D01*
X2634000Y7206500D01*
X1809750Y7206500D01*
X1651000Y7047750D01*
X1647928Y6896000D01*
X1660188Y6771518D01*
X1696498Y6651820D01*
X1755463Y6541506D01*
X1810100Y6474930D01*
X1792329Y6453275D01*
X1713150Y6305142D01*
X1664392Y6144408D01*
X1647928Y5977250D01*
X1647928Y5539750D01*
X1664392Y5372592D01*
X1676099Y5334000D01*
X660000Y5334000D01*
X660000Y7771000D01*
X1647928Y7771000D01*
X1651000Y7619250D01*
X1809750Y7460500D01*
X2634000Y7460500D01*
X2634000Y8247250D01*
X2888000Y8247250D01*
X2888000Y7460500D01*
X3712250Y7460500D01*
X3871000Y7619250D01*
X3874072Y7771000D01*
X3861812Y7895482D01*
X3825502Y8015180D01*
X3766537Y8125494D01*
X3687185Y8222185D01*
X3590494Y8301537D01*
X3480180Y8360502D01*
X3360482Y8396812D01*
X3236000Y8409072D01*
X3046750Y8406000D01*
X2888000Y8247250D01*
X2634000Y8247250D01*
X2475250Y8406000D01*
X2286000Y8409072D01*
X2161518Y8396812D01*
X2041820Y8360502D01*
X1931506Y8301537D01*
X1834815Y8222185D01*
X1755463Y8125494D01*
X1696498Y8015180D01*
X1660188Y7895482D01*
X1647928Y7771000D01*
X660000Y7771000D01*
X660000Y9202500D01*
X3537928Y9202500D01*
X3550188Y9078018D01*
X3586498Y8958320D01*
X3645463Y8848006D01*
X3724815Y8751315D01*
X3821506Y8671963D01*
X3931820Y8612998D01*
X4051518Y8576688D01*
X4176000Y8564428D01*
X4327750Y8567500D01*
X4486500Y8726250D01*
X4486500Y9550500D01*
X3699750Y9550500D01*
X3541000Y9391750D01*
X3537928Y9202500D01*
X660000Y9202500D01*
X660000Y31860000D01*
X2560428Y31860000D01*
X2563500Y31320750D01*
X2722250Y31162000D01*
X3371500Y31162000D01*
X3371500Y32336250D01*
X3212750Y32495000D01*
X3198500Y32498072D01*
X3074018Y32485812D01*
X2954320Y32449502D01*
X2844006Y32390537D01*
X2747315Y32311185D01*
X2667963Y32214494D01*
X2608998Y32104180D01*
X2572688Y31984482D01*
X2560428Y31860000D01*
X660000Y31860000D01*
X660000Y35448487D01*
X2293071Y33815415D01*
G36*
X19340000Y5334000D02*
G01*
X15444782Y5334000D01*
X15455000Y5437748D01*
X15455000Y6649252D01*
X15438577Y6815999D01*
X15373676Y7029947D01*
X15268284Y7227123D01*
X15126449Y7399949D01*
X14953623Y7541784D01*
X14756446Y7647176D01*
X14542498Y7712077D01*
X14320000Y7733991D01*
X14159308Y7718164D01*
X14152634Y7798439D01*
X14118151Y7918675D01*
X14060874Y8029875D01*
X13983003Y8127763D01*
X13887531Y8208578D01*
X13778127Y8269215D01*
X13658996Y8307344D01*
X13556750Y8318500D01*
X13497003Y8258753D01*
X13478127Y8269215D01*
X13358996Y8307344D01*
X13256750Y8318500D01*
X13225000Y8286750D01*
X13193250Y8318500D01*
X13091004Y8307344D01*
X12988802Y8274633D01*
X12929431Y8292643D01*
X13217492Y8580703D01*
X13219408Y8580892D01*
X13380142Y8629650D01*
X13528275Y8708829D01*
X13549930Y8726600D01*
X13616506Y8671963D01*
X13726820Y8612998D01*
X13846518Y8576688D01*
X13971000Y8564428D01*
X14122750Y8567500D01*
X14281500Y8726250D01*
X14281500Y9550500D01*
X14535500Y9550500D01*
X14535500Y8726250D01*
X14694250Y8567500D01*
X14846000Y8564428D01*
X14970482Y8576688D01*
X15090180Y8612998D01*
X15200494Y8671963D01*
X15297185Y8751315D01*
X15376537Y8848006D01*
X15435502Y8958320D01*
X15471812Y9078018D01*
X15484072Y9202500D01*
X15481000Y9391750D01*
X15322250Y9550500D01*
X14535500Y9550500D01*
X14281500Y9550500D01*
X14261500Y9550500D01*
X14261500Y9804500D01*
X14281500Y9804500D01*
X14281500Y9824500D01*
X14535500Y9824500D01*
X14535500Y9804500D01*
X15322250Y9804500D01*
X15481000Y9963250D01*
X15484072Y10152500D01*
X15471812Y10276982D01*
X15435502Y10396680D01*
X15376537Y10506994D01*
X15347809Y10542000D01*
X15877928Y10542000D01*
X15890188Y10417518D01*
X15926498Y10297820D01*
X15985463Y10187506D01*
X16064815Y10090815D01*
X16161506Y10011463D01*
X16271820Y9952498D01*
X16391518Y9916188D01*
X16516000Y9903928D01*
X17080250Y9907000D01*
X17239000Y10065750D01*
X17239000Y11265000D01*
X17493000Y11265000D01*
X17493000Y10065750D01*
X17651750Y9907000D01*
X18216000Y9903928D01*
X18340482Y9916188D01*
X18460180Y9952498D01*
X18570494Y10011463D01*
X18667185Y10090815D01*
X18746537Y10187506D01*
X18805502Y10297820D01*
X18841812Y10417518D01*
X18854072Y10542000D01*
X18851000Y11106250D01*
X18692250Y11265000D01*
X17493000Y11265000D01*
X17239000Y11265000D01*
X16039750Y11265000D01*
X15881000Y11106250D01*
X15877928Y10542000D01*
X15347809Y10542000D01*
X15328812Y10565147D01*
X15400494Y10603463D01*
X15497185Y10682815D01*
X15576537Y10779506D01*
X15635502Y10889820D01*
X15671812Y11009518D01*
X15684072Y11134000D01*
X15681000Y11285750D01*
X15522250Y11444500D01*
X14698000Y11444500D01*
X14698000Y11424500D01*
X14444000Y11424500D01*
X14444000Y11444500D01*
X14424000Y11444500D01*
X14424000Y11698500D01*
X14444000Y11698500D01*
X14444000Y11718500D01*
X14698000Y11718500D01*
X14698000Y11698500D01*
X15522250Y11698500D01*
X15681000Y11857250D01*
X15684072Y12009000D01*
X15671812Y12133482D01*
X15635502Y12253180D01*
X15576537Y12363494D01*
X15521900Y12430070D01*
X15539671Y12451725D01*
X15618850Y12599858D01*
X15667608Y12760592D01*
X15684072Y12927750D01*
X15684072Y13276285D01*
X15932852Y13525065D01*
X15938068Y13498842D01*
X16050010Y13228589D01*
X16212525Y12985368D01*
X16344380Y12853513D01*
X16271820Y12831502D01*
X16161506Y12772537D01*
X16064815Y12693185D01*
X15985463Y12596494D01*
X15926498Y12486180D01*
X15890188Y12366482D01*
X15877928Y12242000D01*
X15881000Y11677750D01*
X16039750Y11519000D01*
X17239000Y11519000D01*
X17239000Y11539000D01*
X17493000Y11539000D01*
X17493000Y11519000D01*
X18692250Y11519000D01*
X18851000Y11677750D01*
X18854072Y12242000D01*
X18841812Y12366482D01*
X18805502Y12486180D01*
X18746537Y12596494D01*
X18667185Y12693185D01*
X18570494Y12772537D01*
X18460180Y12831502D01*
X18387620Y12853513D01*
X18519475Y12985368D01*
X18681990Y13228589D01*
X18793932Y13498842D01*
X18851000Y13785740D01*
X18851000Y14078260D01*
X18795759Y14355971D01*
X18922796Y14483008D01*
X18949927Y14505274D01*
X18972194Y14532406D01*
X18972198Y14532410D01*
X19038803Y14613568D01*
X19084769Y14699564D01*
X19104843Y14737120D01*
X19145510Y14871181D01*
X19155801Y14975665D01*
X19155801Y14975674D01*
X19159241Y15010600D01*
X19155801Y15045526D01*
X19155801Y16954801D01*
X19159241Y16989729D01*
X19155801Y17024658D01*
X19155801Y17024665D01*
X19145510Y17129149D01*
X19121188Y17209327D01*
X19104843Y17263211D01*
X19038803Y17386762D01*
X18972198Y17467920D01*
X18949928Y17495056D01*
X18922791Y17517327D01*
X18447112Y17993005D01*
X18519475Y18065368D01*
X18681990Y18308589D01*
X18793932Y18578842D01*
X18851000Y18865740D01*
X18851000Y19158260D01*
X18793932Y19445158D01*
X18681990Y19715411D01*
X18519475Y19958632D01*
X18312632Y20165475D01*
X18069411Y20327990D01*
X17799158Y20439932D01*
X17512260Y20497000D01*
X17219740Y20497000D01*
X16932842Y20439932D01*
X16662589Y20327990D01*
X16419368Y20165475D01*
X16212525Y19958632D01*
X16050010Y19715411D01*
X15938068Y19445158D01*
X15881000Y19158260D01*
X15881000Y18865740D01*
X15906442Y18737835D01*
X15348864Y18180257D01*
X15303275Y18217671D01*
X15155142Y18296850D01*
X14994408Y18345608D01*
X14827250Y18362072D01*
X14314750Y18362072D01*
X14147592Y18345608D01*
X13986858Y18296850D01*
X13838725Y18217671D01*
X13725439Y18124700D01*
X13716561Y18124700D01*
X13603275Y18217671D01*
X13461981Y18293194D01*
X19340000Y24171213D01*
X19340000Y5334000D01*
G37*
X19340000Y5334000D02*
X15444782Y5334000D01*
X15455000Y5437748D01*
X15455000Y6649252D01*
X15438577Y6815999D01*
X15373676Y7029947D01*
X15268284Y7227123D01*
X15126449Y7399949D01*
X14953623Y7541784D01*
X14756446Y7647176D01*
X14542498Y7712077D01*
X14320000Y7733991D01*
X14159308Y7718164D01*
X14152634Y7798439D01*
X14118151Y7918675D01*
X14060874Y8029875D01*
X13983003Y8127763D01*
X13887531Y8208578D01*
X13778127Y8269215D01*
X13658996Y8307344D01*
X13556750Y8318500D01*
X13497003Y8258753D01*
X13478127Y8269215D01*
X13358996Y8307344D01*
X13256750Y8318500D01*
X13225000Y8286750D01*
X13193250Y8318500D01*
X13091004Y8307344D01*
X12988802Y8274633D01*
X12929431Y8292643D01*
X13217492Y8580703D01*
X13219408Y8580892D01*
X13380142Y8629650D01*
X13528275Y8708829D01*
X13549930Y8726600D01*
X13616506Y8671963D01*
X13726820Y8612998D01*
X13846518Y8576688D01*
X13971000Y8564428D01*
X14122750Y8567500D01*
X14281500Y8726250D01*
X14281500Y9550500D01*
X14535500Y9550500D01*
X14535500Y8726250D01*
X14694250Y8567500D01*
X14846000Y8564428D01*
X14970482Y8576688D01*
X15090180Y8612998D01*
X15200494Y8671963D01*
X15297185Y8751315D01*
X15376537Y8848006D01*
X15435502Y8958320D01*
X15471812Y9078018D01*
X15484072Y9202500D01*
X15481000Y9391750D01*
X15322250Y9550500D01*
X14535500Y9550500D01*
X14281500Y9550500D01*
X14261500Y9550500D01*
X14261500Y9804500D01*
X14281500Y9804500D01*
X14281500Y9824500D01*
X14535500Y9824500D01*
X14535500Y9804500D01*
X15322250Y9804500D01*
X15481000Y9963250D01*
X15484072Y10152500D01*
X15471812Y10276982D01*
X15435502Y10396680D01*
X15376537Y10506994D01*
X15347809Y10542000D01*
X15877928Y10542000D01*
X15890188Y10417518D01*
X15926498Y10297820D01*
X15985463Y10187506D01*
X16064815Y10090815D01*
X16161506Y10011463D01*
X16271820Y9952498D01*
X16391518Y9916188D01*
X16516000Y9903928D01*
X17080250Y9907000D01*
X17239000Y10065750D01*
X17239000Y11265000D01*
X17493000Y11265000D01*
X17493000Y10065750D01*
X17651750Y9907000D01*
X18216000Y9903928D01*
X18340482Y9916188D01*
X18460180Y9952498D01*
X18570494Y10011463D01*
X18667185Y10090815D01*
X18746537Y10187506D01*
X18805502Y10297820D01*
X18841812Y10417518D01*
X18854072Y10542000D01*
X18851000Y11106250D01*
X18692250Y11265000D01*
X17493000Y11265000D01*
X17239000Y11265000D01*
X16039750Y11265000D01*
X15881000Y11106250D01*
X15877928Y10542000D01*
X15347809Y10542000D01*
X15328812Y10565147D01*
X15400494Y10603463D01*
X15497185Y10682815D01*
X15576537Y10779506D01*
X15635502Y10889820D01*
X15671812Y11009518D01*
X15684072Y11134000D01*
X15681000Y11285750D01*
X15522250Y11444500D01*
X14698000Y11444500D01*
X14698000Y11424500D01*
X14444000Y11424500D01*
X14444000Y11444500D01*
X14424000Y11444500D01*
X14424000Y11698500D01*
X14444000Y11698500D01*
X14444000Y11718500D01*
X14698000Y11718500D01*
X14698000Y11698500D01*
X15522250Y11698500D01*
X15681000Y11857250D01*
X15684072Y12009000D01*
X15671812Y12133482D01*
X15635502Y12253180D01*
X15576537Y12363494D01*
X15521900Y12430070D01*
X15539671Y12451725D01*
X15618850Y12599858D01*
X15667608Y12760592D01*
X15684072Y12927750D01*
X15684072Y13276285D01*
X15932852Y13525065D01*
X15938068Y13498842D01*
X16050010Y13228589D01*
X16212525Y12985368D01*
X16344380Y12853513D01*
X16271820Y12831502D01*
X16161506Y12772537D01*
X16064815Y12693185D01*
X15985463Y12596494D01*
X15926498Y12486180D01*
X15890188Y12366482D01*
X15877928Y12242000D01*
X15881000Y11677750D01*
X16039750Y11519000D01*
X17239000Y11519000D01*
X17239000Y11539000D01*
X17493000Y11539000D01*
X17493000Y11519000D01*
X18692250Y11519000D01*
X18851000Y11677750D01*
X18854072Y12242000D01*
X18841812Y12366482D01*
X18805502Y12486180D01*
X18746537Y12596494D01*
X18667185Y12693185D01*
X18570494Y12772537D01*
X18460180Y12831502D01*
X18387620Y12853513D01*
X18519475Y12985368D01*
X18681990Y13228589D01*
X18793932Y13498842D01*
X18851000Y13785740D01*
X18851000Y14078260D01*
X18795759Y14355971D01*
X18922796Y14483008D01*
X18949927Y14505274D01*
X18972194Y14532406D01*
X18972198Y14532410D01*
X19038803Y14613568D01*
X19084769Y14699564D01*
X19104843Y14737120D01*
X19145510Y14871181D01*
X19155801Y14975665D01*
X19155801Y14975674D01*
X19159241Y15010600D01*
X19155801Y15045526D01*
X19155801Y16954801D01*
X19159241Y16989729D01*
X19155801Y17024658D01*
X19155801Y17024665D01*
X19145510Y17129149D01*
X19121188Y17209327D01*
X19104843Y17263211D01*
X19038803Y17386762D01*
X18972198Y17467920D01*
X18949928Y17495056D01*
X18922791Y17517327D01*
X18447112Y17993005D01*
X18519475Y18065368D01*
X18681990Y18308589D01*
X18793932Y18578842D01*
X18851000Y18865740D01*
X18851000Y19158260D01*
X18793932Y19445158D01*
X18681990Y19715411D01*
X18519475Y19958632D01*
X18312632Y20165475D01*
X18069411Y20327990D01*
X17799158Y20439932D01*
X17512260Y20497000D01*
X17219740Y20497000D01*
X16932842Y20439932D01*
X16662589Y20327990D01*
X16419368Y20165475D01*
X16212525Y19958632D01*
X16050010Y19715411D01*
X15938068Y19445158D01*
X15881000Y19158260D01*
X15881000Y18865740D01*
X15906442Y18737835D01*
X15348864Y18180257D01*
X15303275Y18217671D01*
X15155142Y18296850D01*
X14994408Y18345608D01*
X14827250Y18362072D01*
X14314750Y18362072D01*
X14147592Y18345608D01*
X13986858Y18296850D01*
X13838725Y18217671D01*
X13725439Y18124700D01*
X13716561Y18124700D01*
X13603275Y18217671D01*
X13461981Y18293194D01*
X19340000Y24171213D01*
X19340000Y5334000D01*
G36*
X12008885Y10746885D02*
G01*
X12135166Y10643250D01*
X12008885Y10539615D01*
X11902329Y10409775D01*
X11823150Y10261642D01*
X11774392Y10100908D01*
X11757928Y9933750D01*
X11757928Y9421250D01*
X11774392Y9254092D01*
X11798810Y9173598D01*
X11402084Y8776871D01*
X11344202Y8885161D01*
X11255327Y8993455D01*
X11228185Y9015730D01*
X11114490Y9129425D01*
X11144015Y9277859D01*
X11144015Y9452189D01*
X11110005Y9623169D01*
X11043292Y9784229D01*
X10946439Y9929179D01*
X10823170Y10052448D01*
X10678220Y10149301D01*
X10517160Y10216014D01*
X10388153Y10241675D01*
X9977199Y10652628D01*
X10096000Y10640928D01*
X11546000Y10640928D01*
X11670482Y10653188D01*
X11790180Y10689498D01*
X11900494Y10748463D01*
X11964489Y10800982D01*
X12008885Y10746885D01*
G37*
X12008885Y10746885D02*
X12135166Y10643250D01*
X12008885Y10539615D01*
X11902329Y10409775D01*
X11823150Y10261642D01*
X11774392Y10100908D01*
X11757928Y9933750D01*
X11757928Y9421250D01*
X11774392Y9254092D01*
X11798810Y9173598D01*
X11402084Y8776871D01*
X11344202Y8885161D01*
X11255327Y8993455D01*
X11228185Y9015730D01*
X11114490Y9129425D01*
X11144015Y9277859D01*
X11144015Y9452189D01*
X11110005Y9623169D01*
X11043292Y9784229D01*
X10946439Y9929179D01*
X10823170Y10052448D01*
X10678220Y10149301D01*
X10517160Y10216014D01*
X10388153Y10241675D01*
X9977199Y10652628D01*
X10096000Y10640928D01*
X11546000Y10640928D01*
X11670482Y10653188D01*
X11790180Y10689498D01*
X11900494Y10748463D01*
X11964489Y10800982D01*
X12008885Y10746885D01*
G36*
X9457928Y13229000D02*
G01*
X9467777Y13129000D01*
X9457928Y13029000D01*
X9457928Y12579000D01*
X9467777Y12479000D01*
X9457928Y12379000D01*
X9457928Y11929000D01*
X9467777Y11829000D01*
X9457928Y11729000D01*
X9457928Y11279000D01*
X9469629Y11160199D01*
X7364026Y13265800D01*
X9457928Y13265800D01*
X9457928Y13229000D01*
G37*
X9457928Y13229000D02*
X9467777Y13129000D01*
X9457928Y13029000D01*
X9457928Y12579000D01*
X9467777Y12479000D01*
X9457928Y12379000D01*
X9457928Y11929000D01*
X9467777Y11829000D01*
X9457928Y11729000D01*
X9457928Y11279000D01*
X9469629Y11160199D01*
X7364026Y13265800D01*
X9457928Y13265800D01*
X9457928Y13229000D01*
G36*
X12998000Y13273500D02*
G01*
X13018000Y13273500D01*
X13018000Y13019500D01*
X12998000Y13019500D01*
X12998000Y12999500D01*
X12744000Y12999500D01*
X12744000Y13019500D01*
X12724000Y13019500D01*
X12724000Y13273500D01*
X12744000Y13273500D01*
X12744000Y13293500D01*
X12998000Y13293500D01*
X12998000Y13273500D01*
G37*
X12998000Y13273500D02*
X13018000Y13273500D01*
X13018000Y13019500D01*
X12998000Y13019500D01*
X12998000Y12999500D01*
X12744000Y12999500D01*
X12744000Y13019500D01*
X12724000Y13019500D01*
X12724000Y13273500D01*
X12744000Y13273500D01*
X12744000Y13293500D01*
X12998000Y13293500D01*
X12998000Y13273500D01*
G36*
X2888000Y15100500D02*
G01*
X2908000Y15100500D01*
X2908000Y14846500D01*
X2888000Y14846500D01*
X2888000Y14826500D01*
X2717790Y14826500D01*
X2717790Y15120500D01*
X2888000Y15120500D01*
X2888000Y15100500D01*
G37*
X2888000Y15100500D02*
X2908000Y15100500D01*
X2908000Y14846500D01*
X2888000Y14846500D01*
X2888000Y14826500D01*
X2717790Y14826500D01*
X2717790Y15120500D01*
X2888000Y15120500D01*
X2888000Y15100500D01*
G36*
X4857750Y22034500D02*
G01*
X5682000Y22034500D01*
X5682000Y22054500D01*
X5936000Y22054500D01*
X5936000Y22034500D01*
X5956000Y22034500D01*
X5956000Y21780500D01*
X5936000Y21780500D01*
X5936000Y20993750D01*
X6094750Y20835000D01*
X6284000Y20831928D01*
X6408482Y20844188D01*
X6528180Y20880498D01*
X6621367Y20930308D01*
X6697006Y20550048D01*
X6955943Y19924918D01*
X7331862Y19362315D01*
X7810315Y18883862D01*
X8372918Y18507943D01*
X8998048Y18249006D01*
X9290553Y18190823D01*
X9267810Y18168079D01*
X9240673Y18145808D01*
X9151798Y18037514D01*
X9085758Y17913962D01*
X9045091Y17779901D01*
X9034800Y17675417D01*
X9034800Y17675408D01*
X9031360Y17640482D01*
X9034800Y17605556D01*
X9034801Y16286535D01*
X9031360Y16251600D01*
X9034801Y16216664D01*
X9045092Y16112180D01*
X9054798Y16080185D01*
X9085759Y15978119D01*
X9138778Y15878928D01*
X9151799Y15854567D01*
X9240674Y15746273D01*
X9267809Y15724004D01*
X9416002Y15575810D01*
X9438273Y15548673D01*
X9457928Y15532542D01*
X9457928Y15179000D01*
X9467777Y15079000D01*
X9457928Y14979000D01*
X9457928Y14942200D01*
X6237741Y14942200D01*
X6248753Y14978503D01*
X6281000Y15010750D01*
X6273905Y15075773D01*
X6284072Y15179000D01*
X6284072Y15629000D01*
X6274223Y15729000D01*
X6284072Y15829000D01*
X6284072Y16279000D01*
X6274223Y16379000D01*
X6284072Y16479000D01*
X6284072Y16929000D01*
X6274223Y17029000D01*
X6284072Y17129000D01*
X6284072Y17579000D01*
X6271812Y17703482D01*
X6235502Y17823180D01*
X6176537Y17933494D01*
X6097185Y18030185D01*
X6000494Y18109537D01*
X5890180Y18168502D01*
X5770482Y18204812D01*
X5646000Y18217072D01*
X4196000Y18217072D01*
X4071518Y18204812D01*
X3951820Y18168502D01*
X3848394Y18113219D01*
X3857608Y18143592D01*
X3874072Y18310750D01*
X3874072Y18748250D01*
X3857608Y18915408D01*
X3808850Y19076142D01*
X3772045Y19145000D01*
X3880502Y19145000D01*
X3880502Y19303748D01*
X4039250Y19145000D01*
X4428500Y19141928D01*
X4552982Y19154188D01*
X4672680Y19190498D01*
X4782994Y19249463D01*
X4879685Y19328815D01*
X4959037Y19425506D01*
X5018002Y19535820D01*
X5054312Y19655518D01*
X5066572Y19780000D01*
X5063500Y20194250D01*
X4904750Y20353000D01*
X3880500Y20353000D01*
X3880500Y20333000D01*
X3626500Y20333000D01*
X3626500Y20353000D01*
X3606500Y20353000D01*
X3606500Y20607000D01*
X3626500Y20607000D01*
X3626500Y21656250D01*
X3880500Y21656250D01*
X3880500Y20607000D01*
X4904750Y20607000D01*
X5063500Y20765750D01*
X5064452Y20894058D01*
X5089820Y20880498D01*
X5209518Y20844188D01*
X5334000Y20831928D01*
X5523250Y20835000D01*
X5682000Y20993750D01*
X5682000Y21780500D01*
X4857750Y21780500D01*
X4785627Y21708377D01*
X4782994Y21710537D01*
X4672680Y21769502D01*
X4552982Y21805812D01*
X4428500Y21818072D01*
X4039250Y21815000D01*
X3880500Y21656250D01*
X3626500Y21656250D01*
X3480566Y21802184D01*
X3480754Y21841928D01*
X4178501Y21841928D01*
X4351755Y21858992D01*
X4518351Y21909528D01*
X4671887Y21991595D01*
X4797537Y22094713D01*
X4857750Y22034500D01*
G37*
X4857750Y22034500D02*
X5682000Y22034500D01*
X5682000Y22054500D01*
X5936000Y22054500D01*
X5936000Y22034500D01*
X5956000Y22034500D01*
X5956000Y21780500D01*
X5936000Y21780500D01*
X5936000Y20993750D01*
X6094750Y20835000D01*
X6284000Y20831928D01*
X6408482Y20844188D01*
X6528180Y20880498D01*
X6621367Y20930308D01*
X6697006Y20550048D01*
X6955943Y19924918D01*
X7331862Y19362315D01*
X7810315Y18883862D01*
X8372918Y18507943D01*
X8998048Y18249006D01*
X9290553Y18190823D01*
X9267810Y18168079D01*
X9240673Y18145808D01*
X9151798Y18037514D01*
X9085758Y17913962D01*
X9045091Y17779901D01*
X9034800Y17675417D01*
X9034800Y17675408D01*
X9031360Y17640482D01*
X9034800Y17605556D01*
X9034801Y16286535D01*
X9031360Y16251600D01*
X9034801Y16216664D01*
X9045092Y16112180D01*
X9054798Y16080185D01*
X9085759Y15978119D01*
X9138778Y15878928D01*
X9151799Y15854567D01*
X9240674Y15746273D01*
X9267809Y15724004D01*
X9416002Y15575810D01*
X9438273Y15548673D01*
X9457928Y15532542D01*
X9457928Y15179000D01*
X9467777Y15079000D01*
X9457928Y14979000D01*
X9457928Y14942200D01*
X6237741Y14942200D01*
X6248753Y14978503D01*
X6281000Y15010750D01*
X6273905Y15075773D01*
X6284072Y15179000D01*
X6284072Y15629000D01*
X6274223Y15729000D01*
X6284072Y15829000D01*
X6284072Y16279000D01*
X6274223Y16379000D01*
X6284072Y16479000D01*
X6284072Y16929000D01*
X6274223Y17029000D01*
X6284072Y17129000D01*
X6284072Y17579000D01*
X6271812Y17703482D01*
X6235502Y17823180D01*
X6176537Y17933494D01*
X6097185Y18030185D01*
X6000494Y18109537D01*
X5890180Y18168502D01*
X5770482Y18204812D01*
X5646000Y18217072D01*
X4196000Y18217072D01*
X4071518Y18204812D01*
X3951820Y18168502D01*
X3848394Y18113219D01*
X3857608Y18143592D01*
X3874072Y18310750D01*
X3874072Y18748250D01*
X3857608Y18915408D01*
X3808850Y19076142D01*
X3772045Y19145000D01*
X3880502Y19145000D01*
X3880502Y19303748D01*
X4039250Y19145000D01*
X4428500Y19141928D01*
X4552982Y19154188D01*
X4672680Y19190498D01*
X4782994Y19249463D01*
X4879685Y19328815D01*
X4959037Y19425506D01*
X5018002Y19535820D01*
X5054312Y19655518D01*
X5066572Y19780000D01*
X5063500Y20194250D01*
X4904750Y20353000D01*
X3880500Y20353000D01*
X3880500Y20333000D01*
X3626500Y20333000D01*
X3626500Y20353000D01*
X3606500Y20353000D01*
X3606500Y20607000D01*
X3626500Y20607000D01*
X3626500Y21656250D01*
X3880500Y21656250D01*
X3880500Y20607000D01*
X4904750Y20607000D01*
X5063500Y20765750D01*
X5064452Y20894058D01*
X5089820Y20880498D01*
X5209518Y20844188D01*
X5334000Y20831928D01*
X5523250Y20835000D01*
X5682000Y20993750D01*
X5682000Y21780500D01*
X4857750Y21780500D01*
X4785627Y21708377D01*
X4782994Y21710537D01*
X4672680Y21769502D01*
X4552982Y21805812D01*
X4428500Y21818072D01*
X4039250Y21815000D01*
X3880500Y21656250D01*
X3626500Y21656250D01*
X3480566Y21802184D01*
X3480754Y21841928D01*
X4178501Y21841928D01*
X4351755Y21858992D01*
X4518351Y21909528D01*
X4671887Y21991595D01*
X4797537Y22094713D01*
X4857750Y22034500D01*
G36*
X13309649Y20583503D02*
G01*
X13435000Y21213682D01*
X13435000Y21890318D01*
X13302994Y22553952D01*
X13044057Y23179082D01*
X12937434Y23338655D01*
X12960835Y23334000D01*
X13135165Y23334000D01*
X13306145Y23368010D01*
X13467205Y23434723D01*
X13612155Y23531576D01*
X13735424Y23654845D01*
X13832277Y23799795D01*
X13898990Y23960855D01*
X13933000Y24131835D01*
X13933000Y24306165D01*
X13925076Y24346000D01*
X17072145Y24346000D01*
X13309649Y20583503D01*
G37*
X13309649Y20583503D02*
X13435000Y21213682D01*
X13435000Y21890318D01*
X13302994Y22553952D01*
X13044057Y23179082D01*
X12937434Y23338655D01*
X12960835Y23334000D01*
X13135165Y23334000D01*
X13306145Y23368010D01*
X13467205Y23434723D01*
X13612155Y23531576D01*
X13735424Y23654845D01*
X13832277Y23799795D01*
X13898990Y23960855D01*
X13933000Y24131835D01*
X13933000Y24306165D01*
X13925076Y24346000D01*
X17072145Y24346000D01*
X13309649Y20583503D01*
G36*
X6473000Y34283750D02*
G01*
X6631750Y34125000D01*
X7681000Y34125000D01*
X7681000Y34145000D01*
X7935000Y34145000D01*
X7935000Y34125000D01*
X8984250Y34125000D01*
X9143000Y34283750D01*
X9145209Y34563713D01*
X9152170Y34564399D01*
X9183854Y34564399D01*
X9169928Y34423001D01*
X9169928Y33572999D01*
X9186992Y33399745D01*
X9237528Y33233149D01*
X9319595Y33079613D01*
X9430038Y32945038D01*
X9564613Y32834595D01*
X9718149Y32752528D01*
X9884745Y32701992D01*
X10057999Y32684928D01*
X10958001Y32684928D01*
X11131255Y32701992D01*
X11168202Y32713200D01*
X11168202Y32196215D01*
X10885750Y32195000D01*
X10727000Y32036250D01*
X10727000Y30937000D01*
X10747000Y30937000D01*
X10747000Y30683000D01*
X10727000Y30683000D01*
X10727000Y30663000D01*
X10473000Y30663000D01*
X10473000Y30683000D01*
X9123750Y30683000D01*
X8965000Y30524250D01*
X8961928Y30060000D01*
X8974188Y29935518D01*
X9010498Y29815820D01*
X9069463Y29705506D01*
X9106809Y29660000D01*
X9069463Y29614494D01*
X9010498Y29504180D01*
X8974188Y29384482D01*
X8961928Y29260000D01*
X8961928Y27760000D01*
X8974188Y27635518D01*
X9010498Y27515820D01*
X9069463Y27405506D01*
X9106809Y27360000D01*
X9069463Y27314494D01*
X9010498Y27204180D01*
X8974188Y27084482D01*
X8961928Y26960000D01*
X8961928Y26623200D01*
X8228561Y26623200D01*
X8186584Y26761582D01*
X8113758Y26897829D01*
X8015751Y27017251D01*
X7896329Y27115258D01*
X7760082Y27188084D01*
X7612245Y27232929D01*
X7458500Y27248072D01*
X7158500Y27248072D01*
X7004755Y27232929D01*
X6856918Y27188084D01*
X6720671Y27115258D01*
X6673500Y27076546D01*
X6626329Y27115258D01*
X6490082Y27188084D01*
X6342245Y27232929D01*
X6188500Y27248072D01*
X5888500Y27248072D01*
X5734755Y27232929D01*
X5586918Y27188084D01*
X5450671Y27115258D01*
X5403500Y27076546D01*
X5356329Y27115258D01*
X5220082Y27188084D01*
X5072245Y27232929D01*
X4918500Y27248072D01*
X4618500Y27248072D01*
X4464755Y27232929D01*
X4316918Y27188084D01*
X4180671Y27115258D01*
X4133500Y27076546D01*
X4086329Y27115258D01*
X3950082Y27188084D01*
X3802245Y27232929D01*
X3648500Y27248072D01*
X3506221Y27248072D01*
X3508655Y27764762D01*
X5332089Y29588195D01*
X5364064Y29614436D01*
X5407239Y29667045D01*
X5494320Y29620498D01*
X5614018Y29584188D01*
X5738500Y29571928D01*
X5752750Y29575000D01*
X5911500Y29733750D01*
X5911500Y30908000D01*
X5891500Y30908000D01*
X5891500Y31162000D01*
X5911500Y31162000D01*
X5911500Y31182000D01*
X6165500Y31182000D01*
X6165500Y31162000D01*
X6185500Y31162000D01*
X6185500Y30908000D01*
X6165500Y30908000D01*
X6165500Y29733750D01*
X6324250Y29575000D01*
X6338500Y29571928D01*
X6462982Y29584188D01*
X6582680Y29620498D01*
X6692994Y29679463D01*
X6722564Y29703730D01*
X6856918Y29631916D01*
X7004755Y29587071D01*
X7158500Y29571928D01*
X7458500Y29571928D01*
X7612245Y29587071D01*
X7760082Y29631916D01*
X7896329Y29704742D01*
X8015751Y29802749D01*
X8113758Y29922171D01*
X8186584Y30058418D01*
X8231429Y30206255D01*
X8246572Y30360000D01*
X8246572Y31560000D01*
X8961928Y31560000D01*
X8965000Y31095750D01*
X9123750Y30937000D01*
X10473000Y30937000D01*
X10473000Y32036250D01*
X10314250Y32195000D01*
X9600000Y32198072D01*
X9475518Y32185812D01*
X9355820Y32149502D01*
X9245506Y32090537D01*
X9148815Y32011185D01*
X9069463Y31914494D01*
X9010498Y31804180D01*
X8974188Y31684482D01*
X8961928Y31560000D01*
X8246572Y31560000D01*
X8246572Y31710000D01*
X8231429Y31863745D01*
X8186584Y32011582D01*
X8113758Y32147829D01*
X8087338Y32180021D01*
X8086642Y32182317D01*
X8008809Y32327932D01*
X7971389Y32373528D01*
X7930308Y32423586D01*
X7930306Y32423588D01*
X7904064Y32455564D01*
X7872089Y32481805D01*
X7594072Y32759822D01*
X7681000Y32846750D01*
X7681000Y33871000D01*
X7935000Y33871000D01*
X7935000Y32846750D01*
X8093750Y32688000D01*
X8508000Y32684928D01*
X8632482Y32697188D01*
X8752180Y32733498D01*
X8862494Y32792463D01*
X8959185Y32871815D01*
X9038537Y32968506D01*
X9097502Y33078820D01*
X9133812Y33198518D01*
X9146072Y33323000D01*
X9143000Y33712250D01*
X8984250Y33871000D01*
X7935000Y33871000D01*
X7681000Y33871000D01*
X6631750Y33871000D01*
X6557322Y33796572D01*
X5789494Y34564399D01*
X6470785Y34564399D01*
X6473000Y34283750D01*
G37*
X6473000Y34283750D02*
X6631750Y34125000D01*
X7681000Y34125000D01*
X7681000Y34145000D01*
X7935000Y34145000D01*
X7935000Y34125000D01*
X8984250Y34125000D01*
X9143000Y34283750D01*
X9145209Y34563713D01*
X9152170Y34564399D01*
X9183854Y34564399D01*
X9169928Y34423001D01*
X9169928Y33572999D01*
X9186992Y33399745D01*
X9237528Y33233149D01*
X9319595Y33079613D01*
X9430038Y32945038D01*
X9564613Y32834595D01*
X9718149Y32752528D01*
X9884745Y32701992D01*
X10057999Y32684928D01*
X10958001Y32684928D01*
X11131255Y32701992D01*
X11168202Y32713200D01*
X11168202Y32196215D01*
X10885750Y32195000D01*
X10727000Y32036250D01*
X10727000Y30937000D01*
X10747000Y30937000D01*
X10747000Y30683000D01*
X10727000Y30683000D01*
X10727000Y30663000D01*
X10473000Y30663000D01*
X10473000Y30683000D01*
X9123750Y30683000D01*
X8965000Y30524250D01*
X8961928Y30060000D01*
X8974188Y29935518D01*
X9010498Y29815820D01*
X9069463Y29705506D01*
X9106809Y29660000D01*
X9069463Y29614494D01*
X9010498Y29504180D01*
X8974188Y29384482D01*
X8961928Y29260000D01*
X8961928Y27760000D01*
X8974188Y27635518D01*
X9010498Y27515820D01*
X9069463Y27405506D01*
X9106809Y27360000D01*
X9069463Y27314494D01*
X9010498Y27204180D01*
X8974188Y27084482D01*
X8961928Y26960000D01*
X8961928Y26623200D01*
X8228561Y26623200D01*
X8186584Y26761582D01*
X8113758Y26897829D01*
X8015751Y27017251D01*
X7896329Y27115258D01*
X7760082Y27188084D01*
X7612245Y27232929D01*
X7458500Y27248072D01*
X7158500Y27248072D01*
X7004755Y27232929D01*
X6856918Y27188084D01*
X6720671Y27115258D01*
X6673500Y27076546D01*
X6626329Y27115258D01*
X6490082Y27188084D01*
X6342245Y27232929D01*
X6188500Y27248072D01*
X5888500Y27248072D01*
X5734755Y27232929D01*
X5586918Y27188084D01*
X5450671Y27115258D01*
X5403500Y27076546D01*
X5356329Y27115258D01*
X5220082Y27188084D01*
X5072245Y27232929D01*
X4918500Y27248072D01*
X4618500Y27248072D01*
X4464755Y27232929D01*
X4316918Y27188084D01*
X4180671Y27115258D01*
X4133500Y27076546D01*
X4086329Y27115258D01*
X3950082Y27188084D01*
X3802245Y27232929D01*
X3648500Y27248072D01*
X3506221Y27248072D01*
X3508655Y27764762D01*
X5332089Y29588195D01*
X5364064Y29614436D01*
X5407239Y29667045D01*
X5494320Y29620498D01*
X5614018Y29584188D01*
X5738500Y29571928D01*
X5752750Y29575000D01*
X5911500Y29733750D01*
X5911500Y30908000D01*
X5891500Y30908000D01*
X5891500Y31162000D01*
X5911500Y31162000D01*
X5911500Y31182000D01*
X6165500Y31182000D01*
X6165500Y31162000D01*
X6185500Y31162000D01*
X6185500Y30908000D01*
X6165500Y30908000D01*
X6165500Y29733750D01*
X6324250Y29575000D01*
X6338500Y29571928D01*
X6462982Y29584188D01*
X6582680Y29620498D01*
X6692994Y29679463D01*
X6722564Y29703730D01*
X6856918Y29631916D01*
X7004755Y29587071D01*
X7158500Y29571928D01*
X7458500Y29571928D01*
X7612245Y29587071D01*
X7760082Y29631916D01*
X7896329Y29704742D01*
X8015751Y29802749D01*
X8113758Y29922171D01*
X8186584Y30058418D01*
X8231429Y30206255D01*
X8246572Y30360000D01*
X8246572Y31560000D01*
X8961928Y31560000D01*
X8965000Y31095750D01*
X9123750Y30937000D01*
X10473000Y30937000D01*
X10473000Y32036250D01*
X10314250Y32195000D01*
X9600000Y32198072D01*
X9475518Y32185812D01*
X9355820Y32149502D01*
X9245506Y32090537D01*
X9148815Y32011185D01*
X9069463Y31914494D01*
X9010498Y31804180D01*
X8974188Y31684482D01*
X8961928Y31560000D01*
X8246572Y31560000D01*
X8246572Y31710000D01*
X8231429Y31863745D01*
X8186584Y32011582D01*
X8113758Y32147829D01*
X8087338Y32180021D01*
X8086642Y32182317D01*
X8008809Y32327932D01*
X7971389Y32373528D01*
X7930308Y32423586D01*
X7930306Y32423588D01*
X7904064Y32455564D01*
X7872089Y32481805D01*
X7594072Y32759822D01*
X7681000Y32846750D01*
X7681000Y33871000D01*
X7935000Y33871000D01*
X7935000Y32846750D01*
X8093750Y32688000D01*
X8508000Y32684928D01*
X8632482Y32697188D01*
X8752180Y32733498D01*
X8862494Y32792463D01*
X8959185Y32871815D01*
X9038537Y32968506D01*
X9097502Y33078820D01*
X9133812Y33198518D01*
X9146072Y33323000D01*
X9143000Y33712250D01*
X8984250Y33871000D01*
X7935000Y33871000D01*
X7681000Y33871000D01*
X6631750Y33871000D01*
X6557322Y33796572D01*
X5789494Y34564399D01*
X6470785Y34564399D01*
X6473000Y34283750D01*
G36*
X16419368Y38178525D02*
G01*
X16593760Y38062000D01*
X16419368Y37945475D01*
X16212525Y37738632D01*
X16050010Y37495411D01*
X15938068Y37225158D01*
X15881000Y36938260D01*
X15881000Y36645740D01*
X15938068Y36358842D01*
X16050010Y36088589D01*
X16212525Y35845368D01*
X16344380Y35713513D01*
X16271820Y35691502D01*
X16161506Y35632537D01*
X16064815Y35553185D01*
X15985463Y35456494D01*
X15926498Y35346180D01*
X15890188Y35226482D01*
X15877928Y35102000D01*
X15881000Y34537750D01*
X16039750Y34379000D01*
X17239000Y34379000D01*
X17239000Y34399000D01*
X17493000Y34399000D01*
X17493000Y34379000D01*
X17513000Y34379000D01*
X17513000Y34125000D01*
X17493000Y34125000D01*
X17493000Y32925750D01*
X17651750Y32767000D01*
X18102612Y32764545D01*
X18102612Y32728000D01*
X15368166Y32728000D01*
X15397185Y32751815D01*
X15476537Y32848506D01*
X15535502Y32958820D01*
X15571812Y33078518D01*
X15584072Y33203000D01*
X15581000Y33392250D01*
X15571250Y33402000D01*
X15877928Y33402000D01*
X15890188Y33277518D01*
X15926498Y33157820D01*
X15985463Y33047506D01*
X16064815Y32950815D01*
X16161506Y32871463D01*
X16271820Y32812498D01*
X16391518Y32776188D01*
X16516000Y32763928D01*
X17080250Y32767000D01*
X17239000Y32925750D01*
X17239000Y34125000D01*
X16039750Y34125000D01*
X15881000Y33966250D01*
X15877928Y33402000D01*
X15571250Y33402000D01*
X15422250Y33551000D01*
X14635500Y33551000D01*
X14635500Y32726750D01*
X14794250Y32568000D01*
X14913706Y32565582D01*
X14884987Y32542013D01*
X14435974Y32093000D01*
X13048000Y32093000D01*
X12924118Y32080799D01*
X12844601Y32056678D01*
X12844601Y32564928D01*
X13152250Y32564928D01*
X13319408Y32581392D01*
X13480142Y32630150D01*
X13628275Y32709329D01*
X13649930Y32727100D01*
X13716506Y32672463D01*
X13826820Y32613498D01*
X13946518Y32577188D01*
X14071000Y32564928D01*
X14222750Y32568000D01*
X14381500Y32726750D01*
X14381500Y33551000D01*
X14361500Y33551000D01*
X14361500Y33805000D01*
X14381500Y33805000D01*
X14381500Y34629250D01*
X14635500Y34629250D01*
X14635500Y33805000D01*
X15422250Y33805000D01*
X15581000Y33963750D01*
X15584072Y34153000D01*
X15571812Y34277482D01*
X15535502Y34397180D01*
X15476537Y34507494D01*
X15397185Y34604185D01*
X15300494Y34683537D01*
X15190180Y34742502D01*
X15070482Y34778812D01*
X14946000Y34791072D01*
X14794250Y34788000D01*
X14635500Y34629250D01*
X14381500Y34629250D01*
X14222750Y34788000D01*
X14071000Y34791072D01*
X13946518Y34778812D01*
X13826820Y34742502D01*
X13716506Y34683537D01*
X13649930Y34628900D01*
X13628275Y34646671D01*
X13480142Y34725850D01*
X13319408Y34774608D01*
X13152250Y34791072D01*
X12714750Y34791072D01*
X12547592Y34774608D01*
X12386858Y34725850D01*
X12238725Y34646671D01*
X12108885Y34540115D01*
X12002329Y34410275D01*
X11994941Y34396453D01*
X11832708Y34558685D01*
X11829008Y34596255D01*
X11778472Y34762851D01*
X11696405Y34916387D01*
X11585962Y35050962D01*
X11451387Y35161405D01*
X11433571Y35170928D01*
X11546000Y35170928D01*
X11670482Y35183188D01*
X11790180Y35219498D01*
X11900494Y35278463D01*
X11954519Y35322800D01*
X11971204Y35322800D01*
X12008885Y35276885D01*
X12138725Y35170329D01*
X12286858Y35091150D01*
X12447592Y35042392D01*
X12614750Y35025928D01*
X13127250Y35025928D01*
X13294408Y35042392D01*
X13455142Y35091150D01*
X13603275Y35170329D01*
X13649930Y35208617D01*
X13741506Y35133463D01*
X13851820Y35074498D01*
X13971518Y35038188D01*
X14096000Y35025928D01*
X14285250Y35029000D01*
X14444000Y35187750D01*
X14444000Y35974500D01*
X14698000Y35974500D01*
X14698000Y35187750D01*
X14856750Y35029000D01*
X15046000Y35025928D01*
X15170482Y35038188D01*
X15290180Y35074498D01*
X15400494Y35133463D01*
X15497185Y35212815D01*
X15576537Y35309506D01*
X15635502Y35419820D01*
X15671812Y35539518D01*
X15684072Y35664000D01*
X15681000Y35815750D01*
X15522250Y35974500D01*
X14698000Y35974500D01*
X14444000Y35974500D01*
X14424000Y35974500D01*
X14424000Y36228500D01*
X14444000Y36228500D01*
X14444000Y36248500D01*
X14698000Y36248500D01*
X14698000Y36228500D01*
X15522250Y36228500D01*
X15681000Y36387250D01*
X15684072Y36539000D01*
X15671812Y36663482D01*
X15635502Y36783180D01*
X15576537Y36893494D01*
X15521900Y36960070D01*
X15539671Y36981725D01*
X15618850Y37129858D01*
X15667608Y37290592D01*
X15684072Y37457750D01*
X15684072Y37783784D01*
X16249091Y38348802D01*
X16419368Y38178525D01*
G37*
X16419368Y38178525D02*
X16593760Y38062000D01*
X16419368Y37945475D01*
X16212525Y37738632D01*
X16050010Y37495411D01*
X15938068Y37225158D01*
X15881000Y36938260D01*
X15881000Y36645740D01*
X15938068Y36358842D01*
X16050010Y36088589D01*
X16212525Y35845368D01*
X16344380Y35713513D01*
X16271820Y35691502D01*
X16161506Y35632537D01*
X16064815Y35553185D01*
X15985463Y35456494D01*
X15926498Y35346180D01*
X15890188Y35226482D01*
X15877928Y35102000D01*
X15881000Y34537750D01*
X16039750Y34379000D01*
X17239000Y34379000D01*
X17239000Y34399000D01*
X17493000Y34399000D01*
X17493000Y34379000D01*
X17513000Y34379000D01*
X17513000Y34125000D01*
X17493000Y34125000D01*
X17493000Y32925750D01*
X17651750Y32767000D01*
X18102612Y32764545D01*
X18102612Y32728000D01*
X15368166Y32728000D01*
X15397185Y32751815D01*
X15476537Y32848506D01*
X15535502Y32958820D01*
X15571812Y33078518D01*
X15584072Y33203000D01*
X15581000Y33392250D01*
X15571250Y33402000D01*
X15877928Y33402000D01*
X15890188Y33277518D01*
X15926498Y33157820D01*
X15985463Y33047506D01*
X16064815Y32950815D01*
X16161506Y32871463D01*
X16271820Y32812498D01*
X16391518Y32776188D01*
X16516000Y32763928D01*
X17080250Y32767000D01*
X17239000Y32925750D01*
X17239000Y34125000D01*
X16039750Y34125000D01*
X15881000Y33966250D01*
X15877928Y33402000D01*
X15571250Y33402000D01*
X15422250Y33551000D01*
X14635500Y33551000D01*
X14635500Y32726750D01*
X14794250Y32568000D01*
X14913706Y32565582D01*
X14884987Y32542013D01*
X14435974Y32093000D01*
X13048000Y32093000D01*
X12924118Y32080799D01*
X12844601Y32056678D01*
X12844601Y32564928D01*
X13152250Y32564928D01*
X13319408Y32581392D01*
X13480142Y32630150D01*
X13628275Y32709329D01*
X13649930Y32727100D01*
X13716506Y32672463D01*
X13826820Y32613498D01*
X13946518Y32577188D01*
X14071000Y32564928D01*
X14222750Y32568000D01*
X14381500Y32726750D01*
X14381500Y33551000D01*
X14361500Y33551000D01*
X14361500Y33805000D01*
X14381500Y33805000D01*
X14381500Y34629250D01*
X14635500Y34629250D01*
X14635500Y33805000D01*
X15422250Y33805000D01*
X15581000Y33963750D01*
X15584072Y34153000D01*
X15571812Y34277482D01*
X15535502Y34397180D01*
X15476537Y34507494D01*
X15397185Y34604185D01*
X15300494Y34683537D01*
X15190180Y34742502D01*
X15070482Y34778812D01*
X14946000Y34791072D01*
X14794250Y34788000D01*
X14635500Y34629250D01*
X14381500Y34629250D01*
X14222750Y34788000D01*
X14071000Y34791072D01*
X13946518Y34778812D01*
X13826820Y34742502D01*
X13716506Y34683537D01*
X13649930Y34628900D01*
X13628275Y34646671D01*
X13480142Y34725850D01*
X13319408Y34774608D01*
X13152250Y34791072D01*
X12714750Y34791072D01*
X12547592Y34774608D01*
X12386858Y34725850D01*
X12238725Y34646671D01*
X12108885Y34540115D01*
X12002329Y34410275D01*
X11994941Y34396453D01*
X11832708Y34558685D01*
X11829008Y34596255D01*
X11778472Y34762851D01*
X11696405Y34916387D01*
X11585962Y35050962D01*
X11451387Y35161405D01*
X11433571Y35170928D01*
X11546000Y35170928D01*
X11670482Y35183188D01*
X11790180Y35219498D01*
X11900494Y35278463D01*
X11954519Y35322800D01*
X11971204Y35322800D01*
X12008885Y35276885D01*
X12138725Y35170329D01*
X12286858Y35091150D01*
X12447592Y35042392D01*
X12614750Y35025928D01*
X13127250Y35025928D01*
X13294408Y35042392D01*
X13455142Y35091150D01*
X13603275Y35170329D01*
X13649930Y35208617D01*
X13741506Y35133463D01*
X13851820Y35074498D01*
X13971518Y35038188D01*
X14096000Y35025928D01*
X14285250Y35029000D01*
X14444000Y35187750D01*
X14444000Y35974500D01*
X14698000Y35974500D01*
X14698000Y35187750D01*
X14856750Y35029000D01*
X15046000Y35025928D01*
X15170482Y35038188D01*
X15290180Y35074498D01*
X15400494Y35133463D01*
X15497185Y35212815D01*
X15576537Y35309506D01*
X15635502Y35419820D01*
X15671812Y35539518D01*
X15684072Y35664000D01*
X15681000Y35815750D01*
X15522250Y35974500D01*
X14698000Y35974500D01*
X14444000Y35974500D01*
X14424000Y35974500D01*
X14424000Y36228500D01*
X14444000Y36228500D01*
X14444000Y36248500D01*
X14698000Y36248500D01*
X14698000Y36228500D01*
X15522250Y36228500D01*
X15681000Y36387250D01*
X15684072Y36539000D01*
X15671812Y36663482D01*
X15635502Y36783180D01*
X15576537Y36893494D01*
X15521900Y36960070D01*
X15539671Y36981725D01*
X15618850Y37129858D01*
X15667608Y37290592D01*
X15684072Y37457750D01*
X15684072Y37783784D01*
X16249091Y38348802D01*
X16419368Y38178525D01*
G36*
X9034801Y40816535D02*
G01*
X9031360Y40781600D01*
X9034801Y40746664D01*
X9045092Y40642180D01*
X9075619Y40541545D01*
X9085759Y40508119D01*
X9151798Y40384568D01*
X9212569Y40310519D01*
X9240674Y40276273D01*
X9267809Y40254004D01*
X9416002Y40105810D01*
X9438273Y40078673D01*
X9457928Y40062542D01*
X9457928Y39709000D01*
X9467777Y39609000D01*
X9457928Y39509000D01*
X9457928Y39466596D01*
X9391684Y39460071D01*
X9233683Y39412142D01*
X9088068Y39334309D01*
X8960436Y39229564D01*
X8934189Y39197582D01*
X8547418Y38810811D01*
X8515436Y38784564D01*
X8410691Y38656931D01*
X8332858Y38511316D01*
X8284929Y38353315D01*
X8272800Y38230169D01*
X8272800Y38230163D01*
X8268746Y38189000D01*
X8272800Y38147837D01*
X8272801Y36240799D01*
X6284072Y36240799D01*
X6284072Y36259000D01*
X6274223Y36359000D01*
X6284072Y36459000D01*
X6284072Y36797174D01*
X6370548Y36805691D01*
X6504609Y36846358D01*
X6628161Y36912398D01*
X6736455Y37001273D01*
X6758729Y37028414D01*
X7709600Y37979283D01*
X7736726Y38001545D01*
X7758988Y38028671D01*
X7758997Y38028680D01*
X7825602Y38109839D01*
X7828474Y38115212D01*
X7891642Y38233391D01*
X7932309Y38367452D01*
X7942600Y38471936D01*
X7942600Y38471945D01*
X7946040Y38506871D01*
X7942600Y38541797D01*
X7942600Y40752285D01*
X9034800Y41844485D01*
X9034801Y40816535D01*
G37*
X9034801Y40816535D02*
X9031360Y40781600D01*
X9034801Y40746664D01*
X9045092Y40642180D01*
X9075619Y40541545D01*
X9085759Y40508119D01*
X9151798Y40384568D01*
X9212569Y40310519D01*
X9240674Y40276273D01*
X9267809Y40254004D01*
X9416002Y40105810D01*
X9438273Y40078673D01*
X9457928Y40062542D01*
X9457928Y39709000D01*
X9467777Y39609000D01*
X9457928Y39509000D01*
X9457928Y39466596D01*
X9391684Y39460071D01*
X9233683Y39412142D01*
X9088068Y39334309D01*
X8960436Y39229564D01*
X8934189Y39197582D01*
X8547418Y38810811D01*
X8515436Y38784564D01*
X8410691Y38656931D01*
X8332858Y38511316D01*
X8284929Y38353315D01*
X8272800Y38230169D01*
X8272800Y38230163D01*
X8268746Y38189000D01*
X8272800Y38147837D01*
X8272801Y36240799D01*
X6284072Y36240799D01*
X6284072Y36259000D01*
X6274223Y36359000D01*
X6284072Y36459000D01*
X6284072Y36797174D01*
X6370548Y36805691D01*
X6504609Y36846358D01*
X6628161Y36912398D01*
X6736455Y37001273D01*
X6758729Y37028414D01*
X7709600Y37979283D01*
X7736726Y38001545D01*
X7758988Y38028671D01*
X7758997Y38028680D01*
X7825602Y38109839D01*
X7828474Y38115212D01*
X7891642Y38233391D01*
X7932309Y38367452D01*
X7942600Y38471936D01*
X7942600Y38471945D01*
X7946040Y38506871D01*
X7942600Y38541797D01*
X7942600Y40752285D01*
X9034800Y41844485D01*
X9034801Y40816535D01*
G36*
X12998000Y37803500D02*
G01*
X13018000Y37803500D01*
X13018000Y37549500D01*
X12998000Y37549500D01*
X12998000Y37529500D01*
X12744000Y37529500D01*
X12744000Y37549500D01*
X12724000Y37549500D01*
X12724000Y37803500D01*
X12744000Y37803500D01*
X12744000Y37823500D01*
X12998000Y37823500D01*
X12998000Y37803500D01*
G37*
X12998000Y37803500D02*
X13018000Y37803500D01*
X13018000Y37549500D01*
X12998000Y37549500D01*
X12998000Y37529500D01*
X12744000Y37529500D01*
X12744000Y37549500D01*
X12724000Y37549500D01*
X12724000Y37803500D01*
X12744000Y37803500D01*
X12744000Y37823500D01*
X12998000Y37823500D01*
X12998000Y37803500D01*
G36*
X1922800Y42660742D02*
G01*
X1898885Y42641115D01*
X1792329Y42511275D01*
X1713150Y42363142D01*
X1664392Y42202408D01*
X1647928Y42035250D01*
X1647928Y41597750D01*
X1664392Y41430592D01*
X1713150Y41269858D01*
X1792329Y41121725D01*
X1810100Y41100070D01*
X1755463Y41033494D01*
X1696498Y40923180D01*
X1660188Y40803482D01*
X1647928Y40679000D01*
X1651000Y40527250D01*
X1809750Y40368500D01*
X2634000Y40368500D01*
X2634000Y40388500D01*
X2811800Y40388500D01*
X2811800Y40094500D01*
X2634000Y40094500D01*
X2634000Y40114500D01*
X1809750Y40114500D01*
X1651000Y39955750D01*
X1647928Y39804000D01*
X1660188Y39679518D01*
X1696498Y39559820D01*
X1755463Y39449506D01*
X1834815Y39352815D01*
X1931506Y39273463D01*
X1990964Y39241682D01*
X1919833Y39183306D01*
X1883217Y39179700D01*
X1883210Y39179700D01*
X1760064Y39167571D01*
X1602063Y39119642D01*
X1456448Y39041809D01*
X1360869Y38963369D01*
X1328816Y38937064D01*
X1302573Y38905087D01*
X660000Y38262513D01*
X660000Y44602500D01*
X1922801Y44602500D01*
X1922800Y42660742D01*
G37*
X1922800Y42660742D02*
X1898885Y42641115D01*
X1792329Y42511275D01*
X1713150Y42363142D01*
X1664392Y42202408D01*
X1647928Y42035250D01*
X1647928Y41597750D01*
X1664392Y41430592D01*
X1713150Y41269858D01*
X1792329Y41121725D01*
X1810100Y41100070D01*
X1755463Y41033494D01*
X1696498Y40923180D01*
X1660188Y40803482D01*
X1647928Y40679000D01*
X1651000Y40527250D01*
X1809750Y40368500D01*
X2634000Y40368500D01*
X2634000Y40388500D01*
X2811800Y40388500D01*
X2811800Y40094500D01*
X2634000Y40094500D01*
X2634000Y40114500D01*
X1809750Y40114500D01*
X1651000Y39955750D01*
X1647928Y39804000D01*
X1660188Y39679518D01*
X1696498Y39559820D01*
X1755463Y39449506D01*
X1834815Y39352815D01*
X1931506Y39273463D01*
X1990964Y39241682D01*
X1919833Y39183306D01*
X1883217Y39179700D01*
X1883210Y39179700D01*
X1760064Y39167571D01*
X1602063Y39119642D01*
X1456448Y39041809D01*
X1360869Y38963369D01*
X1328816Y38937064D01*
X1302573Y38905087D01*
X660000Y38262513D01*
X660000Y44602500D01*
X1922801Y44602500D01*
X1922800Y42660742D01*
G36*
X6215400Y39411002D02*
G01*
X6206735Y39411002D01*
X6215400Y39427213D01*
X6215400Y39411002D01*
G37*
X6215400Y39411002D02*
X6206735Y39411002D01*
X6215400Y39427213D01*
X6215400Y39411002D01*
D27*
G36*
X17874000Y31175369D02*
G01*
X17598500Y31172000D01*
X17408000Y30981500D01*
X17408000Y29018000D01*
X17428000Y29018000D01*
X17428000Y28002000D01*
X17408000Y28002000D01*
X17408000Y26038500D01*
X17598500Y25848000D01*
X17874000Y25844631D01*
X17874000Y25235000D01*
X13302000Y25235000D01*
X13302000Y26610000D01*
X15134313Y26610000D01*
X15149025Y26460622D01*
X15192597Y26316984D01*
X15263355Y26184607D01*
X15358578Y26068578D01*
X15474607Y25973355D01*
X15606984Y25902597D01*
X15750622Y25859025D01*
X15900000Y25844313D01*
X16201500Y25848000D01*
X16392000Y26038500D01*
X16392000Y28002000D01*
X15328500Y28002000D01*
X15138000Y27811500D01*
X15134313Y26610000D01*
X13302000Y26610000D01*
X13302000Y30410000D01*
X15134313Y30410000D01*
X15138000Y29208500D01*
X15328500Y29018000D01*
X16392000Y29018000D01*
X16392000Y30981500D01*
X16201500Y31172000D01*
X15900000Y31175687D01*
X15750622Y31160975D01*
X15606984Y31117403D01*
X15474607Y31046645D01*
X15358578Y30951422D01*
X15263355Y30835393D01*
X15192597Y30703016D01*
X15149025Y30559378D01*
X15134313Y30410000D01*
X13302000Y30410000D01*
X13302000Y31204000D01*
X14699000Y31204000D01*
X14748553Y31208881D01*
X14796202Y31223335D01*
X14840115Y31246807D01*
X14878605Y31278395D01*
X15439210Y31839000D01*
X17874000Y31839000D01*
X17874000Y31175369D01*
G37*
X17874000Y31175369D02*
X17598500Y31172000D01*
X17408000Y30981500D01*
X17408000Y29018000D01*
X17428000Y29018000D01*
X17428000Y28002000D01*
X17408000Y28002000D01*
X17408000Y26038500D01*
X17598500Y25848000D01*
X17874000Y25844631D01*
X17874000Y25235000D01*
X13302000Y25235000D01*
X13302000Y26610000D01*
X15134313Y26610000D01*
X15149025Y26460622D01*
X15192597Y26316984D01*
X15263355Y26184607D01*
X15358578Y26068578D01*
X15474607Y25973355D01*
X15606984Y25902597D01*
X15750622Y25859025D01*
X15900000Y25844313D01*
X16201500Y25848000D01*
X16392000Y26038500D01*
X16392000Y28002000D01*
X15328500Y28002000D01*
X15138000Y27811500D01*
X15134313Y26610000D01*
X13302000Y26610000D01*
X13302000Y30410000D01*
X15134313Y30410000D01*
X15138000Y29208500D01*
X15328500Y29018000D01*
X16392000Y29018000D01*
X16392000Y30981500D01*
X16201500Y31172000D01*
X15900000Y31175687D01*
X15750622Y31160975D01*
X15606984Y31117403D01*
X15474607Y31046645D01*
X15358578Y30951422D01*
X15263355Y30835393D01*
X15192597Y30703016D01*
X15149025Y30559378D01*
X15134313Y30410000D01*
X13302000Y30410000D01*
X13302000Y31204000D01*
X14699000Y31204000D01*
X14748553Y31208881D01*
X14796202Y31223335D01*
X14840115Y31246807D01*
X14878605Y31278395D01*
X15439210Y31839000D01*
X17874000Y31839000D01*
X17874000Y31175369D01*
D25*
G36*
X3712645Y49322144D02*
G01*
X3418239Y49193010D01*
X3154683Y49008922D01*
X2932105Y48776954D01*
X2759058Y48506020D01*
X2642193Y48206532D01*
X2586000Y47890000D01*
X2586000Y47190000D01*
X4094000Y47190000D01*
X4094000Y47210000D01*
X4348000Y47210000D01*
X4348000Y47190000D01*
X5856000Y47190000D01*
X5856000Y47890000D01*
X5799807Y48206532D01*
X5682942Y48506020D01*
X5509895Y48776954D01*
X5287317Y49008922D01*
X5023761Y49193010D01*
X4729355Y49322144D01*
X4655625Y49340000D01*
X15486375Y49340000D01*
X15412645Y49322144D01*
X15118239Y49193010D01*
X14854683Y49008922D01*
X14632105Y48776954D01*
X14459058Y48506020D01*
X14342193Y48206532D01*
X14286000Y47890000D01*
X14286000Y47190000D01*
X15794000Y47190000D01*
X15794000Y47210000D01*
X16048000Y47210000D01*
X16048000Y47190000D01*
X17556000Y47190000D01*
X17556000Y47890000D01*
X17499807Y48206532D01*
X17382942Y48506020D01*
X17209895Y48776954D01*
X16987317Y49008922D01*
X16723761Y49193010D01*
X16429355Y49322144D01*
X16355625Y49340000D01*
X19340001Y49340000D01*
X19340001Y45364500D01*
X17219766Y45364500D01*
X17382942Y45619980D01*
X17499807Y45919468D01*
X17556000Y46236000D01*
X17556000Y46936000D01*
X16048000Y46936000D01*
X16048000Y46916000D01*
X15794000Y46916000D01*
X15794000Y46936000D01*
X14286000Y46936000D01*
X14286000Y46511111D01*
X14250727Y46534680D01*
X13989574Y46642853D01*
X13712335Y46698000D01*
X13429665Y46698000D01*
X13390065Y46690123D01*
X13407383Y46731933D01*
X13451000Y46951212D01*
X13451000Y47174788D01*
X13407383Y47394067D01*
X13321824Y47600624D01*
X13197612Y47786520D01*
X13039520Y47944612D01*
X12853624Y48068824D01*
X12647067Y48154383D01*
X12427788Y48198000D01*
X12204212Y48198000D01*
X11984933Y48154383D01*
X11778376Y48068824D01*
X11592480Y47944612D01*
X11434388Y47786520D01*
X11310176Y47600624D01*
X11224617Y47394067D01*
X11181000Y47174788D01*
X11181000Y46951212D01*
X11224617Y46731933D01*
X11241037Y46692291D01*
X11212335Y46698000D01*
X10929665Y46698000D01*
X10652426Y46642853D01*
X10391273Y46534680D01*
X10156241Y46377637D01*
X10071000Y46292396D01*
X9985759Y46377637D01*
X9750727Y46534680D01*
X9489574Y46642853D01*
X9212335Y46698000D01*
X8929665Y46698000D01*
X8900963Y46692291D01*
X8917383Y46731933D01*
X8961000Y46951212D01*
X8961000Y47174788D01*
X8917383Y47394067D01*
X8831824Y47600624D01*
X8707612Y47786520D01*
X8549520Y47944612D01*
X8363624Y48068824D01*
X8157067Y48154383D01*
X7937788Y48198000D01*
X7714212Y48198000D01*
X7494933Y48154383D01*
X7288376Y48068824D01*
X7102480Y47944612D01*
X6944388Y47786520D01*
X6820176Y47600624D01*
X6734617Y47394067D01*
X6691000Y47174788D01*
X6691000Y46951212D01*
X6734617Y46731933D01*
X6751935Y46690123D01*
X6712335Y46698000D01*
X6429665Y46698000D01*
X6152426Y46642853D01*
X5891273Y46534680D01*
X5856000Y46511111D01*
X5856000Y46936000D01*
X4348000Y46936000D01*
X4348000Y46916000D01*
X4094000Y46916000D01*
X4094000Y46936000D01*
X2586000Y46936000D01*
X2586000Y46236000D01*
X2642193Y45919468D01*
X2759058Y45619980D01*
X2922234Y45364500D01*
X660000Y45364500D01*
X660000Y49340000D01*
X3786375Y49340000D01*
X3712645Y49322144D01*
G37*
X3712645Y49322144D02*
X3418239Y49193010D01*
X3154683Y49008922D01*
X2932105Y48776954D01*
X2759058Y48506020D01*
X2642193Y48206532D01*
X2586000Y47890000D01*
X2586000Y47190000D01*
X4094000Y47190000D01*
X4094000Y47210000D01*
X4348000Y47210000D01*
X4348000Y47190000D01*
X5856000Y47190000D01*
X5856000Y47890000D01*
X5799807Y48206532D01*
X5682942Y48506020D01*
X5509895Y48776954D01*
X5287317Y49008922D01*
X5023761Y49193010D01*
X4729355Y49322144D01*
X4655625Y49340000D01*
X15486375Y49340000D01*
X15412645Y49322144D01*
X15118239Y49193010D01*
X14854683Y49008922D01*
X14632105Y48776954D01*
X14459058Y48506020D01*
X14342193Y48206532D01*
X14286000Y47890000D01*
X14286000Y47190000D01*
X15794000Y47190000D01*
X15794000Y47210000D01*
X16048000Y47210000D01*
X16048000Y47190000D01*
X17556000Y47190000D01*
X17556000Y47890000D01*
X17499807Y48206532D01*
X17382942Y48506020D01*
X17209895Y48776954D01*
X16987317Y49008922D01*
X16723761Y49193010D01*
X16429355Y49322144D01*
X16355625Y49340000D01*
X19340001Y49340000D01*
X19340001Y45364500D01*
X17219766Y45364500D01*
X17382942Y45619980D01*
X17499807Y45919468D01*
X17556000Y46236000D01*
X17556000Y46936000D01*
X16048000Y46936000D01*
X16048000Y46916000D01*
X15794000Y46916000D01*
X15794000Y46936000D01*
X14286000Y46936000D01*
X14286000Y46511111D01*
X14250727Y46534680D01*
X13989574Y46642853D01*
X13712335Y46698000D01*
X13429665Y46698000D01*
X13390065Y46690123D01*
X13407383Y46731933D01*
X13451000Y46951212D01*
X13451000Y47174788D01*
X13407383Y47394067D01*
X13321824Y47600624D01*
X13197612Y47786520D01*
X13039520Y47944612D01*
X12853624Y48068824D01*
X12647067Y48154383D01*
X12427788Y48198000D01*
X12204212Y48198000D01*
X11984933Y48154383D01*
X11778376Y48068824D01*
X11592480Y47944612D01*
X11434388Y47786520D01*
X11310176Y47600624D01*
X11224617Y47394067D01*
X11181000Y47174788D01*
X11181000Y46951212D01*
X11224617Y46731933D01*
X11241037Y46692291D01*
X11212335Y46698000D01*
X10929665Y46698000D01*
X10652426Y46642853D01*
X10391273Y46534680D01*
X10156241Y46377637D01*
X10071000Y46292396D01*
X9985759Y46377637D01*
X9750727Y46534680D01*
X9489574Y46642853D01*
X9212335Y46698000D01*
X8929665Y46698000D01*
X8900963Y46692291D01*
X8917383Y46731933D01*
X8961000Y46951212D01*
X8961000Y47174788D01*
X8917383Y47394067D01*
X8831824Y47600624D01*
X8707612Y47786520D01*
X8549520Y47944612D01*
X8363624Y48068824D01*
X8157067Y48154383D01*
X7937788Y48198000D01*
X7714212Y48198000D01*
X7494933Y48154383D01*
X7288376Y48068824D01*
X7102480Y47944612D01*
X6944388Y47786520D01*
X6820176Y47600624D01*
X6734617Y47394067D01*
X6691000Y47174788D01*
X6691000Y46951212D01*
X6734617Y46731933D01*
X6751935Y46690123D01*
X6712335Y46698000D01*
X6429665Y46698000D01*
X6152426Y46642853D01*
X5891273Y46534680D01*
X5856000Y46511111D01*
X5856000Y46936000D01*
X4348000Y46936000D01*
X4348000Y46916000D01*
X4094000Y46916000D01*
X4094000Y46936000D01*
X2586000Y46936000D01*
X2586000Y46236000D01*
X2642193Y45919468D01*
X2759058Y45619980D01*
X2922234Y45364500D01*
X660000Y45364500D01*
X660000Y49340000D01*
X3786375Y49340000D01*
X3712645Y49322144D01*
G36*
X2195077Y3779918D02*
G01*
X2221324Y3747936D01*
X2348956Y3643191D01*
X2494571Y3565358D01*
X2652572Y3517429D01*
X2816888Y3501245D01*
X2858058Y3505300D01*
X14848337Y3505300D01*
X14889500Y3501246D01*
X14930663Y3505300D01*
X14930670Y3505300D01*
X15053816Y3517429D01*
X15211817Y3565358D01*
X15357432Y3643191D01*
X15485064Y3747936D01*
X15511311Y3779917D01*
X16088087Y4356693D01*
X16120064Y4382936D01*
X16178982Y4454727D01*
X16224809Y4510568D01*
X16257645Y4572000D01*
X19340000Y4572000D01*
X19340000Y660000D01*
X15015618Y660000D01*
X15032764Y671131D01*
X15193161Y827331D01*
X15320003Y1011822D01*
X15408415Y1217513D01*
X15455000Y1436500D01*
X15455000Y1736500D01*
X14447000Y1736500D01*
X14447000Y1716500D01*
X14193000Y1716500D01*
X14193000Y1736500D01*
X13185000Y1736500D01*
X13185000Y1436500D01*
X13231585Y1217513D01*
X13319997Y1011822D01*
X13446839Y827331D01*
X13607236Y671131D01*
X13624382Y660000D01*
X6375618Y660000D01*
X6392764Y671131D01*
X6553161Y827331D01*
X6680003Y1011822D01*
X6768415Y1217513D01*
X6815000Y1436500D01*
X6815000Y1736500D01*
X5807000Y1736500D01*
X5807000Y1716500D01*
X5553000Y1716500D01*
X5553000Y1736500D01*
X4545000Y1736500D01*
X4545000Y1436500D01*
X4591585Y1217513D01*
X4679997Y1011822D01*
X4806839Y827331D01*
X4967236Y671131D01*
X4984382Y660000D01*
X660000Y660000D01*
X660000Y2290500D01*
X4545000Y2290500D01*
X4545000Y1990500D01*
X5553000Y1990500D01*
X5553000Y3131454D01*
X5807000Y3131454D01*
X5807000Y1990500D01*
X6815000Y1990500D01*
X6815000Y2290500D01*
X13185000Y2290500D01*
X13185000Y1990500D01*
X14193000Y1990500D01*
X14193000Y3131454D01*
X14447000Y3131454D01*
X14447000Y1990500D01*
X15455000Y1990500D01*
X15455000Y2290500D01*
X15408415Y2509487D01*
X15320003Y2715178D01*
X15193161Y2899669D01*
X15032764Y3055869D01*
X14844976Y3177776D01*
X14621874Y3257619D01*
X14447000Y3131454D01*
X14193000Y3131454D01*
X14018126Y3257619D01*
X13795024Y3177776D01*
X13607236Y3055869D01*
X13446839Y2899669D01*
X13319997Y2715178D01*
X13231585Y2509487D01*
X13185000Y2290500D01*
X6815000Y2290500D01*
X6768415Y2509487D01*
X6680003Y2715178D01*
X6553161Y2899669D01*
X6392764Y3055869D01*
X6204976Y3177776D01*
X5981874Y3257619D01*
X5807000Y3131454D01*
X5553000Y3131454D01*
X5378126Y3257619D01*
X5155024Y3177776D01*
X4967236Y3055869D01*
X4806839Y2899669D01*
X4679997Y2715178D01*
X4591585Y2509487D01*
X4545000Y2290500D01*
X660000Y2290500D01*
X660000Y4572000D01*
X1402995Y4572000D01*
X2195077Y3779918D01*
G37*
X2195077Y3779918D02*
X2221324Y3747936D01*
X2348956Y3643191D01*
X2494571Y3565358D01*
X2652572Y3517429D01*
X2816888Y3501245D01*
X2858058Y3505300D01*
X14848337Y3505300D01*
X14889500Y3501246D01*
X14930663Y3505300D01*
X14930670Y3505300D01*
X15053816Y3517429D01*
X15211817Y3565358D01*
X15357432Y3643191D01*
X15485064Y3747936D01*
X15511311Y3779917D01*
X16088087Y4356693D01*
X16120064Y4382936D01*
X16178982Y4454727D01*
X16224809Y4510568D01*
X16257645Y4572000D01*
X19340000Y4572000D01*
X19340000Y660000D01*
X15015618Y660000D01*
X15032764Y671131D01*
X15193161Y827331D01*
X15320003Y1011822D01*
X15408415Y1217513D01*
X15455000Y1436500D01*
X15455000Y1736500D01*
X14447000Y1736500D01*
X14447000Y1716500D01*
X14193000Y1716500D01*
X14193000Y1736500D01*
X13185000Y1736500D01*
X13185000Y1436500D01*
X13231585Y1217513D01*
X13319997Y1011822D01*
X13446839Y827331D01*
X13607236Y671131D01*
X13624382Y660000D01*
X6375618Y660000D01*
X6392764Y671131D01*
X6553161Y827331D01*
X6680003Y1011822D01*
X6768415Y1217513D01*
X6815000Y1436500D01*
X6815000Y1736500D01*
X5807000Y1736500D01*
X5807000Y1716500D01*
X5553000Y1716500D01*
X5553000Y1736500D01*
X4545000Y1736500D01*
X4545000Y1436500D01*
X4591585Y1217513D01*
X4679997Y1011822D01*
X4806839Y827331D01*
X4967236Y671131D01*
X4984382Y660000D01*
X660000Y660000D01*
X660000Y2290500D01*
X4545000Y2290500D01*
X4545000Y1990500D01*
X5553000Y1990500D01*
X5553000Y3131454D01*
X5807000Y3131454D01*
X5807000Y1990500D01*
X6815000Y1990500D01*
X6815000Y2290500D01*
X13185000Y2290500D01*
X13185000Y1990500D01*
X14193000Y1990500D01*
X14193000Y3131454D01*
X14447000Y3131454D01*
X14447000Y1990500D01*
X15455000Y1990500D01*
X15455000Y2290500D01*
X15408415Y2509487D01*
X15320003Y2715178D01*
X15193161Y2899669D01*
X15032764Y3055869D01*
X14844976Y3177776D01*
X14621874Y3257619D01*
X14447000Y3131454D01*
X14193000Y3131454D01*
X14018126Y3257619D01*
X13795024Y3177776D01*
X13607236Y3055869D01*
X13446839Y2899669D01*
X13319997Y2715178D01*
X13231585Y2509487D01*
X13185000Y2290500D01*
X6815000Y2290500D01*
X6768415Y2509487D01*
X6680003Y2715178D01*
X6553161Y2899669D01*
X6392764Y3055869D01*
X6204976Y3177776D01*
X5981874Y3257619D01*
X5807000Y3131454D01*
X5553000Y3131454D01*
X5378126Y3257619D01*
X5155024Y3177776D01*
X4967236Y3055869D01*
X4806839Y2899669D01*
X4679997Y2715178D01*
X4591585Y2509487D01*
X4545000Y2290500D01*
X660000Y2290500D01*
X660000Y4572000D01*
X1402995Y4572000D01*
X2195077Y3779918D01*
M02*
