M48
; DRILL file {KiCad (5.1.5)-3} date 15/04/2020 21:38:25
; FORMAT={-:-/ absolute / inch / decimal}
; #@! TF.CreationDate,2020-04-15T21:38:25+02:00
; #@! TF.GenerationSoftware,Kicad,Pcbnew,(5.1.5)-3
; #@! TF.FileFunction,Plated,1,2,PTH
FMAT,2
INCH
T1C0.0118
T2C0.0236
T3C0.0394
T4C0.0472
T5C0.1260
%
G90
G05
T1
X0.1037Y0.7885
X0.111Y1.5508
X0.2437Y1.5485
X0.2537Y1.3485
X0.2537Y0.8185
X0.2962Y0.3435
X0.3187Y1.4985
X0.3537Y0.5035
X0.4037Y0.3258
X0.4039Y0.3687
X0.4783Y1.449
X0.4787Y0.4885
X0.5137Y0.9535
X0.5262Y0.3385
X0.5387Y1.1985
X0.5387Y1.0385
X0.5787Y1.1985
X0.5787Y1.0385
X0.5887Y0.7585
X0.6087Y0.9385
T3
X0.2587Y1.782
X0.3571Y1.782
X0.4359Y1.782
X0.5343Y1.782
X0.6837Y1.6485
X0.6837Y1.5485
X0.6837Y1.4485
X0.6837Y1.3485
X0.6837Y0.7485
X0.6837Y0.6485
X0.6837Y0.5485
X0.6837Y0.4485
T5
X0.3937Y0.8485
T2
G00X0.2236Y0.2596
M15
G01X0.2236Y0.2163
M16
G05
G00X0.2236Y0.0852
M15
G01X0.2236Y0.0616
M16
G05
G00X0.5638Y0.2596
M15
G01X0.5638Y0.2163
M16
G05
G00X0.5638Y0.0852
M15
G01X0.5638Y0.0616
M16
G05
T4
G00X0.1662Y1.8253
M15
G01X0.1662Y1.8804
M16
G05
G00X0.6268Y1.8253
M15
G01X0.6268Y1.8804
M16
G05
T0
M30
