G04 #@! TF.GenerationSoftware,KiCad,Pcbnew,(5.1.5)-3*
G04 #@! TF.CreationDate,2022-04-18T12:11:36+02:00*
G04 #@! TF.ProjectId,vkm,766b6d2e-6b69-4636-9164-5f7063625858,B*
G04 #@! TF.SameCoordinates,PX420a400PY707b2a8*
G04 #@! TF.FileFunction,Legend,Bot*
G04 #@! TF.FilePolarity,Positive*
%FSLAX46Y46*%
G04 Gerber Fmt 4.6, Leading zero omitted, Abs format (unit mm)*
G04 Created by KiCad (PCBNEW (5.1.5)-3) date 2022-04-18 12:11:36*
%MOMM*%
%LPD*%
G04 APERTURE LIST*
%ADD10C,0.150000*%
%ADD11C,0.127000*%
%ADD12C,0.254000*%
%ADD13C,0.050000*%
%ADD14C,0.120000*%
G04 APERTURE END LIST*
D10*
X19731333Y42778870D02*
X19398000Y41127870D01*
X19064666Y42778870D01*
X19326571Y39366179D02*
X19183714Y39287560D01*
X19136095Y39208941D01*
X19088476Y39051703D01*
X19088476Y38815846D01*
X19136095Y38658608D01*
X19183714Y38579989D01*
X19278952Y38501370D01*
X19659904Y38501370D01*
X19659904Y40152370D01*
X19326571Y40152370D01*
X19231333Y40073750D01*
X19183714Y39995131D01*
X19136095Y39837893D01*
X19136095Y39680655D01*
X19183714Y39523417D01*
X19231333Y39444798D01*
X19326571Y39366179D01*
X19659904Y39366179D01*
X19088476Y35874870D02*
X19421809Y36661060D01*
X19659904Y35874870D02*
X19659904Y37525870D01*
X19278952Y37525870D01*
X19183714Y37447250D01*
X19136095Y37368631D01*
X19088476Y37211393D01*
X19088476Y36975536D01*
X19136095Y36818298D01*
X19183714Y36739679D01*
X19278952Y36661060D01*
X19659904Y36661060D01*
X19136095Y34820750D02*
X19231333Y34899370D01*
X19374190Y34899370D01*
X19517047Y34820750D01*
X19612285Y34663512D01*
X19659904Y34506274D01*
X19707523Y34191798D01*
X19707523Y33955941D01*
X19659904Y33641465D01*
X19612285Y33484227D01*
X19517047Y33326989D01*
X19374190Y33248370D01*
X19278952Y33248370D01*
X19136095Y33326989D01*
X19088476Y33405608D01*
X19088476Y33955941D01*
X19278952Y33955941D01*
X19731333Y19918870D02*
X19398000Y18267870D01*
X19064666Y19918870D01*
X19326571Y16506179D02*
X19183714Y16427560D01*
X19136095Y16348941D01*
X19088476Y16191703D01*
X19088476Y15955846D01*
X19136095Y15798608D01*
X19183714Y15719989D01*
X19278952Y15641370D01*
X19659904Y15641370D01*
X19659904Y17292370D01*
X19326571Y17292370D01*
X19231333Y17213750D01*
X19183714Y17135131D01*
X19136095Y16977893D01*
X19136095Y16820655D01*
X19183714Y16663417D01*
X19231333Y16584798D01*
X19326571Y16506179D01*
X19659904Y16506179D01*
X19088476Y13014870D02*
X19421809Y13801060D01*
X19659904Y13014870D02*
X19659904Y14665870D01*
X19278952Y14665870D01*
X19183714Y14587250D01*
X19136095Y14508631D01*
X19088476Y14351393D01*
X19088476Y14115536D01*
X19136095Y13958298D01*
X19183714Y13879679D01*
X19278952Y13801060D01*
X19659904Y13801060D01*
X19136095Y11960750D02*
X19231333Y12039370D01*
X19374190Y12039370D01*
X19517047Y11960750D01*
X19612285Y11803512D01*
X19659904Y11646274D01*
X19707523Y11331798D01*
X19707523Y11095941D01*
X19659904Y10781465D01*
X19612285Y10624227D01*
X19517047Y10466989D01*
X19374190Y10388370D01*
X19278952Y10388370D01*
X19136095Y10466989D01*
X19088476Y10545608D01*
X19088476Y11095941D01*
X19278952Y11095941D01*
X5261476Y35207120D02*
X5594809Y35683310D01*
X5832904Y35207120D02*
X5832904Y36207120D01*
X5451952Y36207120D01*
X5356714Y36159500D01*
X5309095Y36111881D01*
X5261476Y36016643D01*
X5261476Y35873786D01*
X5309095Y35778548D01*
X5356714Y35730929D01*
X5451952Y35683310D01*
X5832904Y35683310D01*
X12299571Y35730929D02*
X12156714Y35683310D01*
X12109095Y35635691D01*
X12061476Y35540453D01*
X12061476Y35397596D01*
X12109095Y35302358D01*
X12156714Y35254739D01*
X12251952Y35207120D01*
X12632904Y35207120D01*
X12632904Y36207120D01*
X12299571Y36207120D01*
X12204333Y36159500D01*
X12156714Y36111881D01*
X12109095Y36016643D01*
X12109095Y35921405D01*
X12156714Y35826167D01*
X12204333Y35778548D01*
X12299571Y35730929D01*
X12632904Y35730929D01*
X12299571Y10170929D02*
X12156714Y10123310D01*
X12109095Y10075691D01*
X12061476Y9980453D01*
X12061476Y9837596D01*
X12109095Y9742358D01*
X12156714Y9694739D01*
X12251952Y9647120D01*
X12632904Y9647120D01*
X12632904Y10647120D01*
X12299571Y10647120D01*
X12204333Y10599500D01*
X12156714Y10551881D01*
X12109095Y10456643D01*
X12109095Y10361405D01*
X12156714Y10266167D01*
X12204333Y10218548D01*
X12299571Y10170929D01*
X12632904Y10170929D01*
X5261476Y9647120D02*
X5594809Y10123310D01*
X5832904Y9647120D02*
X5832904Y10647120D01*
X5451952Y10647120D01*
X5356714Y10599500D01*
X5309095Y10551881D01*
X5261476Y10456643D01*
X5261476Y10313786D01*
X5309095Y10218548D01*
X5356714Y10170929D01*
X5451952Y10123310D01*
X5832904Y10123310D01*
D11*
X1962714Y16781143D02*
X1200714Y16781143D01*
X1200714Y16490858D01*
X1237000Y16418286D01*
X1273285Y16382000D01*
X1345857Y16345715D01*
X1454714Y16345715D01*
X1527285Y16382000D01*
X1563571Y16418286D01*
X1599857Y16490858D01*
X1599857Y16781143D01*
X1563571Y16019143D02*
X1563571Y15765143D01*
X1962714Y15656286D02*
X1962714Y16019143D01*
X1200714Y16019143D01*
X1200714Y15656286D01*
X1962714Y14894286D02*
X1599857Y15148286D01*
X1962714Y15329715D02*
X1200714Y15329715D01*
X1200714Y15039429D01*
X1237000Y14966858D01*
X1273285Y14930572D01*
X1345857Y14894286D01*
X1454714Y14894286D01*
X1527285Y14930572D01*
X1563571Y14966858D01*
X1599857Y15039429D01*
X1599857Y15329715D01*
X1962714Y14567715D02*
X1200714Y14567715D01*
X1962714Y14204858D02*
X1200714Y14204858D01*
X1200714Y13914572D01*
X1237000Y13842000D01*
X1273285Y13805715D01*
X1345857Y13769429D01*
X1454714Y13769429D01*
X1527285Y13805715D01*
X1563571Y13842000D01*
X1599857Y13914572D01*
X1599857Y14204858D01*
X1962714Y13442858D02*
X1200714Y13442858D01*
X1563571Y13442858D02*
X1563571Y13007429D01*
X1962714Y13007429D02*
X1200714Y13007429D01*
X1563571Y12644572D02*
X1563571Y12390572D01*
X1962714Y12281715D02*
X1962714Y12644572D01*
X1200714Y12644572D01*
X1200714Y12281715D01*
X1962714Y11519715D02*
X1599857Y11773715D01*
X1962714Y11955143D02*
X1200714Y11955143D01*
X1200714Y11664858D01*
X1237000Y11592286D01*
X1273285Y11556000D01*
X1345857Y11519715D01*
X1454714Y11519715D01*
X1527285Y11556000D01*
X1563571Y11592286D01*
X1599857Y11664858D01*
X1599857Y11955143D01*
X1599857Y11048000D02*
X1962714Y11048000D01*
X1200714Y11302000D02*
X1599857Y11048000D01*
X1200714Y10794000D01*
X1890142Y42377429D02*
X1926428Y42413715D01*
X1962714Y42522572D01*
X1962714Y42595143D01*
X1926428Y42704000D01*
X1853857Y42776572D01*
X1781285Y42812858D01*
X1636142Y42849143D01*
X1527285Y42849143D01*
X1382142Y42812858D01*
X1309571Y42776572D01*
X1237000Y42704000D01*
X1200714Y42595143D01*
X1200714Y42522572D01*
X1237000Y42413715D01*
X1273285Y42377429D01*
X1200714Y41905715D02*
X1200714Y41760572D01*
X1237000Y41688000D01*
X1309571Y41615429D01*
X1454714Y41579143D01*
X1708714Y41579143D01*
X1853857Y41615429D01*
X1926428Y41688000D01*
X1962714Y41760572D01*
X1962714Y41905715D01*
X1926428Y41978286D01*
X1853857Y42050858D01*
X1708714Y42087143D01*
X1454714Y42087143D01*
X1309571Y42050858D01*
X1237000Y41978286D01*
X1200714Y41905715D01*
X1962714Y41252572D02*
X1200714Y41252572D01*
X1962714Y40817143D01*
X1200714Y40817143D01*
X1200714Y40563143D02*
X1200714Y40127715D01*
X1962714Y40345429D02*
X1200714Y40345429D01*
X1962714Y39438286D02*
X1599857Y39692286D01*
X1962714Y39873715D02*
X1200714Y39873715D01*
X1200714Y39583429D01*
X1237000Y39510858D01*
X1273285Y39474572D01*
X1345857Y39438286D01*
X1454714Y39438286D01*
X1527285Y39474572D01*
X1563571Y39510858D01*
X1599857Y39583429D01*
X1599857Y39873715D01*
X1200714Y38966572D02*
X1200714Y38821429D01*
X1237000Y38748858D01*
X1309571Y38676286D01*
X1454714Y38640000D01*
X1708714Y38640000D01*
X1853857Y38676286D01*
X1926428Y38748858D01*
X1962714Y38821429D01*
X1962714Y38966572D01*
X1926428Y39039143D01*
X1853857Y39111715D01*
X1708714Y39148000D01*
X1454714Y39148000D01*
X1309571Y39111715D01*
X1237000Y39039143D01*
X1200714Y38966572D01*
X1962714Y37950572D02*
X1962714Y38313429D01*
X1200714Y38313429D01*
X1962714Y37333715D02*
X1962714Y37696572D01*
X1200714Y37696572D01*
X1563571Y37079715D02*
X1563571Y36825715D01*
X1962714Y36716858D02*
X1962714Y37079715D01*
X1200714Y37079715D01*
X1200714Y36716858D01*
X1962714Y35954858D02*
X1599857Y36208858D01*
X1962714Y36390286D02*
X1200714Y36390286D01*
X1200714Y36100000D01*
X1237000Y36027429D01*
X1273285Y35991143D01*
X1345857Y35954858D01*
X1454714Y35954858D01*
X1527285Y35991143D01*
X1563571Y36027429D01*
X1599857Y36100000D01*
X1599857Y36390286D01*
D12*
X2180428Y34576758D02*
X3704428Y34068758D01*
X2180428Y33560758D01*
X3704428Y33052758D02*
X2180428Y33052758D01*
X3704428Y32181900D02*
X2833571Y32835043D01*
X2180428Y32181900D02*
X3051285Y33052758D01*
X3704428Y31528758D02*
X2180428Y31528758D01*
X3269000Y31020758D01*
X2180428Y30512758D01*
X3704428Y30512758D01*
X3123857Y29787043D02*
X3123857Y28625900D01*
X2325571Y27972758D02*
X2253000Y27900186D01*
X2180428Y27755043D01*
X2180428Y27392186D01*
X2253000Y27247043D01*
X2325571Y27174472D01*
X2470714Y27101900D01*
X2615857Y27101900D01*
X2833571Y27174472D01*
X3704428Y28045329D01*
X3704428Y27101900D01*
X3704428Y24416758D02*
X2978714Y24924758D01*
X3704428Y25287615D02*
X2180428Y25287615D01*
X2180428Y24707043D01*
X2253000Y24561900D01*
X2325571Y24489329D01*
X2470714Y24416758D01*
X2688428Y24416758D01*
X2833571Y24489329D01*
X2906142Y24561900D01*
X2978714Y24707043D01*
X2978714Y25287615D01*
X3631857Y23183043D02*
X3704428Y23328186D01*
X3704428Y23618472D01*
X3631857Y23763615D01*
X3486714Y23836186D01*
X2906142Y23836186D01*
X2761000Y23763615D01*
X2688428Y23618472D01*
X2688428Y23328186D01*
X2761000Y23183043D01*
X2906142Y23110472D01*
X3051285Y23110472D01*
X3196428Y23836186D01*
X2688428Y22602472D02*
X3704428Y22239615D01*
X2688428Y21876758D01*
X3559285Y21296186D02*
X3631857Y21223615D01*
X3704428Y21296186D01*
X3631857Y21368758D01*
X3559285Y21296186D01*
X3704428Y21296186D01*
X2906142Y18901329D02*
X2978714Y18683615D01*
X3051285Y18611043D01*
X3196428Y18538472D01*
X3414142Y18538472D01*
X3559285Y18611043D01*
X3631857Y18683615D01*
X3704428Y18828758D01*
X3704428Y19409329D01*
X2180428Y19409329D01*
X2180428Y18901329D01*
X2253000Y18756186D01*
X2325571Y18683615D01*
X2470714Y18611043D01*
X2615857Y18611043D01*
X2761000Y18683615D01*
X2833571Y18756186D01*
X2906142Y18901329D01*
X2906142Y19409329D01*
X6244428Y34359043D02*
X4720428Y34359043D01*
X4720428Y33996186D01*
X4793000Y33778472D01*
X4938142Y33633329D01*
X5083285Y33560758D01*
X5373571Y33488186D01*
X5591285Y33488186D01*
X5881571Y33560758D01*
X6026714Y33633329D01*
X6171857Y33778472D01*
X6244428Y33996186D01*
X6244428Y34359043D01*
X6244428Y32181900D02*
X5446142Y32181900D01*
X5301000Y32254472D01*
X5228428Y32399615D01*
X5228428Y32689900D01*
X5301000Y32835043D01*
X6171857Y32181900D02*
X6244428Y32327043D01*
X6244428Y32689900D01*
X6171857Y32835043D01*
X6026714Y32907615D01*
X5881571Y32907615D01*
X5736428Y32835043D01*
X5663857Y32689900D01*
X5663857Y32327043D01*
X5591285Y32181900D01*
X5228428Y31456186D02*
X6244428Y31456186D01*
X5373571Y31456186D02*
X5301000Y31383615D01*
X5228428Y31238472D01*
X5228428Y31020758D01*
X5301000Y30875615D01*
X5446142Y30803043D01*
X6244428Y30803043D01*
X6244428Y30077329D02*
X5228428Y30077329D01*
X4720428Y30077329D02*
X4793000Y30149900D01*
X4865571Y30077329D01*
X4793000Y30004758D01*
X4720428Y30077329D01*
X4865571Y30077329D01*
X6171857Y28771043D02*
X6244428Y28916186D01*
X6244428Y29206472D01*
X6171857Y29351615D01*
X6026714Y29424186D01*
X5446142Y29424186D01*
X5301000Y29351615D01*
X5228428Y29206472D01*
X5228428Y28916186D01*
X5301000Y28771043D01*
X5446142Y28698472D01*
X5591285Y28698472D01*
X5736428Y29424186D01*
X6244428Y27827615D02*
X6171857Y27972758D01*
X6026714Y28045329D01*
X4720428Y28045329D01*
X6171857Y26158472D02*
X6244428Y25940758D01*
X6244428Y25577900D01*
X6171857Y25432758D01*
X6099285Y25360186D01*
X5954142Y25287615D01*
X5809000Y25287615D01*
X5663857Y25360186D01*
X5591285Y25432758D01*
X5518714Y25577900D01*
X5446142Y25868186D01*
X5373571Y26013329D01*
X5301000Y26085900D01*
X5155857Y26158472D01*
X5010714Y26158472D01*
X4865571Y26085900D01*
X4793000Y26013329D01*
X4720428Y25868186D01*
X4720428Y25505329D01*
X4793000Y25287615D01*
X5228428Y24852186D02*
X5228428Y24271615D01*
X4720428Y24634472D02*
X6026714Y24634472D01*
X6171857Y24561900D01*
X6244428Y24416758D01*
X6244428Y24271615D01*
X6244428Y23110472D02*
X5446142Y23110472D01*
X5301000Y23183043D01*
X5228428Y23328186D01*
X5228428Y23618472D01*
X5301000Y23763615D01*
X6171857Y23110472D02*
X6244428Y23255615D01*
X6244428Y23618472D01*
X6171857Y23763615D01*
X6026714Y23836186D01*
X5881571Y23836186D01*
X5736428Y23763615D01*
X5663857Y23618472D01*
X5663857Y23255615D01*
X5591285Y23110472D01*
X6244428Y22384758D02*
X5228428Y22384758D01*
X5518714Y22384758D02*
X5373571Y22312186D01*
X5301000Y22239615D01*
X5228428Y22094472D01*
X5228428Y21949329D01*
X6244428Y21441329D02*
X4720428Y21441329D01*
X5663857Y21296186D02*
X6244428Y20860758D01*
X5228428Y20860758D02*
X5809000Y21441329D01*
X6171857Y19627043D02*
X6244428Y19772186D01*
X6244428Y20062472D01*
X6171857Y20207615D01*
X6026714Y20280186D01*
X5446142Y20280186D01*
X5301000Y20207615D01*
X5228428Y20062472D01*
X5228428Y19772186D01*
X5301000Y19627043D01*
X5446142Y19554472D01*
X5591285Y19554472D01*
X5736428Y20280186D01*
D13*
X0Y0D02*
X20000000Y0D01*
X0Y50000000D02*
X0Y0D01*
X20000000Y50000000D02*
X0Y50000000D01*
X20000000Y0D02*
X20000000Y50000000D01*
D14*
X10071000Y12142000D02*
X9621000Y12592000D01*
X10071000Y15542000D02*
X9621000Y15092000D01*
X14671000Y15542000D02*
X15121000Y15092000D01*
X14671000Y12142000D02*
X15121000Y12592000D01*
X13371000Y16592000D02*
X11371000Y16592000D01*
X9621000Y12592000D02*
X9621000Y15092000D01*
X13371000Y11092000D02*
X11371000Y11092000D01*
X15121000Y12592000D02*
X15121000Y15092000D01*
X7871000Y15542000D02*
X8321000Y15092000D01*
X7871000Y12142000D02*
X8321000Y12592000D01*
X3271000Y12142000D02*
X2821000Y12592000D01*
X3271000Y15542000D02*
X2821000Y15092000D01*
X4571000Y11092000D02*
X6571000Y11092000D01*
X8321000Y15092000D02*
X8321000Y12592000D01*
X4571000Y16592000D02*
X6571000Y16592000D01*
X2821000Y15092000D02*
X2821000Y12592000D01*
X15121000Y38152000D02*
X15121000Y40652000D01*
X13371000Y36652000D02*
X11371000Y36652000D01*
X9621000Y38152000D02*
X9621000Y40652000D01*
X13371000Y42152000D02*
X11371000Y42152000D01*
X14671000Y37702000D02*
X15121000Y38152000D01*
X14671000Y41102000D02*
X15121000Y40652000D01*
X10071000Y41102000D02*
X9621000Y40652000D01*
X10071000Y37702000D02*
X9621000Y38152000D01*
X2821000Y40652000D02*
X2821000Y38152000D01*
X4571000Y42152000D02*
X6571000Y42152000D01*
X8321000Y40652000D02*
X8321000Y38152000D01*
X4571000Y36652000D02*
X6571000Y36652000D01*
X3271000Y41102000D02*
X2821000Y40652000D01*
X3271000Y37702000D02*
X2821000Y38152000D01*
X7871000Y37702000D02*
X8321000Y38152000D01*
X7871000Y41102000D02*
X8321000Y40652000D01*
M02*
