M48
; DRILL file {KiCad (5.1.5)-3} date 21/06/2023 22:09:48
; FORMAT={-:-/ absolute / inch / decimal}
; #@! TF.CreationDate,2023-06-21T22:09:48+02:00
; #@! TF.GenerationSoftware,Kicad,Pcbnew,(5.1.5)-3
; #@! TF.FileFunction,Plated,1,2,PTH
FMAT,2
INCH
T1C0.0118
T2C0.0236
T3C0.0394
T4C0.0472
%
G90
G05
T1
X0.045Y1.27
X0.098Y0.968
X0.105Y0.685
X0.11Y0.11
X0.1103Y1.1792
X0.162Y0.708
X0.21Y0.395
X0.215Y0.965
X0.22Y0.9902
X0.23Y0.36
X0.24Y1.165
X0.2425Y0.3975
X0.295Y0.585
X0.3Y0.3617
X0.31Y1.015
X0.31Y0.775
X0.31Y0.73
X0.34Y0.6
X0.34Y0.5743
X0.35Y1.17
X0.35Y1.14
X0.35Y0.36
X0.3525Y0.685
X0.355Y0.7775
X0.36Y0.24
X0.411Y0.36
X0.43Y0.445
X0.47Y0.36
X0.49Y1.42
X0.49Y0.62
X0.535Y0.2
X0.56Y0.31
T3
X0.645Y1.175
X0.645Y1.075
X0.645Y0.975
X0.645Y0.875
X0.645Y0.775
X0.645Y0.675
X0.645Y0.575
X0.645Y0.475
X0.645Y0.375
X0.195Y1.2846
X0.2934Y1.2846
X0.3722Y1.2846
X0.4706Y1.2846
T2
G00X0.1649Y0.2936
M15
G01X0.1649Y0.2503
M16
G05
G00X0.1649Y0.1192
M15
G01X0.1649Y0.0956
M16
G05
G00X0.5051Y0.2936
M15
G01X0.5051Y0.2503
M16
G05
G00X0.5051Y0.1192
M15
G01X0.5051Y0.0956
M16
G05
T4
G00X0.1025Y1.3279
M15
G01X0.1025Y1.383
M16
G05
G00X0.5631Y1.3279
M15
G01X0.5631Y1.383
M16
G05
T0
M30
