G04 #@! TF.GenerationSoftware,KiCad,Pcbnew,(5.1.5)-3*
G04 #@! TF.CreationDate,2023-06-21T22:09:46+02:00*
G04 #@! TF.ProjectId,vkm,766b6d2e-6b69-4636-9164-5f7063625858,C*
G04 #@! TF.SameCoordinates,PX4395450PY715d7c0*
G04 #@! TF.FileFunction,Legend,Bot*
G04 #@! TF.FilePolarity,Positive*
%FSLAX46Y46*%
G04 Gerber Fmt 4.6, Leading zero omitted, Abs format (unit mm)*
G04 Created by KiCad (PCBNEW (5.1.5)-3) date 2023-06-21 22:09:46*
%MOMM*%
%LPD*%
G04 APERTURE LIST*
%ADD10C,0.120000*%
%ADD11C,0.150000*%
%ADD12C,0.177800*%
%ADD13C,0.050000*%
%ADD14C,0.127000*%
G04 APERTURE END LIST*
D10*
X10160000Y18161000D02*
X10160000Y16510000D01*
D11*
X5780547Y11537120D02*
X5209119Y11537120D01*
X5494833Y10537120D02*
X5494833Y11537120D01*
X4971023Y11537120D02*
X4304357Y10537120D01*
X4304357Y11537120D02*
X4971023Y10537120D01*
X5304357Y13077120D02*
X5637690Y13553310D01*
X5875785Y13077120D02*
X5875785Y14077120D01*
X5494833Y14077120D01*
X5399595Y14029500D01*
X5351976Y13981881D01*
X5304357Y13886643D01*
X5304357Y13743786D01*
X5351976Y13648548D01*
X5399595Y13600929D01*
X5494833Y13553310D01*
X5875785Y13553310D01*
X4971023Y14077120D02*
X4304357Y13077120D01*
X4304357Y14077120D02*
X4971023Y13077120D01*
X6320214Y16569500D02*
X6415452Y16617120D01*
X6558309Y16617120D01*
X6701166Y16569500D01*
X6796404Y16474262D01*
X6844023Y16379024D01*
X6891642Y16188548D01*
X6891642Y16045691D01*
X6844023Y15855215D01*
X6796404Y15759977D01*
X6701166Y15664739D01*
X6558309Y15617120D01*
X6463071Y15617120D01*
X6320214Y15664739D01*
X6272595Y15712358D01*
X6272595Y16045691D01*
X6463071Y16045691D01*
X5844023Y15617120D02*
X5844023Y16617120D01*
X5272595Y15617120D01*
X5272595Y16617120D01*
X4796404Y15617120D02*
X4796404Y16617120D01*
X4558309Y16617120D01*
X4415452Y16569500D01*
X4320214Y16474262D01*
X4272595Y16379024D01*
X4224976Y16188548D01*
X4224976Y16045691D01*
X4272595Y15855215D01*
X4320214Y15759977D01*
X4415452Y15664739D01*
X4558309Y15617120D01*
X4796404Y15617120D01*
D10*
X18034000Y5334000D02*
X15875000Y5334000D01*
X10160000Y31496000D02*
X10160000Y28956000D01*
X18034000Y31496000D02*
X10160000Y31496000D01*
X18034000Y5334000D02*
X18034000Y31496000D01*
X10160000Y19685000D02*
X11557000Y19685000D01*
X10160000Y21336000D02*
X10160000Y18872000D01*
X10160000Y5334000D02*
X10160000Y9398000D01*
X14605000Y5334000D02*
X10160000Y5334000D01*
D12*
X14743430Y30615509D02*
X14006830Y30615509D01*
X14147134Y29520794D02*
X14392668Y29871556D01*
X14568049Y29520794D02*
X14568049Y30257394D01*
X14287439Y30257394D01*
X14217287Y30222317D01*
X14182210Y30187241D01*
X14147134Y30117089D01*
X14147134Y30011860D01*
X14182210Y29941708D01*
X14217287Y29906632D01*
X14287439Y29871556D01*
X14568049Y29871556D01*
X14006830Y30615509D02*
X13340382Y30615509D01*
X13831449Y29906632D02*
X13585915Y29906632D01*
X13480687Y29520794D02*
X13831449Y29520794D01*
X13831449Y30257394D01*
X13480687Y30257394D01*
X13340382Y30615509D02*
X12638858Y30615509D01*
X13200077Y29555870D02*
X13094849Y29520794D01*
X12919468Y29520794D01*
X12849315Y29555870D01*
X12814239Y29590946D01*
X12779163Y29661098D01*
X12779163Y29731251D01*
X12814239Y29801403D01*
X12849315Y29836479D01*
X12919468Y29871556D01*
X13059772Y29906632D01*
X13129925Y29941708D01*
X13165001Y29976784D01*
X13200077Y30046937D01*
X13200077Y30117089D01*
X13165001Y30187241D01*
X13129925Y30222317D01*
X13059772Y30257394D01*
X12884391Y30257394D01*
X12779163Y30222317D01*
X12638858Y30615509D02*
X11972410Y30615509D01*
X12463477Y29906632D02*
X12217944Y29906632D01*
X12112715Y29520794D02*
X12463477Y29520794D01*
X12463477Y30257394D01*
X12112715Y30257394D01*
X11972410Y30615509D02*
X11411191Y30615509D01*
X11902258Y30257394D02*
X11481344Y30257394D01*
X11691801Y29520794D02*
X11691801Y30257394D01*
X14322515Y27341232D02*
X14217287Y27306156D01*
X14182210Y27271079D01*
X14147134Y27200927D01*
X14147134Y27095698D01*
X14182210Y27025546D01*
X14217287Y26990470D01*
X14287439Y26955394D01*
X14568049Y26955394D01*
X14568049Y27691994D01*
X14322515Y27691994D01*
X14252363Y27656917D01*
X14217287Y27621841D01*
X14182210Y27551689D01*
X14182210Y27481537D01*
X14217287Y27411384D01*
X14252363Y27376308D01*
X14322515Y27341232D01*
X14568049Y27341232D01*
X13691144Y27691994D02*
X13550839Y27691994D01*
X13480687Y27656917D01*
X13410534Y27586765D01*
X13375458Y27446460D01*
X13375458Y27200927D01*
X13410534Y27060622D01*
X13480687Y26990470D01*
X13550839Y26955394D01*
X13691144Y26955394D01*
X13761296Y26990470D01*
X13831449Y27060622D01*
X13866525Y27200927D01*
X13866525Y27446460D01*
X13831449Y27586765D01*
X13761296Y27656917D01*
X13691144Y27691994D01*
X12919468Y27691994D02*
X12779163Y27691994D01*
X12709010Y27656917D01*
X12638858Y27586765D01*
X12603782Y27446460D01*
X12603782Y27200927D01*
X12638858Y27060622D01*
X12709010Y26990470D01*
X12779163Y26955394D01*
X12919468Y26955394D01*
X12989620Y26990470D01*
X13059772Y27060622D01*
X13094849Y27200927D01*
X13094849Y27446460D01*
X13059772Y27586765D01*
X12989620Y27656917D01*
X12919468Y27691994D01*
X12393325Y27691994D02*
X11972410Y27691994D01*
X12182868Y26955394D02*
X12182868Y27691994D01*
X14603125Y24425070D02*
X14497896Y24389994D01*
X14322515Y24389994D01*
X14252363Y24425070D01*
X14217287Y24460146D01*
X14182210Y24530298D01*
X14182210Y24600451D01*
X14217287Y24670603D01*
X14252363Y24705679D01*
X14322515Y24740756D01*
X14462820Y24775832D01*
X14532972Y24810908D01*
X14568049Y24845984D01*
X14603125Y24916137D01*
X14603125Y24986289D01*
X14568049Y25056441D01*
X14532972Y25091517D01*
X14462820Y25126594D01*
X14287439Y25126594D01*
X14182210Y25091517D01*
X13936677Y25126594D02*
X13761296Y24389994D01*
X13620991Y24916137D01*
X13480687Y24389994D01*
X13305306Y25126594D01*
X13024696Y24389994D02*
X13024696Y25126594D01*
X12849315Y25126594D01*
X12744087Y25091517D01*
X12673934Y25021365D01*
X12638858Y24951213D01*
X12603782Y24810908D01*
X12603782Y24705679D01*
X12638858Y24565375D01*
X12673934Y24495222D01*
X12744087Y24425070D01*
X12849315Y24389994D01*
X13024696Y24389994D01*
X12288096Y24389994D02*
X12288096Y25126594D01*
X11797030Y25126594D02*
X11656725Y25126594D01*
X11586572Y25091517D01*
X11516420Y25021365D01*
X11481344Y24881060D01*
X11481344Y24635527D01*
X11516420Y24495222D01*
X11586572Y24425070D01*
X11656725Y24389994D01*
X11797030Y24389994D01*
X11867182Y24425070D01*
X11937334Y24495222D01*
X11972410Y24635527D01*
X11972410Y24881060D01*
X11937334Y25021365D01*
X11867182Y25091517D01*
X11797030Y25126594D01*
X14603125Y21859670D02*
X14497896Y21824594D01*
X14322515Y21824594D01*
X14252363Y21859670D01*
X14217287Y21894746D01*
X14182210Y21964898D01*
X14182210Y22035051D01*
X14217287Y22105203D01*
X14252363Y22140279D01*
X14322515Y22175356D01*
X14462820Y22210432D01*
X14532972Y22245508D01*
X14568049Y22280584D01*
X14603125Y22350737D01*
X14603125Y22420889D01*
X14568049Y22491041D01*
X14532972Y22526117D01*
X14462820Y22561194D01*
X14287439Y22561194D01*
X14182210Y22526117D01*
X13936677Y22561194D02*
X13761296Y21824594D01*
X13620991Y22350737D01*
X13480687Y21824594D01*
X13305306Y22561194D01*
X12603782Y21894746D02*
X12638858Y21859670D01*
X12744087Y21824594D01*
X12814239Y21824594D01*
X12919468Y21859670D01*
X12989620Y21929822D01*
X13024696Y21999975D01*
X13059772Y22140279D01*
X13059772Y22245508D01*
X13024696Y22385813D01*
X12989620Y22455965D01*
X12919468Y22526117D01*
X12814239Y22561194D01*
X12744087Y22561194D01*
X12638858Y22526117D01*
X12603782Y22491041D01*
X11937334Y21824594D02*
X12288096Y21824594D01*
X12288096Y22561194D01*
X11691801Y21824594D02*
X11691801Y22561194D01*
X11270887Y21824594D02*
X11586572Y22245508D01*
X11270887Y22561194D02*
X11691801Y22140279D01*
X14182210Y19960717D02*
X14252363Y19995794D01*
X14357591Y19995794D01*
X14462820Y19960717D01*
X14532972Y19890565D01*
X14568049Y19820413D01*
X14603125Y19680108D01*
X14603125Y19574879D01*
X14568049Y19434575D01*
X14532972Y19364422D01*
X14462820Y19294270D01*
X14357591Y19259194D01*
X14287439Y19259194D01*
X14182210Y19294270D01*
X14147134Y19329346D01*
X14147134Y19574879D01*
X14287439Y19574879D01*
X13831449Y19259194D02*
X13831449Y19995794D01*
X13410534Y19259194D01*
X13410534Y19995794D01*
X13059772Y19259194D02*
X13059772Y19995794D01*
X12884391Y19995794D01*
X12779163Y19960717D01*
X12709010Y19890565D01*
X12673934Y19820413D01*
X12638858Y19680108D01*
X12638858Y19574879D01*
X12673934Y19434575D01*
X12709010Y19364422D01*
X12779163Y19294270D01*
X12884391Y19259194D01*
X13059772Y19259194D01*
X14603125Y16728870D02*
X14497896Y16693794D01*
X14322515Y16693794D01*
X14252363Y16728870D01*
X14217287Y16763946D01*
X14182210Y16834098D01*
X14182210Y16904251D01*
X14217287Y16974403D01*
X14252363Y17009479D01*
X14322515Y17044556D01*
X14462820Y17079632D01*
X14532972Y17114708D01*
X14568049Y17149784D01*
X14603125Y17219937D01*
X14603125Y17290089D01*
X14568049Y17360241D01*
X14532972Y17395317D01*
X14462820Y17430394D01*
X14287439Y17430394D01*
X14182210Y17395317D01*
X13936677Y17430394D02*
X13761296Y16693794D01*
X13620991Y17219937D01*
X13480687Y16693794D01*
X13305306Y17430394D01*
X12603782Y16763946D02*
X12638858Y16728870D01*
X12744087Y16693794D01*
X12814239Y16693794D01*
X12919468Y16728870D01*
X12989620Y16799022D01*
X13024696Y16869175D01*
X13059772Y17009479D01*
X13059772Y17114708D01*
X13024696Y17255013D01*
X12989620Y17325165D01*
X12919468Y17395317D01*
X12814239Y17430394D01*
X12744087Y17430394D01*
X12638858Y17395317D01*
X12603782Y17360241D01*
X11937334Y16693794D02*
X12288096Y16693794D01*
X12288096Y17430394D01*
X11691801Y16693794D02*
X11691801Y17430394D01*
X11270887Y16693794D02*
X11586572Y17114708D01*
X11270887Y17430394D02*
X11691801Y17009479D01*
X14603125Y14163470D02*
X14497896Y14128394D01*
X14322515Y14128394D01*
X14252363Y14163470D01*
X14217287Y14198546D01*
X14182210Y14268698D01*
X14182210Y14338851D01*
X14217287Y14409003D01*
X14252363Y14444079D01*
X14322515Y14479156D01*
X14462820Y14514232D01*
X14532972Y14549308D01*
X14568049Y14584384D01*
X14603125Y14654537D01*
X14603125Y14724689D01*
X14568049Y14794841D01*
X14532972Y14829917D01*
X14462820Y14864994D01*
X14287439Y14864994D01*
X14182210Y14829917D01*
X13936677Y14864994D02*
X13761296Y14128394D01*
X13620991Y14654537D01*
X13480687Y14128394D01*
X13305306Y14864994D01*
X13024696Y14128394D02*
X13024696Y14864994D01*
X12849315Y14864994D01*
X12744087Y14829917D01*
X12673934Y14759765D01*
X12638858Y14689613D01*
X12603782Y14549308D01*
X12603782Y14444079D01*
X12638858Y14303775D01*
X12673934Y14233622D01*
X12744087Y14163470D01*
X12849315Y14128394D01*
X13024696Y14128394D01*
X12288096Y14128394D02*
X12288096Y14864994D01*
X11797030Y14864994D02*
X11656725Y14864994D01*
X11586572Y14829917D01*
X11516420Y14759765D01*
X11481344Y14619460D01*
X11481344Y14373927D01*
X11516420Y14233622D01*
X11586572Y14163470D01*
X11656725Y14128394D01*
X11797030Y14128394D01*
X11867182Y14163470D01*
X11937334Y14233622D01*
X11972410Y14373927D01*
X11972410Y14619460D01*
X11937334Y14759765D01*
X11867182Y14829917D01*
X11797030Y14864994D01*
X14322515Y11948832D02*
X14217287Y11913756D01*
X14182210Y11878679D01*
X14147134Y11808527D01*
X14147134Y11703298D01*
X14182210Y11633146D01*
X14217287Y11598070D01*
X14287439Y11562994D01*
X14568049Y11562994D01*
X14568049Y12299594D01*
X14322515Y12299594D01*
X14252363Y12264517D01*
X14217287Y12229441D01*
X14182210Y12159289D01*
X14182210Y12089137D01*
X14217287Y12018984D01*
X14252363Y11983908D01*
X14322515Y11948832D01*
X14568049Y11948832D01*
X13691144Y12299594D02*
X13550839Y12299594D01*
X13480687Y12264517D01*
X13410534Y12194365D01*
X13375458Y12054060D01*
X13375458Y11808527D01*
X13410534Y11668222D01*
X13480687Y11598070D01*
X13550839Y11562994D01*
X13691144Y11562994D01*
X13761296Y11598070D01*
X13831449Y11668222D01*
X13866525Y11808527D01*
X13866525Y12054060D01*
X13831449Y12194365D01*
X13761296Y12264517D01*
X13691144Y12299594D01*
X12919468Y12299594D02*
X12779163Y12299594D01*
X12709010Y12264517D01*
X12638858Y12194365D01*
X12603782Y12054060D01*
X12603782Y11808527D01*
X12638858Y11668222D01*
X12709010Y11598070D01*
X12779163Y11562994D01*
X12919468Y11562994D01*
X12989620Y11598070D01*
X13059772Y11668222D01*
X13094849Y11808527D01*
X13094849Y12054060D01*
X13059772Y12194365D01*
X12989620Y12264517D01*
X12919468Y12299594D01*
X12393325Y12299594D02*
X11972410Y12299594D01*
X12182868Y11562994D02*
X12182868Y12299594D01*
X14743430Y10092309D02*
X14006830Y10092309D01*
X14147134Y8997594D02*
X14392668Y9348356D01*
X14568049Y8997594D02*
X14568049Y9734194D01*
X14287439Y9734194D01*
X14217287Y9699117D01*
X14182210Y9664041D01*
X14147134Y9593889D01*
X14147134Y9488660D01*
X14182210Y9418508D01*
X14217287Y9383432D01*
X14287439Y9348356D01*
X14568049Y9348356D01*
X14006830Y10092309D02*
X13340382Y10092309D01*
X13831449Y9383432D02*
X13585915Y9383432D01*
X13480687Y8997594D02*
X13831449Y8997594D01*
X13831449Y9734194D01*
X13480687Y9734194D01*
X13340382Y10092309D02*
X12638858Y10092309D01*
X13200077Y9032670D02*
X13094849Y8997594D01*
X12919468Y8997594D01*
X12849315Y9032670D01*
X12814239Y9067746D01*
X12779163Y9137898D01*
X12779163Y9208051D01*
X12814239Y9278203D01*
X12849315Y9313279D01*
X12919468Y9348356D01*
X13059772Y9383432D01*
X13129925Y9418508D01*
X13165001Y9453584D01*
X13200077Y9523737D01*
X13200077Y9593889D01*
X13165001Y9664041D01*
X13129925Y9699117D01*
X13059772Y9734194D01*
X12884391Y9734194D01*
X12779163Y9699117D01*
X12638858Y10092309D02*
X11972410Y10092309D01*
X12463477Y9383432D02*
X12217944Y9383432D01*
X12112715Y8997594D02*
X12463477Y8997594D01*
X12463477Y9734194D01*
X12112715Y9734194D01*
X11972410Y10092309D02*
X11411191Y10092309D01*
X11902258Y9734194D02*
X11481344Y9734194D01*
X11691801Y8997594D02*
X11691801Y9734194D01*
D13*
X1016000Y37338000D02*
X0Y36322000D01*
X17526000Y37338000D02*
X18542000Y36322000D01*
X17526000Y1524000D02*
X18542000Y2540000D01*
X0Y2540000D02*
X1016000Y1524000D01*
X0Y17780000D02*
X0Y2540000D01*
X0Y23114000D02*
X0Y36322000D01*
X2032000Y18542000D02*
G75*
G02X1270000Y17780000I-762000J0D01*
G01*
X1270000Y23114000D02*
G75*
G02X2032000Y22352000I0J-762000D01*
G01*
X2032000Y18542000D02*
X2032000Y22352000D01*
X1270000Y17780000D02*
X0Y17780000D01*
X1270000Y23114000D02*
X0Y23114000D01*
X17526000Y37338000D02*
X1016000Y37338000D01*
X18542000Y2540000D02*
X18542000Y36322000D01*
X1016000Y1524000D02*
X17526000Y1524000D01*
D12*
X9815285Y10014858D02*
X10577285Y10014858D01*
X10577285Y10305143D01*
X10541000Y10377715D01*
X10504714Y10414000D01*
X10432142Y10450286D01*
X10323285Y10450286D01*
X10250714Y10414000D01*
X10214428Y10377715D01*
X10178142Y10305143D01*
X10178142Y10014858D01*
X10214428Y10776858D02*
X10214428Y11030858D01*
X9815285Y11139715D02*
X9815285Y10776858D01*
X10577285Y10776858D01*
X10577285Y11139715D01*
X9815285Y11901715D02*
X10178142Y11647715D01*
X9815285Y11466286D02*
X10577285Y11466286D01*
X10577285Y11756572D01*
X10541000Y11829143D01*
X10504714Y11865429D01*
X10432142Y11901715D01*
X10323285Y11901715D01*
X10250714Y11865429D01*
X10214428Y11829143D01*
X10178142Y11756572D01*
X10178142Y11466286D01*
X9815285Y12228286D02*
X10577285Y12228286D01*
X9815285Y12591143D02*
X10577285Y12591143D01*
X10577285Y12881429D01*
X10541000Y12954000D01*
X10504714Y12990286D01*
X10432142Y13026572D01*
X10323285Y13026572D01*
X10250714Y12990286D01*
X10214428Y12954000D01*
X10178142Y12881429D01*
X10178142Y12591143D01*
X9815285Y13353143D02*
X10577285Y13353143D01*
X10214428Y13353143D02*
X10214428Y13788572D01*
X9815285Y13788572D02*
X10577285Y13788572D01*
X10214428Y14151429D02*
X10214428Y14405429D01*
X9815285Y14514286D02*
X9815285Y14151429D01*
X10577285Y14151429D01*
X10577285Y14514286D01*
X9815285Y15276286D02*
X10178142Y15022286D01*
X9815285Y14840858D02*
X10577285Y14840858D01*
X10577285Y15131143D01*
X10541000Y15203715D01*
X10504714Y15240000D01*
X10432142Y15276286D01*
X10323285Y15276286D01*
X10250714Y15240000D01*
X10214428Y15203715D01*
X10178142Y15131143D01*
X10178142Y14840858D01*
X10178142Y15748000D02*
X9815285Y15748000D01*
X10577285Y15494000D02*
X10178142Y15748000D01*
X10577285Y16002000D01*
X9887857Y22170572D02*
X9851571Y22134286D01*
X9815285Y22025429D01*
X9815285Y21952858D01*
X9851571Y21844000D01*
X9924142Y21771429D01*
X9996714Y21735143D01*
X10141857Y21698858D01*
X10250714Y21698858D01*
X10395857Y21735143D01*
X10468428Y21771429D01*
X10541000Y21844000D01*
X10577285Y21952858D01*
X10577285Y22025429D01*
X10541000Y22134286D01*
X10504714Y22170572D01*
X10577285Y22642286D02*
X10577285Y22787429D01*
X10541000Y22860000D01*
X10468428Y22932572D01*
X10323285Y22968858D01*
X10069285Y22968858D01*
X9924142Y22932572D01*
X9851571Y22860000D01*
X9815285Y22787429D01*
X9815285Y22642286D01*
X9851571Y22569715D01*
X9924142Y22497143D01*
X10069285Y22460858D01*
X10323285Y22460858D01*
X10468428Y22497143D01*
X10541000Y22569715D01*
X10577285Y22642286D01*
X9815285Y23295429D02*
X10577285Y23295429D01*
X9815285Y23730858D01*
X10577285Y23730858D01*
X10577285Y23984858D02*
X10577285Y24420286D01*
X9815285Y24202572D02*
X10577285Y24202572D01*
X9815285Y25109715D02*
X10178142Y24855715D01*
X9815285Y24674286D02*
X10577285Y24674286D01*
X10577285Y24964572D01*
X10541000Y25037143D01*
X10504714Y25073429D01*
X10432142Y25109715D01*
X10323285Y25109715D01*
X10250714Y25073429D01*
X10214428Y25037143D01*
X10178142Y24964572D01*
X10178142Y24674286D01*
X10577285Y25581429D02*
X10577285Y25726572D01*
X10541000Y25799143D01*
X10468428Y25871715D01*
X10323285Y25908000D01*
X10069285Y25908000D01*
X9924142Y25871715D01*
X9851571Y25799143D01*
X9815285Y25726572D01*
X9815285Y25581429D01*
X9851571Y25508858D01*
X9924142Y25436286D01*
X10069285Y25400000D01*
X10323285Y25400000D01*
X10468428Y25436286D01*
X10541000Y25508858D01*
X10577285Y25581429D01*
X9815285Y26597429D02*
X9815285Y26234572D01*
X10577285Y26234572D01*
X9815285Y27214286D02*
X9815285Y26851429D01*
X10577285Y26851429D01*
X10214428Y27468286D02*
X10214428Y27722286D01*
X9815285Y27831143D02*
X9815285Y27468286D01*
X10577285Y27468286D01*
X10577285Y27831143D01*
X9815285Y28593143D02*
X10178142Y28339143D01*
X9815285Y28157715D02*
X10577285Y28157715D01*
X10577285Y28448000D01*
X10541000Y28520572D01*
X10504714Y28556858D01*
X10432142Y28593143D01*
X10323285Y28593143D01*
X10250714Y28556858D01*
X10214428Y28520572D01*
X10178142Y28448000D01*
X10178142Y28157715D01*
D14*
X4951488Y18177027D02*
X4316488Y18388693D01*
X4951488Y18600360D01*
X4316488Y18812027D02*
X4951488Y18812027D01*
X4316488Y19174884D02*
X4679345Y18902741D01*
X4951488Y19174884D02*
X4588630Y18812027D01*
X4316488Y19447027D02*
X4951488Y19447027D01*
X4497916Y19658693D01*
X4951488Y19870360D01*
X4316488Y19870360D01*
X4558392Y20172741D02*
X4558392Y20656550D01*
X4891011Y20928693D02*
X4921250Y20958931D01*
X4951488Y21019408D01*
X4951488Y21170598D01*
X4921250Y21231074D01*
X4891011Y21261312D01*
X4830535Y21291550D01*
X4770059Y21291550D01*
X4679345Y21261312D01*
X4316488Y20898455D01*
X4316488Y21291550D01*
X4316488Y22410360D02*
X4618869Y22198693D01*
X4316488Y22047503D02*
X4951488Y22047503D01*
X4951488Y22289408D01*
X4921250Y22349884D01*
X4891011Y22380122D01*
X4830535Y22410360D01*
X4739821Y22410360D01*
X4679345Y22380122D01*
X4649107Y22349884D01*
X4618869Y22289408D01*
X4618869Y22047503D01*
X4346726Y22924408D02*
X4316488Y22863931D01*
X4316488Y22742979D01*
X4346726Y22682503D01*
X4407202Y22652265D01*
X4649107Y22652265D01*
X4709583Y22682503D01*
X4739821Y22742979D01*
X4739821Y22863931D01*
X4709583Y22924408D01*
X4649107Y22954646D01*
X4588630Y22954646D01*
X4528154Y22652265D01*
X4739821Y23166312D02*
X4316488Y23317503D01*
X4739821Y23468693D01*
X4376964Y24557265D02*
X4346726Y24527027D01*
X4316488Y24436312D01*
X4316488Y24375836D01*
X4346726Y24285122D01*
X4407202Y24224646D01*
X4467678Y24194408D01*
X4588630Y24164170D01*
X4679345Y24164170D01*
X4800297Y24194408D01*
X4860773Y24224646D01*
X4921250Y24285122D01*
X4951488Y24375836D01*
X4951488Y24436312D01*
X4921250Y24527027D01*
X4891011Y24557265D01*
X3236988Y18267741D02*
X3871988Y18267741D01*
X3871988Y18418931D01*
X3841750Y18509646D01*
X3781273Y18570122D01*
X3720797Y18600360D01*
X3599845Y18630598D01*
X3509130Y18630598D01*
X3388178Y18600360D01*
X3327702Y18570122D01*
X3267226Y18509646D01*
X3236988Y18418931D01*
X3236988Y18267741D01*
X3236988Y19174884D02*
X3569607Y19174884D01*
X3630083Y19144646D01*
X3660321Y19084170D01*
X3660321Y18963217D01*
X3630083Y18902741D01*
X3267226Y19174884D02*
X3236988Y19114408D01*
X3236988Y18963217D01*
X3267226Y18902741D01*
X3327702Y18872503D01*
X3388178Y18872503D01*
X3448654Y18902741D01*
X3478892Y18963217D01*
X3478892Y19114408D01*
X3509130Y19174884D01*
X3660321Y19477265D02*
X3236988Y19477265D01*
X3599845Y19477265D02*
X3630083Y19507503D01*
X3660321Y19567979D01*
X3660321Y19658693D01*
X3630083Y19719170D01*
X3569607Y19749408D01*
X3236988Y19749408D01*
X3236988Y20051789D02*
X3660321Y20051789D01*
X3871988Y20051789D02*
X3841750Y20021550D01*
X3811511Y20051789D01*
X3841750Y20082027D01*
X3871988Y20051789D01*
X3811511Y20051789D01*
X3267226Y20596074D02*
X3236988Y20535598D01*
X3236988Y20414646D01*
X3267226Y20354170D01*
X3327702Y20323931D01*
X3569607Y20323931D01*
X3630083Y20354170D01*
X3660321Y20414646D01*
X3660321Y20535598D01*
X3630083Y20596074D01*
X3569607Y20626312D01*
X3509130Y20626312D01*
X3448654Y20323931D01*
X3236988Y20989170D02*
X3267226Y20928693D01*
X3327702Y20898455D01*
X3871988Y20898455D01*
X3267226Y21684646D02*
X3236988Y21775360D01*
X3236988Y21926550D01*
X3267226Y21987027D01*
X3297464Y22017265D01*
X3357940Y22047503D01*
X3418416Y22047503D01*
X3478892Y22017265D01*
X3509130Y21987027D01*
X3539369Y21926550D01*
X3569607Y21805598D01*
X3599845Y21745122D01*
X3630083Y21714884D01*
X3690559Y21684646D01*
X3751035Y21684646D01*
X3811511Y21714884D01*
X3841750Y21745122D01*
X3871988Y21805598D01*
X3871988Y21956789D01*
X3841750Y22047503D01*
X3660321Y22228931D02*
X3660321Y22470836D01*
X3871988Y22319646D02*
X3327702Y22319646D01*
X3267226Y22349884D01*
X3236988Y22410360D01*
X3236988Y22470836D01*
X3236988Y22954646D02*
X3569607Y22954646D01*
X3630083Y22924408D01*
X3660321Y22863931D01*
X3660321Y22742979D01*
X3630083Y22682503D01*
X3267226Y22954646D02*
X3236988Y22894170D01*
X3236988Y22742979D01*
X3267226Y22682503D01*
X3327702Y22652265D01*
X3388178Y22652265D01*
X3448654Y22682503D01*
X3478892Y22742979D01*
X3478892Y22894170D01*
X3509130Y22954646D01*
X3236988Y23257027D02*
X3660321Y23257027D01*
X3539369Y23257027D02*
X3599845Y23287265D01*
X3630083Y23317503D01*
X3660321Y23377979D01*
X3660321Y23438455D01*
X3236988Y23650122D02*
X3871988Y23650122D01*
X3478892Y23710598D02*
X3236988Y23892027D01*
X3660321Y23892027D02*
X3418416Y23650122D01*
X3267226Y24406074D02*
X3236988Y24345598D01*
X3236988Y24224646D01*
X3267226Y24164170D01*
X3327702Y24133931D01*
X3569607Y24133931D01*
X3630083Y24164170D01*
X3660321Y24224646D01*
X3660321Y24345598D01*
X3630083Y24406074D01*
X3569607Y24436312D01*
X3509130Y24436312D01*
X3448654Y24133931D01*
D10*
X3867000Y17272000D02*
X2597000Y17272000D01*
X3867000Y16002000D02*
X3867000Y17272000D01*
X-8703000Y10542000D02*
X-2703000Y10542000D01*
X-8703000Y11302000D02*
X-8703000Y10542000D01*
X-2703000Y11302000D02*
X-8703000Y11302000D01*
X-43000Y12192000D02*
X-2703000Y12192000D01*
X-8703000Y13082000D02*
X-2703000Y13082000D01*
X-8703000Y13842000D02*
X-8703000Y13082000D01*
X-2703000Y13842000D02*
X-8703000Y13842000D01*
X-43000Y14732000D02*
X-2703000Y14732000D01*
X-2703000Y15722000D02*
X-8703000Y15722000D01*
X-2703000Y15842000D02*
X-8703000Y15842000D01*
X-2703000Y15962000D02*
X-8703000Y15962000D01*
X-2703000Y16082000D02*
X-8703000Y16082000D01*
X-2703000Y16202000D02*
X-8703000Y16202000D01*
X-2703000Y16322000D02*
X-8703000Y16322000D01*
X-8703000Y15622000D02*
X-2703000Y15622000D01*
X-8703000Y16382000D02*
X-8703000Y15622000D01*
X-2703000Y16382000D02*
X-8703000Y16382000D01*
X-2703000Y17332000D02*
X-43000Y17332000D01*
X-2703000Y9592000D02*
X-2703000Y17332000D01*
X-43000Y9592000D02*
X-2703000Y9592000D01*
X7812000Y22733000D02*
G75*
G03X7812000Y22733000I-700000J0D01*
G01*
X8066000Y26289000D02*
G75*
G03X8066000Y26289000I-700000J0D01*
G01*
X10225000Y18542000D02*
G75*
G03X10225000Y18542000I-700000J0D01*
G01*
X15940000Y4953000D02*
G75*
G03X15940000Y4953000I-700000J0D01*
G01*
X2732000Y31242000D02*
G75*
G03X2732000Y31242000I-700000J0D01*
G01*
D11*
X1857333Y9564620D02*
X1857333Y8850334D01*
X1904952Y8707477D01*
X2000190Y8612239D01*
X2143047Y8564620D01*
X2238285Y8564620D01*
X1476380Y9564620D02*
X857333Y9564620D01*
X1190666Y9183667D01*
X1047809Y9183667D01*
X952571Y9136048D01*
X904952Y9088429D01*
X857333Y8993191D01*
X857333Y8755096D01*
X904952Y8659858D01*
X952571Y8612239D01*
X1047809Y8564620D01*
X1333523Y8564620D01*
X1428761Y8612239D01*
X1476380Y8659858D01*
X7873904Y21582000D02*
X7969142Y21629620D01*
X8112000Y21629620D01*
X8254857Y21582000D01*
X8350095Y21486762D01*
X8397714Y21391524D01*
X8445333Y21201048D01*
X8445333Y21058191D01*
X8397714Y20867715D01*
X8350095Y20772477D01*
X8254857Y20677239D01*
X8112000Y20629620D01*
X8016761Y20629620D01*
X7873904Y20677239D01*
X7826285Y20724858D01*
X7826285Y21058191D01*
X8016761Y21058191D01*
X7397714Y20629620D02*
X7397714Y21629620D01*
X6826285Y20629620D01*
X6826285Y21629620D01*
X6350095Y20629620D02*
X6350095Y21629620D01*
X6112000Y21629620D01*
X5969142Y21582000D01*
X5873904Y21486762D01*
X5826285Y21391524D01*
X5778666Y21201048D01*
X5778666Y21058191D01*
X5826285Y20867715D01*
X5873904Y20772477D01*
X5969142Y20677239D01*
X6112000Y20629620D01*
X6350095Y20629620D01*
X8604095Y25185620D02*
X7985047Y25185620D01*
X8318380Y24804667D01*
X8175523Y24804667D01*
X8080285Y24757048D01*
X8032666Y24709429D01*
X7985047Y24614191D01*
X7985047Y24376096D01*
X8032666Y24280858D01*
X8080285Y24233239D01*
X8175523Y24185620D01*
X8461238Y24185620D01*
X8556476Y24233239D01*
X8604095Y24280858D01*
X7699333Y25185620D02*
X7366000Y24185620D01*
X7032666Y25185620D01*
X6794571Y25185620D02*
X6175523Y25185620D01*
X6508857Y24804667D01*
X6366000Y24804667D01*
X6270761Y24757048D01*
X6223142Y24709429D01*
X6175523Y24614191D01*
X6175523Y24376096D01*
X6223142Y24280858D01*
X6270761Y24233239D01*
X6366000Y24185620D01*
X6651714Y24185620D01*
X6746952Y24233239D01*
X6794571Y24280858D01*
X7810476Y19089620D02*
X8286666Y19089620D01*
X8334285Y18613429D01*
X8286666Y18661048D01*
X8191428Y18708667D01*
X7953333Y18708667D01*
X7858095Y18661048D01*
X7810476Y18613429D01*
X7762857Y18518191D01*
X7762857Y18280096D01*
X7810476Y18184858D01*
X7858095Y18137239D01*
X7953333Y18089620D01*
X8191428Y18089620D01*
X8286666Y18137239D01*
X8334285Y18184858D01*
X7477142Y19089620D02*
X7143809Y18089620D01*
X6810476Y19089620D01*
X16978095Y3849620D02*
X16978095Y3040096D01*
X16930476Y2944858D01*
X16882857Y2897239D01*
X16787619Y2849620D01*
X16597142Y2849620D01*
X16501904Y2897239D01*
X16454285Y2944858D01*
X16406666Y3040096D01*
X16406666Y3849620D01*
X15978095Y2897239D02*
X15835238Y2849620D01*
X15597142Y2849620D01*
X15501904Y2897239D01*
X15454285Y2944858D01*
X15406666Y3040096D01*
X15406666Y3135334D01*
X15454285Y3230572D01*
X15501904Y3278191D01*
X15597142Y3325810D01*
X15787619Y3373429D01*
X15882857Y3421048D01*
X15930476Y3468667D01*
X15978095Y3563905D01*
X15978095Y3659143D01*
X15930476Y3754381D01*
X15882857Y3802000D01*
X15787619Y3849620D01*
X15549523Y3849620D01*
X15406666Y3802000D01*
X14644761Y3373429D02*
X14501904Y3325810D01*
X14454285Y3278191D01*
X14406666Y3182953D01*
X14406666Y3040096D01*
X14454285Y2944858D01*
X14501904Y2897239D01*
X14597142Y2849620D01*
X14978095Y2849620D01*
X14978095Y3849620D01*
X14644761Y3849620D01*
X14549523Y3802000D01*
X14501904Y3754381D01*
X14454285Y3659143D01*
X14454285Y3563905D01*
X14501904Y3468667D01*
X14549523Y3421048D01*
X14644761Y3373429D01*
X14978095Y3373429D01*
X14025714Y3754381D02*
X13978095Y3802000D01*
X13882857Y3849620D01*
X13644761Y3849620D01*
X13549523Y3802000D01*
X13501904Y3754381D01*
X13454285Y3659143D01*
X13454285Y3563905D01*
X13501904Y3421048D01*
X14073333Y2849620D01*
X13454285Y2849620D01*
X4278095Y30265620D02*
X4278095Y29456096D01*
X4230476Y29360858D01*
X4182857Y29313239D01*
X4087619Y29265620D01*
X3897142Y29265620D01*
X3801904Y29313239D01*
X3754285Y29360858D01*
X3706666Y29456096D01*
X3706666Y30265620D01*
X3278095Y29313239D02*
X3135238Y29265620D01*
X2897142Y29265620D01*
X2801904Y29313239D01*
X2754285Y29360858D01*
X2706666Y29456096D01*
X2706666Y29551334D01*
X2754285Y29646572D01*
X2801904Y29694191D01*
X2897142Y29741810D01*
X3087619Y29789429D01*
X3182857Y29837048D01*
X3230476Y29884667D01*
X3278095Y29979905D01*
X3278095Y30075143D01*
X3230476Y30170381D01*
X3182857Y30218000D01*
X3087619Y30265620D01*
X2849523Y30265620D01*
X2706666Y30218000D01*
X1944761Y29789429D02*
X1801904Y29741810D01*
X1754285Y29694191D01*
X1706666Y29598953D01*
X1706666Y29456096D01*
X1754285Y29360858D01*
X1801904Y29313239D01*
X1897142Y29265620D01*
X2278095Y29265620D01*
X2278095Y30265620D01*
X1944761Y30265620D01*
X1849523Y30218000D01*
X1801904Y30170381D01*
X1754285Y30075143D01*
X1754285Y29979905D01*
X1801904Y29884667D01*
X1849523Y29837048D01*
X1944761Y29789429D01*
X2278095Y29789429D01*
X754285Y29265620D02*
X1325714Y29265620D01*
X1040000Y29265620D02*
X1040000Y30265620D01*
X1135238Y30122762D01*
X1230476Y30027524D01*
X1325714Y29979905D01*
M02*
