G04 #@! TF.GenerationSoftware,KiCad,Pcbnew,(5.1.5)-3*
G04 #@! TF.CreationDate,2023-06-21T22:09:46+02:00*
G04 #@! TF.ProjectId,vkm,766b6d2e-6b69-4636-9164-5f7063625858,C*
G04 #@! TF.SameCoordinates,PX4395450PY715d7c0*
G04 #@! TF.FileFunction,Soldermask,Bot*
G04 #@! TF.FilePolarity,Negative*
%FSLAX46Y46*%
G04 Gerber Fmt 4.6, Leading zero omitted, Abs format (unit mm)*
G04 Created by KiCad (PCBNEW (5.1.5)-3) date 2023-06-21 22:09:46*
%MOMM*%
%LPD*%
G04 APERTURE LIST*
%ADD10C,0.050000*%
%ADD11C,0.020000*%
G04 APERTURE END LIST*
D10*
X1016000Y37338000D02*
X0Y36322000D01*
X17526000Y37338000D02*
X18542000Y36322000D01*
X17526000Y1524000D02*
X18542000Y2540000D01*
X0Y2540000D02*
X1016000Y1524000D01*
X0Y17780000D02*
X0Y2540000D01*
X0Y23114000D02*
X0Y36322000D01*
X2032000Y18542000D02*
G75*
G02X1270000Y17780000I-762000J0D01*
G01*
X1270000Y23114000D02*
G75*
G02X2032000Y22352000I0J-762000D01*
G01*
X2032000Y18542000D02*
X2032000Y22352000D01*
X1270000Y17780000D02*
X0Y17780000D01*
X1270000Y23114000D02*
X0Y23114000D01*
X17526000Y37338000D02*
X1016000Y37338000D01*
X18542000Y2540000D02*
X18542000Y36322000D01*
X1016000Y1524000D02*
X17526000Y1524000D01*
D11*
G36*
X4304444Y3607379D02*
G01*
X4415452Y3573705D01*
X4415454Y3573704D01*
X4517754Y3519023D01*
X4517755Y3519022D01*
X4517757Y3519021D01*
X4607430Y3445430D01*
X4681021Y3355758D01*
X4681022Y3355756D01*
X4681023Y3355755D01*
X4735704Y3253455D01*
X4735705Y3253453D01*
X4769379Y3142445D01*
X4777900Y3055927D01*
X4777900Y2398073D01*
X4769379Y2311555D01*
X4735705Y2200547D01*
X4681021Y2098242D01*
X4607430Y2008570D01*
X4517758Y1934979D01*
X4517756Y1934978D01*
X4517755Y1934977D01*
X4415455Y1880296D01*
X4415453Y1880295D01*
X4304445Y1846621D01*
X4189000Y1835251D01*
X4073556Y1846621D01*
X3962548Y1880295D01*
X3962546Y1880296D01*
X3860246Y1934977D01*
X3860245Y1934978D01*
X3860243Y1934979D01*
X3770571Y2008570D01*
X3696977Y2098245D01*
X3642296Y2200545D01*
X3608621Y2311555D01*
X3600100Y2398073D01*
X3600100Y3055926D01*
X3608621Y3142444D01*
X3642296Y3253454D01*
X3696977Y3355754D01*
X3696980Y3355758D01*
X3770570Y3445430D01*
X3860242Y3519021D01*
X3860244Y3519022D01*
X3860245Y3519023D01*
X3962545Y3573704D01*
X3962547Y3573705D01*
X4073555Y3607379D01*
X4189000Y3618749D01*
X4304444Y3607379D01*
G37*
G36*
X12944444Y3607379D02*
G01*
X13055452Y3573705D01*
X13055454Y3573704D01*
X13157754Y3519023D01*
X13157755Y3519022D01*
X13157757Y3519021D01*
X13247430Y3445430D01*
X13321021Y3355758D01*
X13321022Y3355756D01*
X13321023Y3355755D01*
X13375704Y3253455D01*
X13375705Y3253453D01*
X13409379Y3142445D01*
X13417900Y3055927D01*
X13417900Y2398073D01*
X13409379Y2311555D01*
X13375705Y2200547D01*
X13321021Y2098242D01*
X13247430Y2008570D01*
X13157758Y1934979D01*
X13157756Y1934978D01*
X13157755Y1934977D01*
X13055455Y1880296D01*
X13055453Y1880295D01*
X12944445Y1846621D01*
X12829000Y1835251D01*
X12713556Y1846621D01*
X12602548Y1880295D01*
X12602546Y1880296D01*
X12500246Y1934977D01*
X12500245Y1934978D01*
X12500243Y1934979D01*
X12410571Y2008570D01*
X12336977Y2098245D01*
X12282296Y2200545D01*
X12248621Y2311555D01*
X12240100Y2398073D01*
X12240100Y3055926D01*
X12248621Y3142444D01*
X12282296Y3253454D01*
X12336977Y3355754D01*
X12336980Y3355758D01*
X12410570Y3445430D01*
X12500242Y3519021D01*
X12500244Y3519022D01*
X12500245Y3519023D01*
X12602545Y3573704D01*
X12602547Y3573705D01*
X12713555Y3607379D01*
X12829000Y3618749D01*
X12944444Y3607379D01*
G37*
G36*
X15312127Y5539090D02*
G01*
X15411773Y5519270D01*
X15518952Y5474875D01*
X15615403Y5410429D01*
X15697429Y5328403D01*
X15761875Y5231952D01*
X15806270Y5124773D01*
X15828900Y5011001D01*
X15828900Y4894999D01*
X15806270Y4781227D01*
X15761875Y4674048D01*
X15697429Y4577597D01*
X15615403Y4495571D01*
X15518952Y4431125D01*
X15411773Y4386730D01*
X15312127Y4366910D01*
X15298002Y4364100D01*
X15181998Y4364100D01*
X15167873Y4366910D01*
X15068227Y4386730D01*
X14961048Y4431125D01*
X14864597Y4495571D01*
X14782571Y4577597D01*
X14718125Y4674048D01*
X14673730Y4781227D01*
X14651100Y4894999D01*
X14651100Y5011001D01*
X14673730Y5124773D01*
X14718125Y5231952D01*
X14782571Y5328403D01*
X14864597Y5410429D01*
X14961048Y5474875D01*
X15068227Y5519270D01*
X15167873Y5539090D01*
X15181998Y5541900D01*
X15298002Y5541900D01*
X15312127Y5539090D01*
G37*
G36*
X12944444Y8037379D02*
G01*
X13055452Y8003705D01*
X13055454Y8003704D01*
X13157754Y7949023D01*
X13157755Y7949022D01*
X13157757Y7949021D01*
X13247430Y7875430D01*
X13321021Y7785758D01*
X13321022Y7785756D01*
X13321023Y7785755D01*
X13375704Y7683455D01*
X13375705Y7683453D01*
X13409379Y7572445D01*
X13417900Y7485927D01*
X13417900Y6328073D01*
X13409379Y6241555D01*
X13375705Y6130547D01*
X13321021Y6028242D01*
X13247430Y5938570D01*
X13157758Y5864979D01*
X13157756Y5864978D01*
X13157755Y5864977D01*
X13055455Y5810296D01*
X13055453Y5810295D01*
X12944445Y5776621D01*
X12829000Y5765251D01*
X12713556Y5776621D01*
X12602548Y5810295D01*
X12602546Y5810296D01*
X12500246Y5864977D01*
X12500245Y5864978D01*
X12500243Y5864979D01*
X12410571Y5938570D01*
X12336980Y6028242D01*
X12282296Y6130547D01*
X12248622Y6241555D01*
X12240101Y6328073D01*
X12240100Y7485926D01*
X12248621Y7572444D01*
X12282295Y7683452D01*
X12336979Y7785757D01*
X12410570Y7875430D01*
X12500242Y7949021D01*
X12500244Y7949022D01*
X12500245Y7949023D01*
X12602545Y8003704D01*
X12602547Y8003705D01*
X12713555Y8037379D01*
X12829000Y8048749D01*
X12944444Y8037379D01*
G37*
G36*
X4304444Y8037379D02*
G01*
X4415452Y8003705D01*
X4415454Y8003704D01*
X4517754Y7949023D01*
X4517755Y7949022D01*
X4517757Y7949021D01*
X4607430Y7875430D01*
X4681021Y7785758D01*
X4681022Y7785756D01*
X4681023Y7785755D01*
X4735704Y7683455D01*
X4735705Y7683453D01*
X4769379Y7572445D01*
X4777900Y7485927D01*
X4777900Y6328073D01*
X4769379Y6241555D01*
X4735705Y6130547D01*
X4681021Y6028242D01*
X4607430Y5938570D01*
X4517758Y5864979D01*
X4517756Y5864978D01*
X4517755Y5864977D01*
X4415455Y5810296D01*
X4415453Y5810295D01*
X4304445Y5776621D01*
X4189000Y5765251D01*
X4073556Y5776621D01*
X3962548Y5810295D01*
X3962546Y5810296D01*
X3860246Y5864977D01*
X3860245Y5864978D01*
X3860243Y5864979D01*
X3770571Y5938570D01*
X3696980Y6028242D01*
X3642296Y6130547D01*
X3608622Y6241555D01*
X3600101Y6328073D01*
X3600100Y7485926D01*
X3608621Y7572444D01*
X3642295Y7683452D01*
X3696979Y7785757D01*
X3770570Y7875430D01*
X3860242Y7949021D01*
X3860244Y7949022D01*
X3860245Y7949023D01*
X3962545Y8003704D01*
X3962547Y8003705D01*
X4073555Y8037379D01*
X4189000Y8048749D01*
X4304444Y8037379D01*
G37*
G36*
X11459620Y6786951D02*
G01*
X11519728Y6774995D01*
X11519731Y6774994D01*
X11519730Y6774994D01*
X11595055Y6743794D01*
X11595056Y6743793D01*
X11662848Y6698496D01*
X11720496Y6640848D01*
X11720497Y6640846D01*
X11765794Y6573055D01*
X11789926Y6514794D01*
X11796995Y6497728D01*
X11812900Y6417765D01*
X11812900Y6336235D01*
X11796995Y6256272D01*
X11796994Y6256270D01*
X11765794Y6180945D01*
X11765793Y6180944D01*
X11720496Y6113152D01*
X11662848Y6055504D01*
X11628721Y6032701D01*
X11595055Y6010206D01*
X11536794Y5986074D01*
X11519728Y5979005D01*
X11459620Y5967049D01*
X11439766Y5963100D01*
X11358234Y5963100D01*
X11338380Y5967049D01*
X11278272Y5979005D01*
X11261206Y5986074D01*
X11202945Y6010206D01*
X11169279Y6032701D01*
X11135152Y6055504D01*
X11077504Y6113152D01*
X11032207Y6180944D01*
X11032206Y6180945D01*
X11001006Y6256270D01*
X11001005Y6256272D01*
X10985100Y6336235D01*
X10985100Y6417765D01*
X11001005Y6497728D01*
X11008074Y6514794D01*
X11032206Y6573055D01*
X11077503Y6640846D01*
X11077504Y6640848D01*
X11135152Y6698496D01*
X11202944Y6743793D01*
X11202945Y6743794D01*
X11278270Y6774994D01*
X11278269Y6774994D01*
X11278272Y6774995D01*
X11338380Y6786951D01*
X11358234Y6790900D01*
X11439766Y6790900D01*
X11459620Y6786951D01*
G37*
G36*
X5679620Y6786951D02*
G01*
X5739728Y6774995D01*
X5739731Y6774994D01*
X5739730Y6774994D01*
X5815055Y6743794D01*
X5815056Y6743793D01*
X5882848Y6698496D01*
X5940496Y6640848D01*
X5940497Y6640846D01*
X5985794Y6573055D01*
X6009926Y6514794D01*
X6016995Y6497728D01*
X6032900Y6417765D01*
X6032900Y6336235D01*
X6016995Y6256272D01*
X6016994Y6256270D01*
X5985794Y6180945D01*
X5985793Y6180944D01*
X5940496Y6113152D01*
X5882848Y6055504D01*
X5848721Y6032701D01*
X5815055Y6010206D01*
X5756794Y5986074D01*
X5739728Y5979005D01*
X5679620Y5967049D01*
X5659766Y5963100D01*
X5578234Y5963100D01*
X5558380Y5967049D01*
X5498272Y5979005D01*
X5481206Y5986074D01*
X5422945Y6010206D01*
X5389279Y6032701D01*
X5355152Y6055504D01*
X5297504Y6113152D01*
X5252207Y6180944D01*
X5252206Y6180945D01*
X5221006Y6256270D01*
X5221005Y6256272D01*
X5205100Y6336235D01*
X5205100Y6417765D01*
X5221005Y6497728D01*
X5228074Y6514794D01*
X5252206Y6573055D01*
X5297503Y6640846D01*
X5297504Y6640848D01*
X5355152Y6698496D01*
X5422944Y6743793D01*
X5422945Y6743794D01*
X5498270Y6774994D01*
X5498269Y6774994D01*
X5498272Y6774995D01*
X5558380Y6786951D01*
X5578234Y6790900D01*
X5659766Y6790900D01*
X5679620Y6786951D01*
G37*
G36*
X16656867Y10427819D02*
G01*
X16827736Y10357042D01*
X16981514Y10254291D01*
X17112291Y10123514D01*
X17215042Y9969736D01*
X17285819Y9798867D01*
X17321900Y9617474D01*
X17321900Y9432526D01*
X17285819Y9251133D01*
X17215042Y9080264D01*
X17112291Y8926486D01*
X16981514Y8795709D01*
X16827736Y8692958D01*
X16656867Y8622181D01*
X16475474Y8586100D01*
X16290526Y8586100D01*
X16109133Y8622181D01*
X15938264Y8692958D01*
X15784486Y8795709D01*
X15653709Y8926486D01*
X15550958Y9080264D01*
X15480181Y9251133D01*
X15444100Y9432526D01*
X15444100Y9617474D01*
X15480181Y9798867D01*
X15550958Y9969736D01*
X15653709Y10123514D01*
X15784486Y10254291D01*
X15938264Y10357042D01*
X16109133Y10427819D01*
X16290526Y10463900D01*
X16475474Y10463900D01*
X16656867Y10427819D01*
G37*
G36*
X3485900Y9983100D02*
G01*
X-91900Y9983100D01*
X-91900Y11860900D01*
X3485900Y11860900D01*
X3485900Y9983100D01*
G37*
G36*
X16656867Y12967819D02*
G01*
X16827736Y12897042D01*
X16981514Y12794291D01*
X17112291Y12663514D01*
X17215042Y12509736D01*
X17285819Y12338867D01*
X17321900Y12157474D01*
X17321900Y11972526D01*
X17285819Y11791133D01*
X17215042Y11620264D01*
X17112291Y11466486D01*
X16981514Y11335709D01*
X16827736Y11232958D01*
X16656867Y11162181D01*
X16475474Y11126100D01*
X16290526Y11126100D01*
X16109133Y11162181D01*
X15938264Y11232958D01*
X15784486Y11335709D01*
X15653709Y11466486D01*
X15550958Y11620264D01*
X15480181Y11791133D01*
X15444100Y11972526D01*
X15444100Y12157474D01*
X15480181Y12338867D01*
X15550958Y12509736D01*
X15653709Y12663514D01*
X15784486Y12794291D01*
X15938264Y12897042D01*
X16109133Y12967819D01*
X16290526Y13003900D01*
X16475474Y13003900D01*
X16656867Y12967819D01*
G37*
G36*
X3485900Y12523100D02*
G01*
X-91900Y12523100D01*
X-91900Y14400900D01*
X3485900Y14400900D01*
X3485900Y12523100D01*
G37*
G36*
X16656867Y15507819D02*
G01*
X16827736Y15437042D01*
X16981514Y15334291D01*
X17112291Y15203514D01*
X17215042Y15049736D01*
X17285819Y14878867D01*
X17321900Y14697474D01*
X17321900Y14512526D01*
X17285819Y14331133D01*
X17215042Y14160264D01*
X17112291Y14006486D01*
X16981514Y13875709D01*
X16827736Y13772958D01*
X16656867Y13702181D01*
X16475474Y13666100D01*
X16290526Y13666100D01*
X16109133Y13702181D01*
X15938264Y13772958D01*
X15784486Y13875709D01*
X15653709Y14006486D01*
X15550958Y14160264D01*
X15480181Y14331133D01*
X15444100Y14512526D01*
X15444100Y14697474D01*
X15480181Y14878867D01*
X15550958Y15049736D01*
X15653709Y15203514D01*
X15784486Y15334291D01*
X15938264Y15437042D01*
X16109133Y15507819D01*
X16290526Y15543900D01*
X16475474Y15543900D01*
X16656867Y15507819D01*
G37*
G36*
X3485900Y15063100D02*
G01*
X-91900Y15063100D01*
X-91900Y16940900D01*
X3485900Y16940900D01*
X3485900Y15063100D01*
G37*
G36*
X16656867Y18047819D02*
G01*
X16827736Y17977042D01*
X16981514Y17874291D01*
X17112291Y17743514D01*
X17215042Y17589736D01*
X17285819Y17418867D01*
X17321900Y17237474D01*
X17321900Y17052526D01*
X17285819Y16871133D01*
X17215042Y16700264D01*
X17112291Y16546486D01*
X16981514Y16415709D01*
X16827736Y16312958D01*
X16656867Y16242181D01*
X16475474Y16206100D01*
X16290526Y16206100D01*
X16109133Y16242181D01*
X15938264Y16312958D01*
X15784486Y16415709D01*
X15653709Y16546486D01*
X15550958Y16700264D01*
X15480181Y16871133D01*
X15444100Y17052526D01*
X15444100Y17237474D01*
X15480181Y17418867D01*
X15550958Y17589736D01*
X15653709Y17743514D01*
X15784486Y17874291D01*
X15938264Y17977042D01*
X16109133Y18047819D01*
X16290526Y18083900D01*
X16475474Y18083900D01*
X16656867Y18047819D01*
G37*
G36*
X9597127Y19128090D02*
G01*
X9696773Y19108270D01*
X9803952Y19063875D01*
X9900403Y18999429D01*
X9982429Y18917403D01*
X10046875Y18820952D01*
X10091270Y18713773D01*
X10113900Y18600001D01*
X10113900Y18483999D01*
X10091270Y18370227D01*
X10046875Y18263048D01*
X9982429Y18166597D01*
X9900403Y18084571D01*
X9803952Y18020125D01*
X9696773Y17975730D01*
X9597127Y17955910D01*
X9583002Y17953100D01*
X9466998Y17953100D01*
X9452873Y17955910D01*
X9353227Y17975730D01*
X9246048Y18020125D01*
X9149597Y18084571D01*
X9067571Y18166597D01*
X9003125Y18263048D01*
X8958730Y18370227D01*
X8936100Y18483999D01*
X8936100Y18600001D01*
X8958730Y18713773D01*
X9003125Y18820952D01*
X9067571Y18917403D01*
X9149597Y18999429D01*
X9246048Y19063875D01*
X9353227Y19108270D01*
X9452873Y19128090D01*
X9466998Y19130900D01*
X9583002Y19130900D01*
X9597127Y19128090D01*
G37*
G36*
X17321900Y18746100D02*
G01*
X15444100Y18746100D01*
X15444100Y20623900D01*
X17321900Y20623900D01*
X17321900Y18746100D01*
G37*
G36*
X16656867Y23127819D02*
G01*
X16827736Y23057042D01*
X16981514Y22954291D01*
X17112291Y22823514D01*
X17215042Y22669736D01*
X17285819Y22498867D01*
X17321900Y22317474D01*
X17321900Y22132526D01*
X17285819Y21951133D01*
X17215042Y21780264D01*
X17112291Y21626486D01*
X16981514Y21495709D01*
X16827736Y21392958D01*
X16656867Y21322181D01*
X16475474Y21286100D01*
X16290526Y21286100D01*
X16109133Y21322181D01*
X15938264Y21392958D01*
X15784486Y21495709D01*
X15653709Y21626486D01*
X15550958Y21780264D01*
X15480181Y21951133D01*
X15444100Y22132526D01*
X15444100Y22317474D01*
X15480181Y22498867D01*
X15550958Y22669736D01*
X15653709Y22823514D01*
X15784486Y22954291D01*
X15938264Y23057042D01*
X16109133Y23127819D01*
X16290526Y23163900D01*
X16475474Y23163900D01*
X16656867Y23127819D01*
G37*
G36*
X7184127Y23319090D02*
G01*
X7283773Y23299270D01*
X7390952Y23254875D01*
X7487403Y23190429D01*
X7569429Y23108403D01*
X7633875Y23011952D01*
X7678270Y22904773D01*
X7700900Y22791001D01*
X7700900Y22674999D01*
X7678270Y22561227D01*
X7633875Y22454048D01*
X7569429Y22357597D01*
X7487403Y22275571D01*
X7390952Y22211125D01*
X7283773Y22166730D01*
X7184127Y22146910D01*
X7170002Y22144100D01*
X7053998Y22144100D01*
X7039873Y22146910D01*
X6940227Y22166730D01*
X6833048Y22211125D01*
X6736597Y22275571D01*
X6654571Y22357597D01*
X6590125Y22454048D01*
X6545730Y22561227D01*
X6523100Y22674999D01*
X6523100Y22791001D01*
X6545730Y22904773D01*
X6590125Y23011952D01*
X6654571Y23108403D01*
X6736597Y23190429D01*
X6833048Y23254875D01*
X6940227Y23299270D01*
X7039873Y23319090D01*
X7053998Y23321900D01*
X7170002Y23321900D01*
X7184127Y23319090D01*
G37*
G36*
X16656867Y25667819D02*
G01*
X16827736Y25597042D01*
X16981514Y25494291D01*
X17112291Y25363514D01*
X17215042Y25209736D01*
X17285819Y25038867D01*
X17321900Y24857474D01*
X17321900Y24672526D01*
X17285819Y24491133D01*
X17215042Y24320264D01*
X17112291Y24166486D01*
X16981514Y24035709D01*
X16827736Y23932958D01*
X16656867Y23862181D01*
X16475474Y23826100D01*
X16290526Y23826100D01*
X16109133Y23862181D01*
X15938264Y23932958D01*
X15784486Y24035709D01*
X15653709Y24166486D01*
X15550958Y24320264D01*
X15480181Y24491133D01*
X15444100Y24672526D01*
X15444100Y24857474D01*
X15480181Y25038867D01*
X15550958Y25209736D01*
X15653709Y25363514D01*
X15784486Y25494291D01*
X15938264Y25597042D01*
X16109133Y25667819D01*
X16290526Y25703900D01*
X16475474Y25703900D01*
X16656867Y25667819D01*
G37*
G36*
X7438127Y26875090D02*
G01*
X7537773Y26855270D01*
X7644952Y26810875D01*
X7741403Y26746429D01*
X7823429Y26664403D01*
X7887875Y26567952D01*
X7932270Y26460773D01*
X7954900Y26347001D01*
X7954900Y26230999D01*
X7932270Y26117227D01*
X7887875Y26010048D01*
X7823429Y25913597D01*
X7741403Y25831571D01*
X7644952Y25767125D01*
X7537773Y25722730D01*
X7443105Y25703900D01*
X7424002Y25700100D01*
X7307998Y25700100D01*
X7288895Y25703900D01*
X7194227Y25722730D01*
X7087048Y25767125D01*
X6990597Y25831571D01*
X6908571Y25913597D01*
X6844125Y26010048D01*
X6799730Y26117227D01*
X6777100Y26230999D01*
X6777100Y26347001D01*
X6799730Y26460773D01*
X6844125Y26567952D01*
X6908571Y26664403D01*
X6990597Y26746429D01*
X7087048Y26810875D01*
X7194227Y26855270D01*
X7293873Y26875090D01*
X7307998Y26877900D01*
X7424002Y26877900D01*
X7438127Y26875090D01*
G37*
G36*
X16656867Y28207819D02*
G01*
X16827736Y28137042D01*
X16981514Y28034291D01*
X17112291Y27903514D01*
X17215042Y27749736D01*
X17285819Y27578867D01*
X17321900Y27397474D01*
X17321900Y27212526D01*
X17285819Y27031133D01*
X17215042Y26860264D01*
X17112291Y26706486D01*
X16981514Y26575709D01*
X16827736Y26472958D01*
X16656867Y26402181D01*
X16475474Y26366100D01*
X16290526Y26366100D01*
X16109133Y26402181D01*
X15938264Y26472958D01*
X15784486Y26575709D01*
X15653709Y26706486D01*
X15550958Y26860264D01*
X15480181Y27031133D01*
X15444100Y27212526D01*
X15444100Y27397474D01*
X15480181Y27578867D01*
X15550958Y27749736D01*
X15653709Y27903514D01*
X15784486Y28034291D01*
X15938264Y28137042D01*
X16109133Y28207819D01*
X16290526Y28243900D01*
X16475474Y28243900D01*
X16656867Y28207819D01*
G37*
G36*
X16656867Y30747819D02*
G01*
X16827736Y30677042D01*
X16981514Y30574291D01*
X17112291Y30443514D01*
X17215042Y30289736D01*
X17285819Y30118867D01*
X17321900Y29937474D01*
X17321900Y29752526D01*
X17285819Y29571133D01*
X17215042Y29400264D01*
X17112291Y29246486D01*
X16981514Y29115709D01*
X16827736Y29012958D01*
X16656867Y28942181D01*
X16475474Y28906100D01*
X16290526Y28906100D01*
X16109133Y28942181D01*
X15938264Y29012958D01*
X15784486Y29115709D01*
X15653709Y29246486D01*
X15550958Y29400264D01*
X15480181Y29571133D01*
X15444100Y29752526D01*
X15444100Y29937474D01*
X15480181Y30118867D01*
X15550958Y30289736D01*
X15653709Y30443514D01*
X15784486Y30574291D01*
X15938264Y30677042D01*
X16109133Y30747819D01*
X16290526Y30783900D01*
X16475474Y30783900D01*
X16656867Y30747819D01*
G37*
G36*
X2104127Y31828090D02*
G01*
X2203773Y31808270D01*
X2310952Y31763875D01*
X2407403Y31699429D01*
X2489429Y31617403D01*
X2553875Y31520952D01*
X2598270Y31413773D01*
X2620900Y31300001D01*
X2620900Y31183999D01*
X2598270Y31070227D01*
X2553875Y30963048D01*
X2489429Y30866597D01*
X2407403Y30784571D01*
X2310952Y30720125D01*
X2203773Y30675730D01*
X2104127Y30655910D01*
X2090002Y30653100D01*
X1973998Y30653100D01*
X1959873Y30655910D01*
X1860227Y30675730D01*
X1753048Y30720125D01*
X1656597Y30784571D01*
X1574571Y30866597D01*
X1510125Y30963048D01*
X1465730Y31070227D01*
X1443100Y31183999D01*
X1443100Y31300001D01*
X1465730Y31413773D01*
X1510125Y31520952D01*
X1574571Y31617403D01*
X1656597Y31699429D01*
X1753048Y31763875D01*
X1860227Y31808270D01*
X1959873Y31828090D01*
X1973998Y31830900D01*
X2090002Y31830900D01*
X2104127Y31828090D01*
G37*
G36*
X7712283Y33482740D02*
G01*
X7874052Y33415733D01*
X8019641Y33318454D01*
X8143454Y33194641D01*
X8240733Y33049052D01*
X8307740Y32887283D01*
X8341900Y32715549D01*
X8341900Y32540451D01*
X8307740Y32368717D01*
X8240733Y32206948D01*
X8143454Y32061359D01*
X8019641Y31937546D01*
X7874052Y31840267D01*
X7712283Y31773260D01*
X7540549Y31739100D01*
X7365451Y31739100D01*
X7193717Y31773260D01*
X7031948Y31840267D01*
X6886359Y31937546D01*
X6762546Y32061359D01*
X6665267Y32206948D01*
X6598260Y32368717D01*
X6564100Y32540451D01*
X6564100Y32715549D01*
X6598260Y32887283D01*
X6665267Y33049052D01*
X6762546Y33194641D01*
X6886359Y33318454D01*
X7031948Y33415733D01*
X7193717Y33482740D01*
X7365451Y33516900D01*
X7540549Y33516900D01*
X7712283Y33482740D01*
G37*
G36*
X5212283Y33482740D02*
G01*
X5374052Y33415733D01*
X5519641Y33318454D01*
X5643454Y33194641D01*
X5740733Y33049052D01*
X5807740Y32887283D01*
X5841900Y32715549D01*
X5841900Y32540451D01*
X5807740Y32368717D01*
X5740733Y32206948D01*
X5643454Y32061359D01*
X5519641Y31937546D01*
X5374052Y31840267D01*
X5212283Y31773260D01*
X5040549Y31739100D01*
X4865451Y31739100D01*
X4693717Y31773260D01*
X4531948Y31840267D01*
X4386359Y31937546D01*
X4262546Y32061359D01*
X4165267Y32206948D01*
X4098260Y32368717D01*
X4064100Y32540451D01*
X4064100Y32715549D01*
X4098260Y32887283D01*
X4165267Y33049052D01*
X4262546Y33194641D01*
X4386359Y33318454D01*
X4531948Y33415733D01*
X4693717Y33482740D01*
X4865451Y33516900D01*
X5040549Y33516900D01*
X5212283Y33482740D01*
G37*
G36*
X9712283Y33482740D02*
G01*
X9874052Y33415733D01*
X10019641Y33318454D01*
X10143454Y33194641D01*
X10240733Y33049052D01*
X10307740Y32887283D01*
X10341900Y32715549D01*
X10341900Y32540451D01*
X10307740Y32368717D01*
X10240733Y32206948D01*
X10143454Y32061359D01*
X10019641Y31937546D01*
X9874052Y31840267D01*
X9712283Y31773260D01*
X9540549Y31739100D01*
X9365451Y31739100D01*
X9193717Y31773260D01*
X9031948Y31840267D01*
X8886359Y31937546D01*
X8762546Y32061359D01*
X8665267Y32206948D01*
X8598260Y32368717D01*
X8564100Y32540451D01*
X8564100Y32715549D01*
X8598260Y32887283D01*
X8665267Y33049052D01*
X8762546Y33194641D01*
X8886359Y33318454D01*
X9031948Y33415733D01*
X9193717Y33482740D01*
X9365451Y33516900D01*
X9540549Y33516900D01*
X9712283Y33482740D01*
G37*
G36*
X12212283Y33482740D02*
G01*
X12374052Y33415733D01*
X12519641Y33318454D01*
X12643454Y33194641D01*
X12740733Y33049052D01*
X12807740Y32887283D01*
X12841900Y32715549D01*
X12841900Y32540451D01*
X12807740Y32368717D01*
X12740733Y32206948D01*
X12643454Y32061359D01*
X12519641Y31937546D01*
X12374052Y31840267D01*
X12212283Y31773260D01*
X12040549Y31739100D01*
X11865451Y31739100D01*
X11693717Y31773260D01*
X11531948Y31840267D01*
X11386359Y31937546D01*
X11262546Y32061359D01*
X11165267Y32206948D01*
X11098260Y32368717D01*
X11064100Y32540451D01*
X11064100Y32715549D01*
X11098260Y32887283D01*
X11165267Y33049052D01*
X11262546Y33194641D01*
X11386359Y33318454D01*
X11531948Y33415733D01*
X11693717Y33482740D01*
X11865451Y33516900D01*
X12040549Y33516900D01*
X12212283Y33482740D01*
G37*
G36*
X2816461Y36201144D02*
G01*
X3021717Y36138880D01*
X3210887Y36037767D01*
X3376694Y35901694D01*
X3512769Y35735884D01*
X3613879Y35546722D01*
X3676144Y35341462D01*
X3691900Y35181487D01*
X3691900Y33674513D01*
X3676144Y33514538D01*
X3613879Y33309278D01*
X3512769Y33120116D01*
X3512767Y33120113D01*
X3376694Y32954306D01*
X3210887Y32818233D01*
X3210885Y32818232D01*
X3210884Y32818231D01*
X3021722Y32717121D01*
X2816462Y32654856D01*
X2603000Y32633832D01*
X2389539Y32654856D01*
X2184279Y32717121D01*
X1995117Y32818231D01*
X1995116Y32818232D01*
X1995114Y32818233D01*
X1829307Y32954306D01*
X1693231Y33120116D01*
X1592121Y33309278D01*
X1529856Y33514538D01*
X1514100Y33674513D01*
X1514100Y35181486D01*
X1529856Y35341461D01*
X1592120Y35546717D01*
X1693233Y35735887D01*
X1829306Y35901694D01*
X1995113Y36037767D01*
X1995115Y36037768D01*
X1995116Y36037769D01*
X2184278Y36138879D01*
X2389538Y36201144D01*
X2603000Y36222168D01*
X2816461Y36201144D01*
G37*
G36*
X14516461Y36201144D02*
G01*
X14721717Y36138880D01*
X14910887Y36037767D01*
X15076694Y35901694D01*
X15212769Y35735884D01*
X15313879Y35546722D01*
X15376144Y35341462D01*
X15391900Y35181487D01*
X15391900Y33674513D01*
X15376144Y33514538D01*
X15313879Y33309278D01*
X15212769Y33120116D01*
X15212767Y33120113D01*
X15076694Y32954306D01*
X14910887Y32818233D01*
X14910885Y32818232D01*
X14910884Y32818231D01*
X14721722Y32717121D01*
X14516462Y32654856D01*
X14303000Y32633832D01*
X14089539Y32654856D01*
X13884279Y32717121D01*
X13695117Y32818231D01*
X13695116Y32818232D01*
X13695114Y32818233D01*
X13529307Y32954306D01*
X13393231Y33120116D01*
X13292121Y33309278D01*
X13229856Y33514538D01*
X13214100Y33674513D01*
X13214100Y35181486D01*
X13229856Y35341461D01*
X13292120Y35546717D01*
X13393233Y35735887D01*
X13529306Y35901694D01*
X13695113Y36037767D01*
X13695115Y36037768D01*
X13695116Y36037769D01*
X13884278Y36138879D01*
X14089538Y36201144D01*
X14303000Y36222168D01*
X14516461Y36201144D01*
G37*
G36*
X10770127Y35014090D02*
G01*
X10869773Y34994270D01*
X10976952Y34949875D01*
X11073403Y34885429D01*
X11155429Y34803403D01*
X11219875Y34706952D01*
X11264270Y34599773D01*
X11286900Y34486001D01*
X11286900Y34369999D01*
X11264270Y34256227D01*
X11219875Y34149048D01*
X11155429Y34052597D01*
X11073403Y33970571D01*
X10976952Y33906125D01*
X10869773Y33861730D01*
X10770127Y33841910D01*
X10756002Y33839100D01*
X10639998Y33839100D01*
X10625873Y33841910D01*
X10526227Y33861730D01*
X10419048Y33906125D01*
X10322597Y33970571D01*
X10240571Y34052597D01*
X10176125Y34149048D01*
X10131730Y34256227D01*
X10109100Y34369999D01*
X10109100Y34486001D01*
X10131730Y34599773D01*
X10176125Y34706952D01*
X10240571Y34803403D01*
X10322597Y34885429D01*
X10419048Y34949875D01*
X10526227Y34994270D01*
X10625873Y35014090D01*
X10639998Y35016900D01*
X10756002Y35016900D01*
X10770127Y35014090D01*
G37*
G36*
X6280127Y35014090D02*
G01*
X6379773Y34994270D01*
X6486952Y34949875D01*
X6583403Y34885429D01*
X6665429Y34803403D01*
X6729875Y34706952D01*
X6774270Y34599773D01*
X6796900Y34486001D01*
X6796900Y34369999D01*
X6774270Y34256227D01*
X6729875Y34149048D01*
X6665429Y34052597D01*
X6583403Y33970571D01*
X6486952Y33906125D01*
X6379773Y33861730D01*
X6280127Y33841910D01*
X6266002Y33839100D01*
X6149998Y33839100D01*
X6135873Y33841910D01*
X6036227Y33861730D01*
X5929048Y33906125D01*
X5832597Y33970571D01*
X5750571Y34052597D01*
X5686125Y34149048D01*
X5641730Y34256227D01*
X5619100Y34369999D01*
X5619100Y34486001D01*
X5641730Y34599773D01*
X5686125Y34706952D01*
X5750571Y34803403D01*
X5832597Y34885429D01*
X5929048Y34949875D01*
X6036227Y34994270D01*
X6135873Y35014090D01*
X6149998Y35016900D01*
X6266002Y35016900D01*
X6280127Y35014090D01*
G37*
M02*
