%MOIN*%
%OFA0B0*%
%FSLAX46Y46*%
%IPPOS*%
%LPD*%
%ADD10C,0.006000000000000001*%
%ADD11C,0.004*%
%ADD12C,0.006000000000000001*%
%ADD13C,0.004*%
%ADD14C,0.006000000000000001*%
%ADD15C,0.004*%
%ADD16C,0.006000000000000001*%
%ADD17C,0.004*%
%ADD18C,0.006000000000000001*%
%ADD19C,0.004*%
%ADD20C,0.006000000000000001*%
%ADD21C,0.004*%
%ADD22C,0.006000000000000001*%
%ADD23C,0.004*%
%ADD24C,0.006000000000000001*%
%ADD25C,0.004*%
%ADD26C,0.006000000000000001*%
%ADD27C,0.004*%
%ADD28C,0.006000000000000001*%
%ADD29C,0.004*%
G04 next file*
G04 #@! TF.GenerationSoftware,KiCad,Pcbnew,(5.1.4)-1*
G04 #@! TF.CreationDate,2019-12-18T21:33:11+01:00*
G04 #@! TF.ProjectId,ser,7365722e-6b69-4636-9164-5f7063625858,rev?*
G04 #@! TF.SameCoordinates,Original*
G04 #@! TF.FileFunction,Legend,Top*
G04 #@! TF.FilePolarity,Positive*
G04 Gerber Fmt 4.6, Leading zero omitted, Abs format (unit mm)*
G04 Created by KiCad (PCBNEW (5.1.4)-1) date 2019-12-18 21:33:11*
G04 APERTURE LIST*
G04 APERTURE END LIST*
D10*
X0000210000Y0001084999D02*
X0000185000Y0001084999D01*
X0000185000Y0001109999D02*
X0000185000Y0001084999D01*
X0000160000Y0001084999D02*
X0000185000Y0001084999D01*
G36*
X0000210000Y0001059999D02*
G01*
X0000160000Y0001059999D01*
X0000185000Y0001084999D01*
X0000210000Y0001059999D01*
G37*
X0000210000Y0001059999D02*
X0000160000Y0001059999D01*
X0000185000Y0001084999D01*
X0000210000Y0001059999D01*
X0000185000Y0001084999D02*
X0000160000Y0001084999D01*
X0000185000Y0001034999D02*
X0000185000Y0001059999D01*
X0000410000Y0001084999D02*
X0000385000Y0001084999D01*
X0000385000Y0001109999D02*
X0000385000Y0001084999D01*
X0000360000Y0001084999D02*
X0000385000Y0001084999D01*
G36*
X0000410000Y0001059999D02*
G01*
X0000360000Y0001059999D01*
X0000385000Y0001084999D01*
X0000410000Y0001059999D01*
G37*
X0000410000Y0001059999D02*
X0000360000Y0001059999D01*
X0000385000Y0001084999D01*
X0000410000Y0001059999D01*
X0000385000Y0001084999D02*
X0000360000Y0001084999D01*
X0000385000Y0001034999D02*
X0000385000Y0001059999D01*
X0000410000Y0001284999D02*
X0000385000Y0001284999D01*
X0000385000Y0001309999D02*
X0000385000Y0001284999D01*
X0000360000Y0001284999D02*
X0000385000Y0001284999D01*
G36*
X0000410000Y0001259999D02*
G01*
X0000360000Y0001259999D01*
X0000385000Y0001284999D01*
X0000410000Y0001259999D01*
G37*
X0000410000Y0001259999D02*
X0000360000Y0001259999D01*
X0000385000Y0001284999D01*
X0000410000Y0001259999D01*
X0000385000Y0001284999D02*
X0000360000Y0001284999D01*
X0000385000Y0001234999D02*
X0000385000Y0001259999D01*
G36*
X0000210000Y0001259999D02*
G01*
X0000160000Y0001259999D01*
X0000185000Y0001284999D01*
X0000210000Y0001259999D01*
G37*
X0000210000Y0001259999D02*
X0000160000Y0001259999D01*
X0000185000Y0001284999D01*
X0000210000Y0001259999D01*
X0000210000Y0001284999D02*
X0000185000Y0001284999D01*
X0000185000Y0001309999D02*
X0000185000Y0001284999D01*
X0000160000Y0001284999D02*
X0000185000Y0001284999D01*
X0000185000Y0001284999D02*
X0000160000Y0001284999D01*
X0000185000Y0001234999D02*
X0000185000Y0001259999D01*
D11*
X0000590000Y0000638571D02*
X0000590000Y0000652857D01*
X0000598571Y0000635714D02*
X0000568571Y0000645714D01*
X0000598571Y0000655714D01*
X0000568571Y0000671428D02*
X0000568571Y0000674285D01*
X0000570000Y0000677142D01*
X0000571428Y0000678571D01*
X0000574285Y0000679999D01*
X0000580000Y0000681428D01*
X0000587142Y0000681428D01*
X0000592857Y0000679999D01*
X0000595714Y0000678571D01*
X0000597142Y0000677142D01*
X0000598571Y0000674285D01*
X0000598571Y0000671428D01*
X0000597142Y0000668571D01*
X0000595714Y0000667142D01*
X0000592857Y0000665714D01*
X0000587142Y0000664285D01*
X0000580000Y0000664285D01*
X0000574285Y0000665714D01*
X0000571428Y0000667142D01*
X0000570000Y0000668571D01*
X0000568571Y0000671428D01*
X0000598571Y0001143571D02*
X0000584285Y0001133571D01*
X0000598571Y0001126428D02*
X0000568571Y0001126428D01*
X0000568571Y0001137857D01*
X0000570000Y0001140714D01*
X0000571428Y0001142142D01*
X0000574285Y0001143571D01*
X0000578571Y0001143571D01*
X0000581428Y0001142142D01*
X0000582857Y0001140714D01*
X0000584285Y0001137857D01*
X0000584285Y0001126428D01*
X0000597142Y0001154999D02*
X0000598571Y0001159285D01*
X0000598571Y0001166428D01*
X0000597142Y0001169285D01*
X0000595714Y0001170714D01*
X0000592857Y0001172142D01*
X0000590000Y0001172142D01*
X0000587142Y0001170714D01*
X0000585714Y0001169285D01*
X0000584285Y0001166428D01*
X0000582857Y0001160714D01*
X0000581428Y0001157857D01*
X0000580000Y0001156428D01*
X0000577142Y0001154999D01*
X0000574285Y0001154999D01*
X0000571428Y0001156428D01*
X0000570000Y0001157857D01*
X0000568571Y0001160714D01*
X0000568571Y0001167857D01*
X0000570000Y0001172142D01*
X0000568571Y0001180714D02*
X0000568571Y0001197857D01*
X0000598571Y0001189285D02*
X0000568571Y0001189285D01*
X0000148571Y0001239999D02*
X0000134285Y0001229999D01*
X0000148571Y0001222857D02*
X0000118571Y0001222857D01*
X0000118571Y0001234285D01*
X0000120000Y0001237142D01*
X0000121428Y0001238571D01*
X0000124285Y0001239999D01*
X0000128571Y0001239999D01*
X0000131428Y0001238571D01*
X0000132857Y0001237142D01*
X0000134285Y0001234285D01*
X0000134285Y0001222857D01*
X0000118571Y0001249999D02*
X0000148571Y0001269999D01*
X0000118571Y0001269999D02*
X0000148571Y0001249999D01*
X0000148571Y0001281428D02*
X0000118571Y0001281428D01*
X0000118571Y0001288571D01*
X0000120000Y0001292857D01*
X0000122857Y0001295714D01*
X0000125714Y0001297142D01*
X0000131428Y0001298571D01*
X0000135714Y0001298571D01*
X0000141428Y0001297142D01*
X0000144285Y0001295714D01*
X0000147142Y0001292857D01*
X0000148571Y0001288571D01*
X0000148571Y0001281428D01*
X0000118571Y0001322142D02*
X0000118571Y0001339285D01*
X0000148571Y0001330714D02*
X0000118571Y0001330714D01*
X0000118571Y0001346428D02*
X0000148571Y0001366428D01*
X0000118571Y0001366428D02*
X0000148571Y0001346428D01*
X0000148571Y0001377857D02*
X0000118571Y0001377857D01*
X0000118571Y0001384999D01*
X0000120000Y0001389285D01*
X0000122857Y0001392142D01*
X0000125714Y0001393571D01*
X0000131428Y0001394999D01*
X0000135714Y0001394999D01*
X0000141428Y0001393571D01*
X0000144285Y0001392142D01*
X0000147142Y0001389285D01*
X0000148571Y0001384999D01*
X0000148571Y0001377857D01*
X0000143571Y0000154285D02*
X0000143571Y0000139999D01*
X0000157857Y0000138571D01*
X0000156428Y0000139999D01*
X0000155000Y0000142857D01*
X0000155000Y0000149999D01*
X0000156428Y0000152857D01*
X0000157857Y0000154285D01*
X0000160714Y0000155714D01*
X0000167857Y0000155714D01*
X0000170714Y0000154285D01*
X0000172142Y0000152857D01*
X0000173571Y0000149999D01*
X0000173571Y0000142857D01*
X0000172142Y0000139999D01*
X0000170714Y0000138571D01*
X0000143571Y0000164285D02*
X0000173571Y0000174285D01*
X0000143571Y0000184285D01*
X0000243571Y0000119999D02*
X0000273571Y0000129999D01*
X0000243571Y0000139999D01*
X0000273571Y0000149999D02*
X0000243571Y0000149999D01*
X0000243571Y0000157142D01*
X0000245000Y0000161428D01*
X0000247857Y0000164285D01*
X0000250714Y0000165714D01*
X0000256428Y0000167142D01*
X0000260714Y0000167142D01*
X0000266428Y0000165714D01*
X0000269285Y0000164285D01*
X0000272142Y0000161428D01*
X0000273571Y0000157142D01*
X0000273571Y0000149999D01*
X0000273571Y0000179999D02*
X0000243571Y0000179999D01*
X0000243571Y0000187142D01*
X0000245000Y0000191428D01*
X0000247857Y0000194285D01*
X0000250714Y0000195714D01*
X0000256428Y0000197142D01*
X0000260714Y0000197142D01*
X0000266428Y0000195714D01*
X0000269285Y0000194285D01*
X0000272142Y0000191428D01*
X0000273571Y0000187142D01*
X0000273571Y0000179999D01*
X0000343571Y0000122857D02*
X0000343571Y0000141428D01*
X0000355000Y0000131428D01*
X0000355000Y0000135714D01*
X0000356428Y0000138571D01*
X0000357857Y0000139999D01*
X0000360714Y0000141428D01*
X0000367857Y0000141428D01*
X0000370714Y0000139999D01*
X0000372142Y0000138571D01*
X0000373571Y0000135714D01*
X0000373571Y0000127142D01*
X0000372142Y0000124285D01*
X0000370714Y0000122857D01*
X0000343571Y0000149999D02*
X0000373571Y0000159999D01*
X0000343571Y0000169999D01*
X0000343571Y0000177142D02*
X0000343571Y0000195714D01*
X0000355000Y0000185714D01*
X0000355000Y0000189999D01*
X0000356428Y0000192857D01*
X0000357857Y0000194285D01*
X0000360714Y0000195714D01*
X0000367857Y0000195714D01*
X0000370714Y0000194285D01*
X0000372142Y0000192857D01*
X0000373571Y0000189999D01*
X0000373571Y0000181428D01*
X0000372142Y0000178571D01*
X0000370714Y0000177142D01*
X0000443571Y0000122142D02*
X0000443571Y0000139285D01*
X0000473571Y0000130714D02*
X0000443571Y0000130714D01*
X0000443571Y0000146428D02*
X0000473571Y0000166428D01*
X0000443571Y0000166428D02*
X0000473571Y0000146428D01*
X0000473571Y0000177857D02*
X0000443571Y0000177857D01*
X0000443571Y0000184999D01*
X0000445000Y0000189285D01*
X0000447857Y0000192142D01*
X0000450714Y0000193571D01*
X0000456428Y0000194999D01*
X0000460714Y0000194999D01*
X0000466428Y0000193571D01*
X0000469285Y0000192142D01*
X0000472142Y0000189285D01*
X0000473571Y0000184999D01*
X0000473571Y0000177857D01*
X0000573571Y0000139999D02*
X0000559285Y0000129999D01*
X0000573571Y0000122857D02*
X0000543571Y0000122857D01*
X0000543571Y0000134285D01*
X0000545000Y0000137142D01*
X0000546428Y0000138571D01*
X0000549285Y0000139999D01*
X0000553571Y0000139999D01*
X0000556428Y0000138571D01*
X0000557857Y0000137142D01*
X0000559285Y0000134285D01*
X0000559285Y0000122857D01*
X0000543571Y0000149999D02*
X0000573571Y0000169999D01*
X0000543571Y0000169999D02*
X0000573571Y0000149999D01*
X0000573571Y0000181428D02*
X0000543571Y0000181428D01*
X0000543571Y0000188571D01*
X0000545000Y0000192857D01*
X0000547857Y0000195714D01*
X0000550714Y0000197142D01*
X0000556428Y0000198571D01*
X0000560714Y0000198571D01*
X0000566428Y0000197142D01*
X0000569285Y0000195714D01*
X0000572142Y0000192857D01*
X0000573571Y0000188571D01*
X0000573571Y0000181428D01*
X0000645000Y0000137142D02*
X0000643571Y0000134285D01*
X0000643571Y0000129999D01*
X0000645000Y0000125714D01*
X0000647857Y0000122857D01*
X0000650714Y0000121428D01*
X0000656428Y0000119999D01*
X0000660714Y0000119999D01*
X0000666428Y0000121428D01*
X0000669285Y0000122857D01*
X0000672142Y0000125714D01*
X0000673571Y0000129999D01*
X0000673571Y0000132857D01*
X0000672142Y0000137142D01*
X0000670714Y0000138571D01*
X0000660714Y0000138571D01*
X0000660714Y0000132857D01*
X0000673571Y0000151428D02*
X0000643571Y0000151428D01*
X0000673571Y0000168571D01*
X0000643571Y0000168571D01*
X0000673571Y0000182857D02*
X0000643571Y0000182857D01*
X0000643571Y0000189999D01*
X0000645000Y0000194285D01*
X0000647857Y0000197142D01*
X0000650714Y0000198571D01*
X0000656428Y0000199999D01*
X0000660714Y0000199999D01*
X0000666428Y0000198571D01*
X0000669285Y0000197142D01*
X0000672142Y0000194285D01*
X0000673571Y0000189999D01*
X0000673571Y0000182857D01*
D10*
X0000010000Y0001409999D02*
X0000710000Y0001409999D01*
X0000710000Y0001409999D02*
X0000710000Y0000209999D01*
X0000710000Y0000209999D02*
X0000010000Y0000209999D01*
X0000010000Y0000209999D02*
X0000010000Y0001409999D01*
X0000304882Y0000395629D02*
X0000304882Y0000474370D01*
X0000415118Y0000395629D02*
X0000304882Y0000395629D01*
X0000415118Y0000474370D02*
X0000415118Y0000395629D01*
X0000304882Y0000474370D02*
X0000415118Y0000474370D01*
X0000107637Y0000112362D02*
X0000107637Y0000007637D01*
X0000610000Y0000112362D02*
X0000107637Y0000112362D01*
X0000610000Y0000007637D02*
X0000107637Y0000007637D01*
X0000610000Y0000112362D02*
X0000610000Y0000007637D01*
X0000660000Y0000112362D02*
X0000712362Y0000112362D01*
X0000712362Y0000112362D02*
X0000712362Y0000059999D01*
X0000431063Y0001131358D02*
X0000431063Y0001034507D01*
X0000488937Y0001131358D02*
X0000431063Y0001131358D01*
X0000488937Y0001034507D02*
X0000488937Y0001131358D01*
X0000488937Y0001234507D02*
X0000488937Y0001331358D01*
X0000488937Y0001331358D02*
X0000431063Y0001331358D01*
X0000431063Y0001331358D02*
X0000431063Y0001234507D01*
X0000231063Y0001131358D02*
X0000231063Y0001034507D01*
X0000288937Y0001131358D02*
X0000231063Y0001131358D01*
X0000288937Y0001034507D02*
X0000288937Y0001131358D01*
X0000288937Y0001234507D02*
X0000288937Y0001331358D01*
X0000288937Y0001331358D02*
X0000231063Y0001331358D01*
X0000231063Y0001331358D02*
X0000231063Y0001234507D01*
X0000480078Y0000887705D02*
X0000480078Y0000901191D01*
X0000439921Y0000887705D02*
X0000439921Y0000901191D01*
X0000364921Y0000887705D02*
X0000364921Y0000901191D01*
X0000405078Y0000887705D02*
X0000405078Y0000901191D01*
X0000280078Y0000887705D02*
X0000280078Y0000901191D01*
X0000239921Y0000887705D02*
X0000239921Y0000901191D01*
X0000164921Y0000887705D02*
X0000164921Y0000901191D01*
X0000205078Y0000887705D02*
X0000205078Y0000901191D01*
D11*
X0000343571Y0000309999D02*
X0000365000Y0000309999D01*
X0000369285Y0000308571D01*
X0000372142Y0000305714D01*
X0000373571Y0000301428D01*
X0000373571Y0000298571D01*
X0000373571Y0000324285D02*
X0000343571Y0000324285D01*
X0000343571Y0000335714D01*
X0000345000Y0000338571D01*
X0000346428Y0000339999D01*
X0000349285Y0000341428D01*
X0000353571Y0000341428D01*
X0000356428Y0000339999D01*
X0000357857Y0000338571D01*
X0000359285Y0000335714D01*
X0000359285Y0000324285D01*
X0000373571Y0000369999D02*
X0000373571Y0000352857D01*
X0000373571Y0000361428D02*
X0000343571Y0000361428D01*
X0000347857Y0000358571D01*
X0000350714Y0000355714D01*
X0000352142Y0000352857D01*
X0000529870Y0001043861D02*
X0000499870Y0001043861D01*
X0000499870Y0001051003D01*
X0000501299Y0001055289D01*
X0000504156Y0001058146D01*
X0000507013Y0001059575D01*
X0000512727Y0001061003D01*
X0000517013Y0001061003D01*
X0000522727Y0001059575D01*
X0000525585Y0001058146D01*
X0000528442Y0001055289D01*
X0000529870Y0001051003D01*
X0000529870Y0001043861D01*
X0000509870Y0001086718D02*
X0000529870Y0001086718D01*
X0000498442Y0001079575D02*
X0000519870Y0001072432D01*
X0000519870Y0001091003D01*
X0000529870Y0001243861D02*
X0000499870Y0001243861D01*
X0000499870Y0001251003D01*
X0000501299Y0001255289D01*
X0000504156Y0001258146D01*
X0000507013Y0001259575D01*
X0000512727Y0001261003D01*
X0000517013Y0001261003D01*
X0000522727Y0001259575D01*
X0000525585Y0001258146D01*
X0000528442Y0001255289D01*
X0000529870Y0001251003D01*
X0000529870Y0001243861D01*
X0000499870Y0001271003D02*
X0000499870Y0001289575D01*
X0000511299Y0001279575D01*
X0000511299Y0001283861D01*
X0000512727Y0001286718D01*
X0000514156Y0001288146D01*
X0000517013Y0001289575D01*
X0000524156Y0001289575D01*
X0000527013Y0001288146D01*
X0000528442Y0001286718D01*
X0000529870Y0001283861D01*
X0000529870Y0001275289D01*
X0000528442Y0001272432D01*
X0000527013Y0001271003D01*
X0000329870Y0001043861D02*
X0000299870Y0001043861D01*
X0000299870Y0001051003D01*
X0000301299Y0001055289D01*
X0000304156Y0001058146D01*
X0000307013Y0001059575D01*
X0000312727Y0001061003D01*
X0000317013Y0001061003D01*
X0000322727Y0001059575D01*
X0000325585Y0001058146D01*
X0000328442Y0001055289D01*
X0000329870Y0001051003D01*
X0000329870Y0001043861D01*
X0000302727Y0001072432D02*
X0000301299Y0001073861D01*
X0000299870Y0001076718D01*
X0000299870Y0001083861D01*
X0000301299Y0001086718D01*
X0000302727Y0001088146D01*
X0000305585Y0001089575D01*
X0000308442Y0001089575D01*
X0000312727Y0001088146D01*
X0000329870Y0001071003D01*
X0000329870Y0001089575D01*
X0000329870Y0001243861D02*
X0000299870Y0001243861D01*
X0000299870Y0001251003D01*
X0000301299Y0001255289D01*
X0000304156Y0001258146D01*
X0000307013Y0001259575D01*
X0000312727Y0001261003D01*
X0000317013Y0001261003D01*
X0000322727Y0001259575D01*
X0000325585Y0001258146D01*
X0000328442Y0001255289D01*
X0000329870Y0001251003D01*
X0000329870Y0001243861D01*
X0000329870Y0001289575D02*
X0000329870Y0001272432D01*
X0000329870Y0001281003D02*
X0000299870Y0001281003D01*
X0000304156Y0001278146D01*
X0000307013Y0001275289D01*
X0000308442Y0001272432D01*
X0000473571Y0000779999D02*
X0000459285Y0000769999D01*
X0000473571Y0000762857D02*
X0000443571Y0000762857D01*
X0000443571Y0000774285D01*
X0000445000Y0000777142D01*
X0000446428Y0000778571D01*
X0000449285Y0000779999D01*
X0000453571Y0000779999D01*
X0000456428Y0000778571D01*
X0000457857Y0000777142D01*
X0000459285Y0000774285D01*
X0000459285Y0000762857D01*
X0000453571Y0000805714D02*
X0000473571Y0000805714D01*
X0000442142Y0000798571D02*
X0000463571Y0000791428D01*
X0000463571Y0000809999D01*
X0000398571Y0000779999D02*
X0000384285Y0000769999D01*
X0000398571Y0000762857D02*
X0000368571Y0000762857D01*
X0000368571Y0000774285D01*
X0000370000Y0000777142D01*
X0000371428Y0000778571D01*
X0000374285Y0000779999D01*
X0000378571Y0000779999D01*
X0000381428Y0000778571D01*
X0000382857Y0000777142D01*
X0000384285Y0000774285D01*
X0000384285Y0000762857D01*
X0000368571Y0000789999D02*
X0000368571Y0000808571D01*
X0000380000Y0000798571D01*
X0000380000Y0000802857D01*
X0000381428Y0000805714D01*
X0000382857Y0000807142D01*
X0000385714Y0000808571D01*
X0000392857Y0000808571D01*
X0000395714Y0000807142D01*
X0000397142Y0000805714D01*
X0000398571Y0000802857D01*
X0000398571Y0000794285D01*
X0000397142Y0000791428D01*
X0000395714Y0000789999D01*
X0000273571Y0000779999D02*
X0000259285Y0000769999D01*
X0000273571Y0000762857D02*
X0000243571Y0000762857D01*
X0000243571Y0000774285D01*
X0000245000Y0000777142D01*
X0000246428Y0000778571D01*
X0000249285Y0000779999D01*
X0000253571Y0000779999D01*
X0000256428Y0000778571D01*
X0000257857Y0000777142D01*
X0000259285Y0000774285D01*
X0000259285Y0000762857D01*
X0000246428Y0000791428D02*
X0000245000Y0000792857D01*
X0000243571Y0000795714D01*
X0000243571Y0000802857D01*
X0000245000Y0000805714D01*
X0000246428Y0000807142D01*
X0000249285Y0000808571D01*
X0000252142Y0000808571D01*
X0000256428Y0000807142D01*
X0000273571Y0000789999D01*
X0000273571Y0000808571D01*
X0000198571Y0000779999D02*
X0000184285Y0000769999D01*
X0000198571Y0000762857D02*
X0000168571Y0000762857D01*
X0000168571Y0000774285D01*
X0000170000Y0000777142D01*
X0000171428Y0000778571D01*
X0000174285Y0000779999D01*
X0000178571Y0000779999D01*
X0000181428Y0000778571D01*
X0000182857Y0000777142D01*
X0000184285Y0000774285D01*
X0000184285Y0000762857D01*
X0000198571Y0000808571D02*
X0000198571Y0000791428D01*
X0000198571Y0000799999D02*
X0000168571Y0000799999D01*
X0000172857Y0000797142D01*
X0000175714Y0000794285D01*
X0000177142Y0000791428D01*
G04 next file*
G04 next file*
G04 #@! TF.GenerationSoftware,KiCad,Pcbnew,(5.1.4)-1*
G04 #@! TF.CreationDate,2019-12-18T21:33:11+01:00*
G04 #@! TF.ProjectId,ser,7365722e-6b69-4636-9164-5f7063625858,rev?*
G04 #@! TF.SameCoordinates,Original*
G04 #@! TF.FileFunction,Legend,Top*
G04 #@! TF.FilePolarity,Positive*
G04 Gerber Fmt 4.6, Leading zero omitted, Abs format (unit mm)*
G04 Created by KiCad (PCBNEW (5.1.4)-1) date 2019-12-18 21:33:11*
G04 APERTURE LIST*
G04 APERTURE END LIST*
D12*
X0000210000Y0002505000D02*
X0000185000Y0002505000D01*
X0000185000Y0002530000D02*
X0000185000Y0002505000D01*
X0000160000Y0002505000D02*
X0000185000Y0002505000D01*
G36*
X0000210000Y0002480000D02*
G01*
X0000160000Y0002480000D01*
X0000185000Y0002505000D01*
X0000210000Y0002480000D01*
G37*
X0000210000Y0002480000D02*
X0000160000Y0002480000D01*
X0000185000Y0002505000D01*
X0000210000Y0002480000D01*
X0000185000Y0002505000D02*
X0000160000Y0002505000D01*
X0000185000Y0002455000D02*
X0000185000Y0002480000D01*
X0000410000Y0002505000D02*
X0000385000Y0002505000D01*
X0000385000Y0002530000D02*
X0000385000Y0002505000D01*
X0000360000Y0002505000D02*
X0000385000Y0002505000D01*
G36*
X0000410000Y0002480000D02*
G01*
X0000360000Y0002480000D01*
X0000385000Y0002505000D01*
X0000410000Y0002480000D01*
G37*
X0000410000Y0002480000D02*
X0000360000Y0002480000D01*
X0000385000Y0002505000D01*
X0000410000Y0002480000D01*
X0000385000Y0002505000D02*
X0000360000Y0002505000D01*
X0000385000Y0002455000D02*
X0000385000Y0002480000D01*
X0000410000Y0002705000D02*
X0000385000Y0002705000D01*
X0000385000Y0002730000D02*
X0000385000Y0002705000D01*
X0000360000Y0002705000D02*
X0000385000Y0002705000D01*
G36*
X0000410000Y0002680000D02*
G01*
X0000360000Y0002680000D01*
X0000385000Y0002705000D01*
X0000410000Y0002680000D01*
G37*
X0000410000Y0002680000D02*
X0000360000Y0002680000D01*
X0000385000Y0002705000D01*
X0000410000Y0002680000D01*
X0000385000Y0002705000D02*
X0000360000Y0002705000D01*
X0000385000Y0002655000D02*
X0000385000Y0002680000D01*
G36*
X0000210000Y0002680000D02*
G01*
X0000160000Y0002680000D01*
X0000185000Y0002705000D01*
X0000210000Y0002680000D01*
G37*
X0000210000Y0002680000D02*
X0000160000Y0002680000D01*
X0000185000Y0002705000D01*
X0000210000Y0002680000D01*
X0000210000Y0002705000D02*
X0000185000Y0002705000D01*
X0000185000Y0002730000D02*
X0000185000Y0002705000D01*
X0000160000Y0002705000D02*
X0000185000Y0002705000D01*
X0000185000Y0002705000D02*
X0000160000Y0002705000D01*
X0000185000Y0002655000D02*
X0000185000Y0002680000D01*
D13*
X0000590000Y0002058571D02*
X0000590000Y0002072857D01*
X0000598571Y0002055714D02*
X0000568571Y0002065714D01*
X0000598571Y0002075714D01*
X0000568571Y0002091428D02*
X0000568571Y0002094285D01*
X0000570000Y0002097142D01*
X0000571428Y0002098571D01*
X0000574285Y0002100000D01*
X0000580000Y0002101428D01*
X0000587142Y0002101428D01*
X0000592857Y0002100000D01*
X0000595714Y0002098571D01*
X0000597142Y0002097142D01*
X0000598571Y0002094285D01*
X0000598571Y0002091428D01*
X0000597142Y0002088571D01*
X0000595714Y0002087142D01*
X0000592857Y0002085714D01*
X0000587142Y0002084285D01*
X0000580000Y0002084285D01*
X0000574285Y0002085714D01*
X0000571428Y0002087142D01*
X0000570000Y0002088571D01*
X0000568571Y0002091428D01*
X0000598571Y0002563571D02*
X0000584285Y0002553571D01*
X0000598571Y0002546428D02*
X0000568571Y0002546428D01*
X0000568571Y0002557857D01*
X0000570000Y0002560714D01*
X0000571428Y0002562142D01*
X0000574285Y0002563571D01*
X0000578571Y0002563571D01*
X0000581428Y0002562142D01*
X0000582857Y0002560714D01*
X0000584285Y0002557857D01*
X0000584285Y0002546428D01*
X0000597142Y0002575000D02*
X0000598571Y0002579285D01*
X0000598571Y0002586428D01*
X0000597142Y0002589285D01*
X0000595714Y0002590714D01*
X0000592857Y0002592142D01*
X0000590000Y0002592142D01*
X0000587142Y0002590714D01*
X0000585714Y0002589285D01*
X0000584285Y0002586428D01*
X0000582857Y0002580714D01*
X0000581428Y0002577857D01*
X0000580000Y0002576428D01*
X0000577142Y0002575000D01*
X0000574285Y0002575000D01*
X0000571428Y0002576428D01*
X0000570000Y0002577857D01*
X0000568571Y0002580714D01*
X0000568571Y0002587857D01*
X0000570000Y0002592142D01*
X0000568571Y0002600714D02*
X0000568571Y0002617857D01*
X0000598571Y0002609285D02*
X0000568571Y0002609285D01*
X0000148571Y0002659999D02*
X0000134285Y0002650000D01*
X0000148571Y0002642857D02*
X0000118571Y0002642857D01*
X0000118571Y0002654285D01*
X0000120000Y0002657142D01*
X0000121428Y0002658571D01*
X0000124285Y0002659999D01*
X0000128571Y0002659999D01*
X0000131428Y0002658571D01*
X0000132857Y0002657142D01*
X0000134285Y0002654285D01*
X0000134285Y0002642857D01*
X0000118571Y0002670000D02*
X0000148571Y0002690000D01*
X0000118571Y0002690000D02*
X0000148571Y0002670000D01*
X0000148571Y0002701428D02*
X0000118571Y0002701428D01*
X0000118571Y0002708571D01*
X0000120000Y0002712857D01*
X0000122857Y0002715714D01*
X0000125714Y0002717142D01*
X0000131428Y0002718571D01*
X0000135714Y0002718571D01*
X0000141428Y0002717142D01*
X0000144285Y0002715714D01*
X0000147142Y0002712857D01*
X0000148571Y0002708571D01*
X0000148571Y0002701428D01*
X0000118571Y0002742142D02*
X0000118571Y0002759285D01*
X0000148571Y0002750714D02*
X0000118571Y0002750714D01*
X0000118571Y0002766428D02*
X0000148571Y0002786428D01*
X0000118571Y0002786428D02*
X0000148571Y0002766428D01*
X0000148571Y0002797857D02*
X0000118571Y0002797857D01*
X0000118571Y0002805000D01*
X0000120000Y0002809285D01*
X0000122857Y0002812142D01*
X0000125714Y0002813571D01*
X0000131428Y0002815000D01*
X0000135714Y0002815000D01*
X0000141428Y0002813571D01*
X0000144285Y0002812142D01*
X0000147142Y0002809285D01*
X0000148571Y0002805000D01*
X0000148571Y0002797857D01*
X0000143571Y0001574285D02*
X0000143571Y0001560000D01*
X0000157857Y0001558571D01*
X0000156428Y0001560000D01*
X0000155000Y0001562857D01*
X0000155000Y0001570000D01*
X0000156428Y0001572857D01*
X0000157857Y0001574285D01*
X0000160714Y0001575714D01*
X0000167857Y0001575714D01*
X0000170714Y0001574285D01*
X0000172142Y0001572857D01*
X0000173571Y0001570000D01*
X0000173571Y0001562857D01*
X0000172142Y0001560000D01*
X0000170714Y0001558571D01*
X0000143571Y0001584285D02*
X0000173571Y0001594285D01*
X0000143571Y0001604285D01*
X0000243571Y0001540000D02*
X0000273571Y0001550000D01*
X0000243571Y0001560000D01*
X0000273571Y0001570000D02*
X0000243571Y0001570000D01*
X0000243571Y0001577142D01*
X0000245000Y0001581428D01*
X0000247857Y0001584285D01*
X0000250714Y0001585714D01*
X0000256428Y0001587142D01*
X0000260714Y0001587142D01*
X0000266428Y0001585714D01*
X0000269285Y0001584285D01*
X0000272142Y0001581428D01*
X0000273571Y0001577142D01*
X0000273571Y0001570000D01*
X0000273571Y0001600000D02*
X0000243571Y0001600000D01*
X0000243571Y0001607142D01*
X0000245000Y0001611428D01*
X0000247857Y0001614285D01*
X0000250714Y0001615714D01*
X0000256428Y0001617142D01*
X0000260714Y0001617142D01*
X0000266428Y0001615714D01*
X0000269285Y0001614285D01*
X0000272142Y0001611428D01*
X0000273571Y0001607142D01*
X0000273571Y0001600000D01*
X0000343571Y0001542857D02*
X0000343571Y0001561428D01*
X0000355000Y0001551428D01*
X0000355000Y0001555714D01*
X0000356428Y0001558571D01*
X0000357857Y0001560000D01*
X0000360714Y0001561428D01*
X0000367857Y0001561428D01*
X0000370714Y0001560000D01*
X0000372142Y0001558571D01*
X0000373571Y0001555714D01*
X0000373571Y0001547142D01*
X0000372142Y0001544285D01*
X0000370714Y0001542857D01*
X0000343571Y0001570000D02*
X0000373571Y0001580000D01*
X0000343571Y0001590000D01*
X0000343571Y0001597142D02*
X0000343571Y0001615714D01*
X0000355000Y0001605714D01*
X0000355000Y0001610000D01*
X0000356428Y0001612857D01*
X0000357857Y0001614285D01*
X0000360714Y0001615714D01*
X0000367857Y0001615714D01*
X0000370714Y0001614285D01*
X0000372142Y0001612857D01*
X0000373571Y0001610000D01*
X0000373571Y0001601428D01*
X0000372142Y0001598571D01*
X0000370714Y0001597142D01*
X0000443571Y0001542142D02*
X0000443571Y0001559285D01*
X0000473571Y0001550714D02*
X0000443571Y0001550714D01*
X0000443571Y0001566428D02*
X0000473571Y0001586428D01*
X0000443571Y0001586428D02*
X0000473571Y0001566428D01*
X0000473571Y0001597857D02*
X0000443571Y0001597857D01*
X0000443571Y0001605000D01*
X0000445000Y0001609285D01*
X0000447857Y0001612142D01*
X0000450714Y0001613571D01*
X0000456428Y0001615000D01*
X0000460714Y0001615000D01*
X0000466428Y0001613571D01*
X0000469285Y0001612142D01*
X0000472142Y0001609285D01*
X0000473571Y0001605000D01*
X0000473571Y0001597857D01*
X0000573571Y0001560000D02*
X0000559285Y0001550000D01*
X0000573571Y0001542857D02*
X0000543571Y0001542857D01*
X0000543571Y0001554285D01*
X0000545000Y0001557142D01*
X0000546428Y0001558571D01*
X0000549285Y0001560000D01*
X0000553571Y0001560000D01*
X0000556428Y0001558571D01*
X0000557857Y0001557142D01*
X0000559285Y0001554285D01*
X0000559285Y0001542857D01*
X0000543571Y0001570000D02*
X0000573571Y0001590000D01*
X0000543571Y0001590000D02*
X0000573571Y0001570000D01*
X0000573571Y0001601428D02*
X0000543571Y0001601428D01*
X0000543571Y0001608571D01*
X0000545000Y0001612857D01*
X0000547857Y0001615714D01*
X0000550714Y0001617142D01*
X0000556428Y0001618571D01*
X0000560714Y0001618571D01*
X0000566428Y0001617142D01*
X0000569285Y0001615714D01*
X0000572142Y0001612857D01*
X0000573571Y0001608571D01*
X0000573571Y0001601428D01*
X0000645000Y0001557142D02*
X0000643571Y0001554285D01*
X0000643571Y0001550000D01*
X0000645000Y0001545714D01*
X0000647857Y0001542857D01*
X0000650714Y0001541428D01*
X0000656428Y0001540000D01*
X0000660714Y0001540000D01*
X0000666428Y0001541428D01*
X0000669285Y0001542857D01*
X0000672142Y0001545714D01*
X0000673571Y0001550000D01*
X0000673571Y0001552857D01*
X0000672142Y0001557142D01*
X0000670714Y0001558571D01*
X0000660714Y0001558571D01*
X0000660714Y0001552857D01*
X0000673571Y0001571428D02*
X0000643571Y0001571428D01*
X0000673571Y0001588571D01*
X0000643571Y0001588571D01*
X0000673571Y0001602857D02*
X0000643571Y0001602857D01*
X0000643571Y0001610000D01*
X0000645000Y0001614285D01*
X0000647857Y0001617142D01*
X0000650714Y0001618571D01*
X0000656428Y0001620000D01*
X0000660714Y0001620000D01*
X0000666428Y0001618571D01*
X0000669285Y0001617142D01*
X0000672142Y0001614285D01*
X0000673571Y0001610000D01*
X0000673571Y0001602857D01*
D12*
X0000010000Y0002830000D02*
X0000710000Y0002830000D01*
X0000710000Y0002830000D02*
X0000710000Y0001630000D01*
X0000710000Y0001630000D02*
X0000010000Y0001630000D01*
X0000010000Y0001630000D02*
X0000010000Y0002830000D01*
X0000304882Y0001815629D02*
X0000304882Y0001894370D01*
X0000415118Y0001815629D02*
X0000304882Y0001815629D01*
X0000415118Y0001894370D02*
X0000415118Y0001815629D01*
X0000304882Y0001894370D02*
X0000415118Y0001894370D01*
X0000107637Y0001532362D02*
X0000107637Y0001427637D01*
X0000610000Y0001532362D02*
X0000107637Y0001532362D01*
X0000610000Y0001427637D02*
X0000107637Y0001427637D01*
X0000610000Y0001532362D02*
X0000610000Y0001427637D01*
X0000660000Y0001532362D02*
X0000712362Y0001532362D01*
X0000712362Y0001532362D02*
X0000712362Y0001480000D01*
X0000431063Y0002551358D02*
X0000431063Y0002454507D01*
X0000488937Y0002551358D02*
X0000431063Y0002551358D01*
X0000488937Y0002454507D02*
X0000488937Y0002551358D01*
X0000488937Y0002654507D02*
X0000488937Y0002751358D01*
X0000488937Y0002751358D02*
X0000431063Y0002751358D01*
X0000431063Y0002751358D02*
X0000431063Y0002654507D01*
X0000231063Y0002551358D02*
X0000231063Y0002454507D01*
X0000288937Y0002551358D02*
X0000231063Y0002551358D01*
X0000288937Y0002454507D02*
X0000288937Y0002551358D01*
X0000288937Y0002654507D02*
X0000288937Y0002751358D01*
X0000288937Y0002751358D02*
X0000231063Y0002751358D01*
X0000231063Y0002751358D02*
X0000231063Y0002654507D01*
X0000480078Y0002307706D02*
X0000480078Y0002321191D01*
X0000439921Y0002307706D02*
X0000439921Y0002321191D01*
X0000364921Y0002307706D02*
X0000364921Y0002321191D01*
X0000405078Y0002307706D02*
X0000405078Y0002321191D01*
X0000280078Y0002307706D02*
X0000280078Y0002321191D01*
X0000239921Y0002307706D02*
X0000239921Y0002321191D01*
X0000164921Y0002307706D02*
X0000164921Y0002321191D01*
X0000205078Y0002307706D02*
X0000205078Y0002321191D01*
D13*
X0000343571Y0001730000D02*
X0000365000Y0001730000D01*
X0000369285Y0001728571D01*
X0000372142Y0001725714D01*
X0000373571Y0001721428D01*
X0000373571Y0001718571D01*
X0000373571Y0001744285D02*
X0000343571Y0001744285D01*
X0000343571Y0001755714D01*
X0000345000Y0001758571D01*
X0000346428Y0001760000D01*
X0000349285Y0001761428D01*
X0000353571Y0001761428D01*
X0000356428Y0001760000D01*
X0000357857Y0001758571D01*
X0000359285Y0001755714D01*
X0000359285Y0001744285D01*
X0000373571Y0001790000D02*
X0000373571Y0001772857D01*
X0000373571Y0001781428D02*
X0000343571Y0001781428D01*
X0000347857Y0001778571D01*
X0000350714Y0001775714D01*
X0000352142Y0001772857D01*
X0000529870Y0002463861D02*
X0000499870Y0002463861D01*
X0000499870Y0002471003D01*
X0000501299Y0002475289D01*
X0000504156Y0002478146D01*
X0000507013Y0002479575D01*
X0000512727Y0002481003D01*
X0000517013Y0002481003D01*
X0000522727Y0002479575D01*
X0000525585Y0002478146D01*
X0000528442Y0002475289D01*
X0000529870Y0002471003D01*
X0000529870Y0002463861D01*
X0000509870Y0002506718D02*
X0000529870Y0002506718D01*
X0000498442Y0002499575D02*
X0000519870Y0002492432D01*
X0000519870Y0002511003D01*
X0000529870Y0002663861D02*
X0000499870Y0002663861D01*
X0000499870Y0002671003D01*
X0000501299Y0002675289D01*
X0000504156Y0002678146D01*
X0000507013Y0002679575D01*
X0000512727Y0002681003D01*
X0000517013Y0002681003D01*
X0000522727Y0002679575D01*
X0000525585Y0002678146D01*
X0000528442Y0002675289D01*
X0000529870Y0002671003D01*
X0000529870Y0002663861D01*
X0000499870Y0002691003D02*
X0000499870Y0002709575D01*
X0000511299Y0002699575D01*
X0000511299Y0002703861D01*
X0000512727Y0002706718D01*
X0000514156Y0002708146D01*
X0000517013Y0002709575D01*
X0000524156Y0002709575D01*
X0000527013Y0002708146D01*
X0000528442Y0002706718D01*
X0000529870Y0002703861D01*
X0000529870Y0002695289D01*
X0000528442Y0002692432D01*
X0000527013Y0002691003D01*
X0000329870Y0002463861D02*
X0000299870Y0002463861D01*
X0000299870Y0002471003D01*
X0000301299Y0002475289D01*
X0000304156Y0002478146D01*
X0000307013Y0002479575D01*
X0000312727Y0002481003D01*
X0000317013Y0002481003D01*
X0000322727Y0002479575D01*
X0000325585Y0002478146D01*
X0000328442Y0002475289D01*
X0000329870Y0002471003D01*
X0000329870Y0002463861D01*
X0000302727Y0002492432D02*
X0000301299Y0002493861D01*
X0000299870Y0002496718D01*
X0000299870Y0002503861D01*
X0000301299Y0002506718D01*
X0000302727Y0002508146D01*
X0000305585Y0002509575D01*
X0000308442Y0002509575D01*
X0000312727Y0002508146D01*
X0000329870Y0002491003D01*
X0000329870Y0002509575D01*
X0000329870Y0002663861D02*
X0000299870Y0002663861D01*
X0000299870Y0002671003D01*
X0000301299Y0002675289D01*
X0000304156Y0002678146D01*
X0000307013Y0002679575D01*
X0000312727Y0002681003D01*
X0000317013Y0002681003D01*
X0000322727Y0002679575D01*
X0000325585Y0002678146D01*
X0000328442Y0002675289D01*
X0000329870Y0002671003D01*
X0000329870Y0002663861D01*
X0000329870Y0002709575D02*
X0000329870Y0002692432D01*
X0000329870Y0002701003D02*
X0000299870Y0002701003D01*
X0000304156Y0002698146D01*
X0000307013Y0002695289D01*
X0000308442Y0002692432D01*
X0000473571Y0002200000D02*
X0000459285Y0002190000D01*
X0000473571Y0002182857D02*
X0000443571Y0002182857D01*
X0000443571Y0002194285D01*
X0000445000Y0002197142D01*
X0000446428Y0002198571D01*
X0000449285Y0002200000D01*
X0000453571Y0002200000D01*
X0000456428Y0002198571D01*
X0000457857Y0002197142D01*
X0000459285Y0002194285D01*
X0000459285Y0002182857D01*
X0000453571Y0002225714D02*
X0000473571Y0002225714D01*
X0000442142Y0002218571D02*
X0000463571Y0002211428D01*
X0000463571Y0002230000D01*
X0000398571Y0002200000D02*
X0000384285Y0002190000D01*
X0000398571Y0002182857D02*
X0000368571Y0002182857D01*
X0000368571Y0002194285D01*
X0000370000Y0002197142D01*
X0000371428Y0002198571D01*
X0000374285Y0002200000D01*
X0000378571Y0002200000D01*
X0000381428Y0002198571D01*
X0000382857Y0002197142D01*
X0000384285Y0002194285D01*
X0000384285Y0002182857D01*
X0000368571Y0002210000D02*
X0000368571Y0002228571D01*
X0000380000Y0002218571D01*
X0000380000Y0002222857D01*
X0000381428Y0002225714D01*
X0000382857Y0002227142D01*
X0000385714Y0002228571D01*
X0000392857Y0002228571D01*
X0000395714Y0002227142D01*
X0000397142Y0002225714D01*
X0000398571Y0002222857D01*
X0000398571Y0002214285D01*
X0000397142Y0002211428D01*
X0000395714Y0002210000D01*
X0000273571Y0002200000D02*
X0000259285Y0002190000D01*
X0000273571Y0002182857D02*
X0000243571Y0002182857D01*
X0000243571Y0002194285D01*
X0000245000Y0002197142D01*
X0000246428Y0002198571D01*
X0000249285Y0002200000D01*
X0000253571Y0002200000D01*
X0000256428Y0002198571D01*
X0000257857Y0002197142D01*
X0000259285Y0002194285D01*
X0000259285Y0002182857D01*
X0000246428Y0002211428D02*
X0000245000Y0002212857D01*
X0000243571Y0002215714D01*
X0000243571Y0002222857D01*
X0000245000Y0002225714D01*
X0000246428Y0002227142D01*
X0000249285Y0002228571D01*
X0000252142Y0002228571D01*
X0000256428Y0002227142D01*
X0000273571Y0002210000D01*
X0000273571Y0002228571D01*
X0000198571Y0002200000D02*
X0000184285Y0002190000D01*
X0000198571Y0002182857D02*
X0000168571Y0002182857D01*
X0000168571Y0002194285D01*
X0000170000Y0002197142D01*
X0000171428Y0002198571D01*
X0000174285Y0002200000D01*
X0000178571Y0002200000D01*
X0000181428Y0002198571D01*
X0000182857Y0002197142D01*
X0000184285Y0002194285D01*
X0000184285Y0002182857D01*
X0000198571Y0002228571D02*
X0000198571Y0002211428D01*
X0000198571Y0002220000D02*
X0000168571Y0002220000D01*
X0000172857Y0002217142D01*
X0000175714Y0002214285D01*
X0000177142Y0002211428D01*
G04 next file*
G04 next file*
G04 #@! TF.GenerationSoftware,KiCad,Pcbnew,(5.1.4)-1*
G04 #@! TF.CreationDate,2019-12-18T21:33:11+01:00*
G04 #@! TF.ProjectId,ser,7365722e-6b69-4636-9164-5f7063625858,rev?*
G04 #@! TF.SameCoordinates,Original*
G04 #@! TF.FileFunction,Legend,Top*
G04 #@! TF.FilePolarity,Positive*
G04 Gerber Fmt 4.6, Leading zero omitted, Abs format (unit mm)*
G04 Created by KiCad (PCBNEW (5.1.4)-1) date 2019-12-18 21:33:11*
G04 APERTURE LIST*
G04 APERTURE END LIST*
D14*
X0000929999Y0001084999D02*
X0000904999Y0001084999D01*
X0000904999Y0001109999D02*
X0000904999Y0001084999D01*
X0000879999Y0001084999D02*
X0000904999Y0001084999D01*
G36*
X0000929999Y0001059999D02*
G01*
X0000879999Y0001059999D01*
X0000904999Y0001084999D01*
X0000929999Y0001059999D01*
G37*
X0000929999Y0001059999D02*
X0000879999Y0001059999D01*
X0000904999Y0001084999D01*
X0000929999Y0001059999D01*
X0000904999Y0001084999D02*
X0000879999Y0001084999D01*
X0000904999Y0001034999D02*
X0000904999Y0001059999D01*
X0001129999Y0001084999D02*
X0001104999Y0001084999D01*
X0001104999Y0001109999D02*
X0001104999Y0001084999D01*
X0001079999Y0001084999D02*
X0001104999Y0001084999D01*
G36*
X0001129999Y0001059999D02*
G01*
X0001079999Y0001059999D01*
X0001104999Y0001084999D01*
X0001129999Y0001059999D01*
G37*
X0001129999Y0001059999D02*
X0001079999Y0001059999D01*
X0001104999Y0001084999D01*
X0001129999Y0001059999D01*
X0001104999Y0001084999D02*
X0001079999Y0001084999D01*
X0001104999Y0001034999D02*
X0001104999Y0001059999D01*
X0001129999Y0001284999D02*
X0001104999Y0001284999D01*
X0001104999Y0001309999D02*
X0001104999Y0001284999D01*
X0001079999Y0001284999D02*
X0001104999Y0001284999D01*
G36*
X0001129999Y0001259999D02*
G01*
X0001079999Y0001259999D01*
X0001104999Y0001284999D01*
X0001129999Y0001259999D01*
G37*
X0001129999Y0001259999D02*
X0001079999Y0001259999D01*
X0001104999Y0001284999D01*
X0001129999Y0001259999D01*
X0001104999Y0001284999D02*
X0001079999Y0001284999D01*
X0001104999Y0001234999D02*
X0001104999Y0001259999D01*
G36*
X0000929999Y0001259999D02*
G01*
X0000879999Y0001259999D01*
X0000904999Y0001284999D01*
X0000929999Y0001259999D01*
G37*
X0000929999Y0001259999D02*
X0000879999Y0001259999D01*
X0000904999Y0001284999D01*
X0000929999Y0001259999D01*
X0000929999Y0001284999D02*
X0000904999Y0001284999D01*
X0000904999Y0001309999D02*
X0000904999Y0001284999D01*
X0000879999Y0001284999D02*
X0000904999Y0001284999D01*
X0000904999Y0001284999D02*
X0000879999Y0001284999D01*
X0000904999Y0001234999D02*
X0000904999Y0001259999D01*
D15*
X0001309999Y0000638571D02*
X0001309999Y0000652857D01*
X0001318571Y0000635714D02*
X0001288571Y0000645714D01*
X0001318571Y0000655714D01*
X0001288571Y0000671428D02*
X0001288571Y0000674285D01*
X0001289999Y0000677142D01*
X0001291428Y0000678571D01*
X0001294285Y0000679999D01*
X0001299999Y0000681428D01*
X0001307142Y0000681428D01*
X0001312857Y0000679999D01*
X0001315714Y0000678571D01*
X0001317142Y0000677142D01*
X0001318571Y0000674285D01*
X0001318571Y0000671428D01*
X0001317142Y0000668571D01*
X0001315714Y0000667142D01*
X0001312857Y0000665714D01*
X0001307142Y0000664285D01*
X0001299999Y0000664285D01*
X0001294285Y0000665714D01*
X0001291428Y0000667142D01*
X0001289999Y0000668571D01*
X0001288571Y0000671428D01*
X0001318571Y0001143571D02*
X0001304285Y0001133571D01*
X0001318571Y0001126428D02*
X0001288571Y0001126428D01*
X0001288571Y0001137857D01*
X0001289999Y0001140714D01*
X0001291428Y0001142142D01*
X0001294285Y0001143571D01*
X0001298571Y0001143571D01*
X0001301428Y0001142142D01*
X0001302857Y0001140714D01*
X0001304285Y0001137857D01*
X0001304285Y0001126428D01*
X0001317142Y0001154999D02*
X0001318571Y0001159285D01*
X0001318571Y0001166428D01*
X0001317142Y0001169285D01*
X0001315714Y0001170714D01*
X0001312857Y0001172142D01*
X0001309999Y0001172142D01*
X0001307142Y0001170714D01*
X0001305714Y0001169285D01*
X0001304285Y0001166428D01*
X0001302857Y0001160714D01*
X0001301428Y0001157857D01*
X0001299999Y0001156428D01*
X0001297142Y0001154999D01*
X0001294285Y0001154999D01*
X0001291428Y0001156428D01*
X0001289999Y0001157857D01*
X0001288571Y0001160714D01*
X0001288571Y0001167857D01*
X0001289999Y0001172142D01*
X0001288571Y0001180714D02*
X0001288571Y0001197857D01*
X0001318571Y0001189285D02*
X0001288571Y0001189285D01*
X0000868571Y0001239999D02*
X0000854285Y0001229999D01*
X0000868571Y0001222857D02*
X0000838571Y0001222857D01*
X0000838571Y0001234285D01*
X0000839999Y0001237142D01*
X0000841428Y0001238571D01*
X0000844285Y0001239999D01*
X0000848571Y0001239999D01*
X0000851428Y0001238571D01*
X0000852857Y0001237142D01*
X0000854285Y0001234285D01*
X0000854285Y0001222857D01*
X0000838571Y0001249999D02*
X0000868571Y0001269999D01*
X0000838571Y0001269999D02*
X0000868571Y0001249999D01*
X0000868571Y0001281428D02*
X0000838571Y0001281428D01*
X0000838571Y0001288571D01*
X0000839999Y0001292857D01*
X0000842857Y0001295714D01*
X0000845714Y0001297142D01*
X0000851428Y0001298571D01*
X0000855714Y0001298571D01*
X0000861428Y0001297142D01*
X0000864285Y0001295714D01*
X0000867142Y0001292857D01*
X0000868571Y0001288571D01*
X0000868571Y0001281428D01*
X0000838571Y0001322142D02*
X0000838571Y0001339285D01*
X0000868571Y0001330714D02*
X0000838571Y0001330714D01*
X0000838571Y0001346428D02*
X0000868571Y0001366428D01*
X0000838571Y0001366428D02*
X0000868571Y0001346428D01*
X0000868571Y0001377857D02*
X0000838571Y0001377857D01*
X0000838571Y0001384999D01*
X0000839999Y0001389285D01*
X0000842857Y0001392142D01*
X0000845714Y0001393571D01*
X0000851428Y0001394999D01*
X0000855714Y0001394999D01*
X0000861428Y0001393571D01*
X0000864285Y0001392142D01*
X0000867142Y0001389285D01*
X0000868571Y0001384999D01*
X0000868571Y0001377857D01*
X0000863571Y0000154285D02*
X0000863571Y0000139999D01*
X0000877857Y0000138571D01*
X0000876428Y0000139999D01*
X0000874999Y0000142857D01*
X0000874999Y0000149999D01*
X0000876428Y0000152857D01*
X0000877857Y0000154285D01*
X0000880714Y0000155714D01*
X0000887857Y0000155714D01*
X0000890714Y0000154285D01*
X0000892142Y0000152857D01*
X0000893571Y0000149999D01*
X0000893571Y0000142857D01*
X0000892142Y0000139999D01*
X0000890714Y0000138571D01*
X0000863571Y0000164285D02*
X0000893571Y0000174285D01*
X0000863571Y0000184285D01*
X0000963571Y0000119999D02*
X0000993571Y0000129999D01*
X0000963571Y0000139999D01*
X0000993571Y0000149999D02*
X0000963571Y0000149999D01*
X0000963571Y0000157142D01*
X0000964999Y0000161428D01*
X0000967857Y0000164285D01*
X0000970714Y0000165714D01*
X0000976428Y0000167142D01*
X0000980714Y0000167142D01*
X0000986428Y0000165714D01*
X0000989285Y0000164285D01*
X0000992142Y0000161428D01*
X0000993571Y0000157142D01*
X0000993571Y0000149999D01*
X0000993571Y0000179999D02*
X0000963571Y0000179999D01*
X0000963571Y0000187142D01*
X0000964999Y0000191428D01*
X0000967857Y0000194285D01*
X0000970714Y0000195714D01*
X0000976428Y0000197142D01*
X0000980714Y0000197142D01*
X0000986428Y0000195714D01*
X0000989285Y0000194285D01*
X0000992142Y0000191428D01*
X0000993571Y0000187142D01*
X0000993571Y0000179999D01*
X0001063571Y0000122857D02*
X0001063571Y0000141428D01*
X0001074999Y0000131428D01*
X0001074999Y0000135714D01*
X0001076428Y0000138571D01*
X0001077857Y0000139999D01*
X0001080714Y0000141428D01*
X0001087857Y0000141428D01*
X0001090714Y0000139999D01*
X0001092142Y0000138571D01*
X0001093571Y0000135714D01*
X0001093571Y0000127142D01*
X0001092142Y0000124285D01*
X0001090714Y0000122857D01*
X0001063571Y0000149999D02*
X0001093571Y0000159999D01*
X0001063571Y0000169999D01*
X0001063571Y0000177142D02*
X0001063571Y0000195714D01*
X0001074999Y0000185714D01*
X0001074999Y0000189999D01*
X0001076428Y0000192857D01*
X0001077857Y0000194285D01*
X0001080714Y0000195714D01*
X0001087857Y0000195714D01*
X0001090714Y0000194285D01*
X0001092142Y0000192857D01*
X0001093571Y0000189999D01*
X0001093571Y0000181428D01*
X0001092142Y0000178571D01*
X0001090714Y0000177142D01*
X0001163571Y0000122142D02*
X0001163571Y0000139285D01*
X0001193571Y0000130714D02*
X0001163571Y0000130714D01*
X0001163571Y0000146428D02*
X0001193571Y0000166428D01*
X0001163571Y0000166428D02*
X0001193571Y0000146428D01*
X0001193571Y0000177857D02*
X0001163571Y0000177857D01*
X0001163571Y0000184999D01*
X0001164999Y0000189285D01*
X0001167857Y0000192142D01*
X0001170714Y0000193571D01*
X0001176428Y0000194999D01*
X0001180714Y0000194999D01*
X0001186428Y0000193571D01*
X0001189285Y0000192142D01*
X0001192142Y0000189285D01*
X0001193571Y0000184999D01*
X0001193571Y0000177857D01*
X0001293571Y0000139999D02*
X0001279285Y0000129999D01*
X0001293571Y0000122857D02*
X0001263571Y0000122857D01*
X0001263571Y0000134285D01*
X0001264999Y0000137142D01*
X0001266428Y0000138571D01*
X0001269285Y0000139999D01*
X0001273571Y0000139999D01*
X0001276428Y0000138571D01*
X0001277857Y0000137142D01*
X0001279285Y0000134285D01*
X0001279285Y0000122857D01*
X0001263571Y0000149999D02*
X0001293571Y0000169999D01*
X0001263571Y0000169999D02*
X0001293571Y0000149999D01*
X0001293571Y0000181428D02*
X0001263571Y0000181428D01*
X0001263571Y0000188571D01*
X0001264999Y0000192857D01*
X0001267857Y0000195714D01*
X0001270714Y0000197142D01*
X0001276428Y0000198571D01*
X0001280714Y0000198571D01*
X0001286428Y0000197142D01*
X0001289285Y0000195714D01*
X0001292142Y0000192857D01*
X0001293571Y0000188571D01*
X0001293571Y0000181428D01*
X0001364999Y0000137142D02*
X0001363571Y0000134285D01*
X0001363571Y0000129999D01*
X0001364999Y0000125714D01*
X0001367857Y0000122857D01*
X0001370714Y0000121428D01*
X0001376428Y0000119999D01*
X0001380714Y0000119999D01*
X0001386428Y0000121428D01*
X0001389285Y0000122857D01*
X0001392142Y0000125714D01*
X0001393571Y0000129999D01*
X0001393571Y0000132857D01*
X0001392142Y0000137142D01*
X0001390714Y0000138571D01*
X0001380714Y0000138571D01*
X0001380714Y0000132857D01*
X0001393571Y0000151428D02*
X0001363571Y0000151428D01*
X0001393571Y0000168571D01*
X0001363571Y0000168571D01*
X0001393571Y0000182857D02*
X0001363571Y0000182857D01*
X0001363571Y0000189999D01*
X0001364999Y0000194285D01*
X0001367857Y0000197142D01*
X0001370714Y0000198571D01*
X0001376428Y0000199999D01*
X0001380714Y0000199999D01*
X0001386428Y0000198571D01*
X0001389285Y0000197142D01*
X0001392142Y0000194285D01*
X0001393571Y0000189999D01*
X0001393571Y0000182857D01*
D14*
X0000729999Y0001409999D02*
X0001429999Y0001409999D01*
X0001429999Y0001409999D02*
X0001429999Y0000209999D01*
X0001429999Y0000209999D02*
X0000729999Y0000209999D01*
X0000729999Y0000209999D02*
X0000729999Y0001409999D01*
X0001024881Y0000395629D02*
X0001024881Y0000474370D01*
X0001135117Y0000395629D02*
X0001024881Y0000395629D01*
X0001135117Y0000474370D02*
X0001135117Y0000395629D01*
X0001024881Y0000474370D02*
X0001135117Y0000474370D01*
X0000827637Y0000112362D02*
X0000827637Y0000007637D01*
X0001329999Y0000112362D02*
X0000827637Y0000112362D01*
X0001329999Y0000007637D02*
X0000827637Y0000007637D01*
X0001329999Y0000112362D02*
X0001329999Y0000007637D01*
X0001379999Y0000112362D02*
X0001432362Y0000112362D01*
X0001432362Y0000112362D02*
X0001432362Y0000059999D01*
X0001151062Y0001131358D02*
X0001151062Y0001034507D01*
X0001208936Y0001131358D02*
X0001151062Y0001131358D01*
X0001208936Y0001034507D02*
X0001208936Y0001131358D01*
X0001208936Y0001234507D02*
X0001208936Y0001331358D01*
X0001208936Y0001331358D02*
X0001151062Y0001331358D01*
X0001151062Y0001331358D02*
X0001151062Y0001234507D01*
X0000951062Y0001131358D02*
X0000951062Y0001034507D01*
X0001008936Y0001131358D02*
X0000951062Y0001131358D01*
X0001008936Y0001034507D02*
X0001008936Y0001131358D01*
X0001008936Y0001234507D02*
X0001008936Y0001331358D01*
X0001008936Y0001331358D02*
X0000951062Y0001331358D01*
X0000951062Y0001331358D02*
X0000951062Y0001234507D01*
X0001200078Y0000887705D02*
X0001200078Y0000901191D01*
X0001159921Y0000887705D02*
X0001159921Y0000901191D01*
X0001084921Y0000887705D02*
X0001084921Y0000901191D01*
X0001125078Y0000887705D02*
X0001125078Y0000901191D01*
X0001000078Y0000887705D02*
X0001000078Y0000901191D01*
X0000959921Y0000887705D02*
X0000959921Y0000901191D01*
X0000884921Y0000887705D02*
X0000884921Y0000901191D01*
X0000925078Y0000887705D02*
X0000925078Y0000901191D01*
D15*
X0001063571Y0000309999D02*
X0001084999Y0000309999D01*
X0001089285Y0000308571D01*
X0001092142Y0000305714D01*
X0001093571Y0000301428D01*
X0001093571Y0000298571D01*
X0001093571Y0000324285D02*
X0001063571Y0000324285D01*
X0001063571Y0000335714D01*
X0001064999Y0000338571D01*
X0001066428Y0000339999D01*
X0001069285Y0000341428D01*
X0001073571Y0000341428D01*
X0001076428Y0000339999D01*
X0001077857Y0000338571D01*
X0001079285Y0000335714D01*
X0001079285Y0000324285D01*
X0001093571Y0000369999D02*
X0001093571Y0000352857D01*
X0001093571Y0000361428D02*
X0001063571Y0000361428D01*
X0001067857Y0000358571D01*
X0001070714Y0000355714D01*
X0001072142Y0000352857D01*
X0001249870Y0001043861D02*
X0001219870Y0001043861D01*
X0001219870Y0001051003D01*
X0001221299Y0001055289D01*
X0001224156Y0001058146D01*
X0001227013Y0001059575D01*
X0001232727Y0001061003D01*
X0001237013Y0001061003D01*
X0001242727Y0001059575D01*
X0001245584Y0001058146D01*
X0001248441Y0001055289D01*
X0001249870Y0001051003D01*
X0001249870Y0001043861D01*
X0001229870Y0001086718D02*
X0001249870Y0001086718D01*
X0001218441Y0001079575D02*
X0001239870Y0001072432D01*
X0001239870Y0001091003D01*
X0001249870Y0001243861D02*
X0001219870Y0001243861D01*
X0001219870Y0001251003D01*
X0001221299Y0001255289D01*
X0001224156Y0001258146D01*
X0001227013Y0001259575D01*
X0001232727Y0001261003D01*
X0001237013Y0001261003D01*
X0001242727Y0001259575D01*
X0001245584Y0001258146D01*
X0001248441Y0001255289D01*
X0001249870Y0001251003D01*
X0001249870Y0001243861D01*
X0001219870Y0001271003D02*
X0001219870Y0001289575D01*
X0001231299Y0001279575D01*
X0001231299Y0001283861D01*
X0001232727Y0001286718D01*
X0001234156Y0001288146D01*
X0001237013Y0001289575D01*
X0001244156Y0001289575D01*
X0001247013Y0001288146D01*
X0001248441Y0001286718D01*
X0001249870Y0001283861D01*
X0001249870Y0001275289D01*
X0001248441Y0001272432D01*
X0001247013Y0001271003D01*
X0001049870Y0001043861D02*
X0001019870Y0001043861D01*
X0001019870Y0001051003D01*
X0001021299Y0001055289D01*
X0001024156Y0001058146D01*
X0001027013Y0001059575D01*
X0001032727Y0001061003D01*
X0001037013Y0001061003D01*
X0001042727Y0001059575D01*
X0001045584Y0001058146D01*
X0001048441Y0001055289D01*
X0001049870Y0001051003D01*
X0001049870Y0001043861D01*
X0001022727Y0001072432D02*
X0001021299Y0001073861D01*
X0001019870Y0001076718D01*
X0001019870Y0001083861D01*
X0001021299Y0001086718D01*
X0001022727Y0001088146D01*
X0001025584Y0001089575D01*
X0001028441Y0001089575D01*
X0001032727Y0001088146D01*
X0001049870Y0001071003D01*
X0001049870Y0001089575D01*
X0001049870Y0001243861D02*
X0001019870Y0001243861D01*
X0001019870Y0001251003D01*
X0001021299Y0001255289D01*
X0001024156Y0001258146D01*
X0001027013Y0001259575D01*
X0001032727Y0001261003D01*
X0001037013Y0001261003D01*
X0001042727Y0001259575D01*
X0001045584Y0001258146D01*
X0001048441Y0001255289D01*
X0001049870Y0001251003D01*
X0001049870Y0001243861D01*
X0001049870Y0001289575D02*
X0001049870Y0001272432D01*
X0001049870Y0001281003D02*
X0001019870Y0001281003D01*
X0001024156Y0001278146D01*
X0001027013Y0001275289D01*
X0001028441Y0001272432D01*
X0001193571Y0000779999D02*
X0001179285Y0000769999D01*
X0001193571Y0000762857D02*
X0001163571Y0000762857D01*
X0001163571Y0000774285D01*
X0001164999Y0000777142D01*
X0001166428Y0000778571D01*
X0001169285Y0000779999D01*
X0001173571Y0000779999D01*
X0001176428Y0000778571D01*
X0001177857Y0000777142D01*
X0001179285Y0000774285D01*
X0001179285Y0000762857D01*
X0001173571Y0000805714D02*
X0001193571Y0000805714D01*
X0001162142Y0000798571D02*
X0001183571Y0000791428D01*
X0001183571Y0000809999D01*
X0001118571Y0000779999D02*
X0001104285Y0000769999D01*
X0001118571Y0000762857D02*
X0001088571Y0000762857D01*
X0001088571Y0000774285D01*
X0001089999Y0000777142D01*
X0001091428Y0000778571D01*
X0001094285Y0000779999D01*
X0001098571Y0000779999D01*
X0001101428Y0000778571D01*
X0001102857Y0000777142D01*
X0001104285Y0000774285D01*
X0001104285Y0000762857D01*
X0001088571Y0000789999D02*
X0001088571Y0000808571D01*
X0001099999Y0000798571D01*
X0001099999Y0000802857D01*
X0001101428Y0000805714D01*
X0001102857Y0000807142D01*
X0001105714Y0000808571D01*
X0001112857Y0000808571D01*
X0001115714Y0000807142D01*
X0001117142Y0000805714D01*
X0001118571Y0000802857D01*
X0001118571Y0000794285D01*
X0001117142Y0000791428D01*
X0001115714Y0000789999D01*
X0000993571Y0000779999D02*
X0000979285Y0000769999D01*
X0000993571Y0000762857D02*
X0000963571Y0000762857D01*
X0000963571Y0000774285D01*
X0000964999Y0000777142D01*
X0000966428Y0000778571D01*
X0000969285Y0000779999D01*
X0000973571Y0000779999D01*
X0000976428Y0000778571D01*
X0000977857Y0000777142D01*
X0000979285Y0000774285D01*
X0000979285Y0000762857D01*
X0000966428Y0000791428D02*
X0000964999Y0000792857D01*
X0000963571Y0000795714D01*
X0000963571Y0000802857D01*
X0000964999Y0000805714D01*
X0000966428Y0000807142D01*
X0000969285Y0000808571D01*
X0000972142Y0000808571D01*
X0000976428Y0000807142D01*
X0000993571Y0000789999D01*
X0000993571Y0000808571D01*
X0000918571Y0000779999D02*
X0000904285Y0000769999D01*
X0000918571Y0000762857D02*
X0000888571Y0000762857D01*
X0000888571Y0000774285D01*
X0000889999Y0000777142D01*
X0000891428Y0000778571D01*
X0000894285Y0000779999D01*
X0000898571Y0000779999D01*
X0000901428Y0000778571D01*
X0000902857Y0000777142D01*
X0000904285Y0000774285D01*
X0000904285Y0000762857D01*
X0000918571Y0000808571D02*
X0000918571Y0000791428D01*
X0000918571Y0000799999D02*
X0000888571Y0000799999D01*
X0000892857Y0000797142D01*
X0000895714Y0000794285D01*
X0000897142Y0000791428D01*
G04 next file*
G04 next file*
G04 #@! TF.GenerationSoftware,KiCad,Pcbnew,(5.1.4)-1*
G04 #@! TF.CreationDate,2019-12-18T21:33:11+01:00*
G04 #@! TF.ProjectId,ser,7365722e-6b69-4636-9164-5f7063625858,rev?*
G04 #@! TF.SameCoordinates,Original*
G04 #@! TF.FileFunction,Legend,Top*
G04 #@! TF.FilePolarity,Positive*
G04 Gerber Fmt 4.6, Leading zero omitted, Abs format (unit mm)*
G04 Created by KiCad (PCBNEW (5.1.4)-1) date 2019-12-18 21:33:11*
G04 APERTURE LIST*
G04 APERTURE END LIST*
D16*
X0001649999Y0001084999D02*
X0001624999Y0001084999D01*
X0001624999Y0001109999D02*
X0001624999Y0001084999D01*
X0001599999Y0001084999D02*
X0001624999Y0001084999D01*
G36*
X0001649999Y0001059999D02*
G01*
X0001599999Y0001059999D01*
X0001624999Y0001084999D01*
X0001649999Y0001059999D01*
G37*
X0001649999Y0001059999D02*
X0001599999Y0001059999D01*
X0001624999Y0001084999D01*
X0001649999Y0001059999D01*
X0001624999Y0001084999D02*
X0001599999Y0001084999D01*
X0001624999Y0001034999D02*
X0001624999Y0001059999D01*
X0001849999Y0001084999D02*
X0001824999Y0001084999D01*
X0001824999Y0001109999D02*
X0001824999Y0001084999D01*
X0001799999Y0001084999D02*
X0001824999Y0001084999D01*
G36*
X0001849999Y0001059999D02*
G01*
X0001799999Y0001059999D01*
X0001824999Y0001084999D01*
X0001849999Y0001059999D01*
G37*
X0001849999Y0001059999D02*
X0001799999Y0001059999D01*
X0001824999Y0001084999D01*
X0001849999Y0001059999D01*
X0001824999Y0001084999D02*
X0001799999Y0001084999D01*
X0001824999Y0001034999D02*
X0001824999Y0001059999D01*
X0001849999Y0001284999D02*
X0001824999Y0001284999D01*
X0001824999Y0001309999D02*
X0001824999Y0001284999D01*
X0001799999Y0001284999D02*
X0001824999Y0001284999D01*
G36*
X0001849999Y0001259999D02*
G01*
X0001799999Y0001259999D01*
X0001824999Y0001284999D01*
X0001849999Y0001259999D01*
G37*
X0001849999Y0001259999D02*
X0001799999Y0001259999D01*
X0001824999Y0001284999D01*
X0001849999Y0001259999D01*
X0001824999Y0001284999D02*
X0001799999Y0001284999D01*
X0001824999Y0001234999D02*
X0001824999Y0001259999D01*
G36*
X0001649999Y0001259999D02*
G01*
X0001599999Y0001259999D01*
X0001624999Y0001284999D01*
X0001649999Y0001259999D01*
G37*
X0001649999Y0001259999D02*
X0001599999Y0001259999D01*
X0001624999Y0001284999D01*
X0001649999Y0001259999D01*
X0001649999Y0001284999D02*
X0001624999Y0001284999D01*
X0001624999Y0001309999D02*
X0001624999Y0001284999D01*
X0001599999Y0001284999D02*
X0001624999Y0001284999D01*
X0001624999Y0001284999D02*
X0001599999Y0001284999D01*
X0001624999Y0001234999D02*
X0001624999Y0001259999D01*
D17*
X0002029999Y0000638571D02*
X0002029999Y0000652857D01*
X0002038571Y0000635714D02*
X0002008571Y0000645714D01*
X0002038571Y0000655714D01*
X0002008571Y0000671428D02*
X0002008571Y0000674285D01*
X0002009999Y0000677142D01*
X0002011428Y0000678571D01*
X0002014285Y0000679999D01*
X0002019999Y0000681428D01*
X0002027142Y0000681428D01*
X0002032857Y0000679999D01*
X0002035714Y0000678571D01*
X0002037142Y0000677142D01*
X0002038571Y0000674285D01*
X0002038571Y0000671428D01*
X0002037142Y0000668571D01*
X0002035714Y0000667142D01*
X0002032857Y0000665714D01*
X0002027142Y0000664285D01*
X0002019999Y0000664285D01*
X0002014285Y0000665714D01*
X0002011428Y0000667142D01*
X0002009999Y0000668571D01*
X0002008571Y0000671428D01*
X0002038571Y0001143571D02*
X0002024285Y0001133571D01*
X0002038571Y0001126428D02*
X0002008571Y0001126428D01*
X0002008571Y0001137857D01*
X0002009999Y0001140714D01*
X0002011428Y0001142142D01*
X0002014285Y0001143571D01*
X0002018571Y0001143571D01*
X0002021428Y0001142142D01*
X0002022857Y0001140714D01*
X0002024285Y0001137857D01*
X0002024285Y0001126428D01*
X0002037142Y0001154999D02*
X0002038571Y0001159285D01*
X0002038571Y0001166428D01*
X0002037142Y0001169285D01*
X0002035714Y0001170714D01*
X0002032857Y0001172142D01*
X0002029999Y0001172142D01*
X0002027142Y0001170714D01*
X0002025714Y0001169285D01*
X0002024285Y0001166428D01*
X0002022857Y0001160714D01*
X0002021428Y0001157857D01*
X0002019999Y0001156428D01*
X0002017142Y0001154999D01*
X0002014285Y0001154999D01*
X0002011428Y0001156428D01*
X0002009999Y0001157857D01*
X0002008571Y0001160714D01*
X0002008571Y0001167857D01*
X0002009999Y0001172142D01*
X0002008571Y0001180714D02*
X0002008571Y0001197857D01*
X0002038571Y0001189285D02*
X0002008571Y0001189285D01*
X0001588571Y0001239999D02*
X0001574285Y0001229999D01*
X0001588571Y0001222857D02*
X0001558571Y0001222857D01*
X0001558571Y0001234285D01*
X0001559999Y0001237142D01*
X0001561428Y0001238571D01*
X0001564285Y0001239999D01*
X0001568571Y0001239999D01*
X0001571428Y0001238571D01*
X0001572857Y0001237142D01*
X0001574285Y0001234285D01*
X0001574285Y0001222857D01*
X0001558571Y0001249999D02*
X0001588571Y0001269999D01*
X0001558571Y0001269999D02*
X0001588571Y0001249999D01*
X0001588571Y0001281428D02*
X0001558571Y0001281428D01*
X0001558571Y0001288571D01*
X0001559999Y0001292857D01*
X0001562857Y0001295714D01*
X0001565714Y0001297142D01*
X0001571428Y0001298571D01*
X0001575714Y0001298571D01*
X0001581428Y0001297142D01*
X0001584285Y0001295714D01*
X0001587142Y0001292857D01*
X0001588571Y0001288571D01*
X0001588571Y0001281428D01*
X0001558571Y0001322142D02*
X0001558571Y0001339285D01*
X0001588571Y0001330714D02*
X0001558571Y0001330714D01*
X0001558571Y0001346428D02*
X0001588571Y0001366428D01*
X0001558571Y0001366428D02*
X0001588571Y0001346428D01*
X0001588571Y0001377857D02*
X0001558571Y0001377857D01*
X0001558571Y0001384999D01*
X0001559999Y0001389285D01*
X0001562857Y0001392142D01*
X0001565714Y0001393571D01*
X0001571428Y0001394999D01*
X0001575714Y0001394999D01*
X0001581428Y0001393571D01*
X0001584285Y0001392142D01*
X0001587142Y0001389285D01*
X0001588571Y0001384999D01*
X0001588571Y0001377857D01*
X0001583571Y0000154285D02*
X0001583571Y0000139999D01*
X0001597857Y0000138571D01*
X0001596428Y0000139999D01*
X0001594999Y0000142857D01*
X0001594999Y0000149999D01*
X0001596428Y0000152857D01*
X0001597857Y0000154285D01*
X0001600714Y0000155714D01*
X0001607857Y0000155714D01*
X0001610714Y0000154285D01*
X0001612142Y0000152857D01*
X0001613571Y0000149999D01*
X0001613571Y0000142857D01*
X0001612142Y0000139999D01*
X0001610714Y0000138571D01*
X0001583571Y0000164285D02*
X0001613571Y0000174285D01*
X0001583571Y0000184285D01*
X0001683571Y0000119999D02*
X0001713571Y0000129999D01*
X0001683571Y0000139999D01*
X0001713571Y0000149999D02*
X0001683571Y0000149999D01*
X0001683571Y0000157142D01*
X0001684999Y0000161428D01*
X0001687857Y0000164285D01*
X0001690714Y0000165714D01*
X0001696428Y0000167142D01*
X0001700714Y0000167142D01*
X0001706428Y0000165714D01*
X0001709285Y0000164285D01*
X0001712142Y0000161428D01*
X0001713571Y0000157142D01*
X0001713571Y0000149999D01*
X0001713571Y0000179999D02*
X0001683571Y0000179999D01*
X0001683571Y0000187142D01*
X0001684999Y0000191428D01*
X0001687857Y0000194285D01*
X0001690714Y0000195714D01*
X0001696428Y0000197142D01*
X0001700714Y0000197142D01*
X0001706428Y0000195714D01*
X0001709285Y0000194285D01*
X0001712142Y0000191428D01*
X0001713571Y0000187142D01*
X0001713571Y0000179999D01*
X0001783571Y0000122857D02*
X0001783571Y0000141428D01*
X0001794999Y0000131428D01*
X0001794999Y0000135714D01*
X0001796428Y0000138571D01*
X0001797857Y0000139999D01*
X0001800714Y0000141428D01*
X0001807857Y0000141428D01*
X0001810714Y0000139999D01*
X0001812142Y0000138571D01*
X0001813571Y0000135714D01*
X0001813571Y0000127142D01*
X0001812142Y0000124285D01*
X0001810714Y0000122857D01*
X0001783571Y0000149999D02*
X0001813571Y0000159999D01*
X0001783571Y0000169999D01*
X0001783571Y0000177142D02*
X0001783571Y0000195714D01*
X0001794999Y0000185714D01*
X0001794999Y0000189999D01*
X0001796428Y0000192857D01*
X0001797857Y0000194285D01*
X0001800714Y0000195714D01*
X0001807857Y0000195714D01*
X0001810714Y0000194285D01*
X0001812142Y0000192857D01*
X0001813571Y0000189999D01*
X0001813571Y0000181428D01*
X0001812142Y0000178571D01*
X0001810714Y0000177142D01*
X0001883571Y0000122142D02*
X0001883571Y0000139285D01*
X0001913571Y0000130714D02*
X0001883571Y0000130714D01*
X0001883571Y0000146428D02*
X0001913571Y0000166428D01*
X0001883571Y0000166428D02*
X0001913571Y0000146428D01*
X0001913571Y0000177857D02*
X0001883571Y0000177857D01*
X0001883571Y0000184999D01*
X0001884999Y0000189285D01*
X0001887857Y0000192142D01*
X0001890714Y0000193571D01*
X0001896428Y0000194999D01*
X0001900714Y0000194999D01*
X0001906428Y0000193571D01*
X0001909285Y0000192142D01*
X0001912142Y0000189285D01*
X0001913571Y0000184999D01*
X0001913571Y0000177857D01*
X0002013571Y0000139999D02*
X0001999285Y0000129999D01*
X0002013571Y0000122857D02*
X0001983571Y0000122857D01*
X0001983571Y0000134285D01*
X0001984999Y0000137142D01*
X0001986428Y0000138571D01*
X0001989285Y0000139999D01*
X0001993571Y0000139999D01*
X0001996428Y0000138571D01*
X0001997857Y0000137142D01*
X0001999285Y0000134285D01*
X0001999285Y0000122857D01*
X0001983571Y0000149999D02*
X0002013571Y0000169999D01*
X0001983571Y0000169999D02*
X0002013571Y0000149999D01*
X0002013571Y0000181428D02*
X0001983571Y0000181428D01*
X0001983571Y0000188571D01*
X0001984999Y0000192857D01*
X0001987857Y0000195714D01*
X0001990714Y0000197142D01*
X0001996428Y0000198571D01*
X0002000714Y0000198571D01*
X0002006428Y0000197142D01*
X0002009285Y0000195714D01*
X0002012142Y0000192857D01*
X0002013571Y0000188571D01*
X0002013571Y0000181428D01*
X0002084999Y0000137142D02*
X0002083571Y0000134285D01*
X0002083571Y0000129999D01*
X0002084999Y0000125714D01*
X0002087857Y0000122857D01*
X0002090714Y0000121428D01*
X0002096428Y0000119999D01*
X0002100714Y0000119999D01*
X0002106428Y0000121428D01*
X0002109285Y0000122857D01*
X0002112142Y0000125714D01*
X0002113571Y0000129999D01*
X0002113571Y0000132857D01*
X0002112142Y0000137142D01*
X0002110714Y0000138571D01*
X0002100714Y0000138571D01*
X0002100714Y0000132857D01*
X0002113571Y0000151428D02*
X0002083571Y0000151428D01*
X0002113571Y0000168571D01*
X0002083571Y0000168571D01*
X0002113571Y0000182857D02*
X0002083571Y0000182857D01*
X0002083571Y0000189999D01*
X0002084999Y0000194285D01*
X0002087857Y0000197142D01*
X0002090714Y0000198571D01*
X0002096428Y0000199999D01*
X0002100714Y0000199999D01*
X0002106428Y0000198571D01*
X0002109285Y0000197142D01*
X0002112142Y0000194285D01*
X0002113571Y0000189999D01*
X0002113571Y0000182857D01*
D16*
X0001449999Y0001409999D02*
X0002149999Y0001409999D01*
X0002149999Y0001409999D02*
X0002149999Y0000209999D01*
X0002149999Y0000209999D02*
X0001449999Y0000209999D01*
X0001449999Y0000209999D02*
X0001449999Y0001409999D01*
X0001744881Y0000395629D02*
X0001744881Y0000474370D01*
X0001855118Y0000395629D02*
X0001744881Y0000395629D01*
X0001855118Y0000474370D02*
X0001855118Y0000395629D01*
X0001744881Y0000474370D02*
X0001855118Y0000474370D01*
X0001547637Y0000112362D02*
X0001547637Y0000007637D01*
X0002049999Y0000112362D02*
X0001547637Y0000112362D01*
X0002049999Y0000007637D02*
X0001547637Y0000007637D01*
X0002049999Y0000112362D02*
X0002049999Y0000007637D01*
X0002099999Y0000112362D02*
X0002152362Y0000112362D01*
X0002152362Y0000112362D02*
X0002152362Y0000059999D01*
X0001871062Y0001131358D02*
X0001871062Y0001034507D01*
X0001928936Y0001131358D02*
X0001871062Y0001131358D01*
X0001928936Y0001034507D02*
X0001928936Y0001131358D01*
X0001928936Y0001234507D02*
X0001928936Y0001331358D01*
X0001928936Y0001331358D02*
X0001871062Y0001331358D01*
X0001871062Y0001331358D02*
X0001871062Y0001234507D01*
X0001671062Y0001131358D02*
X0001671062Y0001034507D01*
X0001728936Y0001131358D02*
X0001671062Y0001131358D01*
X0001728936Y0001034507D02*
X0001728936Y0001131358D01*
X0001728936Y0001234507D02*
X0001728936Y0001331358D01*
X0001728936Y0001331358D02*
X0001671062Y0001331358D01*
X0001671062Y0001331358D02*
X0001671062Y0001234507D01*
X0001920078Y0000887705D02*
X0001920078Y0000901191D01*
X0001879921Y0000887705D02*
X0001879921Y0000901191D01*
X0001804921Y0000887705D02*
X0001804921Y0000901191D01*
X0001845078Y0000887705D02*
X0001845078Y0000901191D01*
X0001720078Y0000887705D02*
X0001720078Y0000901191D01*
X0001679921Y0000887705D02*
X0001679921Y0000901191D01*
X0001604921Y0000887705D02*
X0001604921Y0000901191D01*
X0001645078Y0000887705D02*
X0001645078Y0000901191D01*
D17*
X0001783571Y0000309999D02*
X0001804999Y0000309999D01*
X0001809285Y0000308571D01*
X0001812142Y0000305714D01*
X0001813571Y0000301428D01*
X0001813571Y0000298571D01*
X0001813571Y0000324285D02*
X0001783571Y0000324285D01*
X0001783571Y0000335714D01*
X0001784999Y0000338571D01*
X0001786428Y0000339999D01*
X0001789285Y0000341428D01*
X0001793571Y0000341428D01*
X0001796428Y0000339999D01*
X0001797857Y0000338571D01*
X0001799285Y0000335714D01*
X0001799285Y0000324285D01*
X0001813571Y0000369999D02*
X0001813571Y0000352857D01*
X0001813571Y0000361428D02*
X0001783571Y0000361428D01*
X0001787857Y0000358571D01*
X0001790714Y0000355714D01*
X0001792142Y0000352857D01*
X0001969870Y0001043861D02*
X0001939870Y0001043861D01*
X0001939870Y0001051003D01*
X0001941299Y0001055289D01*
X0001944156Y0001058146D01*
X0001947013Y0001059575D01*
X0001952727Y0001061003D01*
X0001957013Y0001061003D01*
X0001962727Y0001059575D01*
X0001965584Y0001058146D01*
X0001968442Y0001055289D01*
X0001969870Y0001051003D01*
X0001969870Y0001043861D01*
X0001949870Y0001086718D02*
X0001969870Y0001086718D01*
X0001938442Y0001079575D02*
X0001959870Y0001072432D01*
X0001959870Y0001091003D01*
X0001969870Y0001243861D02*
X0001939870Y0001243861D01*
X0001939870Y0001251003D01*
X0001941299Y0001255289D01*
X0001944156Y0001258146D01*
X0001947013Y0001259575D01*
X0001952727Y0001261003D01*
X0001957013Y0001261003D01*
X0001962727Y0001259575D01*
X0001965584Y0001258146D01*
X0001968442Y0001255289D01*
X0001969870Y0001251003D01*
X0001969870Y0001243861D01*
X0001939870Y0001271003D02*
X0001939870Y0001289575D01*
X0001951299Y0001279575D01*
X0001951299Y0001283861D01*
X0001952727Y0001286718D01*
X0001954156Y0001288146D01*
X0001957013Y0001289575D01*
X0001964156Y0001289575D01*
X0001967013Y0001288146D01*
X0001968442Y0001286718D01*
X0001969870Y0001283861D01*
X0001969870Y0001275289D01*
X0001968442Y0001272432D01*
X0001967013Y0001271003D01*
X0001769870Y0001043861D02*
X0001739870Y0001043861D01*
X0001739870Y0001051003D01*
X0001741299Y0001055289D01*
X0001744156Y0001058146D01*
X0001747013Y0001059575D01*
X0001752727Y0001061003D01*
X0001757013Y0001061003D01*
X0001762727Y0001059575D01*
X0001765584Y0001058146D01*
X0001768442Y0001055289D01*
X0001769870Y0001051003D01*
X0001769870Y0001043861D01*
X0001742727Y0001072432D02*
X0001741299Y0001073861D01*
X0001739870Y0001076718D01*
X0001739870Y0001083861D01*
X0001741299Y0001086718D01*
X0001742727Y0001088146D01*
X0001745584Y0001089575D01*
X0001748442Y0001089575D01*
X0001752727Y0001088146D01*
X0001769870Y0001071003D01*
X0001769870Y0001089575D01*
X0001769870Y0001243861D02*
X0001739870Y0001243861D01*
X0001739870Y0001251003D01*
X0001741299Y0001255289D01*
X0001744156Y0001258146D01*
X0001747013Y0001259575D01*
X0001752727Y0001261003D01*
X0001757013Y0001261003D01*
X0001762727Y0001259575D01*
X0001765584Y0001258146D01*
X0001768442Y0001255289D01*
X0001769870Y0001251003D01*
X0001769870Y0001243861D01*
X0001769870Y0001289575D02*
X0001769870Y0001272432D01*
X0001769870Y0001281003D02*
X0001739870Y0001281003D01*
X0001744156Y0001278146D01*
X0001747013Y0001275289D01*
X0001748442Y0001272432D01*
X0001913571Y0000779999D02*
X0001899285Y0000769999D01*
X0001913571Y0000762857D02*
X0001883571Y0000762857D01*
X0001883571Y0000774285D01*
X0001884999Y0000777142D01*
X0001886428Y0000778571D01*
X0001889285Y0000779999D01*
X0001893571Y0000779999D01*
X0001896428Y0000778571D01*
X0001897857Y0000777142D01*
X0001899285Y0000774285D01*
X0001899285Y0000762857D01*
X0001893571Y0000805714D02*
X0001913571Y0000805714D01*
X0001882142Y0000798571D02*
X0001903571Y0000791428D01*
X0001903571Y0000809999D01*
X0001838571Y0000779999D02*
X0001824285Y0000769999D01*
X0001838571Y0000762857D02*
X0001808571Y0000762857D01*
X0001808571Y0000774285D01*
X0001809999Y0000777142D01*
X0001811428Y0000778571D01*
X0001814285Y0000779999D01*
X0001818571Y0000779999D01*
X0001821428Y0000778571D01*
X0001822857Y0000777142D01*
X0001824285Y0000774285D01*
X0001824285Y0000762857D01*
X0001808571Y0000789999D02*
X0001808571Y0000808571D01*
X0001819999Y0000798571D01*
X0001819999Y0000802857D01*
X0001821428Y0000805714D01*
X0001822857Y0000807142D01*
X0001825714Y0000808571D01*
X0001832857Y0000808571D01*
X0001835714Y0000807142D01*
X0001837142Y0000805714D01*
X0001838571Y0000802857D01*
X0001838571Y0000794285D01*
X0001837142Y0000791428D01*
X0001835714Y0000789999D01*
X0001713571Y0000779999D02*
X0001699285Y0000769999D01*
X0001713571Y0000762857D02*
X0001683571Y0000762857D01*
X0001683571Y0000774285D01*
X0001684999Y0000777142D01*
X0001686428Y0000778571D01*
X0001689285Y0000779999D01*
X0001693571Y0000779999D01*
X0001696428Y0000778571D01*
X0001697857Y0000777142D01*
X0001699285Y0000774285D01*
X0001699285Y0000762857D01*
X0001686428Y0000791428D02*
X0001684999Y0000792857D01*
X0001683571Y0000795714D01*
X0001683571Y0000802857D01*
X0001684999Y0000805714D01*
X0001686428Y0000807142D01*
X0001689285Y0000808571D01*
X0001692142Y0000808571D01*
X0001696428Y0000807142D01*
X0001713571Y0000789999D01*
X0001713571Y0000808571D01*
X0001638571Y0000779999D02*
X0001624285Y0000769999D01*
X0001638571Y0000762857D02*
X0001608571Y0000762857D01*
X0001608571Y0000774285D01*
X0001609999Y0000777142D01*
X0001611428Y0000778571D01*
X0001614285Y0000779999D01*
X0001618571Y0000779999D01*
X0001621428Y0000778571D01*
X0001622857Y0000777142D01*
X0001624285Y0000774285D01*
X0001624285Y0000762857D01*
X0001638571Y0000808571D02*
X0001638571Y0000791428D01*
X0001638571Y0000799999D02*
X0001608571Y0000799999D01*
X0001612857Y0000797142D01*
X0001615714Y0000794285D01*
X0001617142Y0000791428D01*
G04 next file*
G04 next file*
G04 #@! TF.GenerationSoftware,KiCad,Pcbnew,(5.1.4)-1*
G04 #@! TF.CreationDate,2019-12-18T21:33:11+01:00*
G04 #@! TF.ProjectId,ser,7365722e-6b69-4636-9164-5f7063625858,rev?*
G04 #@! TF.SameCoordinates,Original*
G04 #@! TF.FileFunction,Legend,Top*
G04 #@! TF.FilePolarity,Positive*
G04 Gerber Fmt 4.6, Leading zero omitted, Abs format (unit mm)*
G04 Created by KiCad (PCBNEW (5.1.4)-1) date 2019-12-18 21:33:11*
G04 APERTURE LIST*
G04 APERTURE END LIST*
D18*
X0002370000Y0001084999D02*
X0002345000Y0001084999D01*
X0002345000Y0001109999D02*
X0002345000Y0001084999D01*
X0002320000Y0001084999D02*
X0002345000Y0001084999D01*
G36*
X0002370000Y0001059999D02*
G01*
X0002320000Y0001059999D01*
X0002345000Y0001084999D01*
X0002370000Y0001059999D01*
G37*
X0002370000Y0001059999D02*
X0002320000Y0001059999D01*
X0002345000Y0001084999D01*
X0002370000Y0001059999D01*
X0002345000Y0001084999D02*
X0002320000Y0001084999D01*
X0002345000Y0001034999D02*
X0002345000Y0001059999D01*
X0002570000Y0001084999D02*
X0002545000Y0001084999D01*
X0002545000Y0001109999D02*
X0002545000Y0001084999D01*
X0002520000Y0001084999D02*
X0002545000Y0001084999D01*
G36*
X0002570000Y0001059999D02*
G01*
X0002520000Y0001059999D01*
X0002545000Y0001084999D01*
X0002570000Y0001059999D01*
G37*
X0002570000Y0001059999D02*
X0002520000Y0001059999D01*
X0002545000Y0001084999D01*
X0002570000Y0001059999D01*
X0002545000Y0001084999D02*
X0002520000Y0001084999D01*
X0002545000Y0001034999D02*
X0002545000Y0001059999D01*
X0002570000Y0001284999D02*
X0002545000Y0001284999D01*
X0002545000Y0001309999D02*
X0002545000Y0001284999D01*
X0002520000Y0001284999D02*
X0002545000Y0001284999D01*
G36*
X0002570000Y0001259999D02*
G01*
X0002520000Y0001259999D01*
X0002545000Y0001284999D01*
X0002570000Y0001259999D01*
G37*
X0002570000Y0001259999D02*
X0002520000Y0001259999D01*
X0002545000Y0001284999D01*
X0002570000Y0001259999D01*
X0002545000Y0001284999D02*
X0002520000Y0001284999D01*
X0002545000Y0001234999D02*
X0002545000Y0001259999D01*
G36*
X0002370000Y0001259999D02*
G01*
X0002320000Y0001259999D01*
X0002345000Y0001284999D01*
X0002370000Y0001259999D01*
G37*
X0002370000Y0001259999D02*
X0002320000Y0001259999D01*
X0002345000Y0001284999D01*
X0002370000Y0001259999D01*
X0002370000Y0001284999D02*
X0002345000Y0001284999D01*
X0002345000Y0001309999D02*
X0002345000Y0001284999D01*
X0002320000Y0001284999D02*
X0002345000Y0001284999D01*
X0002345000Y0001284999D02*
X0002320000Y0001284999D01*
X0002345000Y0001234999D02*
X0002345000Y0001259999D01*
D19*
X0002750000Y0000638571D02*
X0002750000Y0000652857D01*
X0002758571Y0000635714D02*
X0002728571Y0000645714D01*
X0002758571Y0000655714D01*
X0002728571Y0000671428D02*
X0002728571Y0000674285D01*
X0002730000Y0000677142D01*
X0002731428Y0000678571D01*
X0002734285Y0000679999D01*
X0002740000Y0000681428D01*
X0002747142Y0000681428D01*
X0002752857Y0000679999D01*
X0002755714Y0000678571D01*
X0002757142Y0000677142D01*
X0002758571Y0000674285D01*
X0002758571Y0000671428D01*
X0002757142Y0000668571D01*
X0002755714Y0000667142D01*
X0002752857Y0000665714D01*
X0002747142Y0000664285D01*
X0002740000Y0000664285D01*
X0002734285Y0000665714D01*
X0002731428Y0000667142D01*
X0002730000Y0000668571D01*
X0002728571Y0000671428D01*
X0002758571Y0001143571D02*
X0002744285Y0001133571D01*
X0002758571Y0001126428D02*
X0002728571Y0001126428D01*
X0002728571Y0001137857D01*
X0002730000Y0001140714D01*
X0002731428Y0001142142D01*
X0002734285Y0001143571D01*
X0002738571Y0001143571D01*
X0002741428Y0001142142D01*
X0002742857Y0001140714D01*
X0002744285Y0001137857D01*
X0002744285Y0001126428D01*
X0002757142Y0001154999D02*
X0002758571Y0001159285D01*
X0002758571Y0001166428D01*
X0002757142Y0001169285D01*
X0002755714Y0001170714D01*
X0002752857Y0001172142D01*
X0002750000Y0001172142D01*
X0002747142Y0001170714D01*
X0002745714Y0001169285D01*
X0002744285Y0001166428D01*
X0002742857Y0001160714D01*
X0002741428Y0001157857D01*
X0002740000Y0001156428D01*
X0002737142Y0001154999D01*
X0002734285Y0001154999D01*
X0002731428Y0001156428D01*
X0002730000Y0001157857D01*
X0002728571Y0001160714D01*
X0002728571Y0001167857D01*
X0002730000Y0001172142D01*
X0002728571Y0001180714D02*
X0002728571Y0001197857D01*
X0002758571Y0001189285D02*
X0002728571Y0001189285D01*
X0002308571Y0001239999D02*
X0002294285Y0001229999D01*
X0002308571Y0001222857D02*
X0002278571Y0001222857D01*
X0002278571Y0001234285D01*
X0002280000Y0001237142D01*
X0002281428Y0001238571D01*
X0002284285Y0001239999D01*
X0002288571Y0001239999D01*
X0002291428Y0001238571D01*
X0002292857Y0001237142D01*
X0002294285Y0001234285D01*
X0002294285Y0001222857D01*
X0002278571Y0001249999D02*
X0002308571Y0001269999D01*
X0002278571Y0001269999D02*
X0002308571Y0001249999D01*
X0002308571Y0001281428D02*
X0002278571Y0001281428D01*
X0002278571Y0001288571D01*
X0002280000Y0001292857D01*
X0002282857Y0001295714D01*
X0002285714Y0001297142D01*
X0002291428Y0001298571D01*
X0002295714Y0001298571D01*
X0002301428Y0001297142D01*
X0002304285Y0001295714D01*
X0002307142Y0001292857D01*
X0002308571Y0001288571D01*
X0002308571Y0001281428D01*
X0002278571Y0001322142D02*
X0002278571Y0001339285D01*
X0002308571Y0001330714D02*
X0002278571Y0001330714D01*
X0002278571Y0001346428D02*
X0002308571Y0001366428D01*
X0002278571Y0001366428D02*
X0002308571Y0001346428D01*
X0002308571Y0001377857D02*
X0002278571Y0001377857D01*
X0002278571Y0001384999D01*
X0002280000Y0001389285D01*
X0002282857Y0001392142D01*
X0002285714Y0001393571D01*
X0002291428Y0001394999D01*
X0002295714Y0001394999D01*
X0002301428Y0001393571D01*
X0002304285Y0001392142D01*
X0002307142Y0001389285D01*
X0002308571Y0001384999D01*
X0002308571Y0001377857D01*
X0002303571Y0000154285D02*
X0002303571Y0000139999D01*
X0002317857Y0000138571D01*
X0002316428Y0000139999D01*
X0002315000Y0000142857D01*
X0002315000Y0000149999D01*
X0002316428Y0000152857D01*
X0002317857Y0000154285D01*
X0002320714Y0000155714D01*
X0002327857Y0000155714D01*
X0002330714Y0000154285D01*
X0002332142Y0000152857D01*
X0002333571Y0000149999D01*
X0002333571Y0000142857D01*
X0002332142Y0000139999D01*
X0002330714Y0000138571D01*
X0002303571Y0000164285D02*
X0002333571Y0000174285D01*
X0002303571Y0000184285D01*
X0002403571Y0000119999D02*
X0002433571Y0000129999D01*
X0002403571Y0000139999D01*
X0002433571Y0000149999D02*
X0002403571Y0000149999D01*
X0002403571Y0000157142D01*
X0002405000Y0000161428D01*
X0002407857Y0000164285D01*
X0002410714Y0000165714D01*
X0002416428Y0000167142D01*
X0002420714Y0000167142D01*
X0002426428Y0000165714D01*
X0002429285Y0000164285D01*
X0002432142Y0000161428D01*
X0002433571Y0000157142D01*
X0002433571Y0000149999D01*
X0002433571Y0000179999D02*
X0002403571Y0000179999D01*
X0002403571Y0000187142D01*
X0002405000Y0000191428D01*
X0002407857Y0000194285D01*
X0002410714Y0000195714D01*
X0002416428Y0000197142D01*
X0002420714Y0000197142D01*
X0002426428Y0000195714D01*
X0002429285Y0000194285D01*
X0002432142Y0000191428D01*
X0002433571Y0000187142D01*
X0002433571Y0000179999D01*
X0002503571Y0000122857D02*
X0002503571Y0000141428D01*
X0002515000Y0000131428D01*
X0002515000Y0000135714D01*
X0002516428Y0000138571D01*
X0002517857Y0000139999D01*
X0002520714Y0000141428D01*
X0002527857Y0000141428D01*
X0002530714Y0000139999D01*
X0002532142Y0000138571D01*
X0002533571Y0000135714D01*
X0002533571Y0000127142D01*
X0002532142Y0000124285D01*
X0002530714Y0000122857D01*
X0002503571Y0000149999D02*
X0002533571Y0000159999D01*
X0002503571Y0000169999D01*
X0002503571Y0000177142D02*
X0002503571Y0000195714D01*
X0002515000Y0000185714D01*
X0002515000Y0000189999D01*
X0002516428Y0000192857D01*
X0002517857Y0000194285D01*
X0002520714Y0000195714D01*
X0002527857Y0000195714D01*
X0002530714Y0000194285D01*
X0002532142Y0000192857D01*
X0002533571Y0000189999D01*
X0002533571Y0000181428D01*
X0002532142Y0000178571D01*
X0002530714Y0000177142D01*
X0002603571Y0000122142D02*
X0002603571Y0000139285D01*
X0002633571Y0000130714D02*
X0002603571Y0000130714D01*
X0002603571Y0000146428D02*
X0002633571Y0000166428D01*
X0002603571Y0000166428D02*
X0002633571Y0000146428D01*
X0002633571Y0000177857D02*
X0002603571Y0000177857D01*
X0002603571Y0000184999D01*
X0002605000Y0000189285D01*
X0002607857Y0000192142D01*
X0002610714Y0000193571D01*
X0002616428Y0000194999D01*
X0002620714Y0000194999D01*
X0002626428Y0000193571D01*
X0002629285Y0000192142D01*
X0002632142Y0000189285D01*
X0002633571Y0000184999D01*
X0002633571Y0000177857D01*
X0002733571Y0000139999D02*
X0002719285Y0000129999D01*
X0002733571Y0000122857D02*
X0002703571Y0000122857D01*
X0002703571Y0000134285D01*
X0002705000Y0000137142D01*
X0002706428Y0000138571D01*
X0002709285Y0000139999D01*
X0002713571Y0000139999D01*
X0002716428Y0000138571D01*
X0002717857Y0000137142D01*
X0002719285Y0000134285D01*
X0002719285Y0000122857D01*
X0002703571Y0000149999D02*
X0002733571Y0000169999D01*
X0002703571Y0000169999D02*
X0002733571Y0000149999D01*
X0002733571Y0000181428D02*
X0002703571Y0000181428D01*
X0002703571Y0000188571D01*
X0002705000Y0000192857D01*
X0002707857Y0000195714D01*
X0002710714Y0000197142D01*
X0002716428Y0000198571D01*
X0002720714Y0000198571D01*
X0002726428Y0000197142D01*
X0002729285Y0000195714D01*
X0002732142Y0000192857D01*
X0002733571Y0000188571D01*
X0002733571Y0000181428D01*
X0002805000Y0000137142D02*
X0002803571Y0000134285D01*
X0002803571Y0000129999D01*
X0002805000Y0000125714D01*
X0002807857Y0000122857D01*
X0002810714Y0000121428D01*
X0002816428Y0000119999D01*
X0002820714Y0000119999D01*
X0002826428Y0000121428D01*
X0002829285Y0000122857D01*
X0002832142Y0000125714D01*
X0002833571Y0000129999D01*
X0002833571Y0000132857D01*
X0002832142Y0000137142D01*
X0002830714Y0000138571D01*
X0002820714Y0000138571D01*
X0002820714Y0000132857D01*
X0002833571Y0000151428D02*
X0002803571Y0000151428D01*
X0002833571Y0000168571D01*
X0002803571Y0000168571D01*
X0002833571Y0000182857D02*
X0002803571Y0000182857D01*
X0002803571Y0000189999D01*
X0002805000Y0000194285D01*
X0002807857Y0000197142D01*
X0002810714Y0000198571D01*
X0002816428Y0000199999D01*
X0002820714Y0000199999D01*
X0002826428Y0000198571D01*
X0002829285Y0000197142D01*
X0002832142Y0000194285D01*
X0002833571Y0000189999D01*
X0002833571Y0000182857D01*
D18*
X0002170000Y0001409999D02*
X0002870000Y0001409999D01*
X0002870000Y0001409999D02*
X0002870000Y0000209999D01*
X0002870000Y0000209999D02*
X0002170000Y0000209999D01*
X0002170000Y0000209999D02*
X0002170000Y0001409999D01*
X0002464881Y0000395629D02*
X0002464881Y0000474370D01*
X0002575118Y0000395629D02*
X0002464881Y0000395629D01*
X0002575118Y0000474370D02*
X0002575118Y0000395629D01*
X0002464881Y0000474370D02*
X0002575118Y0000474370D01*
X0002267637Y0000112362D02*
X0002267637Y0000007637D01*
X0002770000Y0000112362D02*
X0002267637Y0000112362D01*
X0002770000Y0000007637D02*
X0002267637Y0000007637D01*
X0002770000Y0000112362D02*
X0002770000Y0000007637D01*
X0002820000Y0000112362D02*
X0002872362Y0000112362D01*
X0002872362Y0000112362D02*
X0002872362Y0000059999D01*
X0002591063Y0001131358D02*
X0002591063Y0001034507D01*
X0002648937Y0001131358D02*
X0002591063Y0001131358D01*
X0002648937Y0001034507D02*
X0002648937Y0001131358D01*
X0002648937Y0001234507D02*
X0002648937Y0001331358D01*
X0002648937Y0001331358D02*
X0002591063Y0001331358D01*
X0002591063Y0001331358D02*
X0002591063Y0001234507D01*
X0002391063Y0001131358D02*
X0002391063Y0001034507D01*
X0002448937Y0001131358D02*
X0002391063Y0001131358D01*
X0002448937Y0001034507D02*
X0002448937Y0001131358D01*
X0002448937Y0001234507D02*
X0002448937Y0001331358D01*
X0002448937Y0001331358D02*
X0002391063Y0001331358D01*
X0002391063Y0001331358D02*
X0002391063Y0001234507D01*
X0002640078Y0000887705D02*
X0002640078Y0000901191D01*
X0002599921Y0000887705D02*
X0002599921Y0000901191D01*
X0002524921Y0000887705D02*
X0002524921Y0000901191D01*
X0002565078Y0000887705D02*
X0002565078Y0000901191D01*
X0002440078Y0000887705D02*
X0002440078Y0000901191D01*
X0002399921Y0000887705D02*
X0002399921Y0000901191D01*
X0002324921Y0000887705D02*
X0002324921Y0000901191D01*
X0002365078Y0000887705D02*
X0002365078Y0000901191D01*
D19*
X0002503571Y0000309999D02*
X0002525000Y0000309999D01*
X0002529285Y0000308571D01*
X0002532142Y0000305714D01*
X0002533571Y0000301428D01*
X0002533571Y0000298571D01*
X0002533571Y0000324285D02*
X0002503571Y0000324285D01*
X0002503571Y0000335714D01*
X0002505000Y0000338571D01*
X0002506428Y0000339999D01*
X0002509285Y0000341428D01*
X0002513571Y0000341428D01*
X0002516428Y0000339999D01*
X0002517857Y0000338571D01*
X0002519285Y0000335714D01*
X0002519285Y0000324285D01*
X0002533571Y0000369999D02*
X0002533571Y0000352857D01*
X0002533571Y0000361428D02*
X0002503571Y0000361428D01*
X0002507857Y0000358571D01*
X0002510714Y0000355714D01*
X0002512142Y0000352857D01*
X0002689870Y0001043861D02*
X0002659870Y0001043861D01*
X0002659870Y0001051003D01*
X0002661299Y0001055289D01*
X0002664156Y0001058146D01*
X0002667013Y0001059575D01*
X0002672727Y0001061003D01*
X0002677013Y0001061003D01*
X0002682727Y0001059575D01*
X0002685584Y0001058146D01*
X0002688442Y0001055289D01*
X0002689870Y0001051003D01*
X0002689870Y0001043861D01*
X0002669870Y0001086718D02*
X0002689870Y0001086718D01*
X0002658442Y0001079575D02*
X0002679870Y0001072432D01*
X0002679870Y0001091003D01*
X0002689870Y0001243861D02*
X0002659870Y0001243861D01*
X0002659870Y0001251003D01*
X0002661299Y0001255289D01*
X0002664156Y0001258146D01*
X0002667013Y0001259575D01*
X0002672727Y0001261003D01*
X0002677013Y0001261003D01*
X0002682727Y0001259575D01*
X0002685584Y0001258146D01*
X0002688442Y0001255289D01*
X0002689870Y0001251003D01*
X0002689870Y0001243861D01*
X0002659870Y0001271003D02*
X0002659870Y0001289575D01*
X0002671299Y0001279575D01*
X0002671299Y0001283861D01*
X0002672727Y0001286718D01*
X0002674156Y0001288146D01*
X0002677013Y0001289575D01*
X0002684156Y0001289575D01*
X0002687013Y0001288146D01*
X0002688442Y0001286718D01*
X0002689870Y0001283861D01*
X0002689870Y0001275289D01*
X0002688442Y0001272432D01*
X0002687013Y0001271003D01*
X0002489870Y0001043861D02*
X0002459870Y0001043861D01*
X0002459870Y0001051003D01*
X0002461299Y0001055289D01*
X0002464156Y0001058146D01*
X0002467013Y0001059575D01*
X0002472727Y0001061003D01*
X0002477013Y0001061003D01*
X0002482727Y0001059575D01*
X0002485584Y0001058146D01*
X0002488442Y0001055289D01*
X0002489870Y0001051003D01*
X0002489870Y0001043861D01*
X0002462727Y0001072432D02*
X0002461299Y0001073861D01*
X0002459870Y0001076718D01*
X0002459870Y0001083861D01*
X0002461299Y0001086718D01*
X0002462727Y0001088146D01*
X0002465584Y0001089575D01*
X0002468442Y0001089575D01*
X0002472727Y0001088146D01*
X0002489870Y0001071003D01*
X0002489870Y0001089575D01*
X0002489870Y0001243861D02*
X0002459870Y0001243861D01*
X0002459870Y0001251003D01*
X0002461299Y0001255289D01*
X0002464156Y0001258146D01*
X0002467013Y0001259575D01*
X0002472727Y0001261003D01*
X0002477013Y0001261003D01*
X0002482727Y0001259575D01*
X0002485584Y0001258146D01*
X0002488442Y0001255289D01*
X0002489870Y0001251003D01*
X0002489870Y0001243861D01*
X0002489870Y0001289575D02*
X0002489870Y0001272432D01*
X0002489870Y0001281003D02*
X0002459870Y0001281003D01*
X0002464156Y0001278146D01*
X0002467013Y0001275289D01*
X0002468442Y0001272432D01*
X0002633571Y0000779999D02*
X0002619285Y0000769999D01*
X0002633571Y0000762857D02*
X0002603571Y0000762857D01*
X0002603571Y0000774285D01*
X0002605000Y0000777142D01*
X0002606428Y0000778571D01*
X0002609285Y0000779999D01*
X0002613571Y0000779999D01*
X0002616428Y0000778571D01*
X0002617857Y0000777142D01*
X0002619285Y0000774285D01*
X0002619285Y0000762857D01*
X0002613571Y0000805714D02*
X0002633571Y0000805714D01*
X0002602142Y0000798571D02*
X0002623571Y0000791428D01*
X0002623571Y0000809999D01*
X0002558571Y0000779999D02*
X0002544285Y0000769999D01*
X0002558571Y0000762857D02*
X0002528571Y0000762857D01*
X0002528571Y0000774285D01*
X0002530000Y0000777142D01*
X0002531428Y0000778571D01*
X0002534285Y0000779999D01*
X0002538571Y0000779999D01*
X0002541428Y0000778571D01*
X0002542857Y0000777142D01*
X0002544285Y0000774285D01*
X0002544285Y0000762857D01*
X0002528571Y0000789999D02*
X0002528571Y0000808571D01*
X0002540000Y0000798571D01*
X0002540000Y0000802857D01*
X0002541428Y0000805714D01*
X0002542857Y0000807142D01*
X0002545714Y0000808571D01*
X0002552857Y0000808571D01*
X0002555714Y0000807142D01*
X0002557142Y0000805714D01*
X0002558571Y0000802857D01*
X0002558571Y0000794285D01*
X0002557142Y0000791428D01*
X0002555714Y0000789999D01*
X0002433571Y0000779999D02*
X0002419285Y0000769999D01*
X0002433571Y0000762857D02*
X0002403571Y0000762857D01*
X0002403571Y0000774285D01*
X0002405000Y0000777142D01*
X0002406428Y0000778571D01*
X0002409285Y0000779999D01*
X0002413571Y0000779999D01*
X0002416428Y0000778571D01*
X0002417857Y0000777142D01*
X0002419285Y0000774285D01*
X0002419285Y0000762857D01*
X0002406428Y0000791428D02*
X0002405000Y0000792857D01*
X0002403571Y0000795714D01*
X0002403571Y0000802857D01*
X0002405000Y0000805714D01*
X0002406428Y0000807142D01*
X0002409285Y0000808571D01*
X0002412142Y0000808571D01*
X0002416428Y0000807142D01*
X0002433571Y0000789999D01*
X0002433571Y0000808571D01*
X0002358571Y0000779999D02*
X0002344285Y0000769999D01*
X0002358571Y0000762857D02*
X0002328571Y0000762857D01*
X0002328571Y0000774285D01*
X0002330000Y0000777142D01*
X0002331428Y0000778571D01*
X0002334285Y0000779999D01*
X0002338571Y0000779999D01*
X0002341428Y0000778571D01*
X0002342857Y0000777142D01*
X0002344285Y0000774285D01*
X0002344285Y0000762857D01*
X0002358571Y0000808571D02*
X0002358571Y0000791428D01*
X0002358571Y0000799999D02*
X0002328571Y0000799999D01*
X0002332857Y0000797142D01*
X0002335714Y0000794285D01*
X0002337142Y0000791428D01*
G04 next file*
G04 next file*
G04 #@! TF.GenerationSoftware,KiCad,Pcbnew,(5.1.4)-1*
G04 #@! TF.CreationDate,2019-12-18T21:33:11+01:00*
G04 #@! TF.ProjectId,ser,7365722e-6b69-4636-9164-5f7063625858,rev?*
G04 #@! TF.SameCoordinates,Original*
G04 #@! TF.FileFunction,Legend,Top*
G04 #@! TF.FilePolarity,Positive*
G04 Gerber Fmt 4.6, Leading zero omitted, Abs format (unit mm)*
G04 Created by KiCad (PCBNEW (5.1.4)-1) date 2019-12-18 21:33:11*
G04 APERTURE LIST*
G04 APERTURE END LIST*
D20*
X0003089999Y0001084999D02*
X0003064999Y0001084999D01*
X0003064999Y0001109999D02*
X0003064999Y0001084999D01*
X0003039999Y0001084999D02*
X0003064999Y0001084999D01*
G36*
X0003089999Y0001059999D02*
G01*
X0003039999Y0001059999D01*
X0003064999Y0001084999D01*
X0003089999Y0001059999D01*
G37*
X0003089999Y0001059999D02*
X0003039999Y0001059999D01*
X0003064999Y0001084999D01*
X0003089999Y0001059999D01*
X0003064999Y0001084999D02*
X0003039999Y0001084999D01*
X0003064999Y0001034999D02*
X0003064999Y0001059999D01*
X0003289999Y0001084999D02*
X0003264999Y0001084999D01*
X0003264999Y0001109999D02*
X0003264999Y0001084999D01*
X0003239999Y0001084999D02*
X0003264999Y0001084999D01*
G36*
X0003289999Y0001059999D02*
G01*
X0003239999Y0001059999D01*
X0003264999Y0001084999D01*
X0003289999Y0001059999D01*
G37*
X0003289999Y0001059999D02*
X0003239999Y0001059999D01*
X0003264999Y0001084999D01*
X0003289999Y0001059999D01*
X0003264999Y0001084999D02*
X0003239999Y0001084999D01*
X0003264999Y0001034999D02*
X0003264999Y0001059999D01*
X0003289999Y0001284999D02*
X0003264999Y0001284999D01*
X0003264999Y0001309999D02*
X0003264999Y0001284999D01*
X0003239999Y0001284999D02*
X0003264999Y0001284999D01*
G36*
X0003289999Y0001259999D02*
G01*
X0003239999Y0001259999D01*
X0003264999Y0001284999D01*
X0003289999Y0001259999D01*
G37*
X0003289999Y0001259999D02*
X0003239999Y0001259999D01*
X0003264999Y0001284999D01*
X0003289999Y0001259999D01*
X0003264999Y0001284999D02*
X0003239999Y0001284999D01*
X0003264999Y0001234999D02*
X0003264999Y0001259999D01*
G36*
X0003089999Y0001259999D02*
G01*
X0003039999Y0001259999D01*
X0003064999Y0001284999D01*
X0003089999Y0001259999D01*
G37*
X0003089999Y0001259999D02*
X0003039999Y0001259999D01*
X0003064999Y0001284999D01*
X0003089999Y0001259999D01*
X0003089999Y0001284999D02*
X0003064999Y0001284999D01*
X0003064999Y0001309999D02*
X0003064999Y0001284999D01*
X0003039999Y0001284999D02*
X0003064999Y0001284999D01*
X0003064999Y0001284999D02*
X0003039999Y0001284999D01*
X0003064999Y0001234999D02*
X0003064999Y0001259999D01*
D21*
X0003469999Y0000638571D02*
X0003469999Y0000652857D01*
X0003478571Y0000635714D02*
X0003448571Y0000645714D01*
X0003478571Y0000655714D01*
X0003448571Y0000671428D02*
X0003448571Y0000674285D01*
X0003449999Y0000677142D01*
X0003451428Y0000678571D01*
X0003454285Y0000679999D01*
X0003459999Y0000681428D01*
X0003467142Y0000681428D01*
X0003472857Y0000679999D01*
X0003475714Y0000678571D01*
X0003477142Y0000677142D01*
X0003478571Y0000674285D01*
X0003478571Y0000671428D01*
X0003477142Y0000668571D01*
X0003475714Y0000667142D01*
X0003472857Y0000665714D01*
X0003467142Y0000664285D01*
X0003459999Y0000664285D01*
X0003454285Y0000665714D01*
X0003451428Y0000667142D01*
X0003449999Y0000668571D01*
X0003448571Y0000671428D01*
X0003478571Y0001143571D02*
X0003464285Y0001133571D01*
X0003478571Y0001126428D02*
X0003448571Y0001126428D01*
X0003448571Y0001137857D01*
X0003449999Y0001140714D01*
X0003451428Y0001142142D01*
X0003454285Y0001143571D01*
X0003458571Y0001143571D01*
X0003461428Y0001142142D01*
X0003462857Y0001140714D01*
X0003464285Y0001137857D01*
X0003464285Y0001126428D01*
X0003477142Y0001154999D02*
X0003478571Y0001159285D01*
X0003478571Y0001166428D01*
X0003477142Y0001169285D01*
X0003475714Y0001170714D01*
X0003472857Y0001172142D01*
X0003469999Y0001172142D01*
X0003467142Y0001170714D01*
X0003465714Y0001169285D01*
X0003464285Y0001166428D01*
X0003462857Y0001160714D01*
X0003461428Y0001157857D01*
X0003459999Y0001156428D01*
X0003457142Y0001154999D01*
X0003454285Y0001154999D01*
X0003451428Y0001156428D01*
X0003449999Y0001157857D01*
X0003448571Y0001160714D01*
X0003448571Y0001167857D01*
X0003449999Y0001172142D01*
X0003448571Y0001180714D02*
X0003448571Y0001197857D01*
X0003478571Y0001189285D02*
X0003448571Y0001189285D01*
X0003028571Y0001239999D02*
X0003014285Y0001229999D01*
X0003028571Y0001222857D02*
X0002998571Y0001222857D01*
X0002998571Y0001234285D01*
X0002999999Y0001237142D01*
X0003001428Y0001238571D01*
X0003004285Y0001239999D01*
X0003008571Y0001239999D01*
X0003011428Y0001238571D01*
X0003012857Y0001237142D01*
X0003014285Y0001234285D01*
X0003014285Y0001222857D01*
X0002998571Y0001249999D02*
X0003028571Y0001269999D01*
X0002998571Y0001269999D02*
X0003028571Y0001249999D01*
X0003028571Y0001281428D02*
X0002998571Y0001281428D01*
X0002998571Y0001288571D01*
X0002999999Y0001292857D01*
X0003002857Y0001295714D01*
X0003005714Y0001297142D01*
X0003011428Y0001298571D01*
X0003015714Y0001298571D01*
X0003021428Y0001297142D01*
X0003024285Y0001295714D01*
X0003027142Y0001292857D01*
X0003028571Y0001288571D01*
X0003028571Y0001281428D01*
X0002998571Y0001322142D02*
X0002998571Y0001339285D01*
X0003028571Y0001330714D02*
X0002998571Y0001330714D01*
X0002998571Y0001346428D02*
X0003028571Y0001366428D01*
X0002998571Y0001366428D02*
X0003028571Y0001346428D01*
X0003028571Y0001377857D02*
X0002998571Y0001377857D01*
X0002998571Y0001384999D01*
X0002999999Y0001389285D01*
X0003002857Y0001392142D01*
X0003005714Y0001393571D01*
X0003011428Y0001394999D01*
X0003015714Y0001394999D01*
X0003021428Y0001393571D01*
X0003024285Y0001392142D01*
X0003027142Y0001389285D01*
X0003028571Y0001384999D01*
X0003028571Y0001377857D01*
X0003023571Y0000154285D02*
X0003023571Y0000139999D01*
X0003037857Y0000138571D01*
X0003036428Y0000139999D01*
X0003034999Y0000142857D01*
X0003034999Y0000149999D01*
X0003036428Y0000152857D01*
X0003037857Y0000154285D01*
X0003040714Y0000155714D01*
X0003047857Y0000155714D01*
X0003050714Y0000154285D01*
X0003052142Y0000152857D01*
X0003053571Y0000149999D01*
X0003053571Y0000142857D01*
X0003052142Y0000139999D01*
X0003050714Y0000138571D01*
X0003023571Y0000164285D02*
X0003053571Y0000174285D01*
X0003023571Y0000184285D01*
X0003123571Y0000119999D02*
X0003153571Y0000129999D01*
X0003123571Y0000139999D01*
X0003153571Y0000149999D02*
X0003123571Y0000149999D01*
X0003123571Y0000157142D01*
X0003124999Y0000161428D01*
X0003127857Y0000164285D01*
X0003130714Y0000165714D01*
X0003136428Y0000167142D01*
X0003140714Y0000167142D01*
X0003146428Y0000165714D01*
X0003149285Y0000164285D01*
X0003152142Y0000161428D01*
X0003153571Y0000157142D01*
X0003153571Y0000149999D01*
X0003153571Y0000179999D02*
X0003123571Y0000179999D01*
X0003123571Y0000187142D01*
X0003124999Y0000191428D01*
X0003127857Y0000194285D01*
X0003130714Y0000195714D01*
X0003136428Y0000197142D01*
X0003140714Y0000197142D01*
X0003146428Y0000195714D01*
X0003149285Y0000194285D01*
X0003152142Y0000191428D01*
X0003153571Y0000187142D01*
X0003153571Y0000179999D01*
X0003223571Y0000122857D02*
X0003223571Y0000141428D01*
X0003234999Y0000131428D01*
X0003234999Y0000135714D01*
X0003236428Y0000138571D01*
X0003237857Y0000139999D01*
X0003240714Y0000141428D01*
X0003247857Y0000141428D01*
X0003250714Y0000139999D01*
X0003252142Y0000138571D01*
X0003253571Y0000135714D01*
X0003253571Y0000127142D01*
X0003252142Y0000124285D01*
X0003250714Y0000122857D01*
X0003223571Y0000149999D02*
X0003253571Y0000159999D01*
X0003223571Y0000169999D01*
X0003223571Y0000177142D02*
X0003223571Y0000195714D01*
X0003234999Y0000185714D01*
X0003234999Y0000189999D01*
X0003236428Y0000192857D01*
X0003237857Y0000194285D01*
X0003240714Y0000195714D01*
X0003247857Y0000195714D01*
X0003250714Y0000194285D01*
X0003252142Y0000192857D01*
X0003253571Y0000189999D01*
X0003253571Y0000181428D01*
X0003252142Y0000178571D01*
X0003250714Y0000177142D01*
X0003323571Y0000122142D02*
X0003323571Y0000139285D01*
X0003353571Y0000130714D02*
X0003323571Y0000130714D01*
X0003323571Y0000146428D02*
X0003353571Y0000166428D01*
X0003323571Y0000166428D02*
X0003353571Y0000146428D01*
X0003353571Y0000177857D02*
X0003323571Y0000177857D01*
X0003323571Y0000184999D01*
X0003324999Y0000189285D01*
X0003327857Y0000192142D01*
X0003330714Y0000193571D01*
X0003336428Y0000194999D01*
X0003340714Y0000194999D01*
X0003346428Y0000193571D01*
X0003349285Y0000192142D01*
X0003352142Y0000189285D01*
X0003353571Y0000184999D01*
X0003353571Y0000177857D01*
X0003453571Y0000139999D02*
X0003439285Y0000129999D01*
X0003453571Y0000122857D02*
X0003423571Y0000122857D01*
X0003423571Y0000134285D01*
X0003424999Y0000137142D01*
X0003426428Y0000138571D01*
X0003429285Y0000139999D01*
X0003433571Y0000139999D01*
X0003436428Y0000138571D01*
X0003437857Y0000137142D01*
X0003439285Y0000134285D01*
X0003439285Y0000122857D01*
X0003423571Y0000149999D02*
X0003453571Y0000169999D01*
X0003423571Y0000169999D02*
X0003453571Y0000149999D01*
X0003453571Y0000181428D02*
X0003423571Y0000181428D01*
X0003423571Y0000188571D01*
X0003424999Y0000192857D01*
X0003427857Y0000195714D01*
X0003430714Y0000197142D01*
X0003436428Y0000198571D01*
X0003440714Y0000198571D01*
X0003446428Y0000197142D01*
X0003449285Y0000195714D01*
X0003452142Y0000192857D01*
X0003453571Y0000188571D01*
X0003453571Y0000181428D01*
X0003524999Y0000137142D02*
X0003523571Y0000134285D01*
X0003523571Y0000129999D01*
X0003524999Y0000125714D01*
X0003527857Y0000122857D01*
X0003530714Y0000121428D01*
X0003536428Y0000119999D01*
X0003540714Y0000119999D01*
X0003546428Y0000121428D01*
X0003549285Y0000122857D01*
X0003552142Y0000125714D01*
X0003553571Y0000129999D01*
X0003553571Y0000132857D01*
X0003552142Y0000137142D01*
X0003550714Y0000138571D01*
X0003540714Y0000138571D01*
X0003540714Y0000132857D01*
X0003553571Y0000151428D02*
X0003523571Y0000151428D01*
X0003553571Y0000168571D01*
X0003523571Y0000168571D01*
X0003553571Y0000182857D02*
X0003523571Y0000182857D01*
X0003523571Y0000189999D01*
X0003524999Y0000194285D01*
X0003527857Y0000197142D01*
X0003530714Y0000198571D01*
X0003536428Y0000199999D01*
X0003540714Y0000199999D01*
X0003546428Y0000198571D01*
X0003549285Y0000197142D01*
X0003552142Y0000194285D01*
X0003553571Y0000189999D01*
X0003553571Y0000182857D01*
D20*
X0002889999Y0001409999D02*
X0003589999Y0001409999D01*
X0003589999Y0001409999D02*
X0003589999Y0000209999D01*
X0003589999Y0000209999D02*
X0002889999Y0000209999D01*
X0002889999Y0000209999D02*
X0002889999Y0001409999D01*
X0003184881Y0000395629D02*
X0003184881Y0000474370D01*
X0003295118Y0000395629D02*
X0003184881Y0000395629D01*
X0003295118Y0000474370D02*
X0003295118Y0000395629D01*
X0003184881Y0000474370D02*
X0003295118Y0000474370D01*
X0002987637Y0000112362D02*
X0002987637Y0000007637D01*
X0003489999Y0000112362D02*
X0002987637Y0000112362D01*
X0003489999Y0000007637D02*
X0002987637Y0000007637D01*
X0003489999Y0000112362D02*
X0003489999Y0000007637D01*
X0003539999Y0000112362D02*
X0003592362Y0000112362D01*
X0003592362Y0000112362D02*
X0003592362Y0000059999D01*
X0003311062Y0001131358D02*
X0003311062Y0001034507D01*
X0003368936Y0001131358D02*
X0003311062Y0001131358D01*
X0003368936Y0001034507D02*
X0003368936Y0001131358D01*
X0003368936Y0001234507D02*
X0003368936Y0001331358D01*
X0003368936Y0001331358D02*
X0003311062Y0001331358D01*
X0003311062Y0001331358D02*
X0003311062Y0001234507D01*
X0003111062Y0001131358D02*
X0003111062Y0001034507D01*
X0003168936Y0001131358D02*
X0003111062Y0001131358D01*
X0003168936Y0001034507D02*
X0003168936Y0001131358D01*
X0003168936Y0001234507D02*
X0003168936Y0001331358D01*
X0003168936Y0001331358D02*
X0003111062Y0001331358D01*
X0003111062Y0001331358D02*
X0003111062Y0001234507D01*
X0003360078Y0000887705D02*
X0003360078Y0000901191D01*
X0003319921Y0000887705D02*
X0003319921Y0000901191D01*
X0003244921Y0000887705D02*
X0003244921Y0000901191D01*
X0003285078Y0000887705D02*
X0003285078Y0000901191D01*
X0003160078Y0000887705D02*
X0003160078Y0000901191D01*
X0003119921Y0000887705D02*
X0003119921Y0000901191D01*
X0003044921Y0000887705D02*
X0003044921Y0000901191D01*
X0003085078Y0000887705D02*
X0003085078Y0000901191D01*
D21*
X0003223571Y0000309999D02*
X0003244999Y0000309999D01*
X0003249285Y0000308571D01*
X0003252142Y0000305714D01*
X0003253571Y0000301428D01*
X0003253571Y0000298571D01*
X0003253571Y0000324285D02*
X0003223571Y0000324285D01*
X0003223571Y0000335714D01*
X0003224999Y0000338571D01*
X0003226428Y0000339999D01*
X0003229285Y0000341428D01*
X0003233571Y0000341428D01*
X0003236428Y0000339999D01*
X0003237857Y0000338571D01*
X0003239285Y0000335714D01*
X0003239285Y0000324285D01*
X0003253571Y0000369999D02*
X0003253571Y0000352857D01*
X0003253571Y0000361428D02*
X0003223571Y0000361428D01*
X0003227857Y0000358571D01*
X0003230714Y0000355714D01*
X0003232142Y0000352857D01*
X0003409870Y0001043861D02*
X0003379870Y0001043861D01*
X0003379870Y0001051003D01*
X0003381299Y0001055289D01*
X0003384156Y0001058146D01*
X0003387013Y0001059575D01*
X0003392727Y0001061003D01*
X0003397013Y0001061003D01*
X0003402727Y0001059575D01*
X0003405584Y0001058146D01*
X0003408442Y0001055289D01*
X0003409870Y0001051003D01*
X0003409870Y0001043861D01*
X0003389870Y0001086718D02*
X0003409870Y0001086718D01*
X0003378442Y0001079575D02*
X0003399870Y0001072432D01*
X0003399870Y0001091003D01*
X0003409870Y0001243861D02*
X0003379870Y0001243861D01*
X0003379870Y0001251003D01*
X0003381299Y0001255289D01*
X0003384156Y0001258146D01*
X0003387013Y0001259575D01*
X0003392727Y0001261003D01*
X0003397013Y0001261003D01*
X0003402727Y0001259575D01*
X0003405584Y0001258146D01*
X0003408442Y0001255289D01*
X0003409870Y0001251003D01*
X0003409870Y0001243861D01*
X0003379870Y0001271003D02*
X0003379870Y0001289575D01*
X0003391299Y0001279575D01*
X0003391299Y0001283861D01*
X0003392727Y0001286718D01*
X0003394156Y0001288146D01*
X0003397013Y0001289575D01*
X0003404156Y0001289575D01*
X0003407013Y0001288146D01*
X0003408442Y0001286718D01*
X0003409870Y0001283861D01*
X0003409870Y0001275289D01*
X0003408442Y0001272432D01*
X0003407013Y0001271003D01*
X0003209870Y0001043861D02*
X0003179870Y0001043861D01*
X0003179870Y0001051003D01*
X0003181299Y0001055289D01*
X0003184156Y0001058146D01*
X0003187013Y0001059575D01*
X0003192727Y0001061003D01*
X0003197013Y0001061003D01*
X0003202727Y0001059575D01*
X0003205584Y0001058146D01*
X0003208442Y0001055289D01*
X0003209870Y0001051003D01*
X0003209870Y0001043861D01*
X0003182727Y0001072432D02*
X0003181299Y0001073861D01*
X0003179870Y0001076718D01*
X0003179870Y0001083861D01*
X0003181299Y0001086718D01*
X0003182727Y0001088146D01*
X0003185584Y0001089575D01*
X0003188442Y0001089575D01*
X0003192727Y0001088146D01*
X0003209870Y0001071003D01*
X0003209870Y0001089575D01*
X0003209870Y0001243861D02*
X0003179870Y0001243861D01*
X0003179870Y0001251003D01*
X0003181299Y0001255289D01*
X0003184156Y0001258146D01*
X0003187013Y0001259575D01*
X0003192727Y0001261003D01*
X0003197013Y0001261003D01*
X0003202727Y0001259575D01*
X0003205584Y0001258146D01*
X0003208442Y0001255289D01*
X0003209870Y0001251003D01*
X0003209870Y0001243861D01*
X0003209870Y0001289575D02*
X0003209870Y0001272432D01*
X0003209870Y0001281003D02*
X0003179870Y0001281003D01*
X0003184156Y0001278146D01*
X0003187013Y0001275289D01*
X0003188442Y0001272432D01*
X0003353571Y0000779999D02*
X0003339285Y0000769999D01*
X0003353571Y0000762857D02*
X0003323571Y0000762857D01*
X0003323571Y0000774285D01*
X0003324999Y0000777142D01*
X0003326428Y0000778571D01*
X0003329285Y0000779999D01*
X0003333571Y0000779999D01*
X0003336428Y0000778571D01*
X0003337857Y0000777142D01*
X0003339285Y0000774285D01*
X0003339285Y0000762857D01*
X0003333571Y0000805714D02*
X0003353571Y0000805714D01*
X0003322142Y0000798571D02*
X0003343571Y0000791428D01*
X0003343571Y0000809999D01*
X0003278571Y0000779999D02*
X0003264285Y0000769999D01*
X0003278571Y0000762857D02*
X0003248571Y0000762857D01*
X0003248571Y0000774285D01*
X0003249999Y0000777142D01*
X0003251428Y0000778571D01*
X0003254285Y0000779999D01*
X0003258571Y0000779999D01*
X0003261428Y0000778571D01*
X0003262857Y0000777142D01*
X0003264285Y0000774285D01*
X0003264285Y0000762857D01*
X0003248571Y0000789999D02*
X0003248571Y0000808571D01*
X0003259999Y0000798571D01*
X0003259999Y0000802857D01*
X0003261428Y0000805714D01*
X0003262857Y0000807142D01*
X0003265714Y0000808571D01*
X0003272857Y0000808571D01*
X0003275714Y0000807142D01*
X0003277142Y0000805714D01*
X0003278571Y0000802857D01*
X0003278571Y0000794285D01*
X0003277142Y0000791428D01*
X0003275714Y0000789999D01*
X0003153571Y0000779999D02*
X0003139285Y0000769999D01*
X0003153571Y0000762857D02*
X0003123571Y0000762857D01*
X0003123571Y0000774285D01*
X0003124999Y0000777142D01*
X0003126428Y0000778571D01*
X0003129285Y0000779999D01*
X0003133571Y0000779999D01*
X0003136428Y0000778571D01*
X0003137857Y0000777142D01*
X0003139285Y0000774285D01*
X0003139285Y0000762857D01*
X0003126428Y0000791428D02*
X0003124999Y0000792857D01*
X0003123571Y0000795714D01*
X0003123571Y0000802857D01*
X0003124999Y0000805714D01*
X0003126428Y0000807142D01*
X0003129285Y0000808571D01*
X0003132142Y0000808571D01*
X0003136428Y0000807142D01*
X0003153571Y0000789999D01*
X0003153571Y0000808571D01*
X0003078571Y0000779999D02*
X0003064285Y0000769999D01*
X0003078571Y0000762857D02*
X0003048571Y0000762857D01*
X0003048571Y0000774285D01*
X0003049999Y0000777142D01*
X0003051428Y0000778571D01*
X0003054285Y0000779999D01*
X0003058571Y0000779999D01*
X0003061428Y0000778571D01*
X0003062857Y0000777142D01*
X0003064285Y0000774285D01*
X0003064285Y0000762857D01*
X0003078571Y0000808571D02*
X0003078571Y0000791428D01*
X0003078571Y0000799999D02*
X0003048571Y0000799999D01*
X0003052857Y0000797142D01*
X0003055714Y0000794285D01*
X0003057142Y0000791428D01*
G04 next file*
G04 next file*
G04 #@! TF.GenerationSoftware,KiCad,Pcbnew,(5.1.4)-1*
G04 #@! TF.CreationDate,2019-12-18T21:33:11+01:00*
G04 #@! TF.ProjectId,ser,7365722e-6b69-4636-9164-5f7063625858,rev?*
G04 #@! TF.SameCoordinates,Original*
G04 #@! TF.FileFunction,Legend,Top*
G04 #@! TF.FilePolarity,Positive*
G04 Gerber Fmt 4.6, Leading zero omitted, Abs format (unit mm)*
G04 Created by KiCad (PCBNEW (5.1.4)-1) date 2019-12-18 21:33:11*
G04 APERTURE LIST*
G04 APERTURE END LIST*
D22*
X0000929999Y0002505000D02*
X0000904999Y0002505000D01*
X0000904999Y0002530000D02*
X0000904999Y0002505000D01*
X0000879999Y0002505000D02*
X0000904999Y0002505000D01*
G36*
X0000929999Y0002480000D02*
G01*
X0000879999Y0002480000D01*
X0000904999Y0002505000D01*
X0000929999Y0002480000D01*
G37*
X0000929999Y0002480000D02*
X0000879999Y0002480000D01*
X0000904999Y0002505000D01*
X0000929999Y0002480000D01*
X0000904999Y0002505000D02*
X0000879999Y0002505000D01*
X0000904999Y0002455000D02*
X0000904999Y0002480000D01*
X0001129999Y0002505000D02*
X0001104999Y0002505000D01*
X0001104999Y0002530000D02*
X0001104999Y0002505000D01*
X0001079999Y0002505000D02*
X0001104999Y0002505000D01*
G36*
X0001129999Y0002480000D02*
G01*
X0001079999Y0002480000D01*
X0001104999Y0002505000D01*
X0001129999Y0002480000D01*
G37*
X0001129999Y0002480000D02*
X0001079999Y0002480000D01*
X0001104999Y0002505000D01*
X0001129999Y0002480000D01*
X0001104999Y0002505000D02*
X0001079999Y0002505000D01*
X0001104999Y0002455000D02*
X0001104999Y0002480000D01*
X0001129999Y0002705000D02*
X0001104999Y0002705000D01*
X0001104999Y0002730000D02*
X0001104999Y0002705000D01*
X0001079999Y0002705000D02*
X0001104999Y0002705000D01*
G36*
X0001129999Y0002680000D02*
G01*
X0001079999Y0002680000D01*
X0001104999Y0002705000D01*
X0001129999Y0002680000D01*
G37*
X0001129999Y0002680000D02*
X0001079999Y0002680000D01*
X0001104999Y0002705000D01*
X0001129999Y0002680000D01*
X0001104999Y0002705000D02*
X0001079999Y0002705000D01*
X0001104999Y0002655000D02*
X0001104999Y0002680000D01*
G36*
X0000929999Y0002680000D02*
G01*
X0000879999Y0002680000D01*
X0000904999Y0002705000D01*
X0000929999Y0002680000D01*
G37*
X0000929999Y0002680000D02*
X0000879999Y0002680000D01*
X0000904999Y0002705000D01*
X0000929999Y0002680000D01*
X0000929999Y0002705000D02*
X0000904999Y0002705000D01*
X0000904999Y0002730000D02*
X0000904999Y0002705000D01*
X0000879999Y0002705000D02*
X0000904999Y0002705000D01*
X0000904999Y0002705000D02*
X0000879999Y0002705000D01*
X0000904999Y0002655000D02*
X0000904999Y0002680000D01*
D23*
X0001309999Y0002058571D02*
X0001309999Y0002072857D01*
X0001318571Y0002055714D02*
X0001288571Y0002065714D01*
X0001318571Y0002075714D01*
X0001288571Y0002091428D02*
X0001288571Y0002094285D01*
X0001289999Y0002097142D01*
X0001291428Y0002098571D01*
X0001294285Y0002100000D01*
X0001299999Y0002101428D01*
X0001307142Y0002101428D01*
X0001312857Y0002100000D01*
X0001315714Y0002098571D01*
X0001317142Y0002097142D01*
X0001318571Y0002094285D01*
X0001318571Y0002091428D01*
X0001317142Y0002088571D01*
X0001315714Y0002087142D01*
X0001312857Y0002085714D01*
X0001307142Y0002084285D01*
X0001299999Y0002084285D01*
X0001294285Y0002085714D01*
X0001291428Y0002087142D01*
X0001289999Y0002088571D01*
X0001288571Y0002091428D01*
X0001318571Y0002563571D02*
X0001304285Y0002553571D01*
X0001318571Y0002546428D02*
X0001288571Y0002546428D01*
X0001288571Y0002557857D01*
X0001289999Y0002560714D01*
X0001291428Y0002562142D01*
X0001294285Y0002563571D01*
X0001298571Y0002563571D01*
X0001301428Y0002562142D01*
X0001302857Y0002560714D01*
X0001304285Y0002557857D01*
X0001304285Y0002546428D01*
X0001317142Y0002575000D02*
X0001318571Y0002579285D01*
X0001318571Y0002586428D01*
X0001317142Y0002589285D01*
X0001315714Y0002590714D01*
X0001312857Y0002592142D01*
X0001309999Y0002592142D01*
X0001307142Y0002590714D01*
X0001305714Y0002589285D01*
X0001304285Y0002586428D01*
X0001302857Y0002580714D01*
X0001301428Y0002577857D01*
X0001299999Y0002576428D01*
X0001297142Y0002575000D01*
X0001294285Y0002575000D01*
X0001291428Y0002576428D01*
X0001289999Y0002577857D01*
X0001288571Y0002580714D01*
X0001288571Y0002587857D01*
X0001289999Y0002592142D01*
X0001288571Y0002600714D02*
X0001288571Y0002617857D01*
X0001318571Y0002609285D02*
X0001288571Y0002609285D01*
X0000868571Y0002659999D02*
X0000854285Y0002650000D01*
X0000868571Y0002642857D02*
X0000838571Y0002642857D01*
X0000838571Y0002654285D01*
X0000839999Y0002657142D01*
X0000841428Y0002658571D01*
X0000844285Y0002659999D01*
X0000848571Y0002659999D01*
X0000851428Y0002658571D01*
X0000852857Y0002657142D01*
X0000854285Y0002654285D01*
X0000854285Y0002642857D01*
X0000838571Y0002670000D02*
X0000868571Y0002690000D01*
X0000838571Y0002690000D02*
X0000868571Y0002670000D01*
X0000868571Y0002701428D02*
X0000838571Y0002701428D01*
X0000838571Y0002708571D01*
X0000839999Y0002712857D01*
X0000842857Y0002715714D01*
X0000845714Y0002717142D01*
X0000851428Y0002718571D01*
X0000855714Y0002718571D01*
X0000861428Y0002717142D01*
X0000864285Y0002715714D01*
X0000867142Y0002712857D01*
X0000868571Y0002708571D01*
X0000868571Y0002701428D01*
X0000838571Y0002742142D02*
X0000838571Y0002759285D01*
X0000868571Y0002750714D02*
X0000838571Y0002750714D01*
X0000838571Y0002766428D02*
X0000868571Y0002786428D01*
X0000838571Y0002786428D02*
X0000868571Y0002766428D01*
X0000868571Y0002797857D02*
X0000838571Y0002797857D01*
X0000838571Y0002805000D01*
X0000839999Y0002809285D01*
X0000842857Y0002812142D01*
X0000845714Y0002813571D01*
X0000851428Y0002815000D01*
X0000855714Y0002815000D01*
X0000861428Y0002813571D01*
X0000864285Y0002812142D01*
X0000867142Y0002809285D01*
X0000868571Y0002805000D01*
X0000868571Y0002797857D01*
X0000863571Y0001574285D02*
X0000863571Y0001560000D01*
X0000877857Y0001558571D01*
X0000876428Y0001560000D01*
X0000874999Y0001562857D01*
X0000874999Y0001570000D01*
X0000876428Y0001572857D01*
X0000877857Y0001574285D01*
X0000880714Y0001575714D01*
X0000887857Y0001575714D01*
X0000890714Y0001574285D01*
X0000892142Y0001572857D01*
X0000893571Y0001570000D01*
X0000893571Y0001562857D01*
X0000892142Y0001560000D01*
X0000890714Y0001558571D01*
X0000863571Y0001584285D02*
X0000893571Y0001594285D01*
X0000863571Y0001604285D01*
X0000963571Y0001540000D02*
X0000993571Y0001550000D01*
X0000963571Y0001560000D01*
X0000993571Y0001570000D02*
X0000963571Y0001570000D01*
X0000963571Y0001577142D01*
X0000964999Y0001581428D01*
X0000967857Y0001584285D01*
X0000970714Y0001585714D01*
X0000976428Y0001587142D01*
X0000980714Y0001587142D01*
X0000986428Y0001585714D01*
X0000989285Y0001584285D01*
X0000992142Y0001581428D01*
X0000993571Y0001577142D01*
X0000993571Y0001570000D01*
X0000993571Y0001600000D02*
X0000963571Y0001600000D01*
X0000963571Y0001607142D01*
X0000964999Y0001611428D01*
X0000967857Y0001614285D01*
X0000970714Y0001615714D01*
X0000976428Y0001617142D01*
X0000980714Y0001617142D01*
X0000986428Y0001615714D01*
X0000989285Y0001614285D01*
X0000992142Y0001611428D01*
X0000993571Y0001607142D01*
X0000993571Y0001600000D01*
X0001063571Y0001542857D02*
X0001063571Y0001561428D01*
X0001074999Y0001551428D01*
X0001074999Y0001555714D01*
X0001076428Y0001558571D01*
X0001077857Y0001560000D01*
X0001080714Y0001561428D01*
X0001087857Y0001561428D01*
X0001090714Y0001560000D01*
X0001092142Y0001558571D01*
X0001093571Y0001555714D01*
X0001093571Y0001547142D01*
X0001092142Y0001544285D01*
X0001090714Y0001542857D01*
X0001063571Y0001570000D02*
X0001093571Y0001580000D01*
X0001063571Y0001590000D01*
X0001063571Y0001597142D02*
X0001063571Y0001615714D01*
X0001074999Y0001605714D01*
X0001074999Y0001610000D01*
X0001076428Y0001612857D01*
X0001077857Y0001614285D01*
X0001080714Y0001615714D01*
X0001087857Y0001615714D01*
X0001090714Y0001614285D01*
X0001092142Y0001612857D01*
X0001093571Y0001610000D01*
X0001093571Y0001601428D01*
X0001092142Y0001598571D01*
X0001090714Y0001597142D01*
X0001163571Y0001542142D02*
X0001163571Y0001559285D01*
X0001193571Y0001550714D02*
X0001163571Y0001550714D01*
X0001163571Y0001566428D02*
X0001193571Y0001586428D01*
X0001163571Y0001586428D02*
X0001193571Y0001566428D01*
X0001193571Y0001597857D02*
X0001163571Y0001597857D01*
X0001163571Y0001605000D01*
X0001164999Y0001609285D01*
X0001167857Y0001612142D01*
X0001170714Y0001613571D01*
X0001176428Y0001615000D01*
X0001180714Y0001615000D01*
X0001186428Y0001613571D01*
X0001189285Y0001612142D01*
X0001192142Y0001609285D01*
X0001193571Y0001605000D01*
X0001193571Y0001597857D01*
X0001293571Y0001560000D02*
X0001279285Y0001550000D01*
X0001293571Y0001542857D02*
X0001263571Y0001542857D01*
X0001263571Y0001554285D01*
X0001264999Y0001557142D01*
X0001266428Y0001558571D01*
X0001269285Y0001560000D01*
X0001273571Y0001560000D01*
X0001276428Y0001558571D01*
X0001277857Y0001557142D01*
X0001279285Y0001554285D01*
X0001279285Y0001542857D01*
X0001263571Y0001570000D02*
X0001293571Y0001590000D01*
X0001263571Y0001590000D02*
X0001293571Y0001570000D01*
X0001293571Y0001601428D02*
X0001263571Y0001601428D01*
X0001263571Y0001608571D01*
X0001264999Y0001612857D01*
X0001267857Y0001615714D01*
X0001270714Y0001617142D01*
X0001276428Y0001618571D01*
X0001280714Y0001618571D01*
X0001286428Y0001617142D01*
X0001289285Y0001615714D01*
X0001292142Y0001612857D01*
X0001293571Y0001608571D01*
X0001293571Y0001601428D01*
X0001364999Y0001557142D02*
X0001363571Y0001554285D01*
X0001363571Y0001550000D01*
X0001364999Y0001545714D01*
X0001367857Y0001542857D01*
X0001370714Y0001541428D01*
X0001376428Y0001540000D01*
X0001380714Y0001540000D01*
X0001386428Y0001541428D01*
X0001389285Y0001542857D01*
X0001392142Y0001545714D01*
X0001393571Y0001550000D01*
X0001393571Y0001552857D01*
X0001392142Y0001557142D01*
X0001390714Y0001558571D01*
X0001380714Y0001558571D01*
X0001380714Y0001552857D01*
X0001393571Y0001571428D02*
X0001363571Y0001571428D01*
X0001393571Y0001588571D01*
X0001363571Y0001588571D01*
X0001393571Y0001602857D02*
X0001363571Y0001602857D01*
X0001363571Y0001610000D01*
X0001364999Y0001614285D01*
X0001367857Y0001617142D01*
X0001370714Y0001618571D01*
X0001376428Y0001620000D01*
X0001380714Y0001620000D01*
X0001386428Y0001618571D01*
X0001389285Y0001617142D01*
X0001392142Y0001614285D01*
X0001393571Y0001610000D01*
X0001393571Y0001602857D01*
D22*
X0000729999Y0002830000D02*
X0001429999Y0002830000D01*
X0001429999Y0002830000D02*
X0001429999Y0001630000D01*
X0001429999Y0001630000D02*
X0000729999Y0001630000D01*
X0000729999Y0001630000D02*
X0000729999Y0002830000D01*
X0001024881Y0001815629D02*
X0001024881Y0001894370D01*
X0001135117Y0001815629D02*
X0001024881Y0001815629D01*
X0001135117Y0001894370D02*
X0001135117Y0001815629D01*
X0001024881Y0001894370D02*
X0001135117Y0001894370D01*
X0000827637Y0001532362D02*
X0000827637Y0001427637D01*
X0001329999Y0001532362D02*
X0000827637Y0001532362D01*
X0001329999Y0001427637D02*
X0000827637Y0001427637D01*
X0001329999Y0001532362D02*
X0001329999Y0001427637D01*
X0001379999Y0001532362D02*
X0001432362Y0001532362D01*
X0001432362Y0001532362D02*
X0001432362Y0001480000D01*
X0001151062Y0002551358D02*
X0001151062Y0002454507D01*
X0001208936Y0002551358D02*
X0001151062Y0002551358D01*
X0001208936Y0002454507D02*
X0001208936Y0002551358D01*
X0001208936Y0002654507D02*
X0001208936Y0002751358D01*
X0001208936Y0002751358D02*
X0001151062Y0002751358D01*
X0001151062Y0002751358D02*
X0001151062Y0002654507D01*
X0000951062Y0002551358D02*
X0000951062Y0002454507D01*
X0001008936Y0002551358D02*
X0000951062Y0002551358D01*
X0001008936Y0002454507D02*
X0001008936Y0002551358D01*
X0001008936Y0002654507D02*
X0001008936Y0002751358D01*
X0001008936Y0002751358D02*
X0000951062Y0002751358D01*
X0000951062Y0002751358D02*
X0000951062Y0002654507D01*
X0001200078Y0002307706D02*
X0001200078Y0002321191D01*
X0001159921Y0002307706D02*
X0001159921Y0002321191D01*
X0001084921Y0002307706D02*
X0001084921Y0002321191D01*
X0001125078Y0002307706D02*
X0001125078Y0002321191D01*
X0001000078Y0002307706D02*
X0001000078Y0002321191D01*
X0000959921Y0002307706D02*
X0000959921Y0002321191D01*
X0000884921Y0002307706D02*
X0000884921Y0002321191D01*
X0000925078Y0002307706D02*
X0000925078Y0002321191D01*
D23*
X0001063571Y0001730000D02*
X0001084999Y0001730000D01*
X0001089285Y0001728571D01*
X0001092142Y0001725714D01*
X0001093571Y0001721428D01*
X0001093571Y0001718571D01*
X0001093571Y0001744285D02*
X0001063571Y0001744285D01*
X0001063571Y0001755714D01*
X0001064999Y0001758571D01*
X0001066428Y0001760000D01*
X0001069285Y0001761428D01*
X0001073571Y0001761428D01*
X0001076428Y0001760000D01*
X0001077857Y0001758571D01*
X0001079285Y0001755714D01*
X0001079285Y0001744285D01*
X0001093571Y0001790000D02*
X0001093571Y0001772857D01*
X0001093571Y0001781428D02*
X0001063571Y0001781428D01*
X0001067857Y0001778571D01*
X0001070714Y0001775714D01*
X0001072142Y0001772857D01*
X0001249870Y0002463861D02*
X0001219870Y0002463861D01*
X0001219870Y0002471003D01*
X0001221299Y0002475289D01*
X0001224156Y0002478146D01*
X0001227013Y0002479575D01*
X0001232727Y0002481003D01*
X0001237013Y0002481003D01*
X0001242727Y0002479575D01*
X0001245584Y0002478146D01*
X0001248441Y0002475289D01*
X0001249870Y0002471003D01*
X0001249870Y0002463861D01*
X0001229870Y0002506718D02*
X0001249870Y0002506718D01*
X0001218441Y0002499575D02*
X0001239870Y0002492432D01*
X0001239870Y0002511003D01*
X0001249870Y0002663861D02*
X0001219870Y0002663861D01*
X0001219870Y0002671003D01*
X0001221299Y0002675289D01*
X0001224156Y0002678146D01*
X0001227013Y0002679575D01*
X0001232727Y0002681003D01*
X0001237013Y0002681003D01*
X0001242727Y0002679575D01*
X0001245584Y0002678146D01*
X0001248441Y0002675289D01*
X0001249870Y0002671003D01*
X0001249870Y0002663861D01*
X0001219870Y0002691003D02*
X0001219870Y0002709575D01*
X0001231299Y0002699575D01*
X0001231299Y0002703861D01*
X0001232727Y0002706718D01*
X0001234156Y0002708146D01*
X0001237013Y0002709575D01*
X0001244156Y0002709575D01*
X0001247013Y0002708146D01*
X0001248441Y0002706718D01*
X0001249870Y0002703861D01*
X0001249870Y0002695289D01*
X0001248441Y0002692432D01*
X0001247013Y0002691003D01*
X0001049870Y0002463861D02*
X0001019870Y0002463861D01*
X0001019870Y0002471003D01*
X0001021299Y0002475289D01*
X0001024156Y0002478146D01*
X0001027013Y0002479575D01*
X0001032727Y0002481003D01*
X0001037013Y0002481003D01*
X0001042727Y0002479575D01*
X0001045584Y0002478146D01*
X0001048441Y0002475289D01*
X0001049870Y0002471003D01*
X0001049870Y0002463861D01*
X0001022727Y0002492432D02*
X0001021299Y0002493861D01*
X0001019870Y0002496718D01*
X0001019870Y0002503861D01*
X0001021299Y0002506718D01*
X0001022727Y0002508146D01*
X0001025584Y0002509575D01*
X0001028441Y0002509575D01*
X0001032727Y0002508146D01*
X0001049870Y0002491003D01*
X0001049870Y0002509575D01*
X0001049870Y0002663861D02*
X0001019870Y0002663861D01*
X0001019870Y0002671003D01*
X0001021299Y0002675289D01*
X0001024156Y0002678146D01*
X0001027013Y0002679575D01*
X0001032727Y0002681003D01*
X0001037013Y0002681003D01*
X0001042727Y0002679575D01*
X0001045584Y0002678146D01*
X0001048441Y0002675289D01*
X0001049870Y0002671003D01*
X0001049870Y0002663861D01*
X0001049870Y0002709575D02*
X0001049870Y0002692432D01*
X0001049870Y0002701003D02*
X0001019870Y0002701003D01*
X0001024156Y0002698146D01*
X0001027013Y0002695289D01*
X0001028441Y0002692432D01*
X0001193571Y0002200000D02*
X0001179285Y0002190000D01*
X0001193571Y0002182857D02*
X0001163571Y0002182857D01*
X0001163571Y0002194285D01*
X0001164999Y0002197142D01*
X0001166428Y0002198571D01*
X0001169285Y0002200000D01*
X0001173571Y0002200000D01*
X0001176428Y0002198571D01*
X0001177857Y0002197142D01*
X0001179285Y0002194285D01*
X0001179285Y0002182857D01*
X0001173571Y0002225714D02*
X0001193571Y0002225714D01*
X0001162142Y0002218571D02*
X0001183571Y0002211428D01*
X0001183571Y0002230000D01*
X0001118571Y0002200000D02*
X0001104285Y0002190000D01*
X0001118571Y0002182857D02*
X0001088571Y0002182857D01*
X0001088571Y0002194285D01*
X0001089999Y0002197142D01*
X0001091428Y0002198571D01*
X0001094285Y0002200000D01*
X0001098571Y0002200000D01*
X0001101428Y0002198571D01*
X0001102857Y0002197142D01*
X0001104285Y0002194285D01*
X0001104285Y0002182857D01*
X0001088571Y0002210000D02*
X0001088571Y0002228571D01*
X0001099999Y0002218571D01*
X0001099999Y0002222857D01*
X0001101428Y0002225714D01*
X0001102857Y0002227142D01*
X0001105714Y0002228571D01*
X0001112857Y0002228571D01*
X0001115714Y0002227142D01*
X0001117142Y0002225714D01*
X0001118571Y0002222857D01*
X0001118571Y0002214285D01*
X0001117142Y0002211428D01*
X0001115714Y0002210000D01*
X0000993571Y0002200000D02*
X0000979285Y0002190000D01*
X0000993571Y0002182857D02*
X0000963571Y0002182857D01*
X0000963571Y0002194285D01*
X0000964999Y0002197142D01*
X0000966428Y0002198571D01*
X0000969285Y0002200000D01*
X0000973571Y0002200000D01*
X0000976428Y0002198571D01*
X0000977857Y0002197142D01*
X0000979285Y0002194285D01*
X0000979285Y0002182857D01*
X0000966428Y0002211428D02*
X0000964999Y0002212857D01*
X0000963571Y0002215714D01*
X0000963571Y0002222857D01*
X0000964999Y0002225714D01*
X0000966428Y0002227142D01*
X0000969285Y0002228571D01*
X0000972142Y0002228571D01*
X0000976428Y0002227142D01*
X0000993571Y0002210000D01*
X0000993571Y0002228571D01*
X0000918571Y0002200000D02*
X0000904285Y0002190000D01*
X0000918571Y0002182857D02*
X0000888571Y0002182857D01*
X0000888571Y0002194285D01*
X0000889999Y0002197142D01*
X0000891428Y0002198571D01*
X0000894285Y0002200000D01*
X0000898571Y0002200000D01*
X0000901428Y0002198571D01*
X0000902857Y0002197142D01*
X0000904285Y0002194285D01*
X0000904285Y0002182857D01*
X0000918571Y0002228571D02*
X0000918571Y0002211428D01*
X0000918571Y0002220000D02*
X0000888571Y0002220000D01*
X0000892857Y0002217142D01*
X0000895714Y0002214285D01*
X0000897142Y0002211428D01*
G04 next file*
G04 next file*
G04 #@! TF.GenerationSoftware,KiCad,Pcbnew,(5.1.4)-1*
G04 #@! TF.CreationDate,2019-12-18T21:33:11+01:00*
G04 #@! TF.ProjectId,ser,7365722e-6b69-4636-9164-5f7063625858,rev?*
G04 #@! TF.SameCoordinates,Original*
G04 #@! TF.FileFunction,Legend,Top*
G04 #@! TF.FilePolarity,Positive*
G04 Gerber Fmt 4.6, Leading zero omitted, Abs format (unit mm)*
G04 Created by KiCad (PCBNEW (5.1.4)-1) date 2019-12-18 21:33:11*
G04 APERTURE LIST*
G04 APERTURE END LIST*
D24*
X0001649999Y0002505000D02*
X0001624999Y0002505000D01*
X0001624999Y0002530000D02*
X0001624999Y0002505000D01*
X0001599999Y0002505000D02*
X0001624999Y0002505000D01*
G36*
X0001649999Y0002480000D02*
G01*
X0001599999Y0002480000D01*
X0001624999Y0002505000D01*
X0001649999Y0002480000D01*
G37*
X0001649999Y0002480000D02*
X0001599999Y0002480000D01*
X0001624999Y0002505000D01*
X0001649999Y0002480000D01*
X0001624999Y0002505000D02*
X0001599999Y0002505000D01*
X0001624999Y0002455000D02*
X0001624999Y0002480000D01*
X0001849999Y0002505000D02*
X0001824999Y0002505000D01*
X0001824999Y0002530000D02*
X0001824999Y0002505000D01*
X0001799999Y0002505000D02*
X0001824999Y0002505000D01*
G36*
X0001849999Y0002480000D02*
G01*
X0001799999Y0002480000D01*
X0001824999Y0002505000D01*
X0001849999Y0002480000D01*
G37*
X0001849999Y0002480000D02*
X0001799999Y0002480000D01*
X0001824999Y0002505000D01*
X0001849999Y0002480000D01*
X0001824999Y0002505000D02*
X0001799999Y0002505000D01*
X0001824999Y0002455000D02*
X0001824999Y0002480000D01*
X0001849999Y0002705000D02*
X0001824999Y0002705000D01*
X0001824999Y0002730000D02*
X0001824999Y0002705000D01*
X0001799999Y0002705000D02*
X0001824999Y0002705000D01*
G36*
X0001849999Y0002680000D02*
G01*
X0001799999Y0002680000D01*
X0001824999Y0002705000D01*
X0001849999Y0002680000D01*
G37*
X0001849999Y0002680000D02*
X0001799999Y0002680000D01*
X0001824999Y0002705000D01*
X0001849999Y0002680000D01*
X0001824999Y0002705000D02*
X0001799999Y0002705000D01*
X0001824999Y0002655000D02*
X0001824999Y0002680000D01*
G36*
X0001649999Y0002680000D02*
G01*
X0001599999Y0002680000D01*
X0001624999Y0002705000D01*
X0001649999Y0002680000D01*
G37*
X0001649999Y0002680000D02*
X0001599999Y0002680000D01*
X0001624999Y0002705000D01*
X0001649999Y0002680000D01*
X0001649999Y0002705000D02*
X0001624999Y0002705000D01*
X0001624999Y0002730000D02*
X0001624999Y0002705000D01*
X0001599999Y0002705000D02*
X0001624999Y0002705000D01*
X0001624999Y0002705000D02*
X0001599999Y0002705000D01*
X0001624999Y0002655000D02*
X0001624999Y0002680000D01*
D25*
X0002029999Y0002058571D02*
X0002029999Y0002072857D01*
X0002038571Y0002055714D02*
X0002008571Y0002065714D01*
X0002038571Y0002075714D01*
X0002008571Y0002091428D02*
X0002008571Y0002094285D01*
X0002009999Y0002097142D01*
X0002011428Y0002098571D01*
X0002014285Y0002100000D01*
X0002019999Y0002101428D01*
X0002027142Y0002101428D01*
X0002032857Y0002100000D01*
X0002035714Y0002098571D01*
X0002037142Y0002097142D01*
X0002038571Y0002094285D01*
X0002038571Y0002091428D01*
X0002037142Y0002088571D01*
X0002035714Y0002087142D01*
X0002032857Y0002085714D01*
X0002027142Y0002084285D01*
X0002019999Y0002084285D01*
X0002014285Y0002085714D01*
X0002011428Y0002087142D01*
X0002009999Y0002088571D01*
X0002008571Y0002091428D01*
X0002038571Y0002563571D02*
X0002024285Y0002553571D01*
X0002038571Y0002546428D02*
X0002008571Y0002546428D01*
X0002008571Y0002557857D01*
X0002009999Y0002560714D01*
X0002011428Y0002562142D01*
X0002014285Y0002563571D01*
X0002018571Y0002563571D01*
X0002021428Y0002562142D01*
X0002022857Y0002560714D01*
X0002024285Y0002557857D01*
X0002024285Y0002546428D01*
X0002037142Y0002575000D02*
X0002038571Y0002579285D01*
X0002038571Y0002586428D01*
X0002037142Y0002589285D01*
X0002035714Y0002590714D01*
X0002032857Y0002592142D01*
X0002029999Y0002592142D01*
X0002027142Y0002590714D01*
X0002025714Y0002589285D01*
X0002024285Y0002586428D01*
X0002022857Y0002580714D01*
X0002021428Y0002577857D01*
X0002019999Y0002576428D01*
X0002017142Y0002575000D01*
X0002014285Y0002575000D01*
X0002011428Y0002576428D01*
X0002009999Y0002577857D01*
X0002008571Y0002580714D01*
X0002008571Y0002587857D01*
X0002009999Y0002592142D01*
X0002008571Y0002600714D02*
X0002008571Y0002617857D01*
X0002038571Y0002609285D02*
X0002008571Y0002609285D01*
X0001588571Y0002659999D02*
X0001574285Y0002650000D01*
X0001588571Y0002642857D02*
X0001558571Y0002642857D01*
X0001558571Y0002654285D01*
X0001559999Y0002657142D01*
X0001561428Y0002658571D01*
X0001564285Y0002659999D01*
X0001568571Y0002659999D01*
X0001571428Y0002658571D01*
X0001572857Y0002657142D01*
X0001574285Y0002654285D01*
X0001574285Y0002642857D01*
X0001558571Y0002670000D02*
X0001588571Y0002690000D01*
X0001558571Y0002690000D02*
X0001588571Y0002670000D01*
X0001588571Y0002701428D02*
X0001558571Y0002701428D01*
X0001558571Y0002708571D01*
X0001559999Y0002712857D01*
X0001562857Y0002715714D01*
X0001565714Y0002717142D01*
X0001571428Y0002718571D01*
X0001575714Y0002718571D01*
X0001581428Y0002717142D01*
X0001584285Y0002715714D01*
X0001587142Y0002712857D01*
X0001588571Y0002708571D01*
X0001588571Y0002701428D01*
X0001558571Y0002742142D02*
X0001558571Y0002759285D01*
X0001588571Y0002750714D02*
X0001558571Y0002750714D01*
X0001558571Y0002766428D02*
X0001588571Y0002786428D01*
X0001558571Y0002786428D02*
X0001588571Y0002766428D01*
X0001588571Y0002797857D02*
X0001558571Y0002797857D01*
X0001558571Y0002805000D01*
X0001559999Y0002809285D01*
X0001562857Y0002812142D01*
X0001565714Y0002813571D01*
X0001571428Y0002815000D01*
X0001575714Y0002815000D01*
X0001581428Y0002813571D01*
X0001584285Y0002812142D01*
X0001587142Y0002809285D01*
X0001588571Y0002805000D01*
X0001588571Y0002797857D01*
X0001583571Y0001574285D02*
X0001583571Y0001560000D01*
X0001597857Y0001558571D01*
X0001596428Y0001560000D01*
X0001594999Y0001562857D01*
X0001594999Y0001570000D01*
X0001596428Y0001572857D01*
X0001597857Y0001574285D01*
X0001600714Y0001575714D01*
X0001607857Y0001575714D01*
X0001610714Y0001574285D01*
X0001612142Y0001572857D01*
X0001613571Y0001570000D01*
X0001613571Y0001562857D01*
X0001612142Y0001560000D01*
X0001610714Y0001558571D01*
X0001583571Y0001584285D02*
X0001613571Y0001594285D01*
X0001583571Y0001604285D01*
X0001683571Y0001540000D02*
X0001713571Y0001550000D01*
X0001683571Y0001560000D01*
X0001713571Y0001570000D02*
X0001683571Y0001570000D01*
X0001683571Y0001577142D01*
X0001684999Y0001581428D01*
X0001687857Y0001584285D01*
X0001690714Y0001585714D01*
X0001696428Y0001587142D01*
X0001700714Y0001587142D01*
X0001706428Y0001585714D01*
X0001709285Y0001584285D01*
X0001712142Y0001581428D01*
X0001713571Y0001577142D01*
X0001713571Y0001570000D01*
X0001713571Y0001600000D02*
X0001683571Y0001600000D01*
X0001683571Y0001607142D01*
X0001684999Y0001611428D01*
X0001687857Y0001614285D01*
X0001690714Y0001615714D01*
X0001696428Y0001617142D01*
X0001700714Y0001617142D01*
X0001706428Y0001615714D01*
X0001709285Y0001614285D01*
X0001712142Y0001611428D01*
X0001713571Y0001607142D01*
X0001713571Y0001600000D01*
X0001783571Y0001542857D02*
X0001783571Y0001561428D01*
X0001794999Y0001551428D01*
X0001794999Y0001555714D01*
X0001796428Y0001558571D01*
X0001797857Y0001560000D01*
X0001800714Y0001561428D01*
X0001807857Y0001561428D01*
X0001810714Y0001560000D01*
X0001812142Y0001558571D01*
X0001813571Y0001555714D01*
X0001813571Y0001547142D01*
X0001812142Y0001544285D01*
X0001810714Y0001542857D01*
X0001783571Y0001570000D02*
X0001813571Y0001580000D01*
X0001783571Y0001590000D01*
X0001783571Y0001597142D02*
X0001783571Y0001615714D01*
X0001794999Y0001605714D01*
X0001794999Y0001610000D01*
X0001796428Y0001612857D01*
X0001797857Y0001614285D01*
X0001800714Y0001615714D01*
X0001807857Y0001615714D01*
X0001810714Y0001614285D01*
X0001812142Y0001612857D01*
X0001813571Y0001610000D01*
X0001813571Y0001601428D01*
X0001812142Y0001598571D01*
X0001810714Y0001597142D01*
X0001883571Y0001542142D02*
X0001883571Y0001559285D01*
X0001913571Y0001550714D02*
X0001883571Y0001550714D01*
X0001883571Y0001566428D02*
X0001913571Y0001586428D01*
X0001883571Y0001586428D02*
X0001913571Y0001566428D01*
X0001913571Y0001597857D02*
X0001883571Y0001597857D01*
X0001883571Y0001605000D01*
X0001884999Y0001609285D01*
X0001887857Y0001612142D01*
X0001890714Y0001613571D01*
X0001896428Y0001615000D01*
X0001900714Y0001615000D01*
X0001906428Y0001613571D01*
X0001909285Y0001612142D01*
X0001912142Y0001609285D01*
X0001913571Y0001605000D01*
X0001913571Y0001597857D01*
X0002013571Y0001560000D02*
X0001999285Y0001550000D01*
X0002013571Y0001542857D02*
X0001983571Y0001542857D01*
X0001983571Y0001554285D01*
X0001984999Y0001557142D01*
X0001986428Y0001558571D01*
X0001989285Y0001560000D01*
X0001993571Y0001560000D01*
X0001996428Y0001558571D01*
X0001997857Y0001557142D01*
X0001999285Y0001554285D01*
X0001999285Y0001542857D01*
X0001983571Y0001570000D02*
X0002013571Y0001590000D01*
X0001983571Y0001590000D02*
X0002013571Y0001570000D01*
X0002013571Y0001601428D02*
X0001983571Y0001601428D01*
X0001983571Y0001608571D01*
X0001984999Y0001612857D01*
X0001987857Y0001615714D01*
X0001990714Y0001617142D01*
X0001996428Y0001618571D01*
X0002000714Y0001618571D01*
X0002006428Y0001617142D01*
X0002009285Y0001615714D01*
X0002012142Y0001612857D01*
X0002013571Y0001608571D01*
X0002013571Y0001601428D01*
X0002084999Y0001557142D02*
X0002083571Y0001554285D01*
X0002083571Y0001550000D01*
X0002084999Y0001545714D01*
X0002087857Y0001542857D01*
X0002090714Y0001541428D01*
X0002096428Y0001540000D01*
X0002100714Y0001540000D01*
X0002106428Y0001541428D01*
X0002109285Y0001542857D01*
X0002112142Y0001545714D01*
X0002113571Y0001550000D01*
X0002113571Y0001552857D01*
X0002112142Y0001557142D01*
X0002110714Y0001558571D01*
X0002100714Y0001558571D01*
X0002100714Y0001552857D01*
X0002113571Y0001571428D02*
X0002083571Y0001571428D01*
X0002113571Y0001588571D01*
X0002083571Y0001588571D01*
X0002113571Y0001602857D02*
X0002083571Y0001602857D01*
X0002083571Y0001610000D01*
X0002084999Y0001614285D01*
X0002087857Y0001617142D01*
X0002090714Y0001618571D01*
X0002096428Y0001620000D01*
X0002100714Y0001620000D01*
X0002106428Y0001618571D01*
X0002109285Y0001617142D01*
X0002112142Y0001614285D01*
X0002113571Y0001610000D01*
X0002113571Y0001602857D01*
D24*
X0001449999Y0002830000D02*
X0002149999Y0002830000D01*
X0002149999Y0002830000D02*
X0002149999Y0001630000D01*
X0002149999Y0001630000D02*
X0001449999Y0001630000D01*
X0001449999Y0001630000D02*
X0001449999Y0002830000D01*
X0001744881Y0001815629D02*
X0001744881Y0001894370D01*
X0001855118Y0001815629D02*
X0001744881Y0001815629D01*
X0001855118Y0001894370D02*
X0001855118Y0001815629D01*
X0001744881Y0001894370D02*
X0001855118Y0001894370D01*
X0001547637Y0001532362D02*
X0001547637Y0001427637D01*
X0002049999Y0001532362D02*
X0001547637Y0001532362D01*
X0002049999Y0001427637D02*
X0001547637Y0001427637D01*
X0002049999Y0001532362D02*
X0002049999Y0001427637D01*
X0002099999Y0001532362D02*
X0002152362Y0001532362D01*
X0002152362Y0001532362D02*
X0002152362Y0001480000D01*
X0001871062Y0002551358D02*
X0001871062Y0002454507D01*
X0001928936Y0002551358D02*
X0001871062Y0002551358D01*
X0001928936Y0002454507D02*
X0001928936Y0002551358D01*
X0001928936Y0002654507D02*
X0001928936Y0002751358D01*
X0001928936Y0002751358D02*
X0001871062Y0002751358D01*
X0001871062Y0002751358D02*
X0001871062Y0002654507D01*
X0001671062Y0002551358D02*
X0001671062Y0002454507D01*
X0001728936Y0002551358D02*
X0001671062Y0002551358D01*
X0001728936Y0002454507D02*
X0001728936Y0002551358D01*
X0001728936Y0002654507D02*
X0001728936Y0002751358D01*
X0001728936Y0002751358D02*
X0001671062Y0002751358D01*
X0001671062Y0002751358D02*
X0001671062Y0002654507D01*
X0001920078Y0002307706D02*
X0001920078Y0002321191D01*
X0001879921Y0002307706D02*
X0001879921Y0002321191D01*
X0001804921Y0002307706D02*
X0001804921Y0002321191D01*
X0001845078Y0002307706D02*
X0001845078Y0002321191D01*
X0001720078Y0002307706D02*
X0001720078Y0002321191D01*
X0001679921Y0002307706D02*
X0001679921Y0002321191D01*
X0001604921Y0002307706D02*
X0001604921Y0002321191D01*
X0001645078Y0002307706D02*
X0001645078Y0002321191D01*
D25*
X0001783571Y0001730000D02*
X0001804999Y0001730000D01*
X0001809285Y0001728571D01*
X0001812142Y0001725714D01*
X0001813571Y0001721428D01*
X0001813571Y0001718571D01*
X0001813571Y0001744285D02*
X0001783571Y0001744285D01*
X0001783571Y0001755714D01*
X0001784999Y0001758571D01*
X0001786428Y0001760000D01*
X0001789285Y0001761428D01*
X0001793571Y0001761428D01*
X0001796428Y0001760000D01*
X0001797857Y0001758571D01*
X0001799285Y0001755714D01*
X0001799285Y0001744285D01*
X0001813571Y0001790000D02*
X0001813571Y0001772857D01*
X0001813571Y0001781428D02*
X0001783571Y0001781428D01*
X0001787857Y0001778571D01*
X0001790714Y0001775714D01*
X0001792142Y0001772857D01*
X0001969870Y0002463861D02*
X0001939870Y0002463861D01*
X0001939870Y0002471003D01*
X0001941299Y0002475289D01*
X0001944156Y0002478146D01*
X0001947013Y0002479575D01*
X0001952727Y0002481003D01*
X0001957013Y0002481003D01*
X0001962727Y0002479575D01*
X0001965584Y0002478146D01*
X0001968442Y0002475289D01*
X0001969870Y0002471003D01*
X0001969870Y0002463861D01*
X0001949870Y0002506718D02*
X0001969870Y0002506718D01*
X0001938442Y0002499575D02*
X0001959870Y0002492432D01*
X0001959870Y0002511003D01*
X0001969870Y0002663861D02*
X0001939870Y0002663861D01*
X0001939870Y0002671003D01*
X0001941299Y0002675289D01*
X0001944156Y0002678146D01*
X0001947013Y0002679575D01*
X0001952727Y0002681003D01*
X0001957013Y0002681003D01*
X0001962727Y0002679575D01*
X0001965584Y0002678146D01*
X0001968442Y0002675289D01*
X0001969870Y0002671003D01*
X0001969870Y0002663861D01*
X0001939870Y0002691003D02*
X0001939870Y0002709575D01*
X0001951299Y0002699575D01*
X0001951299Y0002703861D01*
X0001952727Y0002706718D01*
X0001954156Y0002708146D01*
X0001957013Y0002709575D01*
X0001964156Y0002709575D01*
X0001967013Y0002708146D01*
X0001968442Y0002706718D01*
X0001969870Y0002703861D01*
X0001969870Y0002695289D01*
X0001968442Y0002692432D01*
X0001967013Y0002691003D01*
X0001769870Y0002463861D02*
X0001739870Y0002463861D01*
X0001739870Y0002471003D01*
X0001741299Y0002475289D01*
X0001744156Y0002478146D01*
X0001747013Y0002479575D01*
X0001752727Y0002481003D01*
X0001757013Y0002481003D01*
X0001762727Y0002479575D01*
X0001765584Y0002478146D01*
X0001768442Y0002475289D01*
X0001769870Y0002471003D01*
X0001769870Y0002463861D01*
X0001742727Y0002492432D02*
X0001741299Y0002493861D01*
X0001739870Y0002496718D01*
X0001739870Y0002503861D01*
X0001741299Y0002506718D01*
X0001742727Y0002508146D01*
X0001745584Y0002509575D01*
X0001748442Y0002509575D01*
X0001752727Y0002508146D01*
X0001769870Y0002491003D01*
X0001769870Y0002509575D01*
X0001769870Y0002663861D02*
X0001739870Y0002663861D01*
X0001739870Y0002671003D01*
X0001741299Y0002675289D01*
X0001744156Y0002678146D01*
X0001747013Y0002679575D01*
X0001752727Y0002681003D01*
X0001757013Y0002681003D01*
X0001762727Y0002679575D01*
X0001765584Y0002678146D01*
X0001768442Y0002675289D01*
X0001769870Y0002671003D01*
X0001769870Y0002663861D01*
X0001769870Y0002709575D02*
X0001769870Y0002692432D01*
X0001769870Y0002701003D02*
X0001739870Y0002701003D01*
X0001744156Y0002698146D01*
X0001747013Y0002695289D01*
X0001748442Y0002692432D01*
X0001913571Y0002200000D02*
X0001899285Y0002190000D01*
X0001913571Y0002182857D02*
X0001883571Y0002182857D01*
X0001883571Y0002194285D01*
X0001884999Y0002197142D01*
X0001886428Y0002198571D01*
X0001889285Y0002200000D01*
X0001893571Y0002200000D01*
X0001896428Y0002198571D01*
X0001897857Y0002197142D01*
X0001899285Y0002194285D01*
X0001899285Y0002182857D01*
X0001893571Y0002225714D02*
X0001913571Y0002225714D01*
X0001882142Y0002218571D02*
X0001903571Y0002211428D01*
X0001903571Y0002230000D01*
X0001838571Y0002200000D02*
X0001824285Y0002190000D01*
X0001838571Y0002182857D02*
X0001808571Y0002182857D01*
X0001808571Y0002194285D01*
X0001809999Y0002197142D01*
X0001811428Y0002198571D01*
X0001814285Y0002200000D01*
X0001818571Y0002200000D01*
X0001821428Y0002198571D01*
X0001822857Y0002197142D01*
X0001824285Y0002194285D01*
X0001824285Y0002182857D01*
X0001808571Y0002210000D02*
X0001808571Y0002228571D01*
X0001819999Y0002218571D01*
X0001819999Y0002222857D01*
X0001821428Y0002225714D01*
X0001822857Y0002227142D01*
X0001825714Y0002228571D01*
X0001832857Y0002228571D01*
X0001835714Y0002227142D01*
X0001837142Y0002225714D01*
X0001838571Y0002222857D01*
X0001838571Y0002214285D01*
X0001837142Y0002211428D01*
X0001835714Y0002210000D01*
X0001713571Y0002200000D02*
X0001699285Y0002190000D01*
X0001713571Y0002182857D02*
X0001683571Y0002182857D01*
X0001683571Y0002194285D01*
X0001684999Y0002197142D01*
X0001686428Y0002198571D01*
X0001689285Y0002200000D01*
X0001693571Y0002200000D01*
X0001696428Y0002198571D01*
X0001697857Y0002197142D01*
X0001699285Y0002194285D01*
X0001699285Y0002182857D01*
X0001686428Y0002211428D02*
X0001684999Y0002212857D01*
X0001683571Y0002215714D01*
X0001683571Y0002222857D01*
X0001684999Y0002225714D01*
X0001686428Y0002227142D01*
X0001689285Y0002228571D01*
X0001692142Y0002228571D01*
X0001696428Y0002227142D01*
X0001713571Y0002210000D01*
X0001713571Y0002228571D01*
X0001638571Y0002200000D02*
X0001624285Y0002190000D01*
X0001638571Y0002182857D02*
X0001608571Y0002182857D01*
X0001608571Y0002194285D01*
X0001609999Y0002197142D01*
X0001611428Y0002198571D01*
X0001614285Y0002200000D01*
X0001618571Y0002200000D01*
X0001621428Y0002198571D01*
X0001622857Y0002197142D01*
X0001624285Y0002194285D01*
X0001624285Y0002182857D01*
X0001638571Y0002228571D02*
X0001638571Y0002211428D01*
X0001638571Y0002220000D02*
X0001608571Y0002220000D01*
X0001612857Y0002217142D01*
X0001615714Y0002214285D01*
X0001617142Y0002211428D01*
G04 next file*
G04 next file*
G04 #@! TF.GenerationSoftware,KiCad,Pcbnew,(5.1.4)-1*
G04 #@! TF.CreationDate,2019-12-18T21:33:11+01:00*
G04 #@! TF.ProjectId,ser,7365722e-6b69-4636-9164-5f7063625858,rev?*
G04 #@! TF.SameCoordinates,Original*
G04 #@! TF.FileFunction,Legend,Top*
G04 #@! TF.FilePolarity,Positive*
G04 Gerber Fmt 4.6, Leading zero omitted, Abs format (unit mm)*
G04 Created by KiCad (PCBNEW (5.1.4)-1) date 2019-12-18 21:33:11*
G04 APERTURE LIST*
G04 APERTURE END LIST*
D26*
X0002370000Y0002505000D02*
X0002345000Y0002505000D01*
X0002345000Y0002530000D02*
X0002345000Y0002505000D01*
X0002320000Y0002505000D02*
X0002345000Y0002505000D01*
G36*
X0002370000Y0002480000D02*
G01*
X0002320000Y0002480000D01*
X0002345000Y0002505000D01*
X0002370000Y0002480000D01*
G37*
X0002370000Y0002480000D02*
X0002320000Y0002480000D01*
X0002345000Y0002505000D01*
X0002370000Y0002480000D01*
X0002345000Y0002505000D02*
X0002320000Y0002505000D01*
X0002345000Y0002455000D02*
X0002345000Y0002480000D01*
X0002570000Y0002505000D02*
X0002545000Y0002505000D01*
X0002545000Y0002530000D02*
X0002545000Y0002505000D01*
X0002520000Y0002505000D02*
X0002545000Y0002505000D01*
G36*
X0002570000Y0002480000D02*
G01*
X0002520000Y0002480000D01*
X0002545000Y0002505000D01*
X0002570000Y0002480000D01*
G37*
X0002570000Y0002480000D02*
X0002520000Y0002480000D01*
X0002545000Y0002505000D01*
X0002570000Y0002480000D01*
X0002545000Y0002505000D02*
X0002520000Y0002505000D01*
X0002545000Y0002455000D02*
X0002545000Y0002480000D01*
X0002570000Y0002705000D02*
X0002545000Y0002705000D01*
X0002545000Y0002730000D02*
X0002545000Y0002705000D01*
X0002520000Y0002705000D02*
X0002545000Y0002705000D01*
G36*
X0002570000Y0002680000D02*
G01*
X0002520000Y0002680000D01*
X0002545000Y0002705000D01*
X0002570000Y0002680000D01*
G37*
X0002570000Y0002680000D02*
X0002520000Y0002680000D01*
X0002545000Y0002705000D01*
X0002570000Y0002680000D01*
X0002545000Y0002705000D02*
X0002520000Y0002705000D01*
X0002545000Y0002655000D02*
X0002545000Y0002680000D01*
G36*
X0002370000Y0002680000D02*
G01*
X0002320000Y0002680000D01*
X0002345000Y0002705000D01*
X0002370000Y0002680000D01*
G37*
X0002370000Y0002680000D02*
X0002320000Y0002680000D01*
X0002345000Y0002705000D01*
X0002370000Y0002680000D01*
X0002370000Y0002705000D02*
X0002345000Y0002705000D01*
X0002345000Y0002730000D02*
X0002345000Y0002705000D01*
X0002320000Y0002705000D02*
X0002345000Y0002705000D01*
X0002345000Y0002705000D02*
X0002320000Y0002705000D01*
X0002345000Y0002655000D02*
X0002345000Y0002680000D01*
D27*
X0002750000Y0002058571D02*
X0002750000Y0002072857D01*
X0002758571Y0002055714D02*
X0002728571Y0002065714D01*
X0002758571Y0002075714D01*
X0002728571Y0002091428D02*
X0002728571Y0002094285D01*
X0002730000Y0002097142D01*
X0002731428Y0002098571D01*
X0002734285Y0002100000D01*
X0002740000Y0002101428D01*
X0002747142Y0002101428D01*
X0002752857Y0002100000D01*
X0002755714Y0002098571D01*
X0002757142Y0002097142D01*
X0002758571Y0002094285D01*
X0002758571Y0002091428D01*
X0002757142Y0002088571D01*
X0002755714Y0002087142D01*
X0002752857Y0002085714D01*
X0002747142Y0002084285D01*
X0002740000Y0002084285D01*
X0002734285Y0002085714D01*
X0002731428Y0002087142D01*
X0002730000Y0002088571D01*
X0002728571Y0002091428D01*
X0002758571Y0002563571D02*
X0002744285Y0002553571D01*
X0002758571Y0002546428D02*
X0002728571Y0002546428D01*
X0002728571Y0002557857D01*
X0002730000Y0002560714D01*
X0002731428Y0002562142D01*
X0002734285Y0002563571D01*
X0002738571Y0002563571D01*
X0002741428Y0002562142D01*
X0002742857Y0002560714D01*
X0002744285Y0002557857D01*
X0002744285Y0002546428D01*
X0002757142Y0002575000D02*
X0002758571Y0002579285D01*
X0002758571Y0002586428D01*
X0002757142Y0002589285D01*
X0002755714Y0002590714D01*
X0002752857Y0002592142D01*
X0002750000Y0002592142D01*
X0002747142Y0002590714D01*
X0002745714Y0002589285D01*
X0002744285Y0002586428D01*
X0002742857Y0002580714D01*
X0002741428Y0002577857D01*
X0002740000Y0002576428D01*
X0002737142Y0002575000D01*
X0002734285Y0002575000D01*
X0002731428Y0002576428D01*
X0002730000Y0002577857D01*
X0002728571Y0002580714D01*
X0002728571Y0002587857D01*
X0002730000Y0002592142D01*
X0002728571Y0002600714D02*
X0002728571Y0002617857D01*
X0002758571Y0002609285D02*
X0002728571Y0002609285D01*
X0002308571Y0002659999D02*
X0002294285Y0002650000D01*
X0002308571Y0002642857D02*
X0002278571Y0002642857D01*
X0002278571Y0002654285D01*
X0002280000Y0002657142D01*
X0002281428Y0002658571D01*
X0002284285Y0002659999D01*
X0002288571Y0002659999D01*
X0002291428Y0002658571D01*
X0002292857Y0002657142D01*
X0002294285Y0002654285D01*
X0002294285Y0002642857D01*
X0002278571Y0002670000D02*
X0002308571Y0002690000D01*
X0002278571Y0002690000D02*
X0002308571Y0002670000D01*
X0002308571Y0002701428D02*
X0002278571Y0002701428D01*
X0002278571Y0002708571D01*
X0002280000Y0002712857D01*
X0002282857Y0002715714D01*
X0002285714Y0002717142D01*
X0002291428Y0002718571D01*
X0002295714Y0002718571D01*
X0002301428Y0002717142D01*
X0002304285Y0002715714D01*
X0002307142Y0002712857D01*
X0002308571Y0002708571D01*
X0002308571Y0002701428D01*
X0002278571Y0002742142D02*
X0002278571Y0002759285D01*
X0002308571Y0002750714D02*
X0002278571Y0002750714D01*
X0002278571Y0002766428D02*
X0002308571Y0002786428D01*
X0002278571Y0002786428D02*
X0002308571Y0002766428D01*
X0002308571Y0002797857D02*
X0002278571Y0002797857D01*
X0002278571Y0002805000D01*
X0002280000Y0002809285D01*
X0002282857Y0002812142D01*
X0002285714Y0002813571D01*
X0002291428Y0002815000D01*
X0002295714Y0002815000D01*
X0002301428Y0002813571D01*
X0002304285Y0002812142D01*
X0002307142Y0002809285D01*
X0002308571Y0002805000D01*
X0002308571Y0002797857D01*
X0002303571Y0001574285D02*
X0002303571Y0001560000D01*
X0002317857Y0001558571D01*
X0002316428Y0001560000D01*
X0002315000Y0001562857D01*
X0002315000Y0001570000D01*
X0002316428Y0001572857D01*
X0002317857Y0001574285D01*
X0002320714Y0001575714D01*
X0002327857Y0001575714D01*
X0002330714Y0001574285D01*
X0002332142Y0001572857D01*
X0002333571Y0001570000D01*
X0002333571Y0001562857D01*
X0002332142Y0001560000D01*
X0002330714Y0001558571D01*
X0002303571Y0001584285D02*
X0002333571Y0001594285D01*
X0002303571Y0001604285D01*
X0002403571Y0001540000D02*
X0002433571Y0001550000D01*
X0002403571Y0001560000D01*
X0002433571Y0001570000D02*
X0002403571Y0001570000D01*
X0002403571Y0001577142D01*
X0002405000Y0001581428D01*
X0002407857Y0001584285D01*
X0002410714Y0001585714D01*
X0002416428Y0001587142D01*
X0002420714Y0001587142D01*
X0002426428Y0001585714D01*
X0002429285Y0001584285D01*
X0002432142Y0001581428D01*
X0002433571Y0001577142D01*
X0002433571Y0001570000D01*
X0002433571Y0001600000D02*
X0002403571Y0001600000D01*
X0002403571Y0001607142D01*
X0002405000Y0001611428D01*
X0002407857Y0001614285D01*
X0002410714Y0001615714D01*
X0002416428Y0001617142D01*
X0002420714Y0001617142D01*
X0002426428Y0001615714D01*
X0002429285Y0001614285D01*
X0002432142Y0001611428D01*
X0002433571Y0001607142D01*
X0002433571Y0001600000D01*
X0002503571Y0001542857D02*
X0002503571Y0001561428D01*
X0002515000Y0001551428D01*
X0002515000Y0001555714D01*
X0002516428Y0001558571D01*
X0002517857Y0001560000D01*
X0002520714Y0001561428D01*
X0002527857Y0001561428D01*
X0002530714Y0001560000D01*
X0002532142Y0001558571D01*
X0002533571Y0001555714D01*
X0002533571Y0001547142D01*
X0002532142Y0001544285D01*
X0002530714Y0001542857D01*
X0002503571Y0001570000D02*
X0002533571Y0001580000D01*
X0002503571Y0001590000D01*
X0002503571Y0001597142D02*
X0002503571Y0001615714D01*
X0002515000Y0001605714D01*
X0002515000Y0001610000D01*
X0002516428Y0001612857D01*
X0002517857Y0001614285D01*
X0002520714Y0001615714D01*
X0002527857Y0001615714D01*
X0002530714Y0001614285D01*
X0002532142Y0001612857D01*
X0002533571Y0001610000D01*
X0002533571Y0001601428D01*
X0002532142Y0001598571D01*
X0002530714Y0001597142D01*
X0002603571Y0001542142D02*
X0002603571Y0001559285D01*
X0002633571Y0001550714D02*
X0002603571Y0001550714D01*
X0002603571Y0001566428D02*
X0002633571Y0001586428D01*
X0002603571Y0001586428D02*
X0002633571Y0001566428D01*
X0002633571Y0001597857D02*
X0002603571Y0001597857D01*
X0002603571Y0001605000D01*
X0002605000Y0001609285D01*
X0002607857Y0001612142D01*
X0002610714Y0001613571D01*
X0002616428Y0001615000D01*
X0002620714Y0001615000D01*
X0002626428Y0001613571D01*
X0002629285Y0001612142D01*
X0002632142Y0001609285D01*
X0002633571Y0001605000D01*
X0002633571Y0001597857D01*
X0002733571Y0001560000D02*
X0002719285Y0001550000D01*
X0002733571Y0001542857D02*
X0002703571Y0001542857D01*
X0002703571Y0001554285D01*
X0002705000Y0001557142D01*
X0002706428Y0001558571D01*
X0002709285Y0001560000D01*
X0002713571Y0001560000D01*
X0002716428Y0001558571D01*
X0002717857Y0001557142D01*
X0002719285Y0001554285D01*
X0002719285Y0001542857D01*
X0002703571Y0001570000D02*
X0002733571Y0001590000D01*
X0002703571Y0001590000D02*
X0002733571Y0001570000D01*
X0002733571Y0001601428D02*
X0002703571Y0001601428D01*
X0002703571Y0001608571D01*
X0002705000Y0001612857D01*
X0002707857Y0001615714D01*
X0002710714Y0001617142D01*
X0002716428Y0001618571D01*
X0002720714Y0001618571D01*
X0002726428Y0001617142D01*
X0002729285Y0001615714D01*
X0002732142Y0001612857D01*
X0002733571Y0001608571D01*
X0002733571Y0001601428D01*
X0002805000Y0001557142D02*
X0002803571Y0001554285D01*
X0002803571Y0001550000D01*
X0002805000Y0001545714D01*
X0002807857Y0001542857D01*
X0002810714Y0001541428D01*
X0002816428Y0001540000D01*
X0002820714Y0001540000D01*
X0002826428Y0001541428D01*
X0002829285Y0001542857D01*
X0002832142Y0001545714D01*
X0002833571Y0001550000D01*
X0002833571Y0001552857D01*
X0002832142Y0001557142D01*
X0002830714Y0001558571D01*
X0002820714Y0001558571D01*
X0002820714Y0001552857D01*
X0002833571Y0001571428D02*
X0002803571Y0001571428D01*
X0002833571Y0001588571D01*
X0002803571Y0001588571D01*
X0002833571Y0001602857D02*
X0002803571Y0001602857D01*
X0002803571Y0001610000D01*
X0002805000Y0001614285D01*
X0002807857Y0001617142D01*
X0002810714Y0001618571D01*
X0002816428Y0001620000D01*
X0002820714Y0001620000D01*
X0002826428Y0001618571D01*
X0002829285Y0001617142D01*
X0002832142Y0001614285D01*
X0002833571Y0001610000D01*
X0002833571Y0001602857D01*
D26*
X0002170000Y0002830000D02*
X0002870000Y0002830000D01*
X0002870000Y0002830000D02*
X0002870000Y0001630000D01*
X0002870000Y0001630000D02*
X0002170000Y0001630000D01*
X0002170000Y0001630000D02*
X0002170000Y0002830000D01*
X0002464881Y0001815629D02*
X0002464881Y0001894370D01*
X0002575118Y0001815629D02*
X0002464881Y0001815629D01*
X0002575118Y0001894370D02*
X0002575118Y0001815629D01*
X0002464881Y0001894370D02*
X0002575118Y0001894370D01*
X0002267637Y0001532362D02*
X0002267637Y0001427637D01*
X0002770000Y0001532362D02*
X0002267637Y0001532362D01*
X0002770000Y0001427637D02*
X0002267637Y0001427637D01*
X0002770000Y0001532362D02*
X0002770000Y0001427637D01*
X0002820000Y0001532362D02*
X0002872362Y0001532362D01*
X0002872362Y0001532362D02*
X0002872362Y0001480000D01*
X0002591063Y0002551358D02*
X0002591063Y0002454507D01*
X0002648937Y0002551358D02*
X0002591063Y0002551358D01*
X0002648937Y0002454507D02*
X0002648937Y0002551358D01*
X0002648937Y0002654507D02*
X0002648937Y0002751358D01*
X0002648937Y0002751358D02*
X0002591063Y0002751358D01*
X0002591063Y0002751358D02*
X0002591063Y0002654507D01*
X0002391063Y0002551358D02*
X0002391063Y0002454507D01*
X0002448937Y0002551358D02*
X0002391063Y0002551358D01*
X0002448937Y0002454507D02*
X0002448937Y0002551358D01*
X0002448937Y0002654507D02*
X0002448937Y0002751358D01*
X0002448937Y0002751358D02*
X0002391063Y0002751358D01*
X0002391063Y0002751358D02*
X0002391063Y0002654507D01*
X0002640078Y0002307706D02*
X0002640078Y0002321191D01*
X0002599921Y0002307706D02*
X0002599921Y0002321191D01*
X0002524921Y0002307706D02*
X0002524921Y0002321191D01*
X0002565078Y0002307706D02*
X0002565078Y0002321191D01*
X0002440078Y0002307706D02*
X0002440078Y0002321191D01*
X0002399921Y0002307706D02*
X0002399921Y0002321191D01*
X0002324921Y0002307706D02*
X0002324921Y0002321191D01*
X0002365078Y0002307706D02*
X0002365078Y0002321191D01*
D27*
X0002503571Y0001730000D02*
X0002525000Y0001730000D01*
X0002529285Y0001728571D01*
X0002532142Y0001725714D01*
X0002533571Y0001721428D01*
X0002533571Y0001718571D01*
X0002533571Y0001744285D02*
X0002503571Y0001744285D01*
X0002503571Y0001755714D01*
X0002505000Y0001758571D01*
X0002506428Y0001760000D01*
X0002509285Y0001761428D01*
X0002513571Y0001761428D01*
X0002516428Y0001760000D01*
X0002517857Y0001758571D01*
X0002519285Y0001755714D01*
X0002519285Y0001744285D01*
X0002533571Y0001790000D02*
X0002533571Y0001772857D01*
X0002533571Y0001781428D02*
X0002503571Y0001781428D01*
X0002507857Y0001778571D01*
X0002510714Y0001775714D01*
X0002512142Y0001772857D01*
X0002689870Y0002463861D02*
X0002659870Y0002463861D01*
X0002659870Y0002471003D01*
X0002661299Y0002475289D01*
X0002664156Y0002478146D01*
X0002667013Y0002479575D01*
X0002672727Y0002481003D01*
X0002677013Y0002481003D01*
X0002682727Y0002479575D01*
X0002685584Y0002478146D01*
X0002688442Y0002475289D01*
X0002689870Y0002471003D01*
X0002689870Y0002463861D01*
X0002669870Y0002506718D02*
X0002689870Y0002506718D01*
X0002658442Y0002499575D02*
X0002679870Y0002492432D01*
X0002679870Y0002511003D01*
X0002689870Y0002663861D02*
X0002659870Y0002663861D01*
X0002659870Y0002671003D01*
X0002661299Y0002675289D01*
X0002664156Y0002678146D01*
X0002667013Y0002679575D01*
X0002672727Y0002681003D01*
X0002677013Y0002681003D01*
X0002682727Y0002679575D01*
X0002685584Y0002678146D01*
X0002688442Y0002675289D01*
X0002689870Y0002671003D01*
X0002689870Y0002663861D01*
X0002659870Y0002691003D02*
X0002659870Y0002709575D01*
X0002671299Y0002699575D01*
X0002671299Y0002703861D01*
X0002672727Y0002706718D01*
X0002674156Y0002708146D01*
X0002677013Y0002709575D01*
X0002684156Y0002709575D01*
X0002687013Y0002708146D01*
X0002688442Y0002706718D01*
X0002689870Y0002703861D01*
X0002689870Y0002695289D01*
X0002688442Y0002692432D01*
X0002687013Y0002691003D01*
X0002489870Y0002463861D02*
X0002459870Y0002463861D01*
X0002459870Y0002471003D01*
X0002461299Y0002475289D01*
X0002464156Y0002478146D01*
X0002467013Y0002479575D01*
X0002472727Y0002481003D01*
X0002477013Y0002481003D01*
X0002482727Y0002479575D01*
X0002485584Y0002478146D01*
X0002488442Y0002475289D01*
X0002489870Y0002471003D01*
X0002489870Y0002463861D01*
X0002462727Y0002492432D02*
X0002461299Y0002493861D01*
X0002459870Y0002496718D01*
X0002459870Y0002503861D01*
X0002461299Y0002506718D01*
X0002462727Y0002508146D01*
X0002465584Y0002509575D01*
X0002468442Y0002509575D01*
X0002472727Y0002508146D01*
X0002489870Y0002491003D01*
X0002489870Y0002509575D01*
X0002489870Y0002663861D02*
X0002459870Y0002663861D01*
X0002459870Y0002671003D01*
X0002461299Y0002675289D01*
X0002464156Y0002678146D01*
X0002467013Y0002679575D01*
X0002472727Y0002681003D01*
X0002477013Y0002681003D01*
X0002482727Y0002679575D01*
X0002485584Y0002678146D01*
X0002488442Y0002675289D01*
X0002489870Y0002671003D01*
X0002489870Y0002663861D01*
X0002489870Y0002709575D02*
X0002489870Y0002692432D01*
X0002489870Y0002701003D02*
X0002459870Y0002701003D01*
X0002464156Y0002698146D01*
X0002467013Y0002695289D01*
X0002468442Y0002692432D01*
X0002633571Y0002200000D02*
X0002619285Y0002190000D01*
X0002633571Y0002182857D02*
X0002603571Y0002182857D01*
X0002603571Y0002194285D01*
X0002605000Y0002197142D01*
X0002606428Y0002198571D01*
X0002609285Y0002200000D01*
X0002613571Y0002200000D01*
X0002616428Y0002198571D01*
X0002617857Y0002197142D01*
X0002619285Y0002194285D01*
X0002619285Y0002182857D01*
X0002613571Y0002225714D02*
X0002633571Y0002225714D01*
X0002602142Y0002218571D02*
X0002623571Y0002211428D01*
X0002623571Y0002230000D01*
X0002558571Y0002200000D02*
X0002544285Y0002190000D01*
X0002558571Y0002182857D02*
X0002528571Y0002182857D01*
X0002528571Y0002194285D01*
X0002530000Y0002197142D01*
X0002531428Y0002198571D01*
X0002534285Y0002200000D01*
X0002538571Y0002200000D01*
X0002541428Y0002198571D01*
X0002542857Y0002197142D01*
X0002544285Y0002194285D01*
X0002544285Y0002182857D01*
X0002528571Y0002210000D02*
X0002528571Y0002228571D01*
X0002540000Y0002218571D01*
X0002540000Y0002222857D01*
X0002541428Y0002225714D01*
X0002542857Y0002227142D01*
X0002545714Y0002228571D01*
X0002552857Y0002228571D01*
X0002555714Y0002227142D01*
X0002557142Y0002225714D01*
X0002558571Y0002222857D01*
X0002558571Y0002214285D01*
X0002557142Y0002211428D01*
X0002555714Y0002210000D01*
X0002433571Y0002200000D02*
X0002419285Y0002190000D01*
X0002433571Y0002182857D02*
X0002403571Y0002182857D01*
X0002403571Y0002194285D01*
X0002405000Y0002197142D01*
X0002406428Y0002198571D01*
X0002409285Y0002200000D01*
X0002413571Y0002200000D01*
X0002416428Y0002198571D01*
X0002417857Y0002197142D01*
X0002419285Y0002194285D01*
X0002419285Y0002182857D01*
X0002406428Y0002211428D02*
X0002405000Y0002212857D01*
X0002403571Y0002215714D01*
X0002403571Y0002222857D01*
X0002405000Y0002225714D01*
X0002406428Y0002227142D01*
X0002409285Y0002228571D01*
X0002412142Y0002228571D01*
X0002416428Y0002227142D01*
X0002433571Y0002210000D01*
X0002433571Y0002228571D01*
X0002358571Y0002200000D02*
X0002344285Y0002190000D01*
X0002358571Y0002182857D02*
X0002328571Y0002182857D01*
X0002328571Y0002194285D01*
X0002330000Y0002197142D01*
X0002331428Y0002198571D01*
X0002334285Y0002200000D01*
X0002338571Y0002200000D01*
X0002341428Y0002198571D01*
X0002342857Y0002197142D01*
X0002344285Y0002194285D01*
X0002344285Y0002182857D01*
X0002358571Y0002228571D02*
X0002358571Y0002211428D01*
X0002358571Y0002220000D02*
X0002328571Y0002220000D01*
X0002332857Y0002217142D01*
X0002335714Y0002214285D01*
X0002337142Y0002211428D01*
G04 next file*
G04 next file*
G04 #@! TF.GenerationSoftware,KiCad,Pcbnew,(5.1.4)-1*
G04 #@! TF.CreationDate,2019-12-18T21:33:11+01:00*
G04 #@! TF.ProjectId,ser,7365722e-6b69-4636-9164-5f7063625858,rev?*
G04 #@! TF.SameCoordinates,Original*
G04 #@! TF.FileFunction,Legend,Top*
G04 #@! TF.FilePolarity,Positive*
G04 Gerber Fmt 4.6, Leading zero omitted, Abs format (unit mm)*
G04 Created by KiCad (PCBNEW (5.1.4)-1) date 2019-12-18 21:33:11*
G04 APERTURE LIST*
G04 APERTURE END LIST*
D28*
X0003089999Y0002505000D02*
X0003064999Y0002505000D01*
X0003064999Y0002530000D02*
X0003064999Y0002505000D01*
X0003039999Y0002505000D02*
X0003064999Y0002505000D01*
G36*
X0003089999Y0002480000D02*
G01*
X0003039999Y0002480000D01*
X0003064999Y0002505000D01*
X0003089999Y0002480000D01*
G37*
X0003089999Y0002480000D02*
X0003039999Y0002480000D01*
X0003064999Y0002505000D01*
X0003089999Y0002480000D01*
X0003064999Y0002505000D02*
X0003039999Y0002505000D01*
X0003064999Y0002455000D02*
X0003064999Y0002480000D01*
X0003289999Y0002505000D02*
X0003264999Y0002505000D01*
X0003264999Y0002530000D02*
X0003264999Y0002505000D01*
X0003239999Y0002505000D02*
X0003264999Y0002505000D01*
G36*
X0003289999Y0002480000D02*
G01*
X0003239999Y0002480000D01*
X0003264999Y0002505000D01*
X0003289999Y0002480000D01*
G37*
X0003289999Y0002480000D02*
X0003239999Y0002480000D01*
X0003264999Y0002505000D01*
X0003289999Y0002480000D01*
X0003264999Y0002505000D02*
X0003239999Y0002505000D01*
X0003264999Y0002455000D02*
X0003264999Y0002480000D01*
X0003289999Y0002705000D02*
X0003264999Y0002705000D01*
X0003264999Y0002730000D02*
X0003264999Y0002705000D01*
X0003239999Y0002705000D02*
X0003264999Y0002705000D01*
G36*
X0003289999Y0002680000D02*
G01*
X0003239999Y0002680000D01*
X0003264999Y0002705000D01*
X0003289999Y0002680000D01*
G37*
X0003289999Y0002680000D02*
X0003239999Y0002680000D01*
X0003264999Y0002705000D01*
X0003289999Y0002680000D01*
X0003264999Y0002705000D02*
X0003239999Y0002705000D01*
X0003264999Y0002655000D02*
X0003264999Y0002680000D01*
G36*
X0003089999Y0002680000D02*
G01*
X0003039999Y0002680000D01*
X0003064999Y0002705000D01*
X0003089999Y0002680000D01*
G37*
X0003089999Y0002680000D02*
X0003039999Y0002680000D01*
X0003064999Y0002705000D01*
X0003089999Y0002680000D01*
X0003089999Y0002705000D02*
X0003064999Y0002705000D01*
X0003064999Y0002730000D02*
X0003064999Y0002705000D01*
X0003039999Y0002705000D02*
X0003064999Y0002705000D01*
X0003064999Y0002705000D02*
X0003039999Y0002705000D01*
X0003064999Y0002655000D02*
X0003064999Y0002680000D01*
D29*
X0003469999Y0002058571D02*
X0003469999Y0002072857D01*
X0003478571Y0002055714D02*
X0003448571Y0002065714D01*
X0003478571Y0002075714D01*
X0003448571Y0002091428D02*
X0003448571Y0002094285D01*
X0003449999Y0002097142D01*
X0003451428Y0002098571D01*
X0003454285Y0002100000D01*
X0003459999Y0002101428D01*
X0003467142Y0002101428D01*
X0003472857Y0002100000D01*
X0003475714Y0002098571D01*
X0003477142Y0002097142D01*
X0003478571Y0002094285D01*
X0003478571Y0002091428D01*
X0003477142Y0002088571D01*
X0003475714Y0002087142D01*
X0003472857Y0002085714D01*
X0003467142Y0002084285D01*
X0003459999Y0002084285D01*
X0003454285Y0002085714D01*
X0003451428Y0002087142D01*
X0003449999Y0002088571D01*
X0003448571Y0002091428D01*
X0003478571Y0002563571D02*
X0003464285Y0002553571D01*
X0003478571Y0002546428D02*
X0003448571Y0002546428D01*
X0003448571Y0002557857D01*
X0003449999Y0002560714D01*
X0003451428Y0002562142D01*
X0003454285Y0002563571D01*
X0003458571Y0002563571D01*
X0003461428Y0002562142D01*
X0003462857Y0002560714D01*
X0003464285Y0002557857D01*
X0003464285Y0002546428D01*
X0003477142Y0002575000D02*
X0003478571Y0002579285D01*
X0003478571Y0002586428D01*
X0003477142Y0002589285D01*
X0003475714Y0002590714D01*
X0003472857Y0002592142D01*
X0003469999Y0002592142D01*
X0003467142Y0002590714D01*
X0003465714Y0002589285D01*
X0003464285Y0002586428D01*
X0003462857Y0002580714D01*
X0003461428Y0002577857D01*
X0003459999Y0002576428D01*
X0003457142Y0002575000D01*
X0003454285Y0002575000D01*
X0003451428Y0002576428D01*
X0003449999Y0002577857D01*
X0003448571Y0002580714D01*
X0003448571Y0002587857D01*
X0003449999Y0002592142D01*
X0003448571Y0002600714D02*
X0003448571Y0002617857D01*
X0003478571Y0002609285D02*
X0003448571Y0002609285D01*
X0003028571Y0002659999D02*
X0003014285Y0002650000D01*
X0003028571Y0002642857D02*
X0002998571Y0002642857D01*
X0002998571Y0002654285D01*
X0002999999Y0002657142D01*
X0003001428Y0002658571D01*
X0003004285Y0002659999D01*
X0003008571Y0002659999D01*
X0003011428Y0002658571D01*
X0003012857Y0002657142D01*
X0003014285Y0002654285D01*
X0003014285Y0002642857D01*
X0002998571Y0002670000D02*
X0003028571Y0002690000D01*
X0002998571Y0002690000D02*
X0003028571Y0002670000D01*
X0003028571Y0002701428D02*
X0002998571Y0002701428D01*
X0002998571Y0002708571D01*
X0002999999Y0002712857D01*
X0003002857Y0002715714D01*
X0003005714Y0002717142D01*
X0003011428Y0002718571D01*
X0003015714Y0002718571D01*
X0003021428Y0002717142D01*
X0003024285Y0002715714D01*
X0003027142Y0002712857D01*
X0003028571Y0002708571D01*
X0003028571Y0002701428D01*
X0002998571Y0002742142D02*
X0002998571Y0002759285D01*
X0003028571Y0002750714D02*
X0002998571Y0002750714D01*
X0002998571Y0002766428D02*
X0003028571Y0002786428D01*
X0002998571Y0002786428D02*
X0003028571Y0002766428D01*
X0003028571Y0002797857D02*
X0002998571Y0002797857D01*
X0002998571Y0002805000D01*
X0002999999Y0002809285D01*
X0003002857Y0002812142D01*
X0003005714Y0002813571D01*
X0003011428Y0002815000D01*
X0003015714Y0002815000D01*
X0003021428Y0002813571D01*
X0003024285Y0002812142D01*
X0003027142Y0002809285D01*
X0003028571Y0002805000D01*
X0003028571Y0002797857D01*
X0003023571Y0001574285D02*
X0003023571Y0001560000D01*
X0003037857Y0001558571D01*
X0003036428Y0001560000D01*
X0003034999Y0001562857D01*
X0003034999Y0001570000D01*
X0003036428Y0001572857D01*
X0003037857Y0001574285D01*
X0003040714Y0001575714D01*
X0003047857Y0001575714D01*
X0003050714Y0001574285D01*
X0003052142Y0001572857D01*
X0003053571Y0001570000D01*
X0003053571Y0001562857D01*
X0003052142Y0001560000D01*
X0003050714Y0001558571D01*
X0003023571Y0001584285D02*
X0003053571Y0001594285D01*
X0003023571Y0001604285D01*
X0003123571Y0001540000D02*
X0003153571Y0001550000D01*
X0003123571Y0001560000D01*
X0003153571Y0001570000D02*
X0003123571Y0001570000D01*
X0003123571Y0001577142D01*
X0003124999Y0001581428D01*
X0003127857Y0001584285D01*
X0003130714Y0001585714D01*
X0003136428Y0001587142D01*
X0003140714Y0001587142D01*
X0003146428Y0001585714D01*
X0003149285Y0001584285D01*
X0003152142Y0001581428D01*
X0003153571Y0001577142D01*
X0003153571Y0001570000D01*
X0003153571Y0001600000D02*
X0003123571Y0001600000D01*
X0003123571Y0001607142D01*
X0003124999Y0001611428D01*
X0003127857Y0001614285D01*
X0003130714Y0001615714D01*
X0003136428Y0001617142D01*
X0003140714Y0001617142D01*
X0003146428Y0001615714D01*
X0003149285Y0001614285D01*
X0003152142Y0001611428D01*
X0003153571Y0001607142D01*
X0003153571Y0001600000D01*
X0003223571Y0001542857D02*
X0003223571Y0001561428D01*
X0003234999Y0001551428D01*
X0003234999Y0001555714D01*
X0003236428Y0001558571D01*
X0003237857Y0001560000D01*
X0003240714Y0001561428D01*
X0003247857Y0001561428D01*
X0003250714Y0001560000D01*
X0003252142Y0001558571D01*
X0003253571Y0001555714D01*
X0003253571Y0001547142D01*
X0003252142Y0001544285D01*
X0003250714Y0001542857D01*
X0003223571Y0001570000D02*
X0003253571Y0001580000D01*
X0003223571Y0001590000D01*
X0003223571Y0001597142D02*
X0003223571Y0001615714D01*
X0003234999Y0001605714D01*
X0003234999Y0001610000D01*
X0003236428Y0001612857D01*
X0003237857Y0001614285D01*
X0003240714Y0001615714D01*
X0003247857Y0001615714D01*
X0003250714Y0001614285D01*
X0003252142Y0001612857D01*
X0003253571Y0001610000D01*
X0003253571Y0001601428D01*
X0003252142Y0001598571D01*
X0003250714Y0001597142D01*
X0003323571Y0001542142D02*
X0003323571Y0001559285D01*
X0003353571Y0001550714D02*
X0003323571Y0001550714D01*
X0003323571Y0001566428D02*
X0003353571Y0001586428D01*
X0003323571Y0001586428D02*
X0003353571Y0001566428D01*
X0003353571Y0001597857D02*
X0003323571Y0001597857D01*
X0003323571Y0001605000D01*
X0003324999Y0001609285D01*
X0003327857Y0001612142D01*
X0003330714Y0001613571D01*
X0003336428Y0001615000D01*
X0003340714Y0001615000D01*
X0003346428Y0001613571D01*
X0003349285Y0001612142D01*
X0003352142Y0001609285D01*
X0003353571Y0001605000D01*
X0003353571Y0001597857D01*
X0003453571Y0001560000D02*
X0003439285Y0001550000D01*
X0003453571Y0001542857D02*
X0003423571Y0001542857D01*
X0003423571Y0001554285D01*
X0003424999Y0001557142D01*
X0003426428Y0001558571D01*
X0003429285Y0001560000D01*
X0003433571Y0001560000D01*
X0003436428Y0001558571D01*
X0003437857Y0001557142D01*
X0003439285Y0001554285D01*
X0003439285Y0001542857D01*
X0003423571Y0001570000D02*
X0003453571Y0001590000D01*
X0003423571Y0001590000D02*
X0003453571Y0001570000D01*
X0003453571Y0001601428D02*
X0003423571Y0001601428D01*
X0003423571Y0001608571D01*
X0003424999Y0001612857D01*
X0003427857Y0001615714D01*
X0003430714Y0001617142D01*
X0003436428Y0001618571D01*
X0003440714Y0001618571D01*
X0003446428Y0001617142D01*
X0003449285Y0001615714D01*
X0003452142Y0001612857D01*
X0003453571Y0001608571D01*
X0003453571Y0001601428D01*
X0003524999Y0001557142D02*
X0003523571Y0001554285D01*
X0003523571Y0001550000D01*
X0003524999Y0001545714D01*
X0003527857Y0001542857D01*
X0003530714Y0001541428D01*
X0003536428Y0001540000D01*
X0003540714Y0001540000D01*
X0003546428Y0001541428D01*
X0003549285Y0001542857D01*
X0003552142Y0001545714D01*
X0003553571Y0001550000D01*
X0003553571Y0001552857D01*
X0003552142Y0001557142D01*
X0003550714Y0001558571D01*
X0003540714Y0001558571D01*
X0003540714Y0001552857D01*
X0003553571Y0001571428D02*
X0003523571Y0001571428D01*
X0003553571Y0001588571D01*
X0003523571Y0001588571D01*
X0003553571Y0001602857D02*
X0003523571Y0001602857D01*
X0003523571Y0001610000D01*
X0003524999Y0001614285D01*
X0003527857Y0001617142D01*
X0003530714Y0001618571D01*
X0003536428Y0001620000D01*
X0003540714Y0001620000D01*
X0003546428Y0001618571D01*
X0003549285Y0001617142D01*
X0003552142Y0001614285D01*
X0003553571Y0001610000D01*
X0003553571Y0001602857D01*
D28*
X0002889999Y0002830000D02*
X0003589999Y0002830000D01*
X0003589999Y0002830000D02*
X0003589999Y0001630000D01*
X0003589999Y0001630000D02*
X0002889999Y0001630000D01*
X0002889999Y0001630000D02*
X0002889999Y0002830000D01*
X0003184881Y0001815629D02*
X0003184881Y0001894370D01*
X0003295118Y0001815629D02*
X0003184881Y0001815629D01*
X0003295118Y0001894370D02*
X0003295118Y0001815629D01*
X0003184881Y0001894370D02*
X0003295118Y0001894370D01*
X0002987637Y0001532362D02*
X0002987637Y0001427637D01*
X0003489999Y0001532362D02*
X0002987637Y0001532362D01*
X0003489999Y0001427637D02*
X0002987637Y0001427637D01*
X0003489999Y0001532362D02*
X0003489999Y0001427637D01*
X0003539999Y0001532362D02*
X0003592362Y0001532362D01*
X0003592362Y0001532362D02*
X0003592362Y0001480000D01*
X0003311062Y0002551358D02*
X0003311062Y0002454507D01*
X0003368936Y0002551358D02*
X0003311062Y0002551358D01*
X0003368936Y0002454507D02*
X0003368936Y0002551358D01*
X0003368936Y0002654507D02*
X0003368936Y0002751358D01*
X0003368936Y0002751358D02*
X0003311062Y0002751358D01*
X0003311062Y0002751358D02*
X0003311062Y0002654507D01*
X0003111062Y0002551358D02*
X0003111062Y0002454507D01*
X0003168936Y0002551358D02*
X0003111062Y0002551358D01*
X0003168936Y0002454507D02*
X0003168936Y0002551358D01*
X0003168936Y0002654507D02*
X0003168936Y0002751358D01*
X0003168936Y0002751358D02*
X0003111062Y0002751358D01*
X0003111062Y0002751358D02*
X0003111062Y0002654507D01*
X0003360078Y0002307706D02*
X0003360078Y0002321191D01*
X0003319921Y0002307706D02*
X0003319921Y0002321191D01*
X0003244921Y0002307706D02*
X0003244921Y0002321191D01*
X0003285078Y0002307706D02*
X0003285078Y0002321191D01*
X0003160078Y0002307706D02*
X0003160078Y0002321191D01*
X0003119921Y0002307706D02*
X0003119921Y0002321191D01*
X0003044921Y0002307706D02*
X0003044921Y0002321191D01*
X0003085078Y0002307706D02*
X0003085078Y0002321191D01*
D29*
X0003223571Y0001730000D02*
X0003244999Y0001730000D01*
X0003249285Y0001728571D01*
X0003252142Y0001725714D01*
X0003253571Y0001721428D01*
X0003253571Y0001718571D01*
X0003253571Y0001744285D02*
X0003223571Y0001744285D01*
X0003223571Y0001755714D01*
X0003224999Y0001758571D01*
X0003226428Y0001760000D01*
X0003229285Y0001761428D01*
X0003233571Y0001761428D01*
X0003236428Y0001760000D01*
X0003237857Y0001758571D01*
X0003239285Y0001755714D01*
X0003239285Y0001744285D01*
X0003253571Y0001790000D02*
X0003253571Y0001772857D01*
X0003253571Y0001781428D02*
X0003223571Y0001781428D01*
X0003227857Y0001778571D01*
X0003230714Y0001775714D01*
X0003232142Y0001772857D01*
X0003409870Y0002463861D02*
X0003379870Y0002463861D01*
X0003379870Y0002471003D01*
X0003381299Y0002475289D01*
X0003384156Y0002478146D01*
X0003387013Y0002479575D01*
X0003392727Y0002481003D01*
X0003397013Y0002481003D01*
X0003402727Y0002479575D01*
X0003405584Y0002478146D01*
X0003408442Y0002475289D01*
X0003409870Y0002471003D01*
X0003409870Y0002463861D01*
X0003389870Y0002506718D02*
X0003409870Y0002506718D01*
X0003378442Y0002499575D02*
X0003399870Y0002492432D01*
X0003399870Y0002511003D01*
X0003409870Y0002663861D02*
X0003379870Y0002663861D01*
X0003379870Y0002671003D01*
X0003381299Y0002675289D01*
X0003384156Y0002678146D01*
X0003387013Y0002679575D01*
X0003392727Y0002681003D01*
X0003397013Y0002681003D01*
X0003402727Y0002679575D01*
X0003405584Y0002678146D01*
X0003408442Y0002675289D01*
X0003409870Y0002671003D01*
X0003409870Y0002663861D01*
X0003379870Y0002691003D02*
X0003379870Y0002709575D01*
X0003391299Y0002699575D01*
X0003391299Y0002703861D01*
X0003392727Y0002706718D01*
X0003394156Y0002708146D01*
X0003397013Y0002709575D01*
X0003404156Y0002709575D01*
X0003407013Y0002708146D01*
X0003408442Y0002706718D01*
X0003409870Y0002703861D01*
X0003409870Y0002695289D01*
X0003408442Y0002692432D01*
X0003407013Y0002691003D01*
X0003209870Y0002463861D02*
X0003179870Y0002463861D01*
X0003179870Y0002471003D01*
X0003181299Y0002475289D01*
X0003184156Y0002478146D01*
X0003187013Y0002479575D01*
X0003192727Y0002481003D01*
X0003197013Y0002481003D01*
X0003202727Y0002479575D01*
X0003205584Y0002478146D01*
X0003208442Y0002475289D01*
X0003209870Y0002471003D01*
X0003209870Y0002463861D01*
X0003182727Y0002492432D02*
X0003181299Y0002493861D01*
X0003179870Y0002496718D01*
X0003179870Y0002503861D01*
X0003181299Y0002506718D01*
X0003182727Y0002508146D01*
X0003185584Y0002509575D01*
X0003188442Y0002509575D01*
X0003192727Y0002508146D01*
X0003209870Y0002491003D01*
X0003209870Y0002509575D01*
X0003209870Y0002663861D02*
X0003179870Y0002663861D01*
X0003179870Y0002671003D01*
X0003181299Y0002675289D01*
X0003184156Y0002678146D01*
X0003187013Y0002679575D01*
X0003192727Y0002681003D01*
X0003197013Y0002681003D01*
X0003202727Y0002679575D01*
X0003205584Y0002678146D01*
X0003208442Y0002675289D01*
X0003209870Y0002671003D01*
X0003209870Y0002663861D01*
X0003209870Y0002709575D02*
X0003209870Y0002692432D01*
X0003209870Y0002701003D02*
X0003179870Y0002701003D01*
X0003184156Y0002698146D01*
X0003187013Y0002695289D01*
X0003188442Y0002692432D01*
X0003353571Y0002200000D02*
X0003339285Y0002190000D01*
X0003353571Y0002182857D02*
X0003323571Y0002182857D01*
X0003323571Y0002194285D01*
X0003324999Y0002197142D01*
X0003326428Y0002198571D01*
X0003329285Y0002200000D01*
X0003333571Y0002200000D01*
X0003336428Y0002198571D01*
X0003337857Y0002197142D01*
X0003339285Y0002194285D01*
X0003339285Y0002182857D01*
X0003333571Y0002225714D02*
X0003353571Y0002225714D01*
X0003322142Y0002218571D02*
X0003343571Y0002211428D01*
X0003343571Y0002230000D01*
X0003278571Y0002200000D02*
X0003264285Y0002190000D01*
X0003278571Y0002182857D02*
X0003248571Y0002182857D01*
X0003248571Y0002194285D01*
X0003249999Y0002197142D01*
X0003251428Y0002198571D01*
X0003254285Y0002200000D01*
X0003258571Y0002200000D01*
X0003261428Y0002198571D01*
X0003262857Y0002197142D01*
X0003264285Y0002194285D01*
X0003264285Y0002182857D01*
X0003248571Y0002210000D02*
X0003248571Y0002228571D01*
X0003259999Y0002218571D01*
X0003259999Y0002222857D01*
X0003261428Y0002225714D01*
X0003262857Y0002227142D01*
X0003265714Y0002228571D01*
X0003272857Y0002228571D01*
X0003275714Y0002227142D01*
X0003277142Y0002225714D01*
X0003278571Y0002222857D01*
X0003278571Y0002214285D01*
X0003277142Y0002211428D01*
X0003275714Y0002210000D01*
X0003153571Y0002200000D02*
X0003139285Y0002190000D01*
X0003153571Y0002182857D02*
X0003123571Y0002182857D01*
X0003123571Y0002194285D01*
X0003124999Y0002197142D01*
X0003126428Y0002198571D01*
X0003129285Y0002200000D01*
X0003133571Y0002200000D01*
X0003136428Y0002198571D01*
X0003137857Y0002197142D01*
X0003139285Y0002194285D01*
X0003139285Y0002182857D01*
X0003126428Y0002211428D02*
X0003124999Y0002212857D01*
X0003123571Y0002215714D01*
X0003123571Y0002222857D01*
X0003124999Y0002225714D01*
X0003126428Y0002227142D01*
X0003129285Y0002228571D01*
X0003132142Y0002228571D01*
X0003136428Y0002227142D01*
X0003153571Y0002210000D01*
X0003153571Y0002228571D01*
X0003078571Y0002200000D02*
X0003064285Y0002190000D01*
X0003078571Y0002182857D02*
X0003048571Y0002182857D01*
X0003048571Y0002194285D01*
X0003049999Y0002197142D01*
X0003051428Y0002198571D01*
X0003054285Y0002200000D01*
X0003058571Y0002200000D01*
X0003061428Y0002198571D01*
X0003062857Y0002197142D01*
X0003064285Y0002194285D01*
X0003064285Y0002182857D01*
X0003078571Y0002228571D02*
X0003078571Y0002211428D01*
X0003078571Y0002220000D02*
X0003048571Y0002220000D01*
X0003052857Y0002217142D01*
X0003055714Y0002214285D01*
X0003057142Y0002211428D01*
M02*