%
M48
METRIC,000.000
T01C0.30
T02C1.00
T03C1.02
%
T01
X009778Y005968
X009778Y042037
X028066Y005968
X046354Y005968
X064641Y005968
X082930Y005968
X028066Y042037
X046354Y042037
X064641Y042037
X082930Y042037
T02
X004062Y001523
X006603Y001523
X009143Y001523
X011683Y001523
X014223Y001523
X016763Y001523
X004062Y037592
X006603Y037592
X009143Y037592
X011683Y037592
X014223Y037592
X016763Y037592
X022351Y001523
X024891Y001523
X027431Y001523
X029971Y001523
X032511Y001523
X035051Y001523
X040639Y001523
X043179Y001523
X045719Y001523
X048259Y001523
X050799Y001523
X053339Y001523
X058927Y001523
X061467Y001523
X064007Y001523
X066547Y001523
X069087Y001523
X071627Y001523
X077215Y001523
X079755Y001523
X082295Y001523
X084835Y001523
X087375Y001523
X089915Y001523
X022351Y037592
X024891Y037592
X027431Y037592
X029971Y037592
X032511Y037592
X035051Y037592
X040639Y037592
X043179Y037592
X045719Y037592
X048259Y037592
X050799Y037592
X053339Y037592
X058927Y037592
X061467Y037592
X064007Y037592
X066547Y037592
X069087Y037592
X071627Y037592
X077215Y037592
X079755Y037592
X082295Y037592
X084835Y037592
X087375Y037592
X089915Y037592
T03
X001523Y034543
X001523Y032003
X001523Y029463
X001523Y026923
X001523Y024383
X001523Y021843
X001523Y019303
X001523Y016763
X001523Y014223
X001523Y011683
X001523Y009143
X001523Y006603
X016763Y034543
X016763Y032003
X016763Y029463
X016763Y026923
X016763Y024383
X016763Y021843
X016763Y019303
X016763Y016763
X016763Y014223
X016763Y011683
X016763Y009143
X016763Y006603
X001523Y070612
X001523Y068072
X001523Y065532
X001523Y062992
X001523Y060452
X001523Y057912
X001523Y055372
X001523Y052832
X001523Y050292
X001523Y047752
X001523Y045212
X001523Y042672
X016763Y070612
X016763Y068072
X016763Y065532
X016763Y062992
X016763Y060452
X016763Y057912
X016763Y055372
X016763Y052832
X016763Y050292
X016763Y047752
X016763Y045212
X016763Y042672
X019811Y034543
X019811Y032003
X019811Y029463
X019811Y026923
X019811Y024383
X019811Y021843
X019811Y019303
X019811Y016763
X019811Y014223
X019811Y011683
X019811Y009143
X019811Y006603
X035051Y034543
X035051Y032003
X035051Y029463
X035051Y026923
X035051Y024383
X035051Y021843
X035051Y019303
X035051Y016763
X035051Y014223
X035051Y011683
X035051Y009143
X035051Y006603
X038099Y034543
X038099Y032003
X038099Y029463
X038099Y026923
X038099Y024383
X038099Y021843
X038099Y019303
X038099Y016763
X038099Y014223
X038099Y011683
X038099Y009143
X038099Y006603
X053339Y034543
X053339Y032003
X053339Y029463
X053339Y026923
X053339Y024383
X053339Y021843
X053339Y019303
X053339Y016763
X053339Y014223
X053339Y011683
X053339Y009143
X053339Y006603
X056387Y034543
X056387Y032003
X056387Y029463
X056387Y026923
X056387Y024383
X056387Y021843
X056387Y019303
X056387Y016763
X056387Y014223
X056387Y011683
X056387Y009143
X056387Y006603
X071627Y034543
X071627Y032003
X071627Y029463
X071627Y026923
X071627Y024383
X071627Y021843
X071627Y019303
X071627Y016763
X071627Y014223
X071627Y011683
X071627Y009143
X071627Y006603
X074675Y034543
X074675Y032003
X074675Y029463
X074675Y026923
X074675Y024383
X074675Y021843
X074675Y019303
X074675Y016763
X074675Y014223
X074675Y011683
X074675Y009143
X074675Y006603
X089915Y034543
X089915Y032003
X089915Y029463
X089915Y026923
X089915Y024383
X089915Y021843
X089915Y019303
X089915Y016763
X089915Y014223
X089915Y011683
X089915Y009143
X089915Y006603
X019811Y070612
X019811Y068072
X019811Y065532
X019811Y062992
X019811Y060452
X019811Y057912
X019811Y055372
X019811Y052832
X019811Y050292
X019811Y047752
X019811Y045212
X019811Y042672
X035051Y070612
X035051Y068072
X035051Y065532
X035051Y062992
X035051Y060452
X035051Y057912
X035051Y055372
X035051Y052832
X035051Y050292
X035051Y047752
X035051Y045212
X035051Y042672
X038099Y070612
X038099Y068072
X038099Y065532
X038099Y062992
X038099Y060452
X038099Y057912
X038099Y055372
X038099Y052832
X038099Y050292
X038099Y047752
X038099Y045212
X038099Y042672
X053339Y070612
X053339Y068072
X053339Y065532
X053339Y062992
X053339Y060452
X053339Y057912
X053339Y055372
X053339Y052832
X053339Y050292
X053339Y047752
X053339Y045212
X053339Y042672
X056387Y070612
X056387Y068072
X056387Y065532
X056387Y062992
X056387Y060452
X056387Y057912
X056387Y055372
X056387Y052832
X056387Y050292
X056387Y047752
X056387Y045212
X056387Y042672
X071627Y070612
X071627Y068072
X071627Y065532
X071627Y062992
X071627Y060452
X071627Y057912
X071627Y055372
X071627Y052832
X071627Y050292
X071627Y047752
X071627Y045212
X071627Y042672
X074675Y070612
X074675Y068072
X074675Y065532
X074675Y062992
X074675Y060452
X074675Y057912
X074675Y055372
X074675Y052832
X074675Y050292
X074675Y047752
X074675Y045212
X074675Y042672
X089915Y070612
X089915Y068072
X089915Y065532
X089915Y062992
X089915Y060452
X089915Y057912
X089915Y055372
X089915Y052832
X089915Y050292
X089915Y047752
X089915Y045212
X089915Y042672
M30