%MOIN*%
%OFA0B0*%
%FSLAX46Y46*%
%IPPOS*%
%LPD*%
%ADD10C,0.000039370078740157485*%
%ADD21C,0.000039370078740157485*%
%ADD22C,0.000039370078740157485*%
%ADD23C,0.000039370078740157485*%
%ADD24C,0.000039370078740157485*%
%ADD25C,0.000039370078740157485*%
%ADD26C,0.000039370078740157485*%
%ADD27C,0.000039370078740157485*%
%ADD28C,0.000039370078740157485*%
%ADD29C,0.000039370078740157485*%
D10*
X0000720000Y0001419999D02*
X0000000000Y0001419999D01*
X0000720000Y0000000000D02*
X0000720000Y0001419999D01*
X0000000000Y0000000000D02*
X0000720000Y0000000000D01*
X0000000000Y0001419999D02*
X0000000000Y0000000000D01*
G04 next file*
G04 #@! TF.GenerationSoftware,KiCad,Pcbnew,(5.1.4)-1*
G04 #@! TF.CreationDate,2019-12-18T21:33:12+01:00*
G04 #@! TF.ProjectId,ser,7365722e-6b69-4636-9164-5f7063625858,rev?*
G04 #@! TF.SameCoordinates,Original*
G04 #@! TF.FileFunction,Profile,NP*
G04 Gerber Fmt 4.6, Leading zero omitted, Abs format (unit mm)*
G04 Created by KiCad (PCBNEW (5.1.4)-1) date 2019-12-18 21:33:12*
G04 APERTURE LIST*
G04 APERTURE END LIST*
D21*
X0000720000Y0002840000D02*
X0000000000Y0002840000D01*
X0000720000Y0001420000D02*
X0000720000Y0002840000D01*
X0000000000Y0001420000D02*
X0000720000Y0001420000D01*
X0000000000Y0002840000D02*
X0000000000Y0001420000D01*
G04 next file*
G04 #@! TF.GenerationSoftware,KiCad,Pcbnew,(5.1.4)-1*
G04 #@! TF.CreationDate,2019-12-18T21:33:12+01:00*
G04 #@! TF.ProjectId,ser,7365722e-6b69-4636-9164-5f7063625858,rev?*
G04 #@! TF.SameCoordinates,Original*
G04 #@! TF.FileFunction,Profile,NP*
G04 Gerber Fmt 4.6, Leading zero omitted, Abs format (unit mm)*
G04 Created by KiCad (PCBNEW (5.1.4)-1) date 2019-12-18 21:33:12*
G04 APERTURE LIST*
G04 APERTURE END LIST*
D22*
X0001439999Y0001419999D02*
X0000719999Y0001419999D01*
X0001439999Y0000000000D02*
X0001439999Y0001419999D01*
X0000719999Y0000000000D02*
X0001439999Y0000000000D01*
X0000719999Y0001419999D02*
X0000719999Y0000000000D01*
G04 next file*
G04 #@! TF.GenerationSoftware,KiCad,Pcbnew,(5.1.4)-1*
G04 #@! TF.CreationDate,2019-12-18T21:33:12+01:00*
G04 #@! TF.ProjectId,ser,7365722e-6b69-4636-9164-5f7063625858,rev?*
G04 #@! TF.SameCoordinates,Original*
G04 #@! TF.FileFunction,Profile,NP*
G04 Gerber Fmt 4.6, Leading zero omitted, Abs format (unit mm)*
G04 Created by KiCad (PCBNEW (5.1.4)-1) date 2019-12-18 21:33:12*
G04 APERTURE LIST*
G04 APERTURE END LIST*
D23*
X0002159999Y0001419999D02*
X0001439999Y0001419999D01*
X0002159999Y0000000000D02*
X0002159999Y0001419999D01*
X0001439999Y0000000000D02*
X0002159999Y0000000000D01*
X0001439999Y0001419999D02*
X0001439999Y0000000000D01*
G04 next file*
G04 #@! TF.GenerationSoftware,KiCad,Pcbnew,(5.1.4)-1*
G04 #@! TF.CreationDate,2019-12-18T21:33:12+01:00*
G04 #@! TF.ProjectId,ser,7365722e-6b69-4636-9164-5f7063625858,rev?*
G04 #@! TF.SameCoordinates,Original*
G04 #@! TF.FileFunction,Profile,NP*
G04 Gerber Fmt 4.6, Leading zero omitted, Abs format (unit mm)*
G04 Created by KiCad (PCBNEW (5.1.4)-1) date 2019-12-18 21:33:12*
G04 APERTURE LIST*
G04 APERTURE END LIST*
D24*
X0002880000Y0001419999D02*
X0002160000Y0001419999D01*
X0002880000Y0000000000D02*
X0002880000Y0001419999D01*
X0002160000Y0000000000D02*
X0002880000Y0000000000D01*
X0002160000Y0001419999D02*
X0002160000Y0000000000D01*
G04 next file*
G04 #@! TF.GenerationSoftware,KiCad,Pcbnew,(5.1.4)-1*
G04 #@! TF.CreationDate,2019-12-18T21:33:12+01:00*
G04 #@! TF.ProjectId,ser,7365722e-6b69-4636-9164-5f7063625858,rev?*
G04 #@! TF.SameCoordinates,Original*
G04 #@! TF.FileFunction,Profile,NP*
G04 Gerber Fmt 4.6, Leading zero omitted, Abs format (unit mm)*
G04 Created by KiCad (PCBNEW (5.1.4)-1) date 2019-12-18 21:33:12*
G04 APERTURE LIST*
G04 APERTURE END LIST*
D25*
X0003599999Y0001419999D02*
X0002879999Y0001419999D01*
X0003599999Y0000000000D02*
X0003599999Y0001419999D01*
X0002879999Y0000000000D02*
X0003599999Y0000000000D01*
X0002879999Y0001419999D02*
X0002879999Y0000000000D01*
G04 next file*
G04 #@! TF.GenerationSoftware,KiCad,Pcbnew,(5.1.4)-1*
G04 #@! TF.CreationDate,2019-12-18T21:33:12+01:00*
G04 #@! TF.ProjectId,ser,7365722e-6b69-4636-9164-5f7063625858,rev?*
G04 #@! TF.SameCoordinates,Original*
G04 #@! TF.FileFunction,Profile,NP*
G04 Gerber Fmt 4.6, Leading zero omitted, Abs format (unit mm)*
G04 Created by KiCad (PCBNEW (5.1.4)-1) date 2019-12-18 21:33:12*
G04 APERTURE LIST*
G04 APERTURE END LIST*
D26*
X0001439999Y0002840000D02*
X0000719999Y0002840000D01*
X0001439999Y0001420000D02*
X0001439999Y0002840000D01*
X0000719999Y0001420000D02*
X0001439999Y0001420000D01*
X0000719999Y0002840000D02*
X0000719999Y0001420000D01*
G04 next file*
G04 #@! TF.GenerationSoftware,KiCad,Pcbnew,(5.1.4)-1*
G04 #@! TF.CreationDate,2019-12-18T21:33:12+01:00*
G04 #@! TF.ProjectId,ser,7365722e-6b69-4636-9164-5f7063625858,rev?*
G04 #@! TF.SameCoordinates,Original*
G04 #@! TF.FileFunction,Profile,NP*
G04 Gerber Fmt 4.6, Leading zero omitted, Abs format (unit mm)*
G04 Created by KiCad (PCBNEW (5.1.4)-1) date 2019-12-18 21:33:12*
G04 APERTURE LIST*
G04 APERTURE END LIST*
D27*
X0002159999Y0002840000D02*
X0001439999Y0002840000D01*
X0002159999Y0001420000D02*
X0002159999Y0002840000D01*
X0001439999Y0001420000D02*
X0002159999Y0001420000D01*
X0001439999Y0002840000D02*
X0001439999Y0001420000D01*
G04 next file*
G04 #@! TF.GenerationSoftware,KiCad,Pcbnew,(5.1.4)-1*
G04 #@! TF.CreationDate,2019-12-18T21:33:12+01:00*
G04 #@! TF.ProjectId,ser,7365722e-6b69-4636-9164-5f7063625858,rev?*
G04 #@! TF.SameCoordinates,Original*
G04 #@! TF.FileFunction,Profile,NP*
G04 Gerber Fmt 4.6, Leading zero omitted, Abs format (unit mm)*
G04 Created by KiCad (PCBNEW (5.1.4)-1) date 2019-12-18 21:33:12*
G04 APERTURE LIST*
G04 APERTURE END LIST*
D28*
X0002880000Y0002840000D02*
X0002160000Y0002840000D01*
X0002880000Y0001420000D02*
X0002880000Y0002840000D01*
X0002160000Y0001420000D02*
X0002880000Y0001420000D01*
X0002160000Y0002840000D02*
X0002160000Y0001420000D01*
G04 next file*
G04 #@! TF.GenerationSoftware,KiCad,Pcbnew,(5.1.4)-1*
G04 #@! TF.CreationDate,2019-12-18T21:33:12+01:00*
G04 #@! TF.ProjectId,ser,7365722e-6b69-4636-9164-5f7063625858,rev?*
G04 #@! TF.SameCoordinates,Original*
G04 #@! TF.FileFunction,Profile,NP*
G04 Gerber Fmt 4.6, Leading zero omitted, Abs format (unit mm)*
G04 Created by KiCad (PCBNEW (5.1.4)-1) date 2019-12-18 21:33:12*
G04 APERTURE LIST*
G04 APERTURE END LIST*
D29*
X0003599999Y0002840000D02*
X0002879999Y0002840000D01*
X0003599999Y0001420000D02*
X0003599999Y0002840000D01*
X0002879999Y0001420000D02*
X0003599999Y0001420000D01*
X0002879999Y0002840000D02*
X0002879999Y0001420000D01*
M02*