G04 #@! TF.GenerationSoftware,KiCad,Pcbnew,(5.1.4)-1*
G04 #@! TF.CreationDate,2019-12-18T21:33:11+01:00*
G04 #@! TF.ProjectId,ser,7365722e-6b69-4636-9164-5f7063625858,rev?*
G04 #@! TF.SameCoordinates,Original*
G04 #@! TF.FileFunction,Soldermask,Bot*
G04 #@! TF.FilePolarity,Negative*
%FSLAX46Y46*%
G04 Gerber Fmt 4.6, Leading zero omitted, Abs format (unit mm)*
G04 Created by KiCad (PCBNEW (5.1.4)-1) date 2019-12-18 21:33:11*
%MOMM*%
%LPD*%
G04 APERTURE LIST*
%ADD10C,0.100000*%
G04 APERTURE END LIST*
D10*
G36*
X133993842Y-118485518D02*
G01*
X134060027Y-118492037D01*
X134229866Y-118543557D01*
X134386391Y-118627222D01*
X134422129Y-118656552D01*
X134523586Y-118739814D01*
X134606848Y-118841271D01*
X134636178Y-118877009D01*
X134719843Y-119033534D01*
X134771363Y-119203373D01*
X134788759Y-119380000D01*
X134771363Y-119556627D01*
X134719843Y-119726466D01*
X134636178Y-119882991D01*
X134606848Y-119918729D01*
X134523586Y-120020186D01*
X134422129Y-120103448D01*
X134386391Y-120132778D01*
X134229866Y-120216443D01*
X134060027Y-120267963D01*
X133993842Y-120274482D01*
X133927660Y-120281000D01*
X133839140Y-120281000D01*
X133772958Y-120274482D01*
X133706773Y-120267963D01*
X133536934Y-120216443D01*
X133380409Y-120132778D01*
X133344671Y-120103448D01*
X133243214Y-120020186D01*
X133159952Y-119918729D01*
X133130622Y-119882991D01*
X133046957Y-119726466D01*
X132995437Y-119556627D01*
X132978041Y-119380000D01*
X132995437Y-119203373D01*
X133046957Y-119033534D01*
X133130622Y-118877009D01*
X133159952Y-118841271D01*
X133243214Y-118739814D01*
X133344671Y-118656552D01*
X133380409Y-118627222D01*
X133536934Y-118543557D01*
X133706773Y-118492037D01*
X133772958Y-118485518D01*
X133839140Y-118479000D01*
X133927660Y-118479000D01*
X133993842Y-118485518D01*
X133993842Y-118485518D01*
G37*
G36*
X136533842Y-118485518D02*
G01*
X136600027Y-118492037D01*
X136769866Y-118543557D01*
X136926391Y-118627222D01*
X136962129Y-118656552D01*
X137063586Y-118739814D01*
X137146848Y-118841271D01*
X137176178Y-118877009D01*
X137259843Y-119033534D01*
X137311363Y-119203373D01*
X137328759Y-119380000D01*
X137311363Y-119556627D01*
X137259843Y-119726466D01*
X137176178Y-119882991D01*
X137146848Y-119918729D01*
X137063586Y-120020186D01*
X136962129Y-120103448D01*
X136926391Y-120132778D01*
X136769866Y-120216443D01*
X136600027Y-120267963D01*
X136533842Y-120274482D01*
X136467660Y-120281000D01*
X136379140Y-120281000D01*
X136312958Y-120274482D01*
X136246773Y-120267963D01*
X136076934Y-120216443D01*
X135920409Y-120132778D01*
X135884671Y-120103448D01*
X135783214Y-120020186D01*
X135699952Y-119918729D01*
X135670622Y-119882991D01*
X135586957Y-119726466D01*
X135535437Y-119556627D01*
X135518041Y-119380000D01*
X135535437Y-119203373D01*
X135586957Y-119033534D01*
X135670622Y-118877009D01*
X135699952Y-118841271D01*
X135783214Y-118739814D01*
X135884671Y-118656552D01*
X135920409Y-118627222D01*
X136076934Y-118543557D01*
X136246773Y-118492037D01*
X136312958Y-118485518D01*
X136379140Y-118479000D01*
X136467660Y-118479000D01*
X136533842Y-118485518D01*
X136533842Y-118485518D01*
G37*
G36*
X139073842Y-118485518D02*
G01*
X139140027Y-118492037D01*
X139309866Y-118543557D01*
X139466391Y-118627222D01*
X139502129Y-118656552D01*
X139603586Y-118739814D01*
X139686848Y-118841271D01*
X139716178Y-118877009D01*
X139799843Y-119033534D01*
X139851363Y-119203373D01*
X139868759Y-119380000D01*
X139851363Y-119556627D01*
X139799843Y-119726466D01*
X139716178Y-119882991D01*
X139686848Y-119918729D01*
X139603586Y-120020186D01*
X139502129Y-120103448D01*
X139466391Y-120132778D01*
X139309866Y-120216443D01*
X139140027Y-120267963D01*
X139073842Y-120274482D01*
X139007660Y-120281000D01*
X138919140Y-120281000D01*
X138852958Y-120274482D01*
X138786773Y-120267963D01*
X138616934Y-120216443D01*
X138460409Y-120132778D01*
X138424671Y-120103448D01*
X138323214Y-120020186D01*
X138239952Y-119918729D01*
X138210622Y-119882991D01*
X138126957Y-119726466D01*
X138075437Y-119556627D01*
X138058041Y-119380000D01*
X138075437Y-119203373D01*
X138126957Y-119033534D01*
X138210622Y-118877009D01*
X138239952Y-118841271D01*
X138323214Y-118739814D01*
X138424671Y-118656552D01*
X138460409Y-118627222D01*
X138616934Y-118543557D01*
X138786773Y-118492037D01*
X138852958Y-118485518D01*
X138919140Y-118479000D01*
X139007660Y-118479000D01*
X139073842Y-118485518D01*
X139073842Y-118485518D01*
G37*
G36*
X141613842Y-118485518D02*
G01*
X141680027Y-118492037D01*
X141849866Y-118543557D01*
X142006391Y-118627222D01*
X142042129Y-118656552D01*
X142143586Y-118739814D01*
X142226848Y-118841271D01*
X142256178Y-118877009D01*
X142339843Y-119033534D01*
X142391363Y-119203373D01*
X142408759Y-119380000D01*
X142391363Y-119556627D01*
X142339843Y-119726466D01*
X142256178Y-119882991D01*
X142226848Y-119918729D01*
X142143586Y-120020186D01*
X142042129Y-120103448D01*
X142006391Y-120132778D01*
X141849866Y-120216443D01*
X141680027Y-120267963D01*
X141613842Y-120274482D01*
X141547660Y-120281000D01*
X141459140Y-120281000D01*
X141392958Y-120274482D01*
X141326773Y-120267963D01*
X141156934Y-120216443D01*
X141000409Y-120132778D01*
X140964671Y-120103448D01*
X140863214Y-120020186D01*
X140779952Y-119918729D01*
X140750622Y-119882991D01*
X140666957Y-119726466D01*
X140615437Y-119556627D01*
X140598041Y-119380000D01*
X140615437Y-119203373D01*
X140666957Y-119033534D01*
X140750622Y-118877009D01*
X140779952Y-118841271D01*
X140863214Y-118739814D01*
X140964671Y-118656552D01*
X141000409Y-118627222D01*
X141156934Y-118543557D01*
X141326773Y-118492037D01*
X141392958Y-118485518D01*
X141459140Y-118479000D01*
X141547660Y-118479000D01*
X141613842Y-118485518D01*
X141613842Y-118485518D01*
G37*
G36*
X147484400Y-120281000D02*
G01*
X145682400Y-120281000D01*
X145682400Y-118479000D01*
X147484400Y-118479000D01*
X147484400Y-120281000D01*
X147484400Y-120281000D01*
G37*
G36*
X144153842Y-118485518D02*
G01*
X144220027Y-118492037D01*
X144389866Y-118543557D01*
X144546391Y-118627222D01*
X144582129Y-118656552D01*
X144683586Y-118739814D01*
X144766848Y-118841271D01*
X144796178Y-118877009D01*
X144879843Y-119033534D01*
X144931363Y-119203373D01*
X144948759Y-119380000D01*
X144931363Y-119556627D01*
X144879843Y-119726466D01*
X144796178Y-119882991D01*
X144766848Y-119918729D01*
X144683586Y-120020186D01*
X144582129Y-120103448D01*
X144546391Y-120132778D01*
X144389866Y-120216443D01*
X144220027Y-120267963D01*
X144153842Y-120274482D01*
X144087660Y-120281000D01*
X143999140Y-120281000D01*
X143932958Y-120274482D01*
X143866773Y-120267963D01*
X143696934Y-120216443D01*
X143540409Y-120132778D01*
X143504671Y-120103448D01*
X143403214Y-120020186D01*
X143319952Y-119918729D01*
X143290622Y-119882991D01*
X143206957Y-119726466D01*
X143155437Y-119556627D01*
X143138041Y-119380000D01*
X143155437Y-119203373D01*
X143206957Y-119033534D01*
X143290622Y-118877009D01*
X143319952Y-118841271D01*
X143403214Y-118739814D01*
X143504671Y-118656552D01*
X143540409Y-118627222D01*
X143696934Y-118543557D01*
X143866773Y-118492037D01*
X143932958Y-118485518D01*
X143999140Y-118479000D01*
X144087660Y-118479000D01*
X144153842Y-118485518D01*
X144153842Y-118485518D01*
G37*
G36*
X141917899Y-114413445D02*
G01*
X141955395Y-114424820D01*
X141989954Y-114443292D01*
X142020247Y-114468153D01*
X142045108Y-114498446D01*
X142063580Y-114533005D01*
X142074955Y-114570501D01*
X142079400Y-114615638D01*
X142079400Y-115254362D01*
X142074955Y-115299499D01*
X142063580Y-115336995D01*
X142045108Y-115371554D01*
X142020247Y-115401847D01*
X141989954Y-115426708D01*
X141955395Y-115445180D01*
X141917899Y-115456555D01*
X141872762Y-115461000D01*
X141134038Y-115461000D01*
X141088901Y-115456555D01*
X141051405Y-115445180D01*
X141016846Y-115426708D01*
X140986553Y-115401847D01*
X140961692Y-115371554D01*
X140943220Y-115336995D01*
X140931845Y-115299499D01*
X140927400Y-115254362D01*
X140927400Y-114615638D01*
X140931845Y-114570501D01*
X140943220Y-114533005D01*
X140961692Y-114498446D01*
X140986553Y-114468153D01*
X141016846Y-114443292D01*
X141051405Y-114424820D01*
X141088901Y-114413445D01*
X141134038Y-114409000D01*
X141872762Y-114409000D01*
X141917899Y-114413445D01*
X141917899Y-114413445D01*
G37*
G36*
X143667899Y-114413445D02*
G01*
X143705395Y-114424820D01*
X143739954Y-114443292D01*
X143770247Y-114468153D01*
X143795108Y-114498446D01*
X143813580Y-114533005D01*
X143824955Y-114570501D01*
X143829400Y-114615638D01*
X143829400Y-115254362D01*
X143824955Y-115299499D01*
X143813580Y-115336995D01*
X143795108Y-115371554D01*
X143770247Y-115401847D01*
X143739954Y-115426708D01*
X143705395Y-115445180D01*
X143667899Y-115456555D01*
X143622762Y-115461000D01*
X142884038Y-115461000D01*
X142838901Y-115456555D01*
X142801405Y-115445180D01*
X142766846Y-115426708D01*
X142736553Y-115401847D01*
X142711692Y-115371554D01*
X142693220Y-115336995D01*
X142681845Y-115299499D01*
X142677400Y-115254362D01*
X142677400Y-114615638D01*
X142681845Y-114570501D01*
X142693220Y-114533005D01*
X142711692Y-114498446D01*
X142736553Y-114468153D01*
X142766846Y-114443292D01*
X142801405Y-114424820D01*
X142838901Y-114413445D01*
X142884038Y-114409000D01*
X143622762Y-114409000D01*
X143667899Y-114413445D01*
X143667899Y-114413445D01*
G37*
G36*
X146872403Y-113347275D02*
G01*
X146872405Y-113347276D01*
X146872406Y-113347276D01*
X147052720Y-113421964D01*
X147214998Y-113530395D01*
X147353005Y-113668402D01*
X147461436Y-113830680D01*
X147536124Y-114010994D01*
X147536125Y-114010997D01*
X147574200Y-114202413D01*
X147574200Y-114397587D01*
X147539636Y-114571354D01*
X147536124Y-114589006D01*
X147461436Y-114769320D01*
X147353005Y-114931598D01*
X147214998Y-115069605D01*
X147052720Y-115178036D01*
X146872406Y-115252724D01*
X146872405Y-115252724D01*
X146872403Y-115252725D01*
X146680987Y-115290800D01*
X146485813Y-115290800D01*
X146294397Y-115252725D01*
X146294395Y-115252724D01*
X146294394Y-115252724D01*
X146114080Y-115178036D01*
X145951802Y-115069605D01*
X145813795Y-114931598D01*
X145705364Y-114769320D01*
X145630676Y-114589006D01*
X145627165Y-114571354D01*
X145592600Y-114397587D01*
X145592600Y-114202413D01*
X145630675Y-114010997D01*
X145630676Y-114010994D01*
X145705364Y-113830680D01*
X145813795Y-113668402D01*
X145951802Y-113530395D01*
X146114080Y-113421964D01*
X146294394Y-113347276D01*
X146294395Y-113347276D01*
X146294397Y-113347275D01*
X146485813Y-113309200D01*
X146680987Y-113309200D01*
X146872403Y-113347275D01*
X146872403Y-113347275D01*
G37*
G36*
X131632403Y-113347275D02*
G01*
X131632405Y-113347276D01*
X131632406Y-113347276D01*
X131812720Y-113421964D01*
X131974998Y-113530395D01*
X132113005Y-113668402D01*
X132221436Y-113830680D01*
X132296124Y-114010994D01*
X132296125Y-114010997D01*
X132334200Y-114202413D01*
X132334200Y-114397587D01*
X132299636Y-114571354D01*
X132296124Y-114589006D01*
X132221436Y-114769320D01*
X132113005Y-114931598D01*
X131974998Y-115069605D01*
X131812720Y-115178036D01*
X131632406Y-115252724D01*
X131632405Y-115252724D01*
X131632403Y-115252725D01*
X131440987Y-115290800D01*
X131245813Y-115290800D01*
X131054397Y-115252725D01*
X131054395Y-115252724D01*
X131054394Y-115252724D01*
X130874080Y-115178036D01*
X130711802Y-115069605D01*
X130573795Y-114931598D01*
X130465364Y-114769320D01*
X130390676Y-114589006D01*
X130387165Y-114571354D01*
X130352600Y-114397587D01*
X130352600Y-114202413D01*
X130390675Y-114010997D01*
X130390676Y-114010994D01*
X130465364Y-113830680D01*
X130573795Y-113668402D01*
X130711802Y-113530395D01*
X130874080Y-113421964D01*
X131054394Y-113347276D01*
X131054395Y-113347276D01*
X131054397Y-113347275D01*
X131245813Y-113309200D01*
X131440987Y-113309200D01*
X131632403Y-113347275D01*
X131632403Y-113347275D01*
G37*
G36*
X139949400Y-114016000D02*
G01*
X139247400Y-114016000D01*
X139247400Y-112364000D01*
X139949400Y-112364000D01*
X139949400Y-114016000D01*
X139949400Y-114016000D01*
G37*
G36*
X136139400Y-114016000D02*
G01*
X135437400Y-114016000D01*
X135437400Y-112364000D01*
X136139400Y-112364000D01*
X136139400Y-114016000D01*
X136139400Y-114016000D01*
G37*
G36*
X137409400Y-114016000D02*
G01*
X136707400Y-114016000D01*
X136707400Y-112364000D01*
X137409400Y-112364000D01*
X137409400Y-114016000D01*
X137409400Y-114016000D01*
G37*
G36*
X138679400Y-114016000D02*
G01*
X137977400Y-114016000D01*
X137977400Y-112364000D01*
X138679400Y-112364000D01*
X138679400Y-114016000D01*
X138679400Y-114016000D01*
G37*
G36*
X146872403Y-110807275D02*
G01*
X146872405Y-110807276D01*
X146872406Y-110807276D01*
X147052720Y-110881964D01*
X147214998Y-110990395D01*
X147353005Y-111128402D01*
X147461436Y-111290680D01*
X147536124Y-111470994D01*
X147574200Y-111662415D01*
X147574200Y-111857585D01*
X147536124Y-112049006D01*
X147461436Y-112229320D01*
X147353005Y-112391598D01*
X147214998Y-112529605D01*
X147052720Y-112638036D01*
X146872406Y-112712724D01*
X146872405Y-112712724D01*
X146872403Y-112712725D01*
X146680987Y-112750800D01*
X146485813Y-112750800D01*
X146294397Y-112712725D01*
X146294395Y-112712724D01*
X146294394Y-112712724D01*
X146114080Y-112638036D01*
X145951802Y-112529605D01*
X145813795Y-112391598D01*
X145705364Y-112229320D01*
X145630676Y-112049006D01*
X145592600Y-111857585D01*
X145592600Y-111662415D01*
X145630676Y-111470994D01*
X145705364Y-111290680D01*
X145813795Y-111128402D01*
X145951802Y-110990395D01*
X146114080Y-110881964D01*
X146294394Y-110807276D01*
X146294395Y-110807276D01*
X146294397Y-110807275D01*
X146485813Y-110769200D01*
X146680987Y-110769200D01*
X146872403Y-110807275D01*
X146872403Y-110807275D01*
G37*
G36*
X131632403Y-110807275D02*
G01*
X131632405Y-110807276D01*
X131632406Y-110807276D01*
X131812720Y-110881964D01*
X131974998Y-110990395D01*
X132113005Y-111128402D01*
X132221436Y-111290680D01*
X132296124Y-111470994D01*
X132334200Y-111662415D01*
X132334200Y-111857585D01*
X132296124Y-112049006D01*
X132221436Y-112229320D01*
X132113005Y-112391598D01*
X131974998Y-112529605D01*
X131812720Y-112638036D01*
X131632406Y-112712724D01*
X131632405Y-112712724D01*
X131632403Y-112712725D01*
X131440987Y-112750800D01*
X131245813Y-112750800D01*
X131054397Y-112712725D01*
X131054395Y-112712724D01*
X131054394Y-112712724D01*
X130874080Y-112638036D01*
X130711802Y-112529605D01*
X130573795Y-112391598D01*
X130465364Y-112229320D01*
X130390676Y-112049006D01*
X130352600Y-111857585D01*
X130352600Y-111662415D01*
X130390676Y-111470994D01*
X130465364Y-111290680D01*
X130573795Y-111128402D01*
X130711802Y-110990395D01*
X130874080Y-110881964D01*
X131054394Y-110807276D01*
X131054395Y-110807276D01*
X131054397Y-110807275D01*
X131245813Y-110769200D01*
X131440987Y-110769200D01*
X131632403Y-110807275D01*
X131632403Y-110807275D01*
G37*
G36*
X146872403Y-108267275D02*
G01*
X146872405Y-108267276D01*
X146872406Y-108267276D01*
X147052720Y-108341964D01*
X147214998Y-108450395D01*
X147353005Y-108588402D01*
X147461436Y-108750680D01*
X147536124Y-108930994D01*
X147574200Y-109122415D01*
X147574200Y-109317585D01*
X147536124Y-109509006D01*
X147461436Y-109689320D01*
X147353005Y-109851598D01*
X147214998Y-109989605D01*
X147052720Y-110098036D01*
X146872406Y-110172724D01*
X146872405Y-110172724D01*
X146872403Y-110172725D01*
X146680987Y-110210800D01*
X146485813Y-110210800D01*
X146294397Y-110172725D01*
X146294395Y-110172724D01*
X146294394Y-110172724D01*
X146114080Y-110098036D01*
X145951802Y-109989605D01*
X145813795Y-109851598D01*
X145705364Y-109689320D01*
X145630676Y-109509006D01*
X145592600Y-109317585D01*
X145592600Y-109122415D01*
X145630676Y-108930994D01*
X145705364Y-108750680D01*
X145813795Y-108588402D01*
X145951802Y-108450395D01*
X146114080Y-108341964D01*
X146294394Y-108267276D01*
X146294395Y-108267276D01*
X146294397Y-108267275D01*
X146485813Y-108229200D01*
X146680987Y-108229200D01*
X146872403Y-108267275D01*
X146872403Y-108267275D01*
G37*
G36*
X131632403Y-108267275D02*
G01*
X131632405Y-108267276D01*
X131632406Y-108267276D01*
X131812720Y-108341964D01*
X131974998Y-108450395D01*
X132113005Y-108588402D01*
X132221436Y-108750680D01*
X132296124Y-108930994D01*
X132334200Y-109122415D01*
X132334200Y-109317585D01*
X132296124Y-109509006D01*
X132221436Y-109689320D01*
X132113005Y-109851598D01*
X131974998Y-109989605D01*
X131812720Y-110098036D01*
X131632406Y-110172724D01*
X131632405Y-110172724D01*
X131632403Y-110172725D01*
X131440987Y-110210800D01*
X131245813Y-110210800D01*
X131054397Y-110172725D01*
X131054395Y-110172724D01*
X131054394Y-110172724D01*
X130874080Y-110098036D01*
X130711802Y-109989605D01*
X130573795Y-109851598D01*
X130465364Y-109689320D01*
X130390676Y-109509006D01*
X130352600Y-109317585D01*
X130352600Y-109122415D01*
X130390676Y-108930994D01*
X130465364Y-108750680D01*
X130573795Y-108588402D01*
X130711802Y-108450395D01*
X130874080Y-108341964D01*
X131054394Y-108267276D01*
X131054395Y-108267276D01*
X131054397Y-108267275D01*
X131245813Y-108229200D01*
X131440987Y-108229200D01*
X131632403Y-108267275D01*
X131632403Y-108267275D01*
G37*
G36*
X136139400Y-108616000D02*
G01*
X135437400Y-108616000D01*
X135437400Y-106964000D01*
X136139400Y-106964000D01*
X136139400Y-108616000D01*
X136139400Y-108616000D01*
G37*
G36*
X137409400Y-108616000D02*
G01*
X136707400Y-108616000D01*
X136707400Y-106964000D01*
X137409400Y-106964000D01*
X137409400Y-108616000D01*
X137409400Y-108616000D01*
G37*
G36*
X139949400Y-108616000D02*
G01*
X139247400Y-108616000D01*
X139247400Y-106964000D01*
X139949400Y-106964000D01*
X139949400Y-108616000D01*
X139949400Y-108616000D01*
G37*
G36*
X138679400Y-108616000D02*
G01*
X137977400Y-108616000D01*
X137977400Y-106964000D01*
X138679400Y-106964000D01*
X138679400Y-108616000D01*
X138679400Y-108616000D01*
G37*
G36*
X146872403Y-105727275D02*
G01*
X146872405Y-105727276D01*
X146872406Y-105727276D01*
X147052720Y-105801964D01*
X147214998Y-105910395D01*
X147353005Y-106048402D01*
X147461436Y-106210680D01*
X147536124Y-106390994D01*
X147536125Y-106390997D01*
X147574200Y-106582413D01*
X147574200Y-106777585D01*
X147536124Y-106969006D01*
X147461436Y-107149320D01*
X147353005Y-107311598D01*
X147214998Y-107449605D01*
X147052720Y-107558036D01*
X146872406Y-107632724D01*
X146872405Y-107632724D01*
X146872403Y-107632725D01*
X146680987Y-107670800D01*
X146485813Y-107670800D01*
X146294397Y-107632725D01*
X146294395Y-107632724D01*
X146294394Y-107632724D01*
X146114080Y-107558036D01*
X145951802Y-107449605D01*
X145813795Y-107311598D01*
X145705364Y-107149320D01*
X145630676Y-106969006D01*
X145592600Y-106777585D01*
X145592600Y-106582413D01*
X145630675Y-106390997D01*
X145630676Y-106390994D01*
X145705364Y-106210680D01*
X145813795Y-106048402D01*
X145951802Y-105910395D01*
X146114080Y-105801964D01*
X146294394Y-105727276D01*
X146294395Y-105727276D01*
X146294397Y-105727275D01*
X146485813Y-105689200D01*
X146680987Y-105689200D01*
X146872403Y-105727275D01*
X146872403Y-105727275D01*
G37*
G36*
X131632403Y-105727275D02*
G01*
X131632405Y-105727276D01*
X131632406Y-105727276D01*
X131812720Y-105801964D01*
X131974998Y-105910395D01*
X132113005Y-106048402D01*
X132221436Y-106210680D01*
X132296124Y-106390994D01*
X132296125Y-106390997D01*
X132334200Y-106582413D01*
X132334200Y-106777585D01*
X132296124Y-106969006D01*
X132221436Y-107149320D01*
X132113005Y-107311598D01*
X131974998Y-107449605D01*
X131812720Y-107558036D01*
X131632406Y-107632724D01*
X131632405Y-107632724D01*
X131632403Y-107632725D01*
X131440987Y-107670800D01*
X131245813Y-107670800D01*
X131054397Y-107632725D01*
X131054395Y-107632724D01*
X131054394Y-107632724D01*
X130874080Y-107558036D01*
X130711802Y-107449605D01*
X130573795Y-107311598D01*
X130465364Y-107149320D01*
X130390676Y-106969006D01*
X130352600Y-106777585D01*
X130352600Y-106582413D01*
X130390675Y-106390997D01*
X130390676Y-106390994D01*
X130465364Y-106210680D01*
X130573795Y-106048402D01*
X130711802Y-105910395D01*
X130874080Y-105801964D01*
X131054394Y-105727276D01*
X131054395Y-105727276D01*
X131054397Y-105727275D01*
X131245813Y-105689200D01*
X131440987Y-105689200D01*
X131632403Y-105727275D01*
X131632403Y-105727275D01*
G37*
G36*
X143667899Y-105523445D02*
G01*
X143705395Y-105534820D01*
X143739954Y-105553292D01*
X143770247Y-105578153D01*
X143795108Y-105608446D01*
X143813580Y-105643005D01*
X143824955Y-105680501D01*
X143829400Y-105725638D01*
X143829400Y-106364362D01*
X143824955Y-106409499D01*
X143813580Y-106446995D01*
X143795108Y-106481554D01*
X143770247Y-106511847D01*
X143739954Y-106536708D01*
X143705395Y-106555180D01*
X143667899Y-106566555D01*
X143622762Y-106571000D01*
X142884038Y-106571000D01*
X142838901Y-106566555D01*
X142801405Y-106555180D01*
X142766846Y-106536708D01*
X142736553Y-106511847D01*
X142711692Y-106481554D01*
X142693220Y-106446995D01*
X142681845Y-106409499D01*
X142677400Y-106364362D01*
X142677400Y-105725638D01*
X142681845Y-105680501D01*
X142693220Y-105643005D01*
X142711692Y-105608446D01*
X142736553Y-105578153D01*
X142766846Y-105553292D01*
X142801405Y-105534820D01*
X142838901Y-105523445D01*
X142884038Y-105519000D01*
X143622762Y-105519000D01*
X143667899Y-105523445D01*
X143667899Y-105523445D01*
G37*
G36*
X141917899Y-105523445D02*
G01*
X141955395Y-105534820D01*
X141989954Y-105553292D01*
X142020247Y-105578153D01*
X142045108Y-105608446D01*
X142063580Y-105643005D01*
X142074955Y-105680501D01*
X142079400Y-105725638D01*
X142079400Y-106364362D01*
X142074955Y-106409499D01*
X142063580Y-106446995D01*
X142045108Y-106481554D01*
X142020247Y-106511847D01*
X141989954Y-106536708D01*
X141955395Y-106555180D01*
X141917899Y-106566555D01*
X141872762Y-106571000D01*
X141134038Y-106571000D01*
X141088901Y-106566555D01*
X141051405Y-106555180D01*
X141016846Y-106536708D01*
X140986553Y-106511847D01*
X140961692Y-106481554D01*
X140943220Y-106446995D01*
X140931845Y-106409499D01*
X140927400Y-106364362D01*
X140927400Y-105725638D01*
X140931845Y-105680501D01*
X140943220Y-105643005D01*
X140961692Y-105608446D01*
X140986553Y-105578153D01*
X141016846Y-105553292D01*
X141051405Y-105534820D01*
X141088901Y-105523445D01*
X141134038Y-105519000D01*
X141872762Y-105519000D01*
X141917899Y-105523445D01*
X141917899Y-105523445D01*
G37*
G36*
X146872403Y-103187275D02*
G01*
X146872405Y-103187276D01*
X146872406Y-103187276D01*
X147052720Y-103261964D01*
X147214998Y-103370395D01*
X147353005Y-103508402D01*
X147461436Y-103670680D01*
X147536124Y-103850994D01*
X147574200Y-104042415D01*
X147574200Y-104237585D01*
X147536124Y-104429006D01*
X147461436Y-104609320D01*
X147353005Y-104771598D01*
X147214998Y-104909605D01*
X147052720Y-105018036D01*
X146872406Y-105092724D01*
X146872405Y-105092724D01*
X146872403Y-105092725D01*
X146680987Y-105130800D01*
X146485813Y-105130800D01*
X146294397Y-105092725D01*
X146294395Y-105092724D01*
X146294394Y-105092724D01*
X146114080Y-105018036D01*
X145951802Y-104909605D01*
X145813795Y-104771598D01*
X145705364Y-104609320D01*
X145630676Y-104429006D01*
X145592600Y-104237585D01*
X145592600Y-104042415D01*
X145630676Y-103850994D01*
X145705364Y-103670680D01*
X145813795Y-103508402D01*
X145951802Y-103370395D01*
X146114080Y-103261964D01*
X146294394Y-103187276D01*
X146294395Y-103187276D01*
X146294397Y-103187275D01*
X146485813Y-103149200D01*
X146680987Y-103149200D01*
X146872403Y-103187275D01*
X146872403Y-103187275D01*
G37*
G36*
X131632403Y-103187275D02*
G01*
X131632405Y-103187276D01*
X131632406Y-103187276D01*
X131812720Y-103261964D01*
X131974998Y-103370395D01*
X132113005Y-103508402D01*
X132221436Y-103670680D01*
X132296124Y-103850994D01*
X132334200Y-104042415D01*
X132334200Y-104237585D01*
X132296124Y-104429006D01*
X132221436Y-104609320D01*
X132113005Y-104771598D01*
X131974998Y-104909605D01*
X131812720Y-105018036D01*
X131632406Y-105092724D01*
X131632405Y-105092724D01*
X131632403Y-105092725D01*
X131440987Y-105130800D01*
X131245813Y-105130800D01*
X131054397Y-105092725D01*
X131054395Y-105092724D01*
X131054394Y-105092724D01*
X130874080Y-105018036D01*
X130711802Y-104909605D01*
X130573795Y-104771598D01*
X130465364Y-104609320D01*
X130390676Y-104429006D01*
X130352600Y-104237585D01*
X130352600Y-104042415D01*
X130390676Y-103850994D01*
X130465364Y-103670680D01*
X130573795Y-103508402D01*
X130711802Y-103370395D01*
X130874080Y-103261964D01*
X131054394Y-103187276D01*
X131054395Y-103187276D01*
X131054397Y-103187275D01*
X131245813Y-103149200D01*
X131440987Y-103149200D01*
X131632403Y-103187275D01*
X131632403Y-103187275D01*
G37*
G36*
X131632403Y-100647275D02*
G01*
X131632405Y-100647276D01*
X131632406Y-100647276D01*
X131812720Y-100721964D01*
X131974998Y-100830395D01*
X132113005Y-100968402D01*
X132221436Y-101130680D01*
X132296124Y-101310994D01*
X132334200Y-101502415D01*
X132334200Y-101697585D01*
X132296124Y-101889006D01*
X132221436Y-102069320D01*
X132113005Y-102231598D01*
X131974998Y-102369605D01*
X131812720Y-102478036D01*
X131632406Y-102552724D01*
X131632405Y-102552724D01*
X131632403Y-102552725D01*
X131440987Y-102590800D01*
X131245813Y-102590800D01*
X131054397Y-102552725D01*
X131054395Y-102552724D01*
X131054394Y-102552724D01*
X130874080Y-102478036D01*
X130711802Y-102369605D01*
X130573795Y-102231598D01*
X130465364Y-102069320D01*
X130390676Y-101889006D01*
X130352600Y-101697585D01*
X130352600Y-101502415D01*
X130390676Y-101310994D01*
X130465364Y-101130680D01*
X130573795Y-100968402D01*
X130711802Y-100830395D01*
X130874080Y-100721964D01*
X131054394Y-100647276D01*
X131054395Y-100647276D01*
X131054397Y-100647275D01*
X131245813Y-100609200D01*
X131440987Y-100609200D01*
X131632403Y-100647275D01*
X131632403Y-100647275D01*
G37*
G36*
X146872403Y-100647275D02*
G01*
X146872405Y-100647276D01*
X146872406Y-100647276D01*
X147052720Y-100721964D01*
X147214998Y-100830395D01*
X147353005Y-100968402D01*
X147461436Y-101130680D01*
X147536124Y-101310994D01*
X147574200Y-101502415D01*
X147574200Y-101697585D01*
X147536124Y-101889006D01*
X147461436Y-102069320D01*
X147353005Y-102231598D01*
X147214998Y-102369605D01*
X147052720Y-102478036D01*
X146872406Y-102552724D01*
X146872405Y-102552724D01*
X146872403Y-102552725D01*
X146680987Y-102590800D01*
X146485813Y-102590800D01*
X146294397Y-102552725D01*
X146294395Y-102552724D01*
X146294394Y-102552724D01*
X146114080Y-102478036D01*
X145951802Y-102369605D01*
X145813795Y-102231598D01*
X145705364Y-102069320D01*
X145630676Y-101889006D01*
X145592600Y-101697585D01*
X145592600Y-101502415D01*
X145630676Y-101310994D01*
X145705364Y-101130680D01*
X145813795Y-100968402D01*
X145951802Y-100830395D01*
X146114080Y-100721964D01*
X146294394Y-100647276D01*
X146294395Y-100647276D01*
X146294397Y-100647275D01*
X146485813Y-100609200D01*
X146680987Y-100609200D01*
X146872403Y-100647275D01*
X146872403Y-100647275D01*
G37*
G36*
X146872403Y-98107275D02*
G01*
X146872405Y-98107276D01*
X146872406Y-98107276D01*
X147052720Y-98181964D01*
X147214998Y-98290395D01*
X147353005Y-98428402D01*
X147461436Y-98590680D01*
X147536124Y-98770994D01*
X147574200Y-98962415D01*
X147574200Y-99157585D01*
X147536124Y-99349006D01*
X147461436Y-99529320D01*
X147353005Y-99691598D01*
X147214998Y-99829605D01*
X147052720Y-99938036D01*
X146872406Y-100012724D01*
X146872405Y-100012724D01*
X146872403Y-100012725D01*
X146680987Y-100050800D01*
X146485813Y-100050800D01*
X146294397Y-100012725D01*
X146294395Y-100012724D01*
X146294394Y-100012724D01*
X146114080Y-99938036D01*
X145951802Y-99829605D01*
X145813795Y-99691598D01*
X145705364Y-99529320D01*
X145630676Y-99349006D01*
X145592600Y-99157585D01*
X145592600Y-98962415D01*
X145630676Y-98770994D01*
X145705364Y-98590680D01*
X145813795Y-98428402D01*
X145951802Y-98290395D01*
X146114080Y-98181964D01*
X146294394Y-98107276D01*
X146294395Y-98107276D01*
X146294397Y-98107275D01*
X146485813Y-98069200D01*
X146680987Y-98069200D01*
X146872403Y-98107275D01*
X146872403Y-98107275D01*
G37*
G36*
X131632403Y-98107275D02*
G01*
X131632405Y-98107276D01*
X131632406Y-98107276D01*
X131812720Y-98181964D01*
X131974998Y-98290395D01*
X132113005Y-98428402D01*
X132221436Y-98590680D01*
X132296124Y-98770994D01*
X132334200Y-98962415D01*
X132334200Y-99157585D01*
X132296124Y-99349006D01*
X132221436Y-99529320D01*
X132113005Y-99691598D01*
X131974998Y-99829605D01*
X131812720Y-99938036D01*
X131632406Y-100012724D01*
X131632405Y-100012724D01*
X131632403Y-100012725D01*
X131440987Y-100050800D01*
X131245813Y-100050800D01*
X131054397Y-100012725D01*
X131054395Y-100012724D01*
X131054394Y-100012724D01*
X130874080Y-99938036D01*
X130711802Y-99829605D01*
X130573795Y-99691598D01*
X130465364Y-99529320D01*
X130390676Y-99349006D01*
X130352600Y-99157585D01*
X130352600Y-98962415D01*
X130390676Y-98770994D01*
X130465364Y-98590680D01*
X130573795Y-98428402D01*
X130711802Y-98290395D01*
X130874080Y-98181964D01*
X131054394Y-98107276D01*
X131054395Y-98107276D01*
X131054397Y-98107275D01*
X131245813Y-98069200D01*
X131440987Y-98069200D01*
X131632403Y-98107275D01*
X131632403Y-98107275D01*
G37*
G36*
X146872403Y-95567275D02*
G01*
X146872405Y-95567276D01*
X146872406Y-95567276D01*
X147052720Y-95641964D01*
X147214998Y-95750395D01*
X147353005Y-95888402D01*
X147461436Y-96050680D01*
X147536124Y-96230994D01*
X147574200Y-96422415D01*
X147574200Y-96617585D01*
X147536124Y-96809006D01*
X147461436Y-96989320D01*
X147353005Y-97151598D01*
X147214998Y-97289605D01*
X147052720Y-97398036D01*
X146872406Y-97472724D01*
X146872405Y-97472724D01*
X146872403Y-97472725D01*
X146680987Y-97510800D01*
X146485813Y-97510800D01*
X146294397Y-97472725D01*
X146294395Y-97472724D01*
X146294394Y-97472724D01*
X146114080Y-97398036D01*
X145951802Y-97289605D01*
X145813795Y-97151598D01*
X145705364Y-96989320D01*
X145630676Y-96809006D01*
X145592600Y-96617585D01*
X145592600Y-96422415D01*
X145630676Y-96230994D01*
X145705364Y-96050680D01*
X145813795Y-95888402D01*
X145951802Y-95750395D01*
X146114080Y-95641964D01*
X146294394Y-95567276D01*
X146294395Y-95567276D01*
X146294397Y-95567275D01*
X146485813Y-95529200D01*
X146680987Y-95529200D01*
X146872403Y-95567275D01*
X146872403Y-95567275D01*
G37*
G36*
X131632403Y-95567275D02*
G01*
X131632405Y-95567276D01*
X131632406Y-95567276D01*
X131812720Y-95641964D01*
X131974998Y-95750395D01*
X132113005Y-95888402D01*
X132221436Y-96050680D01*
X132296124Y-96230994D01*
X132334200Y-96422415D01*
X132334200Y-96617585D01*
X132296124Y-96809006D01*
X132221436Y-96989320D01*
X132113005Y-97151598D01*
X131974998Y-97289605D01*
X131812720Y-97398036D01*
X131632406Y-97472724D01*
X131632405Y-97472724D01*
X131632403Y-97472725D01*
X131440987Y-97510800D01*
X131245813Y-97510800D01*
X131054397Y-97472725D01*
X131054395Y-97472724D01*
X131054394Y-97472724D01*
X130874080Y-97398036D01*
X130711802Y-97289605D01*
X130573795Y-97151598D01*
X130465364Y-96989320D01*
X130390676Y-96809006D01*
X130352600Y-96617585D01*
X130352600Y-96422415D01*
X130390676Y-96230994D01*
X130465364Y-96050680D01*
X130573795Y-95888402D01*
X130711802Y-95750395D01*
X130874080Y-95641964D01*
X131054394Y-95567276D01*
X131054395Y-95567276D01*
X131054397Y-95567275D01*
X131245813Y-95529200D01*
X131440987Y-95529200D01*
X131632403Y-95567275D01*
X131632403Y-95567275D01*
G37*
G36*
X146872403Y-93027275D02*
G01*
X146872405Y-93027276D01*
X146872406Y-93027276D01*
X147052720Y-93101964D01*
X147214998Y-93210395D01*
X147353005Y-93348402D01*
X147461436Y-93510680D01*
X147536124Y-93690994D01*
X147574200Y-93882415D01*
X147574200Y-94077585D01*
X147536124Y-94269006D01*
X147461436Y-94449320D01*
X147353005Y-94611598D01*
X147214998Y-94749605D01*
X147052720Y-94858036D01*
X146872406Y-94932724D01*
X146872405Y-94932724D01*
X146872403Y-94932725D01*
X146680987Y-94970800D01*
X146485813Y-94970800D01*
X146294397Y-94932725D01*
X146294395Y-94932724D01*
X146294394Y-94932724D01*
X146114080Y-94858036D01*
X145951802Y-94749605D01*
X145813795Y-94611598D01*
X145705364Y-94449320D01*
X145630676Y-94269006D01*
X145592600Y-94077585D01*
X145592600Y-93882415D01*
X145630676Y-93690994D01*
X145705364Y-93510680D01*
X145813795Y-93348402D01*
X145951802Y-93210395D01*
X146114080Y-93101964D01*
X146294394Y-93027276D01*
X146294395Y-93027276D01*
X146294397Y-93027275D01*
X146485813Y-92989200D01*
X146680987Y-92989200D01*
X146872403Y-93027275D01*
X146872403Y-93027275D01*
G37*
G36*
X131632403Y-93027275D02*
G01*
X131632405Y-93027276D01*
X131632406Y-93027276D01*
X131812720Y-93101964D01*
X131974998Y-93210395D01*
X132113005Y-93348402D01*
X132221436Y-93510680D01*
X132296124Y-93690994D01*
X132334200Y-93882415D01*
X132334200Y-94077585D01*
X132296124Y-94269006D01*
X132221436Y-94449320D01*
X132113005Y-94611598D01*
X131974998Y-94749605D01*
X131812720Y-94858036D01*
X131632406Y-94932724D01*
X131632405Y-94932724D01*
X131632403Y-94932725D01*
X131440987Y-94970800D01*
X131245813Y-94970800D01*
X131054397Y-94932725D01*
X131054395Y-94932724D01*
X131054394Y-94932724D01*
X130874080Y-94858036D01*
X130711802Y-94749605D01*
X130573795Y-94611598D01*
X130465364Y-94449320D01*
X130390676Y-94269006D01*
X130352600Y-94077585D01*
X130352600Y-93882415D01*
X130390676Y-93690994D01*
X130465364Y-93510680D01*
X130573795Y-93348402D01*
X130711802Y-93210395D01*
X130874080Y-93101964D01*
X131054394Y-93027276D01*
X131054395Y-93027276D01*
X131054397Y-93027275D01*
X131245813Y-92989200D01*
X131440987Y-92989200D01*
X131632403Y-93027275D01*
X131632403Y-93027275D01*
G37*
G36*
X131632403Y-90487275D02*
G01*
X131632405Y-90487276D01*
X131632406Y-90487276D01*
X131812720Y-90561964D01*
X131974998Y-90670395D01*
X132113005Y-90808402D01*
X132221436Y-90970680D01*
X132296124Y-91150994D01*
X132334200Y-91342415D01*
X132334200Y-91537585D01*
X132296124Y-91729006D01*
X132221436Y-91909320D01*
X132113005Y-92071598D01*
X131974998Y-92209605D01*
X131812720Y-92318036D01*
X131632406Y-92392724D01*
X131632405Y-92392724D01*
X131632403Y-92392725D01*
X131440987Y-92430800D01*
X131245813Y-92430800D01*
X131054397Y-92392725D01*
X131054395Y-92392724D01*
X131054394Y-92392724D01*
X130874080Y-92318036D01*
X130711802Y-92209605D01*
X130573795Y-92071598D01*
X130465364Y-91909320D01*
X130390676Y-91729006D01*
X130352600Y-91537585D01*
X130352600Y-91342415D01*
X130390676Y-91150994D01*
X130465364Y-90970680D01*
X130573795Y-90808402D01*
X130711802Y-90670395D01*
X130874080Y-90561964D01*
X131054394Y-90487276D01*
X131054395Y-90487276D01*
X131054397Y-90487275D01*
X131245813Y-90449200D01*
X131440987Y-90449200D01*
X131632403Y-90487275D01*
X131632403Y-90487275D01*
G37*
G36*
X146872403Y-90487275D02*
G01*
X146872405Y-90487276D01*
X146872406Y-90487276D01*
X147052720Y-90561964D01*
X147214998Y-90670395D01*
X147353005Y-90808402D01*
X147461436Y-90970680D01*
X147536124Y-91150994D01*
X147574200Y-91342415D01*
X147574200Y-91537585D01*
X147536124Y-91729006D01*
X147461436Y-91909320D01*
X147353005Y-92071598D01*
X147214998Y-92209605D01*
X147052720Y-92318036D01*
X146872406Y-92392724D01*
X146872405Y-92392724D01*
X146872403Y-92392725D01*
X146680987Y-92430800D01*
X146485813Y-92430800D01*
X146294397Y-92392725D01*
X146294395Y-92392724D01*
X146294394Y-92392724D01*
X146114080Y-92318036D01*
X145951802Y-92209605D01*
X145813795Y-92071598D01*
X145705364Y-91909320D01*
X145630676Y-91729006D01*
X145592600Y-91537585D01*
X145592600Y-91342415D01*
X145630676Y-91150994D01*
X145705364Y-90970680D01*
X145813795Y-90808402D01*
X145951802Y-90670395D01*
X146114080Y-90561964D01*
X146294394Y-90487276D01*
X146294395Y-90487276D01*
X146294397Y-90487275D01*
X146485813Y-90449200D01*
X146680987Y-90449200D01*
X146872403Y-90487275D01*
X146872403Y-90487275D01*
G37*
G36*
X146872403Y-87947275D02*
G01*
X146872405Y-87947276D01*
X146872406Y-87947276D01*
X147052720Y-88021964D01*
X147214998Y-88130395D01*
X147353005Y-88268402D01*
X147461436Y-88430680D01*
X147536124Y-88610994D01*
X147574200Y-88802415D01*
X147574200Y-88997585D01*
X147536124Y-89189006D01*
X147461436Y-89369320D01*
X147353005Y-89531598D01*
X147214998Y-89669605D01*
X147052720Y-89778036D01*
X146872406Y-89852724D01*
X146872405Y-89852724D01*
X146872403Y-89852725D01*
X146680987Y-89890800D01*
X146485813Y-89890800D01*
X146294397Y-89852725D01*
X146294395Y-89852724D01*
X146294394Y-89852724D01*
X146114080Y-89778036D01*
X145951802Y-89669605D01*
X145813795Y-89531598D01*
X145705364Y-89369320D01*
X145630676Y-89189006D01*
X145592600Y-88997585D01*
X145592600Y-88802415D01*
X145630676Y-88610994D01*
X145705364Y-88430680D01*
X145813795Y-88268402D01*
X145951802Y-88130395D01*
X146114080Y-88021964D01*
X146294394Y-87947276D01*
X146294395Y-87947276D01*
X146294397Y-87947275D01*
X146485813Y-87909200D01*
X146680987Y-87909200D01*
X146872403Y-87947275D01*
X146872403Y-87947275D01*
G37*
G36*
X131632403Y-87947275D02*
G01*
X131632405Y-87947276D01*
X131632406Y-87947276D01*
X131812720Y-88021964D01*
X131974998Y-88130395D01*
X132113005Y-88268402D01*
X132221436Y-88430680D01*
X132296124Y-88610994D01*
X132334200Y-88802415D01*
X132334200Y-88997585D01*
X132296124Y-89189006D01*
X132221436Y-89369320D01*
X132113005Y-89531598D01*
X131974998Y-89669605D01*
X131812720Y-89778036D01*
X131632406Y-89852724D01*
X131632405Y-89852724D01*
X131632403Y-89852725D01*
X131440987Y-89890800D01*
X131245813Y-89890800D01*
X131054397Y-89852725D01*
X131054395Y-89852724D01*
X131054394Y-89852724D01*
X130874080Y-89778036D01*
X130711802Y-89669605D01*
X130573795Y-89531598D01*
X130465364Y-89369320D01*
X130390676Y-89189006D01*
X130352600Y-88997585D01*
X130352600Y-88802415D01*
X130390676Y-88610994D01*
X130465364Y-88430680D01*
X130573795Y-88268402D01*
X130711802Y-88130395D01*
X130874080Y-88021964D01*
X131054394Y-87947276D01*
X131054395Y-87947276D01*
X131054397Y-87947275D01*
X131245813Y-87909200D01*
X131440987Y-87909200D01*
X131632403Y-87947275D01*
X131632403Y-87947275D01*
G37*
G36*
X147574200Y-87350800D02*
G01*
X145592600Y-87350800D01*
X145592600Y-85369200D01*
X147574200Y-85369200D01*
X147574200Y-87350800D01*
X147574200Y-87350800D01*
G37*
G36*
X131632403Y-85407275D02*
G01*
X131632405Y-85407276D01*
X131632406Y-85407276D01*
X131812720Y-85481964D01*
X131974998Y-85590395D01*
X132113005Y-85728402D01*
X132221436Y-85890680D01*
X132296124Y-86070994D01*
X132334200Y-86262415D01*
X132334200Y-86457585D01*
X132296124Y-86649006D01*
X132221436Y-86829320D01*
X132113005Y-86991598D01*
X131974998Y-87129605D01*
X131812720Y-87238036D01*
X131632406Y-87312724D01*
X131632405Y-87312724D01*
X131632403Y-87312725D01*
X131440987Y-87350800D01*
X131245813Y-87350800D01*
X131054397Y-87312725D01*
X131054395Y-87312724D01*
X131054394Y-87312724D01*
X130874080Y-87238036D01*
X130711802Y-87129605D01*
X130573795Y-86991598D01*
X130465364Y-86829320D01*
X130390676Y-86649006D01*
X130352600Y-86457585D01*
X130352600Y-86262415D01*
X130390676Y-86070994D01*
X130465364Y-85890680D01*
X130573795Y-85728402D01*
X130711802Y-85590395D01*
X130874080Y-85481964D01*
X131054394Y-85407276D01*
X131054395Y-85407276D01*
X131054397Y-85407275D01*
X131245813Y-85369200D01*
X131440987Y-85369200D01*
X131632403Y-85407275D01*
X131632403Y-85407275D01*
G37*
M02*
