G04 #@! TF.GenerationSoftware,KiCad,Pcbnew,(5.1.4)-1*
G04 #@! TF.CreationDate,2019-12-18T21:33:11+01:00*
G04 #@! TF.ProjectId,ser,7365722e-6b69-4636-9164-5f7063625858,rev?*
G04 #@! TF.SameCoordinates,Original*
G04 #@! TF.FileFunction,Copper,L2,Bot*
G04 #@! TF.FilePolarity,Positive*
%FSLAX46Y46*%
G04 Gerber Fmt 4.6, Leading zero omitted, Abs format (unit mm)*
G04 Created by KiCad (PCBNEW (5.1.4)-1) date 2019-12-18 21:33:11*
%MOMM*%
%LPD*%
G04 APERTURE LIST*
%ADD10R,0.600000X1.550000*%
%ADD11R,1.879600X1.879600*%
%ADD12C,1.879600*%
%ADD13C,0.100000*%
%ADD14C,0.950000*%
%ADD15R,1.700000X1.700000*%
%ADD16O,1.700000X1.700000*%
%ADD17C,0.400000*%
%ADD18C,0.508000*%
%ADD19C,0.254000*%
G04 APERTURE END LIST*
D10*
X139598400Y-113190000D03*
X138328400Y-113190000D03*
X137058400Y-113190000D03*
X135788400Y-113190000D03*
X135788400Y-107790000D03*
X137058400Y-107790000D03*
X138328400Y-107790000D03*
X139598400Y-107790000D03*
D11*
X146583400Y-86360000D03*
D12*
X146583400Y-88900000D03*
X146583400Y-91440000D03*
X146583400Y-93980000D03*
X146583400Y-96520000D03*
X146583400Y-99060000D03*
X146583400Y-101600000D03*
X146583400Y-104140000D03*
X146583400Y-106680000D03*
X146583400Y-109220000D03*
X146583400Y-111760000D03*
X146583400Y-114300000D03*
X131343400Y-114300000D03*
X131343400Y-111760000D03*
X131343400Y-109220000D03*
X131343400Y-106680000D03*
X131343400Y-104140000D03*
X131343400Y-101600000D03*
X131343400Y-99060000D03*
X131343400Y-96520000D03*
X131343400Y-93980000D03*
X131343400Y-91440000D03*
X131343400Y-88900000D03*
X131343400Y-86360000D03*
D13*
G36*
X143564179Y-105571144D02*
G01*
X143587234Y-105574563D01*
X143609843Y-105580227D01*
X143631787Y-105588079D01*
X143652857Y-105598044D01*
X143672848Y-105610026D01*
X143691568Y-105623910D01*
X143708838Y-105639562D01*
X143724490Y-105656832D01*
X143738374Y-105675552D01*
X143750356Y-105695543D01*
X143760321Y-105716613D01*
X143768173Y-105738557D01*
X143773837Y-105761166D01*
X143777256Y-105784221D01*
X143778400Y-105807500D01*
X143778400Y-106282500D01*
X143777256Y-106305779D01*
X143773837Y-106328834D01*
X143768173Y-106351443D01*
X143760321Y-106373387D01*
X143750356Y-106394457D01*
X143738374Y-106414448D01*
X143724490Y-106433168D01*
X143708838Y-106450438D01*
X143691568Y-106466090D01*
X143672848Y-106479974D01*
X143652857Y-106491956D01*
X143631787Y-106501921D01*
X143609843Y-106509773D01*
X143587234Y-106515437D01*
X143564179Y-106518856D01*
X143540900Y-106520000D01*
X142965900Y-106520000D01*
X142942621Y-106518856D01*
X142919566Y-106515437D01*
X142896957Y-106509773D01*
X142875013Y-106501921D01*
X142853943Y-106491956D01*
X142833952Y-106479974D01*
X142815232Y-106466090D01*
X142797962Y-106450438D01*
X142782310Y-106433168D01*
X142768426Y-106414448D01*
X142756444Y-106394457D01*
X142746479Y-106373387D01*
X142738627Y-106351443D01*
X142732963Y-106328834D01*
X142729544Y-106305779D01*
X142728400Y-106282500D01*
X142728400Y-105807500D01*
X142729544Y-105784221D01*
X142732963Y-105761166D01*
X142738627Y-105738557D01*
X142746479Y-105716613D01*
X142756444Y-105695543D01*
X142768426Y-105675552D01*
X142782310Y-105656832D01*
X142797962Y-105639562D01*
X142815232Y-105623910D01*
X142833952Y-105610026D01*
X142853943Y-105598044D01*
X142875013Y-105588079D01*
X142896957Y-105580227D01*
X142919566Y-105574563D01*
X142942621Y-105571144D01*
X142965900Y-105570000D01*
X143540900Y-105570000D01*
X143564179Y-105571144D01*
X143564179Y-105571144D01*
G37*
D14*
X143253400Y-106045000D03*
D13*
G36*
X141814179Y-105571144D02*
G01*
X141837234Y-105574563D01*
X141859843Y-105580227D01*
X141881787Y-105588079D01*
X141902857Y-105598044D01*
X141922848Y-105610026D01*
X141941568Y-105623910D01*
X141958838Y-105639562D01*
X141974490Y-105656832D01*
X141988374Y-105675552D01*
X142000356Y-105695543D01*
X142010321Y-105716613D01*
X142018173Y-105738557D01*
X142023837Y-105761166D01*
X142027256Y-105784221D01*
X142028400Y-105807500D01*
X142028400Y-106282500D01*
X142027256Y-106305779D01*
X142023837Y-106328834D01*
X142018173Y-106351443D01*
X142010321Y-106373387D01*
X142000356Y-106394457D01*
X141988374Y-106414448D01*
X141974490Y-106433168D01*
X141958838Y-106450438D01*
X141941568Y-106466090D01*
X141922848Y-106479974D01*
X141902857Y-106491956D01*
X141881787Y-106501921D01*
X141859843Y-106509773D01*
X141837234Y-106515437D01*
X141814179Y-106518856D01*
X141790900Y-106520000D01*
X141215900Y-106520000D01*
X141192621Y-106518856D01*
X141169566Y-106515437D01*
X141146957Y-106509773D01*
X141125013Y-106501921D01*
X141103943Y-106491956D01*
X141083952Y-106479974D01*
X141065232Y-106466090D01*
X141047962Y-106450438D01*
X141032310Y-106433168D01*
X141018426Y-106414448D01*
X141006444Y-106394457D01*
X140996479Y-106373387D01*
X140988627Y-106351443D01*
X140982963Y-106328834D01*
X140979544Y-106305779D01*
X140978400Y-106282500D01*
X140978400Y-105807500D01*
X140979544Y-105784221D01*
X140982963Y-105761166D01*
X140988627Y-105738557D01*
X140996479Y-105716613D01*
X141006444Y-105695543D01*
X141018426Y-105675552D01*
X141032310Y-105656832D01*
X141047962Y-105639562D01*
X141065232Y-105623910D01*
X141083952Y-105610026D01*
X141103943Y-105598044D01*
X141125013Y-105588079D01*
X141146957Y-105580227D01*
X141169566Y-105574563D01*
X141192621Y-105571144D01*
X141215900Y-105570000D01*
X141790900Y-105570000D01*
X141814179Y-105571144D01*
X141814179Y-105571144D01*
G37*
D14*
X141503400Y-106045000D03*
D13*
G36*
X141814179Y-114461144D02*
G01*
X141837234Y-114464563D01*
X141859843Y-114470227D01*
X141881787Y-114478079D01*
X141902857Y-114488044D01*
X141922848Y-114500026D01*
X141941568Y-114513910D01*
X141958838Y-114529562D01*
X141974490Y-114546832D01*
X141988374Y-114565552D01*
X142000356Y-114585543D01*
X142010321Y-114606613D01*
X142018173Y-114628557D01*
X142023837Y-114651166D01*
X142027256Y-114674221D01*
X142028400Y-114697500D01*
X142028400Y-115172500D01*
X142027256Y-115195779D01*
X142023837Y-115218834D01*
X142018173Y-115241443D01*
X142010321Y-115263387D01*
X142000356Y-115284457D01*
X141988374Y-115304448D01*
X141974490Y-115323168D01*
X141958838Y-115340438D01*
X141941568Y-115356090D01*
X141922848Y-115369974D01*
X141902857Y-115381956D01*
X141881787Y-115391921D01*
X141859843Y-115399773D01*
X141837234Y-115405437D01*
X141814179Y-115408856D01*
X141790900Y-115410000D01*
X141215900Y-115410000D01*
X141192621Y-115408856D01*
X141169566Y-115405437D01*
X141146957Y-115399773D01*
X141125013Y-115391921D01*
X141103943Y-115381956D01*
X141083952Y-115369974D01*
X141065232Y-115356090D01*
X141047962Y-115340438D01*
X141032310Y-115323168D01*
X141018426Y-115304448D01*
X141006444Y-115284457D01*
X140996479Y-115263387D01*
X140988627Y-115241443D01*
X140982963Y-115218834D01*
X140979544Y-115195779D01*
X140978400Y-115172500D01*
X140978400Y-114697500D01*
X140979544Y-114674221D01*
X140982963Y-114651166D01*
X140988627Y-114628557D01*
X140996479Y-114606613D01*
X141006444Y-114585543D01*
X141018426Y-114565552D01*
X141032310Y-114546832D01*
X141047962Y-114529562D01*
X141065232Y-114513910D01*
X141083952Y-114500026D01*
X141103943Y-114488044D01*
X141125013Y-114478079D01*
X141146957Y-114470227D01*
X141169566Y-114464563D01*
X141192621Y-114461144D01*
X141215900Y-114460000D01*
X141790900Y-114460000D01*
X141814179Y-114461144D01*
X141814179Y-114461144D01*
G37*
D14*
X141503400Y-114935000D03*
D13*
G36*
X143564179Y-114461144D02*
G01*
X143587234Y-114464563D01*
X143609843Y-114470227D01*
X143631787Y-114478079D01*
X143652857Y-114488044D01*
X143672848Y-114500026D01*
X143691568Y-114513910D01*
X143708838Y-114529562D01*
X143724490Y-114546832D01*
X143738374Y-114565552D01*
X143750356Y-114585543D01*
X143760321Y-114606613D01*
X143768173Y-114628557D01*
X143773837Y-114651166D01*
X143777256Y-114674221D01*
X143778400Y-114697500D01*
X143778400Y-115172500D01*
X143777256Y-115195779D01*
X143773837Y-115218834D01*
X143768173Y-115241443D01*
X143760321Y-115263387D01*
X143750356Y-115284457D01*
X143738374Y-115304448D01*
X143724490Y-115323168D01*
X143708838Y-115340438D01*
X143691568Y-115356090D01*
X143672848Y-115369974D01*
X143652857Y-115381956D01*
X143631787Y-115391921D01*
X143609843Y-115399773D01*
X143587234Y-115405437D01*
X143564179Y-115408856D01*
X143540900Y-115410000D01*
X142965900Y-115410000D01*
X142942621Y-115408856D01*
X142919566Y-115405437D01*
X142896957Y-115399773D01*
X142875013Y-115391921D01*
X142853943Y-115381956D01*
X142833952Y-115369974D01*
X142815232Y-115356090D01*
X142797962Y-115340438D01*
X142782310Y-115323168D01*
X142768426Y-115304448D01*
X142756444Y-115284457D01*
X142746479Y-115263387D01*
X142738627Y-115241443D01*
X142732963Y-115218834D01*
X142729544Y-115195779D01*
X142728400Y-115172500D01*
X142728400Y-114697500D01*
X142729544Y-114674221D01*
X142732963Y-114651166D01*
X142738627Y-114628557D01*
X142746479Y-114606613D01*
X142756444Y-114585543D01*
X142768426Y-114565552D01*
X142782310Y-114546832D01*
X142797962Y-114529562D01*
X142815232Y-114513910D01*
X142833952Y-114500026D01*
X142853943Y-114488044D01*
X142875013Y-114478079D01*
X142896957Y-114470227D01*
X142919566Y-114464563D01*
X142942621Y-114461144D01*
X142965900Y-114460000D01*
X143540900Y-114460000D01*
X143564179Y-114461144D01*
X143564179Y-114461144D01*
G37*
D14*
X143253400Y-114935000D03*
D15*
X146583400Y-119380000D03*
D16*
X144043400Y-119380000D03*
X141503400Y-119380000D03*
X138963400Y-119380000D03*
X136423400Y-119380000D03*
X133883400Y-119380000D03*
D17*
X139598400Y-114935000D03*
D18*
X137058400Y-94615000D02*
X131343400Y-88900000D01*
X137058400Y-107790000D02*
X137058400Y-94615000D01*
X132283199Y-87299799D02*
X131343400Y-86360000D01*
X138328400Y-93345000D02*
X132283199Y-87299799D01*
X138328400Y-107790000D02*
X138328400Y-93345000D01*
X143193401Y-118530001D02*
X144043400Y-119380000D01*
X142558399Y-117894999D02*
X143193401Y-118530001D01*
X141301150Y-117894999D02*
X142558399Y-117894999D01*
X138328400Y-114922249D02*
X141301150Y-117894999D01*
X138328400Y-113190000D02*
X138328400Y-114922249D01*
X137058400Y-114935000D02*
X137058400Y-113190000D01*
X141503400Y-119380000D02*
X137058400Y-114935000D01*
X139598400Y-114935000D02*
X139598400Y-114935000D01*
X139598400Y-113190000D02*
X139598400Y-114935000D01*
X141503400Y-114935000D02*
X139598400Y-114935000D01*
X146583400Y-93980000D02*
X139598400Y-100965000D01*
X139598400Y-100965000D02*
X139598400Y-106045000D01*
X139598400Y-106045000D02*
X139598400Y-107790000D01*
X141503400Y-106045000D02*
X139598400Y-106045000D01*
D19*
G36*
X145069118Y-111300648D02*
G01*
X145008600Y-111604896D01*
X145008600Y-111915104D01*
X145069118Y-112219352D01*
X145186400Y-112502496D01*
X145186400Y-113557504D01*
X145069118Y-113840648D01*
X145008600Y-114144896D01*
X145008600Y-114455104D01*
X145069118Y-114759352D01*
X145186400Y-115042496D01*
X145186400Y-115570000D01*
X145188840Y-115594776D01*
X145196067Y-115618601D01*
X145207803Y-115640557D01*
X145223597Y-115659803D01*
X145242843Y-115675597D01*
X145264799Y-115687333D01*
X145288624Y-115694560D01*
X145313400Y-115697000D01*
X145840904Y-115697000D01*
X146124048Y-115814282D01*
X146428296Y-115874800D01*
X146738504Y-115874800D01*
X147042752Y-115814282D01*
X147325896Y-115697000D01*
X147471900Y-115697000D01*
X147471900Y-117895720D01*
X147433400Y-117891928D01*
X146869150Y-117895000D01*
X146710400Y-118053750D01*
X146710400Y-119253000D01*
X146730400Y-119253000D01*
X146730400Y-119507000D01*
X146710400Y-119507000D01*
X146710400Y-119527000D01*
X146456400Y-119527000D01*
X146456400Y-119507000D01*
X146436400Y-119507000D01*
X146436400Y-119253000D01*
X146456400Y-119253000D01*
X146456400Y-118053750D01*
X146297650Y-117895000D01*
X145733400Y-117891928D01*
X145608918Y-117904188D01*
X145489220Y-117940498D01*
X145378906Y-117999463D01*
X145282215Y-118078815D01*
X145202863Y-118175506D01*
X145143898Y-118285820D01*
X145123007Y-118354687D01*
X145098534Y-118324866D01*
X144872414Y-118139294D01*
X144614434Y-118001401D01*
X144334511Y-117916487D01*
X144116350Y-117895000D01*
X143970450Y-117895000D01*
X143829517Y-117908881D01*
X143217897Y-117297262D01*
X143190058Y-117263340D01*
X143054690Y-117152246D01*
X142900250Y-117069696D01*
X142732673Y-117018863D01*
X142602066Y-117005999D01*
X142602059Y-117005999D01*
X142558399Y-117001699D01*
X142514739Y-117005999D01*
X141669385Y-117005999D01*
X140487386Y-115824000D01*
X140636228Y-115824000D01*
X140729458Y-115900512D01*
X140880833Y-115981423D01*
X141045084Y-116031248D01*
X141215900Y-116048072D01*
X141790900Y-116048072D01*
X141961716Y-116031248D01*
X142125967Y-115981423D01*
X142277342Y-115900512D01*
X142301239Y-115880901D01*
X142373906Y-115940537D01*
X142484220Y-115999502D01*
X142603918Y-116035812D01*
X142728400Y-116048072D01*
X142967650Y-116045000D01*
X143126400Y-115886250D01*
X143126400Y-115062000D01*
X143380400Y-115062000D01*
X143380400Y-115886250D01*
X143539150Y-116045000D01*
X143778400Y-116048072D01*
X143902882Y-116035812D01*
X144022580Y-115999502D01*
X144132894Y-115940537D01*
X144229585Y-115861185D01*
X144308937Y-115764494D01*
X144367902Y-115654180D01*
X144404212Y-115534482D01*
X144416472Y-115410000D01*
X144413400Y-115220750D01*
X144254650Y-115062000D01*
X143380400Y-115062000D01*
X143126400Y-115062000D01*
X143106400Y-115062000D01*
X143106400Y-114808000D01*
X143126400Y-114808000D01*
X143126400Y-113983750D01*
X143380400Y-113983750D01*
X143380400Y-114808000D01*
X144254650Y-114808000D01*
X144413400Y-114649250D01*
X144416472Y-114460000D01*
X144404212Y-114335518D01*
X144367902Y-114215820D01*
X144308937Y-114105506D01*
X144229585Y-114008815D01*
X144132894Y-113929463D01*
X144022580Y-113870498D01*
X143902882Y-113834188D01*
X143778400Y-113821928D01*
X143539150Y-113825000D01*
X143380400Y-113983750D01*
X143126400Y-113983750D01*
X142967650Y-113825000D01*
X142728400Y-113821928D01*
X142603918Y-113834188D01*
X142484220Y-113870498D01*
X142373906Y-113929463D01*
X142301239Y-113989099D01*
X142277342Y-113969488D01*
X142125967Y-113888577D01*
X141961716Y-113838752D01*
X141790900Y-113821928D01*
X141215900Y-113821928D01*
X141045084Y-113838752D01*
X140880833Y-113888577D01*
X140729458Y-113969488D01*
X140636228Y-114046000D01*
X140528494Y-114046000D01*
X140536472Y-113965000D01*
X140536472Y-112415000D01*
X140524212Y-112290518D01*
X140487902Y-112170820D01*
X140428937Y-112060506D01*
X140349585Y-111963815D01*
X140252894Y-111884463D01*
X140142580Y-111825498D01*
X140022882Y-111789188D01*
X139898400Y-111776928D01*
X139298400Y-111776928D01*
X139173918Y-111789188D01*
X139054220Y-111825498D01*
X138963400Y-111874043D01*
X138872580Y-111825498D01*
X138752882Y-111789188D01*
X138628400Y-111776928D01*
X138028400Y-111776928D01*
X137903918Y-111789188D01*
X137784220Y-111825498D01*
X137693400Y-111874043D01*
X137602580Y-111825498D01*
X137482882Y-111789188D01*
X137358400Y-111776928D01*
X136758400Y-111776928D01*
X136633918Y-111789188D01*
X136514220Y-111825498D01*
X136423400Y-111874043D01*
X136332580Y-111825498D01*
X136212882Y-111789188D01*
X136088400Y-111776928D01*
X136074150Y-111780000D01*
X135915400Y-111938750D01*
X135915400Y-113063000D01*
X135935400Y-113063000D01*
X135935400Y-113317000D01*
X135915400Y-113317000D01*
X135915400Y-114441250D01*
X136074150Y-114600000D01*
X136088400Y-114603072D01*
X136169400Y-114595094D01*
X136169400Y-114891340D01*
X136165100Y-114935000D01*
X136169400Y-114978660D01*
X136169400Y-114978666D01*
X136182264Y-115109273D01*
X136233097Y-115276850D01*
X136315647Y-115431290D01*
X136426741Y-115566659D01*
X136460664Y-115594499D01*
X138772757Y-117906592D01*
X138672289Y-117916487D01*
X138392366Y-118001401D01*
X138134386Y-118139294D01*
X137908266Y-118324866D01*
X137722694Y-118550986D01*
X137693400Y-118605791D01*
X137664106Y-118550986D01*
X137478534Y-118324866D01*
X137252414Y-118139294D01*
X136994434Y-118001401D01*
X136714511Y-117916487D01*
X136496350Y-117895000D01*
X136350450Y-117895000D01*
X136132289Y-117916487D01*
X135852366Y-118001401D01*
X135594386Y-118139294D01*
X135368266Y-118324866D01*
X135182694Y-118550986D01*
X135153400Y-118605791D01*
X135124106Y-118550986D01*
X134938534Y-118324866D01*
X134712414Y-118139294D01*
X134454434Y-118001401D01*
X134174511Y-117916487D01*
X133956350Y-117895000D01*
X133810450Y-117895000D01*
X133592289Y-117916487D01*
X133312366Y-118001401D01*
X133054386Y-118139294D01*
X132828266Y-118324866D01*
X132642694Y-118550986D01*
X132504801Y-118808966D01*
X132419887Y-119088889D01*
X132391215Y-119380000D01*
X132419887Y-119671111D01*
X132504801Y-119951034D01*
X132642694Y-120209014D01*
X132691513Y-120268500D01*
X130454900Y-120268500D01*
X130454900Y-115697000D01*
X130600904Y-115697000D01*
X130884048Y-115814282D01*
X131188296Y-115874800D01*
X131498504Y-115874800D01*
X131802752Y-115814282D01*
X132085896Y-115697000D01*
X132613400Y-115697000D01*
X132638176Y-115694560D01*
X132662001Y-115687333D01*
X132683957Y-115675597D01*
X132703203Y-115659803D01*
X132718997Y-115640557D01*
X132730733Y-115618601D01*
X132737960Y-115594776D01*
X132740400Y-115570000D01*
X132740400Y-115042496D01*
X132857682Y-114759352D01*
X132918200Y-114455104D01*
X132918200Y-114144896D01*
X132882417Y-113965000D01*
X134850328Y-113965000D01*
X134862588Y-114089482D01*
X134898898Y-114209180D01*
X134957863Y-114319494D01*
X135037215Y-114416185D01*
X135133906Y-114495537D01*
X135244220Y-114554502D01*
X135363918Y-114590812D01*
X135488400Y-114603072D01*
X135502650Y-114600000D01*
X135661400Y-114441250D01*
X135661400Y-113317000D01*
X135012150Y-113317000D01*
X134853400Y-113475750D01*
X134850328Y-113965000D01*
X132882417Y-113965000D01*
X132857682Y-113840648D01*
X132740400Y-113557504D01*
X132740400Y-112502496D01*
X132776642Y-112415000D01*
X134850328Y-112415000D01*
X134853400Y-112904250D01*
X135012150Y-113063000D01*
X135661400Y-113063000D01*
X135661400Y-111938750D01*
X135502650Y-111780000D01*
X135488400Y-111776928D01*
X135363918Y-111789188D01*
X135244220Y-111825498D01*
X135133906Y-111884463D01*
X135037215Y-111963815D01*
X134957863Y-112060506D01*
X134898898Y-112170820D01*
X134862588Y-112290518D01*
X134850328Y-112415000D01*
X132776642Y-112415000D01*
X132857682Y-112219352D01*
X132918200Y-111915104D01*
X132918200Y-111604896D01*
X132857682Y-111300648D01*
X132837531Y-111252000D01*
X145089269Y-111252000D01*
X145069118Y-111300648D01*
X145069118Y-111300648D01*
G37*
X145069118Y-111300648D02*
X145008600Y-111604896D01*
X145008600Y-111915104D01*
X145069118Y-112219352D01*
X145186400Y-112502496D01*
X145186400Y-113557504D01*
X145069118Y-113840648D01*
X145008600Y-114144896D01*
X145008600Y-114455104D01*
X145069118Y-114759352D01*
X145186400Y-115042496D01*
X145186400Y-115570000D01*
X145188840Y-115594776D01*
X145196067Y-115618601D01*
X145207803Y-115640557D01*
X145223597Y-115659803D01*
X145242843Y-115675597D01*
X145264799Y-115687333D01*
X145288624Y-115694560D01*
X145313400Y-115697000D01*
X145840904Y-115697000D01*
X146124048Y-115814282D01*
X146428296Y-115874800D01*
X146738504Y-115874800D01*
X147042752Y-115814282D01*
X147325896Y-115697000D01*
X147471900Y-115697000D01*
X147471900Y-117895720D01*
X147433400Y-117891928D01*
X146869150Y-117895000D01*
X146710400Y-118053750D01*
X146710400Y-119253000D01*
X146730400Y-119253000D01*
X146730400Y-119507000D01*
X146710400Y-119507000D01*
X146710400Y-119527000D01*
X146456400Y-119527000D01*
X146456400Y-119507000D01*
X146436400Y-119507000D01*
X146436400Y-119253000D01*
X146456400Y-119253000D01*
X146456400Y-118053750D01*
X146297650Y-117895000D01*
X145733400Y-117891928D01*
X145608918Y-117904188D01*
X145489220Y-117940498D01*
X145378906Y-117999463D01*
X145282215Y-118078815D01*
X145202863Y-118175506D01*
X145143898Y-118285820D01*
X145123007Y-118354687D01*
X145098534Y-118324866D01*
X144872414Y-118139294D01*
X144614434Y-118001401D01*
X144334511Y-117916487D01*
X144116350Y-117895000D01*
X143970450Y-117895000D01*
X143829517Y-117908881D01*
X143217897Y-117297262D01*
X143190058Y-117263340D01*
X143054690Y-117152246D01*
X142900250Y-117069696D01*
X142732673Y-117018863D01*
X142602066Y-117005999D01*
X142602059Y-117005999D01*
X142558399Y-117001699D01*
X142514739Y-117005999D01*
X141669385Y-117005999D01*
X140487386Y-115824000D01*
X140636228Y-115824000D01*
X140729458Y-115900512D01*
X140880833Y-115981423D01*
X141045084Y-116031248D01*
X141215900Y-116048072D01*
X141790900Y-116048072D01*
X141961716Y-116031248D01*
X142125967Y-115981423D01*
X142277342Y-115900512D01*
X142301239Y-115880901D01*
X142373906Y-115940537D01*
X142484220Y-115999502D01*
X142603918Y-116035812D01*
X142728400Y-116048072D01*
X142967650Y-116045000D01*
X143126400Y-115886250D01*
X143126400Y-115062000D01*
X143380400Y-115062000D01*
X143380400Y-115886250D01*
X143539150Y-116045000D01*
X143778400Y-116048072D01*
X143902882Y-116035812D01*
X144022580Y-115999502D01*
X144132894Y-115940537D01*
X144229585Y-115861185D01*
X144308937Y-115764494D01*
X144367902Y-115654180D01*
X144404212Y-115534482D01*
X144416472Y-115410000D01*
X144413400Y-115220750D01*
X144254650Y-115062000D01*
X143380400Y-115062000D01*
X143126400Y-115062000D01*
X143106400Y-115062000D01*
X143106400Y-114808000D01*
X143126400Y-114808000D01*
X143126400Y-113983750D01*
X143380400Y-113983750D01*
X143380400Y-114808000D01*
X144254650Y-114808000D01*
X144413400Y-114649250D01*
X144416472Y-114460000D01*
X144404212Y-114335518D01*
X144367902Y-114215820D01*
X144308937Y-114105506D01*
X144229585Y-114008815D01*
X144132894Y-113929463D01*
X144022580Y-113870498D01*
X143902882Y-113834188D01*
X143778400Y-113821928D01*
X143539150Y-113825000D01*
X143380400Y-113983750D01*
X143126400Y-113983750D01*
X142967650Y-113825000D01*
X142728400Y-113821928D01*
X142603918Y-113834188D01*
X142484220Y-113870498D01*
X142373906Y-113929463D01*
X142301239Y-113989099D01*
X142277342Y-113969488D01*
X142125967Y-113888577D01*
X141961716Y-113838752D01*
X141790900Y-113821928D01*
X141215900Y-113821928D01*
X141045084Y-113838752D01*
X140880833Y-113888577D01*
X140729458Y-113969488D01*
X140636228Y-114046000D01*
X140528494Y-114046000D01*
X140536472Y-113965000D01*
X140536472Y-112415000D01*
X140524212Y-112290518D01*
X140487902Y-112170820D01*
X140428937Y-112060506D01*
X140349585Y-111963815D01*
X140252894Y-111884463D01*
X140142580Y-111825498D01*
X140022882Y-111789188D01*
X139898400Y-111776928D01*
X139298400Y-111776928D01*
X139173918Y-111789188D01*
X139054220Y-111825498D01*
X138963400Y-111874043D01*
X138872580Y-111825498D01*
X138752882Y-111789188D01*
X138628400Y-111776928D01*
X138028400Y-111776928D01*
X137903918Y-111789188D01*
X137784220Y-111825498D01*
X137693400Y-111874043D01*
X137602580Y-111825498D01*
X137482882Y-111789188D01*
X137358400Y-111776928D01*
X136758400Y-111776928D01*
X136633918Y-111789188D01*
X136514220Y-111825498D01*
X136423400Y-111874043D01*
X136332580Y-111825498D01*
X136212882Y-111789188D01*
X136088400Y-111776928D01*
X136074150Y-111780000D01*
X135915400Y-111938750D01*
X135915400Y-113063000D01*
X135935400Y-113063000D01*
X135935400Y-113317000D01*
X135915400Y-113317000D01*
X135915400Y-114441250D01*
X136074150Y-114600000D01*
X136088400Y-114603072D01*
X136169400Y-114595094D01*
X136169400Y-114891340D01*
X136165100Y-114935000D01*
X136169400Y-114978660D01*
X136169400Y-114978666D01*
X136182264Y-115109273D01*
X136233097Y-115276850D01*
X136315647Y-115431290D01*
X136426741Y-115566659D01*
X136460664Y-115594499D01*
X138772757Y-117906592D01*
X138672289Y-117916487D01*
X138392366Y-118001401D01*
X138134386Y-118139294D01*
X137908266Y-118324866D01*
X137722694Y-118550986D01*
X137693400Y-118605791D01*
X137664106Y-118550986D01*
X137478534Y-118324866D01*
X137252414Y-118139294D01*
X136994434Y-118001401D01*
X136714511Y-117916487D01*
X136496350Y-117895000D01*
X136350450Y-117895000D01*
X136132289Y-117916487D01*
X135852366Y-118001401D01*
X135594386Y-118139294D01*
X135368266Y-118324866D01*
X135182694Y-118550986D01*
X135153400Y-118605791D01*
X135124106Y-118550986D01*
X134938534Y-118324866D01*
X134712414Y-118139294D01*
X134454434Y-118001401D01*
X134174511Y-117916487D01*
X133956350Y-117895000D01*
X133810450Y-117895000D01*
X133592289Y-117916487D01*
X133312366Y-118001401D01*
X133054386Y-118139294D01*
X132828266Y-118324866D01*
X132642694Y-118550986D01*
X132504801Y-118808966D01*
X132419887Y-119088889D01*
X132391215Y-119380000D01*
X132419887Y-119671111D01*
X132504801Y-119951034D01*
X132642694Y-120209014D01*
X132691513Y-120268500D01*
X130454900Y-120268500D01*
X130454900Y-115697000D01*
X130600904Y-115697000D01*
X130884048Y-115814282D01*
X131188296Y-115874800D01*
X131498504Y-115874800D01*
X131802752Y-115814282D01*
X132085896Y-115697000D01*
X132613400Y-115697000D01*
X132638176Y-115694560D01*
X132662001Y-115687333D01*
X132683957Y-115675597D01*
X132703203Y-115659803D01*
X132718997Y-115640557D01*
X132730733Y-115618601D01*
X132737960Y-115594776D01*
X132740400Y-115570000D01*
X132740400Y-115042496D01*
X132857682Y-114759352D01*
X132918200Y-114455104D01*
X132918200Y-114144896D01*
X132882417Y-113965000D01*
X134850328Y-113965000D01*
X134862588Y-114089482D01*
X134898898Y-114209180D01*
X134957863Y-114319494D01*
X135037215Y-114416185D01*
X135133906Y-114495537D01*
X135244220Y-114554502D01*
X135363918Y-114590812D01*
X135488400Y-114603072D01*
X135502650Y-114600000D01*
X135661400Y-114441250D01*
X135661400Y-113317000D01*
X135012150Y-113317000D01*
X134853400Y-113475750D01*
X134850328Y-113965000D01*
X132882417Y-113965000D01*
X132857682Y-113840648D01*
X132740400Y-113557504D01*
X132740400Y-112502496D01*
X132776642Y-112415000D01*
X134850328Y-112415000D01*
X134853400Y-112904250D01*
X135012150Y-113063000D01*
X135661400Y-113063000D01*
X135661400Y-111938750D01*
X135502650Y-111780000D01*
X135488400Y-111776928D01*
X135363918Y-111789188D01*
X135244220Y-111825498D01*
X135133906Y-111884463D01*
X135037215Y-111963815D01*
X134957863Y-112060506D01*
X134898898Y-112170820D01*
X134862588Y-112290518D01*
X134850328Y-112415000D01*
X132776642Y-112415000D01*
X132857682Y-112219352D01*
X132918200Y-111915104D01*
X132918200Y-111604896D01*
X132857682Y-111300648D01*
X132837531Y-111252000D01*
X145089269Y-111252000D01*
X145069118Y-111300648D01*
G36*
X131537148Y-91425858D02*
G01*
X131523005Y-91440000D01*
X132435876Y-92352871D01*
X132694123Y-92264377D01*
X132828997Y-91985024D01*
X132899397Y-91713232D01*
X136169401Y-94983237D01*
X136169400Y-106384906D01*
X136088400Y-106376928D01*
X136074150Y-106380000D01*
X135915400Y-106538750D01*
X135915400Y-107663000D01*
X135935400Y-107663000D01*
X135935400Y-107917000D01*
X135915400Y-107917000D01*
X135915400Y-109041250D01*
X136074150Y-109200000D01*
X136088400Y-109203072D01*
X136212882Y-109190812D01*
X136332580Y-109154502D01*
X136423400Y-109105957D01*
X136514220Y-109154502D01*
X136633918Y-109190812D01*
X136758400Y-109203072D01*
X137358400Y-109203072D01*
X137482882Y-109190812D01*
X137602580Y-109154502D01*
X137693400Y-109105957D01*
X137784220Y-109154502D01*
X137903918Y-109190812D01*
X138028400Y-109203072D01*
X138628400Y-109203072D01*
X138752882Y-109190812D01*
X138872580Y-109154502D01*
X138963400Y-109105957D01*
X139054220Y-109154502D01*
X139173918Y-109190812D01*
X139298400Y-109203072D01*
X139898400Y-109203072D01*
X140022882Y-109190812D01*
X140142580Y-109154502D01*
X140252894Y-109095537D01*
X140349585Y-109016185D01*
X140428937Y-108919494D01*
X140487902Y-108809180D01*
X140524212Y-108689482D01*
X140536472Y-108565000D01*
X140536472Y-107015000D01*
X140528494Y-106934000D01*
X140636228Y-106934000D01*
X140729458Y-107010512D01*
X140880833Y-107091423D01*
X141045084Y-107141248D01*
X141215900Y-107158072D01*
X141790900Y-107158072D01*
X141961716Y-107141248D01*
X142125967Y-107091423D01*
X142277342Y-107010512D01*
X142301239Y-106990901D01*
X142373906Y-107050537D01*
X142484220Y-107109502D01*
X142603918Y-107145812D01*
X142728400Y-107158072D01*
X142967650Y-107155000D01*
X143126400Y-106996250D01*
X143126400Y-106172000D01*
X143380400Y-106172000D01*
X143380400Y-106996250D01*
X143539150Y-107155000D01*
X143778400Y-107158072D01*
X143902882Y-107145812D01*
X144022580Y-107109502D01*
X144132894Y-107050537D01*
X144229585Y-106971185D01*
X144308937Y-106874494D01*
X144367902Y-106764180D01*
X144404212Y-106644482D01*
X144416472Y-106520000D01*
X144413400Y-106330750D01*
X144254650Y-106172000D01*
X143380400Y-106172000D01*
X143126400Y-106172000D01*
X143106400Y-106172000D01*
X143106400Y-105918000D01*
X143126400Y-105918000D01*
X143126400Y-105093750D01*
X143380400Y-105093750D01*
X143380400Y-105918000D01*
X144254650Y-105918000D01*
X144413400Y-105759250D01*
X144416472Y-105570000D01*
X144404212Y-105445518D01*
X144367902Y-105325820D01*
X144308937Y-105215506D01*
X144229585Y-105118815D01*
X144132894Y-105039463D01*
X144022580Y-104980498D01*
X143902882Y-104944188D01*
X143778400Y-104931928D01*
X143539150Y-104935000D01*
X143380400Y-105093750D01*
X143126400Y-105093750D01*
X142967650Y-104935000D01*
X142728400Y-104931928D01*
X142603918Y-104944188D01*
X142484220Y-104980498D01*
X142373906Y-105039463D01*
X142301239Y-105099099D01*
X142277342Y-105079488D01*
X142125967Y-104998577D01*
X141961716Y-104948752D01*
X141790900Y-104931928D01*
X141215900Y-104931928D01*
X141045084Y-104948752D01*
X140880833Y-104998577D01*
X140729458Y-105079488D01*
X140636228Y-105156000D01*
X140487400Y-105156000D01*
X140487400Y-101333235D01*
X145031318Y-96789317D01*
X145069118Y-96979352D01*
X145187830Y-97265948D01*
X145360173Y-97523877D01*
X145579523Y-97743227D01*
X145649524Y-97790000D01*
X145579523Y-97836773D01*
X145360173Y-98056123D01*
X145187830Y-98314052D01*
X145069118Y-98600648D01*
X145008600Y-98904896D01*
X145008600Y-99215104D01*
X145069118Y-99519352D01*
X145187830Y-99805948D01*
X145360173Y-100063877D01*
X145579523Y-100283227D01*
X145649524Y-100330000D01*
X145579523Y-100376773D01*
X145360173Y-100596123D01*
X145187830Y-100854052D01*
X145069118Y-101140648D01*
X145008600Y-101444896D01*
X145008600Y-101755104D01*
X145069118Y-102059352D01*
X145187830Y-102345948D01*
X145360173Y-102603877D01*
X145579523Y-102823227D01*
X145649524Y-102870000D01*
X145579523Y-102916773D01*
X145360173Y-103136123D01*
X145187830Y-103394052D01*
X145069118Y-103680648D01*
X145008600Y-103984896D01*
X145008600Y-104295104D01*
X145069118Y-104599352D01*
X145187830Y-104885948D01*
X145360173Y-105143877D01*
X145579523Y-105363227D01*
X145649524Y-105410000D01*
X145579523Y-105456773D01*
X145360173Y-105676123D01*
X145187830Y-105934052D01*
X145069118Y-106220648D01*
X145008600Y-106524896D01*
X145008600Y-106835104D01*
X145069118Y-107139352D01*
X145187830Y-107425948D01*
X145360173Y-107683877D01*
X145579523Y-107903227D01*
X145649524Y-107950000D01*
X145579523Y-107996773D01*
X145360173Y-108216123D01*
X145187830Y-108474052D01*
X145069118Y-108760648D01*
X145008600Y-109064896D01*
X145008600Y-109375104D01*
X145069118Y-109679352D01*
X145089269Y-109728000D01*
X132837531Y-109728000D01*
X132857682Y-109679352D01*
X132918200Y-109375104D01*
X132918200Y-109064896D01*
X132857682Y-108760648D01*
X132776642Y-108565000D01*
X134850328Y-108565000D01*
X134862588Y-108689482D01*
X134898898Y-108809180D01*
X134957863Y-108919494D01*
X135037215Y-109016185D01*
X135133906Y-109095537D01*
X135244220Y-109154502D01*
X135363918Y-109190812D01*
X135488400Y-109203072D01*
X135502650Y-109200000D01*
X135661400Y-109041250D01*
X135661400Y-107917000D01*
X135012150Y-107917000D01*
X134853400Y-108075750D01*
X134850328Y-108565000D01*
X132776642Y-108565000D01*
X132738970Y-108474052D01*
X132566627Y-108216123D01*
X132347277Y-107996773D01*
X132277276Y-107950000D01*
X132347277Y-107903227D01*
X132566627Y-107683877D01*
X132738970Y-107425948D01*
X132857682Y-107139352D01*
X132882416Y-107015000D01*
X134850328Y-107015000D01*
X134853400Y-107504250D01*
X135012150Y-107663000D01*
X135661400Y-107663000D01*
X135661400Y-106538750D01*
X135502650Y-106380000D01*
X135488400Y-106376928D01*
X135363918Y-106389188D01*
X135244220Y-106425498D01*
X135133906Y-106484463D01*
X135037215Y-106563815D01*
X134957863Y-106660506D01*
X134898898Y-106770820D01*
X134862588Y-106890518D01*
X134850328Y-107015000D01*
X132882416Y-107015000D01*
X132918200Y-106835104D01*
X132918200Y-106524896D01*
X132857682Y-106220648D01*
X132738970Y-105934052D01*
X132566627Y-105676123D01*
X132347277Y-105456773D01*
X132277276Y-105410000D01*
X132347277Y-105363227D01*
X132566627Y-105143877D01*
X132738970Y-104885948D01*
X132857682Y-104599352D01*
X132918200Y-104295104D01*
X132918200Y-103984896D01*
X132857682Y-103680648D01*
X132738970Y-103394052D01*
X132566627Y-103136123D01*
X132347277Y-102916773D01*
X132277276Y-102870000D01*
X132347277Y-102823227D01*
X132566627Y-102603877D01*
X132738970Y-102345948D01*
X132857682Y-102059352D01*
X132918200Y-101755104D01*
X132918200Y-101444896D01*
X132857682Y-101140648D01*
X132738970Y-100854052D01*
X132566627Y-100596123D01*
X132347277Y-100376773D01*
X132277276Y-100330000D01*
X132347277Y-100283227D01*
X132566627Y-100063877D01*
X132738970Y-99805948D01*
X132857682Y-99519352D01*
X132918200Y-99215104D01*
X132918200Y-98904896D01*
X132857682Y-98600648D01*
X132738970Y-98314052D01*
X132566627Y-98056123D01*
X132347277Y-97836773D01*
X132277276Y-97790000D01*
X132347277Y-97743227D01*
X132566627Y-97523877D01*
X132738970Y-97265948D01*
X132857682Y-96979352D01*
X132918200Y-96675104D01*
X132918200Y-96364896D01*
X132857682Y-96060648D01*
X132738970Y-95774052D01*
X132566627Y-95516123D01*
X132347277Y-95296773D01*
X132210686Y-95205505D01*
X132256271Y-95072476D01*
X131447930Y-94264135D01*
X131448677Y-93980000D01*
X131523005Y-93980000D01*
X132435876Y-94892871D01*
X132694123Y-94804377D01*
X132828997Y-94525024D01*
X132906781Y-94224725D01*
X132924484Y-93915023D01*
X132881427Y-93607816D01*
X132779265Y-93314914D01*
X132694123Y-93155623D01*
X132435876Y-93067129D01*
X131523005Y-93980000D01*
X131448677Y-93980000D01*
X131449429Y-93694366D01*
X132256271Y-92887524D01*
X132195439Y-92710000D01*
X132256271Y-92532476D01*
X131454596Y-91730801D01*
X131455613Y-91344323D01*
X131537148Y-91425858D01*
X131537148Y-91425858D01*
G37*
X131537148Y-91425858D02*
X131523005Y-91440000D01*
X132435876Y-92352871D01*
X132694123Y-92264377D01*
X132828997Y-91985024D01*
X132899397Y-91713232D01*
X136169401Y-94983237D01*
X136169400Y-106384906D01*
X136088400Y-106376928D01*
X136074150Y-106380000D01*
X135915400Y-106538750D01*
X135915400Y-107663000D01*
X135935400Y-107663000D01*
X135935400Y-107917000D01*
X135915400Y-107917000D01*
X135915400Y-109041250D01*
X136074150Y-109200000D01*
X136088400Y-109203072D01*
X136212882Y-109190812D01*
X136332580Y-109154502D01*
X136423400Y-109105957D01*
X136514220Y-109154502D01*
X136633918Y-109190812D01*
X136758400Y-109203072D01*
X137358400Y-109203072D01*
X137482882Y-109190812D01*
X137602580Y-109154502D01*
X137693400Y-109105957D01*
X137784220Y-109154502D01*
X137903918Y-109190812D01*
X138028400Y-109203072D01*
X138628400Y-109203072D01*
X138752882Y-109190812D01*
X138872580Y-109154502D01*
X138963400Y-109105957D01*
X139054220Y-109154502D01*
X139173918Y-109190812D01*
X139298400Y-109203072D01*
X139898400Y-109203072D01*
X140022882Y-109190812D01*
X140142580Y-109154502D01*
X140252894Y-109095537D01*
X140349585Y-109016185D01*
X140428937Y-108919494D01*
X140487902Y-108809180D01*
X140524212Y-108689482D01*
X140536472Y-108565000D01*
X140536472Y-107015000D01*
X140528494Y-106934000D01*
X140636228Y-106934000D01*
X140729458Y-107010512D01*
X140880833Y-107091423D01*
X141045084Y-107141248D01*
X141215900Y-107158072D01*
X141790900Y-107158072D01*
X141961716Y-107141248D01*
X142125967Y-107091423D01*
X142277342Y-107010512D01*
X142301239Y-106990901D01*
X142373906Y-107050537D01*
X142484220Y-107109502D01*
X142603918Y-107145812D01*
X142728400Y-107158072D01*
X142967650Y-107155000D01*
X143126400Y-106996250D01*
X143126400Y-106172000D01*
X143380400Y-106172000D01*
X143380400Y-106996250D01*
X143539150Y-107155000D01*
X143778400Y-107158072D01*
X143902882Y-107145812D01*
X144022580Y-107109502D01*
X144132894Y-107050537D01*
X144229585Y-106971185D01*
X144308937Y-106874494D01*
X144367902Y-106764180D01*
X144404212Y-106644482D01*
X144416472Y-106520000D01*
X144413400Y-106330750D01*
X144254650Y-106172000D01*
X143380400Y-106172000D01*
X143126400Y-106172000D01*
X143106400Y-106172000D01*
X143106400Y-105918000D01*
X143126400Y-105918000D01*
X143126400Y-105093750D01*
X143380400Y-105093750D01*
X143380400Y-105918000D01*
X144254650Y-105918000D01*
X144413400Y-105759250D01*
X144416472Y-105570000D01*
X144404212Y-105445518D01*
X144367902Y-105325820D01*
X144308937Y-105215506D01*
X144229585Y-105118815D01*
X144132894Y-105039463D01*
X144022580Y-104980498D01*
X143902882Y-104944188D01*
X143778400Y-104931928D01*
X143539150Y-104935000D01*
X143380400Y-105093750D01*
X143126400Y-105093750D01*
X142967650Y-104935000D01*
X142728400Y-104931928D01*
X142603918Y-104944188D01*
X142484220Y-104980498D01*
X142373906Y-105039463D01*
X142301239Y-105099099D01*
X142277342Y-105079488D01*
X142125967Y-104998577D01*
X141961716Y-104948752D01*
X141790900Y-104931928D01*
X141215900Y-104931928D01*
X141045084Y-104948752D01*
X140880833Y-104998577D01*
X140729458Y-105079488D01*
X140636228Y-105156000D01*
X140487400Y-105156000D01*
X140487400Y-101333235D01*
X145031318Y-96789317D01*
X145069118Y-96979352D01*
X145187830Y-97265948D01*
X145360173Y-97523877D01*
X145579523Y-97743227D01*
X145649524Y-97790000D01*
X145579523Y-97836773D01*
X145360173Y-98056123D01*
X145187830Y-98314052D01*
X145069118Y-98600648D01*
X145008600Y-98904896D01*
X145008600Y-99215104D01*
X145069118Y-99519352D01*
X145187830Y-99805948D01*
X145360173Y-100063877D01*
X145579523Y-100283227D01*
X145649524Y-100330000D01*
X145579523Y-100376773D01*
X145360173Y-100596123D01*
X145187830Y-100854052D01*
X145069118Y-101140648D01*
X145008600Y-101444896D01*
X145008600Y-101755104D01*
X145069118Y-102059352D01*
X145187830Y-102345948D01*
X145360173Y-102603877D01*
X145579523Y-102823227D01*
X145649524Y-102870000D01*
X145579523Y-102916773D01*
X145360173Y-103136123D01*
X145187830Y-103394052D01*
X145069118Y-103680648D01*
X145008600Y-103984896D01*
X145008600Y-104295104D01*
X145069118Y-104599352D01*
X145187830Y-104885948D01*
X145360173Y-105143877D01*
X145579523Y-105363227D01*
X145649524Y-105410000D01*
X145579523Y-105456773D01*
X145360173Y-105676123D01*
X145187830Y-105934052D01*
X145069118Y-106220648D01*
X145008600Y-106524896D01*
X145008600Y-106835104D01*
X145069118Y-107139352D01*
X145187830Y-107425948D01*
X145360173Y-107683877D01*
X145579523Y-107903227D01*
X145649524Y-107950000D01*
X145579523Y-107996773D01*
X145360173Y-108216123D01*
X145187830Y-108474052D01*
X145069118Y-108760648D01*
X145008600Y-109064896D01*
X145008600Y-109375104D01*
X145069118Y-109679352D01*
X145089269Y-109728000D01*
X132837531Y-109728000D01*
X132857682Y-109679352D01*
X132918200Y-109375104D01*
X132918200Y-109064896D01*
X132857682Y-108760648D01*
X132776642Y-108565000D01*
X134850328Y-108565000D01*
X134862588Y-108689482D01*
X134898898Y-108809180D01*
X134957863Y-108919494D01*
X135037215Y-109016185D01*
X135133906Y-109095537D01*
X135244220Y-109154502D01*
X135363918Y-109190812D01*
X135488400Y-109203072D01*
X135502650Y-109200000D01*
X135661400Y-109041250D01*
X135661400Y-107917000D01*
X135012150Y-107917000D01*
X134853400Y-108075750D01*
X134850328Y-108565000D01*
X132776642Y-108565000D01*
X132738970Y-108474052D01*
X132566627Y-108216123D01*
X132347277Y-107996773D01*
X132277276Y-107950000D01*
X132347277Y-107903227D01*
X132566627Y-107683877D01*
X132738970Y-107425948D01*
X132857682Y-107139352D01*
X132882416Y-107015000D01*
X134850328Y-107015000D01*
X134853400Y-107504250D01*
X135012150Y-107663000D01*
X135661400Y-107663000D01*
X135661400Y-106538750D01*
X135502650Y-106380000D01*
X135488400Y-106376928D01*
X135363918Y-106389188D01*
X135244220Y-106425498D01*
X135133906Y-106484463D01*
X135037215Y-106563815D01*
X134957863Y-106660506D01*
X134898898Y-106770820D01*
X134862588Y-106890518D01*
X134850328Y-107015000D01*
X132882416Y-107015000D01*
X132918200Y-106835104D01*
X132918200Y-106524896D01*
X132857682Y-106220648D01*
X132738970Y-105934052D01*
X132566627Y-105676123D01*
X132347277Y-105456773D01*
X132277276Y-105410000D01*
X132347277Y-105363227D01*
X132566627Y-105143877D01*
X132738970Y-104885948D01*
X132857682Y-104599352D01*
X132918200Y-104295104D01*
X132918200Y-103984896D01*
X132857682Y-103680648D01*
X132738970Y-103394052D01*
X132566627Y-103136123D01*
X132347277Y-102916773D01*
X132277276Y-102870000D01*
X132347277Y-102823227D01*
X132566627Y-102603877D01*
X132738970Y-102345948D01*
X132857682Y-102059352D01*
X132918200Y-101755104D01*
X132918200Y-101444896D01*
X132857682Y-101140648D01*
X132738970Y-100854052D01*
X132566627Y-100596123D01*
X132347277Y-100376773D01*
X132277276Y-100330000D01*
X132347277Y-100283227D01*
X132566627Y-100063877D01*
X132738970Y-99805948D01*
X132857682Y-99519352D01*
X132918200Y-99215104D01*
X132918200Y-98904896D01*
X132857682Y-98600648D01*
X132738970Y-98314052D01*
X132566627Y-98056123D01*
X132347277Y-97836773D01*
X132277276Y-97790000D01*
X132347277Y-97743227D01*
X132566627Y-97523877D01*
X132738970Y-97265948D01*
X132857682Y-96979352D01*
X132918200Y-96675104D01*
X132918200Y-96364896D01*
X132857682Y-96060648D01*
X132738970Y-95774052D01*
X132566627Y-95516123D01*
X132347277Y-95296773D01*
X132210686Y-95205505D01*
X132256271Y-95072476D01*
X131447930Y-94264135D01*
X131448677Y-93980000D01*
X131523005Y-93980000D01*
X132435876Y-94892871D01*
X132694123Y-94804377D01*
X132828997Y-94525024D01*
X132906781Y-94224725D01*
X132924484Y-93915023D01*
X132881427Y-93607816D01*
X132779265Y-93314914D01*
X132694123Y-93155623D01*
X132435876Y-93067129D01*
X131523005Y-93980000D01*
X131448677Y-93980000D01*
X131449429Y-93694366D01*
X132256271Y-92887524D01*
X132195439Y-92710000D01*
X132256271Y-92532476D01*
X131454596Y-91730801D01*
X131455613Y-91344323D01*
X131537148Y-91425858D01*
G36*
X145005528Y-87299800D02*
G01*
X145017788Y-87424282D01*
X145054098Y-87543980D01*
X145113063Y-87654294D01*
X145192415Y-87750985D01*
X145289106Y-87830337D01*
X145385830Y-87882038D01*
X145490922Y-87987130D01*
X145232677Y-88075623D01*
X145097803Y-88354976D01*
X145020019Y-88655275D01*
X145002316Y-88964977D01*
X145045373Y-89272184D01*
X145147535Y-89565086D01*
X145232677Y-89724377D01*
X145490924Y-89812871D01*
X146403795Y-88900000D01*
X146389653Y-88885858D01*
X146569258Y-88706253D01*
X146583400Y-88720395D01*
X146597543Y-88706253D01*
X146777148Y-88885858D01*
X146763005Y-88900000D01*
X146777148Y-88914143D01*
X146597543Y-89093748D01*
X146583400Y-89079605D01*
X145670529Y-89992476D01*
X145716114Y-90125505D01*
X145579523Y-90216773D01*
X145360173Y-90436123D01*
X145187830Y-90694052D01*
X145069118Y-90980648D01*
X145008600Y-91284896D01*
X145008600Y-91595104D01*
X145069118Y-91899352D01*
X145187830Y-92185948D01*
X145360173Y-92443877D01*
X145579523Y-92663227D01*
X145649524Y-92710000D01*
X145579523Y-92756773D01*
X145360173Y-92976123D01*
X145187830Y-93234052D01*
X145069118Y-93520648D01*
X145008600Y-93824896D01*
X145008600Y-94135104D01*
X145035554Y-94270611D01*
X139217400Y-100088765D01*
X139217400Y-93388659D01*
X139221700Y-93344999D01*
X139217400Y-93301339D01*
X139217400Y-93301333D01*
X139204536Y-93170726D01*
X139204536Y-93170724D01*
X139153702Y-93003147D01*
X139127583Y-92954282D01*
X139071153Y-92848709D01*
X138960059Y-92713341D01*
X138926136Y-92685501D01*
X132942698Y-86702063D01*
X132942693Y-86702057D01*
X132891246Y-86650610D01*
X132918200Y-86515104D01*
X132918200Y-86204896D01*
X132857682Y-85900648D01*
X132837531Y-85852000D01*
X145005528Y-85852000D01*
X145005528Y-87299800D01*
X145005528Y-87299800D01*
G37*
X145005528Y-87299800D02*
X145017788Y-87424282D01*
X145054098Y-87543980D01*
X145113063Y-87654294D01*
X145192415Y-87750985D01*
X145289106Y-87830337D01*
X145385830Y-87882038D01*
X145490922Y-87987130D01*
X145232677Y-88075623D01*
X145097803Y-88354976D01*
X145020019Y-88655275D01*
X145002316Y-88964977D01*
X145045373Y-89272184D01*
X145147535Y-89565086D01*
X145232677Y-89724377D01*
X145490924Y-89812871D01*
X146403795Y-88900000D01*
X146389653Y-88885858D01*
X146569258Y-88706253D01*
X146583400Y-88720395D01*
X146597543Y-88706253D01*
X146777148Y-88885858D01*
X146763005Y-88900000D01*
X146777148Y-88914143D01*
X146597543Y-89093748D01*
X146583400Y-89079605D01*
X145670529Y-89992476D01*
X145716114Y-90125505D01*
X145579523Y-90216773D01*
X145360173Y-90436123D01*
X145187830Y-90694052D01*
X145069118Y-90980648D01*
X145008600Y-91284896D01*
X145008600Y-91595104D01*
X145069118Y-91899352D01*
X145187830Y-92185948D01*
X145360173Y-92443877D01*
X145579523Y-92663227D01*
X145649524Y-92710000D01*
X145579523Y-92756773D01*
X145360173Y-92976123D01*
X145187830Y-93234052D01*
X145069118Y-93520648D01*
X145008600Y-93824896D01*
X145008600Y-94135104D01*
X145035554Y-94270611D01*
X139217400Y-100088765D01*
X139217400Y-93388659D01*
X139221700Y-93344999D01*
X139217400Y-93301339D01*
X139217400Y-93301333D01*
X139204536Y-93170726D01*
X139204536Y-93170724D01*
X139153702Y-93003147D01*
X139127583Y-92954282D01*
X139071153Y-92848709D01*
X138960059Y-92713341D01*
X138926136Y-92685501D01*
X132942698Y-86702063D01*
X132942693Y-86702057D01*
X132891246Y-86650610D01*
X132918200Y-86515104D01*
X132918200Y-86204896D01*
X132857682Y-85900648D01*
X132837531Y-85852000D01*
X145005528Y-85852000D01*
X145005528Y-87299800D01*
M02*
