G04 #@! TF.GenerationSoftware,KiCad,Pcbnew,(5.1.4)-1*
G04 #@! TF.CreationDate,2019-12-18T21:33:11+01:00*
G04 #@! TF.ProjectId,ser,7365722e-6b69-4636-9164-5f7063625858,rev?*
G04 #@! TF.SameCoordinates,Original*
G04 #@! TF.FileFunction,Legend,Bot*
G04 #@! TF.FilePolarity,Positive*
%FSLAX46Y46*%
G04 Gerber Fmt 4.6, Leading zero omitted, Abs format (unit mm)*
G04 Created by KiCad (PCBNEW (5.1.4)-1) date 2019-12-18 21:33:11*
%MOMM*%
%LPD*%
G04 APERTURE LIST*
%ADD10C,0.254000*%
%ADD11C,0.101600*%
%ADD12C,0.152400*%
G04 APERTURE END LIST*
D10*
X140995400Y-111760000D02*
G75*
G03X140995400Y-111760000I-127000J0D01*
G01*
D11*
X134761514Y-87133611D02*
X135523514Y-87387611D01*
X134761514Y-87641611D01*
X135523514Y-87895611D02*
X134761514Y-87895611D01*
X135523514Y-88331040D02*
X135088085Y-88004468D01*
X134761514Y-88331040D02*
X135196942Y-87895611D01*
X134761514Y-88548754D02*
X135523514Y-88802754D01*
X134761514Y-89056754D01*
X135523514Y-89310754D02*
X134761514Y-89310754D01*
X135305800Y-89564754D01*
X134761514Y-89818754D01*
X135523514Y-89818754D01*
X136768114Y-87242468D02*
X136006114Y-87242468D01*
X136006114Y-87532754D01*
X136042400Y-87605325D01*
X136078685Y-87641611D01*
X136151257Y-87677897D01*
X136260114Y-87677897D01*
X136332685Y-87641611D01*
X136368971Y-87605325D01*
X136405257Y-87532754D01*
X136405257Y-87242468D01*
X136768114Y-88004468D02*
X136260114Y-88004468D01*
X136405257Y-88004468D02*
X136332685Y-88040754D01*
X136296400Y-88077040D01*
X136260114Y-88149611D01*
X136260114Y-88222182D01*
X136768114Y-88585040D02*
X136731828Y-88512468D01*
X136695542Y-88476182D01*
X136622971Y-88439897D01*
X136405257Y-88439897D01*
X136332685Y-88476182D01*
X136296400Y-88512468D01*
X136260114Y-88585040D01*
X136260114Y-88693897D01*
X136296400Y-88766468D01*
X136332685Y-88802754D01*
X136405257Y-88839040D01*
X136622971Y-88839040D01*
X136695542Y-88802754D01*
X136731828Y-88766468D01*
X136768114Y-88693897D01*
X136768114Y-88585040D01*
X136768114Y-89165611D02*
X136006114Y-89165611D01*
X136550400Y-89419611D01*
X136006114Y-89673611D01*
X136768114Y-89673611D01*
X136768114Y-90036468D02*
X136260114Y-90036468D01*
X136006114Y-90036468D02*
X136042400Y-90000182D01*
X136078685Y-90036468D01*
X136042400Y-90072754D01*
X136006114Y-90036468D01*
X136078685Y-90036468D01*
X136731828Y-90725897D02*
X136768114Y-90653325D01*
X136768114Y-90508182D01*
X136731828Y-90435611D01*
X136695542Y-90399325D01*
X136622971Y-90363040D01*
X136405257Y-90363040D01*
X136332685Y-90399325D01*
X136296400Y-90435611D01*
X136260114Y-90508182D01*
X136260114Y-90653325D01*
X136296400Y-90725897D01*
X136768114Y-91052468D02*
X136260114Y-91052468D01*
X136405257Y-91052468D02*
X136332685Y-91088754D01*
X136296400Y-91125040D01*
X136260114Y-91197611D01*
X136260114Y-91270182D01*
X136768114Y-91633040D02*
X136731828Y-91560468D01*
X136695542Y-91524182D01*
X136622971Y-91487897D01*
X136405257Y-91487897D01*
X136332685Y-91524182D01*
X136296400Y-91560468D01*
X136260114Y-91633040D01*
X136260114Y-91741897D01*
X136296400Y-91814468D01*
X136332685Y-91850754D01*
X136405257Y-91887040D01*
X136622971Y-91887040D01*
X136695542Y-91850754D01*
X136731828Y-91814468D01*
X136768114Y-91741897D01*
X136768114Y-91633040D01*
X138012714Y-87242468D02*
X137250714Y-87242468D01*
X137613571Y-87242468D02*
X137613571Y-87677897D01*
X138012714Y-87677897D02*
X137250714Y-87677897D01*
X137250714Y-87968182D02*
X138012714Y-88149611D01*
X137468428Y-88294754D01*
X138012714Y-88439897D01*
X137250714Y-88621325D01*
X137722428Y-88911611D02*
X137722428Y-89492182D01*
X137250714Y-90217897D02*
X137250714Y-89855040D01*
X137613571Y-89818754D01*
X137577285Y-89855040D01*
X137541000Y-89927611D01*
X137541000Y-90109040D01*
X137577285Y-90181611D01*
X137613571Y-90217897D01*
X137686142Y-90254182D01*
X137867571Y-90254182D01*
X137940142Y-90217897D01*
X137976428Y-90181611D01*
X138012714Y-90109040D01*
X138012714Y-89927611D01*
X137976428Y-89855040D01*
X137940142Y-89818754D01*
X138012714Y-90617040D02*
X138012714Y-90762182D01*
X137976428Y-90834754D01*
X137940142Y-90871040D01*
X137831285Y-90943611D01*
X137686142Y-90979897D01*
X137395857Y-90979897D01*
X137323285Y-90943611D01*
X137287000Y-90907325D01*
X137250714Y-90834754D01*
X137250714Y-90689611D01*
X137287000Y-90617040D01*
X137323285Y-90580754D01*
X137395857Y-90544468D01*
X137577285Y-90544468D01*
X137649857Y-90580754D01*
X137686142Y-90617040D01*
X137722428Y-90689611D01*
X137722428Y-90834754D01*
X137686142Y-90907325D01*
X137649857Y-90943611D01*
X137577285Y-90979897D01*
X137250714Y-91233897D02*
X137250714Y-91741897D01*
X138012714Y-91415325D01*
D12*
X140268400Y-112565000D02*
X140218400Y-112565000D01*
X140268400Y-108415000D02*
X140123400Y-108415000D01*
X135118400Y-108415000D02*
X135263400Y-108415000D01*
X135118400Y-112565000D02*
X135263400Y-112565000D01*
X140268400Y-112565000D02*
X140268400Y-108415000D01*
X135118400Y-112565000D02*
X135118400Y-108415000D01*
X140218400Y-112565000D02*
X140218400Y-113965000D01*
X142207133Y-105535000D02*
X142549667Y-105535000D01*
X142207133Y-106555000D02*
X142549667Y-106555000D01*
X142207133Y-115445000D02*
X142549667Y-115445000D01*
X142207133Y-114425000D02*
X142549667Y-114425000D01*
D11*
X140776114Y-109909428D02*
X141392971Y-109909428D01*
X141465542Y-109945714D01*
X141501828Y-109982000D01*
X141538114Y-110054571D01*
X141538114Y-110199714D01*
X141501828Y-110272285D01*
X141465542Y-110308571D01*
X141392971Y-110344857D01*
X140776114Y-110344857D01*
X141538114Y-111106857D02*
X141538114Y-110671428D01*
X141538114Y-110889142D02*
X140776114Y-110889142D01*
X140884971Y-110816571D01*
X140957542Y-110744000D01*
X140993828Y-110671428D01*
X142505400Y-107747142D02*
X142541685Y-107783428D01*
X142650542Y-107819714D01*
X142723114Y-107819714D01*
X142831971Y-107783428D01*
X142904542Y-107710857D01*
X142940828Y-107638285D01*
X142977114Y-107493142D01*
X142977114Y-107384285D01*
X142940828Y-107239142D01*
X142904542Y-107166571D01*
X142831971Y-107094000D01*
X142723114Y-107057714D01*
X142650542Y-107057714D01*
X142541685Y-107094000D01*
X142505400Y-107130285D01*
X142215114Y-107130285D02*
X142178828Y-107094000D01*
X142106257Y-107057714D01*
X141924828Y-107057714D01*
X141852257Y-107094000D01*
X141815971Y-107130285D01*
X141779685Y-107202857D01*
X141779685Y-107275428D01*
X141815971Y-107384285D01*
X142251400Y-107819714D01*
X141779685Y-107819714D01*
X142505400Y-116637142D02*
X142541685Y-116673428D01*
X142650542Y-116709714D01*
X142723114Y-116709714D01*
X142831971Y-116673428D01*
X142904542Y-116600857D01*
X142940828Y-116528285D01*
X142977114Y-116383142D01*
X142977114Y-116274285D01*
X142940828Y-116129142D01*
X142904542Y-116056571D01*
X142831971Y-115984000D01*
X142723114Y-115947714D01*
X142650542Y-115947714D01*
X142541685Y-115984000D01*
X142505400Y-116020285D01*
X141779685Y-116709714D02*
X142215114Y-116709714D01*
X141997400Y-116709714D02*
X141997400Y-115947714D01*
X142069971Y-116056571D01*
X142142542Y-116129142D01*
X142215114Y-116165428D01*
M02*
