G04 #@! TF.GenerationSoftware,KiCad,Pcbnew,(5.1.4)-1*
G04 #@! TF.CreationDate,2019-12-18T21:33:11+01:00*
G04 #@! TF.ProjectId,ser,7365722e-6b69-4636-9164-5f7063625858,rev?*
G04 #@! TF.SameCoordinates,Original*
G04 #@! TF.FileFunction,Legend,Top*
G04 #@! TF.FilePolarity,Positive*
%FSLAX46Y46*%
G04 Gerber Fmt 4.6, Leading zero omitted, Abs format (unit mm)*
G04 Created by KiCad (PCBNEW (5.1.4)-1) date 2019-12-18 21:33:11*
%MOMM*%
%LPD*%
G04 APERTURE LIST*
%ADD10C,0.152400*%
%ADD11C,0.101600*%
G04 APERTURE END LIST*
D10*
X135153400Y-93345000D02*
X134518400Y-93345000D01*
X134518400Y-92710000D02*
X134518400Y-93345000D01*
X133883400Y-93345000D02*
X134518400Y-93345000D01*
G36*
X135153400Y-93980000D02*
G01*
X133883400Y-93980000D01*
X134518400Y-93345000D01*
X135153400Y-93980000D01*
G37*
X135153400Y-93980000D02*
X133883400Y-93980000D01*
X134518400Y-93345000D01*
X135153400Y-93980000D01*
X134518400Y-93345000D02*
X133883400Y-93345000D01*
X134518400Y-94615000D02*
X134518400Y-93980000D01*
X140233400Y-93345000D02*
X139598400Y-93345000D01*
X139598400Y-92710000D02*
X139598400Y-93345000D01*
X138963400Y-93345000D02*
X139598400Y-93345000D01*
G36*
X140233400Y-93980000D02*
G01*
X138963400Y-93980000D01*
X139598400Y-93345000D01*
X140233400Y-93980000D01*
G37*
X140233400Y-93980000D02*
X138963400Y-93980000D01*
X139598400Y-93345000D01*
X140233400Y-93980000D01*
X139598400Y-93345000D02*
X138963400Y-93345000D01*
X139598400Y-94615000D02*
X139598400Y-93980000D01*
X140233400Y-88265000D02*
X139598400Y-88265000D01*
X139598400Y-87630000D02*
X139598400Y-88265000D01*
X138963400Y-88265000D02*
X139598400Y-88265000D01*
G36*
X140233400Y-88900000D02*
G01*
X138963400Y-88900000D01*
X139598400Y-88265000D01*
X140233400Y-88900000D01*
G37*
X140233400Y-88900000D02*
X138963400Y-88900000D01*
X139598400Y-88265000D01*
X140233400Y-88900000D01*
X139598400Y-88265000D02*
X138963400Y-88265000D01*
X139598400Y-89535000D02*
X139598400Y-88900000D01*
G36*
X135153400Y-88900000D02*
G01*
X133883400Y-88900000D01*
X134518400Y-88265000D01*
X135153400Y-88900000D01*
G37*
X135153400Y-88900000D02*
X133883400Y-88900000D01*
X134518400Y-88265000D01*
X135153400Y-88900000D01*
X135153400Y-88265000D02*
X134518400Y-88265000D01*
X134518400Y-87630000D02*
X134518400Y-88265000D01*
X133883400Y-88265000D02*
X134518400Y-88265000D01*
X134518400Y-88265000D02*
X133883400Y-88265000D01*
X134518400Y-89535000D02*
X134518400Y-88900000D01*
D11*
X144805400Y-104684285D02*
X144805400Y-104321428D01*
X145023114Y-104756857D02*
X144261114Y-104502857D01*
X145023114Y-104248857D01*
X144261114Y-103849714D02*
X144261114Y-103777142D01*
X144297400Y-103704571D01*
X144333685Y-103668285D01*
X144406257Y-103632000D01*
X144551400Y-103595714D01*
X144732828Y-103595714D01*
X144877971Y-103632000D01*
X144950542Y-103668285D01*
X144986828Y-103704571D01*
X145023114Y-103777142D01*
X145023114Y-103849714D01*
X144986828Y-103922285D01*
X144950542Y-103958571D01*
X144877971Y-103994857D01*
X144732828Y-104031142D01*
X144551400Y-104031142D01*
X144406257Y-103994857D01*
X144333685Y-103958571D01*
X144297400Y-103922285D01*
X144261114Y-103849714D01*
X145023114Y-91857285D02*
X144660257Y-92111285D01*
X145023114Y-92292714D02*
X144261114Y-92292714D01*
X144261114Y-92002428D01*
X144297400Y-91929857D01*
X144333685Y-91893571D01*
X144406257Y-91857285D01*
X144515114Y-91857285D01*
X144587685Y-91893571D01*
X144623971Y-91929857D01*
X144660257Y-92002428D01*
X144660257Y-92292714D01*
X144986828Y-91567000D02*
X145023114Y-91458142D01*
X145023114Y-91276714D01*
X144986828Y-91204142D01*
X144950542Y-91167857D01*
X144877971Y-91131571D01*
X144805400Y-91131571D01*
X144732828Y-91167857D01*
X144696542Y-91204142D01*
X144660257Y-91276714D01*
X144623971Y-91421857D01*
X144587685Y-91494428D01*
X144551400Y-91530714D01*
X144478828Y-91567000D01*
X144406257Y-91567000D01*
X144333685Y-91530714D01*
X144297400Y-91494428D01*
X144261114Y-91421857D01*
X144261114Y-91240428D01*
X144297400Y-91131571D01*
X144261114Y-90913857D02*
X144261114Y-90478428D01*
X145023114Y-90696142D02*
X144261114Y-90696142D01*
X133593114Y-89408000D02*
X133230257Y-89662000D01*
X133593114Y-89843428D02*
X132831114Y-89843428D01*
X132831114Y-89553142D01*
X132867400Y-89480571D01*
X132903685Y-89444285D01*
X132976257Y-89408000D01*
X133085114Y-89408000D01*
X133157685Y-89444285D01*
X133193971Y-89480571D01*
X133230257Y-89553142D01*
X133230257Y-89843428D01*
X132831114Y-89154000D02*
X133593114Y-88646000D01*
X132831114Y-88646000D02*
X133593114Y-89154000D01*
X133593114Y-88355714D02*
X132831114Y-88355714D01*
X132831114Y-88174285D01*
X132867400Y-88065428D01*
X132939971Y-87992857D01*
X133012542Y-87956571D01*
X133157685Y-87920285D01*
X133266542Y-87920285D01*
X133411685Y-87956571D01*
X133484257Y-87992857D01*
X133556828Y-88065428D01*
X133593114Y-88174285D01*
X133593114Y-88355714D01*
X132831114Y-87321571D02*
X132831114Y-86886142D01*
X133593114Y-87103857D02*
X132831114Y-87103857D01*
X132831114Y-86704714D02*
X133593114Y-86196714D01*
X132831114Y-86196714D02*
X133593114Y-86704714D01*
X133593114Y-85906428D02*
X132831114Y-85906428D01*
X132831114Y-85725000D01*
X132867400Y-85616142D01*
X132939971Y-85543571D01*
X133012542Y-85507285D01*
X133157685Y-85471000D01*
X133266542Y-85471000D01*
X133411685Y-85507285D01*
X133484257Y-85543571D01*
X133556828Y-85616142D01*
X133593114Y-85725000D01*
X133593114Y-85906428D01*
X133466114Y-116985142D02*
X133466114Y-117348000D01*
X133828971Y-117384285D01*
X133792685Y-117348000D01*
X133756400Y-117275428D01*
X133756400Y-117094000D01*
X133792685Y-117021428D01*
X133828971Y-116985142D01*
X133901542Y-116948857D01*
X134082971Y-116948857D01*
X134155542Y-116985142D01*
X134191828Y-117021428D01*
X134228114Y-117094000D01*
X134228114Y-117275428D01*
X134191828Y-117348000D01*
X134155542Y-117384285D01*
X133466114Y-116731142D02*
X134228114Y-116477142D01*
X133466114Y-116223142D01*
X136006114Y-117856000D02*
X136768114Y-117602000D01*
X136006114Y-117348000D01*
X136768114Y-117094000D02*
X136006114Y-117094000D01*
X136006114Y-116912571D01*
X136042400Y-116803714D01*
X136114971Y-116731142D01*
X136187542Y-116694857D01*
X136332685Y-116658571D01*
X136441542Y-116658571D01*
X136586685Y-116694857D01*
X136659257Y-116731142D01*
X136731828Y-116803714D01*
X136768114Y-116912571D01*
X136768114Y-117094000D01*
X136768114Y-116332000D02*
X136006114Y-116332000D01*
X136006114Y-116150571D01*
X136042400Y-116041714D01*
X136114971Y-115969142D01*
X136187542Y-115932857D01*
X136332685Y-115896571D01*
X136441542Y-115896571D01*
X136586685Y-115932857D01*
X136659257Y-115969142D01*
X136731828Y-116041714D01*
X136768114Y-116150571D01*
X136768114Y-116332000D01*
X138546114Y-117783428D02*
X138546114Y-117311714D01*
X138836400Y-117565714D01*
X138836400Y-117456857D01*
X138872685Y-117384285D01*
X138908971Y-117348000D01*
X138981542Y-117311714D01*
X139162971Y-117311714D01*
X139235542Y-117348000D01*
X139271828Y-117384285D01*
X139308114Y-117456857D01*
X139308114Y-117674571D01*
X139271828Y-117747142D01*
X139235542Y-117783428D01*
X138546114Y-117094000D02*
X139308114Y-116840000D01*
X138546114Y-116586000D01*
X138546114Y-116404571D02*
X138546114Y-115932857D01*
X138836400Y-116186857D01*
X138836400Y-116078000D01*
X138872685Y-116005428D01*
X138908971Y-115969142D01*
X138981542Y-115932857D01*
X139162971Y-115932857D01*
X139235542Y-115969142D01*
X139271828Y-116005428D01*
X139308114Y-116078000D01*
X139308114Y-116295714D01*
X139271828Y-116368285D01*
X139235542Y-116404571D01*
X141086114Y-117801571D02*
X141086114Y-117366142D01*
X141848114Y-117583857D02*
X141086114Y-117583857D01*
X141086114Y-117184714D02*
X141848114Y-116676714D01*
X141086114Y-116676714D02*
X141848114Y-117184714D01*
X141848114Y-116386428D02*
X141086114Y-116386428D01*
X141086114Y-116205000D01*
X141122400Y-116096142D01*
X141194971Y-116023571D01*
X141267542Y-115987285D01*
X141412685Y-115951000D01*
X141521542Y-115951000D01*
X141666685Y-115987285D01*
X141739257Y-116023571D01*
X141811828Y-116096142D01*
X141848114Y-116205000D01*
X141848114Y-116386428D01*
X144388114Y-117348000D02*
X144025257Y-117602000D01*
X144388114Y-117783428D02*
X143626114Y-117783428D01*
X143626114Y-117493142D01*
X143662400Y-117420571D01*
X143698685Y-117384285D01*
X143771257Y-117348000D01*
X143880114Y-117348000D01*
X143952685Y-117384285D01*
X143988971Y-117420571D01*
X144025257Y-117493142D01*
X144025257Y-117783428D01*
X143626114Y-117094000D02*
X144388114Y-116586000D01*
X143626114Y-116586000D02*
X144388114Y-117094000D01*
X144388114Y-116295714D02*
X143626114Y-116295714D01*
X143626114Y-116114285D01*
X143662400Y-116005428D01*
X143734971Y-115932857D01*
X143807542Y-115896571D01*
X143952685Y-115860285D01*
X144061542Y-115860285D01*
X144206685Y-115896571D01*
X144279257Y-115932857D01*
X144351828Y-116005428D01*
X144388114Y-116114285D01*
X144388114Y-116295714D01*
X146202400Y-117420571D02*
X146166114Y-117493142D01*
X146166114Y-117602000D01*
X146202400Y-117710857D01*
X146274971Y-117783428D01*
X146347542Y-117819714D01*
X146492685Y-117856000D01*
X146601542Y-117856000D01*
X146746685Y-117819714D01*
X146819257Y-117783428D01*
X146891828Y-117710857D01*
X146928114Y-117602000D01*
X146928114Y-117529428D01*
X146891828Y-117420571D01*
X146855542Y-117384285D01*
X146601542Y-117384285D01*
X146601542Y-117529428D01*
X146928114Y-117057714D02*
X146166114Y-117057714D01*
X146928114Y-116622285D01*
X146166114Y-116622285D01*
X146928114Y-116259428D02*
X146166114Y-116259428D01*
X146166114Y-116078000D01*
X146202400Y-115969142D01*
X146274971Y-115896571D01*
X146347542Y-115860285D01*
X146492685Y-115824000D01*
X146601542Y-115824000D01*
X146746685Y-115860285D01*
X146819257Y-115896571D01*
X146891828Y-115969142D01*
X146928114Y-116078000D01*
X146928114Y-116259428D01*
D10*
X130073400Y-85090000D02*
X147853400Y-85090000D01*
X147853400Y-85090000D02*
X147853400Y-115570000D01*
X147853400Y-115570000D02*
X130073400Y-115570000D01*
X130073400Y-115570000D02*
X130073400Y-85090000D01*
X137563400Y-110855000D02*
X137563400Y-108855000D01*
X140363400Y-110855000D02*
X137563400Y-110855000D01*
X140363400Y-108855000D02*
X140363400Y-110855000D01*
X137563400Y-108855000D02*
X140363400Y-108855000D01*
X132553400Y-118050000D02*
X132553400Y-120710000D01*
X145313400Y-118050000D02*
X132553400Y-118050000D01*
X145313400Y-120710000D02*
X132553400Y-120710000D01*
X145313400Y-118050000D02*
X145313400Y-120710000D01*
X146583400Y-118050000D02*
X147913400Y-118050000D01*
X147913400Y-118050000D02*
X147913400Y-119380000D01*
X140768400Y-92167500D02*
X140768400Y-94627500D01*
X142238400Y-92167500D02*
X140768400Y-92167500D01*
X142238400Y-94627500D02*
X142238400Y-92167500D01*
X142238400Y-89547500D02*
X142238400Y-87087500D01*
X142238400Y-87087500D02*
X140768400Y-87087500D01*
X140768400Y-87087500D02*
X140768400Y-89547500D01*
X135688400Y-92167500D02*
X135688400Y-94627500D01*
X137158400Y-92167500D02*
X135688400Y-92167500D01*
X137158400Y-94627500D02*
X137158400Y-92167500D01*
X137158400Y-89547500D02*
X137158400Y-87087500D01*
X137158400Y-87087500D02*
X135688400Y-87087500D01*
X135688400Y-87087500D02*
X135688400Y-89547500D01*
X142013400Y-98356267D02*
X142013400Y-98013733D01*
X140993400Y-98356267D02*
X140993400Y-98013733D01*
X139088400Y-98356267D02*
X139088400Y-98013733D01*
X140108400Y-98356267D02*
X140108400Y-98013733D01*
X136933400Y-98356267D02*
X136933400Y-98013733D01*
X135913400Y-98356267D02*
X135913400Y-98013733D01*
X134008400Y-98356267D02*
X134008400Y-98013733D01*
X135028400Y-98356267D02*
X135028400Y-98013733D01*
D11*
X138546114Y-113030000D02*
X139090400Y-113030000D01*
X139199257Y-113066285D01*
X139271828Y-113138857D01*
X139308114Y-113247714D01*
X139308114Y-113320285D01*
X139308114Y-112667142D02*
X138546114Y-112667142D01*
X138546114Y-112376857D01*
X138582400Y-112304285D01*
X138618685Y-112268000D01*
X138691257Y-112231714D01*
X138800114Y-112231714D01*
X138872685Y-112268000D01*
X138908971Y-112304285D01*
X138945257Y-112376857D01*
X138945257Y-112667142D01*
X139308114Y-111506000D02*
X139308114Y-111941428D01*
X139308114Y-111723714D02*
X138546114Y-111723714D01*
X138654971Y-111796285D01*
X138727542Y-111868857D01*
X138763828Y-111941428D01*
X143278114Y-94389928D02*
X142516114Y-94389928D01*
X142516114Y-94208500D01*
X142552400Y-94099642D01*
X142624971Y-94027071D01*
X142697542Y-93990785D01*
X142842685Y-93954500D01*
X142951542Y-93954500D01*
X143096685Y-93990785D01*
X143169257Y-94027071D01*
X143241828Y-94099642D01*
X143278114Y-94208500D01*
X143278114Y-94389928D01*
X142770114Y-93301357D02*
X143278114Y-93301357D01*
X142479828Y-93482785D02*
X143024114Y-93664214D01*
X143024114Y-93192500D01*
X143278114Y-89309928D02*
X142516114Y-89309928D01*
X142516114Y-89128500D01*
X142552400Y-89019642D01*
X142624971Y-88947071D01*
X142697542Y-88910785D01*
X142842685Y-88874500D01*
X142951542Y-88874500D01*
X143096685Y-88910785D01*
X143169257Y-88947071D01*
X143241828Y-89019642D01*
X143278114Y-89128500D01*
X143278114Y-89309928D01*
X142516114Y-88620500D02*
X142516114Y-88148785D01*
X142806400Y-88402785D01*
X142806400Y-88293928D01*
X142842685Y-88221357D01*
X142878971Y-88185071D01*
X142951542Y-88148785D01*
X143132971Y-88148785D01*
X143205542Y-88185071D01*
X143241828Y-88221357D01*
X143278114Y-88293928D01*
X143278114Y-88511642D01*
X143241828Y-88584214D01*
X143205542Y-88620500D01*
X138198114Y-94389928D02*
X137436114Y-94389928D01*
X137436114Y-94208500D01*
X137472400Y-94099642D01*
X137544971Y-94027071D01*
X137617542Y-93990785D01*
X137762685Y-93954500D01*
X137871542Y-93954500D01*
X138016685Y-93990785D01*
X138089257Y-94027071D01*
X138161828Y-94099642D01*
X138198114Y-94208500D01*
X138198114Y-94389928D01*
X137508685Y-93664214D02*
X137472400Y-93627928D01*
X137436114Y-93555357D01*
X137436114Y-93373928D01*
X137472400Y-93301357D01*
X137508685Y-93265071D01*
X137581257Y-93228785D01*
X137653828Y-93228785D01*
X137762685Y-93265071D01*
X138198114Y-93700500D01*
X138198114Y-93228785D01*
X138198114Y-89309928D02*
X137436114Y-89309928D01*
X137436114Y-89128500D01*
X137472400Y-89019642D01*
X137544971Y-88947071D01*
X137617542Y-88910785D01*
X137762685Y-88874500D01*
X137871542Y-88874500D01*
X138016685Y-88910785D01*
X138089257Y-88947071D01*
X138161828Y-89019642D01*
X138198114Y-89128500D01*
X138198114Y-89309928D01*
X138198114Y-88148785D02*
X138198114Y-88584214D01*
X138198114Y-88366500D02*
X137436114Y-88366500D01*
X137544971Y-88439071D01*
X137617542Y-88511642D01*
X137653828Y-88584214D01*
X141848114Y-101092000D02*
X141485257Y-101346000D01*
X141848114Y-101527428D02*
X141086114Y-101527428D01*
X141086114Y-101237142D01*
X141122400Y-101164571D01*
X141158685Y-101128285D01*
X141231257Y-101092000D01*
X141340114Y-101092000D01*
X141412685Y-101128285D01*
X141448971Y-101164571D01*
X141485257Y-101237142D01*
X141485257Y-101527428D01*
X141340114Y-100438857D02*
X141848114Y-100438857D01*
X141049828Y-100620285D02*
X141594114Y-100801714D01*
X141594114Y-100330000D01*
X139943114Y-101092000D02*
X139580257Y-101346000D01*
X139943114Y-101527428D02*
X139181114Y-101527428D01*
X139181114Y-101237142D01*
X139217400Y-101164571D01*
X139253685Y-101128285D01*
X139326257Y-101092000D01*
X139435114Y-101092000D01*
X139507685Y-101128285D01*
X139543971Y-101164571D01*
X139580257Y-101237142D01*
X139580257Y-101527428D01*
X139181114Y-100838000D02*
X139181114Y-100366285D01*
X139471400Y-100620285D01*
X139471400Y-100511428D01*
X139507685Y-100438857D01*
X139543971Y-100402571D01*
X139616542Y-100366285D01*
X139797971Y-100366285D01*
X139870542Y-100402571D01*
X139906828Y-100438857D01*
X139943114Y-100511428D01*
X139943114Y-100729142D01*
X139906828Y-100801714D01*
X139870542Y-100838000D01*
X136768114Y-101092000D02*
X136405257Y-101346000D01*
X136768114Y-101527428D02*
X136006114Y-101527428D01*
X136006114Y-101237142D01*
X136042400Y-101164571D01*
X136078685Y-101128285D01*
X136151257Y-101092000D01*
X136260114Y-101092000D01*
X136332685Y-101128285D01*
X136368971Y-101164571D01*
X136405257Y-101237142D01*
X136405257Y-101527428D01*
X136078685Y-100801714D02*
X136042400Y-100765428D01*
X136006114Y-100692857D01*
X136006114Y-100511428D01*
X136042400Y-100438857D01*
X136078685Y-100402571D01*
X136151257Y-100366285D01*
X136223828Y-100366285D01*
X136332685Y-100402571D01*
X136768114Y-100838000D01*
X136768114Y-100366285D01*
X134863114Y-101092000D02*
X134500257Y-101346000D01*
X134863114Y-101527428D02*
X134101114Y-101527428D01*
X134101114Y-101237142D01*
X134137400Y-101164571D01*
X134173685Y-101128285D01*
X134246257Y-101092000D01*
X134355114Y-101092000D01*
X134427685Y-101128285D01*
X134463971Y-101164571D01*
X134500257Y-101237142D01*
X134500257Y-101527428D01*
X134863114Y-100366285D02*
X134863114Y-100801714D01*
X134863114Y-100584000D02*
X134101114Y-100584000D01*
X134209971Y-100656571D01*
X134282542Y-100729142D01*
X134318828Y-100801714D01*
M02*
