%MOIN*%
%OFA0B0*%
%FSLAX44Y44*%
%IPPOS*%
%LPD*%
%ADD10R,0.0024827599298879567X0.0049824563427053109*%
D10*
X00051308Y-00047525D02*
X00051805Y-00047525D01*
X00057813Y-00047525D02*
X00058310Y-00047525D01*
X00051357Y-00047475D02*
X00051755Y-00047475D01*
X00057862Y-00047475D02*
X00058161Y-00047475D01*
X00051407Y-00047425D02*
X00051705Y-00047425D01*
X00058160Y-00047425D02*
X00058111Y-00047425D01*
X00051457Y-00047375D02*
X00051656Y-00047375D01*
X00058061Y-00047375D02*
X00058012Y-00047375D01*
X00058309Y-00047375D02*
X00058310Y-00047375D01*
X00051506Y-00047325D02*
X00051606Y-00047325D01*
X00058160Y-00047325D02*
X00058111Y-00047325D01*
X00051556Y-00047276D02*
X00051556Y-00047276D01*
X00053294Y-00046977D02*
X00053344Y-00046977D01*
X00054287Y-00046977D02*
X00054337Y-00046977D01*
X00055280Y-00046977D02*
X00055330Y-00046977D01*
X00056273Y-00046977D02*
X00056323Y-00046977D01*
X00051904Y-00046279D02*
X00051854Y-00046279D01*
X00051606Y-00046229D02*
X00051556Y-00046229D01*
X00051804Y-00046229D02*
X00051805Y-00046229D01*
X00051606Y-00046179D02*
X00051556Y-00046179D01*
X00051755Y-00046179D02*
X00051705Y-00046179D01*
X00051953Y-00046179D02*
X00051904Y-00046179D01*
X00051755Y-00046130D02*
X00051705Y-00046130D01*
X00051854Y-00046130D02*
X00051805Y-00046130D01*
X00051755Y-00046080D02*
X00051705Y-00046080D01*
X00051904Y-00046080D02*
X00051854Y-00046080D01*
X00051904Y-00046030D02*
X00051954Y-00046030D01*
X00052102Y-00046030D02*
X00052053Y-00046030D01*
X00052003Y-00045980D02*
X00051954Y-00045980D01*
X00052202Y-00045980D02*
X00052152Y-00045980D01*
X00051308Y-00045881D02*
X00052202Y-00045881D01*
X00052301Y-00044984D02*
X00054635Y-00044984D01*
X00054883Y-00044984D02*
X00055032Y-00044984D01*
X00055230Y-00044984D02*
X00057316Y-00044984D01*
X00052350Y-00044934D02*
X00054387Y-00044934D01*
X00054734Y-00044934D02*
X00054685Y-00044934D01*
X00055181Y-00044934D02*
X00055132Y-00044934D01*
X00055330Y-00044934D02*
X00057267Y-00044934D01*
X00052400Y-00044884D02*
X00054238Y-00044884D01*
X00054386Y-00044884D02*
X00054337Y-00044884D01*
X00054635Y-00044884D02*
X00054635Y-00044884D01*
X00055429Y-00044884D02*
X00057217Y-00044884D01*
X00052251Y-00044834D02*
X00052202Y-00044834D01*
X00052400Y-00044834D02*
X00054138Y-00044834D01*
X00054486Y-00044834D02*
X00054436Y-00044834D01*
X00055429Y-00044834D02*
X00055380Y-00044834D01*
X00055528Y-00044834D02*
X00057167Y-00044834D01*
X00057415Y-00044834D02*
X00057366Y-00044834D01*
X00052301Y-00044784D02*
X00054039Y-00044784D01*
X00054188Y-00044784D02*
X00054188Y-00044784D01*
X00055578Y-00044784D02*
X00057118Y-00044784D01*
X00057316Y-00044784D02*
X00057316Y-00044784D01*
X00052202Y-00044735D02*
X00052152Y-00044735D01*
X00052400Y-00044735D02*
X00053940Y-00044735D01*
X00054088Y-00044735D02*
X00054039Y-00044735D01*
X00055479Y-00044735D02*
X00055529Y-00044735D01*
X00055677Y-00044735D02*
X00057068Y-00044735D01*
X00057266Y-00044735D02*
X00057217Y-00044735D01*
X00057465Y-00044735D02*
X00057416Y-00044735D01*
X00052202Y-00044685D02*
X00052252Y-00044685D01*
X00052549Y-00044685D02*
X00053841Y-00044685D01*
X00054138Y-00044685D02*
X00054138Y-00044685D01*
X00055727Y-00044685D02*
X00057018Y-00044685D01*
X00057366Y-00044685D02*
X00057316Y-00044685D01*
X00052152Y-00044635D02*
X00052351Y-00044635D01*
X00052499Y-00044635D02*
X00053791Y-00044635D01*
X00053939Y-00044635D02*
X00053990Y-00044635D01*
X00055777Y-00044635D02*
X00057068Y-00044635D01*
X00057316Y-00044635D02*
X00057366Y-00044635D01*
X00052053Y-00044585D02*
X00052450Y-00044585D01*
X00052599Y-00044585D02*
X00053741Y-00044585D01*
X00053890Y-00044585D02*
X00054089Y-00044585D01*
X00055826Y-00044585D02*
X00056969Y-00044585D01*
X00057217Y-00044585D02*
X00057416Y-00044585D01*
X00057614Y-00044585D02*
X00057565Y-00044585D01*
X00051854Y-00044535D02*
X00051954Y-00044535D01*
X00052102Y-00044535D02*
X00053692Y-00044535D01*
X00055876Y-00044535D02*
X00056969Y-00044535D01*
X00057117Y-00044535D02*
X00057465Y-00044535D01*
X00057614Y-00044535D02*
X00057565Y-00044535D01*
X00057713Y-00044535D02*
X00057763Y-00044535D01*
X00051904Y-00044485D02*
X00051854Y-00044485D01*
X00052152Y-00044485D02*
X00053642Y-00044485D01*
X00055926Y-00044485D02*
X00056919Y-00044485D01*
X00057068Y-00044485D02*
X00057465Y-00044485D01*
X00057614Y-00044485D02*
X00057565Y-00044485D01*
X00057713Y-00044485D02*
X00057714Y-00044485D01*
X00052003Y-00044436D02*
X00052053Y-00044436D01*
X00052648Y-00044436D02*
X00053592Y-00044436D01*
X00055975Y-00044436D02*
X00056919Y-00044436D01*
X00057515Y-00044436D02*
X00057565Y-00044436D01*
X00052102Y-00044386D02*
X00052053Y-00044386D01*
X00052797Y-00044386D02*
X00053543Y-00044386D01*
X00053691Y-00044386D02*
X00053692Y-00044386D01*
X00055826Y-00044386D02*
X00055777Y-00044386D01*
X00056075Y-00044386D02*
X00056820Y-00044386D01*
X00057614Y-00044386D02*
X00057565Y-00044386D01*
X00051804Y-00044336D02*
X00051904Y-00044336D01*
X00052152Y-00044336D02*
X00052103Y-00044336D01*
X00052599Y-00044336D02*
X00052698Y-00044336D01*
X00052847Y-00044336D02*
X00053394Y-00044336D01*
X00053840Y-00044336D02*
X00053791Y-00044336D01*
X00055727Y-00044336D02*
X00055678Y-00044336D01*
X00056124Y-00044336D02*
X00056075Y-00044336D01*
X00056224Y-00044336D02*
X00056721Y-00044336D01*
X00057713Y-00044336D02*
X00057813Y-00044336D01*
X00052053Y-00044286D02*
X00052003Y-00044286D01*
X00052202Y-00044286D02*
X00052152Y-00044286D01*
X00052499Y-00044286D02*
X00052748Y-00044286D01*
X00052946Y-00044286D02*
X00053294Y-00044286D01*
X00053939Y-00044286D02*
X00053890Y-00044286D01*
X00055727Y-00044286D02*
X00055678Y-00044286D01*
X00056323Y-00044286D02*
X00056770Y-00044286D01*
X00057614Y-00044286D02*
X00057565Y-00044286D01*
X00052102Y-00044236D02*
X00052053Y-00044236D01*
X00052251Y-00044236D02*
X00052202Y-00044236D01*
X00052400Y-00044236D02*
X00052649Y-00044236D01*
X00052797Y-00044236D02*
X00053195Y-00044236D01*
X00053890Y-00044236D02*
X00053841Y-00044236D01*
X00055628Y-00044236D02*
X00055678Y-00044236D01*
X00056422Y-00044236D02*
X00056919Y-00044236D01*
X00057266Y-00044236D02*
X00057217Y-00044236D01*
X00057564Y-00044236D02*
X00057515Y-00044236D01*
X00052152Y-00044187D02*
X00052103Y-00044187D01*
X00052301Y-00044187D02*
X00052500Y-00044187D01*
X00052648Y-00044187D02*
X00052897Y-00044187D01*
X00053046Y-00044187D02*
X00053096Y-00044187D01*
X00053939Y-00044187D02*
X00053940Y-00044187D01*
X00055528Y-00044187D02*
X00055479Y-00044187D01*
X00055628Y-00044187D02*
X00055628Y-00044187D01*
X00056522Y-00044187D02*
X00056522Y-00044187D01*
X00056670Y-00044187D02*
X00057018Y-00044187D01*
X00057316Y-00044187D02*
X00057316Y-00044187D01*
X00057515Y-00044187D02*
X00057465Y-00044187D01*
X00052350Y-00044137D02*
X00052351Y-00044137D01*
X00052549Y-00044137D02*
X00052996Y-00044137D01*
X00053989Y-00044137D02*
X00053940Y-00044137D01*
X00055628Y-00044137D02*
X00055578Y-00044137D01*
X00056621Y-00044137D02*
X00057167Y-00044137D01*
X00052450Y-00044087D02*
X00053096Y-00044087D01*
X00055628Y-00044087D02*
X00055578Y-00044087D01*
X00056422Y-00044087D02*
X00057267Y-00044087D01*
X00052350Y-00044037D02*
X00052549Y-00044037D01*
X00053095Y-00044037D02*
X00053245Y-00044037D01*
X00055429Y-00044037D02*
X00055380Y-00044037D01*
X00055677Y-00044037D02*
X00055628Y-00044037D01*
X00056323Y-00044037D02*
X00056522Y-00044037D01*
X00053095Y-00043987D02*
X00053394Y-00043987D01*
X00054088Y-00043987D02*
X00054089Y-00043987D01*
X00055528Y-00043987D02*
X00055529Y-00043987D01*
X00055727Y-00043987D02*
X00055678Y-00043987D01*
X00056174Y-00043987D02*
X00056472Y-00043987D01*
X00053095Y-00043937D02*
X00053046Y-00043937D01*
X00053195Y-00043937D02*
X00053493Y-00043937D01*
X00054039Y-00043937D02*
X00053990Y-00043937D01*
X00055628Y-00043937D02*
X00055578Y-00043937D01*
X00055777Y-00043937D02*
X00055727Y-00043937D01*
X00056075Y-00043937D02*
X00056522Y-00043937D01*
X00053095Y-00043888D02*
X00053195Y-00043888D01*
X00053393Y-00043888D02*
X00053642Y-00043888D01*
X00055826Y-00043888D02*
X00055777Y-00043888D01*
X00055975Y-00043888D02*
X00056224Y-00043888D01*
X00056373Y-00043888D02*
X00056522Y-00043888D01*
X00052251Y-00043838D02*
X00052202Y-00043838D01*
X00053095Y-00043838D02*
X00053344Y-00043838D01*
X00053542Y-00043838D02*
X00053741Y-00043838D01*
X00053939Y-00043838D02*
X00053890Y-00043838D01*
X00055876Y-00043838D02*
X00056075Y-00043838D01*
X00056224Y-00043838D02*
X00056472Y-00043838D01*
X00057415Y-00043838D02*
X00057366Y-00043838D01*
X00052301Y-00043788D02*
X00052301Y-00043788D01*
X00053095Y-00043788D02*
X00053443Y-00043788D01*
X00053691Y-00043788D02*
X00053692Y-00043788D01*
X00055926Y-00043788D02*
X00055926Y-00043788D01*
X00056124Y-00043788D02*
X00056522Y-00043788D01*
X00057316Y-00043788D02*
X00057316Y-00043788D01*
X00052202Y-00043738D02*
X00052152Y-00043738D01*
X00052400Y-00043738D02*
X00052401Y-00043738D01*
X00053046Y-00043738D02*
X00053592Y-00043738D01*
X00056025Y-00043738D02*
X00056572Y-00043738D01*
X00057266Y-00043738D02*
X00057217Y-00043738D01*
X00057465Y-00043738D02*
X00057416Y-00043738D01*
X00052202Y-00043688D02*
X00052252Y-00043688D01*
X00052499Y-00043688D02*
X00052500Y-00043688D01*
X00053046Y-00043688D02*
X00053692Y-00043688D01*
X00055926Y-00043688D02*
X00056125Y-00043688D01*
X00056621Y-00043688D02*
X00056572Y-00043688D01*
X00057366Y-00043688D02*
X00057316Y-00043688D01*
X00052152Y-00043638D02*
X00052351Y-00043638D01*
X00052599Y-00043638D02*
X00052599Y-00043638D01*
X00052996Y-00043638D02*
X00052947Y-00043638D01*
X00057316Y-00043638D02*
X00057366Y-00043638D01*
X00052053Y-00043589D02*
X00052450Y-00043589D01*
X00052698Y-00043589D02*
X00052698Y-00043589D01*
X00057217Y-00043589D02*
X00057416Y-00043589D01*
X00057614Y-00043589D02*
X00057565Y-00043589D01*
X00051854Y-00043539D02*
X00051954Y-00043539D01*
X00052102Y-00043539D02*
X00052549Y-00043539D01*
X00052797Y-00043539D02*
X00052798Y-00043539D01*
X00057117Y-00043539D02*
X00057465Y-00043539D01*
X00057614Y-00043539D02*
X00057565Y-00043539D01*
X00057713Y-00043539D02*
X00057763Y-00043539D01*
X00051904Y-00043489D02*
X00051854Y-00043489D01*
X00052152Y-00043489D02*
X00052649Y-00043489D01*
X00052897Y-00043489D02*
X00052947Y-00043489D01*
X00057018Y-00043489D02*
X00057465Y-00043489D01*
X00057614Y-00043489D02*
X00057565Y-00043489D01*
X00057713Y-00043489D02*
X00057714Y-00043489D01*
X00052003Y-00043439D02*
X00052053Y-00043439D01*
X00052847Y-00043439D02*
X00052947Y-00043439D01*
X00057515Y-00043439D02*
X00057565Y-00043439D01*
X00052102Y-00043389D02*
X00052053Y-00043389D01*
X00052748Y-00043389D02*
X00052947Y-00043389D01*
X00057614Y-00043389D02*
X00057565Y-00043389D01*
X00051804Y-00043339D02*
X00051904Y-00043339D01*
X00052152Y-00043339D02*
X00052103Y-00043339D01*
X00052599Y-00043339D02*
X00052897Y-00043339D01*
X00056670Y-00043339D02*
X00056621Y-00043339D01*
X00057713Y-00043339D02*
X00057813Y-00043339D01*
X00052053Y-00043290D02*
X00052003Y-00043290D01*
X00052202Y-00043290D02*
X00052152Y-00043290D01*
X00052499Y-00043290D02*
X00052947Y-00043290D01*
X00056670Y-00043290D02*
X00056770Y-00043290D01*
X00057614Y-00043290D02*
X00057565Y-00043290D01*
X00052102Y-00043240D02*
X00052053Y-00043240D01*
X00052251Y-00043240D02*
X00052202Y-00043240D01*
X00052400Y-00043240D02*
X00052649Y-00043240D01*
X00052797Y-00043240D02*
X00052947Y-00043240D01*
X00056670Y-00043240D02*
X00056919Y-00043240D01*
X00057266Y-00043240D02*
X00057217Y-00043240D01*
X00057564Y-00043240D02*
X00057515Y-00043240D01*
X00052152Y-00043190D02*
X00052103Y-00043190D01*
X00052301Y-00043190D02*
X00052500Y-00043190D01*
X00052648Y-00043190D02*
X00052897Y-00043190D01*
X00056670Y-00043190D02*
X00057018Y-00043190D01*
X00057316Y-00043190D02*
X00057316Y-00043190D01*
X00057515Y-00043190D02*
X00057465Y-00043190D01*
X00052350Y-00043140D02*
X00052351Y-00043140D01*
X00052549Y-00043140D02*
X00052947Y-00043140D01*
X00056670Y-00043140D02*
X00057167Y-00043140D01*
X00052450Y-00043090D02*
X00052947Y-00043090D01*
X00056670Y-00043090D02*
X00057267Y-00043090D01*
X00052350Y-00043041D02*
X00052549Y-00043041D01*
X00052251Y-00042841D02*
X00052202Y-00042841D01*
X00057415Y-00042841D02*
X00057366Y-00042841D01*
X00052301Y-00042791D02*
X00052301Y-00042791D01*
X00057316Y-00042791D02*
X00057316Y-00042791D01*
X00052202Y-00042742D02*
X00052152Y-00042742D01*
X00052400Y-00042742D02*
X00052401Y-00042742D01*
X00053840Y-00042742D02*
X00053791Y-00042742D01*
X00055826Y-00042742D02*
X00055777Y-00042742D01*
X00057266Y-00042742D02*
X00057217Y-00042742D01*
X00057465Y-00042742D02*
X00057416Y-00042742D01*
X00052202Y-00042692D02*
X00052252Y-00042692D01*
X00052499Y-00042692D02*
X00052500Y-00042692D01*
X00053741Y-00042692D02*
X00053741Y-00042692D01*
X00055876Y-00042692D02*
X00055876Y-00042692D01*
X00057366Y-00042692D02*
X00057316Y-00042692D01*
X00052152Y-00042642D02*
X00052351Y-00042642D01*
X00052599Y-00042642D02*
X00052599Y-00042642D01*
X00056025Y-00042642D02*
X00055976Y-00042642D01*
X00057316Y-00042642D02*
X00057366Y-00042642D01*
X00052053Y-00042592D02*
X00052450Y-00042592D01*
X00052698Y-00042592D02*
X00052698Y-00042592D01*
X00052996Y-00042592D02*
X00052947Y-00042592D01*
X00053890Y-00042592D02*
X00053841Y-00042592D01*
X00055777Y-00042592D02*
X00055727Y-00042592D01*
X00057217Y-00042592D02*
X00057416Y-00042592D01*
X00057614Y-00042592D02*
X00057565Y-00042592D01*
X00051854Y-00042542D02*
X00051954Y-00042542D01*
X00052102Y-00042542D02*
X00052549Y-00042542D01*
X00052797Y-00042542D02*
X00052798Y-00042542D01*
X00053790Y-00042542D02*
X00053741Y-00042542D01*
X00055777Y-00042542D02*
X00055827Y-00042542D01*
X00056621Y-00042542D02*
X00056572Y-00042542D01*
X00057117Y-00042542D02*
X00057465Y-00042542D01*
X00057614Y-00042542D02*
X00057614Y-00042542D01*
X00057763Y-00042542D02*
X00057763Y-00042542D01*
X00051904Y-00042492D02*
X00051854Y-00042492D01*
X00052152Y-00042492D02*
X00052649Y-00042492D01*
X00052897Y-00042492D02*
X00052897Y-00042492D01*
X00053741Y-00042492D02*
X00053791Y-00042492D01*
X00055727Y-00042492D02*
X00055926Y-00042492D01*
X00057018Y-00042492D02*
X00057465Y-00042492D01*
X00057614Y-00042492D02*
X00057565Y-00042492D01*
X00057713Y-00042492D02*
X00057714Y-00042492D01*
X00052003Y-00042443D02*
X00052053Y-00042443D01*
X00052847Y-00042443D02*
X00052947Y-00042443D01*
X00053642Y-00042443D02*
X00053841Y-00042443D01*
X00054039Y-00042443D02*
X00053990Y-00042443D01*
X00055677Y-00042443D02*
X00056025Y-00042443D01*
X00057515Y-00042443D02*
X00057565Y-00042443D01*
X00052102Y-00042393D02*
X00052053Y-00042393D01*
X00052748Y-00042393D02*
X00052947Y-00042393D01*
X00053542Y-00042393D02*
X00053890Y-00042393D01*
X00054088Y-00042393D02*
X00054039Y-00042393D01*
X00055578Y-00042393D02*
X00056125Y-00042393D01*
X00057614Y-00042393D02*
X00057565Y-00042393D01*
X00051804Y-00042343D02*
X00051904Y-00042343D01*
X00052152Y-00042343D02*
X00052103Y-00042343D01*
X00052599Y-00042343D02*
X00052947Y-00042343D01*
X00053443Y-00042343D02*
X00053940Y-00042343D01*
X00054088Y-00042343D02*
X00054138Y-00042343D01*
X00054287Y-00042343D02*
X00055479Y-00042343D01*
X00055628Y-00042343D02*
X00056224Y-00042343D01*
X00056621Y-00042343D02*
X00056572Y-00042343D01*
X00057713Y-00042343D02*
X00057813Y-00042343D01*
X00052053Y-00042293D02*
X00052003Y-00042293D01*
X00052202Y-00042293D02*
X00052152Y-00042293D01*
X00052499Y-00042293D02*
X00052947Y-00042293D01*
X00053393Y-00042293D02*
X00053940Y-00042293D01*
X00054088Y-00042293D02*
X00054138Y-00042293D01*
X00054287Y-00042293D02*
X00055281Y-00042293D01*
X00055479Y-00042293D02*
X00055479Y-00042293D01*
X00055677Y-00042293D02*
X00056323Y-00042293D01*
X00056571Y-00042293D02*
X00056522Y-00042293D01*
X00056670Y-00042293D02*
X00056621Y-00042293D01*
X00056770Y-00042293D02*
X00056770Y-00042293D01*
X00057614Y-00042293D02*
X00057565Y-00042293D01*
X00052102Y-00042243D02*
X00052053Y-00042243D01*
X00052251Y-00042243D02*
X00052202Y-00042243D01*
X00052400Y-00042243D02*
X00052649Y-00042243D01*
X00052797Y-00042243D02*
X00052996Y-00042243D01*
X00053294Y-00042243D02*
X00053890Y-00042243D01*
X00054088Y-00042243D02*
X00054039Y-00042243D01*
X00054188Y-00042243D02*
X00054138Y-00042243D01*
X00054287Y-00042243D02*
X00055281Y-00042243D01*
X00055528Y-00042243D02*
X00055529Y-00042243D01*
X00055727Y-00042243D02*
X00056373Y-00042243D01*
X00056571Y-00042243D02*
X00056572Y-00042243D01*
X00056720Y-00042243D02*
X00056671Y-00042243D01*
X00056819Y-00042243D02*
X00056919Y-00042243D01*
X00057266Y-00042243D02*
X00057217Y-00042243D01*
X00057564Y-00042243D02*
X00057515Y-00042243D01*
X00052152Y-00042194D02*
X00052103Y-00042194D01*
X00052301Y-00042194D02*
X00052500Y-00042194D01*
X00052648Y-00042194D02*
X00052996Y-00042194D01*
X00053195Y-00042194D02*
X00053841Y-00042194D01*
X00054039Y-00042194D02*
X00054039Y-00042194D01*
X00054287Y-00042194D02*
X00055330Y-00042194D01*
X00055528Y-00042194D02*
X00055529Y-00042194D01*
X00055777Y-00042194D02*
X00056274Y-00042194D01*
X00056422Y-00042194D02*
X00056423Y-00042194D01*
X00056571Y-00042194D02*
X00056572Y-00042194D01*
X00056720Y-00042194D02*
X00056721Y-00042194D01*
X00056869Y-00042194D02*
X00057018Y-00042194D01*
X00057316Y-00042194D02*
X00057316Y-00042194D01*
X00057515Y-00042194D02*
X00057465Y-00042194D01*
X00052350Y-00042144D02*
X00052351Y-00042144D01*
X00052549Y-00042144D02*
X00052996Y-00042144D01*
X00053145Y-00042144D02*
X00053791Y-00042144D01*
X00054039Y-00042144D02*
X00054039Y-00042144D01*
X00054237Y-00042144D02*
X00055330Y-00042144D01*
X00055528Y-00042144D02*
X00055529Y-00042144D01*
X00055826Y-00042144D02*
X00056224Y-00042144D01*
X00056373Y-00042144D02*
X00056423Y-00042144D01*
X00056571Y-00042144D02*
X00056572Y-00042144D01*
X00056770Y-00042144D02*
X00056770Y-00042144D01*
X00056919Y-00042144D02*
X00057167Y-00042144D01*
X00052450Y-00042094D02*
X00053046Y-00042094D01*
X00053195Y-00042094D02*
X00053741Y-00042094D01*
X00054039Y-00042094D02*
X00053990Y-00042094D01*
X00054237Y-00042094D02*
X00055330Y-00042094D01*
X00055528Y-00042094D02*
X00055529Y-00042094D01*
X00055876Y-00042094D02*
X00056174Y-00042094D01*
X00056323Y-00042094D02*
X00056423Y-00042094D01*
X00056621Y-00042094D02*
X00056621Y-00042094D01*
X00056770Y-00042094D02*
X00056820Y-00042094D01*
X00056968Y-00042094D02*
X00057267Y-00042094D01*
X00052350Y-00042044D02*
X00052549Y-00042044D01*
X00053145Y-00042044D02*
X00053692Y-00042044D01*
X00054039Y-00042044D02*
X00053990Y-00042044D01*
X00054237Y-00042044D02*
X00055330Y-00042044D01*
X00055578Y-00042044D02*
X00055529Y-00042044D01*
X00055926Y-00042044D02*
X00056125Y-00042044D01*
X00056323Y-00042044D02*
X00056472Y-00042044D01*
X00056621Y-00042044D02*
X00056621Y-00042044D01*
X00056770Y-00042044D02*
X00056770Y-00042044D01*
X00053195Y-00041994D02*
X00053692Y-00041994D01*
X00054039Y-00041994D02*
X00053990Y-00041994D01*
X00054237Y-00041994D02*
X00055330Y-00041994D01*
X00055578Y-00041994D02*
X00055578Y-00041994D01*
X00055975Y-00041994D02*
X00056075Y-00041994D01*
X00056373Y-00041994D02*
X00056472Y-00041994D01*
X00056621Y-00041994D02*
X00056621Y-00041994D01*
X00056819Y-00041994D02*
X00056820Y-00041994D01*
X00057068Y-00041994D02*
X00057018Y-00041994D01*
X00053244Y-00041944D02*
X00053642Y-00041944D01*
X00054039Y-00041944D02*
X00053990Y-00041944D01*
X00054237Y-00041944D02*
X00055380Y-00041944D01*
X00055578Y-00041944D02*
X00055578Y-00041944D01*
X00056025Y-00041944D02*
X00056025Y-00041944D01*
X00056373Y-00041944D02*
X00056472Y-00041944D01*
X00056670Y-00041944D02*
X00056671Y-00041944D01*
X00056819Y-00041944D02*
X00056820Y-00041944D01*
X00053244Y-00041895D02*
X00053592Y-00041895D01*
X00054237Y-00041895D02*
X00055380Y-00041895D01*
X00055628Y-00041895D02*
X00055578Y-00041895D01*
X00056422Y-00041895D02*
X00056522Y-00041895D01*
X00056670Y-00041895D02*
X00056671Y-00041895D01*
X00056819Y-00041895D02*
X00056820Y-00041895D01*
X00057068Y-00041895D02*
X00057068Y-00041895D01*
X00052251Y-00041845D02*
X00052202Y-00041845D01*
X00053294Y-00041845D02*
X00053543Y-00041845D01*
X00053989Y-00041845D02*
X00053940Y-00041845D01*
X00054237Y-00041845D02*
X00055380Y-00041845D01*
X00055628Y-00041845D02*
X00055578Y-00041845D01*
X00056472Y-00041845D02*
X00056522Y-00041845D01*
X00056670Y-00041845D02*
X00056671Y-00041845D01*
X00056869Y-00041845D02*
X00056820Y-00041845D01*
X00057068Y-00041845D02*
X00057068Y-00041845D01*
X00057415Y-00041845D02*
X00057366Y-00041845D01*
X00052301Y-00041795D02*
X00052301Y-00041795D01*
X00053294Y-00041795D02*
X00053493Y-00041795D01*
X00053989Y-00041795D02*
X00053940Y-00041795D01*
X00054188Y-00041795D02*
X00055380Y-00041795D01*
X00055628Y-00041795D02*
X00055628Y-00041795D01*
X00056522Y-00041795D02*
X00056522Y-00041795D01*
X00056720Y-00041795D02*
X00056671Y-00041795D01*
X00056869Y-00041795D02*
X00056870Y-00041795D01*
X00057068Y-00041795D02*
X00057068Y-00041795D01*
X00057316Y-00041795D02*
X00057316Y-00041795D01*
X00052202Y-00041745D02*
X00052152Y-00041745D01*
X00052400Y-00041745D02*
X00052401Y-00041745D01*
X00053294Y-00041745D02*
X00053493Y-00041745D01*
X00054188Y-00041745D02*
X00055430Y-00041745D01*
X00055628Y-00041745D02*
X00055628Y-00041745D01*
X00056522Y-00041745D02*
X00056522Y-00041745D01*
X00056720Y-00041745D02*
X00056721Y-00041745D01*
X00056869Y-00041745D02*
X00056870Y-00041745D01*
X00057117Y-00041745D02*
X00057068Y-00041745D01*
X00057266Y-00041745D02*
X00057217Y-00041745D01*
X00057465Y-00041745D02*
X00057416Y-00041745D01*
X00052202Y-00041695D02*
X00052252Y-00041695D01*
X00052499Y-00041695D02*
X00052500Y-00041695D01*
X00053344Y-00041695D02*
X00053443Y-00041695D01*
X00054188Y-00041695D02*
X00055430Y-00041695D01*
X00055677Y-00041695D02*
X00055628Y-00041695D01*
X00056571Y-00041695D02*
X00056572Y-00041695D01*
X00056720Y-00041695D02*
X00056721Y-00041695D01*
X00056919Y-00041695D02*
X00056870Y-00041695D01*
X00057117Y-00041695D02*
X00057068Y-00041695D01*
X00057366Y-00041695D02*
X00057316Y-00041695D01*
X00052152Y-00041645D02*
X00052351Y-00041645D01*
X00052599Y-00041645D02*
X00052599Y-00041645D01*
X00053344Y-00041645D02*
X00053394Y-00041645D01*
X00054188Y-00041645D02*
X00055430Y-00041645D01*
X00055677Y-00041645D02*
X00055628Y-00041645D01*
X00056621Y-00041645D02*
X00056572Y-00041645D01*
X00056770Y-00041645D02*
X00056721Y-00041645D01*
X00056919Y-00041645D02*
X00056870Y-00041645D01*
X00057217Y-00041645D02*
X00057167Y-00041645D01*
X00052053Y-00041596D02*
X00052450Y-00041596D01*
X00052698Y-00041596D02*
X00052698Y-00041596D01*
X00053294Y-00041596D02*
X00053344Y-00041596D01*
X00054188Y-00041596D02*
X00055430Y-00041596D01*
X00055677Y-00041596D02*
X00055628Y-00041596D01*
X00056770Y-00041596D02*
X00056721Y-00041596D01*
X00057018Y-00041596D02*
X00056969Y-00041596D01*
X00057366Y-00041596D02*
X00057316Y-00041596D01*
X00057614Y-00041596D02*
X00057565Y-00041596D01*
X00051854Y-00041546D02*
X00051954Y-00041546D01*
X00052102Y-00041546D02*
X00052549Y-00041546D01*
X00052797Y-00041546D02*
X00052798Y-00041546D01*
X00054188Y-00041546D02*
X00055430Y-00041546D01*
X00056869Y-00041546D02*
X00056820Y-00041546D01*
X00057465Y-00041546D02*
X00057416Y-00041546D01*
X00057614Y-00041546D02*
X00057614Y-00041546D01*
X00057763Y-00041546D02*
X00057763Y-00041546D01*
X00051904Y-00041496D02*
X00051854Y-00041496D01*
X00052152Y-00041496D02*
X00052649Y-00041496D01*
X00052897Y-00041496D02*
X00052897Y-00041496D01*
X00053294Y-00041496D02*
X00053245Y-00041496D01*
X00053393Y-00041496D02*
X00053443Y-00041496D01*
X00054138Y-00041496D02*
X00055479Y-00041496D01*
X00055677Y-00041496D02*
X00055678Y-00041496D01*
X00056720Y-00041496D02*
X00056671Y-00041496D01*
X00057515Y-00041496D02*
X00057465Y-00041496D01*
X00057713Y-00041496D02*
X00057714Y-00041496D01*
X00052003Y-00041446D02*
X00052053Y-00041446D01*
X00052847Y-00041446D02*
X00053046Y-00041446D01*
X00053542Y-00041446D02*
X00053493Y-00041446D01*
X00053642Y-00041446D02*
X00053642Y-00041446D01*
X00054138Y-00041446D02*
X00055479Y-00041446D01*
X00055628Y-00041446D02*
X00055827Y-00041446D01*
X00052102Y-00041396D02*
X00052053Y-00041396D01*
X00052748Y-00041396D02*
X00053145Y-00041396D01*
X00053840Y-00041396D02*
X00053841Y-00041396D01*
X00054188Y-00041396D02*
X00055430Y-00041396D01*
X00055578Y-00041396D02*
X00055976Y-00041396D01*
X00056323Y-00041396D02*
X00056274Y-00041396D01*
X00051804Y-00041347D02*
X00051904Y-00041347D01*
X00052152Y-00041347D02*
X00052103Y-00041347D01*
X00052599Y-00041347D02*
X00053046Y-00041347D01*
X00054436Y-00041347D02*
X00054387Y-00041347D01*
X00055528Y-00041347D02*
X00056075Y-00041347D01*
X00056373Y-00041347D02*
X00056373Y-00041347D01*
X00057713Y-00041347D02*
X00057813Y-00041347D01*
X00052053Y-00041297D02*
X00052003Y-00041297D01*
X00052202Y-00041297D02*
X00052152Y-00041297D01*
X00052499Y-00041297D02*
X00053046Y-00041297D01*
X00054337Y-00041297D02*
X00054387Y-00041297D01*
X00055578Y-00041297D02*
X00056224Y-00041297D01*
X00052102Y-00041247D02*
X00052053Y-00041247D01*
X00052251Y-00041247D02*
X00052202Y-00041247D01*
X00052400Y-00041247D02*
X00052649Y-00041247D01*
X00052797Y-00041247D02*
X00053046Y-00041247D01*
X00054287Y-00041247D02*
X00054436Y-00041247D01*
X00055628Y-00041247D02*
X00056323Y-00041247D01*
X00052152Y-00041197D02*
X00052103Y-00041197D01*
X00052301Y-00041197D02*
X00052500Y-00041197D01*
X00052648Y-00041197D02*
X00052947Y-00041197D01*
X00054287Y-00041197D02*
X00054436Y-00041197D01*
X00052350Y-00041147D02*
X00052351Y-00041147D01*
X00052549Y-00041147D02*
X00052947Y-00041147D01*
X00054287Y-00041147D02*
X00054436Y-00041147D01*
X00052450Y-00041097D02*
X00052897Y-00041097D01*
X00054287Y-00041097D02*
X00054436Y-00041097D01*
X00052350Y-00041048D02*
X00052549Y-00041048D01*
X00054287Y-00041048D02*
X00054486Y-00041048D01*
X00054237Y-00040998D02*
X00054486Y-00040998D01*
X00054237Y-00040948D02*
X00054486Y-00040948D01*
X00054237Y-00040898D02*
X00054536Y-00040898D01*
X00052251Y-00040848D02*
X00052202Y-00040848D01*
X00054237Y-00040848D02*
X00054536Y-00040848D01*
X00052301Y-00040798D02*
X00052301Y-00040798D01*
X00054188Y-00040798D02*
X00054536Y-00040798D01*
X00052202Y-00040749D02*
X00052152Y-00040749D01*
X00052400Y-00040749D02*
X00052401Y-00040749D01*
X00054188Y-00040749D02*
X00054585Y-00040749D01*
X00052202Y-00040699D02*
X00052252Y-00040699D01*
X00052499Y-00040699D02*
X00052500Y-00040699D01*
X00052648Y-00040699D02*
X00052599Y-00040699D01*
X00054188Y-00040699D02*
X00054585Y-00040699D01*
X00056472Y-00040699D02*
X00056423Y-00040699D01*
X00052152Y-00040649D02*
X00052351Y-00040649D01*
X00052599Y-00040649D02*
X00052599Y-00040649D01*
X00054188Y-00040649D02*
X00054585Y-00040649D01*
X00056373Y-00040649D02*
X00056373Y-00040649D01*
X00052053Y-00040599D02*
X00052401Y-00040599D01*
X00052549Y-00040599D02*
X00052599Y-00040599D01*
X00053393Y-00040599D02*
X00053344Y-00040599D01*
X00054138Y-00040599D02*
X00054287Y-00040599D01*
X00054486Y-00040599D02*
X00054585Y-00040599D01*
X00055379Y-00040599D02*
X00055330Y-00040599D01*
X00056124Y-00040599D02*
X00056075Y-00040599D01*
X00056323Y-00040599D02*
X00056274Y-00040599D01*
X00056522Y-00040599D02*
X00056472Y-00040599D01*
X00057614Y-00040599D02*
X00057565Y-00040599D01*
X00051854Y-00040549D02*
X00051954Y-00040549D01*
X00052102Y-00040549D02*
X00052351Y-00040549D01*
X00052499Y-00040549D02*
X00052649Y-00040549D01*
X00053393Y-00040549D02*
X00053394Y-00040549D01*
X00054138Y-00040549D02*
X00054287Y-00040549D01*
X00054486Y-00040549D02*
X00054635Y-00040549D01*
X00055379Y-00040549D02*
X00055380Y-00040549D01*
X00056124Y-00040549D02*
X00056125Y-00040549D01*
X00056422Y-00040549D02*
X00056423Y-00040549D01*
X00057564Y-00040549D02*
X00057614Y-00040549D01*
X00057763Y-00040549D02*
X00057763Y-00040549D01*
X00051904Y-00040499D02*
X00051854Y-00040499D01*
X00052152Y-00040499D02*
X00052301Y-00040499D01*
X00052549Y-00040499D02*
X00052649Y-00040499D01*
X00053393Y-00040499D02*
X00053394Y-00040499D01*
X00054138Y-00040499D02*
X00054238Y-00040499D01*
X00054535Y-00040499D02*
X00054635Y-00040499D01*
X00055379Y-00040499D02*
X00055380Y-00040499D01*
X00056124Y-00040499D02*
X00056174Y-00040499D01*
X00056323Y-00040499D02*
X00056323Y-00040499D01*
X00056571Y-00040499D02*
X00056522Y-00040499D01*
X00057564Y-00040499D02*
X00057515Y-00040499D01*
X00057713Y-00040499D02*
X00057714Y-00040499D01*
X00052003Y-00040450D02*
X00052053Y-00040450D01*
X00052599Y-00040450D02*
X00052649Y-00040450D01*
X00053393Y-00040450D02*
X00053394Y-00040450D01*
X00054138Y-00040450D02*
X00054188Y-00040450D01*
X00054585Y-00040450D02*
X00054635Y-00040450D01*
X00055379Y-00040450D02*
X00055380Y-00040450D01*
X00056124Y-00040450D02*
X00056174Y-00040450D01*
X00056472Y-00040450D02*
X00056423Y-00040450D01*
X00056621Y-00040450D02*
X00056572Y-00040450D01*
X00057515Y-00040450D02*
X00057515Y-00040450D01*
X00052102Y-00040400D02*
X00052053Y-00040400D01*
X00052698Y-00040400D02*
X00052649Y-00040400D01*
X00053443Y-00040400D02*
X00053394Y-00040400D01*
X00054237Y-00040400D02*
X00054188Y-00040400D01*
X00054684Y-00040400D02*
X00054635Y-00040400D01*
X00055429Y-00040400D02*
X00055380Y-00040400D01*
X00056224Y-00040400D02*
X00056174Y-00040400D01*
X00056422Y-00040400D02*
X00056472Y-00040400D01*
X00056621Y-00040400D02*
X00056572Y-00040400D01*
X00057415Y-00040400D02*
X00057465Y-00040400D01*
X00057614Y-00040400D02*
X00057565Y-00040400D01*
X00051804Y-00040350D02*
X00051904Y-00040350D01*
X00052152Y-00040350D02*
X00052103Y-00040350D01*
X00052797Y-00040350D02*
X00052847Y-00040350D01*
X00053294Y-00040350D02*
X00053294Y-00040350D01*
X00053542Y-00040350D02*
X00053592Y-00040350D01*
X00054039Y-00040350D02*
X00054039Y-00040350D01*
X00054287Y-00040350D02*
X00054238Y-00040350D01*
X00054784Y-00040350D02*
X00054834Y-00040350D01*
X00055280Y-00040350D02*
X00055281Y-00040350D01*
X00055528Y-00040350D02*
X00055578Y-00040350D01*
X00056025Y-00040350D02*
X00056025Y-00040350D01*
X00056273Y-00040350D02*
X00056224Y-00040350D01*
X00056472Y-00040350D02*
X00056472Y-00040350D01*
X00056621Y-00040350D02*
X00056572Y-00040350D01*
X00056770Y-00040350D02*
X00056721Y-00040350D01*
X00057316Y-00040350D02*
X00057316Y-00040350D01*
X00057465Y-00040350D02*
X00057416Y-00040350D01*
X00057713Y-00040350D02*
X00057813Y-00040350D01*
X00052053Y-00040300D02*
X00052003Y-00040300D01*
X00052202Y-00040300D02*
X00052152Y-00040300D01*
X00052698Y-00040300D02*
X00052649Y-00040300D01*
X00053443Y-00040300D02*
X00053394Y-00040300D01*
X00054188Y-00040300D02*
X00054138Y-00040300D01*
X00054337Y-00040300D02*
X00054287Y-00040300D01*
X00054684Y-00040300D02*
X00054635Y-00040300D01*
X00055429Y-00040300D02*
X00055380Y-00040300D01*
X00056174Y-00040300D02*
X00056125Y-00040300D01*
X00056323Y-00040300D02*
X00056274Y-00040300D01*
X00056621Y-00040300D02*
X00056621Y-00040300D01*
X00056770Y-00040300D02*
X00056770Y-00040300D01*
X00056919Y-00040300D02*
X00057217Y-00040300D01*
X00057415Y-00040300D02*
X00057366Y-00040300D01*
X00057614Y-00040300D02*
X00057565Y-00040300D01*
X00052102Y-00040250D02*
X00052053Y-00040250D01*
X00052251Y-00040250D02*
X00052202Y-00040250D01*
X00052648Y-00040250D02*
X00052599Y-00040250D01*
X00054386Y-00040250D02*
X00054337Y-00040250D01*
X00054635Y-00040250D02*
X00054585Y-00040250D01*
X00056373Y-00040250D02*
X00056323Y-00040250D01*
X00056571Y-00040250D02*
X00056621Y-00040250D01*
X00056770Y-00040250D02*
X00056770Y-00040250D01*
X00056919Y-00040250D02*
X00057118Y-00040250D01*
X00057564Y-00040250D02*
X00057515Y-00040250D01*
X00052152Y-00040201D02*
X00052103Y-00040201D01*
X00052301Y-00040201D02*
X00052252Y-00040201D01*
X00052400Y-00040201D02*
X00052401Y-00040201D01*
X00052599Y-00040201D02*
X00052549Y-00040201D01*
X00054585Y-00040201D02*
X00054536Y-00040201D01*
X00056422Y-00040201D02*
X00056373Y-00040201D01*
X00056571Y-00040201D02*
X00056572Y-00040201D01*
X00056819Y-00040201D02*
X00056770Y-00040201D01*
X00056919Y-00040201D02*
X00057118Y-00040201D01*
X00057366Y-00040201D02*
X00057316Y-00040201D01*
X00057515Y-00040201D02*
X00057465Y-00040201D01*
X00056472Y-00040151D02*
X00056522Y-00040151D01*
X00056720Y-00040151D02*
X00056671Y-00040151D01*
X00056919Y-00040151D02*
X00057167Y-00040151D01*
X00052400Y-00040101D02*
X00052351Y-00040101D01*
X00056720Y-00040101D02*
X00056671Y-00040101D01*
X00056869Y-00040101D02*
X00057118Y-00040101D01*
X00057266Y-00040101D02*
X00057267Y-00040101D01*
X00056869Y-00040051D02*
X00057068Y-00040051D01*
X00056869Y-00040001D02*
X00057018Y-00040001D01*
X00056770Y-00039951D02*
X00056721Y-00039951D01*
X00056869Y-00039951D02*
X00056969Y-00039951D01*
X00056869Y-00039902D02*
X00056919Y-00039902D01*
X00052251Y-00039852D02*
X00052202Y-00039852D01*
X00052350Y-00039852D02*
X00052301Y-00039852D01*
X00056869Y-00039852D02*
X00056870Y-00039852D01*
X00057415Y-00039852D02*
X00057366Y-00039852D01*
X00052301Y-00039802D02*
X00052252Y-00039802D01*
X00057316Y-00039802D02*
X00057316Y-00039802D01*
X00052202Y-00039752D02*
X00052152Y-00039752D01*
X00057266Y-00039752D02*
X00057217Y-00039752D01*
X00057465Y-00039752D02*
X00057416Y-00039752D01*
X00052202Y-00039702D02*
X00052252Y-00039702D01*
X00057366Y-00039702D02*
X00057316Y-00039702D01*
X00052152Y-00039652D02*
X00052202Y-00039652D01*
X00057316Y-00039652D02*
X00057366Y-00039652D01*
X00052053Y-00039603D02*
X00052252Y-00039603D01*
X00057217Y-00039603D02*
X00057416Y-00039603D01*
X00057614Y-00039603D02*
X00057565Y-00039603D01*
X00051854Y-00039553D02*
X00051954Y-00039553D01*
X00052102Y-00039553D02*
X00052152Y-00039553D01*
X00057117Y-00039553D02*
X00057465Y-00039553D01*
X00057614Y-00039553D02*
X00057614Y-00039553D01*
X00057763Y-00039553D02*
X00057763Y-00039553D01*
X00051904Y-00039503D02*
X00051854Y-00039503D01*
X00052152Y-00039503D02*
X00052152Y-00039503D01*
X00057018Y-00039503D02*
X00057465Y-00039503D01*
X00057614Y-00039503D02*
X00057565Y-00039503D01*
X00057713Y-00039503D02*
X00057714Y-00039503D01*
X00052003Y-00039453D02*
X00052053Y-00039453D01*
X00052499Y-00039453D02*
X00052450Y-00039453D01*
X00057515Y-00039453D02*
X00057565Y-00039453D01*
X00052102Y-00039403D02*
X00052053Y-00039403D01*
X00052400Y-00039403D02*
X00052401Y-00039403D01*
X00057614Y-00039403D02*
X00057565Y-00039403D01*
X00051804Y-00039354D02*
X00051904Y-00039354D01*
X00052152Y-00039354D02*
X00052103Y-00039354D01*
X00052350Y-00039354D02*
X00052301Y-00039354D01*
X00052549Y-00039354D02*
X00052500Y-00039354D01*
X00054486Y-00039354D02*
X00054436Y-00039354D01*
X00057713Y-00039354D02*
X00057813Y-00039354D01*
X00052053Y-00039304D02*
X00052003Y-00039304D01*
X00052202Y-00039304D02*
X00052152Y-00039304D01*
X00052301Y-00039304D02*
X00052252Y-00039304D01*
X00052450Y-00039304D02*
X00052450Y-00039304D01*
X00054386Y-00039304D02*
X00054387Y-00039304D01*
X00056373Y-00039304D02*
X00056323Y-00039304D01*
X00056919Y-00039304D02*
X00056870Y-00039304D01*
X00057614Y-00039304D02*
X00057565Y-00039304D01*
X00052102Y-00039254D02*
X00052053Y-00039254D01*
X00052251Y-00039254D02*
X00052202Y-00039254D01*
X00052400Y-00039254D02*
X00052351Y-00039254D01*
X00052599Y-00039254D02*
X00052549Y-00039254D01*
X00054436Y-00039254D02*
X00054387Y-00039254D01*
X00054535Y-00039254D02*
X00054486Y-00039254D01*
X00056323Y-00039254D02*
X00056423Y-00039254D01*
X00056919Y-00039254D02*
X00056919Y-00039254D01*
X00057266Y-00039254D02*
X00057217Y-00039254D01*
X00057564Y-00039254D02*
X00057515Y-00039254D01*
X00052152Y-00039204D02*
X00052103Y-00039204D01*
X00052301Y-00039204D02*
X00052351Y-00039204D01*
X00052499Y-00039204D02*
X00052450Y-00039204D01*
X00052599Y-00039204D02*
X00052549Y-00039204D01*
X00054337Y-00039204D02*
X00054287Y-00039204D01*
X00056323Y-00039204D02*
X00056522Y-00039204D01*
X00056869Y-00039204D02*
X00057018Y-00039204D01*
X00057316Y-00039204D02*
X00057316Y-00039204D01*
X00057515Y-00039204D02*
X00057465Y-00039204D01*
X00052350Y-00039154D02*
X00052301Y-00039154D01*
X00054287Y-00039154D02*
X00054436Y-00039154D01*
X00056919Y-00039154D02*
X00057167Y-00039154D01*
X00052748Y-00039104D02*
X00052748Y-00039104D01*
X00053493Y-00039104D02*
X00053443Y-00039104D01*
X00054386Y-00039104D02*
X00054337Y-00039104D01*
X00055429Y-00039104D02*
X00055479Y-00039104D01*
X00056174Y-00039104D02*
X00056125Y-00039104D01*
X00056373Y-00039104D02*
X00056323Y-00039104D01*
X00056670Y-00039104D02*
X00056671Y-00039104D01*
X00056869Y-00039104D02*
X00057267Y-00039104D01*
X00052350Y-00039055D02*
X00052301Y-00039055D01*
X00052648Y-00039055D02*
X00052599Y-00039055D01*
X00054287Y-00039055D02*
X00054238Y-00039055D01*
X00054635Y-00039055D02*
X00054585Y-00039055D01*
X00056273Y-00039055D02*
X00056224Y-00039055D01*
X00056422Y-00039055D02*
X00056373Y-00039055D01*
X00056571Y-00039055D02*
X00056572Y-00039055D01*
X00056819Y-00039055D02*
X00056820Y-00039055D01*
X00052400Y-00039005D02*
X00052401Y-00039005D01*
X00052599Y-00039005D02*
X00052549Y-00039005D01*
X00054337Y-00039005D02*
X00054287Y-00039005D01*
X00054585Y-00039005D02*
X00054536Y-00039005D01*
X00056323Y-00039005D02*
X00056274Y-00039005D01*
X00056472Y-00039005D02*
X00056472Y-00039005D01*
X00056720Y-00039005D02*
X00056770Y-00039005D01*
X00056621Y-00038955D02*
X00056870Y-00038955D01*
X00052400Y-00038905D02*
X00052351Y-00038905D01*
X00056522Y-00038905D02*
X00056721Y-00038905D01*
X00056869Y-00038905D02*
X00056820Y-00038905D01*
X00052251Y-00038855D02*
X00052202Y-00038855D01*
X00052350Y-00038855D02*
X00052301Y-00038855D01*
X00056571Y-00038855D02*
X00056572Y-00038855D01*
X00056770Y-00038855D02*
X00056820Y-00038855D01*
X00057415Y-00038855D02*
X00057366Y-00038855D01*
X00052301Y-00038805D02*
X00052252Y-00038805D01*
X00056670Y-00038805D02*
X00056820Y-00038805D01*
X00057316Y-00038805D02*
X00057316Y-00038805D01*
X00052202Y-00038756D02*
X00052152Y-00038756D01*
X00052301Y-00038756D02*
X00052301Y-00038756D01*
X00056571Y-00038756D02*
X00056770Y-00038756D01*
X00056919Y-00038756D02*
X00056870Y-00038756D01*
X00057266Y-00038756D02*
X00057217Y-00038756D01*
X00057465Y-00038756D02*
X00057416Y-00038756D01*
X00052202Y-00038706D02*
X00052202Y-00038706D01*
X00057366Y-00038706D02*
X00057316Y-00038706D01*
X00052152Y-00038656D02*
X00052202Y-00038656D01*
X00057316Y-00038656D02*
X00057366Y-00038656D01*
X00052053Y-00038606D02*
X00052152Y-00038606D01*
X00057217Y-00038606D02*
X00057416Y-00038606D01*
X00057614Y-00038606D02*
X00057565Y-00038606D01*
X00051854Y-00038556D02*
X00051954Y-00038556D01*
X00052102Y-00038556D02*
X00052202Y-00038556D01*
X00057117Y-00038556D02*
X00057465Y-00038556D01*
X00057614Y-00038556D02*
X00057614Y-00038556D01*
X00057763Y-00038556D02*
X00057763Y-00038556D01*
X00051904Y-00038507D02*
X00051854Y-00038507D01*
X00052152Y-00038507D02*
X00052103Y-00038507D01*
X00056472Y-00038507D02*
X00056423Y-00038507D01*
X00057018Y-00038507D02*
X00057465Y-00038507D01*
X00057614Y-00038507D02*
X00057565Y-00038507D01*
X00057713Y-00038507D02*
X00057714Y-00038507D01*
X00052003Y-00038457D02*
X00052053Y-00038457D01*
X00052202Y-00038457D02*
X00052152Y-00038457D01*
X00052450Y-00038457D02*
X00052401Y-00038457D01*
X00056522Y-00038457D02*
X00056522Y-00038457D01*
X00057515Y-00038457D02*
X00057565Y-00038457D01*
X00052102Y-00038407D02*
X00052053Y-00038407D01*
X00052202Y-00038407D02*
X00052152Y-00038407D01*
X00052350Y-00038407D02*
X00052351Y-00038407D01*
X00056670Y-00038407D02*
X00056621Y-00038407D01*
X00057614Y-00038407D02*
X00057565Y-00038407D01*
X00051804Y-00038357D02*
X00051904Y-00038357D01*
X00052152Y-00038357D02*
X00052103Y-00038357D01*
X00052499Y-00038357D02*
X00052450Y-00038357D01*
X00054436Y-00038357D02*
X00054436Y-00038357D01*
X00056422Y-00038357D02*
X00056373Y-00038357D01*
X00056968Y-00038357D02*
X00056919Y-00038357D01*
X00057713Y-00038357D02*
X00057813Y-00038357D01*
X00052053Y-00038307D02*
X00052003Y-00038307D01*
X00052202Y-00038307D02*
X00052152Y-00038307D01*
X00052301Y-00038307D02*
X00052252Y-00038307D01*
X00052400Y-00038307D02*
X00052401Y-00038307D01*
X00056472Y-00038307D02*
X00056472Y-00038307D01*
X00056919Y-00038307D02*
X00056870Y-00038307D01*
X00057614Y-00038307D02*
X00057565Y-00038307D01*
X00052102Y-00038257D02*
X00052053Y-00038257D01*
X00052251Y-00038257D02*
X00052202Y-00038257D01*
X00052549Y-00038257D02*
X00052500Y-00038257D01*
X00054386Y-00038257D02*
X00054387Y-00038257D01*
X00054535Y-00038257D02*
X00054486Y-00038257D01*
X00056373Y-00038257D02*
X00056323Y-00038257D01*
X00056571Y-00038257D02*
X00056572Y-00038257D01*
X00056919Y-00038257D02*
X00056919Y-00038257D01*
X00057266Y-00038257D02*
X00057217Y-00038257D01*
X00057564Y-00038257D02*
X00057515Y-00038257D01*
X00052152Y-00038208D02*
X00052103Y-00038208D01*
X00052301Y-00038208D02*
X00052252Y-00038208D01*
X00052450Y-00038208D02*
X00052401Y-00038208D01*
X00052549Y-00038208D02*
X00052500Y-00038208D01*
X00054337Y-00038208D02*
X00054387Y-00038208D01*
X00054535Y-00038208D02*
X00054486Y-00038208D01*
X00056323Y-00038208D02*
X00056423Y-00038208D01*
X00056670Y-00038208D02*
X00056671Y-00038208D01*
X00056919Y-00038208D02*
X00057018Y-00038208D01*
X00057316Y-00038208D02*
X00057316Y-00038208D01*
X00057515Y-00038208D02*
X00057465Y-00038208D01*
X00052450Y-00038158D02*
X00052401Y-00038158D01*
X00052549Y-00038158D02*
X00052500Y-00038158D01*
X00052698Y-00038158D02*
X00052649Y-00038158D01*
X00054237Y-00038158D02*
X00054238Y-00038158D01*
X00054386Y-00038158D02*
X00054387Y-00038158D01*
X00054535Y-00038158D02*
X00054486Y-00038158D01*
X00054684Y-00038158D02*
X00054635Y-00038158D01*
X00056224Y-00038158D02*
X00056224Y-00038158D01*
X00056373Y-00038158D02*
X00056522Y-00038158D01*
X00056770Y-00038158D02*
X00056770Y-00038158D01*
X00056919Y-00038158D02*
X00057167Y-00038158D01*
X00052350Y-00038108D02*
X00052401Y-00038108D01*
X00052549Y-00038108D02*
X00052549Y-00038108D01*
X00052698Y-00038108D02*
X00052649Y-00038108D01*
X00052797Y-00038108D02*
X00052798Y-00038108D01*
X00053344Y-00038108D02*
X00053394Y-00038108D01*
X00053542Y-00038108D02*
X00053543Y-00038108D01*
X00054088Y-00038108D02*
X00054138Y-00038108D01*
X00054535Y-00038108D02*
X00054536Y-00038108D01*
X00054684Y-00038108D02*
X00054635Y-00038108D01*
X00054784Y-00038108D02*
X00054784Y-00038108D01*
X00055330Y-00038108D02*
X00055380Y-00038108D01*
X00055528Y-00038108D02*
X00055529Y-00038108D01*
X00056075Y-00038108D02*
X00056125Y-00038108D01*
X00056422Y-00038108D02*
X00056621Y-00038108D01*
X00056919Y-00038108D02*
X00057267Y-00038108D01*
X00052549Y-00038058D02*
X00052549Y-00038058D01*
X00052698Y-00038058D02*
X00052649Y-00038058D01*
X00052797Y-00038058D02*
X00052748Y-00038058D01*
X00052897Y-00038058D02*
X00052847Y-00038058D01*
X00053294Y-00038058D02*
X00053294Y-00038058D01*
X00053443Y-00038058D02*
X00053394Y-00038058D01*
X00053542Y-00038058D02*
X00053493Y-00038058D01*
X00053642Y-00038058D02*
X00053592Y-00038058D01*
X00054039Y-00038058D02*
X00054039Y-00038058D01*
X00054535Y-00038058D02*
X00054536Y-00038058D01*
X00054684Y-00038058D02*
X00054635Y-00038058D01*
X00054784Y-00038058D02*
X00054734Y-00038058D01*
X00054883Y-00038058D02*
X00054834Y-00038058D01*
X00055280Y-00038058D02*
X00055281Y-00038058D01*
X00055429Y-00038058D02*
X00055380Y-00038058D01*
X00055528Y-00038058D02*
X00055479Y-00038058D01*
X00055628Y-00038058D02*
X00055578Y-00038058D01*
X00056025Y-00038058D02*
X00056025Y-00038058D01*
X00056472Y-00038058D02*
X00056721Y-00038058D01*
X00052549Y-00038008D02*
X00052500Y-00038008D01*
X00052698Y-00038008D02*
X00052649Y-00038008D01*
X00052797Y-00038008D02*
X00052748Y-00038008D01*
X00052897Y-00038008D02*
X00053195Y-00038008D01*
X00053443Y-00038008D02*
X00053394Y-00038008D01*
X00053542Y-00038008D02*
X00053493Y-00038008D01*
X00053642Y-00038008D02*
X00053940Y-00038008D01*
X00054486Y-00038008D02*
X00054486Y-00038008D01*
X00054684Y-00038008D02*
X00054635Y-00038008D01*
X00054784Y-00038008D02*
X00054734Y-00038008D01*
X00054883Y-00038008D02*
X00055181Y-00038008D01*
X00055429Y-00038008D02*
X00055380Y-00038008D01*
X00055528Y-00038008D02*
X00055479Y-00038008D01*
X00055628Y-00038008D02*
X00055926Y-00038008D01*
X00056522Y-00038008D02*
X00056572Y-00038008D01*
X00056720Y-00038008D02*
X00056870Y-00038008D01*
X00052797Y-00037958D02*
X00052748Y-00037958D01*
X00052897Y-00037958D02*
X00053195Y-00037958D01*
X00053443Y-00037958D02*
X00053394Y-00037958D01*
X00053542Y-00037958D02*
X00053493Y-00037958D01*
X00053642Y-00037958D02*
X00053940Y-00037958D01*
X00054486Y-00037958D02*
X00054436Y-00037958D01*
X00054784Y-00037958D02*
X00054734Y-00037958D01*
X00054883Y-00037958D02*
X00055181Y-00037958D01*
X00055429Y-00037958D02*
X00055380Y-00037958D01*
X00055528Y-00037958D02*
X00055479Y-00037958D01*
X00055628Y-00037958D02*
X00055926Y-00037958D01*
X00056522Y-00037958D02*
X00056572Y-00037958D01*
X00056720Y-00037958D02*
X00056820Y-00037958D01*
X00052897Y-00037909D02*
X00053245Y-00037909D01*
X00053493Y-00037909D02*
X00053493Y-00037909D01*
X00053642Y-00037909D02*
X00053990Y-00037909D01*
X00054138Y-00037909D02*
X00054138Y-00037909D01*
X00054287Y-00037909D02*
X00054337Y-00037909D01*
X00054883Y-00037909D02*
X00055231Y-00037909D01*
X00055479Y-00037909D02*
X00055479Y-00037909D01*
X00055628Y-00037909D02*
X00055976Y-00037909D01*
X00056124Y-00037909D02*
X00056125Y-00037909D01*
X00056273Y-00037909D02*
X00056423Y-00037909D01*
X00056720Y-00037909D02*
X00056820Y-00037909D01*
X00056968Y-00037909D02*
X00056919Y-00037909D01*
X00052251Y-00037859D02*
X00052202Y-00037859D01*
X00052698Y-00037859D02*
X00052649Y-00037859D01*
X00053344Y-00037859D02*
X00053344Y-00037859D01*
X00053790Y-00037859D02*
X00053841Y-00037859D01*
X00054287Y-00037859D02*
X00054387Y-00037859D01*
X00054635Y-00037859D02*
X00054585Y-00037859D01*
X00055330Y-00037859D02*
X00055330Y-00037859D01*
X00055777Y-00037859D02*
X00055827Y-00037859D01*
X00056273Y-00037859D02*
X00056373Y-00037859D01*
X00056720Y-00037859D02*
X00056919Y-00037859D01*
X00057415Y-00037859D02*
X00057366Y-00037859D01*
X00052301Y-00037809D02*
X00052301Y-00037809D01*
X00052748Y-00037809D02*
X00052748Y-00037809D01*
X00052897Y-00037809D02*
X00052897Y-00037809D01*
X00053195Y-00037809D02*
X00053195Y-00037809D01*
X00053344Y-00037809D02*
X00053344Y-00037809D01*
X00053691Y-00037809D02*
X00053890Y-00037809D01*
X00054287Y-00037809D02*
X00054387Y-00037809D01*
X00054734Y-00037809D02*
X00054734Y-00037809D01*
X00054883Y-00037809D02*
X00054883Y-00037809D01*
X00055181Y-00037809D02*
X00055181Y-00037809D01*
X00055330Y-00037809D02*
X00055330Y-00037809D01*
X00055677Y-00037809D02*
X00055876Y-00037809D01*
X00056273Y-00037809D02*
X00056373Y-00037809D01*
X00056670Y-00037809D02*
X00056820Y-00037809D01*
X00056968Y-00037809D02*
X00056969Y-00037809D01*
X00057316Y-00037809D02*
X00057316Y-00037809D01*
X00052202Y-00037759D02*
X00052152Y-00037759D01*
X00052400Y-00037759D02*
X00052401Y-00037759D01*
X00052549Y-00037759D02*
X00052500Y-00037759D01*
X00052797Y-00037759D02*
X00052748Y-00037759D01*
X00052946Y-00037759D02*
X00052897Y-00037759D01*
X00053195Y-00037759D02*
X00053145Y-00037759D01*
X00053393Y-00037759D02*
X00053344Y-00037759D01*
X00053691Y-00037759D02*
X00053890Y-00037759D01*
X00054287Y-00037759D02*
X00054387Y-00037759D01*
X00054784Y-00037759D02*
X00054734Y-00037759D01*
X00054933Y-00037759D02*
X00054883Y-00037759D01*
X00055181Y-00037759D02*
X00055132Y-00037759D01*
X00055379Y-00037759D02*
X00055330Y-00037759D01*
X00055677Y-00037759D02*
X00055876Y-00037759D01*
X00056273Y-00037759D02*
X00056373Y-00037759D01*
X00056670Y-00037759D02*
X00056820Y-00037759D01*
X00057018Y-00037759D02*
X00056969Y-00037759D01*
X00057266Y-00037759D02*
X00057217Y-00037759D01*
X00057465Y-00037759D02*
X00057416Y-00037759D01*
X00052202Y-00037709D02*
X00052252Y-00037709D01*
X00052499Y-00037709D02*
X00052450Y-00037709D01*
X00052946Y-00037709D02*
X00052897Y-00037709D01*
X00053393Y-00037709D02*
X00053344Y-00037709D01*
X00053790Y-00037709D02*
X00053791Y-00037709D01*
X00053939Y-00037709D02*
X00053890Y-00037709D01*
X00054386Y-00037709D02*
X00054337Y-00037709D01*
X00054684Y-00037709D02*
X00054635Y-00037709D01*
X00054933Y-00037709D02*
X00054883Y-00037709D01*
X00055379Y-00037709D02*
X00055330Y-00037709D01*
X00055777Y-00037709D02*
X00055777Y-00037709D01*
X00055926Y-00037709D02*
X00055876Y-00037709D01*
X00056373Y-00037709D02*
X00056323Y-00037709D01*
X00056670Y-00037709D02*
X00056770Y-00037709D01*
X00057366Y-00037709D02*
X00057316Y-00037709D01*
X00052152Y-00037659D02*
X00052351Y-00037659D01*
X00053046Y-00037659D02*
X00053096Y-00037659D01*
X00053493Y-00037659D02*
X00053592Y-00037659D01*
X00053840Y-00037659D02*
X00053791Y-00037659D01*
X00054039Y-00037659D02*
X00054188Y-00037659D01*
X00054684Y-00037659D02*
X00054685Y-00037659D01*
X00055032Y-00037659D02*
X00055082Y-00037659D01*
X00055479Y-00037659D02*
X00055578Y-00037659D01*
X00055826Y-00037659D02*
X00055777Y-00037659D01*
X00056025Y-00037659D02*
X00056174Y-00037659D01*
X00056670Y-00037659D02*
X00056721Y-00037659D01*
X00057117Y-00037659D02*
X00057068Y-00037659D01*
X00057316Y-00037659D02*
X00057366Y-00037659D01*
X00052053Y-00037610D02*
X00052351Y-00037610D01*
X00052897Y-00037610D02*
X00052847Y-00037610D01*
X00053294Y-00037610D02*
X00053294Y-00037610D01*
X00053741Y-00037610D02*
X00053692Y-00037610D01*
X00053939Y-00037610D02*
X00053890Y-00037610D01*
X00054337Y-00037610D02*
X00054287Y-00037610D01*
X00054734Y-00037610D02*
X00054685Y-00037610D01*
X00054883Y-00037610D02*
X00054834Y-00037610D01*
X00055280Y-00037610D02*
X00055281Y-00037610D01*
X00055727Y-00037610D02*
X00055678Y-00037610D01*
X00055926Y-00037610D02*
X00055876Y-00037610D01*
X00056323Y-00037610D02*
X00056274Y-00037610D01*
X00056770Y-00037610D02*
X00056721Y-00037610D01*
X00057117Y-00037610D02*
X00057068Y-00037610D01*
X00057217Y-00037610D02*
X00057416Y-00037610D01*
X00057614Y-00037610D02*
X00057565Y-00037610D01*
X00051854Y-00037560D02*
X00051954Y-00037560D01*
X00052102Y-00037560D02*
X00052301Y-00037560D01*
X00053840Y-00037560D02*
X00053791Y-00037560D01*
X00054436Y-00037560D02*
X00054585Y-00037560D01*
X00055826Y-00037560D02*
X00055777Y-00037560D01*
X00056422Y-00037560D02*
X00056572Y-00037560D01*
X00056819Y-00037560D02*
X00056770Y-00037560D01*
X00057217Y-00037560D02*
X00057465Y-00037560D01*
X00057614Y-00037560D02*
X00057614Y-00037560D01*
X00057763Y-00037560D02*
X00057763Y-00037560D01*
X00051904Y-00037510D02*
X00051854Y-00037510D01*
X00052152Y-00037510D02*
X00052252Y-00037510D01*
X00054734Y-00037510D02*
X00054685Y-00037510D01*
X00056720Y-00037510D02*
X00056671Y-00037510D01*
X00056869Y-00037510D02*
X00056820Y-00037510D01*
X00057266Y-00037510D02*
X00057465Y-00037510D01*
X00057614Y-00037510D02*
X00057565Y-00037510D01*
X00057713Y-00037510D02*
X00057714Y-00037510D01*
X00052003Y-00037460D02*
X00052053Y-00037460D01*
X00056919Y-00037460D02*
X00056870Y-00037460D01*
X00057515Y-00037460D02*
X00057565Y-00037460D01*
X00052102Y-00037410D02*
X00052053Y-00037410D01*
X00056968Y-00037410D02*
X00056919Y-00037410D01*
X00057117Y-00037410D02*
X00057167Y-00037410D01*
X00057614Y-00037410D02*
X00057565Y-00037410D01*
X00051804Y-00037361D02*
X00051904Y-00037361D01*
X00052152Y-00037361D02*
X00052103Y-00037361D01*
X00052648Y-00037361D02*
X00052599Y-00037361D01*
X00057018Y-00037361D02*
X00057118Y-00037361D01*
X00057713Y-00037361D02*
X00057813Y-00037361D01*
X00052053Y-00037311D02*
X00052003Y-00037311D01*
X00052202Y-00037311D02*
X00052152Y-00037311D01*
X00057068Y-00037311D02*
X00057068Y-00037311D01*
X00057614Y-00037311D02*
X00057565Y-00037311D01*
X00052102Y-00037261D02*
X00052053Y-00037261D01*
X00052251Y-00037261D02*
X00052202Y-00037261D01*
X00057167Y-00037261D02*
X00057118Y-00037261D01*
X00057266Y-00037261D02*
X00057217Y-00037261D01*
X00057564Y-00037261D02*
X00057515Y-00037261D01*
X00052152Y-00037211D02*
X00052103Y-00037211D01*
X00052350Y-00037211D02*
X00052301Y-00037211D01*
X00057068Y-00037211D02*
X00057118Y-00037211D01*
X00057316Y-00037211D02*
X00057316Y-00037211D01*
X00057515Y-00037211D02*
X00057465Y-00037211D01*
X00057217Y-00037161D02*
X00057167Y-00037161D01*
X00057217Y-00037111D02*
X00057267Y-00037111D01*
X00056968Y-00037012D02*
X00056919Y-00037012D01*
X00057167Y-00037012D02*
X00057118Y-00037012D01*
X00057018Y-00036962D02*
X00057018Y-00036962D01*
X00052400Y-00036912D02*
X00052351Y-00036912D01*
X00057117Y-00036912D02*
X00057068Y-00036912D01*
X00052251Y-00036862D02*
X00052252Y-00036862D01*
X00057415Y-00036862D02*
X00057366Y-00036862D01*
X00052301Y-00036812D02*
X00052252Y-00036812D01*
X00057316Y-00036812D02*
X00057267Y-00036812D01*
X00052202Y-00036763D02*
X00052152Y-00036763D01*
X00057465Y-00036763D02*
X00057416Y-00036763D01*
X00052202Y-00036713D02*
X00052152Y-00036713D01*
X00057366Y-00036713D02*
X00057316Y-00036713D01*
X00052152Y-00036663D02*
X00052152Y-00036663D01*
X00052400Y-00036663D02*
X00052351Y-00036663D01*
X00057465Y-00036663D02*
X00057416Y-00036663D01*
X00052053Y-00036613D02*
X00052301Y-00036613D01*
X00057614Y-00036613D02*
X00057565Y-00036613D01*
X00051854Y-00036563D02*
X00051954Y-00036563D01*
X00052102Y-00036563D02*
X00052152Y-00036563D01*
X00057713Y-00036563D02*
X00057763Y-00036563D01*
X00051904Y-00036514D02*
X00051854Y-00036514D01*
X00052152Y-00036514D02*
X00052103Y-00036514D01*
X00052450Y-00036514D02*
X00052401Y-00036514D01*
X00057713Y-00036514D02*
X00057714Y-00036514D01*
X00052003Y-00036464D02*
X00052053Y-00036464D01*
X00052350Y-00036464D02*
X00052301Y-00036464D01*
X00052102Y-00036414D02*
X00052053Y-00036414D01*
X00052301Y-00036414D02*
X00052351Y-00036414D01*
X00051804Y-00036364D02*
X00051904Y-00036364D01*
X00052152Y-00036364D02*
X00052103Y-00036364D01*
X00052350Y-00036364D02*
X00052401Y-00036364D01*
X00057713Y-00036364D02*
X00057813Y-00036364D01*
X00052053Y-00036314D02*
X00052003Y-00036314D01*
X00052202Y-00036314D02*
X00052152Y-00036314D01*
X00052400Y-00036314D02*
X00052450Y-00036314D01*
X00052648Y-00036314D02*
X00052599Y-00036314D01*
X00052102Y-00036264D02*
X00052053Y-00036264D01*
X00052251Y-00036264D02*
X00052202Y-00036264D01*
X00052400Y-00036264D02*
X00052500Y-00036264D01*
X00052698Y-00036264D02*
X00052649Y-00036264D01*
X00052152Y-00036215D02*
X00052103Y-00036215D01*
X00052301Y-00036215D02*
X00052301Y-00036215D01*
X00052450Y-00036215D02*
X00052549Y-00036215D01*
X00054635Y-00036215D02*
X00054585Y-00036215D01*
X00052350Y-00036165D02*
X00052351Y-00036165D01*
X00052499Y-00036165D02*
X00052599Y-00036165D01*
X00052549Y-00036115D02*
X00052649Y-00036115D01*
X00054684Y-00036115D02*
X00054635Y-00036115D01*
X00052350Y-00036065D02*
X00052401Y-00036065D01*
X00052599Y-00036065D02*
X00052698Y-00036065D01*
X00052897Y-00036065D02*
X00052847Y-00036065D01*
X00054535Y-00036065D02*
X00054486Y-00036065D01*
X00054734Y-00036065D02*
X00054685Y-00036065D01*
X00054883Y-00036065D02*
X00054834Y-00036065D01*
X00052599Y-00036015D02*
X00052599Y-00036015D01*
X00052748Y-00036015D02*
X00052748Y-00036015D01*
X00052897Y-00036015D02*
X00052897Y-00036015D01*
X00053046Y-00036015D02*
X00053145Y-00036015D01*
X00054535Y-00036015D02*
X00054585Y-00036015D01*
X00054734Y-00036015D02*
X00054734Y-00036015D01*
X00054883Y-00036015D02*
X00054883Y-00036015D01*
X00055032Y-00036015D02*
X00055132Y-00036015D01*
X00052698Y-00035965D02*
X00052649Y-00035965D01*
X00052897Y-00035965D02*
X00052897Y-00035965D01*
X00053046Y-00035965D02*
X00053096Y-00035965D01*
X00054486Y-00035965D02*
X00054734Y-00035965D01*
X00054883Y-00035965D02*
X00054883Y-00035965D01*
X00055032Y-00035965D02*
X00055082Y-00035965D01*
X00053046Y-00035916D02*
X00053096Y-00035916D01*
X00054436Y-00035916D02*
X00054685Y-00035916D01*
X00054933Y-00035916D02*
X00054883Y-00035916D01*
X00055032Y-00035916D02*
X00055082Y-00035916D01*
X00052251Y-00035866D02*
X00052202Y-00035866D01*
X00052897Y-00035866D02*
X00052897Y-00035866D01*
X00053195Y-00035866D02*
X00053145Y-00035866D01*
X00053344Y-00035866D02*
X00053294Y-00035866D01*
X00054337Y-00035866D02*
X00054635Y-00035866D01*
X00055181Y-00035866D02*
X00055132Y-00035866D01*
X00055330Y-00035866D02*
X00055281Y-00035866D01*
X00056323Y-00035866D02*
X00056323Y-00035866D01*
X00052996Y-00035816D02*
X00052947Y-00035816D01*
X00053244Y-00035816D02*
X00053195Y-00035816D01*
X00053344Y-00035816D02*
X00053294Y-00035816D01*
X00053443Y-00035816D02*
X00054238Y-00035816D01*
X00054386Y-00035816D02*
X00054536Y-00035816D01*
X00054734Y-00035816D02*
X00054734Y-00035816D01*
X00054883Y-00035816D02*
X00054883Y-00035816D01*
X00055230Y-00035816D02*
X00055181Y-00035816D01*
X00055330Y-00035816D02*
X00055281Y-00035816D01*
X00055429Y-00035816D02*
X00056224Y-00035816D01*
X00056373Y-00035816D02*
X00056323Y-00035816D01*
X00052301Y-00035766D02*
X00052351Y-00035766D01*
X00052797Y-00035766D02*
X00052798Y-00035766D01*
X00053195Y-00035766D02*
X00053195Y-00035766D01*
X00053393Y-00035766D02*
X00053394Y-00035766D01*
X00053691Y-00035766D02*
X00053940Y-00035766D01*
X00054486Y-00035766D02*
X00054436Y-00035766D01*
X00054784Y-00035766D02*
X00054734Y-00035766D01*
X00054933Y-00035766D02*
X00054883Y-00035766D01*
X00055181Y-00035766D02*
X00055181Y-00035766D01*
X00055379Y-00035766D02*
X00055380Y-00035766D01*
X00055677Y-00035766D02*
X00055926Y-00035766D01*
X00052202Y-00035716D02*
X00052152Y-00035716D01*
X00052946Y-00035716D02*
X00052897Y-00035716D01*
X00053393Y-00035716D02*
X00053344Y-00035716D01*
X00053939Y-00035716D02*
X00053890Y-00035716D01*
X00054386Y-00035716D02*
X00054337Y-00035716D01*
X00054684Y-00035716D02*
X00054635Y-00035716D01*
X00054933Y-00035716D02*
X00054883Y-00035716D01*
X00055379Y-00035716D02*
X00055330Y-00035716D01*
X00055926Y-00035716D02*
X00055876Y-00035716D01*
X00052152Y-00035667D02*
X00052103Y-00035667D01*
X00053046Y-00035667D02*
X00053096Y-00035667D01*
X00053493Y-00035667D02*
X00053592Y-00035667D01*
X00053840Y-00035667D02*
X00053791Y-00035667D01*
X00054039Y-00035667D02*
X00054188Y-00035667D01*
X00054684Y-00035667D02*
X00054685Y-00035667D01*
X00055032Y-00035667D02*
X00055082Y-00035667D01*
X00055479Y-00035667D02*
X00055578Y-00035667D01*
X00055826Y-00035667D02*
X00055777Y-00035667D01*
X00056025Y-00035667D02*
X00056174Y-00035667D01*
X00052102Y-00035617D02*
X00052053Y-00035617D01*
X00053294Y-00035617D02*
X00053294Y-00035617D01*
X00053741Y-00035617D02*
X00053692Y-00035617D01*
X00053939Y-00035617D02*
X00053890Y-00035617D01*
X00054337Y-00035617D02*
X00054287Y-00035617D01*
X00054734Y-00035617D02*
X00054685Y-00035617D01*
X00054883Y-00035617D02*
X00054834Y-00035617D01*
X00055280Y-00035617D02*
X00055281Y-00035617D01*
X00055727Y-00035617D02*
X00055678Y-00035617D01*
X00055926Y-00035617D02*
X00055876Y-00035617D01*
X00056323Y-00035617D02*
X00056274Y-00035617D01*
X00051854Y-00035567D02*
X00051904Y-00035567D01*
X00053840Y-00035567D02*
X00053791Y-00035567D01*
X00054436Y-00035567D02*
X00054585Y-00035567D01*
X00055826Y-00035567D02*
X00055777Y-00035567D01*
X00056422Y-00035567D02*
X00056423Y-00035567D01*
X00057713Y-00035567D02*
X00057763Y-00035567D01*
X00051904Y-00035517D02*
X00051854Y-00035517D01*
X00054734Y-00035517D02*
X00054685Y-00035517D01*
X00057614Y-00035517D02*
X00057714Y-00035517D01*
X00057564Y-00035417D02*
X00057515Y-00035417D01*
X00051804Y-00035368D02*
X00051904Y-00035368D01*
X00057515Y-00035368D02*
X00057465Y-00035368D01*
X00057713Y-00035368D02*
X00057813Y-00035368D01*
X00057465Y-00035318D02*
X00057416Y-00035318D01*
X00057614Y-00035318D02*
X00057565Y-00035318D01*
X00057366Y-00035268D02*
X00057366Y-00035268D01*
X00057564Y-00035268D02*
X00057515Y-00035268D01*
X00057167Y-00035218D02*
X00057267Y-00035218D01*
X00057515Y-00035218D02*
X00057465Y-00035218D01*
X00057018Y-00035168D02*
X00057068Y-00035168D01*
X00057266Y-00035168D02*
X00057267Y-00035168D01*
X00057316Y-00035118D02*
X00057267Y-00035118D01*
X00056968Y-00035019D02*
X00056919Y-00035019D01*
X00057068Y-00034919D02*
X00057068Y-00034919D01*
X00057415Y-00034869D02*
X00057366Y-00034869D01*
X00057316Y-00034819D02*
X00057316Y-00034819D01*
X00057266Y-00034770D02*
X00057217Y-00034770D01*
X00057465Y-00034770D02*
X00057416Y-00034770D01*
X00057366Y-00034720D02*
X00057316Y-00034720D01*
X00056968Y-00034670D02*
X00056919Y-00034670D01*
X00057316Y-00034670D02*
X00057366Y-00034670D01*
X00057018Y-00034620D02*
X00057018Y-00034620D01*
X00057266Y-00034620D02*
X00057416Y-00034620D01*
X00057614Y-00034620D02*
X00057565Y-00034620D01*
X00051854Y-00034570D02*
X00051954Y-00034570D01*
X00057167Y-00034570D02*
X00057167Y-00034570D01*
X00057515Y-00034570D02*
X00057465Y-00034570D01*
X00057614Y-00034570D02*
X00057614Y-00034570D01*
X00057763Y-00034570D02*
X00057763Y-00034570D01*
X00051904Y-00034521D02*
X00051854Y-00034521D01*
X00056919Y-00034521D02*
X00056870Y-00034521D01*
X00057366Y-00034521D02*
X00057316Y-00034521D01*
X00057515Y-00034521D02*
X00057465Y-00034521D01*
X00057713Y-00034521D02*
X00057714Y-00034521D01*
X00056919Y-00034471D02*
X00056969Y-00034471D01*
X00056869Y-00034421D02*
X00057167Y-00034421D01*
X00051804Y-00034371D02*
X00051904Y-00034371D01*
X00056819Y-00034371D02*
X00057267Y-00034371D01*
X00057465Y-00034371D02*
X00057813Y-00034371D01*
X00056720Y-00034321D02*
X00057018Y-00034321D01*
X00056621Y-00034271D02*
X00056621Y-00034271D01*
X00056770Y-00034271D02*
X00057018Y-00034271D01*
X00054635Y-00034222D02*
X00054585Y-00034222D01*
X00056819Y-00034222D02*
X00056870Y-00034222D01*
X00057018Y-00034222D02*
X00056969Y-00034222D01*
X00056819Y-00034172D02*
X00056820Y-00034172D01*
X00054684Y-00034122D02*
X00054635Y-00034122D01*
X00056720Y-00034122D02*
X00056671Y-00034122D01*
X00054535Y-00034072D02*
X00054486Y-00034072D01*
X00054684Y-00034072D02*
X00054734Y-00034072D01*
X00054883Y-00034072D02*
X00054834Y-00034072D01*
X00056522Y-00034072D02*
X00056472Y-00034072D01*
X00053195Y-00034022D02*
X00053145Y-00034022D01*
X00054784Y-00034022D02*
X00054734Y-00034022D01*
X00055032Y-00034022D02*
X00055132Y-00034022D01*
X00053195Y-00033923D02*
X00053195Y-00033923D01*
X00054436Y-00033923D02*
X00055181Y-00033923D01*
X00056422Y-00033923D02*
X00057366Y-00033923D01*
M02*