G04 #@! TF.GenerationSoftware,KiCad,Pcbnew,(5.1.4)-1*
G04 #@! TF.CreationDate,2019-12-18T21:33:11+01:00*
G04 #@! TF.ProjectId,ser,7365722e-6b69-4636-9164-5f7063625858,rev?*
G04 #@! TF.SameCoordinates,Original*
G04 #@! TF.FileFunction,Soldermask,Top*
G04 #@! TF.FilePolarity,Negative*
%FSLAX46Y46*%
G04 Gerber Fmt 4.6, Leading zero omitted, Abs format (unit mm)*
G04 Created by KiCad (PCBNEW (5.1.4)-1) date 2019-12-18 21:33:11*
%MOMM*%
%LPD*%
G04 APERTURE LIST*
%ADD10C,0.100000*%
G04 APERTURE END LIST*
D10*
G36*
X133993842Y-118485518D02*
G01*
X134060027Y-118492037D01*
X134229866Y-118543557D01*
X134386391Y-118627222D01*
X134422129Y-118656552D01*
X134523586Y-118739814D01*
X134606848Y-118841271D01*
X134636178Y-118877009D01*
X134719843Y-119033534D01*
X134771363Y-119203373D01*
X134788759Y-119380000D01*
X134771363Y-119556627D01*
X134719843Y-119726466D01*
X134636178Y-119882991D01*
X134606848Y-119918729D01*
X134523586Y-120020186D01*
X134422129Y-120103448D01*
X134386391Y-120132778D01*
X134229866Y-120216443D01*
X134060027Y-120267963D01*
X133993842Y-120274482D01*
X133927660Y-120281000D01*
X133839140Y-120281000D01*
X133772958Y-120274482D01*
X133706773Y-120267963D01*
X133536934Y-120216443D01*
X133380409Y-120132778D01*
X133344671Y-120103448D01*
X133243214Y-120020186D01*
X133159952Y-119918729D01*
X133130622Y-119882991D01*
X133046957Y-119726466D01*
X132995437Y-119556627D01*
X132978041Y-119380000D01*
X132995437Y-119203373D01*
X133046957Y-119033534D01*
X133130622Y-118877009D01*
X133159952Y-118841271D01*
X133243214Y-118739814D01*
X133344671Y-118656552D01*
X133380409Y-118627222D01*
X133536934Y-118543557D01*
X133706773Y-118492037D01*
X133772958Y-118485518D01*
X133839140Y-118479000D01*
X133927660Y-118479000D01*
X133993842Y-118485518D01*
X133993842Y-118485518D01*
G37*
G36*
X144153842Y-118485518D02*
G01*
X144220027Y-118492037D01*
X144389866Y-118543557D01*
X144546391Y-118627222D01*
X144582129Y-118656552D01*
X144683586Y-118739814D01*
X144766848Y-118841271D01*
X144796178Y-118877009D01*
X144879843Y-119033534D01*
X144931363Y-119203373D01*
X144948759Y-119380000D01*
X144931363Y-119556627D01*
X144879843Y-119726466D01*
X144796178Y-119882991D01*
X144766848Y-119918729D01*
X144683586Y-120020186D01*
X144582129Y-120103448D01*
X144546391Y-120132778D01*
X144389866Y-120216443D01*
X144220027Y-120267963D01*
X144153842Y-120274482D01*
X144087660Y-120281000D01*
X143999140Y-120281000D01*
X143932958Y-120274482D01*
X143866773Y-120267963D01*
X143696934Y-120216443D01*
X143540409Y-120132778D01*
X143504671Y-120103448D01*
X143403214Y-120020186D01*
X143319952Y-119918729D01*
X143290622Y-119882991D01*
X143206957Y-119726466D01*
X143155437Y-119556627D01*
X143138041Y-119380000D01*
X143155437Y-119203373D01*
X143206957Y-119033534D01*
X143290622Y-118877009D01*
X143319952Y-118841271D01*
X143403214Y-118739814D01*
X143504671Y-118656552D01*
X143540409Y-118627222D01*
X143696934Y-118543557D01*
X143866773Y-118492037D01*
X143932958Y-118485518D01*
X143999140Y-118479000D01*
X144087660Y-118479000D01*
X144153842Y-118485518D01*
X144153842Y-118485518D01*
G37*
G36*
X147484400Y-120281000D02*
G01*
X145682400Y-120281000D01*
X145682400Y-118479000D01*
X147484400Y-118479000D01*
X147484400Y-120281000D01*
X147484400Y-120281000D01*
G37*
G36*
X141613842Y-118485518D02*
G01*
X141680027Y-118492037D01*
X141849866Y-118543557D01*
X142006391Y-118627222D01*
X142042129Y-118656552D01*
X142143586Y-118739814D01*
X142226848Y-118841271D01*
X142256178Y-118877009D01*
X142339843Y-119033534D01*
X142391363Y-119203373D01*
X142408759Y-119380000D01*
X142391363Y-119556627D01*
X142339843Y-119726466D01*
X142256178Y-119882991D01*
X142226848Y-119918729D01*
X142143586Y-120020186D01*
X142042129Y-120103448D01*
X142006391Y-120132778D01*
X141849866Y-120216443D01*
X141680027Y-120267963D01*
X141613842Y-120274482D01*
X141547660Y-120281000D01*
X141459140Y-120281000D01*
X141392958Y-120274482D01*
X141326773Y-120267963D01*
X141156934Y-120216443D01*
X141000409Y-120132778D01*
X140964671Y-120103448D01*
X140863214Y-120020186D01*
X140779952Y-119918729D01*
X140750622Y-119882991D01*
X140666957Y-119726466D01*
X140615437Y-119556627D01*
X140598041Y-119380000D01*
X140615437Y-119203373D01*
X140666957Y-119033534D01*
X140750622Y-118877009D01*
X140779952Y-118841271D01*
X140863214Y-118739814D01*
X140964671Y-118656552D01*
X141000409Y-118627222D01*
X141156934Y-118543557D01*
X141326773Y-118492037D01*
X141392958Y-118485518D01*
X141459140Y-118479000D01*
X141547660Y-118479000D01*
X141613842Y-118485518D01*
X141613842Y-118485518D01*
G37*
G36*
X136533842Y-118485518D02*
G01*
X136600027Y-118492037D01*
X136769866Y-118543557D01*
X136926391Y-118627222D01*
X136962129Y-118656552D01*
X137063586Y-118739814D01*
X137146848Y-118841271D01*
X137176178Y-118877009D01*
X137259843Y-119033534D01*
X137311363Y-119203373D01*
X137328759Y-119380000D01*
X137311363Y-119556627D01*
X137259843Y-119726466D01*
X137176178Y-119882991D01*
X137146848Y-119918729D01*
X137063586Y-120020186D01*
X136962129Y-120103448D01*
X136926391Y-120132778D01*
X136769866Y-120216443D01*
X136600027Y-120267963D01*
X136533842Y-120274482D01*
X136467660Y-120281000D01*
X136379140Y-120281000D01*
X136312958Y-120274482D01*
X136246773Y-120267963D01*
X136076934Y-120216443D01*
X135920409Y-120132778D01*
X135884671Y-120103448D01*
X135783214Y-120020186D01*
X135699952Y-119918729D01*
X135670622Y-119882991D01*
X135586957Y-119726466D01*
X135535437Y-119556627D01*
X135518041Y-119380000D01*
X135535437Y-119203373D01*
X135586957Y-119033534D01*
X135670622Y-118877009D01*
X135699952Y-118841271D01*
X135783214Y-118739814D01*
X135884671Y-118656552D01*
X135920409Y-118627222D01*
X136076934Y-118543557D01*
X136246773Y-118492037D01*
X136312958Y-118485518D01*
X136379140Y-118479000D01*
X136467660Y-118479000D01*
X136533842Y-118485518D01*
X136533842Y-118485518D01*
G37*
G36*
X139073842Y-118485518D02*
G01*
X139140027Y-118492037D01*
X139309866Y-118543557D01*
X139466391Y-118627222D01*
X139502129Y-118656552D01*
X139603586Y-118739814D01*
X139686848Y-118841271D01*
X139716178Y-118877009D01*
X139799843Y-119033534D01*
X139851363Y-119203373D01*
X139868759Y-119380000D01*
X139851363Y-119556627D01*
X139799843Y-119726466D01*
X139716178Y-119882991D01*
X139686848Y-119918729D01*
X139603586Y-120020186D01*
X139502129Y-120103448D01*
X139466391Y-120132778D01*
X139309866Y-120216443D01*
X139140027Y-120267963D01*
X139073842Y-120274482D01*
X139007660Y-120281000D01*
X138919140Y-120281000D01*
X138852958Y-120274482D01*
X138786773Y-120267963D01*
X138616934Y-120216443D01*
X138460409Y-120132778D01*
X138424671Y-120103448D01*
X138323214Y-120020186D01*
X138239952Y-119918729D01*
X138210622Y-119882991D01*
X138126957Y-119726466D01*
X138075437Y-119556627D01*
X138058041Y-119380000D01*
X138075437Y-119203373D01*
X138126957Y-119033534D01*
X138210622Y-118877009D01*
X138239952Y-118841271D01*
X138323214Y-118739814D01*
X138424671Y-118656552D01*
X138460409Y-118627222D01*
X138616934Y-118543557D01*
X138786773Y-118492037D01*
X138852958Y-118485518D01*
X138919140Y-118479000D01*
X139007660Y-118479000D01*
X139073842Y-118485518D01*
X139073842Y-118485518D01*
G37*
G36*
X146872403Y-113347275D02*
G01*
X146872405Y-113347276D01*
X146872406Y-113347276D01*
X147052720Y-113421964D01*
X147214998Y-113530395D01*
X147353005Y-113668402D01*
X147461436Y-113830680D01*
X147536124Y-114010994D01*
X147574200Y-114202415D01*
X147574200Y-114397585D01*
X147536124Y-114589006D01*
X147461436Y-114769320D01*
X147353005Y-114931598D01*
X147214998Y-115069605D01*
X147052720Y-115178036D01*
X146872406Y-115252724D01*
X146872405Y-115252724D01*
X146872403Y-115252725D01*
X146680987Y-115290800D01*
X146485813Y-115290800D01*
X146294397Y-115252725D01*
X146294395Y-115252724D01*
X146294394Y-115252724D01*
X146114080Y-115178036D01*
X145951802Y-115069605D01*
X145813795Y-114931598D01*
X145705364Y-114769320D01*
X145630676Y-114589006D01*
X145592600Y-114397585D01*
X145592600Y-114202415D01*
X145630676Y-114010994D01*
X145705364Y-113830680D01*
X145813795Y-113668402D01*
X145951802Y-113530395D01*
X146114080Y-113421964D01*
X146294394Y-113347276D01*
X146294395Y-113347276D01*
X146294397Y-113347275D01*
X146485813Y-113309200D01*
X146680987Y-113309200D01*
X146872403Y-113347275D01*
X146872403Y-113347275D01*
G37*
G36*
X131632403Y-113347275D02*
G01*
X131632405Y-113347276D01*
X131632406Y-113347276D01*
X131812720Y-113421964D01*
X131974998Y-113530395D01*
X132113005Y-113668402D01*
X132221436Y-113830680D01*
X132296124Y-114010994D01*
X132334200Y-114202415D01*
X132334200Y-114397585D01*
X132296124Y-114589006D01*
X132221436Y-114769320D01*
X132113005Y-114931598D01*
X131974998Y-115069605D01*
X131812720Y-115178036D01*
X131632406Y-115252724D01*
X131632405Y-115252724D01*
X131632403Y-115252725D01*
X131440987Y-115290800D01*
X131245813Y-115290800D01*
X131054397Y-115252725D01*
X131054395Y-115252724D01*
X131054394Y-115252724D01*
X130874080Y-115178036D01*
X130711802Y-115069605D01*
X130573795Y-114931598D01*
X130465364Y-114769320D01*
X130390676Y-114589006D01*
X130352600Y-114397585D01*
X130352600Y-114202415D01*
X130390676Y-114010994D01*
X130465364Y-113830680D01*
X130573795Y-113668402D01*
X130711802Y-113530395D01*
X130874080Y-113421964D01*
X131054394Y-113347276D01*
X131054395Y-113347276D01*
X131054397Y-113347275D01*
X131245813Y-113309200D01*
X131440987Y-113309200D01*
X131632403Y-113347275D01*
X131632403Y-113347275D01*
G37*
G36*
X131632403Y-110807275D02*
G01*
X131632405Y-110807276D01*
X131632406Y-110807276D01*
X131812720Y-110881964D01*
X131974998Y-110990395D01*
X132113005Y-111128402D01*
X132221436Y-111290680D01*
X132296124Y-111470994D01*
X132334200Y-111662415D01*
X132334200Y-111857585D01*
X132296124Y-112049006D01*
X132221436Y-112229320D01*
X132113005Y-112391598D01*
X131974998Y-112529605D01*
X131812720Y-112638036D01*
X131632406Y-112712724D01*
X131632405Y-112712724D01*
X131632403Y-112712725D01*
X131440987Y-112750800D01*
X131245813Y-112750800D01*
X131054397Y-112712725D01*
X131054395Y-112712724D01*
X131054394Y-112712724D01*
X130874080Y-112638036D01*
X130711802Y-112529605D01*
X130573795Y-112391598D01*
X130465364Y-112229320D01*
X130390676Y-112049006D01*
X130352600Y-111857585D01*
X130352600Y-111662415D01*
X130390676Y-111470994D01*
X130465364Y-111290680D01*
X130573795Y-111128402D01*
X130711802Y-110990395D01*
X130874080Y-110881964D01*
X131054394Y-110807276D01*
X131054395Y-110807276D01*
X131054397Y-110807275D01*
X131245813Y-110769200D01*
X131440987Y-110769200D01*
X131632403Y-110807275D01*
X131632403Y-110807275D01*
G37*
G36*
X146872403Y-110807275D02*
G01*
X146872405Y-110807276D01*
X146872406Y-110807276D01*
X147052720Y-110881964D01*
X147214998Y-110990395D01*
X147353005Y-111128402D01*
X147461436Y-111290680D01*
X147536124Y-111470994D01*
X147574200Y-111662415D01*
X147574200Y-111857585D01*
X147536124Y-112049006D01*
X147461436Y-112229320D01*
X147353005Y-112391598D01*
X147214998Y-112529605D01*
X147052720Y-112638036D01*
X146872406Y-112712724D01*
X146872405Y-112712724D01*
X146872403Y-112712725D01*
X146680987Y-112750800D01*
X146485813Y-112750800D01*
X146294397Y-112712725D01*
X146294395Y-112712724D01*
X146294394Y-112712724D01*
X146114080Y-112638036D01*
X145951802Y-112529605D01*
X145813795Y-112391598D01*
X145705364Y-112229320D01*
X145630676Y-112049006D01*
X145592600Y-111857585D01*
X145592600Y-111662415D01*
X145630676Y-111470994D01*
X145705364Y-111290680D01*
X145813795Y-111128402D01*
X145951802Y-110990395D01*
X146114080Y-110881964D01*
X146294394Y-110807276D01*
X146294395Y-110807276D01*
X146294397Y-110807275D01*
X146485813Y-110769200D01*
X146680987Y-110769200D01*
X146872403Y-110807275D01*
X146872403Y-110807275D01*
G37*
G36*
X138823399Y-109054737D02*
G01*
X138833008Y-109057652D01*
X138841872Y-109062390D01*
X138858104Y-109075711D01*
X138878479Y-109089324D01*
X138901118Y-109098701D01*
X138925151Y-109103481D01*
X138949655Y-109103481D01*
X138973689Y-109098700D01*
X138996327Y-109089322D01*
X139016701Y-109075708D01*
X139034028Y-109058381D01*
X139036955Y-109054000D01*
X140164400Y-109054000D01*
X140164400Y-110656000D01*
X139036845Y-110656000D01*
X139025789Y-110642528D01*
X139006847Y-110626983D01*
X138985236Y-110615432D01*
X138961787Y-110608319D01*
X138937401Y-110605917D01*
X138913015Y-110608319D01*
X138889566Y-110615432D01*
X138858104Y-110634289D01*
X138841872Y-110647610D01*
X138833008Y-110652348D01*
X138823399Y-110655263D01*
X138807260Y-110656852D01*
X137819540Y-110656852D01*
X137803401Y-110655263D01*
X137793792Y-110652348D01*
X137784928Y-110647610D01*
X137777163Y-110641237D01*
X137770790Y-110633472D01*
X137766052Y-110624608D01*
X137763137Y-110614999D01*
X137761548Y-110598860D01*
X137761548Y-109111140D01*
X137763137Y-109095001D01*
X137766052Y-109085392D01*
X137770790Y-109076528D01*
X137777163Y-109068763D01*
X137784928Y-109062390D01*
X137793792Y-109057652D01*
X137803401Y-109054737D01*
X137819540Y-109053148D01*
X138807260Y-109053148D01*
X138823399Y-109054737D01*
X138823399Y-109054737D01*
G37*
G36*
X131632403Y-108267275D02*
G01*
X131632405Y-108267276D01*
X131632406Y-108267276D01*
X131812720Y-108341964D01*
X131974998Y-108450395D01*
X132113005Y-108588402D01*
X132221436Y-108750680D01*
X132296124Y-108930994D01*
X132296125Y-108930997D01*
X132334200Y-109122413D01*
X132334200Y-109317585D01*
X132296124Y-109509006D01*
X132221436Y-109689320D01*
X132113005Y-109851598D01*
X131974998Y-109989605D01*
X131812720Y-110098036D01*
X131632406Y-110172724D01*
X131632405Y-110172724D01*
X131632403Y-110172725D01*
X131440987Y-110210800D01*
X131245813Y-110210800D01*
X131054397Y-110172725D01*
X131054395Y-110172724D01*
X131054394Y-110172724D01*
X130874080Y-110098036D01*
X130711802Y-109989605D01*
X130573795Y-109851598D01*
X130465364Y-109689320D01*
X130390676Y-109509006D01*
X130352600Y-109317585D01*
X130352600Y-109122413D01*
X130390675Y-108930997D01*
X130390676Y-108930994D01*
X130465364Y-108750680D01*
X130573795Y-108588402D01*
X130711802Y-108450395D01*
X130874080Y-108341964D01*
X131054394Y-108267276D01*
X131054395Y-108267276D01*
X131054397Y-108267275D01*
X131245813Y-108229200D01*
X131440987Y-108229200D01*
X131632403Y-108267275D01*
X131632403Y-108267275D01*
G37*
G36*
X146872403Y-108267275D02*
G01*
X146872405Y-108267276D01*
X146872406Y-108267276D01*
X147052720Y-108341964D01*
X147214998Y-108450395D01*
X147353005Y-108588402D01*
X147461436Y-108750680D01*
X147536124Y-108930994D01*
X147536125Y-108930997D01*
X147574200Y-109122413D01*
X147574200Y-109317585D01*
X147536124Y-109509006D01*
X147461436Y-109689320D01*
X147353005Y-109851598D01*
X147214998Y-109989605D01*
X147052720Y-110098036D01*
X146872406Y-110172724D01*
X146872405Y-110172724D01*
X146872403Y-110172725D01*
X146680987Y-110210800D01*
X146485813Y-110210800D01*
X146294397Y-110172725D01*
X146294395Y-110172724D01*
X146294394Y-110172724D01*
X146114080Y-110098036D01*
X145951802Y-109989605D01*
X145813795Y-109851598D01*
X145705364Y-109689320D01*
X145630676Y-109509006D01*
X145592600Y-109317585D01*
X145592600Y-109122413D01*
X145630675Y-108930997D01*
X145630676Y-108930994D01*
X145705364Y-108750680D01*
X145813795Y-108588402D01*
X145951802Y-108450395D01*
X146114080Y-108341964D01*
X146294394Y-108267276D01*
X146294395Y-108267276D01*
X146294397Y-108267275D01*
X146485813Y-108229200D01*
X146680987Y-108229200D01*
X146872403Y-108267275D01*
X146872403Y-108267275D01*
G37*
G36*
X146872403Y-105727275D02*
G01*
X146872405Y-105727276D01*
X146872406Y-105727276D01*
X147052720Y-105801964D01*
X147214998Y-105910395D01*
X147353005Y-106048402D01*
X147461436Y-106210680D01*
X147536124Y-106390994D01*
X147574200Y-106582415D01*
X147574200Y-106777585D01*
X147536124Y-106969006D01*
X147461436Y-107149320D01*
X147353005Y-107311598D01*
X147214998Y-107449605D01*
X147052720Y-107558036D01*
X146872406Y-107632724D01*
X146872405Y-107632724D01*
X146872403Y-107632725D01*
X146680987Y-107670800D01*
X146485813Y-107670800D01*
X146294397Y-107632725D01*
X146294395Y-107632724D01*
X146294394Y-107632724D01*
X146114080Y-107558036D01*
X145951802Y-107449605D01*
X145813795Y-107311598D01*
X145705364Y-107149320D01*
X145630676Y-106969006D01*
X145592600Y-106777585D01*
X145592600Y-106582415D01*
X145630676Y-106390994D01*
X145705364Y-106210680D01*
X145813795Y-106048402D01*
X145951802Y-105910395D01*
X146114080Y-105801964D01*
X146294394Y-105727276D01*
X146294395Y-105727276D01*
X146294397Y-105727275D01*
X146485813Y-105689200D01*
X146680987Y-105689200D01*
X146872403Y-105727275D01*
X146872403Y-105727275D01*
G37*
G36*
X131632403Y-105727275D02*
G01*
X131632405Y-105727276D01*
X131632406Y-105727276D01*
X131812720Y-105801964D01*
X131974998Y-105910395D01*
X132113005Y-106048402D01*
X132221436Y-106210680D01*
X132296124Y-106390994D01*
X132334200Y-106582415D01*
X132334200Y-106777585D01*
X132296124Y-106969006D01*
X132221436Y-107149320D01*
X132113005Y-107311598D01*
X131974998Y-107449605D01*
X131812720Y-107558036D01*
X131632406Y-107632724D01*
X131632405Y-107632724D01*
X131632403Y-107632725D01*
X131440987Y-107670800D01*
X131245813Y-107670800D01*
X131054397Y-107632725D01*
X131054395Y-107632724D01*
X131054394Y-107632724D01*
X130874080Y-107558036D01*
X130711802Y-107449605D01*
X130573795Y-107311598D01*
X130465364Y-107149320D01*
X130390676Y-106969006D01*
X130352600Y-106777585D01*
X130352600Y-106582415D01*
X130390676Y-106390994D01*
X130465364Y-106210680D01*
X130573795Y-106048402D01*
X130711802Y-105910395D01*
X130874080Y-105801964D01*
X131054394Y-105727276D01*
X131054395Y-105727276D01*
X131054397Y-105727275D01*
X131245813Y-105689200D01*
X131440987Y-105689200D01*
X131632403Y-105727275D01*
X131632403Y-105727275D01*
G37*
G36*
X131632403Y-103187275D02*
G01*
X131632405Y-103187276D01*
X131632406Y-103187276D01*
X131812720Y-103261964D01*
X131974998Y-103370395D01*
X132113005Y-103508402D01*
X132221436Y-103670680D01*
X132296124Y-103850994D01*
X132334200Y-104042415D01*
X132334200Y-104237585D01*
X132296124Y-104429006D01*
X132221436Y-104609320D01*
X132113005Y-104771598D01*
X131974998Y-104909605D01*
X131812720Y-105018036D01*
X131632406Y-105092724D01*
X131632405Y-105092724D01*
X131632403Y-105092725D01*
X131440987Y-105130800D01*
X131245813Y-105130800D01*
X131054397Y-105092725D01*
X131054395Y-105092724D01*
X131054394Y-105092724D01*
X130874080Y-105018036D01*
X130711802Y-104909605D01*
X130573795Y-104771598D01*
X130465364Y-104609320D01*
X130390676Y-104429006D01*
X130352600Y-104237585D01*
X130352600Y-104042415D01*
X130390676Y-103850994D01*
X130465364Y-103670680D01*
X130573795Y-103508402D01*
X130711802Y-103370395D01*
X130874080Y-103261964D01*
X131054394Y-103187276D01*
X131054395Y-103187276D01*
X131054397Y-103187275D01*
X131245813Y-103149200D01*
X131440987Y-103149200D01*
X131632403Y-103187275D01*
X131632403Y-103187275D01*
G37*
G36*
X146872403Y-103187275D02*
G01*
X146872405Y-103187276D01*
X146872406Y-103187276D01*
X147052720Y-103261964D01*
X147214998Y-103370395D01*
X147353005Y-103508402D01*
X147461436Y-103670680D01*
X147536124Y-103850994D01*
X147574200Y-104042415D01*
X147574200Y-104237585D01*
X147536124Y-104429006D01*
X147461436Y-104609320D01*
X147353005Y-104771598D01*
X147214998Y-104909605D01*
X147052720Y-105018036D01*
X146872406Y-105092724D01*
X146872405Y-105092724D01*
X146872403Y-105092725D01*
X146680987Y-105130800D01*
X146485813Y-105130800D01*
X146294397Y-105092725D01*
X146294395Y-105092724D01*
X146294394Y-105092724D01*
X146114080Y-105018036D01*
X145951802Y-104909605D01*
X145813795Y-104771598D01*
X145705364Y-104609320D01*
X145630676Y-104429006D01*
X145592600Y-104237585D01*
X145592600Y-104042415D01*
X145630676Y-103850994D01*
X145705364Y-103670680D01*
X145813795Y-103508402D01*
X145951802Y-103370395D01*
X146114080Y-103261964D01*
X146294394Y-103187276D01*
X146294395Y-103187276D01*
X146294397Y-103187275D01*
X146485813Y-103149200D01*
X146680987Y-103149200D01*
X146872403Y-103187275D01*
X146872403Y-103187275D01*
G37*
G36*
X146872403Y-100647275D02*
G01*
X146872405Y-100647276D01*
X146872406Y-100647276D01*
X147052720Y-100721964D01*
X147214998Y-100830395D01*
X147353005Y-100968402D01*
X147461436Y-101130680D01*
X147536124Y-101310994D01*
X147574200Y-101502415D01*
X147574200Y-101697585D01*
X147536124Y-101889006D01*
X147461436Y-102069320D01*
X147353005Y-102231598D01*
X147214998Y-102369605D01*
X147052720Y-102478036D01*
X146872406Y-102552724D01*
X146872405Y-102552724D01*
X146872403Y-102552725D01*
X146680987Y-102590800D01*
X146485813Y-102590800D01*
X146294397Y-102552725D01*
X146294395Y-102552724D01*
X146294394Y-102552724D01*
X146114080Y-102478036D01*
X145951802Y-102369605D01*
X145813795Y-102231598D01*
X145705364Y-102069320D01*
X145630676Y-101889006D01*
X145592600Y-101697585D01*
X145592600Y-101502415D01*
X145630676Y-101310994D01*
X145705364Y-101130680D01*
X145813795Y-100968402D01*
X145951802Y-100830395D01*
X146114080Y-100721964D01*
X146294394Y-100647276D01*
X146294395Y-100647276D01*
X146294397Y-100647275D01*
X146485813Y-100609200D01*
X146680987Y-100609200D01*
X146872403Y-100647275D01*
X146872403Y-100647275D01*
G37*
G36*
X131632403Y-100647275D02*
G01*
X131632405Y-100647276D01*
X131632406Y-100647276D01*
X131812720Y-100721964D01*
X131974998Y-100830395D01*
X132113005Y-100968402D01*
X132221436Y-101130680D01*
X132296124Y-101310994D01*
X132334200Y-101502415D01*
X132334200Y-101697585D01*
X132296124Y-101889006D01*
X132221436Y-102069320D01*
X132113005Y-102231598D01*
X131974998Y-102369605D01*
X131812720Y-102478036D01*
X131632406Y-102552724D01*
X131632405Y-102552724D01*
X131632403Y-102552725D01*
X131440987Y-102590800D01*
X131245813Y-102590800D01*
X131054397Y-102552725D01*
X131054395Y-102552724D01*
X131054394Y-102552724D01*
X130874080Y-102478036D01*
X130711802Y-102369605D01*
X130573795Y-102231598D01*
X130465364Y-102069320D01*
X130390676Y-101889006D01*
X130352600Y-101697585D01*
X130352600Y-101502415D01*
X130390676Y-101310994D01*
X130465364Y-101130680D01*
X130573795Y-100968402D01*
X130711802Y-100830395D01*
X130874080Y-100721964D01*
X131054394Y-100647276D01*
X131054395Y-100647276D01*
X131054397Y-100647275D01*
X131245813Y-100609200D01*
X131440987Y-100609200D01*
X131632403Y-100647275D01*
X131632403Y-100647275D01*
G37*
G36*
X146872403Y-98107275D02*
G01*
X146872405Y-98107276D01*
X146872406Y-98107276D01*
X147052720Y-98181964D01*
X147214998Y-98290395D01*
X147353005Y-98428402D01*
X147461436Y-98590680D01*
X147536124Y-98770994D01*
X147574200Y-98962415D01*
X147574200Y-99157585D01*
X147536124Y-99349006D01*
X147461436Y-99529320D01*
X147353005Y-99691598D01*
X147214998Y-99829605D01*
X147052720Y-99938036D01*
X146872406Y-100012724D01*
X146872405Y-100012724D01*
X146872403Y-100012725D01*
X146680987Y-100050800D01*
X146485813Y-100050800D01*
X146294397Y-100012725D01*
X146294395Y-100012724D01*
X146294394Y-100012724D01*
X146114080Y-99938036D01*
X145951802Y-99829605D01*
X145813795Y-99691598D01*
X145705364Y-99529320D01*
X145630676Y-99349006D01*
X145592600Y-99157585D01*
X145592600Y-98962415D01*
X145630676Y-98770994D01*
X145705364Y-98590680D01*
X145813795Y-98428402D01*
X145951802Y-98290395D01*
X146114080Y-98181964D01*
X146294394Y-98107276D01*
X146294395Y-98107276D01*
X146294397Y-98107275D01*
X146485813Y-98069200D01*
X146680987Y-98069200D01*
X146872403Y-98107275D01*
X146872403Y-98107275D01*
G37*
G36*
X131632403Y-98107275D02*
G01*
X131632405Y-98107276D01*
X131632406Y-98107276D01*
X131812720Y-98181964D01*
X131974998Y-98290395D01*
X132113005Y-98428402D01*
X132221436Y-98590680D01*
X132296124Y-98770994D01*
X132334200Y-98962415D01*
X132334200Y-99157585D01*
X132296124Y-99349006D01*
X132221436Y-99529320D01*
X132113005Y-99691598D01*
X131974998Y-99829605D01*
X131812720Y-99938036D01*
X131632406Y-100012724D01*
X131632405Y-100012724D01*
X131632403Y-100012725D01*
X131440987Y-100050800D01*
X131245813Y-100050800D01*
X131054397Y-100012725D01*
X131054395Y-100012724D01*
X131054394Y-100012724D01*
X130874080Y-99938036D01*
X130711802Y-99829605D01*
X130573795Y-99691598D01*
X130465364Y-99529320D01*
X130390676Y-99349006D01*
X130352600Y-99157585D01*
X130352600Y-98962415D01*
X130390676Y-98770994D01*
X130465364Y-98590680D01*
X130573795Y-98428402D01*
X130711802Y-98290395D01*
X130874080Y-98181964D01*
X131054394Y-98107276D01*
X131054395Y-98107276D01*
X131054397Y-98107275D01*
X131245813Y-98069200D01*
X131440987Y-98069200D01*
X131632403Y-98107275D01*
X131632403Y-98107275D01*
G37*
G36*
X134882899Y-98488445D02*
G01*
X134920395Y-98499820D01*
X134954954Y-98518292D01*
X134985247Y-98543153D01*
X135010108Y-98573446D01*
X135028580Y-98608005D01*
X135039955Y-98645501D01*
X135044400Y-98690638D01*
X135044400Y-99429362D01*
X135039955Y-99474499D01*
X135028580Y-99511995D01*
X135010108Y-99546554D01*
X134985247Y-99576847D01*
X134954954Y-99601708D01*
X134920395Y-99620180D01*
X134882899Y-99631555D01*
X134837762Y-99636000D01*
X134199038Y-99636000D01*
X134153901Y-99631555D01*
X134116405Y-99620180D01*
X134081846Y-99601708D01*
X134051553Y-99576847D01*
X134026692Y-99546554D01*
X134008220Y-99511995D01*
X133996845Y-99474499D01*
X133992400Y-99429362D01*
X133992400Y-98690638D01*
X133996845Y-98645501D01*
X134008220Y-98608005D01*
X134026692Y-98573446D01*
X134051553Y-98543153D01*
X134081846Y-98518292D01*
X134116405Y-98499820D01*
X134153901Y-98488445D01*
X134199038Y-98484000D01*
X134837762Y-98484000D01*
X134882899Y-98488445D01*
X134882899Y-98488445D01*
G37*
G36*
X139962899Y-98488445D02*
G01*
X140000395Y-98499820D01*
X140034954Y-98518292D01*
X140065247Y-98543153D01*
X140090108Y-98573446D01*
X140108580Y-98608005D01*
X140119955Y-98645501D01*
X140124400Y-98690638D01*
X140124400Y-99429362D01*
X140119955Y-99474499D01*
X140108580Y-99511995D01*
X140090108Y-99546554D01*
X140065247Y-99576847D01*
X140034954Y-99601708D01*
X140000395Y-99620180D01*
X139962899Y-99631555D01*
X139917762Y-99636000D01*
X139279038Y-99636000D01*
X139233901Y-99631555D01*
X139196405Y-99620180D01*
X139161846Y-99601708D01*
X139131553Y-99576847D01*
X139106692Y-99546554D01*
X139088220Y-99511995D01*
X139076845Y-99474499D01*
X139072400Y-99429362D01*
X139072400Y-98690638D01*
X139076845Y-98645501D01*
X139088220Y-98608005D01*
X139106692Y-98573446D01*
X139131553Y-98543153D01*
X139161846Y-98518292D01*
X139196405Y-98499820D01*
X139233901Y-98488445D01*
X139279038Y-98484000D01*
X139917762Y-98484000D01*
X139962899Y-98488445D01*
X139962899Y-98488445D01*
G37*
G36*
X141867899Y-98488445D02*
G01*
X141905395Y-98499820D01*
X141939954Y-98518292D01*
X141970247Y-98543153D01*
X141995108Y-98573446D01*
X142013580Y-98608005D01*
X142024955Y-98645501D01*
X142029400Y-98690638D01*
X142029400Y-99429362D01*
X142024955Y-99474499D01*
X142013580Y-99511995D01*
X141995108Y-99546554D01*
X141970247Y-99576847D01*
X141939954Y-99601708D01*
X141905395Y-99620180D01*
X141867899Y-99631555D01*
X141822762Y-99636000D01*
X141184038Y-99636000D01*
X141138901Y-99631555D01*
X141101405Y-99620180D01*
X141066846Y-99601708D01*
X141036553Y-99576847D01*
X141011692Y-99546554D01*
X140993220Y-99511995D01*
X140981845Y-99474499D01*
X140977400Y-99429362D01*
X140977400Y-98690638D01*
X140981845Y-98645501D01*
X140993220Y-98608005D01*
X141011692Y-98573446D01*
X141036553Y-98543153D01*
X141066846Y-98518292D01*
X141101405Y-98499820D01*
X141138901Y-98488445D01*
X141184038Y-98484000D01*
X141822762Y-98484000D01*
X141867899Y-98488445D01*
X141867899Y-98488445D01*
G37*
G36*
X136787899Y-98488445D02*
G01*
X136825395Y-98499820D01*
X136859954Y-98518292D01*
X136890247Y-98543153D01*
X136915108Y-98573446D01*
X136933580Y-98608005D01*
X136944955Y-98645501D01*
X136949400Y-98690638D01*
X136949400Y-99429362D01*
X136944955Y-99474499D01*
X136933580Y-99511995D01*
X136915108Y-99546554D01*
X136890247Y-99576847D01*
X136859954Y-99601708D01*
X136825395Y-99620180D01*
X136787899Y-99631555D01*
X136742762Y-99636000D01*
X136104038Y-99636000D01*
X136058901Y-99631555D01*
X136021405Y-99620180D01*
X135986846Y-99601708D01*
X135956553Y-99576847D01*
X135931692Y-99546554D01*
X135913220Y-99511995D01*
X135901845Y-99474499D01*
X135897400Y-99429362D01*
X135897400Y-98690638D01*
X135901845Y-98645501D01*
X135913220Y-98608005D01*
X135931692Y-98573446D01*
X135956553Y-98543153D01*
X135986846Y-98518292D01*
X136021405Y-98499820D01*
X136058901Y-98488445D01*
X136104038Y-98484000D01*
X136742762Y-98484000D01*
X136787899Y-98488445D01*
X136787899Y-98488445D01*
G37*
G36*
X136787899Y-96738445D02*
G01*
X136825395Y-96749820D01*
X136859954Y-96768292D01*
X136890247Y-96793153D01*
X136915108Y-96823446D01*
X136933580Y-96858005D01*
X136944955Y-96895501D01*
X136949400Y-96940638D01*
X136949400Y-97679362D01*
X136944955Y-97724499D01*
X136933580Y-97761995D01*
X136915108Y-97796554D01*
X136890247Y-97826847D01*
X136859954Y-97851708D01*
X136825395Y-97870180D01*
X136787899Y-97881555D01*
X136742762Y-97886000D01*
X136104038Y-97886000D01*
X136058901Y-97881555D01*
X136021405Y-97870180D01*
X135986846Y-97851708D01*
X135956553Y-97826847D01*
X135931692Y-97796554D01*
X135913220Y-97761995D01*
X135901845Y-97724499D01*
X135897400Y-97679362D01*
X135897400Y-96940638D01*
X135901845Y-96895501D01*
X135913220Y-96858005D01*
X135931692Y-96823446D01*
X135956553Y-96793153D01*
X135986846Y-96768292D01*
X136021405Y-96749820D01*
X136058901Y-96738445D01*
X136104038Y-96734000D01*
X136742762Y-96734000D01*
X136787899Y-96738445D01*
X136787899Y-96738445D01*
G37*
G36*
X139962899Y-96738445D02*
G01*
X140000395Y-96749820D01*
X140034954Y-96768292D01*
X140065247Y-96793153D01*
X140090108Y-96823446D01*
X140108580Y-96858005D01*
X140119955Y-96895501D01*
X140124400Y-96940638D01*
X140124400Y-97679362D01*
X140119955Y-97724499D01*
X140108580Y-97761995D01*
X140090108Y-97796554D01*
X140065247Y-97826847D01*
X140034954Y-97851708D01*
X140000395Y-97870180D01*
X139962899Y-97881555D01*
X139917762Y-97886000D01*
X139279038Y-97886000D01*
X139233901Y-97881555D01*
X139196405Y-97870180D01*
X139161846Y-97851708D01*
X139131553Y-97826847D01*
X139106692Y-97796554D01*
X139088220Y-97761995D01*
X139076845Y-97724499D01*
X139072400Y-97679362D01*
X139072400Y-96940638D01*
X139076845Y-96895501D01*
X139088220Y-96858005D01*
X139106692Y-96823446D01*
X139131553Y-96793153D01*
X139161846Y-96768292D01*
X139196405Y-96749820D01*
X139233901Y-96738445D01*
X139279038Y-96734000D01*
X139917762Y-96734000D01*
X139962899Y-96738445D01*
X139962899Y-96738445D01*
G37*
G36*
X141867899Y-96738445D02*
G01*
X141905395Y-96749820D01*
X141939954Y-96768292D01*
X141970247Y-96793153D01*
X141995108Y-96823446D01*
X142013580Y-96858005D01*
X142024955Y-96895501D01*
X142029400Y-96940638D01*
X142029400Y-97679362D01*
X142024955Y-97724499D01*
X142013580Y-97761995D01*
X141995108Y-97796554D01*
X141970247Y-97826847D01*
X141939954Y-97851708D01*
X141905395Y-97870180D01*
X141867899Y-97881555D01*
X141822762Y-97886000D01*
X141184038Y-97886000D01*
X141138901Y-97881555D01*
X141101405Y-97870180D01*
X141066846Y-97851708D01*
X141036553Y-97826847D01*
X141011692Y-97796554D01*
X140993220Y-97761995D01*
X140981845Y-97724499D01*
X140977400Y-97679362D01*
X140977400Y-96940638D01*
X140981845Y-96895501D01*
X140993220Y-96858005D01*
X141011692Y-96823446D01*
X141036553Y-96793153D01*
X141066846Y-96768292D01*
X141101405Y-96749820D01*
X141138901Y-96738445D01*
X141184038Y-96734000D01*
X141822762Y-96734000D01*
X141867899Y-96738445D01*
X141867899Y-96738445D01*
G37*
G36*
X134882899Y-96738445D02*
G01*
X134920395Y-96749820D01*
X134954954Y-96768292D01*
X134985247Y-96793153D01*
X135010108Y-96823446D01*
X135028580Y-96858005D01*
X135039955Y-96895501D01*
X135044400Y-96940638D01*
X135044400Y-97679362D01*
X135039955Y-97724499D01*
X135028580Y-97761995D01*
X135010108Y-97796554D01*
X134985247Y-97826847D01*
X134954954Y-97851708D01*
X134920395Y-97870180D01*
X134882899Y-97881555D01*
X134837762Y-97886000D01*
X134199038Y-97886000D01*
X134153901Y-97881555D01*
X134116405Y-97870180D01*
X134081846Y-97851708D01*
X134051553Y-97826847D01*
X134026692Y-97796554D01*
X134008220Y-97761995D01*
X133996845Y-97724499D01*
X133992400Y-97679362D01*
X133992400Y-96940638D01*
X133996845Y-96895501D01*
X134008220Y-96858005D01*
X134026692Y-96823446D01*
X134051553Y-96793153D01*
X134081846Y-96768292D01*
X134116405Y-96749820D01*
X134153901Y-96738445D01*
X134199038Y-96734000D01*
X134837762Y-96734000D01*
X134882899Y-96738445D01*
X134882899Y-96738445D01*
G37*
G36*
X146872403Y-95567275D02*
G01*
X146872405Y-95567276D01*
X146872406Y-95567276D01*
X147052720Y-95641964D01*
X147214998Y-95750395D01*
X147353005Y-95888402D01*
X147461436Y-96050680D01*
X147536124Y-96230994D01*
X147536125Y-96230997D01*
X147574200Y-96422413D01*
X147574200Y-96617587D01*
X147539278Y-96793153D01*
X147536124Y-96809006D01*
X147461436Y-96989320D01*
X147353005Y-97151598D01*
X147214998Y-97289605D01*
X147052720Y-97398036D01*
X146872406Y-97472724D01*
X146872405Y-97472724D01*
X146872403Y-97472725D01*
X146680987Y-97510800D01*
X146485813Y-97510800D01*
X146294397Y-97472725D01*
X146294395Y-97472724D01*
X146294394Y-97472724D01*
X146114080Y-97398036D01*
X145951802Y-97289605D01*
X145813795Y-97151598D01*
X145705364Y-96989320D01*
X145630676Y-96809006D01*
X145627523Y-96793153D01*
X145592600Y-96617587D01*
X145592600Y-96422413D01*
X145630675Y-96230997D01*
X145630676Y-96230994D01*
X145705364Y-96050680D01*
X145813795Y-95888402D01*
X145951802Y-95750395D01*
X146114080Y-95641964D01*
X146294394Y-95567276D01*
X146294395Y-95567276D01*
X146294397Y-95567275D01*
X146485813Y-95529200D01*
X146680987Y-95529200D01*
X146872403Y-95567275D01*
X146872403Y-95567275D01*
G37*
G36*
X131632403Y-95567275D02*
G01*
X131632405Y-95567276D01*
X131632406Y-95567276D01*
X131812720Y-95641964D01*
X131974998Y-95750395D01*
X132113005Y-95888402D01*
X132221436Y-96050680D01*
X132296124Y-96230994D01*
X132296125Y-96230997D01*
X132334200Y-96422413D01*
X132334200Y-96617587D01*
X132299278Y-96793153D01*
X132296124Y-96809006D01*
X132221436Y-96989320D01*
X132113005Y-97151598D01*
X131974998Y-97289605D01*
X131812720Y-97398036D01*
X131632406Y-97472724D01*
X131632405Y-97472724D01*
X131632403Y-97472725D01*
X131440987Y-97510800D01*
X131245813Y-97510800D01*
X131054397Y-97472725D01*
X131054395Y-97472724D01*
X131054394Y-97472724D01*
X130874080Y-97398036D01*
X130711802Y-97289605D01*
X130573795Y-97151598D01*
X130465364Y-96989320D01*
X130390676Y-96809006D01*
X130387523Y-96793153D01*
X130352600Y-96617587D01*
X130352600Y-96422413D01*
X130390675Y-96230997D01*
X130390676Y-96230994D01*
X130465364Y-96050680D01*
X130573795Y-95888402D01*
X130711802Y-95750395D01*
X130874080Y-95641964D01*
X131054394Y-95567276D01*
X131054395Y-95567276D01*
X131054397Y-95567275D01*
X131245813Y-95529200D01*
X131440987Y-95529200D01*
X131632403Y-95567275D01*
X131632403Y-95567275D01*
G37*
G36*
X141867899Y-94130945D02*
G01*
X141905395Y-94142320D01*
X141939954Y-94160792D01*
X141970247Y-94185653D01*
X141995108Y-94215946D01*
X142013580Y-94250505D01*
X142024955Y-94288001D01*
X142029400Y-94333138D01*
X142029400Y-95071862D01*
X142024955Y-95116999D01*
X142013580Y-95154495D01*
X141995108Y-95189054D01*
X141970247Y-95219347D01*
X141939954Y-95244208D01*
X141905395Y-95262680D01*
X141867899Y-95274055D01*
X141822762Y-95278500D01*
X141184038Y-95278500D01*
X141138901Y-95274055D01*
X141101405Y-95262680D01*
X141066846Y-95244208D01*
X141036553Y-95219347D01*
X141011692Y-95189054D01*
X140993220Y-95154495D01*
X140981845Y-95116999D01*
X140977400Y-95071862D01*
X140977400Y-94333138D01*
X140981845Y-94288001D01*
X140993220Y-94250505D01*
X141011692Y-94215946D01*
X141036553Y-94185653D01*
X141066846Y-94160792D01*
X141101405Y-94142320D01*
X141138901Y-94130945D01*
X141184038Y-94126500D01*
X141822762Y-94126500D01*
X141867899Y-94130945D01*
X141867899Y-94130945D01*
G37*
G36*
X136787899Y-94130945D02*
G01*
X136825395Y-94142320D01*
X136859954Y-94160792D01*
X136890247Y-94185653D01*
X136915108Y-94215946D01*
X136933580Y-94250505D01*
X136944955Y-94288001D01*
X136949400Y-94333138D01*
X136949400Y-95071862D01*
X136944955Y-95116999D01*
X136933580Y-95154495D01*
X136915108Y-95189054D01*
X136890247Y-95219347D01*
X136859954Y-95244208D01*
X136825395Y-95262680D01*
X136787899Y-95274055D01*
X136742762Y-95278500D01*
X136104038Y-95278500D01*
X136058901Y-95274055D01*
X136021405Y-95262680D01*
X135986846Y-95244208D01*
X135956553Y-95219347D01*
X135931692Y-95189054D01*
X135913220Y-95154495D01*
X135901845Y-95116999D01*
X135897400Y-95071862D01*
X135897400Y-94333138D01*
X135901845Y-94288001D01*
X135913220Y-94250505D01*
X135931692Y-94215946D01*
X135956553Y-94185653D01*
X135986846Y-94160792D01*
X136021405Y-94142320D01*
X136058901Y-94130945D01*
X136104038Y-94126500D01*
X136742762Y-94126500D01*
X136787899Y-94130945D01*
X136787899Y-94130945D01*
G37*
G36*
X146872403Y-93027275D02*
G01*
X146872405Y-93027276D01*
X146872406Y-93027276D01*
X147052720Y-93101964D01*
X147214998Y-93210395D01*
X147353005Y-93348402D01*
X147461436Y-93510680D01*
X147536124Y-93690994D01*
X147536125Y-93690997D01*
X147574200Y-93882413D01*
X147574200Y-94077587D01*
X147541221Y-94243385D01*
X147536124Y-94269006D01*
X147461436Y-94449320D01*
X147353005Y-94611598D01*
X147214998Y-94749605D01*
X147052720Y-94858036D01*
X146872406Y-94932724D01*
X146872405Y-94932724D01*
X146872403Y-94932725D01*
X146680987Y-94970800D01*
X146485813Y-94970800D01*
X146294397Y-94932725D01*
X146294395Y-94932724D01*
X146294394Y-94932724D01*
X146114080Y-94858036D01*
X145951802Y-94749605D01*
X145813795Y-94611598D01*
X145705364Y-94449320D01*
X145630676Y-94269006D01*
X145625580Y-94243385D01*
X145592600Y-94077587D01*
X145592600Y-93882413D01*
X145630675Y-93690997D01*
X145630676Y-93690994D01*
X145705364Y-93510680D01*
X145813795Y-93348402D01*
X145951802Y-93210395D01*
X146114080Y-93101964D01*
X146294394Y-93027276D01*
X146294395Y-93027276D01*
X146294397Y-93027275D01*
X146485813Y-92989200D01*
X146680987Y-92989200D01*
X146872403Y-93027275D01*
X146872403Y-93027275D01*
G37*
G36*
X131632403Y-93027275D02*
G01*
X131632405Y-93027276D01*
X131632406Y-93027276D01*
X131812720Y-93101964D01*
X131974998Y-93210395D01*
X132113005Y-93348402D01*
X132221436Y-93510680D01*
X132296124Y-93690994D01*
X132296125Y-93690997D01*
X132334200Y-93882413D01*
X132334200Y-94077587D01*
X132301221Y-94243385D01*
X132296124Y-94269006D01*
X132221436Y-94449320D01*
X132113005Y-94611598D01*
X131974998Y-94749605D01*
X131812720Y-94858036D01*
X131632406Y-94932724D01*
X131632405Y-94932724D01*
X131632403Y-94932725D01*
X131440987Y-94970800D01*
X131245813Y-94970800D01*
X131054397Y-94932725D01*
X131054395Y-94932724D01*
X131054394Y-94932724D01*
X130874080Y-94858036D01*
X130711802Y-94749605D01*
X130573795Y-94611598D01*
X130465364Y-94449320D01*
X130390676Y-94269006D01*
X130385580Y-94243385D01*
X130352600Y-94077587D01*
X130352600Y-93882413D01*
X130390675Y-93690997D01*
X130390676Y-93690994D01*
X130465364Y-93510680D01*
X130573795Y-93348402D01*
X130711802Y-93210395D01*
X130874080Y-93101964D01*
X131054394Y-93027276D01*
X131054395Y-93027276D01*
X131054397Y-93027275D01*
X131245813Y-92989200D01*
X131440987Y-92989200D01*
X131632403Y-93027275D01*
X131632403Y-93027275D01*
G37*
G36*
X136787899Y-92380945D02*
G01*
X136825395Y-92392320D01*
X136859954Y-92410792D01*
X136890247Y-92435653D01*
X136915108Y-92465946D01*
X136933580Y-92500505D01*
X136944955Y-92538001D01*
X136949400Y-92583138D01*
X136949400Y-93321862D01*
X136944955Y-93366999D01*
X136933580Y-93404495D01*
X136915108Y-93439054D01*
X136890247Y-93469347D01*
X136859954Y-93494208D01*
X136825395Y-93512680D01*
X136787899Y-93524055D01*
X136742762Y-93528500D01*
X136104038Y-93528500D01*
X136058901Y-93524055D01*
X136021405Y-93512680D01*
X135986846Y-93494208D01*
X135956553Y-93469347D01*
X135931692Y-93439054D01*
X135913220Y-93404495D01*
X135901845Y-93366999D01*
X135897400Y-93321862D01*
X135897400Y-92583138D01*
X135901845Y-92538001D01*
X135913220Y-92500505D01*
X135931692Y-92465946D01*
X135956553Y-92435653D01*
X135986846Y-92410792D01*
X136021405Y-92392320D01*
X136058901Y-92380945D01*
X136104038Y-92376500D01*
X136742762Y-92376500D01*
X136787899Y-92380945D01*
X136787899Y-92380945D01*
G37*
G36*
X141867899Y-92380945D02*
G01*
X141905395Y-92392320D01*
X141939954Y-92410792D01*
X141970247Y-92435653D01*
X141995108Y-92465946D01*
X142013580Y-92500505D01*
X142024955Y-92538001D01*
X142029400Y-92583138D01*
X142029400Y-93321862D01*
X142024955Y-93366999D01*
X142013580Y-93404495D01*
X141995108Y-93439054D01*
X141970247Y-93469347D01*
X141939954Y-93494208D01*
X141905395Y-93512680D01*
X141867899Y-93524055D01*
X141822762Y-93528500D01*
X141184038Y-93528500D01*
X141138901Y-93524055D01*
X141101405Y-93512680D01*
X141066846Y-93494208D01*
X141036553Y-93469347D01*
X141011692Y-93439054D01*
X140993220Y-93404495D01*
X140981845Y-93366999D01*
X140977400Y-93321862D01*
X140977400Y-92583138D01*
X140981845Y-92538001D01*
X140993220Y-92500505D01*
X141011692Y-92465946D01*
X141036553Y-92435653D01*
X141066846Y-92410792D01*
X141101405Y-92392320D01*
X141138901Y-92380945D01*
X141184038Y-92376500D01*
X141822762Y-92376500D01*
X141867899Y-92380945D01*
X141867899Y-92380945D01*
G37*
G36*
X146872403Y-90487275D02*
G01*
X146872405Y-90487276D01*
X146872406Y-90487276D01*
X147052720Y-90561964D01*
X147214998Y-90670395D01*
X147353005Y-90808402D01*
X147461436Y-90970680D01*
X147536124Y-91150994D01*
X147574200Y-91342415D01*
X147574200Y-91537585D01*
X147536124Y-91729006D01*
X147461436Y-91909320D01*
X147353005Y-92071598D01*
X147214998Y-92209605D01*
X147052720Y-92318036D01*
X146872406Y-92392724D01*
X146872405Y-92392724D01*
X146872403Y-92392725D01*
X146680987Y-92430800D01*
X146485813Y-92430800D01*
X146294397Y-92392725D01*
X146294395Y-92392724D01*
X146294394Y-92392724D01*
X146114080Y-92318036D01*
X145951802Y-92209605D01*
X145813795Y-92071598D01*
X145705364Y-91909320D01*
X145630676Y-91729006D01*
X145592600Y-91537585D01*
X145592600Y-91342415D01*
X145630676Y-91150994D01*
X145705364Y-90970680D01*
X145813795Y-90808402D01*
X145951802Y-90670395D01*
X146114080Y-90561964D01*
X146294394Y-90487276D01*
X146294395Y-90487276D01*
X146294397Y-90487275D01*
X146485813Y-90449200D01*
X146680987Y-90449200D01*
X146872403Y-90487275D01*
X146872403Y-90487275D01*
G37*
G36*
X131632403Y-90487275D02*
G01*
X131632405Y-90487276D01*
X131632406Y-90487276D01*
X131812720Y-90561964D01*
X131974998Y-90670395D01*
X132113005Y-90808402D01*
X132221436Y-90970680D01*
X132296124Y-91150994D01*
X132334200Y-91342415D01*
X132334200Y-91537585D01*
X132296124Y-91729006D01*
X132221436Y-91909320D01*
X132113005Y-92071598D01*
X131974998Y-92209605D01*
X131812720Y-92318036D01*
X131632406Y-92392724D01*
X131632405Y-92392724D01*
X131632403Y-92392725D01*
X131440987Y-92430800D01*
X131245813Y-92430800D01*
X131054397Y-92392725D01*
X131054395Y-92392724D01*
X131054394Y-92392724D01*
X130874080Y-92318036D01*
X130711802Y-92209605D01*
X130573795Y-92071598D01*
X130465364Y-91909320D01*
X130390676Y-91729006D01*
X130352600Y-91537585D01*
X130352600Y-91342415D01*
X130390676Y-91150994D01*
X130465364Y-90970680D01*
X130573795Y-90808402D01*
X130711802Y-90670395D01*
X130874080Y-90561964D01*
X131054394Y-90487276D01*
X131054395Y-90487276D01*
X131054397Y-90487275D01*
X131245813Y-90449200D01*
X131440987Y-90449200D01*
X131632403Y-90487275D01*
X131632403Y-90487275D01*
G37*
G36*
X141867899Y-89050945D02*
G01*
X141905395Y-89062320D01*
X141939954Y-89080792D01*
X141970247Y-89105653D01*
X141995108Y-89135946D01*
X142013580Y-89170505D01*
X142024955Y-89208001D01*
X142029400Y-89253138D01*
X142029400Y-89991862D01*
X142024955Y-90036999D01*
X142013580Y-90074495D01*
X141995108Y-90109054D01*
X141970247Y-90139347D01*
X141939954Y-90164208D01*
X141905395Y-90182680D01*
X141867899Y-90194055D01*
X141822762Y-90198500D01*
X141184038Y-90198500D01*
X141138901Y-90194055D01*
X141101405Y-90182680D01*
X141066846Y-90164208D01*
X141036553Y-90139347D01*
X141011692Y-90109054D01*
X140993220Y-90074495D01*
X140981845Y-90036999D01*
X140977400Y-89991862D01*
X140977400Y-89253138D01*
X140981845Y-89208001D01*
X140993220Y-89170505D01*
X141011692Y-89135946D01*
X141036553Y-89105653D01*
X141066846Y-89080792D01*
X141101405Y-89062320D01*
X141138901Y-89050945D01*
X141184038Y-89046500D01*
X141822762Y-89046500D01*
X141867899Y-89050945D01*
X141867899Y-89050945D01*
G37*
G36*
X136787899Y-89050945D02*
G01*
X136825395Y-89062320D01*
X136859954Y-89080792D01*
X136890247Y-89105653D01*
X136915108Y-89135946D01*
X136933580Y-89170505D01*
X136944955Y-89208001D01*
X136949400Y-89253138D01*
X136949400Y-89991862D01*
X136944955Y-90036999D01*
X136933580Y-90074495D01*
X136915108Y-90109054D01*
X136890247Y-90139347D01*
X136859954Y-90164208D01*
X136825395Y-90182680D01*
X136787899Y-90194055D01*
X136742762Y-90198500D01*
X136104038Y-90198500D01*
X136058901Y-90194055D01*
X136021405Y-90182680D01*
X135986846Y-90164208D01*
X135956553Y-90139347D01*
X135931692Y-90109054D01*
X135913220Y-90074495D01*
X135901845Y-90036999D01*
X135897400Y-89991862D01*
X135897400Y-89253138D01*
X135901845Y-89208001D01*
X135913220Y-89170505D01*
X135931692Y-89135946D01*
X135956553Y-89105653D01*
X135986846Y-89080792D01*
X136021405Y-89062320D01*
X136058901Y-89050945D01*
X136104038Y-89046500D01*
X136742762Y-89046500D01*
X136787899Y-89050945D01*
X136787899Y-89050945D01*
G37*
G36*
X146872403Y-87947275D02*
G01*
X146872405Y-87947276D01*
X146872406Y-87947276D01*
X147052720Y-88021964D01*
X147214998Y-88130395D01*
X147353005Y-88268402D01*
X147461436Y-88430680D01*
X147536124Y-88610994D01*
X147536125Y-88610997D01*
X147574200Y-88802413D01*
X147574200Y-88997587D01*
X147541221Y-89163385D01*
X147536124Y-89189006D01*
X147461436Y-89369320D01*
X147353005Y-89531598D01*
X147214998Y-89669605D01*
X147052720Y-89778036D01*
X146872406Y-89852724D01*
X146872405Y-89852724D01*
X146872403Y-89852725D01*
X146680987Y-89890800D01*
X146485813Y-89890800D01*
X146294397Y-89852725D01*
X146294395Y-89852724D01*
X146294394Y-89852724D01*
X146114080Y-89778036D01*
X145951802Y-89669605D01*
X145813795Y-89531598D01*
X145705364Y-89369320D01*
X145630676Y-89189006D01*
X145625580Y-89163385D01*
X145592600Y-88997587D01*
X145592600Y-88802413D01*
X145630675Y-88610997D01*
X145630676Y-88610994D01*
X145705364Y-88430680D01*
X145813795Y-88268402D01*
X145951802Y-88130395D01*
X146114080Y-88021964D01*
X146294394Y-87947276D01*
X146294395Y-87947276D01*
X146294397Y-87947275D01*
X146485813Y-87909200D01*
X146680987Y-87909200D01*
X146872403Y-87947275D01*
X146872403Y-87947275D01*
G37*
G36*
X131632403Y-87947275D02*
G01*
X131632405Y-87947276D01*
X131632406Y-87947276D01*
X131812720Y-88021964D01*
X131974998Y-88130395D01*
X132113005Y-88268402D01*
X132221436Y-88430680D01*
X132296124Y-88610994D01*
X132296125Y-88610997D01*
X132334200Y-88802413D01*
X132334200Y-88997587D01*
X132301221Y-89163385D01*
X132296124Y-89189006D01*
X132221436Y-89369320D01*
X132113005Y-89531598D01*
X131974998Y-89669605D01*
X131812720Y-89778036D01*
X131632406Y-89852724D01*
X131632405Y-89852724D01*
X131632403Y-89852725D01*
X131440987Y-89890800D01*
X131245813Y-89890800D01*
X131054397Y-89852725D01*
X131054395Y-89852724D01*
X131054394Y-89852724D01*
X130874080Y-89778036D01*
X130711802Y-89669605D01*
X130573795Y-89531598D01*
X130465364Y-89369320D01*
X130390676Y-89189006D01*
X130385580Y-89163385D01*
X130352600Y-88997587D01*
X130352600Y-88802413D01*
X130390675Y-88610997D01*
X130390676Y-88610994D01*
X130465364Y-88430680D01*
X130573795Y-88268402D01*
X130711802Y-88130395D01*
X130874080Y-88021964D01*
X131054394Y-87947276D01*
X131054395Y-87947276D01*
X131054397Y-87947275D01*
X131245813Y-87909200D01*
X131440987Y-87909200D01*
X131632403Y-87947275D01*
X131632403Y-87947275D01*
G37*
G36*
X141867899Y-87300945D02*
G01*
X141905395Y-87312320D01*
X141939954Y-87330792D01*
X141970247Y-87355653D01*
X141995108Y-87385946D01*
X142013580Y-87420505D01*
X142024955Y-87458001D01*
X142029400Y-87503138D01*
X142029400Y-88241862D01*
X142024955Y-88286999D01*
X142013580Y-88324495D01*
X141995108Y-88359054D01*
X141970247Y-88389347D01*
X141939954Y-88414208D01*
X141905395Y-88432680D01*
X141867899Y-88444055D01*
X141822762Y-88448500D01*
X141184038Y-88448500D01*
X141138901Y-88444055D01*
X141101405Y-88432680D01*
X141066846Y-88414208D01*
X141036553Y-88389347D01*
X141011692Y-88359054D01*
X140993220Y-88324495D01*
X140981845Y-88286999D01*
X140977400Y-88241862D01*
X140977400Y-87503138D01*
X140981845Y-87458001D01*
X140993220Y-87420505D01*
X141011692Y-87385946D01*
X141036553Y-87355653D01*
X141066846Y-87330792D01*
X141101405Y-87312320D01*
X141138901Y-87300945D01*
X141184038Y-87296500D01*
X141822762Y-87296500D01*
X141867899Y-87300945D01*
X141867899Y-87300945D01*
G37*
G36*
X136787899Y-87300945D02*
G01*
X136825395Y-87312320D01*
X136859954Y-87330792D01*
X136890247Y-87355653D01*
X136915108Y-87385946D01*
X136933580Y-87420505D01*
X136944955Y-87458001D01*
X136949400Y-87503138D01*
X136949400Y-88241862D01*
X136944955Y-88286999D01*
X136933580Y-88324495D01*
X136915108Y-88359054D01*
X136890247Y-88389347D01*
X136859954Y-88414208D01*
X136825395Y-88432680D01*
X136787899Y-88444055D01*
X136742762Y-88448500D01*
X136104038Y-88448500D01*
X136058901Y-88444055D01*
X136021405Y-88432680D01*
X135986846Y-88414208D01*
X135956553Y-88389347D01*
X135931692Y-88359054D01*
X135913220Y-88324495D01*
X135901845Y-88286999D01*
X135897400Y-88241862D01*
X135897400Y-87503138D01*
X135901845Y-87458001D01*
X135913220Y-87420505D01*
X135931692Y-87385946D01*
X135956553Y-87355653D01*
X135986846Y-87330792D01*
X136021405Y-87312320D01*
X136058901Y-87300945D01*
X136104038Y-87296500D01*
X136742762Y-87296500D01*
X136787899Y-87300945D01*
X136787899Y-87300945D01*
G37*
G36*
X131632403Y-85407275D02*
G01*
X131632405Y-85407276D01*
X131632406Y-85407276D01*
X131812720Y-85481964D01*
X131974998Y-85590395D01*
X132113005Y-85728402D01*
X132221436Y-85890680D01*
X132296124Y-86070994D01*
X132334200Y-86262415D01*
X132334200Y-86457585D01*
X132296124Y-86649006D01*
X132221436Y-86829320D01*
X132113005Y-86991598D01*
X131974998Y-87129605D01*
X131812720Y-87238036D01*
X131632406Y-87312724D01*
X131632405Y-87312724D01*
X131632403Y-87312725D01*
X131440987Y-87350800D01*
X131245813Y-87350800D01*
X131054397Y-87312725D01*
X131054395Y-87312724D01*
X131054394Y-87312724D01*
X130874080Y-87238036D01*
X130711802Y-87129605D01*
X130573795Y-86991598D01*
X130465364Y-86829320D01*
X130390676Y-86649006D01*
X130352600Y-86457585D01*
X130352600Y-86262415D01*
X130390676Y-86070994D01*
X130465364Y-85890680D01*
X130573795Y-85728402D01*
X130711802Y-85590395D01*
X130874080Y-85481964D01*
X131054394Y-85407276D01*
X131054395Y-85407276D01*
X131054397Y-85407275D01*
X131245813Y-85369200D01*
X131440987Y-85369200D01*
X131632403Y-85407275D01*
X131632403Y-85407275D01*
G37*
G36*
X147574200Y-87350800D02*
G01*
X145592600Y-87350800D01*
X145592600Y-85369200D01*
X147574200Y-85369200D01*
X147574200Y-87350800D01*
X147574200Y-87350800D01*
G37*
M02*
