M48
; DRILL file {KiCad (5.1.4)-1} date 18/12/2019 21:33:07
; FORMAT={-:-/ absolute / metric / decimal}
; #@! TF.CreationDate,2019-12-18T21:33:07+01:00
; #@! TF.GenerationSoftware,Kicad,Pcbnew,(5.1.4)-1
FMAT,2
METRIC
T1C0.300
T2C1.000
T3C1.016
%
G90
G05
T1
X139.598Y-114.935
T2
X133.883Y-119.38
X136.423Y-119.38
X138.963Y-119.38
X141.503Y-119.38
X144.043Y-119.38
X146.583Y-119.38
T3
X131.343Y-86.36
X131.343Y-88.9
X131.343Y-91.44
X131.343Y-93.98
X131.343Y-96.52
X131.343Y-99.06
X131.343Y-101.6
X131.343Y-104.14
X131.343Y-106.68
X131.343Y-109.22
X131.343Y-111.76
X131.343Y-114.3
X146.583Y-86.36
X146.583Y-88.9
X146.583Y-91.44
X146.583Y-93.98
X146.583Y-96.52
X146.583Y-99.06
X146.583Y-101.6
X146.583Y-104.14
X146.583Y-106.68
X146.583Y-109.22
X146.583Y-111.76
X146.583Y-114.3
T0
M30
